<svg id="deposit-icon-grey" xmlns="http://www.w3.org/2000/svg" width="16.658" height="16.658" viewBox="0 0 16.658 16.658" fill="currentColor">
  <path id="Path_31478" data-name="Path 31478" d="M2.95,7.776H.521A.521.521,0,0,1,0,7.256V5.521A.521.521,0,0,1,.521,5H2.95a.521.521,0,0,1,.521.521V7.256A.521.521,0,0,1,2.95,7.776Z" transform="translate(0 -1.53)"/>
  <path id="Path_31479" data-name="Path 31479" d="M2.95,17.776H.521A.521.521,0,0,1,0,17.256V15.521A.521.521,0,0,1,.521,15H2.95a.521.521,0,0,1,.521.521v1.735A.521.521,0,0,1,2.95,17.776Z" transform="translate(0 -4.589)"/>
  <path id="Path_31480" data-name="Path 31480" d="M15.285,0H3.659A1.91,1.91,0,0,0,1.75,1.909v.868H3.485A1.216,1.216,0,0,1,4.7,3.991V5.726A1.216,1.216,0,0,1,3.485,6.941H1.75V9.717H3.485A1.216,1.216,0,0,1,4.7,10.932v1.735a1.216,1.216,0,0,1-1.215,1.215H1.75v.868a1.91,1.91,0,0,0,1.909,1.909H15.285a1.91,1.91,0,0,0,1.909-1.909V1.909A1.91,1.91,0,0,0,15.285,0ZM13.2,11.275a4.167,4.167,0,1,1,1.22-2.946A4.137,4.137,0,0,1,13.2,11.275Zm.092-3.38h-1a2.084,2.084,0,0,0-.287-.7l.705-.705a.434.434,0,0,0-.614-.614l-.705.705a2.075,2.075,0,0,0-.7-.273V5.292a.434.434,0,1,0-.868,0V6.306a2.069,2.069,0,0,0-.7.273l-.705-.705a.434.434,0,1,0-.614.614l.705.705a2.07,2.07,0,0,0-.287.7h-1a.434.434,0,1,0,0,.868h1a2.087,2.087,0,0,0,.287.7l-.7.705a.434.434,0,0,0,.614.614l.7-.7a2.1,2.1,0,0,0,.707.294v.988a.434.434,0,1,0,.868,0v-.988a2.11,2.11,0,0,0,.707-.294l.7.7a.434.434,0,0,0,.614-.614L12,9.465a2.073,2.073,0,0,0,.287-.7h1a.434.434,0,1,0,0-.868Z" transform="translate(-0.535)"/>
</svg>
