<svg xmlns="http://www.w3.org/2000/svg" width="23.912" height="19.898" viewBox="0 0 23.912 19.898" fill="currentColor">
  <g id="id-grey" transform="translate(0 -17.3)">
    <g id="Group_14033" data-name="Group 14033" transform="translate(0 21.3)">
      <g id="Group_14032" data-name="Group 14032">
        <path id="Path_31630" data-name="Path 31630" d="M17.974,141.3a5.949,5.949,0,0,1-5.9-5.3H1.987A1.99,1.99,0,0,0,0,137.987v11.924A1.99,1.99,0,0,0,1.987,151.9H19.3a1.99,1.99,0,0,0,1.987-1.987V140.29A5.926,5.926,0,0,1,17.974,141.3Zm-2.65,1.325a.662.662,0,1,1-.662.662A.662.662,0,0,1,15.324,142.624Zm-2.65,0a.662.662,0,1,1-.662.662A.662.662,0,0,1,12.675,142.624Zm-3.4,5.962a.662.662,0,0,1-.662.662h-5.3a.662.662,0,0,1-.662-.662v-1.325a3.312,3.312,0,0,1,1.462-2.746,2.65,2.65,0,1,1,3.7,0,3.312,3.312,0,0,1,1.462,2.746Zm8.7.662h-5.3a.662.662,0,1,1,0-1.325h5.3a.662.662,0,1,1,0,1.325Zm0-2.65h-5.3a.662.662,0,0,1,0-1.325h5.3a.662.662,0,0,1,0,1.325Zm0-2.65a.662.662,0,1,1,.662-.662A.662.662,0,0,1,17.974,143.949Z" transform="translate(0 -136)"/>
      </g>
    </g>
    <g id="Group_14035" data-name="Group 14035" transform="translate(4.637 26.599)">
      <g id="Group_14034" data-name="Group 14034">
        <path id="Path_31631" data-name="Path 31631" d="M106.325,256a1.325,1.325,0,1,0,1.325,1.325A1.327,1.327,0,0,0,106.325,256Z" transform="translate(-105 -256)"/>
      </g>
    </g>
    <g id="Group_14037" data-name="Group 14037" transform="translate(3.975 30.574)">
      <g id="Group_14036" data-name="Group 14036">
        <path id="Path_31632" data-name="Path 31632" d="M91.987,346A1.99,1.99,0,0,0,90,347.987v.662h3.975v-.662A1.99,1.99,0,0,0,91.987,346Z" transform="translate(-90 -346)"/>
      </g>
    </g>
    <g id="Group_14040" data-name="Group 14040" transform="translate(13.912 17.516)">
      <path id="Union_66" data-name="Union 66" d="M3.266,7.74.249,4.57a.957.957,0,0,1,0-1.288l.689-.718a.863.863,0,0,1,1.235,0L3.88,4.357,7.826.26a.864.864,0,0,1,1.235,0L9.75.978a.956.956,0,0,1,0,1.288L5.287,6.9a.856.856,0,0,1-.1.122L4.5,7.74a.863.863,0,0,1-1.235,0Z" transform="translate(0 -0.216)"/>
    </g>
  </g>
</svg>
