<svg id="payments-icon-grey" xmlns="http://www.w3.org/2000/svg" width="15.816" height="15.817" viewBox="0 0 15.816 15.817" fill="currentColor">
  <path id="Path_31474" data-name="Path 31474" d="M186.657,15.817a7.908,7.908,0,1,0-7.908-7.908A7.917,7.917,0,0,0,186.657,15.817ZM185.721,3.26V3.045a.937.937,0,1,1,1.873,0v.216a2.476,2.476,0,0,1,1.953,2.417.937.937,0,1,1-1.873,0,.6.6,0,0,0-.6-.6h-.84a.6.6,0,0,0-.357,1.081l.779.577,1.893,1.4a2.483,2.483,0,0,1,1,1.971v.009a2.474,2.474,0,0,1-1.958,2.436v.219a.937.937,0,1,1-1.873,0v-.216a2.473,2.473,0,0,1-1.952-2.4.936.936,0,0,1,.93-.942h.006a.937.937,0,0,1,.937.931.6.6,0,0,0,.6.6l.839,0a.6.6,0,0,0,.6-.6v-.009a.6.6,0,0,0-.243-.478l-.779-.576-1.894-1.4a2.472,2.472,0,0,1,.957-4.406Z" transform="translate(-178.749 0)"/>
  <rect id="Rectangle_3199" data-name="Rectangle 3199" width="8" height="13" transform="translate(3.682 1.129)"/>
  <path id="Path_31487" data-name="Path 31487" d="M185.721,3.26V3.045a.937.937,0,1,1,1.873,0v.216a2.476,2.476,0,0,1,1.953,2.417.937.937,0,1,1-1.873,0,.6.6,0,0,0-.6-.6h-.84a.6.6,0,0,0-.357,1.081l.779.577,1.893,1.4a2.483,2.483,0,0,1,1,1.971v.009a2.474,2.474,0,0,1-1.958,2.436v.219a.937.937,0,1,1-1.873,0v-.216a2.473,2.473,0,0,1-1.952-2.4.936.936,0,0,1,.93-.942h.006a.937.937,0,0,1,.937.931.6.6,0,0,0,.6.6l.839,0a.6.6,0,0,0,.6-.6v-.009a.6.6,0,0,0-.243-.478l-.779-.576-1.894-1.4a2.472,2.472,0,0,1,.957-4.406Z" transform="translate(-178.748)" fill="#fff"/>
</svg>
