<svg xmlns="http://www.w3.org/2000/svg" width="23.94" height="23.478" viewBox="0 0 23.94 23.478" fill="currentColor">
  <g id="police-icon-grey" transform="translate(-73.615 -10.098)">
    <path id="Path_31493" data-name="Path 31493" d="M27.619,129.158c-1.251-1.1-1.858-2.032-1.858-2.852v-.048l.008-.048c.007-.042.08-.466.178-1.015l-1.206-.277-.093-.913a4.381,4.381,0,0,0,2.416-4.471,8.083,8.083,0,0,1-4.347,1.086,8.087,8.087,0,0,1-4.347-1.086,4.381,4.381,0,0,0,2.416,4.471l-.093.913-4.586,1.052a1.106,1.106,0,0,0-.971,1.183l.452,2.609a1.187,1.187,0,0,0,1.235.852H28.61a1.485,1.485,0,0,0,.683-.162A19.248,19.248,0,0,1,27.619,129.158Z" transform="translate(58.492 -98.563)"/>
    <path id="Path_31494" data-name="Path 31494" d="M39.438,7.108l1.289.867c-.257,1.734,2.2,3.181,5.254,3.181s5.51-1.449,5.254-3.181l1.289-.867a.764.764,0,0,0,.312-.829l-.744-2.825a1.318,1.318,0,0,0-.675-.838L46.58.144a1.318,1.318,0,0,0-1.2,0L40.544,2.617a1.318,1.318,0,0,0-.675.838l-.744,2.825A.764.764,0,0,0,39.438,7.108Zm4.98-4.015a.314.314,0,0,1,.311-.269h2.523a.315.315,0,0,1,.312.273l.185,1.4c0,.7-1.111,1.666-1.572,2.036a.315.315,0,0,1-.394,0C45.322,6.163,44.212,5.2,44.212,4.5l.206-1.4Z" transform="translate(34.924 10.098)"/>
    <path id="Path_31495" data-name="Path 31495" d="M180.832,164.016c-.191-1.044-2.345-1.31-5.249-1.316s-5.058.272-5.249,1.316c-.262,1.434-.851,5.769-.851,5.769,0,2.448,3.942,5.839,5.488,7.076a.98.98,0,0,0,1.225,0c1.547-1.237,5.487-4.627,5.487-7.075C181.683,169.785,181.094,165.45,180.832,164.016Zm-2.015,4.071a.472.472,0,0,1-.2-.046l-1.11,1.241.169,1.657a.475.475,0,1,1-.543.47c0-.017,0-.033,0-.049l-1.548-.683-1.528.675a.475.475,0,1,1-.56-.409l.169-1.66-1.11-1.241a.475.475,0,1,1,.21-.663l1.634-.353.834-1.434a.475.475,0,1,1,.7,0l.834,1.434,1.634.353a.475.475,0,1,1,.413.709Z" transform="translate(-84.128 -143.5)"/>
  </g>
</svg>
