<svg xmlns="http://www.w3.org/2000/svg" width="19.019" height="19.016" viewBox="0 0 19.019 19.016" fill="currentColor">
  <g id="stats-icon-grey" transform="translate(1.113 3.067)">
    <path id="Path_31642" data-name="Path 31642" d="M4.755,187.75H.68a.683.683,0,0,0-.68.68v10.186a.68.68,0,0,0,.68.68H4.755a.68.68,0,0,0,.68-.68V188.43A.68.68,0,0,0,4.755,187.75Z" transform="translate(-1.113 -183.35)"/>
    <path id="Path_31643" data-name="Path 31643" d="M175.455.05H171.38a.679.679,0,0,0-.68.676V18.385a.68.68,0,0,0,.68.68h4.074a.68.68,0,0,0,.68-.68V.73A.68.68,0,0,0,175.455.05Z" transform="translate(-165.021 -3.117)"/>
    <path id="Path_31644" data-name="Path 31644" d="M346.155,136.55H342.08a.678.678,0,0,0-.68.68v12.223a.68.68,0,0,0,.68.68h4.074a.68.68,0,0,0,.68-.68V137.23A.68.68,0,0,0,346.155,136.55Z" transform="translate(-328.93 -134.186)"/>
  </g>
</svg>
