<svg xmlns="http://www.w3.org/2000/svg" width="182.137" height="40" viewBox="0 0 182.137 40"><g transform="translate(-59.886 -73.892)"><path d="M696.522,232.106v11.182h-1.11v-2.346a5.223,5.223,0,0,1-4.567,2.557,5.747,5.747,0,0,1,0-11.494,5.067,5.067,0,0,1,4.567,2.581v-2.479h1.11Zm-10.282,5.567a4.488,4.488,0,0,0,4.279,4.688c.1,0,.191.005.287,0,6.256,0,6.256-9.344,0-9.344a4.473,4.473,0,0,0-4.569,4.374C686.235,237.488,686.236,237.58,686.24,237.673Z" transform="translate(-567.625 -143.547)" fill="#fff"/><path d="M842.85,231.982l.046,1.994a3.91,3.91,0,0,1,3.707-2.1,4.371,4.371,0,0,1,2.4.657l-.5.907a3.6,3.6,0,0,0-1.9-.524,3.714,3.714,0,0,0-3.691,3.73v6.514h-1.1V231.982Z" transform="translate(-709.903 -143.423)" fill="#fff"/><path d="M942.119,232.106v11.182h-1.11v-2.346a5.223,5.223,0,0,1-4.567,2.557,5.747,5.747,0,1,1,0-11.494,5.067,5.067,0,0,1,4.567,2.581v-2.479h1.11Zm-10.228,5.567a4.488,4.488,0,0,0,4.28,4.688c.1,0,.191.005.287,0,6.256,0,6.256-9.344,0-9.344a4.473,4.473,0,0,0-4.569,4.374C931.886,237.488,931.887,237.58,931.891,237.673Z" transform="translate(-790.6 -143.547)" fill="#fff"/><path d="M1213.818,236.691a5.622,5.622,0,0,1,5.471-5.769c.068,0,.137,0,.206,0,3.128,0,5.951,1.924,5.521,6.256h-10.071a4.395,4.395,0,0,0,4.551,4.207,5.254,5.254,0,0,0,4.027-1.7l.782.633a6.147,6.147,0,0,1-4.817,2.15,5.474,5.474,0,0,1-5.674-5.266C1213.807,237.033,1213.808,236.862,1213.818,236.691Zm10.166-.453c0-2.76-1.83-4.3-4.527-4.3a4.465,4.465,0,0,0-4.551,4.3Z" transform="translate(-1047.638 -142.564)" fill="#fff"/><path d="M560.714,240.9a5.286,5.286,0,0,0,3.01-4.754,5.093,5.093,0,0,0-5.262-5.474h0a5.446,5.446,0,0,0,0,10.885c2.08,0,4.23.946,4.23,3.347s-1.994,3.37-4.23,3.37-4.183-1.087-4.183-3.37h-1.1c0,2.83,2.346,4.457,5.294,4.457s5.317-1.447,5.317-4.457A4.13,4.13,0,0,0,560.714,240.9Zm-6.4-4.747c0-2.916,1.853-4.34,4.137-4.34h0a3.975,3.975,0,0,1,4.176,4.34,4.285,4.285,0,0,1-4.183,4.3,4.1,4.1,0,0,1-4.134-4.061C554.3,236.312,554.307,236.232,554.311,236.152Z" transform="translate(-447.855 -142.338)" fill="#fff"/><path d="M1088.778,240.9a5.286,5.286,0,0,0,3.01-4.754,5.093,5.093,0,0,0-5.262-5.474h0a5.446,5.446,0,0,0,0,10.885c2.08,0,4.23.946,4.23,3.347s-2,3.37-4.223,3.37-4.183-1.087-4.183-3.37h-1.133c0,2.83,2.345,4.457,5.294,4.457s5.317-1.447,5.317-4.457A4.1,4.1,0,0,0,1088.778,240.9Zm-6.4-4.754c0-2.917,1.853-4.34,4.136-4.34h0a3.975,3.975,0,0,1,4.176,4.34,4.285,4.285,0,0,1-4.183,4.3,4.1,4.1,0,0,1-4.133-4.061c0-.077,0-.155.005-.232v-.007Z" transform="translate(-927.258 -142.338)" fill="#fff"/><path d="M1999.518,212.12a1.916,1.916,0,1,1-1.915-1.931,1.831,1.831,0,0,1,1.917,1.739A1.692,1.692,0,0,1,1999.518,212.12Zm-1.915,1.7a1.7,1.7,0,1,0-1.641-1.75c0,.018,0,.036,0,.054a1.564,1.564,0,0,0,1.642,1.7Zm.2-2.737h-.9v2.033h.25v-.782h.438l.664.782h.274v-.039l-.633-.719a.639.639,0,1,0-.094-1.274Zm-.649.242h.65a.4.4,0,1,1,0,.782h-.633Z" transform="translate(-1757.499 -123.74)" fill="#fff"/><path d="M1510.983,240a5.743,5.743,0,0,1-4.3,1.767c-3.237,0-5.928-1.948-5.928-5.9s2.69-5.9,5.928-5.9a5.3,5.3,0,0,1,4.026,1.65l-1.736,1.861a3.386,3.386,0,0,0-2.237-.883,3.128,3.128,0,0,0-3.217,3.035c0,.088,0,.176,0,.264a3.043,3.043,0,0,0,2.814,3.254,3,3,0,0,0,.314.006,3.353,3.353,0,0,0,2.479-.985Z" transform="translate(-1308.154 -141.69)" fill="#fff"/><path d="M1633.512,236.858a5.8,5.8,0,0,1-11.6.008v-.008a5.8,5.8,0,0,1,11.6-.008Zm-8.845,0a3.044,3.044,0,1,0,6.068,0,3.128,3.128,0,0,0-2.949-3.3l-.084,0A3.059,3.059,0,0,0,1624.667,236.858Z" transform="translate(-1418.148 -142.684)" fill="#fff"/><path d="M1771,230.541l.2,1.291a3.291,3.291,0,0,1,3.128-1.564,4.229,4.229,0,0,1,2.87,1.063l-1.227,2.408a2.753,2.753,0,0,0-1.994-.727,2.573,2.573,0,0,0-2.784,2.831v5.88h-2.76V230.541Z" transform="translate(-1551.18 -141.958)" fill="#fff"/><path d="M1872.169,236.634c.179,1.376,1.376,2.346,3.323,2.346a4.6,4.6,0,0,0,2.987-1.016l1.728,1.751a6.85,6.85,0,0,1-4.793,1.806c-3.847,0-6.131-2.346-6.131-5.951a5.6,5.6,0,0,1,5.927-5.833c3.581,0,6.06,2.346,5.63,6.9h-8.672Zm6.061-2.283c-.18-1.447-1.314-2.174-2.893-2.174a3,3,0,0,0-3.128,2.174Z" transform="translate(-1642.738 -141.491)" fill="#fff"/><path d="M1447.53,158.433v0Z" transform="translate(-1259.831 -76.747)" fill="#fff"/><path d="M1365.041,159.363h-.1a2.987,2.987,0,1,1,.633-5.919h.141a3,3,0,0,1,.446.141l.117.055.25.133,1.2-2.08h0a5.356,5.356,0,0,0-1.173-.493l-.164-.039-.477-.094h-.179a5.372,5.372,0,1,0-1.145,10.682q.244.026.489.03h.039a2.987,2.987,0,0,1-.136,5.973,3.03,3.03,0,0,1-.5-.053h-.141a3.009,3.009,0,0,1-.446-.141l-.117-.054a2.979,2.979,0,0,1-1.564-3.753l-2.236-.836a5.371,5.371,0,0,0,2.345,6.529h0a5.376,5.376,0,0,0,1.173.493l.164.039.477.094h.18a5.372,5.372,0,0,0,1.145-10.682q-.243-.026-.489-.03Z" transform="translate(-1180.033 -70.038)" fill="#fff"/><path d="M1447.53,158.425Z" transform="translate(-1259.831 -76.747)" fill="#fff"/><path d="M1436.041,162.9a2.972,2.972,0,0,1-.188,1.048l2.237.837a5.371,5.371,0,0,0-2.346-6.529l-1.2,2.08A2.972,2.972,0,0,1,1436.041,162.9Z" transform="translate(-1248.045 -76.593)" fill="#fff" opacity="0.5"/><path d="M300.8,160.046l-1.626,2.823a4.114,4.114,0,0,1,1.376,1.3l1.963-.735-1.634,1.329a4.076,4.076,0,0,1,.086,3.049l3.049,1.142a7.334,7.334,0,0,0-3.206-8.914Z" transform="translate(-217.247 -78.212)" fill="#fff" opacity="0.5"/><path d="M204.59,160.826h-.141a4.074,4.074,0,1,1,2.174-7.6l1.626-2.823a7.335,7.335,0,1,0-3.659,13.684h.141a4.067,4.067,0,1,1-3.957,2.651l-3.049-1.142a7.334,7.334,0,1,0,6.874-4.77h-.008Z" transform="translate(-124.704 -68.568)" fill="#fff"/><path d="M268.729,206.332a.981.981,0,0,0,.97,1.7l3.073-2.494a4.065,4.065,0,0,0-.328-.594Z" transform="translate(-189.157 -118.985)" fill="#fff"/><g transform="translate(59.886 73.892)"><path d="M79.885,113.892a20,20,0,1,1,20-20A20.023,20.023,0,0,1,79.885,113.892Zm0-39.263A19.263,19.263,0,1,0,99.147,93.891,19.283,19.283,0,0,0,79.885,74.629Z" transform="translate(-59.886 -73.892)" fill="#fff"/></g></g></svg>