<?xml version="1.0" standalone="no"?>
<!DOCTYPE svg PUBLIC "-//W3C//DTD SVG 1.1//EN" "http://www.w3.org/Graphics/SVG/1.1/DTD/svg11.dtd" >
<svg xmlns="http://www.w3.org/2000/svg" xmlns:xlink="http://www.w3.org/1999/xlink" version="1.1">
<metadata>
Created by FontForge 20161013 at Thu Mar 15 14:24:37 2018
 By oussama,,,
Generated by Glyphter
</metadata>
<defs>
<font id="GsLogo" horiz-adv-x="1024" >
  <font-face 
    font-family="GsLogo"
    font-weight="400"
    font-stretch="normal"
    units-per-em="1024"
    panose-1="2 0 5 3 0 0 0 0 0 0"
    ascent="1024"
    descent="0"
    x-height="1023"
    cap-height="873"
    bbox="-13 -1 1240.36 1032"
    underline-thickness="0"
    underline-position="10"
    unicode-range="U+0041-0074"
  />
<missing-glyph 
 />
    <glyph glyph-name=".notdef" 
 />
    <glyph glyph-name=".notdef" 
 />
    <glyph glyph-name=".null" horiz-adv-x="0" 
 />
    <glyph glyph-name="nonmarkingreturn" 
 />
    <glyph glyph-name="A" unicode="A" horiz-adv-x="1248" 
d="M1233 678q-9 11 -24 12h-120q-22 60 -50 110t-61 73q-129 74 -352 74t-352 -74q-33 -23 -61 -73.5t-50 -109.5h-120q-15 -1 -24 -12.5t-7 -25.5l18 -86q2 -11 10.5 -18t20.5 -7h35q-25 -30 -38 -65.5t-13 -73.5q0 -46 17 -86t49 -70l1 -1v-120q1 -20 14 -33.5t34 -13.5
h110q20 0 33.5 13.5t13.5 33.5v48h618v-48q0 -20 13.5 -33.5t33.5 -13.5h110q20 0 33.5 13.5t14.5 33.5v117q34 32 50.5 72.5t16.5 83.5q0 39 -13 75.5t-41 67.5h38q12 0 20.5 7t10.5 18l18 86q2 14 -7 26v0zM326 794q105 59 300 59t300 -59q18 -13 39 -54.5t42 -99.5h-762
q21 58 42 99.5t39 54.5v0zM185 390q1 40 27 66t65.5 26t66 -26t26.5 -65.5t-26.5 -66t-66 -26.5t-65.5 26.5t-27 65.5v0zM975 297q-39 1 -65.5 27.5t-26.5 66t26.5 65.5t66 26t65.5 -26t26 -65.5t-26 -66t-66 -27.5v0z" />
    <glyph glyph-name="B" unicode="B" 
d="M987 512q0 -98 -38.5 -187.5t-103 -154.5t-154 -103t-188 -38t-187.5 38t-154 103t-103 154.5t-38 187.5t38 187.5t103 154t154 103t188 38.5q78 0 152 -24.5t133.5 -69t104 -104t69 -133t24.5 -152.5zM563 136q85 12 156 61.5t112.5 119.5t48.5 146q-38 -3 -54 -4
q-129 -10 -171 -14q-7 -1 -9 -6q-22 -41 -62 -65q-5 -3 -6 -9q-1 -8 -1.5 -17t-1 -20t-1.5 -17l-2.5 -40t-2.5 -41t-2.5 -39.5t-3.5 -40.5v-7v-7zM470 891q-75 -6 -138.5 -38.5t-106 -79.5t-68 -101.5t-30.5 -109.5q14 1 39.5 4t33.5 3q112 11 152 15q10 1 15 10
q25 42 69 62.5t92 12.5q74 -11 113 -77q5 -8 13 -8h3h3.5t4 -0.5t3.5 -0.5q89 -9 129 -13q9 -1 38.5 -3.5t45.5 -4.5q-14 100 -73 179t-148.5 119t-189.5 31zM127 463q10 -86 58.5 -159t116.5 -116t142 -51v15q-4 58 -7 111q-6 87 -6.5 97.5t-9.5 15.5q-27 15 -46 42
q-2 3 -5 9t-6 10.5t-7 6.5t-10 3t-11.5 0.5t-11.5 0.5q-3 0 -159 12q-6 1 -12.5 1t-14 0.5t-11.5 1.5zM454 512q1 -14 7.5 -25t18 -18t24.5 -6q20 0 34.5 14.5t14.5 34.5q0 21 -15 35.5t-35 13.5q-20 0 -34.5 -14.5t-14.5 -34.5z" />
    <glyph glyph-name="C" unicode="C" 
d="M729 505q-93 0 -158.5 65.5t-65.5 158t65 158.5l91 91l45 -46l-90 -90q-47 -47 -47 -113.5t46.5 -113t113 -46.5t113.5 47l90 90l46 -45l-91 -91q-65 -65 -158 -65zM978 661l-68 68l-23 -23q-37 -37 -90 -37t-90.5 37.5t-37.5 90.5t37 90l23 23l-68 68l45 45l113 -113
l-68 -68q-18 -19 -18 -45.5t18.5 -45t45 -18.5t45.5 18l68 68l113 -113zM129 193h64v-64h-64v64zM466 588l127 -125l-45 -46l-127 126zM160 0q-66 0 -113 47t-47 113t47 113l4 3l323 233l37 -52l-321 -231q-26 -28 -26 -66q0 -40 28 -68q27 -27 67 -27.5t67 25.5l231 321
l52 -37l-236 -327q-47 -47 -113 -47z" />
    <glyph glyph-name="D" unicode="D" 
d="M526 955q116 0 214 -57t155.5 -155t57.5 -214t-57.5 -214.5t-155.5 -155.5t-214 -57q-111 0 -205 52.5t-152 142.5l67 53q46 -74 122.5 -118.5t167.5 -44.5q93 0 171.5 46t124 124.5t45.5 171t-45.5 171.5t-124 124.5t-171.5 45.5q-130 0 -226.5 -86t-111.5 -213h117
l-159 -159l-159 159h115q10 107 68.5 195t152.5 138.5t203 50.5zM652 604q16 0 27.5 -11.5t11.5 -27.5v-197q0 -8 -3 -15.5t-8.5 -12.5t-13 -8t-15.5 -3h-235q-17 0 -28.5 11.5t-11.5 27.5v197q0 16 11.5 27.5t27.5 11.5v43q0 49 35 83.5t83.5 34.5t83.5 -34.5t35 -83.5v-43
zM533.5 705q-24.5 0 -41.5 -17t-17 -41v-43h117v43q0 24 -17 41t-41.5 17z" />
    <glyph glyph-name="E" unicode="E" 
d="M1006 128q18 -18 18 -34v-5q0 -14 -5 -22q-7 -12 -20 -25l-12 -13q-13 -13 -25 -19q-8 -5 -20 -6q-3 0 -6 1q-17 2 -33 18l-282 281l-10 -6q-103 -64 -217 -64q-39 0 -76.5 7t-73 21.5t-68 36t-60.5 49.5q-76 76 -103 178q-26 102 0 202q27 101 103 178q55 56 129 85
t149 29t149 -29t130 -85q64 -65 92 -148q22 -64 22 -130q0 -21 -1 -40q-9 -86 -54 -162q-3 -13 -6 -18zM707 543q22 83 0 167q-22 81 -85 145q-95 95 -228 95q-131 0 -229 -95q-61 -58 -82.5 -143.5t0 -171t82.5 -142.5q99 -95 229 -95q133 0 228 95q62 62 85 145zM342 535
q0 39 11 57q12 19 46 45q20 16 32 35t12 42q0 26 -14 40.5t-39 14.5q-21 0 -35.5 -12t-14.5 -36h-80v1q-1 54 35.5 83t94.5 29q63 0 99 -32t36 -87q0 -36 -21 -66t-53 -51q-17 -13 -22.5 -26.5t-5.5 -36.5h-81zM424 418h-83v71h83v-71z" />
    <glyph glyph-name="F" unicode="F" 
d="M416 716h-159v272h159v-272zM321 784h32v136h-32v-136zM767 716h-159v272h159v-272zM671 784h32v136h-32v-136zM1022 36h-1020v850h191v-68h-127v-714h892v714h-127v68h191v-850zM480 886h64v-68h-64v68zM131 502h98v-82h-98v82zM264 502h98v-82h-98v82zM397 502h97v-82
h-97v82zM530 502h97v-82h-97v82zM663 502h97v-82h-97v82zM795 502h98v-82h-98v82zM131 377h98v-82h-98v82zM264 377h98v-82h-98v82zM397 377h97v-82h-97v82zM530 377h97v-82h-97v82zM663 377h97v-82h-97v82zM795 377h98v-82h-98v82zM131 251h98v-81h-98v81zM264 251h98v-81
h-98v81zM397 251h97v-81h-97v81zM530 251h97v-81h-97v81zM663 251h97v-81h-97v81zM795 251h98v-81h-98v81zM34 648h956v-68h-956v68z" />
    <glyph glyph-name="G" unicode="G" 
d="M190 128q-62 0 -113 37q-64 47 -76 125.5t35 143t125 76.5l10 -64q-52 -8 -83.5 -50.5t-23.5 -95t51 -84t95.5 -23t83.5 50.5l51 -38q-27 -37 -68 -57.5t-87 -20.5zM833 128q-44 0 -84 19q-71 35 -97 110.5t9 146.5l57 -28q-23 -48 -5.5 -98t65 -73t97.5 -6t73.5 65t6 98
t-65.5 73l28 58q72 -35 98 -110.5t-9 -146.5t-110 -97q-31 -11 -63 -11zM768 680l96 -352l-62 -16l-96 352zM858 863l15 -62l-128 -32l-15 62zM476 736l11 -64l-192 -32l-11 64zM498 288h-369v80l276 206l320 128l13 -31l25 -18zM215 352h250l182 249l-214 -85zM705 736h64
v-96h-64v96z" />
    <glyph glyph-name="H" unicode="H" 
d="M1024 320h-1024v64h960v78l-144 87l32 54l176 -105v-178zM63 441l-62 14l102 441h563l78 -352h-584v64h504l-50 224h-461zM768 128q-53 0 -90.5 37.5t-37.5 90.5h64q0 -26 19 -45t45 -19t45 19t19 45h64q0 -53 -37.5 -90.5t-90.5 -37.5zM224 128q-53 0 -90.5 37.5
t-37.5 90.5h64q0 -26 19 -45t45 -19t45 19t19 45h64q0 -53 -37.5 -90.5t-90.5 -37.5z" />
    <glyph glyph-name="I" unicode="I" 
d="M1023 343h-709v50h636l-172 430h-193l-121 -227l-44 24l135 253h256zM314 343h-313v227l110 111h267v-50h-246l-82 -81v-157h264v-50zM634 599v50h256v-50h-256zM154 151q-50 0 -85.5 35.5t-35.5 85.5h49q0 -30 21 -50.5t50.5 -20.5t50.5 20.5t21 50.5h50
q0 -50 -35.5 -85.5t-85.5 -35.5zM762 151q-50 0 -85.5 35.5t-35.5 85.5h50q0 -30 21 -50.5t50 -20.5q20 0 36 9.5t26 25.5t10 36h49q0 -33 -16 -61t-44 -44t-61 -16z" />
    <glyph glyph-name="J" unicode="J" 
d="M512 2q-104 0 -199 40.5t-163.5 109.5t-109 163.5t-40.5 198.5q0 126 58 236.5t159.5 182.5t226.5 88l8 -63q-82 -11 -154 -50.5t-123.5 -98t-81 -135.5t-29.5 -160q0 -91 35.5 -174t95.5 -143t143 -95.5t174 -35.5t174 35.5t143 95.5t95.5 143t35.5 174
q0 111 -50.5 207.5t-139.5 159.5t-198 77l8 63q125 -16 226.5 -88t159.5 -182.5t58 -236.5q0 -104 -40.5 -198.5t-109 -163.5t-163.5 -109.5t-199 -40.5zM512 610q-40 0 -68 28.5t-28 68t28 67.5t68 28t68 -28t28 -67.5t-28 -68t-68 -28.5zM512 738q-13 0 -22.5 -9.5
t-9.5 -22.5q0 -8 4.5 -15.5t11.5 -12t16 -4.5q13 0 22.5 9.5t9.5 22.5q0 9 -4.5 16.5t-11.5 11.5t-16 4zM480 546h64v-320h-64v320z" />
    <glyph glyph-name="K" unicode="K" 
d="M261 414q-67 68 -90.5 160t0 183.5t90.5 160.5q50 50 114 77t134 27t134 -27t113 -77q67 -69 91 -160.5t0 -183.5t-90 -160l-46 44q84 86 84 207.5t-84 207.5t-202 86t-202 -86t-84 -207.5t84 -207.5zM509 8l-186 298l54 33l132 -211l132 211l54 -33zM509 481
q-79 0 -135 56t-56 135t56 135t135 56t135 -56t56 -135t-56 -135t-135 -56zM508.5 800q-52.5 0 -89.5 -37.5t-37 -90t37 -90t89.5 -37.5t90 37.5t37.5 90t-37.5 90t-90 37.5z" />
    <glyph glyph-name="L" unicode="L" 
d="M716 274l-236 229v334h64v-307l217 -210zM514 5q-100 0 -194.5 38.5t-167.5 111.5l45 45q112 -113 271.5 -129t292.5 72l35 -53q-128 -85 -282 -85zM941 234l-54 36q88 132 72 291.5t-129 272.5l46 45q128 -129 146.5 -311t-81.5 -334zM1026 516h-64q0 159 -102.5 283.5
t-259.5 156.5l13 63q118 -24 212.5 -97t147.5 -179.5t53 -226.5zM510 5q-104 0 -198.5 40.5t-163 109t-109.5 163.5t-41 199q0 120 52.5 226t146.5 179t211 97l13 -63q-156 -32 -257.5 -156t-101.5 -283q0 -91 35.5 -174t95.5 -143t143 -95.5t174 -35.5v-64z" />
    <glyph glyph-name="M" unicode="M" 
d="M670 3q-114 0 -233.5 54t-220.5 154q-107 107 -162.5 236t-49 252t74.5 213l51 -38q-58 -77 -61 -185.5t47.5 -223.5t145 -209t208 -143.5t220.5 -44.5t181 65l40 -50q-99 -80 -241 -80zM968 158l-240 241l-43 -43q-71 -71 -171 -71t-170 71q-70 70 -70 170.5t70 170.5
l43 44l-240 241l45 45l285 -286l-88 -89q-52 -52 -52 -125.5t52 -125.5t125.5 -52t125.5 52l88 88l285 -286z" />
    <glyph glyph-name="N" unicode="N" horiz-adv-x="1000" 
d="M720 676zM573 19l-8 62q160 22 266.5 146t106.5 288q0 182 -126 311t-304 129t-304.5 -129t-126.5 -311q0 -164 107 -288t265 -146l-8 -62q-181 24 -303 166.5t-122 329.5q0 137 65.5 252.5t179 182.5t247 67t246.5 -67t179.5 -182.5t66.5 -252.5q0 -187 -122.5 -329.5
t-304.5 -166.5zM539 427h-62v125h31q33 0 61.5 16.5t45 45.5t16.5 63q0 51 -36.5 88.5t-87.5 37.5t-87 -37.5t-36 -88.5h-61q0 78 54 133t130.5 55t131 -55t54.5 -133q0 -46 -20.5 -86t-55.5 -66.5t-78 -33.5v-64zM508 176q-20 0 -37 7t-29 20t-19.5 30t-7.5 37
q0 38 27 65.5t65 27.5t65.5 -27.5t27.5 -66t-27.5 -66t-64.5 -27.5zM507.5 301q-12.5 0 -21.5 -9.5t-9 -22.5t9 -22t21.5 -9t22 9t9.5 22t-9.5 22.5t-22 9.5z" />
    <glyph glyph-name="O" unicode="O" 
d="M35 94v50h974v-50h-974zM35 94v810h49v-810h-49zM308 200h-144v401h144v-401zM212 256h48v287h-48v-287zM505 200h-145v283h145v-283zM408 222h48v205h-48v-205zM896 200h-145v524h145v-524zM799 246h48v430h-48v-430zM700 200h-145v656h145v-656zM603 272h48v511h-48
v-511z" />
    <glyph glyph-name="P" unicode="P" horiz-adv-x="1045" 
d="M516.5 1014q136.5 0 252.5 -67.5t183.5 -183t67.5 -252t-67.5 -252.5t-183.5 -183t-252.5 -67t-252.5 67t-182.5 183t-66.5 252.5t66.5 252t182.5 183t252.5 67.5zM516.5 68q183.5 0 313.5 130t130 281.5t-59.5 253t-161.5 161t-222.5 59.5t-222 -59.5t-161 -161
t-59.5 -253t129.5 -281.5t313 -130zM572.5 248q-99.5 0 -195 95t-115.5 197.5t33 172.5l26 -19q-45 -59 -25.5 -151t93.5 -165.5t164.5 -92t148.5 29.5l21 -26q-51 -41 -150.5 -41zM752 328l-124 123l-22 -23q-36 -36 -87.5 -36t-87.5 36.5t-36 88t36 86.5l22 23l-123 124
l23 23l147 -147l-46 -46q-26 -27 -26 -64.5t26.5 -64t64 -26.5t64.5 27l45 45l147 -147z" />
    <glyph glyph-name="Q" unicode="Q" horiz-adv-x="1066" 
d="M525 384h-1q-57 0 -97 39t-40 96q0 55 40.5 94.5t97.5 39.5t97 -39.5t40 -95.5t-40 -95t-97 -39zM525 599q-23 0 -41.5 -11t-30 -29t-11.5 -41q0 -33 24.5 -57t58.5 -24v-27v27q34 0 58.5 24t24.5 57t-24.5 57t-58.5 24zM371 304zM618 85l-175 1l-34 126q-50 18 -93 50
l-124 -33l-87 149l87 84q-5 30 -5 57q0 23 4 46l-98 96l89 150l133 -37q43 32 94 50l2 22l55 -7l-7 -57l-18 -4q-57 -16 -101 -54l-12 -10l-120 33l-46 -76l88 -88l-2 -14q-6 -25 -6 -50q0 -30 7 -60l3 -15l-78 -75l45 -76l110 28l12 -9q43 -37 99 -52l14 -5l31 -115h91
l33 123l13 6q40 16 75 44l11 9l120 -33l46 78l-89 86l4 14q4 26 4 50q0 18 -3 40l-1 13l100 97l-45 78l-132 -35l-11 9q-35 31 -77 48l-13 6l-33 123l-139 1v54h181l38 -139q36 -17 68 -42l145 37l87 -149l-111 -107q2 -18 2 -34q-1 -23 -5 -46l98 -96l-87 -148l-135 36
q-30 -24 -64 -39z" />
    <glyph glyph-name="R" unicode="R" horiz-adv-x="1033" 
d="M216 259zM660 226v66q116 0 200 86.5t84 209.5q0 81 -37.5 149t-103 107.5t-142.5 41.5q-73 -2 -136 -37.5t-104 -97t-47 -134.5q-1 -6 0 -17v-12h-62q0 3 -1 6t-1 5q0 14 2 23q11 137 111.5 232.5t236.5 96.5h3q143 -2 243.5 -108t100.5 -255q0 -150 -102 -256
t-245 -106zM501 588h-64v14v6v2q7 86 73 147t151 62l1 -65q-30 -2 -58 -13.5t-49.5 -30.5t-36.5 -46t-17 -56v-20zM342 226h-94q-105 0 -179.5 77.5t-74.5 186.5t74.5 186.5t179.5 77.5v-67q-79 0 -134.5 -57.5t-55.5 -139.5t55.5 -140.5t134.5 -58.5h94v-65zM469 127v264
h64v-264h-64zM575 268l-74 72l-74 -72l-43 47l117 116l117 -116z" />
    <glyph glyph-name="S" unicode="S" 
d="M217 605v57h593v-57h-593zM217 490v57h593v-57h-593zM217 375v57h593v-57h-593zM989 146h-951v631h60v-574h831v632h-891v57h951v-746z" />
    <glyph glyph-name="T" unicode="T" 
d="M942 28h-735v148h64v-89h608v835h-608v-89h-64v148h735v-953zM334 210v175h-287v60h353v-124l293 184l-293 183v-124h-353v61h287v174l473 -294z" />
    <glyph glyph-name="U" unicode="U" horiz-adv-x="1041" 
d="M521 1010q138 0 255.5 -67t185 -182t67.5 -251t-67.5 -251t-185 -182t-255.5 -67t-255.5 67t-185.5 182t-68 251t68 251t185.5 182t255.5 67zM520.5 70q185.5 0 317 129t131.5 311q0 120 -60 221.5t-163.5 160t-224.5 58.5q-186 0 -317 -129t-131 -311t131 -311
t316.5 -129zM612 494q55 -7 93 -48.5t38 -99.5q0 -61 -43.5 -104t-105.5 -43q-63 0 -108 46h-187v507h295v77q0 2 2.5 2t2.5 -2v-4h80v-58h-80v-15h13v-258zM334 280h129q-17 31 -17 66q0 58 37.5 99.5t93.5 48.5v223h-243v-437zM594 233q47 0 80.5 33.5t33.5 80.5t-33.5 80
t-80.5 33q-30 0 -56.5 -15t-41.5 -41.5t-15 -57.5q0 -46 33 -79.5t80 -33.5zM684 356q0 -4 -5 -4h-5q8 -8 8 -21t-11 -23v-17q0 -7 -6 -7h-17q-7 0 -7 7v7h-93v-7q0 -7 -8 -7h-17q-6 0 -6 7v17q-11 10 -11 23t8 21h-5q-4 0 -5 4l-2 12q-1 3 0.5 4.5t3.5 1.5h18q8 22 17 28
q18 11 53.5 11t53.5 -11q8 -6 17 -28h17q2 0 3.5 -1.5t1.5 -4.5zM549 390q-4 -3 -12 -23h114q-6 20 -11 23q-13 9 -45 9t-46 -9zM542 316q14 0 14 14t-14 14t-14 -14t14 -14zM647 316q14 0 14 14t-14 14t-14 -14t14 -14zM386 439v46h46v-46h-46zM386 621v46h46v-46h-46z
M386 530v46h46v-46h-46zM478 621v46h46v-46h-46zM478 530v46h46v-46h-46z" />
    <glyph glyph-name="V" unicode="V" horiz-adv-x="1022" 
d="M513 1007q136 0 251.5 -66t183 -180.5t67.5 -249.5t-67.5 -249t-183 -181t-251.5 -67t-251 67t-182.5 181t-67.5 249t67.5 249.5t182.5 180.5t251 66zM513 74q183 0 312.5 128t129.5 309t-130 309t-312.5 128t-311.5 -128t-129 -309q0 -119 59 -219.5t161 -159t221 -58.5
zM356.5 467q-36.5 0 -62.5 25.5t-26 61.5t26 62t63 26q23 0 44 -11.5t32.5 -32t11.5 -44.5q0 -36 -26 -61.5t-62.5 -25.5zM357 607q-22 0 -38 -15t-16 -37t16 -38t38 -16t38 16t16 38t-16 37t-38 15zM411 476l62 -24l12 -108h-253l13 108l62 24l12 -32l-42 -17l-6 -49h175
l-5 49l-44 17zM525 556l-61 -19l-7 19l63 21zM451 498l11 18l56 -33l-11 -18zM464 515l2 21l62 -8l-2 -20zM674 467q-24 0 -44 11.5t-32.5 31.5t-12.5 44q0 36 26 62t63 26t62.5 -26t25.5 -62t-25.5 -61.5t-62.5 -25.5zM674 607q-22 0 -38 -15t-16 -37t16 -38t38 -16t38 16
t16 38t-16 37t-38 15zM790 452l12 -108h-252l12 108l62 24l12 -32l-42 -17l-5 -49h174l-5 49l-43 17l13 32z" />
    <glyph glyph-name="W" unicode="W" 
d="M987 89h-975v843h975v-843zM73 153h853v714h-853v-714zM108 300l182 324l53 -33l-183 -324zM500 474l-380 202l27 58l353 -188l352 188l27 -58zM656 591l53 33l182 -324l-51 -34z" />
    <glyph glyph-name="X" unicode="X" horiz-adv-x="1048" 
d="M526 1013q139 0 257 -67t187 -183t69 -252q0 -102 -41 -195t-109.5 -160.5t-163 -107t-199.5 -39.5q-139 0 -257 67t-186.5 182.5t-68.5 252t68.5 252.5t186.5 183t257 67zM526 69q187 0 319 129.5t132 312.5q0 120 -60.5 222t-164 161t-226 59t-226.5 -59t-164.5 -161
t-60.5 -222q0 -183 132 -312.5t319 -129.5zM740 242h-433v495h72v-35h-36v-424h361v424h-37v35h73v-495zM631 667h-216v105h57q13 36 51.5 36t51.5 -36h56v-105zM451 702h143v35h-53v18q0 7 -5.5 12t-13 5t-12.5 -5t-5 -12v-18h-54v-35zM415 490v36h217v-36h-217zM415 419
v35h217v-35h-217zM415 349v34h217v-34h-217zM415 560v36h90v-36h-90z" />
    <glyph glyph-name="Y" unicode="Y" 
d="M505 280l-292 -204l110 333l-292 197h356l118 340l118 -340h356l-292 -197l110 -333zM505 280z" />
    <glyph glyph-name="Z" unicode="Z" horiz-adv-x="1271" 
d="M503 380l-328 271h198l-1 326h262v-326h197zM503 380zM765 380h132v-217h-788v217h131v-108h525v108zM765 380z" />
    <glyph glyph-name="bracketleft" unicode="[" horiz-adv-x="1041" 
d="M511.5 1000q103.5 0 197.5 -39.5t162.5 -105.5t108.5 -158t40 -192q0 -134 -68 -248t-185 -180.5t-255 -66.5t-255 66.5t-185 180.5t-68 248q0 100 40.5 192t108.5 158t161.5 105.5t197 39.5zM511.5 70q185.5 0 316.5 127.5t131 307.5t-131 308t-316.5 128t-316 -128
t-130.5 -308t130.5 -307.5t316 -127.5zM511 488v39h236v-39h-236zM511 412v38h165v-38h-165zM393 412h-197v306h393v-57h-39v19h-314v-230h157v-38zM274 585v38h118v-38h-118zM274 508v38h119v-38h-119zM432 202v421h394v-308h-256v40h217v230h-316v-270l24 32l32 -23z" />
    <glyph glyph-name="backslash" unicode="\" 
 />
    <glyph glyph-name="bracketright" unicode="]" 
d="M994 386h-951v58h892v71l-134 80l30 50l163 -97v-162zM102 496l-58 13l94 402h523l73 -321h-542v59h468l-46 204h-428zM756.5 211q-49.5 0 -84.5 34t-35 83h60q0 -25 17.5 -42t42 -17t42 17t17.5 42h59q0 -49 -34.5 -83t-84 -34zM251 211q-49 0 -84 34t-35 83h60
q0 -25 17 -42t42 -17t42.5 17t17.5 42h59q0 -49 -35 -83t-84 -34zM909 911q15 0 29 -5.5t24 -15.5t16 -24t6 -29q0 -25 -15 -44.5t-40 -26.5v-24h-41v63h21q13 0 23 9.5t10 23t-10 23t-23.5 9.5t-23.5 -9.5t-10 -23.5v-9h-42v9q0 31 22 52.5t54 21.5zM908.5 729
q15.5 0 26.5 -11t11 -26.5t-11 -26t-26.5 -10.5t-26.5 10.5t-11 26t11 26.5t26.5 11zM909 681q4 0 7 3t3 8q0 10 -10.5 10t-10.5 -10.5t11 -10.5z" />
    <glyph glyph-name="asciicircum" unicode="^" horiz-adv-x="1021" 
d="M511 992q133 0 246 -65.5t179 -178.5t66 -246q0 -99 -39.5 -190t-105 -156.5t-156.5 -104.5t-190 -39q-133 0 -246 65.5t-178 178.5t-65 246t65 246t178 178.5t246 65.5zM511 71q179 0 305.5 126.5t126.5 304.5q0 117 -58 216.5t-157 157.5t-216.5 58t-217 -58
t-157.5 -157.5t-58 -216.5q0 -178 126.5 -304.5t305.5 -126.5zM733 311q5 -11 0.5 -22t-15 -15t-21 0t-15.5 15q-19 46 -63.5 74t-97.5 28q-55 0 -99 -28t-62 -74q-8 -17 -27 -17q-5 0 -10 2q-10 4 -15 14.5t-1 21.5q26 62 84.5 99t129.5 37q28 0 55 -6t50.5 -18t43.5 -28
t36.5 -37t26.5 -46zM328 637q0 24 17 41t41 17q15 0 28 -8t20.5 -21.5t7.5 -28.5q0 -24 -16 -40.5t-40 -16.5t-41 16.5t-17 40.5zM588 637q0 24 17 41t40 17q10 0 18.5 -3t16 -8.5t12.5 -12.5t8 -15.5t3 -18.5q0 -24 -17 -40.5t-41 -16.5q-15 0 -28 7.5t-21 21t-8 28.5z" />
    <glyph glyph-name="underscore" unicode="_" horiz-adv-x="1164" 
 />
    <glyph glyph-name="grave" unicode="`" horiz-adv-x="882" 
d="M772 56h-540v647h54v-590h432v590h54v-647zM259 285v58h486v-58h-486zM468 201q0 11 4.5 19.5t12.5 13.5t17 5q14 0 24 -11t10 -26t-10 -26t-24.5 -11t-24 11t-9.5 25zM232 973h540v-227h-54v85h-432v-85h-54v227zM604 875v41h-203v-41h203z" />
    <glyph glyph-name="a" unicode="a" 
d="M42 98v891h953v-635h-625v60h565v515h-834v-653l97 126l47 -36zM221 718v60h595v-60h-595zM221 565v60h417v-60h-417z" />
    <glyph glyph-name="b" unicode="b" horiz-adv-x="1080" 
d="M48 57v58h1106v-58h-1106zM48 57v924h68v-924h-68zM289 115v57h69v-57h-69zM428 115v57h69v-57h-69zM565 115v57h70v-57h-70zM704 115v57h70v-57h-70zM843 115v57h68v-57h-68zM981 115v57h69v-57h-69zM116 230v58h70v-58h-70zM116 346v57h70v-57h-70zM116 461v59h70v-59
h-70zM116 577v58h70v-58h-70zM116 693v58h70v-58h-70zM116 808v58h70v-58h-70zM497 230h-208v405h208v-405zM358 288h70v289h-70v-289zM774 230h-209v636h209v-636zM635 288h69v520h-69v-520zM1050 230h-207v521h207v-521zM911 288h70v405h-70v-405z" />
    <glyph glyph-name="c" unicode="c" horiz-adv-x="1038" 
d="M424.5 208q-164.5 0 -281 117.5t-116.5 284.5q0 80 32 155t85 128t126.5 85t154.5 32q164 0 280.5 -117.5t116.5 -283.5t-116.5 -283.5t-281 -117.5zM425 949q-139 0 -238 -99.5t-99 -240t99 -240t238 -99.5t237 99.5t98 240t-98 240t-237 99.5zM913 24q-38 0 -65 27
l-170 166l43 44l170 -166q9 -9 21.5 -9t22 8.5t9.5 21.5t-10 22l-165 173l44 43l165 -173q27 -26 27 -64.5t-27 -65.5t-65 -27zM252 436q-72 71 -72 173t72 175l43 -44q-54 -54 -54 -130.5t54 -131.5z" />
    <glyph glyph-name="d" unicode="d" 
d="M333 601h-75v57h46l107 124v103q0 48 36 81.5t87.5 33.5t87.5 -33.5t36 -81.5h-61q0 25 -18.5 41t-44 16t-43 -16t-17.5 -41v-124zM868 87l-342 1l-211 56h-57v57h69l213 -57h280l109 405l-332 55v281h61v-233l346 -58zM196 144h-185v514h185v-514zM72 201h63v400h-63
v-400z" />
    <glyph glyph-name="e" unicode="e" horiz-adv-x="1022" 
d="M499.5 455q-111.5 0 -191 80.5t-79.5 194t79.5 194.5t191 81t191 -81t79.5 -194.5t-79.5 -194t-191 -80.5zM500 945q-57 0 -105.5 -29.5t-77 -78.5t-28.5 -107t28.5 -107.5t77 -78.5t105.5 -29t105 29t76 78.5t28 107.5q0 88 -61.5 151.5t-147.5 63.5zM899 26h-787
l36 327l166 68l23 -57l-133 -54l-24 -224h652l-24 224l-133 54l22 57l167 -68z" />
    <glyph glyph-name="f" unicode="f" horiz-adv-x="1068" 
d="M415 584h-409v67h362l133 376l63 -22zM925 9l-392 235l-393 -235l143 384l-193 94l30 60l245 -120l-98 -265l266 159l265 -159l-98 265l247 120l28 -60l-192 -94zM1059 584h-453l-72 263l64 17l58 -213h403v-67z" />
    <glyph glyph-name="g" unicode="g" horiz-adv-x="1072" 
d="M503.5 1009q132.5 0 245.5 -68t178.5 -184t65.5 -252.5t-65.5 -252.5t-178.5 -183.5t-245.5 -67.5t-245.5 67.5t-178.5 183.5t-65.5 252.5t65.5 252.5t178.5 184t245.5 68zM504.5 61q178.5 0 304.5 130t126 314t-126.5 314t-304.5 130t-305 -130t-127 -314t127 -314
t305.5 -130zM722 248h-437v427h32v-395h374v450h-312v31h343v-513zM363 376v32h281v-32h-281zM363 312v32h281v-32h-281zM591 494l9 -42q-26 -15 -57 -15q-59 0 -91 43q-16 21 -20 50h-25v28h20v6q0 2 0.5 6t0.5 5h-21v27h25q7 30 26 52q33 40 86 40q29 0 55 -12l-10 -43
q-23 9 -42 9q-28 0 -45 -20q-8 -9 -13 -25h93v-28h-98v-11v-6h98v-28h-93q4 -16 12 -27q17 -18 48 -18q24 0 42 9z" />
    <glyph glyph-name="h" unicode="h" horiz-adv-x="1170" 
d="M170 342q-61 0 -104 49t-43 118t43 118t104 49t104 -49t43 -118t-43 -118t-104 -49zM170 609q-37 0 -63 -29t-26 -71t26 -71t63 -29t62 29t25 71t-25 71t-62 29zM815 676q-61 0 -103.5 49t-42.5 118q0 46 19 84.5t53 60.5t74 22q61 0 103.5 -49t42.5 -118t-42.5 -118
t-103.5 -49zM815 943q-36 0 -62 -29t-26 -70.5t26 -71t62 -29.5q18 0 34.5 7.5t28 21.5t18.5 32.5t7 38.5q0 27 -12 50t-32 36.5t-44 13.5zM815 8q-61 0 -103.5 49t-42.5 117q0 46 19 84.5t53 61t74 22.5t73.5 -22.5t53 -61t19.5 -84.5q0 -68 -42.5 -117t-103.5 -49z
M815 275q-36 0 -62 -29t-26 -71t26 -71t62 -29t62 29t26 70q0 21 -7 40t-18.5 32t-28 21t-34.5 8zM362 639l234 134l26 -61l-234 -133zM362 379l26 60l234 -134l-26 -60z" />
    <glyph glyph-name="i" unicode="i" horiz-adv-x="1054" 
d="M515 997q138 0 255 -66.5t185 -180.5t68 -249t-68 -249.5t-185 -180.5t-255 -66t-255 66t-185 180.5t-68 249.5t68 249t185 180.5t255 66.5zM515 64q186 0 316.5 127.5t130.5 309.5q0 119 -59.5 219.5t-162.5 158.5t-225 58t-225 -58t-162.5 -158.5t-59.5 -219.5
q0 -182 130.5 -309.5t316.5 -127.5zM460 625h-88v148h88v-148zM408 662h17v74h-17v-74zM657 625h-90v148h90v-148zM603 662h18v74h-18v-74zM798 255h-568v462h107v-36h-72v-389h498v389h-71v36h107zM496 717h35v-36h-35v36zM301 508h55v-44h-55v44zM376 508h54v-44h-54v44z
M449 508h54v-44h-54v44zM524 508h54v-44h-54v44zM598 508h54v-44h-54v44zM671 508h55v-44h-55v44zM301 440h55v-44h-55v44zM376 440h54v-44h-54v44zM449 440h54v-44h-54v44zM524 440h54v-44h-54v44zM598 440h54v-44h-54v44zM671 440h55v-44h-55v44zM301 372h55v-45h-55v45z
M376 372h54v-45h-54v45zM449 372h54v-45h-54v45zM524 372h54v-45h-54v45zM598 372h54v-45h-54v45zM671 372h55v-45h-55v45zM247 587h533v-36h-533v36z" />
    <glyph glyph-name="j" unicode="j" horiz-adv-x="1043" 
d="M519.5 1011q137.5 0 254.5 -67t185 -182t68 -250q0 -102 -40 -194.5t-108.5 -159.5t-162.5 -107t-196 -40q-138 0 -255 67.5t-185 182t-68 250.5t68 251t185 182t254.5 67zM519.5 71q184.5 0 315.5 129t131 312q0 119 -60 220.5t-162.5 160t-224 58.5t-224 -58.5
t-162.5 -160t-60 -220.5q0 -183 131 -312t315.5 -129zM501 244q-97 0 -165 67t-68 161q0 70 39 127t104 84l14 -31q-55 -24 -88 -72t-33 -108q0 -80 57.5 -136.5t139.5 -56.5q76 0 132.5 51t62.5 126l36 -3q-7 -88 -74 -148.5t-157 -60.5zM696 488q-4 55 -36.5 99t-83.5 65
l14 31q61 -24 99 -76t43 -116zM554 648h-36v89h55v35h-143v-35h53v-89h-36v54h-53v105h214v-105h-54v-54zM667 679l53 52l26 -24l-54 -53zM695 731l25 26l51 -50l-25 -25zM644 455h-161v158h35v-123h126v-35z" />
    <glyph glyph-name="k" unicode="k" horiz-adv-x="927" 
d="M451 32q-169 0 -289 117.5t-120 283.5q0 122 68.5 223.5t183.5 147.5l23 -56q-96 -41 -154 -126.5t-58 -188.5q0 -92 46.5 -170.5t126 -123.5t173.5 -45q133 0 233 90t111 222l63 -5q-13 -156 -131 -262.5t-276 -106.5zM795 462q-8 94 -65 171t-146 115l24 56
q106 -44 173.5 -134.5t76.5 -202.5zM545 742h-63v155h95v62h-252v-62h95v-155h-63v94h-95v184h378v-184h-95v-94zM742 795l95 93l45 -44l-95 -93zM793 888l44 43l89 -87l-44 -44zM703 403h-283v278h62v-216h221v-62z" />
    <glyph glyph-name="l" unicode="l" 
d="M984 107h-947v826h474v-62h-416v-704h831v429h58v-489zM544 396l-56 115l-111 58l342 355l42 -44l-285 -294l56 -30l28 -57l285 294l43 -42zM928 793l-167 173l21 22q35 35 84 35t83.5 -35.5t34.5 -85.5q0 -51 -34 -87zM850 961l73 -76q3 9 3 17q0 25 -17 43
q-25 25 -59 16zM250 266l81 252l57 -19l-45 -137l133 46l18 -59z" />
    <glyph glyph-name="m" unicode="m" horiz-adv-x="1176" 
d="M482 767v126h63v-126h-63zM765 483v63h128v-63h-128zM134 483v63h127v-63h-127zM222 760l46 45l89 -90l-45 -44zM480 530l279 275l45 -46l-280 -273zM512.5 9q-137.5 0 -253.5 68t-183.5 184t-67.5 253q0 102 40 196t107.5 161.5t161.5 107.5t196 40q185 0 327 -120
l-41 -48q-123 105 -286 105q-183 0 -312.5 -130t-129.5 -312.5t129.5 -311.5t312.5 -129q120 0 221.5 59t161 161t59.5 221q0 162 -105 285l48 41q120 -141 120 -326q0 -137 -67.5 -253t-184 -184t-254 -68zM353 205l-54 33q34 55 91 87t123 32t122.5 -32t90.5 -87l-53 -33
q-13 21 -30 37.5t-38 28t-44.5 17t-47.5 5.5q-50 0 -92 -23.5t-68 -64.5z" />
    <glyph glyph-name="n" unicode="n" horiz-adv-x="1056" 
d="M963 32h-934v433h934v-433zM87 99h817v299h-817v-299zM496.5 299q-36.5 0 -62 29t-25.5 70h58q0 -13 8.5 -22.5t20.5 -9.5q8 0 15 4t11 12t4 16h58q0 -41 -25.5 -70t-62 -29zM700 798h-116v67q0 41 -25.5 70.5t-62.5 29.5q-23 0 -43.5 -13t-32 -36t-11.5 -51v-67h-116v67
h58q0 69 42 118t103 49q39 0 72.5 -22.5t53.5 -60.5t20 -84h58v-67zM963 532h-59v133h-817v-133h-58v200h934v-200z" />
    <glyph glyph-name="o" unicode="o" horiz-adv-x="1112" 
d="M905 590h-100l-332 316l-332 -316v-481h166h332h166v290h100v-366h-298h-266h-293v596l425 394l432 -398v-35z" />
    <glyph glyph-name="p" unicode="p" horiz-adv-x="904" 
d="M447 466q-54 0 -103 22.5t-84 60.5t-56 89t-21 109h59q0 -90 60 -154t144.5 -64t145 64t60.5 154h59q0 -116 -77.5 -198.5t-186.5 -82.5zM770 809h-646v187h646v-187zM183 872h528v62h-528v-62zM711 248h-59q0 90 -60.5 154t-145 64t-144.5 -64t-60 -154h-59
q0 116 77.5 198.5t186.5 82.5t186.5 -82.5t77.5 -198.5zM359 248h-59q0 42 20 78t53.5 57t73.5 21v-62q-37 0 -62.5 -27.5t-25.5 -66.5zM447 591q-60 0 -103.5 45.5t-43.5 110.5h59q0 -39 25.5 -66.5t62.5 -27.5v-62zM770 -1h-646v187h646v-187zM183 61h528v62h-528v-62z
" />
    <glyph glyph-name="q" unicode="q" 
d="M511 1009q134 0 248 -66.5t180.5 -180.5t66.5 -248q0 -101 -39 -193t-106 -158.5t-158.5 -105.5t-191.5 -39q-134 0 -248.5 66.5t-180.5 180.5t-66 249q0 100 39.5 192t105.5 158t158 105.5t192 39.5zM510.5 78q180.5 0 308.5 127.5t128 308.5t-128 308t-308.5 127
t-307.5 -127t-127 -308t127 -308.5t307.5 -127.5zM264 471l38 52l152 -114l255 299l49 -46l-294 -344z" />
    <glyph glyph-name="r" unicode="r" horiz-adv-x="1038" 
d="M619.5 248q-112.5 0 -192.5 86.5t-80 208t80 208.5t193 87q73 0 136 -39.5t99.5 -107.5t36.5 -149q0 -121 -80 -207.5t-192.5 -86.5zM619.5 792q-95.5 0 -163.5 -73t-68 -176t68 -176t164 -73q62 0 115.5 33t84 90.5t30.5 124.5q0 104 -67.5 177t-163 73zM955 111
q-26 0 -44 21l-117 122l29 33l117 -123q14 -16 30 0q6 6 6 15.5t-6 16.5l-114 127l30 31l114 -127q18 -19 18 -47q0 -29 -18.5 -49t-44.5 -20zM301 874q17 0 28 -19t16.5 -45t11.5 -76q-26 -50 -32 -107q-3 20 -9 73q-8 63 -14 91q-6 -39 -15 -132q-11 -96 -16 -132
q-4 -24 -8 -38.5t-13.5 -27t-22.5 -12.5q-31 0 -45 64q-6 26 -15 100q-10 76 -16 101q-5 -20 -12 -59q-9 -44 -16 -69q-14 -43 -45 -43q-4 0 -8.5 2t-8 4t-7.5 6t-6.5 8t-5 10.5t-4.5 10.5t-4.5 12t-3.5 11.5t-3.5 11.5t-3.5 10q0 2 -3 6.5t-5 15.5t-4 36h5q15 0 25 -11
t15 -22t11 -34q5 -16 10 -30q7 17 16 72q10 52 16 72q15 48 44 48q30 0 44 -63q6 -27 15 -100q7 -59 13 -88q6 36 16 132q9 96 16 131q6 38 15.5 59t28.5 21zM545 629q21 58 51 58h48v-56h-47q-2 0 -13 -31q-1 -4 -12 -62q-6 -32 -9 -46q-12 -35 -35 -35q-13 0 -23 9
t-17 32.5t-11 41.5t-11 58q-1 10 -3 17q6 41 33 72q6 -24 16 -79q7 -44 13 -69q0 1 0.5 4t1 5.5t0.5 5.5q12 60 18 75z" />
    <glyph glyph-name="s" unicode="s" horiz-adv-x="946" 
d="M376 455q-103 0 -175.5 77.5t-72.5 187.5t72.5 187.5t175.5 77.5t176 -77.5t73 -187.5t-73 -187.5t-176 -77.5zM376 926q-80 0 -136.5 -60.5t-56.5 -145.5t56.5 -145.5t136.5 -60.5q40 0 75.5 16.5t61 44t41 66t15.5 79.5q0 85 -56.5 145.5t-136.5 60.5zM680 455v59
q57 0 98 43t41 104t-41 104t-98 43v59q80 0 136.5 -60.5t56.5 -145.5t-56.5 -145.5t-136.5 -60.5zM934 103h-171v58h106l-20 153l-93 25l14 57l128 -34zM712 44h-671l34 306l131 45l17 -56l-97 -33l-23 -203h546l-22 203l-97 33l16 56l131 -45z" />
    <glyph glyph-name="t" unicode="t" horiz-adv-x="986" 
d="M266 30h-261v190l327 363l43 -40l-313 -347v-106h146v118h132l166 197l43 -39l-182 -218h-101v-118zM643 385v59q97 0 165 69.5t68 167t-68 167.5t-164.5 70t-164 -70t-67.5 -167h-59q0 80 39 148t106 107.5t145 39.5q120 0 205 -86.5t85 -208.5q0 -60 -22.5 -114.5
t-61.5 -94.5t-92.5 -63.5t-113.5 -23.5zM643.5 562q-48.5 0 -82.5 35t-34 84t34 83.5t82.5 34.5t82.5 -34.5t34 -83.5t-34 -84t-82.5 -35zM644 740q-24 0 -41.5 -17.5t-17.5 -42t17.5 -41.5t41.5 -17t41 17t17 41.5t-17 42t-41 17.5z" />
  </font>
</defs>
</svg>
