<?xml version="1.0" encoding="utf-8"?>
<!DOCTYPE svg PUBLIC "-//W3C//DTD SVG 1.1//EN" "http://www.w3.org/Graphics/SVG/1.1/DTD/svg11.dtd">
<svg
  version="1.1"
  id="Layer_1"
  xmlns="http://www.w3.org/2000/svg"
  xmlns:xlink="http://www.w3.org/1999/xlink"
  x="0px"
  y="0px"
  width="300px"
  height="100px"
  viewBox="0 0 300 100"
  enable-background="new 0 0 300 100"
  xml:space="preserve"
>
  <title>Custeed-Widget-Vertical-Transparent</title>
  <style>
    .cls-1{isolation:isolate;}.cls-12,.cls-2{fill:#152543;}.cls-3{mask:url(#mask);}.cls-4{mix-blend-mode:multiply;}.cls-5{fill:url(#Dégradé_sans_nom_141);}.cls-6{fill:url(#Dégradé_sans_nom_152);}.cls-7{fill:url(#Dégradé_sans_nom_2);}.cls-8{fill:#999;}.cls-9{stroke:#999;stroke-miterlimit:10;stroke-width:1.01px;fill:url(#Dégradé_sans_nom_26);}.cls-10{fill:#FFFFFF; opacity: 0.5;}.cls-11{fill:#e6e6e6;}.cls-12{opacity:0.5;}.cls-13{filter:url(#luminosity-invert);}
    .cls-14{fill:#182542;}.cls-15{fill:#182641;}.cls-16{fill:#fff;fill-rule:evenodd;}.cls-17{fill:#e73951;}.cls-18{fill:#eb6435;}.cls-19{fill:#f39421;}.cls-20{fill:#f0b90f;}.cls-21{fill:#a7b94e;}.cls-22{fill:#7fb76f;}.cls-23{fill:#43b7ac;}
  </style>
  <path fill="#152543" d="M155.127,37.051c0.229-0.344,0.352-0.749,0.348-1.163c-0.016-1-0.825-1.807-1.826-1.819h-1.268
    c0.213-0.425,0.324-0.894,0.328-1.369c0.019-0.451-0.066-0.901-0.249-1.314c-0.154-0.315-0.41-0.57-0.726-0.722
    c-0.337-0.159-0.705-0.239-1.078-0.233c-0.245-0.005-0.482,0.09-0.656,0.263c-0.213,0.214-0.366,0.48-0.443,0.772
    c-0.09,0.313-0.162,0.614-0.217,0.903c-0.026,0.223-0.113,0.435-0.253,0.611c-0.232,0.252-0.486,0.556-0.762,0.913
    c-0.284,0.405-0.615,0.775-0.985,1.104h-1.901c-0.504,0-0.913,0.409-0.913,0.913v4.562c0.002,0.503,0.41,0.91,0.913,0.91h2.052
    c0.337,0.063,0.667,0.159,0.985,0.286c0.584,0.204,1.099,0.359,1.543,0.466c0.442,0.107,0.895,0.161,1.35,0.161h0.92
    c0.596,0.025,1.177-0.185,1.619-0.585c0.42-0.408,0.642-0.979,0.607-1.563c0.283-0.361,0.434-0.809,0.427-1.268
    c-0.001-0.103-0.009-0.205-0.022-0.306c0.178-0.312,0.271-0.665,0.27-1.024c0-0.167-0.022-0.332-0.066-0.493L155.127,37.051z
    M146.217,40.335c-0.177,0.172-0.459,0.169-0.632-0.008c-0.172-0.176-0.168-0.459,0.008-0.631c0.177-0.172,0.459-0.169,0.632,0.008
    c0.079,0.081,0.125,0.189,0.127,0.303C146.354,40.13,146.306,40.25,146.217,40.335z M154.427,36.486
    c-0.102,0.22-0.229,0.329-0.381,0.329c0.079,0.097,0.14,0.208,0.177,0.329c0.045,0.126,0.069,0.26,0.072,0.394
    c0.002,0.323-0.135,0.632-0.377,0.847c0.085,0.15,0.129,0.32,0.128,0.493c-0.001,0.181-0.044,0.36-0.124,0.522
    c-0.066,0.157-0.182,0.288-0.329,0.375c0.022,0.132,0.035,0.266,0.036,0.4c0,0.795-0.457,1.191-1.369,1.189h-0.891
    c-0.834-0.042-1.657-0.218-2.437-0.519l-0.207-0.076l-0.252-0.089l-0.25-0.082c-0.111-0.035-0.201-0.061-0.269-0.079l-0.236-0.046
    c-0.074-0.013-0.149-0.019-0.224-0.02h-0.227v-4.558h0.227c0.088-0.003,0.174-0.026,0.253-0.066c0.104-0.05,0.2-0.116,0.286-0.194
    c0.099-0.085,0.19-0.169,0.276-0.252c0.101-0.104,0.197-0.214,0.286-0.329l0.247-0.302l0.223-0.292l0.164-0.214
    c0.261-0.324,0.443-0.543,0.549-0.657c0.198-0.212,0.342-0.469,0.42-0.749c0.087-0.315,0.16-0.613,0.216-0.894
    c0.031-0.224,0.125-0.435,0.273-0.607c0.455,0,0.76,0.109,0.913,0.329c0.174,0.315,0.253,0.675,0.227,1.034
    c-0.029,0.399-0.142,0.789-0.328,1.143c-0.188,0.352-0.299,0.739-0.329,1.136h2.509c0.24,0.001,0.469,0.102,0.635,0.276
    c0.178,0.165,0.278,0.395,0.279,0.637c-0.01,0.201-0.063,0.398-0.154,0.578L154.427,36.486z"
  />
  <g>
    <g id="Calque_2" data-name="Calque 2" transform="translate(132,1) scale(0.22 0.22)">
      <g id="Calque_1-2" data-name="Calque 1">

        <path class="cls-15" d="M84.3,3.5c32.82-.77,50.4,41.68,26.65,64.34a37.68,37.68,0,0,1-26.65,11c-8.6,0-29.89,2.75-29.89,2.75-.84-4-12.84-42.28-5-54.87A37.84,37.84,0,0,1,84.3,3.5Z"/>
        <path class="cls-16" d="M89.86,63.09c2.25-18.71-.77-14.17,10.84-29.54L98.12,22,86.33,23.17C75.22,39,78.61,34.67,61.49,42.6l8.57,6.21,4-5.53c.26.35,2.25,1.21,1.93,1.82L68.35,62.87,83,50.14c.5-.44,2,1.09,2.35,1.25l-4,5.53Zm.94-24.77C89,40.89,85,38.36,84.33,36c-.5-1.63,2.59-4.57,3.29-5.82a2.75,2.75,0,0,1,1.77-1.09c1.32-.33,2.64,1,3.61,1.66C96.06,32.83,92,36.43,90.8,38.32Z"/>
        <path class="cls-17" d="M102.67,72.69a36.68,36.68,0,0,1-35,1.55L55.25,80.9l2-14.36C46.58,55.29,44.33,37.55,52,24.28v0L47.62,21c-8.4,14-7.12,32.57,2.61,45.62L48.32,90.4l21.76-9.31a42,42,0,0,0,42.85-9.59L109,70.68Z"/>
        <path class="cls-18" d="M50.64,56.7a76,76,0,0,1-2.7-8.81L42,43.32a35.46,35.46,0,0,0,1.87,10.34l8.65,6.69A34.23,34.23,0,0,1,50.64,56.7Z"/>
        <path class="cls-19" d="M93.55,82.2a42.18,42.18,0,0,0,7.11-2.4L95.7,76a36.77,36.77,0,0,1-9,1.9l5.9,4.56Z"/>
        <path class="cls-20" d="M42.58,34.84l5,3.84A35.45,35.45,0,0,1,49.06,31l-4.52-3.5A40.87,40.87,0,0,0,42.58,34.84Z"/>
        <path class="cls-21" d="M112.94,71.51l-4.32-3.34a35.9,35.9,0,0,1-5.78,4.41l4.52,3.5A42.13,42.13,0,0,0,112.94,71.51Z"/>
        <path class="cls-21" d="M44.54,27.47,49.06,31a34.28,34.28,0,0,1,2.88-6.67L47.62,21A39.94,39.94,0,0,0,44.54,27.47Z"/>
        <path class="cls-20" d="M102.83,72.58A35.53,35.53,0,0,1,95.7,76l5,3.84a40.47,40.47,0,0,0,6.69-3.72Z"/>
        <path class="cls-19" d="M47.93,47.85a36.61,36.61,0,0,1-.39-9.17l-5-3.84A40.14,40.14,0,0,0,42,43.32l5.9,4.57S47.94,47.86,47.93,47.85Z"/>
        <path class="cls-18" d="M86.66,77.85a36.18,36.18,0,0,1-13.25-1.36l8.84,6.85a42,42,0,0,0,10.31-.92Z"/>
        <path class="cls-22" d="M113.26,62.87a35.39,35.39,0,0,1-4.64,5.3l4.32,3.34a41.7,41.7,0,0,0,4.6-5.33Z"/>
        <path class="cls-22" d="M50,17.35A39.26,39.26,0,0,0,47.62,21l4.32,3.34a36.22,36.22,0,0,1,4-5.8l-4.28-3.31Q50.79,16.23,50,17.35Z"/>
        <path class="cls-23" d="M51.66,15.19l4.28,3.31c30.64-34.43,83.22,6.09,57.32,44.37l4.28,3.31c30-44-30.66-91-65.83-51.06"/>

        <g id="Groupe_4" data-name="Groupe 4" transform="translate(20,-4) scale(0.7 0.7)">
          <path
            id="Tracé_21"
            data-name="Tracé 21"
            class="cls-2"
            d="M10.3,148.48C1.72,148.48,0,154.73,0,164.8s1.72,16.32,10.3,16.32c3.78.31,10.27-2.35,9.33-10.47H15.06c.35,3.37-.46,6.47-4.76,6.31-5.64,0-6.1-5.51-6.1-12.16s.46-12.16,6.1-12.16c4.38-.18,5.32,2.9,5,6.37H19.4C20.43,150.88,14.24,148.17,10.3,148.48Z"
          />
          <path
            id="Tracé_22"
            data-name="Tracé 22"
            class="cls-2"
            d="M27.16,148.75v22.88c0,6.32,3.2,9.52,9.51,9.52s9.66-3.2,9.66-9.52V148.75H42v22.88A5.34,5.34,0,0,1,36.68,177c-3.59,0-5.19-1.65-5.19-5.36V148.75Z"
          />
          <path
            id="Tracé_23"
            data-name="Tracé 23"
            class="cls-2"
            d="M53.63,170c.09,3.9-.47,10.5,10.36,11.07,8.3,0,9.19-5.88,9.19-8.41,0-6.49-4.58-8.18-8.62-9.68-16.56-5.34,4.38-18.64,3.9-3.71H72.8c1.8-13.58-18.32-14.69-18.61-2.06,0,6.52,4.45,8.23,8.74,9.92,2.85,1.09,6.09,2.32,6.09,5.53,0,1-.35,4.25-4.92,4.25-4.94.1-6.57-3-6.13-6.91Z"
          />
          <path
            id="Tracé_24"
            data-name="Tracé 24"
            class="cls-2"
            d="M84.21,180.92h4.34V152.85h6.38v-4.1H77.82v4.1h6.39Z"
          />
          <path
            id="Tracé_25"
            data-name="Tracé 25"
            class="cls-2"
            d="M102.24,180.92h15.29v-4.11h-11v-9.12h8.9v-4.11h-9.12V152.85h10.72v-4.1H102.24Z"
          />
          <path
            id="Tracé_26"
            data-name="Tracé 26"
            class="cls-2"
            d="M125.06,180.92h15.29v-4.11h-11v-9.12h8.9v-4.11h-8.9V152.85h10.5v-4.1H125.06Z"
          />
          <path
            id="Tracé_27"
            data-name="Tracé 27"
            class="cls-2"
            d="M157.16,148.75h-9v32.17h9c8.67,0,10.44-6.43,10.44-16.09S165.83,148.75,157.16,148.75ZM157,176.81h-4.81v-24H157c5.74,0,6.21,5.66,6.21,12S162.77,176.61,157,176.81Z"
          />
        </g>
      </g>
    </g>
  </g>
</svg>
