<svg xmlns="http://www.w3.org/2000/svg" viewBox="0 0 267.16 231.46"><defs><style>.cls-1{fill:#fafafa;stroke:#d9d9d9;stroke-miterlimit:10;stroke-width:0.75px;}</style></defs><g id="Capa_2" data-name="Capa 2"><g id="Capa_1-2" data-name="Capa 1"><path class="cls-1" d="M133.36,231c-30.64,0-61.29.18-91.93-.07-17.21-.13-30.45-7.73-37.78-23.59-5.8-12.54-3.46-24.65,3.63-36.31q38.1-62.73,75.9-125.66c4.9-8.12,9.69-16.31,14.7-24.36,17.18-27.59,54.78-27.58,71.71.26,30.34,49.91,60,100.27,90.74,149.93,17.19,27.75-1.95,59.57-33.74,59.76C195.51,231.17,164.44,231,133.36,231Zm.47-24.25c30.42,0,60.85-.09,91.27.06,7,0,12.79-1.86,16.38-8.18,3.45-6.05.41-11.1-2.68-16.22q-44-72.79-87.8-145.64c-9.59-15.95-25-16.1-34.47-.29Q95.86,70.84,75.14,105.17q-23.88,39.58-47.77,79.16c-6.51,10.85-.66,21.69,12,22.36,2.15.12,4.31.08,6.47.08Z"/><path class="cls-1" d="M145.71,109.43c0,7.75.14,15.5,0,23.24-.19,8.25-4.78,13.15-11.94,13.18s-11.94-4.88-12-13.08q-.27-23.24,0-46.47c.09-7.88,5.32-13.1,12.25-12.93,6.72.16,11.51,5.21,11.72,12.82S145.71,101.69,145.71,109.43Z"/><path class="cls-1" d="M133.76,158.53a11.85,11.85,0,1,1-12.08,11.57A11.73,11.73,0,0,1,133.76,158.53Z"/></g></g></svg>