<?xml version="1.0" encoding="utf-8"?>
<!-- Generator: Adobe Illustrator 24.3.0, SVG Export Plug-In . SVG Version: 6.00 Build 0)  -->
<svg version="1.1" id="Capa_1" xmlns="http://www.w3.org/2000/svg" xmlns:xlink="http://www.w3.org/1999/xlink" x="0px" y="0px"
	 viewBox="0 0 209.4 81.7" style="enable-background:new 0 0 209.4 81.7;" xml:space="preserve">
<style type="text/css">
	.st0{fill:#1D201A;}
	.st1{fill:#FFFFFF;}
</style>
<g id="Marco">
	<g>
		<rect x="0" y="0" class="st0" width="209.4" height="81.6"/>
	</g>
</g>
<g id="Linea_contorno">
	<path class="st1" d="M3.3,3.1v75.3h202.8V3.1H3.3z M202.9,74.9H6.5V6.6h196.4L202.9,74.9L202.9,74.9z"/>
</g>
<g id="Texto">
	<g>
		<path class="st1" d="M35.8,19.3h7.3L59.3,62h-8.5l-4-10.6H31.9L28,62h-8.5L35.8,19.3z M45.3,45.5l-5.9-16.8l-6.1,16.8H45.3z"/>
		<path class="st1" d="M95.9,26.6H82.3V62h-8.2V26.6H60.4v-7.3h35.5V26.6z"/>
		<path class="st1" d="M123.3,55c2,0,3.6-0.4,5-1.2c1.3-0.8,2.4-1.8,3.3-3.1c0.8-1.3,1.4-2.8,1.8-4.4c0.3-1.6,0.5-3.4,0.5-5.1V19.4
			h8.2v21.8c0,2.9-0.3,5.7-1,8.2c-0.7,2.6-1.8,4.8-3.3,6.7c-1.5,1.9-3.4,3.4-5.8,4.6c-2.4,1.1-5.2,1.7-8.5,1.7
			c-3.4,0-6.3-0.6-8.7-1.8c-2.4-1.2-4.3-2.8-5.8-4.7c-1.5-2-2.6-4.2-3.2-6.8c-0.7-2.6-1-5.2-1-8V19.4h8.3v21.8
			c0,1.8,0.2,3.5,0.5,5.2c0.3,1.6,0.9,3.1,1.8,4.4c0.8,1.3,1.9,2.3,3.2,3.1C119.8,54.6,121.4,55,123.3,55z"/>
		<path class="st1" d="M166.5,19.3h7.4L190.1,62h-8.5l-4-10.6h-14.9L158.7,62h-8.5L166.5,19.3z M176,45.5l-5.9-16.8L164,45.5H176z"
			/>
	</g>
</g>
</svg>
