<?xml version="1.0" encoding="utf-8"?>
<!-- Generator: Adobe Illustrator 24.3.0, SVG Export Plug-In . SVG Version: 6.00 Build 0)  -->
<svg version="1.1" id="Capa_1" xmlns="http://www.w3.org/2000/svg" xmlns:xlink="http://www.w3.org/1999/xlink" x="0px" y="0px"
	 viewBox="0 0 250 250" style="enable-background:new 0 0 250 250;" xml:space="preserve">
<style type="text/css">
	.st0{fill:#C8D6DE;}
</style>
<path id="Icon_awesome-camera-retro" class="st0" d="M60.7,55.8c-8.2,0-14.8,6.6-14.8,14.8v108.8c0,8.2,6.6,14.8,14.8,14.8h128.6
	c8.2,0,14.8-6.6,14.8-14.8V70.6c0-8.2-6.6-14.8-14.8-14.8H60.7z M60.7,65.6h32.8c1,0,1.9,0.8,1.9,1.9v6.2c0,1-0.8,1.9-1.9,1.9H57.6
	c-1,0-1.9-0.8-1.9-1.9v-3.1C55.8,67.9,58,65.7,60.7,65.6L60.7,65.6z M192.4,95.3H57.6c-1,0-1.9-0.8-1.9-1.9V82.3
	c0-1,0.8-1.9,1.9-1.9h42.7l9.3-14c0.3-0.5,0.9-0.8,1.5-0.8h78.1c2.7,0,4.9,2.2,4.9,4.9v22.9C194.2,94.5,193.4,95.3,192.4,95.3z
	 M125,176.9c-20.5,0-37.1-16.6-37.1-37.1s16.6-37.1,37.1-37.1c20.5,0,37.1,16.6,37.1,37.1C162.1,160.3,145.5,176.9,125,176.9z
	 M125,112.6c-15,0-27.2,12.2-27.2,27.2c0,15,12.2,27.2,27.2,27.2c15,0,27.2-12.2,27.2-27.2C152.2,124.8,140,112.7,125,112.6z
	 M110.2,144.8c-2.7,0-4.9-2.2-4.9-4.9c0-10.9,8.9-19.8,19.8-19.8c2.7,0,4.9,2.2,4.9,4.9c0,2.7-2.2,4.9-4.9,4.9
	c-5.5,0-9.9,4.4-9.9,9.9C115.1,142.6,112.9,144.8,110.2,144.8z"/>
</svg>
