<svg xmlns="http://www.w3.org/2000/svg" viewBox="0 0 221.53 264.79"><defs><style>.cls-1{fill:#fafafa;stroke:#d9d9d9;stroke-miterlimit:10;stroke-width:0.75px;}</style></defs><g id="Capa_2" data-name="Capa 2"><g id="Capa_1-2" data-name="Capa 1"><path class="cls-1" d="M74.37,231.11l-2.06.36q-29.23,5.24-58.49,10.44c-6.45,1.14-11.65-2.55-12.77-9a43.46,43.46,0,0,1-.26-13.61A45.58,45.58,0,0,1,18,189a7.55,7.55,0,0,0,3-7.86c-3.65-20.21-7.48-40.39-10.8-60.66C5.12,89.61,14.8,64,38.85,44A71.48,71.48,0,0,1,65.7,30.31c1.41-.4,1.75-.89,1.47-2.32-1-5.25-2-10.5-2.78-15.79A10.37,10.37,0,0,1,72.19.72,10.52,10.52,0,0,1,84.48,6.65a15.55,15.55,0,0,1,.94,3.4c.89,4.81,1.77,9.63,2.56,14.46.2,1.19.61,1.55,1.86,1.46a78.54,78.54,0,0,1,83.49,64.57q5.56,30.46,10.87,61c.64,3.64,2.56,5.69,6,6.94,16.66,6,27,17.77,30.68,35.12,1.38,6.48-2.34,11.76-8.9,12.94q-29.24,5.26-58.49,10.46c-2.23.4-2.23.4-1.86,2.61,3.17,19.48-9.13,38.09-28.78,43.52-18.48,5.1-38.78-5.19-45.83-23.31C75.94,237.05,75.27,234.14,74.37,231.11ZM22.46,218.72l173.19-30.93a1.83,1.83,0,0,0-.08-.45c-.15-.23-.32-.46-.49-.68a26.4,26.4,0,0,0-12.36-8.44c-10.54-3.69-17.1-11-19.14-22-3.72-20.2-7.24-40.43-10.87-60.64-.4-2.22-.88-4.42-1.46-6.59a57.64,57.64,0,0,0-52.2-42c-8.83-.44-17.36,1.34-25.87,3.27a48.43,48.43,0,0,0-17.62,7.85c-20,14.4-28.5,33.87-24.59,58.24,3.32,20.61,7.28,41.11,10.93,61.66a26.74,26.74,0,0,1-4.35,20.74,38.85,38.85,0,0,1-6.43,6.83A27,27,0,0,0,22.46,218.72Zm73.2,8.67c.18,6.09,5,12.26,11.31,14.65a17.64,17.64,0,0,0,19.15-4.57c4.23-4.61,5.58-10.05,4.27-16.28Z"/></g></g></svg>