<?xml version="1.0" encoding="utf-8"?>
<!-- Generator: Adobe Illustrator 16.0.0, SVG Export Plug-In . SVG Version: 6.00 Build 0)  -->
<!DOCTYPE svg PUBLIC "-//W3C//DTD SVG 1.1//EN" "http://www.w3.org/Graphics/SVG/1.1/DTD/svg11.dtd">
<svg
  version="1.1"
  id="Layer_1"
  xmlns="http://www.w3.org/2000/svg"
  xmlns:xlink="http://www.w3.org/1999/xlink"
  x="0px"
  y="0px"
  width="300px"
  height="100px"
  viewBox="0 0 300 100"
  enable-background="new 0 0 300 100"
  xml:space="preserve"
>
  <title>Custeed-Widget-Banner-Transparent</title>
  <style>
    .cls-15{fill:#182641;}.cls-16{fill:#fff;fill-rule:evenodd;}.cls-17{fill:#e73951;}.cls-18{fill:#eb6435;}.cls-19{fill:#f39421;}
    .cls-20{fill:#f0b90f;}.cls-21{fill:#a7b94e;}.cls-22{fill:#7fb76f;}.cls-23{fill:#43b7ac;}
  </style>

  <path fill="#152543" d="M113.908,50.906c0.282-0.454,0.429-0.978,0.426-1.512c0.007-0.627-0.235-1.23-0.673-1.679
    c-0.406-0.456-0.987-0.716-1.598-0.713h-1.561c0.264-0.564,0.402-1.178,0.405-1.8c0.025-0.597-0.082-1.192-0.313-1.743
    c-0.187-0.409-0.505-0.745-0.904-0.953c-0.415-0.207-0.874-0.312-1.338-0.304c-0.307-0.004-0.601,0.121-0.811,0.344
    c-0.267,0.286-0.457,0.634-0.551,1.014c-0.111,0.414-0.202,0.808-0.272,1.184c-0.029,0.294-0.139,0.574-0.316,0.811
    c-0.29,0.333-0.605,0.738-0.949,1.216c-0.348,0.53-0.756,1.017-1.216,1.452h-2.433c-0.309-0.005-0.604,0.124-0.811,0.353
    c-0.219,0.228-0.338,0.532-0.333,0.848v5.976c-0.006,0.315,0.114,0.62,0.333,0.848c0.207,0.229,0.502,0.357,0.811,0.353h2.554
    c0.417,0.083,0.824,0.208,1.216,0.373c0.628,0.237,1.268,0.441,1.917,0.612c0.549,0.141,1.113,0.211,1.679,0.211h1.144
    c1.432,0.096,2.671-0.986,2.768-2.418c0.009-0.131,0.008-0.262-0.003-0.393c0.355-0.482,0.542-1.067,0.531-1.666
    c0-0.135-0.01-0.271-0.028-0.405c0.224-0.415,0.339-0.879,0.336-1.351c0-0.219-0.027-0.436-0.081-0.648L113.908,50.906z
    M102.823,55.221c-0.193,0.223-0.531,0.248-0.755,0.055c-0.02-0.017-0.039-0.035-0.056-0.055c-0.224-0.236-0.224-0.607,0-0.844
    c0.193-0.225,0.531-0.25,0.755-0.057c0.02,0.018,0.039,0.036,0.056,0.057C103.048,54.613,103.048,54.984,102.823,55.221z
    M113.016,50.16c-0.127,0.287-0.285,0.434-0.475,0.441c0.103,0.133,0.178,0.285,0.223,0.446c0.055,0.168,0.085,0.343,0.089,0.519
    c0.004,0.422-0.166,0.825-0.47,1.115c0.105,0.199,0.16,0.42,0.158,0.645c-0.001,0.238-0.054,0.474-0.154,0.689
    c-0.08,0.203-0.222,0.375-0.406,0.49c0.029,0.174,0.043,0.348,0.045,0.523c0,1.043-0.568,1.564-1.703,1.564h-1.07
    c-1.042-0.057-2.067-0.288-3.033-0.685l-0.255-0.097l-0.316-0.118l-0.312-0.109c-0.141-0.046-0.253-0.079-0.336-0.102
    c-0.085-0.021-0.183-0.04-0.292-0.061c-0.092-0.017-0.186-0.026-0.28-0.028h-0.284v-5.993h0.284c0.11-0.004,0.219-0.033,0.316-0.085
    c0.129-0.066,0.248-0.151,0.353-0.251c0.122-0.113,0.235-0.224,0.341-0.333c0.125-0.129,0.242-0.264,0.353-0.405l0.304-0.405
    l0.28-0.385l0.203-0.28c0.324-0.424,0.551-0.708,0.681-0.852c0.255-0.295,0.436-0.646,0.527-1.026
    c0.111-0.416,0.202-0.808,0.271-1.176c0.035-0.296,0.151-0.577,0.337-0.811c0.567,0,0.946,0.147,1.135,0.442
    c0.218,0.418,0.316,0.888,0.284,1.358c-0.035,0.523-0.173,1.035-0.405,1.504c-0.232,0.467-0.37,0.976-0.406,1.496h3.122
    c0.303,0.002,0.59,0.134,0.791,0.361c0.223,0.222,0.347,0.524,0.345,0.839c-0.011,0.263-0.076,0.521-0.19,0.758L113.016,50.16z"/>

  <g
    id="Calque_2"
    data-name="Calque 2"
    transform="translate(-12,35) scale(0.37 0.37)"
  >
    <g id="Calque_1-2" data-name="Calque 1">

      <path class="cls-15" d="M84.3,3.5c32.82-.77,50.4,41.68,26.65,64.34a37.68,37.68,0,0,1-26.65,11c-8.6,0-29.89,2.75-29.89,2.75-.84-4-12.84-42.28-5-54.87A37.84,37.84,0,0,1,84.3,3.5Z"/>
      <path class="cls-16" d="M89.86,63.09c2.25-18.71-.77-14.17,10.84-29.54L98.12,22,86.33,23.17C75.22,39,78.61,34.67,61.49,42.6l8.57,6.21,4-5.53c.26.35,2.25,1.21,1.93,1.82L68.35,62.87,83,50.14c.5-.44,2,1.09,2.35,1.25l-4,5.53Zm.94-24.77C89,40.89,85,38.36,84.33,36c-.5-1.63,2.59-4.57,3.29-5.82a2.75,2.75,0,0,1,1.77-1.09c1.32-.33,2.64,1,3.61,1.66C96.06,32.83,92,36.43,90.8,38.32Z"/>
      <path class="cls-17" d="M102.67,72.69a36.68,36.68,0,0,1-35,1.55L55.25,80.9l2-14.36C46.58,55.29,44.33,37.55,52,24.28v0L47.62,21c-8.4,14-7.12,32.57,2.61,45.62L48.32,90.4l21.76-9.31a42,42,0,0,0,42.85-9.59L109,70.68Z"/>
      <path class="cls-18" d="M50.64,56.7a76,76,0,0,1-2.7-8.81L42,43.32a35.46,35.46,0,0,0,1.87,10.34l8.65,6.69A34.23,34.23,0,0,1,50.64,56.7Z"/>
      <path class="cls-19" d="M93.55,82.2a42.18,42.18,0,0,0,7.11-2.4L95.7,76a36.77,36.77,0,0,1-9,1.9l5.9,4.56Z"/>
      <path class="cls-20" d="M42.58,34.84l5,3.84A35.45,35.45,0,0,1,49.06,31l-4.52-3.5A40.87,40.87,0,0,0,42.58,34.84Z"/>
      <path class="cls-21" d="M112.94,71.51l-4.32-3.34a35.9,35.9,0,0,1-5.78,4.41l4.52,3.5A42.13,42.13,0,0,0,112.94,71.51Z"/>
      <path class="cls-21" d="M44.54,27.47,49.06,31a34.28,34.28,0,0,1,2.88-6.67L47.62,21A39.94,39.94,0,0,0,44.54,27.47Z"/>
      <path class="cls-20" d="M102.83,72.58A35.53,35.53,0,0,1,95.7,76l5,3.84a40.47,40.47,0,0,0,6.69-3.72Z"/>
      <path class="cls-19" d="M47.93,47.85a36.61,36.61,0,0,1-.39-9.17l-5-3.84A40.14,40.14,0,0,0,42,43.32l5.9,4.57S47.94,47.86,47.93,47.85Z"/>
      <path class="cls-18" d="M86.66,77.85a36.18,36.18,0,0,1-13.25-1.36l8.84,6.85a42,42,0,0,0,10.31-.92Z"/>
      <path class="cls-22" d="M113.26,62.87a35.39,35.39,0,0,1-4.64,5.3l4.32,3.34a41.7,41.7,0,0,0,4.6-5.33Z"/>
      <path class="cls-22" d="M50,17.35A39.26,39.26,0,0,0,47.62,21l4.32,3.34a36.22,36.22,0,0,1,4-5.8l-4.28-3.31Q50.79,16.23,50,17.35Z"/>
      <path class="cls-23" d="M51.66,15.19l4.28,3.31c30.64-34.43,83.22,6.09,57.32,44.37l4.28,3.31c30-44-30.66-91-65.83-51.06"/>

      <g id="Groupe_4" data-name="Groupe 4" transform="translate(135,-113) scale(0.95 0.95)">
        <path
          id="Tracé_21"
          data-name="Tracé 21"
          class="cls-2"
          d="M10.3,148.48C1.72,148.48,0,154.73,0,164.8s1.72,16.32,10.3,16.32c3.78.31,10.27-2.35,9.33-10.47H15.06c.35,3.37-.46,6.47-4.76,6.31-5.64,0-6.1-5.51-6.1-12.16s.46-12.16,6.1-12.16c4.38-.18,5.32,2.9,5,6.37H19.4C20.43,150.88,14.24,148.17,10.3,148.48Z"
        />
        <path
          id="Tracé_22"
          data-name="Tracé 22"
          class="cls-2"
          d="M27.16,148.75v22.88c0,6.32,3.2,9.52,9.51,9.52s9.66-3.2,9.66-9.52V148.75H42v22.88A5.34,5.34,0,0,1,36.68,177c-3.59,0-5.19-1.65-5.19-5.36V148.75Z"
        />
        <path
          id="Tracé_23"
          data-name="Tracé 23"
          class="cls-2"
          d="M53.63,170c.09,3.9-.47,10.5,10.36,11.07,8.3,0,9.19-5.88,9.19-8.41,0-6.49-4.58-8.18-8.62-9.68-16.56-5.34,4.38-18.64,3.9-3.71H72.8c1.8-13.58-18.32-14.69-18.61-2.06,0,6.52,4.45,8.23,8.74,9.92,2.85,1.09,6.09,2.32,6.09,5.53,0,1-.35,4.25-4.92,4.25-4.94.1-6.57-3-6.13-6.91Z"
        />
        <path
          id="Tracé_24"
          data-name="Tracé 24"
          class="cls-2"
          d="M84.21,180.92h4.34V152.85h6.38v-4.1H77.82v4.1h6.39Z"
        />
        <path
          id="Tracé_25"
          data-name="Tracé 25"
          class="cls-2"
          d="M102.24,180.92h15.29v-4.11h-11v-9.12h8.9v-4.11h-9.12V152.85h10.72v-4.1H102.24Z"
        />
        <path
          id="Tracé_26"
          data-name="Tracé 26"
          class="cls-2"
          d="M125.06,180.92h15.29v-4.11h-11v-9.12h8.9v-4.11h-8.9V152.85h10.5v-4.1H125.06Z"
        />
        <path
          id="Tracé_27"
          data-name="Tracé 27"
          class="cls-2"
          d="M157.16,148.75h-9v32.17h9c8.67,0,10.44-6.43,10.44-16.09S165.83,148.75,157.16,148.75ZM157,176.81h-4.81v-24H157c5.74,0,6.21,5.66,6.21,12S162.77,176.61,157,176.81Z"
        />
      </g>
    </g>
  </g>
</svg>