<?xml version="1.0" encoding="utf-8"?>
<!-- Generator: Adobe Illustrator 16.0.0, SVG Export Plug-In . SVG Version: 6.00 Build 0)  -->
<!DOCTYPE svg PUBLIC "-//W3C//DTD SVG 1.1//EN" "http://www.w3.org/Graphics/SVG/1.1/DTD/svg11.dtd">
<svg version="1.1" id="Calque_1" xmlns="http://www.w3.org/2000/svg" xmlns:xlink="http://www.w3.org/1999/xlink" x="0px" y="0px"
	 width="420.868px" height="130.813px" viewBox="73.031 218.664 420.868 130.813"
	 enable-background="new 73.031 218.664 420.868 130.813" xml:space="preserve">
<g>
	<path fill="#557EBF" d="M125.613,264.477v14.179h33.843c-1.068,7.98-3.705,13.75-7.694,17.813
		c-4.987,4.986-12.683,10.33-26.148,10.33c-20.805,0-37.121-16.814-37.121-37.619s16.316-37.62,37.121-37.62
		c11.257,0,19.451,4.417,25.507,10.117l9.975-9.975c-8.407-8.194-19.664-14.393-35.481-14.393
		c-28.571,0-52.582,23.228-52.582,51.798c0,28.571,24.011,51.798,52.582,51.798c15.461,0,27.074-5.059,36.123-14.535
		c9.334-9.333,12.255-22.514,12.255-33.13c0-3.277-0.214-6.341-0.784-8.835h-47.594V264.477z"/>
	<path fill="#EA4535" d="M216.384,306.656c-10.118,0-18.881-8.336-18.881-20.234c0-12.041,8.763-20.235,18.881-20.235
		c10.117,0,18.881,8.265,18.881,20.235C235.265,298.32,226.501,306.656,216.384,306.656L216.384,306.656z M216.384,252.935
		c-18.454,0-33.559,14.036-33.559,33.416c0,19.237,15.104,33.416,33.559,33.416c18.453,0,33.558-14.179,33.558-33.416
		C249.942,266.971,234.837,252.935,216.384,252.935L216.384,252.935z"/>
	<path fill="#557EBF" d="M364.012,306.656c-10.117,0-17.884-8.621-17.884-20.234c0-11.827,7.695-20.235,17.884-20.235
		c9.975,0,17.813,8.621,17.813,20.377C381.896,298.178,373.987,306.656,364.012,306.656L364.012,306.656z M380.898,260.416h-0.499
		c-3.277-3.919-9.618-7.481-17.599-7.481c-16.672,0-31.278,14.535-31.278,33.416c0,18.739,14.535,33.416,31.278,33.416
		c7.98,0,14.321-3.563,17.599-7.624h0.499v4.631c0,12.754-6.84,19.594-17.813,19.594c-8.978,0-14.534-6.483-16.886-11.898
		l-12.754,5.272c3.705,8.835,13.396,19.736,29.64,19.736c17.242,0,31.777-10.118,31.777-34.841v-59.992h-13.965V260.416
		L380.898,260.416z"/>
	<path fill="#F7BB17" d="M291.196,306.656c-10.117,0-18.881-8.336-18.881-20.234c0-12.041,8.764-20.235,18.881-20.235
		s18.881,8.265,18.881,20.235C310.076,298.32,301.313,306.656,291.196,306.656L291.196,306.656z M291.196,252.935
		c-18.454,0-33.559,14.036-33.559,33.416c0,19.237,15.104,33.416,33.559,33.416c18.453,0,33.558-14.179,33.558-33.416
		C324.753,266.971,309.649,252.935,291.196,252.935L291.196,252.935z"/>
	<polygon fill="#33A850" points="406.334,218.664 420.726,218.664 420.726,319.838 406.334,319.838 	"/>
	<path fill="#EA4535" d="M464.33,265.475c5.914,0,10.973,3.064,12.683,7.339l-30.21,12.468
		C446.803,271.317,456.707,265.475,464.33,265.475L464.33,265.475z M465.4,306.656c-7.481,0-12.754-3.42-16.245-10.117
		l44.744-18.453l-1.496-3.776c-2.778-7.481-11.257-21.304-28.642-21.304c-17.242,0-31.563,13.538-31.563,33.416
		c0,18.738,14.179,33.416,33.131,33.416c15.318,0,24.153-9.404,27.858-14.82l-11.4-7.623
		C478.01,302.951,472.88,306.656,465.4,306.656L465.4,306.656L465.4,306.656z"/>
</g>
</svg>
