<?xml version="1.0" encoding="utf-8"?>
<!-- Generator: Adobe Illustrator 16.0.0, SVG Export Plug-In . SVG Version: 6.00 Build 0)  -->
<!DOCTYPE svg PUBLIC "-//W3C//DTD SVG 1.1//EN" "http://www.w3.org/Graphics/SVG/1.1/DTD/svg11.dtd">
<svg version="1.1" id="Calque_1" xmlns="http://www.w3.org/2000/svg" xmlns:xlink="http://www.w3.org/1999/xlink" x="0px" y="0px"
	 width="82.059px" height="18.488px" viewBox="0 0 82.059 18.488" enable-background="new 0 0 82.059 18.488" xml:space="preserve">
<g>
	<path fill-rule="evenodd" clip-rule="evenodd" fill="#36373D" d="M82.059,12.678c-0.065,0.189-0.122,0.383-0.196,0.569
		c-0.409,1.025-1.333,1.65-2.433,1.65c-2.475,0-4.95,0-7.425,0c-0.255,0-0.306-0.05-0.306-0.304c0-2.475,0.001-4.949-0.001-7.423
		c0-0.993,0.35-1.814,1.175-2.397c0.405-0.287,0.861-0.433,1.363-0.433c1.702,0.002,3.405,0.029,5.106-0.008
		c1.288-0.029,2.477,1.066,2.678,2.269c0.006,0.032-0.004,0.07,0.038,0.086C82.059,8.685,82.059,10.681,82.059,12.678z
		 M75.577,10.761c0,0.52,0.004,1.039-0.003,1.559c-0.002,0.125,0.028,0.166,0.158,0.161c0.245-0.011,0.492-0.015,0.737,0
		c0.178,0.012,0.21-0.053,0.209-0.218c-0.008-0.991,0.004-1.983-0.01-2.974c-0.003-0.22,0.062-0.279,0.271-0.263
		C77.106,9.04,77.326,9.103,77.434,9c0.108-0.104,0.028-0.323,0.032-0.492c0.006-0.293,0.002-0.293-0.287-0.293
		c-0.527,0-0.527,0-0.504-0.528c0.017-0.365,0.239-0.566,0.6-0.541c0.307,0.022,0.307,0.022,0.344-0.288
		c0-0.007,0-0.014,0.001-0.021c0.059-0.542,0.059-0.542-0.488-0.577c-0.739-0.046-1.306,0.319-1.49,0.957
		c-0.076,0.261-0.075,0.528-0.06,0.793c0.012,0.176-0.047,0.214-0.214,0.209c-0.397-0.012-0.398-0.003-0.398,0.387
		c0,0.422,0.001,0.431,0.424,0.421c0.161-0.004,0.19,0.048,0.188,0.196C75.571,9.736,75.577,10.249,75.577,10.761z M78.889,8.781
		c-0.014-0.172-0.03-0.294-0.03-0.416c0.001-0.112-0.035-0.157-0.153-0.153c-0.246,0.008-0.493,0.007-0.738,0
		c-0.105-0.003-0.142,0.029-0.142,0.138c0.003,1.333,0.004,2.665,0,3.998c-0.001,0.116,0.047,0.133,0.146,0.131
		c0.253-0.005,0.506-0.011,0.758,0.002c0.155,0.009,0.194-0.039,0.193-0.192c-0.008-0.833-0.004-1.667-0.004-2.501
		c0-0.299,0.186-0.507,0.484-0.563c0.145-0.027,0.286-0.001,0.429,0c0.091,0,0.132-0.021,0.14-0.122
		c0.021-0.265,0.053-0.53,0.09-0.793c0.014-0.1-0.021-0.131-0.114-0.146c-0.323-0.052-0.596,0.035-0.811,0.283
		C79.058,8.537,78.992,8.64,78.889,8.781z M73.926,12.478c0.144,0,0.287-0.005,0.431,0.001c0.089,0.004,0.12-0.026,0.118-0.116
		c-0.005-0.261-0.005-0.52,0-0.78c0.001-0.093-0.039-0.115-0.122-0.114c-0.28,0.003-0.562,0.004-0.842-0.001
		c-0.097-0.001-0.133,0.031-0.13,0.13c0.005,0.239,0.011,0.479-0.002,0.718c-0.008,0.146,0.053,0.174,0.178,0.164
		C73.68,12.471,73.803,12.478,73.926,12.478z"/>
	<path fill-rule="evenodd" clip-rule="evenodd" fill="#C42127" d="M11.652,0c0.079,0.123,0,0.22-0.056,0.319
		C9.519,4.081,7.441,7.842,5.363,11.602c-0.035,0.064-0.067,0.13-0.111,0.215c0.096,0,0.169,0,0.243,0c1.675,0,3.35,0,5.024,0
		c0.055,0,0.114-0.014,0.163,0.003c0.084,0.03,0.166,0.065,0.092,0.191c-0.472,0.807-0.94,1.615-1.404,2.427
		c-0.053,0.093-0.117,0.113-0.214,0.113c-2.974-0.002-5.947-0.003-8.921,0.004c-0.095,0-0.148-0.079-0.235-0.072
		c0-0.014,0-0.026,0-0.041c0.008-0.011,0.018-0.021,0.025-0.032C2.654,9.656,5.283,4.902,7.911,0.147
		C7.935,0.103,7.986,0.063,7.959,0C9.19,0,10.421,0,11.652,0z"/>
	<path fill-rule="evenodd" clip-rule="evenodd" fill="#C42127" d="M38.879,14.261c-0.614,0.187-1.229,0.368-1.868,0.45
		c-0.586,0.074-1.17,0.09-1.75-0.056c-1.133-0.286-1.879-1.199-1.947-2.371c-0.071-1.245,0.301-2.375,0.905-3.436
		c1.004-1.761,2.406-3.084,4.337-3.779c1.321-0.475,2.664-0.476,4.007-0.079c0.326,0.097,0.585,0.318,0.844,0.53
		c0.068,0.056,0.136,0.114,0.223,0.187c0.15-0.274,0.299-0.53,0.434-0.793c0.06-0.116,0.126-0.167,0.266-0.166
		c0.964,0.008,1.928,0.003,2.892,0.004c0.266,0,0.292,0.047,0.162,0.281c-1.766,3.179-3.523,6.362-5.304,9.533
		c-0.774,1.378-1.941,2.366-3.313,3.119c-0.981,0.539-2.032,0.836-3.157,0.799c-1.386-0.046-2.575-0.6-3.635-1.465
		c-0.281-0.229-0.542-0.48-0.802-0.732c-0.101-0.097-0.13-0.152,0.016-0.252c0.542-0.37,1.075-0.752,1.602-1.143
		c0.147-0.108,0.216-0.076,0.299,0.063c0.26,0.436,0.563,0.84,0.943,1.179c0.507,0.452,1.075,0.775,1.782,0.762
		c0.473-0.01,0.894-0.18,1.276-0.448c0.795-0.559,1.349-1.322,1.816-2.158c0.006-0.013,0.012-0.026,0.018-0.039
		C38.91,14.253,38.895,14.257,38.879,14.261z M37.642,12.853c0.104-0.01,0.228-0.013,0.348-0.034
		c1.249-0.226,2.179-0.933,2.829-1.986c0.676-1.097,1.288-2.233,1.929-3.351c0.046-0.079,0.054-0.143,0-0.224
		c-0.365-0.56-0.875-0.85-1.547-0.823c-0.664,0.026-1.217,0.339-1.727,0.727c-0.989,0.752-1.788,1.683-2.467,2.717
		c-0.293,0.448-0.526,0.925-0.635,1.454c-0.17,0.827,0.178,1.37,0.964,1.497C37.43,12.845,37.527,12.844,37.642,12.853z"/>
	<path fill-rule="evenodd" clip-rule="evenodd" fill="#C42127" d="M17.918,14.144c-0.799,0.421-1.655,0.545-2.551,0.553
		c-2.038,0.019-3.533-1.962-3.364-3.72c0.097-0.999,0.464-1.889,0.992-2.723c0.608-0.961,1.335-1.825,2.28-2.467
		c0.961-0.653,2.044-1.024,3.192-1.198c1.17-0.177,2.3-0.052,3.379,0.451c0.311,0.145,0.601,0.323,0.87,0.568
		c0.138-0.25,0.274-0.484,0.4-0.725c0.05-0.097,0.109-0.134,0.222-0.133c0.991,0.005,1.983,0.002,2.974,0.004
		c0.238,0,0.265,0.052,0.148,0.263c-1.736,3.147-3.473,6.295-5.205,9.444c-0.065,0.118-0.135,0.159-0.27,0.159
		c-0.971-0.007-1.942-0.004-2.913-0.004c-0.301,0-0.325-0.043-0.179-0.312c0.022-0.043,0.043-0.086,0.064-0.128
		c0.014-0.021,0.031-0.04,0.007-0.064c0.01-0.001,0.02-0.002,0.029-0.004c-0.001-0.006-0.002-0.011-0.003-0.018
		c-0.007,0.009-0.015,0.017-0.021,0.024C17.954,14.125,17.937,14.134,17.918,14.144z M16.54,12.519
		c0.709,0.007,1.406-0.177,2.014-0.631c0.613-0.458,1.229-0.915,1.609-1.607c0.489-0.891,0.977-1.783,1.466-2.674
		c0.209-0.381,0.199-0.444-0.127-0.735c-0.031-0.027-0.064-0.051-0.097-0.076c-0.587-0.431-1.244-0.496-1.911-0.284
		c-1.663,0.527-2.978,1.525-3.876,3.032c-0.358,0.601-0.529,1.27-0.523,1.976c0.005,0.491,0.222,0.77,0.693,0.917
		C16.02,12.509,16.257,12.526,16.54,12.519z"/>
	<path fill-rule="evenodd" clip-rule="evenodd" fill="#C42127" d="M50.976,13.966c-0.635,0.299-1.252,0.486-1.886,0.619
		c-0.898,0.188-1.804,0.311-2.723,0.146c-0.395-0.07-0.764-0.201-1.073-0.47c-0.563-0.487-0.612-1.112-0.471-1.782
		c0.144-0.676,0.455-1.282,0.786-1.881c1.041-1.887,2.081-3.776,3.117-5.667c0.061-0.111,0.126-0.153,0.253-0.152
		c0.942,0.005,1.887,0.002,2.83,0.003c0.268,0,0.297,0.049,0.173,0.275c-1.142,2.065-2.283,4.131-3.426,6.196
		c-0.07,0.126-0.133,0.254-0.163,0.396c-0.054,0.261,0.046,0.512,0.274,0.654c0.416,0.259,0.88,0.3,1.347,0.233
		c1.243-0.178,2.183-0.816,2.788-1.923c1.028-1.878,2.053-3.76,3.073-5.644c0.073-0.137,0.149-0.194,0.312-0.192
		c0.998,0.009,1.996,0.004,2.995,0.004c0.026,0,0.054,0,0.081,0c0.219,0.008,0.25,0.061,0.146,0.25
		c-0.762,1.379-1.523,2.759-2.285,4.138c-0.962,1.744-1.926,3.488-2.884,5.233c-0.066,0.119-0.132,0.177-0.28,0.176
		c-1.012-0.008-2.023-0.005-3.035-0.003c-0.09,0-0.187,0.009-0.232-0.083c-0.04-0.081,0.05-0.131,0.082-0.193
		C50.825,14.203,50.887,14.112,50.976,13.966z"/>
	<path fill-rule="evenodd" clip-rule="evenodd" fill="#C42127" d="M57.71,10.534c0.599,0.456,1.217,0.869,1.869,1.229
		c0.616,0.341,1.243,0.667,1.95,0.768c0.662,0.094,1.298-0.034,1.868-0.386c0.534-0.33,0.54-0.802,0.024-1.158
		c-0.49-0.339-1.057-0.536-1.58-0.813c-0.475-0.25-0.998-0.413-1.408-0.78c-0.256-0.228-0.499-0.467-0.685-0.758
		c-0.431-0.678-0.408-1.375,0.076-2.023c0.518-0.692,1.224-1.152,1.993-1.501c2.263-1.027,4.448-0.765,6.557,0.46
		c0.336,0.195,0.326,0.209,0.134,0.539c-0.269,0.459-0.543,0.916-0.802,1.381c-0.081,0.147-0.134,0.183-0.298,0.089
		c-0.75-0.43-1.54-0.763-2.407-0.87c-0.435-0.054-0.859-0.029-1.258,0.179c-0.501,0.263-0.534,0.647-0.078,0.977
		c0.447,0.324,0.967,0.503,1.468,0.715c0.589,0.248,1.145,0.524,1.602,0.997c1.142,1.183,1.072,2.841-0.192,3.89
		c-0.759,0.629-1.66,0.951-2.591,1.222c-1.906,0.554-3.728,0.236-5.51-0.511c-0.656-0.273-1.281-0.608-1.88-0.991
		c-0.17-0.107-0.206-0.197-0.099-0.387c0.393-0.694,0.766-1.4,1.147-2.103C57.64,10.646,57.673,10.595,57.71,10.534z"/>
	<path fill-rule="evenodd" clip-rule="evenodd" fill="#C42127" d="M30.218,6.837c0.857-0.723,1.792-1.314,2.856-1.686
		c0.893-0.312,1.809-0.462,2.756-0.411C36.086,4.754,36.115,4.8,36,5.015c-0.521,0.974-1.045,1.946-1.56,2.923
		c-0.069,0.13-0.129,0.144-0.267,0.111c-0.988-0.234-1.94-0.053-2.868,0.298c-1.084,0.41-2.033,1.048-2.917,1.79
		c-0.078,0.064-0.114,0.152-0.159,0.234c-0.739,1.36-1.479,2.72-2.213,4.082c-0.062,0.113-0.123,0.168-0.264,0.167
		c-0.936-0.008-1.873-0.004-2.809-0.004c-0.235,0-0.274-0.066-0.163-0.27c1.701-3.097,3.403-6.193,5.101-9.292
		c0.072-0.131,0.15-0.177,0.3-0.176c0.902,0.008,1.805,0.003,2.707,0.004c0.267,0,0.293,0.044,0.171,0.273
		c-0.293,0.546-0.586,1.093-0.879,1.64c-0.005,0.015-0.01,0.03-0.015,0.045C30.184,6.839,30.201,6.838,30.218,6.837z"/>
	<path fill-rule="evenodd" clip-rule="evenodd" fill="#C42127" d="M16.282,1.899c-0.035,0.032-0.063,0.059-0.093,0.085
		c-1.022,0.886-2.046,1.771-3.065,2.66c-0.091,0.08-0.142,0.087-0.229-0.008c-0.29-0.318-0.589-0.628-0.889-0.936
		c-0.074-0.076-0.088-0.124-0.013-0.215c0.872-1.052,1.741-2.107,2.604-3.167c0.09-0.111,0.138-0.102,0.226-0.006
		c0.458,0.498,0.921,0.99,1.382,1.485C16.232,1.825,16.253,1.86,16.282,1.899z"/>
	<path fill-rule="evenodd" clip-rule="evenodd" fill="#FEFEFE" d="M38.879,14.261c0.016-0.004,0.031-0.008,0.046-0.011
		c-0.006,0.013-0.012,0.026-0.018,0.039C38.897,14.28,38.888,14.271,38.879,14.261z"/>
	<path fill-rule="evenodd" clip-rule="evenodd" fill="#FEFEFE" d="M17.972,14.115c0.007-0.008,0.014-0.016,0.021-0.024
		c0.001,0.007,0.002,0.012,0.003,0.018c-0.01,0.002-0.02,0.003-0.029,0.004L17.972,14.115z"/>
	<path fill-rule="evenodd" clip-rule="evenodd" fill="#FEFEFE" d="M17.967,14.112c0.024,0.024,0.007,0.044-0.007,0.064
		c-0.014-0.011-0.027-0.021-0.042-0.032c0.018-0.01,0.036-0.02,0.053-0.029L17.967,14.112z"/>
	<path fill-rule="evenodd" clip-rule="evenodd" fill="#FEFEFE" d="M30.218,6.837c-0.017,0.001-0.034,0.002-0.051,0.003
		c0.005-0.015,0.01-0.03,0.015-0.045C30.194,6.81,30.206,6.823,30.218,6.837z"/>
</g>
</svg>
