<?xml version="1.0" encoding="utf-8"?>
<!-- Generator: Adobe Illustrator 16.0.0, SVG Export Plug-In . SVG Version: 6.00 Build 0)  -->
<!DOCTYPE svg PUBLIC "-//W3C//DTD SVG 1.1//EN" "http://www.w3.org/Graphics/SVG/1.1/DTD/svg11.dtd">
<svg version="1.1" id="Calque_1" xmlns="http://www.w3.org/2000/svg" xmlns:xlink="http://www.w3.org/1999/xlink" x="0px" y="0px"
	 width="546.771px" height="124.011px" viewBox="10.991 222.015 546.771 124.011"
	 enable-background="new 10.991 222.015 546.771 124.011" xml:space="preserve">
<g>
	
		<linearGradient id="SVGID_1_" gradientUnits="userSpaceOnUse" x1="376.4856" y1="379.2656" x2="376.4856" y2="222.8662" gradientTransform="matrix(0.7929 0 0 -0.7929 -14.1425 522.7374)">
		<stop  offset="0" style="stop-color:#D22333"/>
		<stop  offset="1" style="stop-color:#880102"/>
	</linearGradient>
	<path fill="url(#SVGID_1_)" d="M522.923,346.025c-37.188,0-511.901,0-511.901,0v-95.942c0,0-2.537-28.069,38.456-28.069
		s508.254,0,508.254,0v95.942C557.732,317.877,560.111,346.025,522.923,346.025z"/>
</g>
<g>
	<path fill="#FFFFFF" d="M195.849,294.011h13.32v2.379c0,9.673-1.744,16.017-5.313,18.792c-3.568,2.854-11.339,4.281-23.47,4.281
		c-13.797,0-22.202-2.22-25.373-6.739c-3.172-4.52-4.758-16.493-4.758-36.078c0-11.497,2.141-19.109,6.423-22.677
		c4.281-3.647,13.241-5.471,26.959-5.471c9.911,0,16.571,1.506,19.901,4.44c3.33,3.013,4.996,8.881,4.996,17.761l0.079,1.586
		h-13.321v-1.824c0-4.599-0.872-7.454-2.616-8.801c-1.744-1.269-5.63-1.903-11.814-1.903c-8.246,0-13.162,1.031-14.827,3.013
		c-1.665,1.982-2.458,8.008-2.458,17.92c0,13.321,0.713,21.25,2.22,23.708c1.507,2.457,6.264,3.646,14.352,3.646
		c6.581,0,10.863-0.713,12.766-2.061c1.982-1.349,2.935-4.361,2.935-8.961V294.011z"/>
	<path fill="#FFFFFF" d="M248.576,303.209h11.735v1.902c0,9.516-7.136,14.272-21.487,14.272c-9.674,0-16.097-1.665-19.03-4.916
		c-3.013-3.33-4.52-10.308-4.52-21.013c0-9.514,1.586-15.857,4.678-19.188c3.172-3.251,9.277-4.916,18.316-4.916
		c8.723,0,14.59,1.585,17.523,4.757c2.934,3.171,4.44,9.436,4.44,18.792v3.568h-33.064c-0.079,1.11-0.079,1.824-0.079,2.141
		c0,4.837,0.714,8.009,2.22,9.595c1.507,1.585,4.44,2.378,8.881,2.378c4.281,0,7.057-0.475,8.405-1.427
		C247.864,308.362,248.576,306.301,248.576,303.209z M248.656,289.412l-0.08-1.903c0-3.885-0.713-6.422-1.981-7.532
		c-1.349-1.189-4.282-1.745-8.723-1.745c-4.36,0-7.215,0.713-8.483,2.062c-1.349,1.427-1.982,4.441-1.982,9.119H248.656z"/>
	<path fill="#FFFFFF" d="M270.065,270.065h11.576l-0.476,8.246l0.238,0.08c2.299-5.868,7.374-8.801,15.303-8.801
		c11.576,0,17.285,5.392,17.285,16.175v33.223h-11.735v-29.575v-1.824l-0.237-3.409c-0.556-3.647-3.409-5.471-8.563-5.471
		c-7.85,0-11.814,3.727-11.814,11.18v28.94h-11.734v-48.763H270.065z"/>
	<path fill="#FFFFFF" d="M357.046,270.065v8.88h-18.792v24.501c0,4.52,1.745,6.819,5.154,6.819c3.806,0,5.709-2.775,5.709-8.246
		v-1.903h9.99v2.458c0,2.221-0.079,4.202-0.237,5.788c-0.635,7.454-6.185,11.181-16.651,11.181c-10.387,0-15.62-4.758-15.62-14.352
		v-26.246h-6.344v-8.88h6.344v-10.942h11.735v10.942H357.046z"/>
	<path fill="#FFFFFF" d="M365.769,270.065h11.734l-0.713,6.819l0.237,0.08c2.775-5.075,7.216-7.691,13.162-7.691
		c8.563,0,12.846,5.392,12.846,16.255v3.408h-11.021c0.158-1.348,0.237-2.22,0.237-2.616c0-5.233-2.062-7.85-6.104-7.85
		c-5.789,0-8.723,3.885-8.723,11.577v28.781H365.69v-48.763H365.769z"/>
	<path fill="#FFFFFF" d="M421.748,284.179h-11.974c0-5.868,1.349-9.753,4.123-11.735c2.696-1.982,8.088-2.934,16.176-2.934
		c8.802,0,14.748,1.189,17.841,3.647c3.092,2.458,4.678,7.057,4.678,13.876v31.954h-11.735l0.556-6.66l-0.317-0.079
		c-2.221,4.836-7.453,7.295-15.62,7.295c-11.814,0-17.762-4.996-17.762-15.066c0-10.148,6.026-15.223,18.158-15.223
		c8.087,0,13.003,1.823,14.748,5.55h0.237v-8.009c0-3.806-0.634-6.343-1.982-7.611c-1.348-1.269-4.043-1.903-8.167-1.903
		C424.761,277.36,421.748,279.58,421.748,284.179z M429.598,296.548c-6.581,0-9.911,2.3-9.911,6.819
		c0,3.172,0.713,5.232,2.062,6.264c1.348,0.951,4.202,1.507,8.563,1.507c7.137,0,10.705-2.379,10.705-7.216
		C440.936,299.006,437.13,296.548,429.598,296.548z"/>
	<path fill="#FFFFFF" d="M475.904,249.132v69.776h-11.735v-69.776H475.904z"/>
	<path fill="#FFFFFF" d="M518.879,303.209h11.735v1.902c0,9.516-7.137,14.272-21.488,14.272c-9.673,0-16.096-1.665-19.029-4.916
		c-3.014-3.33-4.52-10.308-4.52-21.013c0-9.514,1.586-15.857,4.678-19.188c3.172-3.251,9.277-4.916,18.316-4.916
		c8.722,0,14.59,1.585,17.523,4.757c2.934,3.171,4.44,9.436,4.44,18.792v3.568h-33.064c-0.08,1.11-0.08,1.824-0.08,2.141
		c0,4.837,0.714,8.009,2.221,9.595c1.507,1.585,4.44,2.378,8.881,2.378c4.281,0,7.057-0.475,8.404-1.427
		C518.244,308.362,518.879,306.301,518.879,303.209z M518.958,289.412l-0.079-1.903c0-3.885-0.714-6.422-1.982-7.532
		c-1.348-1.189-4.281-1.745-8.722-1.745c-4.361,0-7.216,0.713-8.484,2.062c-1.348,1.427-1.982,4.441-1.982,9.119H518.958z"/>
</g>
<g>
	<path fill="#FFFFFF" d="M51.38,249.132v57.882h32.668v11.813H38.139v-69.775H51.38V249.132z"/>
	<path fill="#FFFFFF" d="M102.603,284.179H90.629c0-5.868,1.349-9.753,4.123-11.735c2.696-1.982,8.088-2.934,16.176-2.934
		c8.801,0,14.748,1.189,17.841,3.647c3.092,2.458,4.678,7.057,4.678,13.876v31.954h-11.735l0.556-6.66l-0.317-0.079
		c-2.221,4.836-7.453,7.295-15.62,7.295c-11.814,0-17.762-4.996-17.762-15.066c0-10.148,6.026-15.223,18.158-15.223
		c8.087,0,13.003,1.823,14.748,5.55h0.237v-8.009c0-3.806-0.634-6.343-1.982-7.611c-1.348-1.269-4.043-1.903-8.167-1.903
		C105.536,277.36,102.603,279.58,102.603,284.179z M110.373,296.548c-6.582,0-9.912,2.3-9.912,6.819
		c0,3.172,0.714,5.232,2.062,6.264c1.349,0.951,4.203,1.507,8.563,1.507c7.137,0,10.705-2.379,10.705-7.216
		C121.791,299.006,117.985,296.548,110.373,296.548z"/>
</g>
</svg>
