<?xml version="1.0" encoding="utf-8"?>
<!-- Generator: Adobe Illustrator 16.0.0, SVG Export Plug-In . SVG Version: 6.00 Build 0)  -->
<!DOCTYPE svg PUBLIC "-//W3C//DTD SVG 1.1//EN" "http://www.w3.org/Graphics/SVG/1.1/DTD/svg11.dtd">
<svg version="1.1" id="Calque_1" xmlns="http://www.w3.org/2000/svg" xmlns:xlink="http://www.w3.org/1999/xlink" x="0px" y="0px"
	 width="85.02px" height="18.859px" viewBox="0 0 85.02 18.859" enable-background="new 0 0 85.02 18.859" xml:space="preserve">
<g>
	<path fill-rule="evenodd" clip-rule="evenodd" fill="#03356B" d="M16.185,0C16.44,0.13,16.729,0.099,17,0.168
		c1.883,0.483,2.836,1.792,3.223,3.604c0.102,0.48,0.152,0.97,0.152,1.463c-0.002,2.571,0.001,5.144-0.002,7.714
		c-0.001,0.902-0.583,1.559-1.399,1.602c-0.914,0.049-1.625-0.623-1.626-1.552c-0.004-2.159-0.002-4.319-0.001-6.48
		c0-0.607-0.056-1.208-0.25-1.788c-0.346-1.029-1.041-1.657-2.132-1.765c-1.145-0.112-2.095,0.257-2.711,1.284
		c-0.386,0.644-0.521,1.357-0.522,2.099c-0.004,2.194,0.001,4.39-0.003,6.584c-0.001,0.987-0.7,1.673-1.633,1.617
		c-0.698-0.042-1.296-0.595-1.389-1.292c-0.021-0.158-0.023-0.319-0.023-0.479c-0.001-2.103,0.001-4.206-0.002-6.309
		C8.679,5.968,8.639,5.467,8.508,4.979C8.19,3.794,7.388,3.063,6.282,2.958C5.02,2.838,3.964,3.434,3.443,4.56
		c-0.315,0.68-0.381,1.402-0.379,2.139c0.003,2.068,0.004,4.138,0,6.206c-0.002,1.032-0.702,1.723-1.675,1.641
		c-0.634-0.054-1.03-0.431-1.267-1.003C0.079,13.44,0.107,13.31,0,13.236C0,9.304,0,5.372,0,1.44
		c0.179-0.309,0.265-0.674,0.559-0.912c0.477-0.387,1.008-0.484,1.567-0.24c0.613,0.27,0.899,0.78,0.936,1.437
		c0.013,0.218,0.002,0.437,0.002,0.751C3.24,2.244,3.346,2.1,3.457,1.958C4.127,1.103,4.935,0.444,6.009,0.16
		C6.223,0.104,6.457,0.128,6.652,0c0.319,0,0.64,0,0.96,0c0.019,0.052,0.063,0.056,0.108,0.061c1.483,0.153,2.586,0.891,3.309,2.186
		c0.138,0.246,0.19,0.225,0.344,0.02c0.787-1.04,1.777-1.79,3.065-2.105c0.26-0.063,0.538-0.039,0.786-0.16
		C15.544,0,15.864,0,16.185,0z"/>
	<path fill-rule="evenodd" clip-rule="evenodd" fill="#03356B" d="M65.56,0c0.243,0.132,0.521,0.106,0.781,0.173
		c2.104,0.544,3.551,1.864,4.292,3.869c1.032,2.78,0.925,5.526-0.738,8.058c-1.554,2.363-4.592,3.258-7.021,2.176
		c-0.8-0.356-1.456-0.891-2.014-1.558c-0.114-0.136-0.224-0.274-0.344-0.424c-0.083,0.126-0.047,0.241-0.047,0.348
		c-0.003,1.395-0.027,2.789,0.006,4.182c0.025,0.993-0.276,1.729-1.294,2.036c-0.206,0-0.411,0-0.616,0
		c-0.012-0.02-0.016-0.051-0.031-0.056c-0.873-0.323-1.128-0.995-1.125-1.865c0.011-4.967,0.004-9.934,0.004-14.9
		c0-0.103-0.004-0.205,0.002-0.308c0.047-0.892,0.637-1.524,1.458-1.569c0.797-0.044,1.467,0.558,1.569,1.443
		c0.038,0.32,0.007,0.648,0.007,0.973c0.183-0.121,0.29-0.263,0.397-0.402c0.772-0.99,1.726-1.711,2.967-2.016
		C64.074,0.095,64.35,0.114,64.6,0C64.921,0,65.24,0,65.56,0z M68.162,7.707c0.002-1.354-0.234-2.275-0.703-3.056
		c-1.23-2.045-3.795-2.451-5.59-0.887c-2.014,1.754-1.972,5.553,0.078,7.284c1.679,1.421,4.081,1.119,5.351-0.677
		C67.928,9.482,68.148,8.471,68.162,7.707z"/>
	<path fill-rule="evenodd" clip-rule="evenodd" fill="#03356B" d="M43.066,18.859c-0.016-0.089-0.101-0.086-0.157-0.109
		c-0.616-0.246-0.914-0.724-0.994-1.359c-0.012-0.092-0.012-0.184-0.012-0.275c-0.001-5.071-0.001-10.144-0.001-15.217
		c0-0.549,0.148-1.044,0.587-1.402c0.442-0.359,0.948-0.436,1.479-0.224c0.54,0.217,0.863,0.632,0.948,1.203
		c0.053,0.359,0.044,0.728,0.064,1.094c0.071,0.038,0.092-0.034,0.118-0.073c0.955-1.36,2.188-2.28,3.894-2.446
		c0.013-0.002,0.026-0.033,0.04-0.05c0.319,0,0.639,0,0.96,0c0.022,0.021,0.044,0.055,0.071,0.058
		c2.429,0.285,4.059,1.643,5.005,3.836c0.828,1.922,0.87,3.922,0.357,5.935c-0.387,1.517-1.175,2.788-2.44,3.733
		c-2.203,1.648-5.543,1.666-7.576-0.774c-0.134-0.161-0.266-0.322-0.449-0.546c0,0.196,0,0.309,0,0.421c0,1.462,0,2.925,0.003,4.386
		c0,0.48-0.092,0.928-0.421,1.303c-0.233,0.266-0.555,0.37-0.859,0.509C43.479,18.859,43.271,18.859,43.066,18.859z M48.812,11.933
		c1.147-0.002,2.211-0.485,2.862-1.421c1.25-1.792,1.335-3.729,0.377-5.64c-1.314-2.625-4.739-2.786-6.359-0.333
		c-0.974,1.473-1.055,3.085-0.487,4.724C45.771,10.898,47.207,11.933,48.812,11.933z"/>
	<path fill-rule="evenodd" clip-rule="evenodd" fill="#5AB402" d="M23.699,9.802c-0.733-0.256-1.243-0.73-1.343-1.524
		c-0.107-0.849,0.23-1.518,0.964-1.964c1.559-0.949,3.124-1.888,4.681-2.84c1.551-0.951,3.116-1.882,4.654-2.855
		C33.044,0.372,33.446,0.159,33.877,0c0.183,0,0.366,0,0.549,0c0.158,0.131,0.366,0.148,0.544,0.237
		c0.44,0.219,0.734,0.561,0.862,1.011c0.245,0.865,0.582,1.699,0.854,2.554c0.477,1.497,0.988,2.983,1.483,4.474
		c0.405,1.22,0.812,2.439,1.21,3.661c0.147,0.45,0.209,0.914,0.004,1.359c-0.489,1.062-1.411,1.554-2.677,1.089
		c-0.051-0.02-0.102-0.039-0.153-0.06c0.004-0.136-0.109-0.193-0.191-0.266c-1.305-1.176-2.615-2.344-3.917-3.521
		c-0.781-0.708-1.691-1.051-2.741-1.005C27.704,9.62,25.701,9.712,23.699,9.802z"/>
	<path fill-rule="evenodd" clip-rule="evenodd" fill="#03356B" d="M23.699,9.802c2.002-0.09,4.005-0.182,6.007-0.269
		c1.05-0.046,1.96,0.297,2.741,1.005c1.301,1.178,2.612,2.346,3.917,3.521c0.082,0.072,0.195,0.13,0.191,0.266
		c-0.874-0.469-1.672-1.06-2.509-1.587c-0.753-0.474-1.493-0.967-2.236-1.457c-0.876-0.578-1.863-0.759-2.885-0.854
		c-1.579-0.147-3.156-0.32-4.733-0.49C24.024,9.92,23.863,9.849,23.699,9.802z"/>
	<path fill-rule="evenodd" clip-rule="evenodd" fill="#03356B" d="M78.766,10.703c0.359-1.006,0.71-1.979,1.056-2.954
		c0.744-2.082,1.484-4.164,2.229-6.246c0.085-0.237,0.183-0.467,0.323-0.677c0.393-0.592,1.024-0.81,1.67-0.573
		c0.632,0.231,1.038,0.908,0.969,1.571c-0.056,0.521-0.272,0.985-0.46,1.461c-1.554,3.932-3.107,7.862-4.663,11.791
		c-0.243,0.616-0.54,1.205-0.891,1.77c-0.938,1.518-2.324,2.08-4.054,1.927c-0.572-0.052-1.126-0.182-1.654-0.404
		c-0.672-0.282-1.003-0.899-0.862-1.606c0.149-0.76,0.875-1.18,1.646-0.955c0.241,0.07,0.482,0.143,0.728,0.188
		c0.953,0.176,1.567-0.117,2.088-0.928c0.318-0.496,0.377-0.931,0.125-1.51c-1.574-3.614-3.102-7.249-4.646-10.875
		c-0.206-0.483-0.34-0.974-0.159-1.494c0.206-0.596,0.628-0.941,1.253-1.012c0.601-0.068,1.078,0.153,1.391,0.677
		c0.323,0.542,0.491,1.151,0.717,1.735c1.007,2.603,2.004,5.21,3.004,7.815C78.609,10.497,78.625,10.601,78.766,10.703z"/>
</g>
</svg>
