<?xml version="1.0" encoding="utf-8"?>
<!-- Generator: Adobe Illustrator 16.0.0, SVG Export Plug-In . SVG Version: 6.00 Build 0)  -->
<!DOCTYPE svg PUBLIC "-//W3C//DTD SVG 1.1//EN" "http://www.w3.org/Graphics/SVG/1.1/DTD/svg11.dtd">
<svg version="1.1" id="Calque_1" xmlns="http://www.w3.org/2000/svg" xmlns:xlink="http://www.w3.org/1999/xlink" x="0px" y="0px"
	 width="319.426px" height="31.917px" viewBox="16.325 10.106 319.426 31.917"
	 enable-background="new 16.325 10.106 319.426 31.917" xml:space="preserve">
<path fill="#D93832" d="M16.325,28.302c0-6.319,3.799-10.878,10.438-10.878c6.639,0,10.438,4.559,10.438,10.878
	c0,6.359-3.8,10.917-10.438,10.917C20.124,39.219,16.325,34.661,16.325,28.302 M32.642,28.302c0-3.559-1.8-7.279-5.879-7.279
	s-5.88,3.72-5.88,7.279c0,3.6,1.801,7.319,5.88,7.319S32.642,31.901,32.642,28.302"/>
<path fill="#D93832" d="M58.761,38.66h-4.479v-2.88h-0.08c-1.12,2.08-3.6,3.439-5.879,3.439c-5.399,0-7.719-2.719-7.719-8.119
	V17.984h4.559v12.678c0,3.64,1.48,4.959,3.959,4.959c3.8,0,5.08-2.438,5.08-5.64V17.984h4.56V38.66z"/>
<path fill="#D93832" d="M66.723,29.501c0,3.239,1.76,6.119,5.559,6.119c2.64,0,4.239-1.16,5.039-3.438h4.319
	c-1,4.518-4.84,7.036-9.358,7.036c-6.479,0-10.118-4.519-10.118-10.877c0-5.879,3.839-10.918,9.998-10.918
	c6.52,0,10.519,5.879,9.758,12.078L66.723,29.501L66.723,29.501z M77.361,26.501c-0.16-2.879-2.12-5.479-5.199-5.479
	c-3.159,0-5.319,2.4-5.438,5.479H77.361z"/>
<path fill="#D93832" d="M88.443,32.021c0.24,2.642,2.24,3.602,4.679,3.602c1.72,0,4.719-0.361,4.601-2.721
	c-0.12-2.399-3.44-2.68-6.76-3.439c-3.359-0.719-6.639-1.919-6.639-6.118c0-4.52,4.879-5.92,8.639-5.92
	c4.239,0,8.078,1.761,8.639,6.359h-4.76c-0.399-2.159-2.199-2.76-4.199-2.76c-1.319,0-3.76,0.321-3.76,2.121
	c0,2.239,3.359,2.559,6.72,3.319c3.319,0.76,6.679,1.959,6.679,6.038c0,4.919-4.959,6.719-9.238,6.719
	c-5.2,0-9.079-2.318-9.159-7.197h4.56V32.021z"/>
<path fill="#D93832" d="M103.284,17.984h3.439v-6.199h4.56v6.199h4.119v3.399h-4.119v11.039c0,1.879,0.16,2.839,2.199,2.839
	c0.64,0,1.28,0,1.92-0.158v3.519c-1,0.08-1.96,0.239-2.959,0.239c-4.76,0-5.639-1.838-5.72-5.278V21.383h-3.439V17.984z"/>
<path fill="#D93832" d="M116.243,17.984h3.399v-1.72c0-5.279,2.76-6.158,5.72-6.158c1.438,0,2.479,0.079,3.199,0.279v3.559
	c-0.601-0.159-1.2-0.239-2.12-0.239c-1.24,0-2.24,0.439-2.24,2.159v2.12h3.88v3.399h-3.88V38.66h-4.559V21.383h-3.399V17.984
	L116.243,17.984z"/>
<path fill="#D93832" d="M130.482,17.984h4.279v3.999h0.079c0.521-2.199,3.24-4.559,6.039-4.559c1.04,0,1.32,0.081,1.721,0.12v4.399
	c-0.641-0.08-1.32-0.2-1.959-0.2c-3.12,0-5.6,2.52-5.6,7.079v9.838h-4.56V17.984L130.482,17.984z"/>
<path fill="#D93832" d="M161.48,34.062c0,1.119,0.239,1.56,1.079,1.56c0.279,0,0.64,0,1.12-0.08V38.7
	c-0.681,0.24-2.119,0.52-2.881,0.52c-1.839,0-3.158-0.64-3.519-2.52c-1.799,1.76-4.719,2.52-7.159,2.52
	c-3.719,0-7.078-1.998-7.078-6.037c0-5.16,4.119-6,7.958-6.439c3.28-0.599,6.199-0.24,6.199-2.919c0-2.359-2.438-2.8-4.279-2.8
	c-2.56,0-4.358,1.041-4.559,3.28h-4.561c0.32-5.319,4.841-6.879,9.399-6.879c4.039,0,8.279,1.64,8.279,5.999V34.062L161.48,34.062z
	 M156.92,28.302c-1.398,0.92-3.599,0.879-5.599,1.24c-1.96,0.32-3.719,1.04-3.719,3.439c0,2.041,2.599,2.64,4.198,2.64
	c2,0,5.119-1.04,5.119-3.92V28.302L156.92,28.302z"/>
<path fill="#D93832" d="M166.002,17.984h4.319v3.039l0.08,0.08c1.36-2.28,3.72-3.679,6.438-3.679c4.48,0,7.32,2.399,7.32,7.039
	V38.66h-4.56V25.662c-0.08-3.239-1.359-4.639-4.04-4.639c-3.04,0-4.999,2.4-4.999,5.44V38.66h-4.561L166.002,17.984L166.002,17.984z
	"/>
<path fill="#D93832" d="M202.521,24.902c-0.36-2.52-2.2-3.879-4.722-3.879c-2.357,0-5.678,1.24-5.678,7.519
	c0,3.439,1.521,7.079,5.479,7.079c2.64,0,4.479-1.761,4.92-4.72h4.559c-0.84,5.358-4.16,8.317-9.479,8.317
	c-6.479,0-10.038-4.599-10.038-10.677c0-6.24,3.397-11.119,10.197-11.119c4.801,0,8.88,2.4,9.318,7.479H202.521z"/>
<path fill="#D93832" d="M213.961,29.501c0,3.239,1.762,6.119,5.561,6.119c2.64,0,4.238-1.16,5.039-3.438h4.317
	c-1,4.518-4.839,7.036-9.356,7.036c-6.479,0-10.118-4.519-10.118-10.877c0-5.879,3.84-10.918,9.998-10.918
	c6.519,0,10.518,5.879,9.759,12.078L213.961,29.501L213.961,29.501z M224.6,26.501c-0.16-2.879-2.119-5.479-5.199-5.479
	c-3.159,0-5.319,2.4-5.439,5.479H224.6z"/>
<rect x="231.802" y="25.623" fill="#454649" width="11.64" height="4.319"/>
<path fill="#454649" d="M264.719,34.062c0,1.119,0.239,1.56,1.079,1.56c0.281,0,0.641,0,1.121-0.08V38.7
	c-0.682,0.24-2.121,0.52-2.881,0.52c-1.84,0-3.158-0.64-3.521-2.52c-1.798,1.76-4.719,2.52-7.157,2.52
	c-3.72,0-7.078-1.998-7.078-6.037c0-5.16,4.119-6,7.957-6.439c3.28-0.599,6.198-0.24,6.198-2.919c0-2.359-2.438-2.8-4.278-2.8
	c-2.56,0-4.359,1.041-4.56,3.28h-4.559c0.319-5.319,4.838-6.879,9.397-6.879c4.039,0,8.277,1.64,8.277,5.999v10.638H264.719z
	 M260.16,28.302c-1.399,0.92-3.601,0.879-5.601,1.24c-1.959,0.32-3.719,1.04-3.719,3.439c0,2.041,2.6,2.64,4.199,2.64
	c2,0,5.119-1.04,5.119-3.92L260.16,28.302L260.16,28.302z"/>
<path fill="#454649" d="M287.398,38.66h-4.479v-2.88h-0.08c-1.118,2.08-3.599,3.439-5.879,3.439c-5.396,0-7.718-2.719-7.718-8.119
	V17.984h4.559v12.678c0,3.64,1.48,4.959,3.961,4.959c3.8,0,5.077-2.438,5.077-5.64V17.984h4.561L287.398,38.66L287.398,38.66z"/>
<path fill="#454649" d="M289.723,17.984h3.438v-6.199h4.561v6.199h4.119v3.399h-4.119v11.039c0,1.879,0.159,2.839,2.198,2.839
	c0.642,0,1.279,0,1.921-0.158v3.519c-1,0.08-1.959,0.239-2.959,0.239c-4.762,0-5.642-1.838-5.721-5.278V21.383h-3.438V17.984
	L289.723,17.984z"/>
<path fill="#454649" d="M303.762,28.302c0-6.319,3.798-10.878,10.438-10.878s10.439,4.559,10.439,10.878
	c0,6.359-3.801,10.917-10.439,10.917C307.56,39.219,303.762,34.661,303.762,28.302 M320.078,28.302c0-3.559-1.8-7.279-5.879-7.279
	c-4.078,0-5.88,3.72-5.88,7.279c0,3.6,1.802,7.319,5.88,7.319C318.278,35.621,320.078,31.901,320.078,28.302"/>
<rect x="334.024" y="40.413" fill="#454649" width="1.563" height="1.609"/>
<path fill="#454649" d="M331.604,34.981c-0.729,0.104-1.124,0.638-1.124,1.365c0,0.685,0.358,1.646,2.178,1.646
	c0.995,0,2.05-0.44,2.05-1.587c0-0.764-0.51-1.297-1.367-1.424v-1.319c1.553,0.241,2.41,1.203,2.41,2.743
	c0,1.877-1.334,2.906-3.093,2.906c-1.807,0-3.22-0.982-3.22-2.953c0-1.39,0.694-2.568,2.166-2.696V34.981L331.604,34.981z"/>
<path fill="#454649" d="M332.59,32.978c-1.83,0-3.15-1.102-3.15-3.023s1.32-3.021,3.15-3.021c1.841,0,3.161,1.099,3.161,3.021
	S334.43,32.978,332.59,32.978 M332.59,28.251c-1.031,0-2.108,0.521-2.108,1.702c0,1.182,1.077,1.702,2.108,1.702
	c1.042,0,2.118-0.521,2.118-1.702S333.632,28.251,332.59,28.251"/>
<path fill="#454649" d="M329.601,25.947v-1.251h0.834v-0.035c-0.591-0.393-0.996-0.891-0.996-1.841c0-0.729,0.313-1.413,0.996-1.679
	c-0.613-0.44-0.996-1.007-0.996-1.876c0-1.262,0.556-2.004,2.015-2.004h4.135v1.321h-3.497c-0.949,0-1.609,0.058-1.609,1.088
	c0,0.892,0.591,1.275,1.599,1.275h3.509v1.319h-3.845c-0.822,0-1.263,0.255-1.263,1.054c0,0.684,0.557,1.309,1.552,1.309h3.556v1.32
	H329.601z"/>
</svg>
