<?xml version="1.0" encoding="utf-8"?>
<!-- Generator: Adobe Illustrator 16.0.0, SVG Export Plug-In . SVG Version: 6.00 Build 0)  -->
<!DOCTYPE svg PUBLIC "-//W3C//DTD SVG 1.1//EN" "http://www.w3.org/Graphics/SVG/1.1/DTD/svg11.dtd">
<svg version="1.1" id="Calque_1" xmlns="http://www.w3.org/2000/svg" xmlns:xlink="http://www.w3.org/1999/xlink" x="0px" y="0px"
	 width="535.081px" height="109.599px" viewBox="15.96 227.267 535.081 109.599"
	 enable-background="new 15.96 227.267 535.081 109.599" xml:space="preserve">
<g>
	<title>Layer 1</title>
	<g id="svg_3">
		<path id="svg_4" fill="#010101" d="M67.687,334.373c-1.567-1.496-2.494-3.563-2.494-5.771c0-0.499,0-0.998,0-1.496
			c0-0.998,0-1.995,0-2.922c0-5.414,0-10.758,0-16.174c0-15.033,0-30.066,0-45.171c0-0.784,0-1.567,0-2.351
			c0-0.57,0.071-1.14,0.214-1.71c0.356-1.567,1.141-2.993,2.28-4.062c1.567-1.496,3.776-2.494,6.127-2.494c1.426,0,2.851,0,4.347,0
			c46.882,0,437.185,0,460.127,0c0.997,0,1.995,0,2.992,0c0.927,0,1.781,0,2.708,0.143c1.71,0.285,3.349,1.14,4.56,2.351
			c1.14,1.069,1.924,2.494,2.28,4.062c0.143,0.57,0.214,1.14,0.214,1.71c0,0.784,0,1.567,0,2.351c0,15.034,0,30.068,0,45.171
			c0,5.416,0,10.76,0,16.174c0,1.496,0,2.922,0,4.418c0,2.279-0.927,4.275-2.494,5.771c-0.713,0.641-1.496,1.211-2.352,1.639
			c-1.14,0.498-2.422,0.854-3.775,0.854c-1.354,0-2.708,0-4.062,0c-22.871,0-413.245,0-460.127,0c-1.425,0-2.85,0-4.347,0
			C71.463,336.866,69.254,335.939,67.687,334.373z"/>
		<g id="svg_16">
			<g id="svg_17">
				<path id="svg_18" fill="#FFFFFF" d="M351.615,278.727c-1.354,0-2.423,1.069-2.423,2.351v7.908
					c0,10.118-3.918,17.029-11.114,19.451c-1.71,0.57-3.563,0.855-5.558,0.855c-6.555,0-13.324-3.349-17.599-8.764
					c-0.499-0.57-1.14-0.926-1.924-0.926c-0.57,0-1.068,0.213-1.496,0.498c-0.499,0.356-0.855,0.926-0.927,1.568
					c-0.07,0.641,0.071,1.281,0.499,1.781c3.42,4.274,8.122,7.552,13.253,9.262c5.13,1.71,10.615,1.781,15.247,0.214
					c9.12-3.063,14.393-11.757,14.393-23.868v-7.909C354.037,279.796,352.897,278.727,351.615,278.727z M151.761,278.727h-13.68
					c-1.283,0-2.423,1.069-2.423,2.351v29.996c0,1.282,1.14,2.352,2.423,2.352c1.354,0,2.422-1.069,2.422-2.352v-5.843h10.402
					c9.12,0,16.815-4.56,16.815-13.395v-0.143C167.792,283.643,161.45,278.727,151.761,278.727z M162.947,292.051
					c0,5.414-4.702,9.049-11.756,9.049h-10.616v-18.026h10.83c6.911,0,11.542,3.063,11.542,8.906V292.051L162.947,292.051z
					 M186.602,282.432c-4.062,0-7.196,0.784-10.331,2.066c-0.57,0.214-1.283,0.926-1.283,1.853c0,1.069,0.998,1.924,2.066,1.924
					c0.214,0,0.57-0.071,0.855-0.143c2.351-0.997,4.987-1.71,8.193-1.71c5.914,0,9.405,2.779,9.405,8.266v1.068
					c-2.851-0.784-5.7-1.283-9.762-1.283c-8.051,0-13.537,3.42-13.537,9.762v0.143c0,6.198,5.914,9.404,11.827,9.404
					c5.558,0,9.263-2.422,11.472-5.201v2.779c0,1.14,0.926,2.137,2.279,2.137c1.283,0,2.28-0.926,2.28-2.208v-16.601
					c0-3.848-1.068-6.77-3.277-8.836C194.51,283.572,191.019,282.432,186.602,282.432z M195.579,302.025
					c0,4.773-4.774,8.193-10.616,8.193c-4.275,0-7.98-2.279-7.98-6.056v-0.071c0-3.848,3.277-6.27,9.263-6.27
					c3.848,0,6.982,0.641,9.334,1.282V302.025L195.579,302.025z M237.26,282.574c-1.354,0-2.352,1.069-2.352,2.28v3.42
					c-2.564-3.277-6.412-6.127-12.397-6.127c-7.552,0-14.891,5.416-14.891,14.322v0.142c0,8.764,7.268,14.179,14.891,14.179
					c5.843,0,9.69-2.921,12.469-6.412v3.563c0,7.125-4.56,10.758-11.542,10.758c-4.133,0-7.909-1.14-11.187-3.277
					c-0.285-0.143-0.642-0.285-0.997-0.285c-1.141,0-2.138,0.998-2.138,1.996c0,0.854,0.499,1.496,1.211,1.852
					c3.99,2.352,8.407,3.563,13.253,3.563c4.987,0,9.262-1.354,12.041-4.061c2.564-2.423,4.061-6.057,4.061-10.688v-23.014
					C239.611,283.643,238.614,282.574,237.26,282.574z M235.122,296.539c0,6.127-5.629,10.26-11.685,10.26
					c-5.843,0-10.973-4.203-10.973-10.33v-0.143c0-6.199,4.987-10.189,10.973-10.189c5.984,0,11.685,4.062,11.685,10.26V296.539
					L235.122,296.539z M480.219,282.361c-8.764,0-15.176,7.053-15.176,15.747v0.142c0,9.334,7.125,15.746,15.817,15.746
					c5.415,0,8.978-1.781,11.97-4.56c0.499-0.428,0.784-0.926,0.784-1.496c0-1.068-0.927-1.924-2.066-1.924
					c-0.57,0-0.998,0.213-1.354,0.498c-2.351,2.066-5.201,3.492-9.119,3.492c-5.629,0-10.474-3.705-11.187-10.26h22.942
					c1.14,0,2.209-0.855,2.209-2.139C494.968,289.628,489.624,282.361,480.219,282.361z M469.817,296.469
					c0.57-5.914,4.773-10.332,10.26-10.332c6.271,0,9.619,4.846,10.118,10.332H469.817L469.817,296.469z M446.589,282.361
					c-5.485,0-8.763,2.636-10.829,5.914v-3.277c0-1.283-1.069-2.28-2.423-2.28c-1.282,0-2.352,1.069-2.352,2.28v26.291
					c0,1.282,1.069,2.28,2.423,2.28s2.352-0.998,2.352-2.28v-15.39c0-5.7,4.061-9.477,9.476-9.477c5.558,0,8.764,3.491,8.764,9.12
					v15.675c0,1.282,1.069,2.279,2.423,2.279c1.282,0,2.351-0.997,2.351-2.279v-16.744
					C458.702,287.205,454.213,282.361,446.589,282.361z M514.277,295.969c-4.204-1.211-8.123-2.351-8.123-5.201v-0.143
					c0-2.493,2.423-4.417,6.128-4.417c2.707,0,5.558,0.854,8.265,2.352c0.214,0.143,0.642,0.214,0.997,0.214
					c1.141,0,2.066-0.855,2.066-1.924c0-0.855-0.569-1.496-1.14-1.924c-3.063-1.567-6.769-2.565-10.117-2.565
					c-6.271,0-10.759,3.42-10.759,8.692v0.143c0,5.558,5.486,7.196,10.474,8.551c4.204,1.14,7.908,2.279,7.908,5.344v0.142
					c0,2.921-2.707,4.774-6.555,4.774c-3.42,0-6.84-1.141-10.046-3.207c-0.285-0.213-0.713-0.355-1.14-0.355
					c-1.141,0-2.066,0.854-2.066,1.924c0,0.783,0.427,1.354,0.854,1.639c3.491,2.351,8.052,3.848,12.184,3.848
					c6.342,0,11.258-3.35,11.258-9.121v-0.143C524.394,299.176,519.121,297.395,514.277,295.969z M295.613,295.826
					c-4.203-1.211-8.122-2.351-8.122-5.201v-0.143c0-2.493,2.352-4.417,6.127-4.417c2.708,0,5.558,0.855,8.265,2.352
					c0.214,0.143,0.642,0.214,1.069,0.214c1.14,0,2.066-0.855,2.066-1.924c0-0.855-0.57-1.496-1.141-1.853
					c-3.063-1.567-6.769-2.565-10.117-2.565c-6.27,0-10.759,3.419-10.759,8.621v0.143c0,5.558,5.486,7.196,10.474,8.551
					c4.204,1.14,7.909,2.279,7.909,5.344v0.143c0,2.92-2.779,4.773-6.555,4.773c-3.42,0-6.769-1.141-10.047-3.207
					c-0.284-0.213-0.712-0.355-1.14-0.355c-1.14,0-2.138,0.926-2.138,1.924c0,0.783,0.428,1.354,0.855,1.639
					c3.42,2.351,8.051,3.848,12.184,3.848c6.27,0,11.257-3.35,11.257-9.049v-0.143C305.73,299.104,300.529,297.252,295.613,295.826z
					 M262.197,282.218c-8.764,0-15.247,7.053-15.247,15.747v0.143c0,9.333,7.125,15.746,15.817,15.746
					c5.415,0,8.978-1.781,11.97-4.561c0.499-0.428,0.713-0.926,0.713-1.496c0-1.068-0.927-1.924-2.066-1.924
					c-0.57,0-0.997,0.214-1.354,0.498c-2.352,2.066-5.201,3.492-9.12,3.492c-5.629,0-10.474-3.705-11.187-10.26h22.942
					c1.141,0,2.209-0.927,2.209-2.139C276.874,289.557,271.602,282.218,262.197,282.218z M251.794,296.326
					c0.642-5.914,4.774-10.332,10.331-10.332c6.342,0,9.619,4.846,10.118,10.332H251.794L251.794,296.326z M373.203,282.574
					c-4.062,0-7.196,0.784-10.332,2.066c-0.641,0.214-1.282,0.926-1.282,1.853c0,1.069,0.998,1.924,2.066,1.924
					c0.214,0,0.57-0.071,0.855-0.143c2.351-0.997,5.059-1.71,8.193-1.71c5.913,0,9.404,2.779,9.404,8.265v1.069
					c-2.778-0.784-5.699-1.283-9.761-1.283c-8.051,0-13.537,3.42-13.537,9.762v0.143c0,6.198,5.984,9.404,11.827,9.404
					c5.558,0,9.263-2.422,11.471-5.201v2.779c0,1.14,0.927,2.137,2.28,2.137c1.282,0,2.28-0.926,2.28-2.209v-16.601
					c0-3.847-1.141-6.769-3.277-8.835C381.112,283.714,377.692,282.574,373.203,282.574z M382.18,302.168
					c0,4.773-4.773,8.193-10.615,8.193c-4.275,0-7.98-2.209-7.98-6.056v-0.143c0-3.776,3.349-6.271,9.263-6.271
					c3.848,0,6.982,0.642,9.333,1.283V302.168L382.18,302.168z M419.8,282.646c-1.354,0-2.352,0.998-2.352,2.28v15.318
					c0,5.7-4.061,9.477-9.476,9.477c-5.558,0-8.764-3.492-8.764-9.12v-15.675c0-1.283-1.069-2.28-2.423-2.28
					s-2.352,0.998-2.352,2.28v16.814c0,7.196,4.489,12.113,12.112,12.113c5.486,0,8.693-2.637,10.83-5.914v3.277
					c0,1.282,1.069,2.279,2.352,2.279c1.354,0,2.352-1.068,2.352-2.279v-26.291C422.151,283.714,421.082,282.646,419.8,282.646z"/>
			</g>
		</g>
		<path id="svg_19" fill="#FDEB03" d="M107.943,229.708c-1.282-1.211-2.921-1.995-4.631-2.28c-0.642-0.143-1.212-0.143-1.853-0.143
			c-3.776,0-7.553,0-11.4,0c-12.112,0-24.153,0-36.266,0c-8.764,0-16.886,0-25.649,0c-1.283,0-2.637-0.071-3.99,0.071
			c-0.998,0.071-2.494,0.427-3.349,0.784c-0.855,0.427-1.639,0.926-2.352,1.567c-0.926,0.926-1.639,1.995-2.066,3.206
			c-0.355,1.069-0.427,2.138-0.427,3.278c0,1.354,0,2.708,0,4.061c0,2.351,0,4.703,0,7.054c0,8.479,0,17.028,0,25.507
			c0,6.626,0,13.252,0,19.878c0,3.777,0,7.339,0,11.115c0,0.071,0,0.214,0,0.214c0,0.642,0.143,1.282,0.284,1.853
			c0.428,1.425,1.212,2.707,2.28,3.775c0.642,0.643,1.425,1.212,2.352,1.568c0.854,0.428,0.854,0.428,2.778,0.783
			c1.282,0.285,2.637,0.285,3.99,0.285c8.764,0,17.456,0,26.22,0c12.112,0,24.153,0,36.266,0c3.776,0,7.553,0,11.4,0
			c0.641,0,1.282-0.071,1.852-0.143c1.711-0.285,3.35-1.068,4.632-2.279c1.068-0.998,1.853-2.28,2.28-3.776
			c0.142-0.57,0.284-1.212,0.284-1.853c0-0.071,0-0.143,0-0.214c0-3.776,0-7.552,0-11.329c0-6.626,0-13.252,0-19.878
			c0-8.479,0-17.029,0-25.507c0-2.351,0-4.703,0-7.054c0-1.354,0-2.708,0-4.061c0-1.14-0.071-2.209-0.427-3.278
			C109.581,231.703,108.868,230.634,107.943,229.708z"/>
		<g id="svg_20">
			<g id="svg_21">
				<path id="svg_22" fill="#010101" d="M39.543,262.981c2.637,0,4.773-1.853,4.773-4.061v-4.489c0-2.28-2.137-4.062-4.773-4.062
					c-2.636,0-4.773,1.853-4.773,4.062v4.489C34.841,261.2,36.907,262.981,39.543,262.981z M87.566,250.37
					c-2.209,0-3.919,1.781-3.919,3.919v10.188c0,12.611-4.773,21.232-13.466,24.154c-9.405,3.206-21.304-0.998-28.286-9.904
					c-1.354-1.71-3.848-1.995-5.558-0.712c-1.71,1.354-2.066,3.847-0.713,5.557c4.347,5.629,10.474,9.975,17.171,12.254
					c3.491,1.212,7.125,1.781,10.688,1.781c3.207,0,6.342-0.498,9.191-1.496c11.898-4.061,18.81-15.603,18.81-31.634V254.36
					C91.484,252.151,89.774,250.37,87.566,250.37z"/>
			</g>
		</g>
	</g>
</g>
</svg>
