<?xml version="1.0" encoding="utf-8"?>
<!-- Generator: Adobe Illustrator 16.0.0, SVG Export Plug-In . SVG Version: 6.00 Build 0)  -->
<!DOCTYPE svg PUBLIC "-//W3C//DTD SVG 1.1//EN" "http://www.w3.org/Graphics/SVG/1.1/DTD/svg11.dtd">
<svg version="1.1" id="Calque_1" xmlns="http://www.w3.org/2000/svg" xmlns:xlink="http://www.w3.org/1999/xlink" x="0px" y="0px"
	 width="505.37px" height="86.568px" viewBox="30.637 240.538 505.37 86.568" enable-background="new 30.637 240.538 505.37 86.568"
	 xml:space="preserve">
<g id="Logo_7_">
	<g>
		
			<linearGradient id="SVGID_1_" gradientUnits="userSpaceOnUse" x1="523.9875" y1="245.8999" x2="528.9885" y2="303.0597" gradientTransform="matrix(0.7125 0 0 -0.7125 -14.1453 476.1545)">
			<stop  offset="0" style="stop-color:#BD9E55"/>
			<stop  offset="1" style="stop-color:#E2C675"/>
		</linearGradient>
		<path fill="url(#SVGID_1_)" d="M371.565,299.889c-0.784,0-1.426-0.215-1.924-0.713c-0.499-0.428-0.713-1.068-0.713-1.924v-21.589
			c0-2.208-0.713-4.132-2.066-5.771s-3.42-2.494-6.198-2.494c-2.779,0-4.845,0.855-6.199,2.494
			c-1.354,1.639-2.066,3.563-2.066,5.771v21.589c0,0.783-0.213,1.425-0.712,1.924c-0.428,0.428-1.069,0.713-1.924,0.713h-2.565
			c-0.783,0-1.425-0.215-1.923-0.713c-0.428-0.428-0.713-1.068-0.713-1.924v-21.589c0-2.066,0.356-4.061,1.14-5.985
			c0.784-1.923,1.853-3.563,3.206-4.987c1.354-1.425,3.064-2.565,4.988-3.349c1.994-0.855,4.132-1.283,6.555-1.283
			c2.422,0,4.631,0.428,6.555,1.283c1.995,0.855,3.634,1.995,4.987,3.349c1.354,1.425,2.494,3.064,3.277,4.987
			c0.784,1.924,1.141,3.919,1.141,5.985v21.589c0,0.783-0.214,1.425-0.713,1.924c-0.428,0.428-1.068,0.713-1.924,0.713H371.565z"/>
		
			<linearGradient id="SVGID_2_" gradientUnits="userSpaceOnUse" x1="580.7043" y1="246.3989" x2="585.6688" y2="303.1422" gradientTransform="matrix(0.7125 0 0 -0.7125 -14.1453 476.1545)">
			<stop  offset="0" style="stop-color:#BD9E55"/>
			<stop  offset="1" style="stop-color:#E2C675"/>
		</linearGradient>
		<path fill="url(#SVGID_2_)" d="M415.24,291.409c0.499,0.499,0.784,1.069,0.713,1.71c0,0.642-0.285,1.211-0.713,1.853
			c-1.14,1.425-2.85,2.778-5.13,3.99c-2.279,1.211-4.916,1.853-8.051,1.853c-2.423,0-4.631-0.356-6.555-1.141
			c-1.924-0.783-3.563-1.852-4.987-3.205c-1.354-1.354-2.423-2.993-3.207-4.846c-0.783-1.853-1.14-3.776-1.14-5.914v-10.331
			c0-2.066,0.356-4.062,0.998-5.914c0.641-1.853,1.639-3.491,2.921-4.917c1.282-1.354,2.85-2.494,4.773-3.277
			c1.853-0.784,3.99-1.211,6.412-1.211c2.423,0,4.561,0.428,6.484,1.211s3.563,1.924,4.916,3.277
			c1.354,1.354,2.423,2.993,3.135,4.917c0.713,1.852,1.069,3.847,1.069,5.914v5.201c0,0.784-0.214,1.425-0.713,1.924
			c-0.428,0.427-1.068,0.712-1.924,0.712h-19.451c-0.569,0-0.854,0.285-0.854,0.854v1.568c0,2.208,0.641,4.061,1.924,5.557
			c1.282,1.496,3.349,2.28,6.127,2.28c2.209,0,3.919-0.356,5.13-1.14c1.211-0.784,2.138-1.496,2.779-2.209
			c0.641-0.641,1.282-0.926,1.923-0.926c0.642,0,1.212,0.285,1.71,0.854L415.24,291.409z M409.184,275.378
			c0-2.209-0.57-4.062-1.853-5.629c-1.211-1.567-3.206-2.351-5.985-2.351c-2.707,0-4.631,0.784-5.699,2.351
			c-1.069,1.567-1.639,3.42-1.639,5.629v0.427c0,0.57,0.284,0.855,0.854,0.855h13.395c0.57,0,0.855-0.285,0.855-0.855v-0.427
			H409.184z"/>
		
			<linearGradient id="SVGID_3_" gradientUnits="userSpaceOnUse" x1="637.3635" y1="246.3765" x2="642.3618" y2="303.5075" gradientTransform="matrix(0.7125 0 0 -0.7125 -14.1453 476.1545)">
			<stop  offset="0" style="stop-color:#BD9E55"/>
			<stop  offset="1" style="stop-color:#E2C675"/>
		</linearGradient>
		<path fill="url(#SVGID_3_)" d="M450.223,263.551c0-0.784,0.214-1.425,0.713-1.924c0.428-0.427,1.068-0.712,1.924-0.712h2.564
			c0.784,0,1.426,0.214,1.924,0.712c0.428,0.428,0.713,1.069,0.713,1.924v21.589c0,2.065-0.356,4.062-1.14,5.985
			c-0.713,1.923-1.781,3.563-3.136,4.986c-1.354,1.426-2.992,2.565-4.916,3.35c-1.924,0.854-4.132,1.282-6.555,1.282
			s-4.631-0.428-6.555-1.282c-1.924-0.855-3.563-1.996-4.987-3.35c-1.354-1.424-2.423-3.063-3.207-4.986
			c-0.783-1.924-1.14-3.92-1.14-5.985v-21.589c0-0.784,0.214-1.425,0.713-1.924c0.427-0.427,1.068-0.712,1.924-0.712h2.564
			c0.784,0,1.425,0.214,1.924,0.712c0.428,0.428,0.713,1.069,0.713,1.924v21.589c0,2.208,0.641,4.132,1.923,5.771
			c1.283,1.639,3.35,2.494,6.128,2.494s4.773-0.855,6.056-2.494c1.283-1.639,1.924-3.563,1.924-5.771v-21.589H450.223z"/>
		
			<linearGradient id="SVGID_4_" gradientUnits="userSpaceOnUse" x1="691.9651" y1="247.5103" x2="696.8941" y2="303.8507" gradientTransform="matrix(0.7125 0 0 -0.7125 -14.1453 476.1545)">
			<stop  offset="0" style="stop-color:#BD9E55"/>
			<stop  offset="1" style="stop-color:#E2C675"/>
		</linearGradient>
		<path fill="url(#SVGID_4_)" d="M480.076,299.889c-0.783,0-1.425-0.143-1.924-0.428c-0.498-0.285-0.854-0.927-1.14-1.924
			l-11.827-34.129c-0.285-0.784-0.285-1.354,0.071-1.781c0.356-0.427,0.926-0.641,1.71-0.641h3.206c1.567,0,2.565,0.712,2.921,2.066
			l8.194,25.65c0.143,0.642,0.427,0.926,0.854,0.926s0.713-0.284,0.855-0.926l8.193-25.65c0.428-1.354,1.354-2.066,2.921-2.066
			h3.206c0.784,0,1.354,0.214,1.71,0.641c0.356,0.428,0.356,0.998,0.071,1.781l-11.756,34.129c-0.285,0.997-0.642,1.639-1.14,1.924
			c-0.499,0.285-1.141,0.428-1.924,0.428H480.076z"/>
		
			<linearGradient id="SVGID_5_" gradientUnits="userSpaceOnUse" x1="747.9026" y1="246.4019" x2="752.8671" y2="303.146" gradientTransform="matrix(0.7125 0 0 -0.7125 -14.1453 476.1545)">
			<stop  offset="0" style="stop-color:#BD9E55"/>
			<stop  offset="1" style="stop-color:#E2C675"/>
		</linearGradient>
		<path fill="url(#SVGID_5_)" d="M534.368,291.409c0.499,0.499,0.784,1.069,0.713,1.71c0,0.642-0.285,1.211-0.713,1.853
			c-1.14,1.425-2.85,2.778-5.13,3.99c-2.28,1.211-4.916,1.853-8.051,1.853c-2.423,0-4.632-0.356-6.555-1.141
			c-1.924-0.783-3.563-1.852-4.988-3.205c-1.354-1.354-2.422-2.993-3.206-4.846c-0.712-1.853-1.14-3.776-1.14-5.914v-10.331
			c0-2.066,0.356-4.062,0.997-5.914c0.642-1.853,1.639-3.491,2.922-4.917c1.282-1.354,2.85-2.494,4.773-3.277
			c1.853-0.784,3.99-1.211,6.412-1.211c2.423,0,4.561,0.428,6.483,1.211c1.924,0.784,3.563,1.924,4.917,3.277
			c1.354,1.354,2.422,2.993,3.135,4.917c0.712,1.852,1.068,3.847,1.068,5.914v5.201c0,0.784-0.214,1.425-0.712,1.924
			c-0.428,0.427-1.069,0.712-1.924,0.712H513.92c-0.57,0-0.855,0.285-0.855,0.854v1.568c0,2.208,0.642,4.061,1.924,5.557
			c1.283,1.496,3.349,2.28,6.128,2.28c2.208,0,3.919-0.356,5.13-1.14c1.211-0.784,2.138-1.496,2.778-2.209
			c0.642-0.641,1.282-0.926,1.924-0.926s1.212,0.285,1.71,0.854L534.368,291.409z M528.313,275.378c0-2.209-0.57-4.062-1.781-5.629
			c-1.212-1.567-3.207-2.351-5.985-2.351c-2.707,0-4.631,0.784-5.7,2.351c-1.068,1.567-1.639,3.42-1.639,5.629v0.427
			c0,0.57,0.285,0.855,0.855,0.855h13.395c0.57,0,0.855-0.285,0.855-0.855V275.378z"/>
	</g>
	<path fill="#B2B4B4" d="M137.155,310.789H32.204c-0.854,0-1.567-0.713-1.567-1.567s0.713-1.567,1.567-1.567h104.95
		c0.855,0,1.567,0.713,1.567,1.567S138.01,310.789,137.155,310.789z"/>
	<path fill="#B2B4B4" d="M301.598,327.105H65.193c-0.854,0-1.567-0.713-1.567-1.568c0-0.854,0.713-1.566,1.567-1.566h236.405
		c0.854,0,1.567,0.712,1.567,1.566C303.237,326.393,302.524,327.105,301.598,327.105z"/>
	<g>
		
			<linearGradient id="SVGID_6_" gradientUnits="userSpaceOnUse" x1="147.8987" y1="297.3242" x2="154.9723" y2="378.1758" gradientTransform="matrix(0.7125 0 0 -0.7125 -14.1453 476.1545)">
			<stop  offset="0" style="stop-color:#3C5051"/>
			<stop  offset="1" style="stop-color:#749194"/>
		</linearGradient>
		<path fill="url(#SVGID_6_)" d="M76.237,299.318c-0.784,0-1.425-0.214-1.924-0.713c-0.428-0.428-0.712-1.068-0.712-1.924v-53.508
			c0-0.784,0.213-1.425,0.712-1.924c0.428-0.428,1.069-0.712,1.924-0.712h18.169c2.279,0,4.488,0.427,6.555,1.354
			s3.848,2.209,5.344,3.776s2.707,3.42,3.563,5.557c0.926,2.138,1.354,4.275,1.354,6.626s-0.428,4.56-1.354,6.626
			c-0.927,2.066-2.066,3.919-3.563,5.486s-3.277,2.85-5.344,3.776s-4.275,1.354-6.555,1.354H82.72c-0.569,0-0.854,0.285-0.854,0.855
			v20.733c0,0.783-0.214,1.426-0.713,1.924c-0.498,0.428-1.068,0.713-1.924,0.713H76.237z M93.764,267.327
			c1.14,0,2.28-0.214,3.349-0.641c1.068-0.428,2.066-0.998,2.921-1.781c0.855-0.784,1.568-1.781,2.138-2.993
			c0.57-1.211,0.855-2.565,0.855-4.132s-0.285-2.921-0.855-4.132c-0.569-1.211-1.282-2.209-2.138-2.993
			c-0.854-0.784-1.853-1.425-2.921-1.781c-1.068-0.427-2.209-0.57-3.349-0.57H82.72c-0.569,0-0.854,0.285-0.854,0.855v17.313
			c0,0.57,0.285,0.855,0.854,0.855H93.764z"/>
		
			<linearGradient id="SVGID_7_" gradientUnits="userSpaceOnUse" x1="198.0803" y1="283.3159" x2="205.1219" y2="363.8019" gradientTransform="matrix(0.7125 0 0 -0.7125 -14.1453 476.1545)">
			<stop  offset="0" style="stop-color:#3C5051"/>
			<stop  offset="1" style="stop-color:#749194"/>
		</linearGradient>
		<path fill="url(#SVGID_7_)" d="M120.269,299.318c-0.784,0-1.425-0.214-1.924-0.713c-0.428-0.428-0.713-1.068-0.713-1.924v-21.944
			c0-4.204,1.212-7.624,3.634-10.26c2.423-2.636,5.771-3.99,10.117-3.99h3.136c0.783,0,1.425,0.214,1.924,0.712
			c0.427,0.499,0.712,1.069,0.712,1.924v2.137c0,0.784-0.214,1.425-0.712,1.924c-0.499,0.428-1.069,0.712-1.924,0.712h-2.565
			c-2.209,0-3.848,0.712-4.916,2.066c-1.068,1.354-1.567,3.135-1.567,5.344v21.588c0,0.784-0.214,1.425-0.713,1.924
			c-0.428,0.427-1.068,0.712-1.924,0.712h-2.564V299.318z"/>
		
			<linearGradient id="SVGID_8_" gradientUnits="userSpaceOnUse" x1="357.4241" y1="248.2339" x2="363.9531" y2="322.861" gradientTransform="matrix(0.7125 0 0 -0.7125 -14.1453 476.1545)">
			<stop  offset="0" style="stop-color:#3C5051"/>
			<stop  offset="1" style="stop-color:#749194"/>
		</linearGradient>
		<path fill="url(#SVGID_8_)" d="M262.696,299.318c-0.783,0-1.425-0.214-1.924-0.713c-0.428-0.428-0.712-1.068-0.712-1.924v-22.443
			c0-0.926-0.143-1.853-0.428-2.708s-0.713-1.639-1.282-2.351c-0.57-0.712-1.283-1.283-2.209-1.71
			c-0.927-0.428-1.995-0.642-3.206-0.642c-1.283,0-2.352,0.214-3.277,0.642c-0.927,0.427-1.639,0.998-2.209,1.71
			s-0.998,1.496-1.282,2.351c-0.285,0.855-0.356,1.781-0.356,2.708v22.515c0,0.784-0.214,1.425-0.713,1.924
			c-0.428,0.428-1.068,0.712-1.924,0.712h-2.564c-0.784,0-1.425-0.213-1.924-0.712c-0.428-0.428-0.713-1.069-0.713-1.924v-22.515
			c0-0.926-0.143-1.853-0.427-2.708c-0.285-0.855-0.713-1.639-1.283-2.351c-0.569-0.712-1.282-1.283-2.208-1.71
			c-0.927-0.428-1.924-0.642-3.136-0.642c-1.211,0-2.279,0.214-3.206,0.642c-0.926,0.427-1.639,0.998-2.28,1.71
			c-0.569,0.712-0.997,1.496-1.282,2.351s-0.428,1.781-0.428,2.708v22.515c0,0.784-0.213,1.425-0.712,1.924
			c-0.428,0.428-1.069,0.712-1.924,0.712h-2.565c-0.783,0-1.425-0.213-1.923-0.712c-0.428-0.428-0.713-1.069-0.713-1.924v-22.515
			c0-2.066,0.356-3.99,1.068-5.842c0.713-1.781,1.71-3.349,2.993-4.703c1.282-1.282,2.85-2.351,4.702-3.063
			c1.853-0.784,3.919-1.14,6.127-1.14c2.209,0,4.133,0.427,5.843,1.211c1.71,0.784,3.135,1.71,4.275,2.707
			c0.569,0.499,1.14,0.499,1.639,0c1.068-1.068,2.493-1.995,4.203-2.778s3.705-1.14,5.985-1.14s4.274,0.356,6.127,1.14
			s3.42,1.781,4.703,3.063c1.282,1.283,2.279,2.85,2.992,4.703s1.068,3.776,1.068,5.842v22.515c0,0.784-0.214,1.425-0.712,1.924
			c-0.428,0.428-1.069,0.712-1.924,0.712h-2.28V299.318z"/>
		<g>
			<g>
				
					<linearGradient id="SVGID_9_" gradientUnits="userSpaceOnUse" x1="445.4797" y1="221.4844" x2="452.7753" y2="304.8722" gradientTransform="matrix(0.7125 0 0 -0.7125 -14.1453 476.1545)">
					<stop  offset="0" style="stop-color:#3C5051"/>
					<stop  offset="1" style="stop-color:#749194"/>
				</linearGradient>
				<path fill="url(#SVGID_9_)" d="M315.634,316.489c-3.848,1.354-7.695,1.923-11.543,1.639c-3.848-0.285-7.48-1.212-10.829-2.851
					c-3.42-1.639-6.413-3.848-9.049-6.625c-2.637-2.779-4.632-6.128-5.985-9.976s-1.924-7.694-1.639-11.542
					s1.211-7.481,2.851-10.901c1.639-3.42,3.847-6.413,6.626-9.049c2.85-2.636,6.127-4.631,9.975-5.985s7.694-1.924,11.542-1.639
					s7.481,1.211,10.83,2.85c3.42,1.639,6.412,3.847,9.049,6.626c2.636,2.85,4.631,6.127,5.984,9.975
					c1.354,3.847,1.924,7.695,1.639,11.542c-0.284,3.848-1.211,7.48-2.85,10.83c-1.639,3.42-3.848,6.412-6.626,9.049
					C322.758,313.141,319.481,315.135,315.634,316.489z M313.069,309.364c2.85-0.997,5.201-2.493,7.268-4.417
					c1.995-1.924,3.563-4.133,4.702-6.556c1.141-2.423,1.71-5.13,1.853-7.979s-0.356-5.7-1.354-8.479
					c-0.998-2.85-2.423-5.272-4.347-7.41c-1.853-2.138-4.061-3.776-6.483-4.988c-2.422-1.211-5.059-1.923-7.837-2.137
					c-2.779-0.214-5.629,0.143-8.408,1.14c-2.85,0.997-5.271,2.494-7.267,4.417c-1.995,1.923-3.563,4.132-4.702,6.555
					c-1.141,2.422-1.781,5.13-1.853,7.979c-0.143,2.851,0.355,5.7,1.354,8.479c0.997,2.851,2.422,5.273,4.346,7.41
					c1.924,2.138,4.062,3.848,6.484,4.988c2.422,1.211,5.058,1.924,7.837,2.137C307.44,310.718,310.29,310.361,313.069,309.364z"/>
				
					<linearGradient id="SVGID_10_" gradientUnits="userSpaceOnUse" x1="440.2385" y1="218.5508" x2="448.8186" y2="316.6214" gradientTransform="matrix(0.7125 0 0 -0.7125 -14.1453 476.1545)">
					<stop  offset="0" style="stop-color:#3C5051"/>
					<stop  offset="1" style="stop-color:#749194"/>
				</linearGradient>
				<path fill="url(#SVGID_10_)" d="M305.373,304.163c-2.351,0-4.631-0.499-6.769-1.567c-3.633-1.71-6.412-4.846-7.694-8.479
					c-0.428-1.211,0.214-2.565,1.425-2.992c1.211-0.428,2.565,0.213,2.992,1.424c0.855,2.494,2.779,4.561,5.272,5.771
					c2.637,1.283,5.771,1.426,8.621,0.356c1.212-0.428,2.565,0.214,2.993,1.425c0.427,1.211-0.214,2.565-1.426,2.992
					C309.078,303.878,307.226,304.163,305.373,304.163z"/>
			</g>
		</g>
		<g>
			<g>
				
					<linearGradient id="SVGID_11_" gradientUnits="userSpaceOnUse" x1="266.2703" y1="266.5151" x2="273.5657" y2="349.9024" gradientTransform="matrix(0.7125 0 0 -0.7125 -14.1453 476.1545)">
					<stop  offset="0" style="stop-color:#3C5051"/>
					<stop  offset="1" style="stop-color:#749194"/>
				</linearGradient>
				<path fill="url(#SVGID_11_)" d="M185.177,316.489c-3.848,1.354-7.695,1.923-11.543,1.639c-3.848-0.285-7.481-1.212-10.901-2.851
					s-6.412-3.848-9.048-6.625c-2.637-2.779-4.632-6.128-5.985-9.976s-1.924-7.694-1.639-11.542s1.211-7.481,2.85-10.901
					s3.848-6.413,6.627-9.049c2.85-2.636,6.127-4.631,9.975-5.985s7.694-1.924,11.542-1.639s7.481,1.211,10.901,2.85
					s6.412,3.847,9.049,6.626c2.636,2.85,4.631,6.127,5.984,9.975c1.354,3.847,1.924,7.695,1.639,11.542
					c-0.284,3.848-1.211,7.48-2.85,10.83c-1.639,3.42-3.848,6.412-6.626,9.049C192.372,313.141,189.024,315.135,185.177,316.489z
					 M182.612,309.364c2.778-0.997,5.201-2.493,7.268-4.417c1.995-1.924,3.563-4.133,4.702-6.556c1.141-2.423,1.71-5.13,1.853-7.979
					s-0.356-5.7-1.354-8.479c-0.998-2.85-2.423-5.272-4.347-7.41c-1.923-2.138-4.061-3.776-6.483-4.988
					c-2.422-1.211-5.059-1.923-7.837-2.137c-2.779-0.214-5.629,0.143-8.408,1.14c-2.85,0.997-5.201,2.494-7.267,4.417
					c-1.995,1.923-3.563,4.132-4.703,6.555c-1.14,2.422-1.71,5.13-1.853,7.979c-0.143,2.851,0.356,5.7,1.354,8.479
					c0.997,2.851,2.422,5.273,4.346,7.41c1.853,2.138,4.062,3.848,6.483,4.988c2.423,1.211,5.059,1.924,7.838,2.137
					C176.983,310.718,179.833,310.361,182.612,309.364z"/>
				
					<linearGradient id="SVGID_12_" gradientUnits="userSpaceOnUse" x1="261.7722" y1="271.5054" x2="270.353" y2="369.5841" gradientTransform="matrix(0.7125 0 0 -0.7125 -14.1453 476.1545)">
					<stop  offset="0" style="stop-color:#3C5051"/>
					<stop  offset="1" style="stop-color:#749194"/>
				</linearGradient>
				<path fill="url(#SVGID_12_)" d="M174.916,304.163c-2.351,0-4.631-0.499-6.769-1.567c-3.634-1.71-6.412-4.846-7.694-8.479
					c-0.428-1.211,0.214-2.565,1.425-2.992c1.211-0.428,2.564,0.213,2.992,1.424c0.855,2.494,2.779,4.561,5.272,5.771
					c2.637,1.283,5.7,1.426,8.621,0.356c1.212-0.428,2.565,0.214,2.993,1.425c0.427,1.211-0.214,2.565-1.426,2.992
					C178.621,303.878,176.769,304.163,174.916,304.163z"/>
			</g>
		</g>
	</g>
</g>
</svg>
