<?xml version="1.0" encoding="utf-8"?>
<!-- Generator: Adobe Illustrator 16.0.0, SVG Export Plug-In . SVG Version: 6.00 Build 0)  -->
<!DOCTYPE svg PUBLIC "-//W3C//DTD SVG 1.1//EN" "http://www.w3.org/Graphics/SVG/1.1/DTD/svg11.dtd">
<svg version="1.1" id="Calque_1" xmlns="http://www.w3.org/2000/svg" xmlns:xlink="http://www.w3.org/1999/xlink" x="0px" y="0px"
	 width="1271.459px" height="354.651px" viewBox="164.708 100.189 1271.459 354.651"
	 enable-background="new 164.708 100.189 1271.459 354.651" xml:space="preserve">
<path fill="#444548" d="M293.222,274.811h-73.566l72.602-86.668c5.236-5.447,7.85-11.554,7.85-18.315
	c0-6.101-2.127-11.062-6.378-14.88c-4.251-3.813-9.865-5.724-16.841-5.724H171.25v34.995l74.316,0.066l-69.059,84.987
	c-3.936,5.013-6.662,8.609-8.192,10.786c-2.404,3.486-3.607,6.976-3.607,10.463c0,12.855,7.85,19.282,23.549,19.282h132.104
	C309.028,300.229,299.729,288.32,293.222,274.811 M809.806,146.28c-16.572,0-31.835,6.326-45.786,18.969
	c-12.428-12.643-27.257-18.969-44.477-18.969c-17.404,0-32.021,5.7-43.879,17.066c-22.437-37.809-63.662-63.157-110.816-63.157
	c-50.253,0-93.777,28.788-114.996,70.769c-15.384-16.246-37.14-26.397-61.28-26.397c-46.616,0-84.404,37.789-84.404,84.405
	c0,46.615,37.788,84.404,84.404,84.404c24.141,0,45.896-10.149,61.28-26.397c21.219,41.981,64.743,70.771,114.996,70.771
	c33.998,0,64.91-13.184,87.925-34.707l-34.767-28.521c-14.514,11.784-33.008,18.855-53.158,18.855
	c-46.615,0-84.405-37.789-84.405-84.404c0-46.616,37.79-84.405,84.405-84.405c46.616,0,84.404,37.789,84.404,84.405
	c0,13.01-2.948,25.329-8.205,36.334l52.983,43.467V210.57c0-8.023,2.341-14.476,7.032-19.357c4.685-4.881,11.063-7.322,19.133-7.322
	c7.631,0,13.736,2.386,18.314,7.159c4.578,4.773,6.869,11.171,6.869,19.193v99.559h37.609v-99.559c0-8.022,2.288-14.42,6.866-19.193
	c4.579-4.773,10.795-7.159,18.644-7.159c7.85,0,14.172,2.499,18.972,7.486c4.791,4.987,7.192,11.385,7.192,19.193v99.232h37.611
	v-99.875c0-17.839-6.051-32.91-18.152-45.205C842.021,152.427,827.247,146.28,809.806,146.28 M388.572,276.17
	c-26.071,0-47.205-21.135-47.205-47.204c0-26.07,21.135-47.205,47.205-47.205s47.204,21.135,47.204,47.205
	C435.775,255.035,414.642,276.17,388.572,276.17 M517.644,228.966c0,26.069,21.134,47.204,47.204,47.204
	s47.205-21.135,47.205-47.204c0-26.07-21.135-47.205-47.205-47.205C538.777,181.761,517.644,202.896,517.644,228.966"/>
<path fill="none" stroke="#444548" stroke-width="2.835" stroke-miterlimit="10" d="M1394.791,144.466h-87
	c-22.092,0-40,17.909-40,40v127h137c16.567,0,30-13.433,30-30v-97C1434.791,162.375,1416.883,144.466,1394.791,144.466z"/>
<path fill="#444548" d="M1306.647,268.052c0-2.239,0.794-4.147,2.383-5.723c1.587-1.575,3.512-2.365,5.768-2.365
	c2.34,0,4.282,0.769,5.83,2.302c1.547,1.536,2.319,3.464,2.319,5.786c0,2.241-0.795,4.149-2.382,5.723
	c-1.589,1.574-3.511,2.363-5.77,2.363c-2.256,0-4.18-0.789-5.767-2.363C1307.441,272.201,1306.647,270.293,1306.647,268.052"/>
<path fill="#444548" d="M1331.85,274.509v-65.45c0-4.012,0.376-7.292,1.128-9.842c0.753-2.549,2.048-4.953,3.888-7.21
	c2.338-2.925,5.349-5.267,9.027-7.022c3.677-1.755,7.479-2.633,11.41-2.633h4.012v10.031l-3.636-0.251
	c-4.098,0-7.607,1.379-10.532,4.138c-2.927,2.758-4.389,6.018-4.389,9.78v7.899h11.91v10.031h-11.91v50.529H1331.85z"/>
<path fill="#444548" d="M1358.933,274.509v-39.12c0-6.185,2.173-11.492,6.52-15.923c4.347-4.43,9.611-6.645,15.8-6.645h3.009v10.03
	h-2.006c-3.596,0-6.563,1.217-8.902,3.646c-2.341,2.429-3.511,5.613-3.511,9.55v38.462H1358.933z"/>
<defs>
	<filter id="Adobe_OpacityMaskFilter" filterUnits="userSpaceOnUse" x="164.709" y="100.189" width="1082.681" height="257.554">
		<feColorMatrix  type="matrix" values="1 0 0 0 0  0 1 0 0 0  0 0 1 0 0  0 0 0 1 0"/>
	</filter>
</defs>
<mask maskUnits="userSpaceOnUse" x="164.709" y="100.189" width="1082.681" height="257.554" id="SVGID_1_">
	<g filter="url(#Adobe_OpacityMaskFilter)">
		<rect x="164.709" y="100.189" width="1082.678" height="257.555"/>
		<g enable-background="new    ">
			<g>
				<g>
					<g>
						<defs>
							<rect id="SVGID_2_" x="164.709" y="100.189" width="1082.681" height="257.555"/>
						</defs>
						<clipPath id="SVGID_3_">
							<use xlink:href="#SVGID_2_"  overflow="visible"/>
						</clipPath>
					</g>
					<g>
						<defs>
							<rect id="SVGID_4_" x="164.709" y="100.189" width="1082.681" height="257.555"/>
						</defs>
						<defs>
							<rect id="SVGID_5_" x="-31.209" y="-344.533" width="1600" height="1400"/>
						</defs>
						<clipPath id="SVGID_6_">
							<use xlink:href="#SVGID_4_"  overflow="visible"/>
						</clipPath>
						<clipPath id="SVGID_7_" clip-path="url(#SVGID_6_)">
							<use xlink:href="#SVGID_5_"  overflow="visible"/>
						</clipPath>
						<g>
						</g>
					</g>
				</g>
			</g>
		</g>
	</g>
</mask>
<g mask="url(#SVGID_1_)">
	<g>
		<g>
			<defs>
				<rect id="SVGID_8_" x="164.709" y="100.189" width="1082.681" height="257.554"/>
			</defs>
			<clipPath id="SVGID_9_">
				<use xlink:href="#SVGID_8_"  overflow="visible"/>
			</clipPath>
		</g>
	</g>
</g>
<path fill="#009FDC" d="M910.698,170.457c-16.465,16.495-24.692,36.429-24.692,59.804c0,23.372,8.284,42.816,24.858,58.326
	c16.564,15.515,37.063,23.269,61.482,23.269l7.195-0.654v-36.629l-6.868,0.326c-12.214,0-22.894-4.716-32.052-14.159
	c-9.157-9.446-13.735-20.421-13.735-32.94c0-12.295,4.467-22.945,13.409-31.949c8.938-9.004,19.51-13.506,31.725-13.506l7.521,0.327
	v-36.956h-9.483C946.945,145.714,927.159,153.962,910.698,170.457 M1073.4,143.752c-23.985,0-44.264,8.288-60.829,24.855
	c-16.572,16.572-24.855,36.848-24.855,60.832c0,23.546,8.012,43.225,24.038,59.032c16.022,15.809,35.811,23.709,59.356,23.709
	c5.233,0,9.863-0.385,13.899-1.143c4.034-0.768,9.864-2.455,17.498-5.07v-38.591c-6.326,3.126-11.119,5.109-14.392,5.94
	c-3.269,0.84-7.307,1.254-12.1,1.254c-13.956,0-25.674-4.508-35.158-13.522c-9.483-9.015-14.225-20.262-14.225-33.737
	c0-12.602,4.414-23.41,13.243-32.423c8.83-9.016,19.567-13.527,32.214-13.527c13.738,0,24.744,4.855,33.033,14.554
	c8.284,9.703,12.428,22.622,12.428,38.755v74.564h38.264v-75.873c0-26.599-7.635-48.184-22.893-64.756
	C1117.661,152.04,1097.816,143.752,1073.4,143.752 M1237.902,145.714c-17.446,0-32.213,5.953-44.313,17.86
	c-12.104,11.906-18.152,26.383-18.152,43.42v102.24h37.939v-97.958c0-8.983,2.666-16.164,8.01-21.535
	c5.342-5.366,12.479-8.052,21.423-8.052h4.579v-35.976H1237.902z"/>
<path fill="#009FDC" d="M564.848,181.761c-26.07,0-47.204,21.135-47.204,47.205c0,26.069,21.134,47.204,47.204,47.204
	s47.205-21.135,47.205-47.204C612.053,202.896,590.916,181.761,564.848,181.761"/>
<path fill="#939598" d="M782.588,435.255h-5.761v-69.12h5.761v27.36c1.854-3.072,4.398-5.392,7.632-6.96
	c3.23-1.567,6.606-2.354,10.128-2.354c3.773,0,7.056,0.721,9.84,2.16c2.783,1.44,5.088,3.36,6.912,5.76
	c1.823,2.4,3.183,5.201,4.079,8.4c0.896,3.201,1.345,6.528,1.345,9.984c0,3.646-0.417,7.072-1.248,10.271
	c-0.833,3.201-2.16,5.969-3.984,8.304c-1.823,2.338-4.145,4.178-6.96,5.521s-6.239,2.015-10.271,2.015
	c-1.602,0-3.233-0.224-4.896-0.671c-1.664-0.447-3.28-1.087-4.848-1.92c-1.569-0.831-3.009-1.872-4.32-3.121
	c-1.313-1.248-2.385-2.703-3.216-4.367h-0.191L782.588,435.255L782.588,435.255z M782.588,410.2c0,3.009,0.366,5.808,1.104,8.397
	c0.735,2.594,1.807,4.833,3.216,6.723c1.407,1.888,3.168,3.376,5.28,4.464c2.112,1.089,4.512,1.632,7.2,1.632
	c2.432,0,4.67-0.433,6.72-1.296c2.047-0.864,3.84-2.127,5.376-3.792c1.536-1.664,2.735-3.696,3.601-6.098
	c0.863-2.398,1.297-5.166,1.297-8.303c0.127-3.136-0.131-6.063-0.77-8.785c-0.641-2.719-1.665-5.103-3.072-7.15
	c-1.408-2.049-3.216-3.663-5.424-4.85c-2.208-1.184-4.785-1.774-7.728-1.774c-2.625,0-4.978,0.562-7.057,1.68
	c-2.081,1.12-3.84,2.625-5.279,4.513c-1.44,1.889-2.544,4.097-3.313,6.623C782.972,404.712,782.588,407.384,782.588,410.2"/>
<path fill="#939598" d="M834.428,448.696c0.768,0.127,1.551,0.255,2.352,0.384c0.799,0.127,1.615,0.191,2.448,0.191
	c1.598,0,2.911-0.513,3.936-1.532c1.023-1.024,1.872-2.255,2.544-3.692c0.674-1.438,1.231-2.938,1.682-4.504
	c0.445-1.567,0.96-2.893,1.536-3.979l-19.297-50.037h6.433l15.935,42.721l15.938-42.721h6.24l-18.528,49.057
	c-1.153,3.134-2.256,5.952-3.313,8.448c-1.056,2.496-2.176,4.623-3.358,6.384c-1.188,1.759-2.496,3.104-3.938,4.032
	c-1.438,0.927-3.151,1.392-5.136,1.392c-1.023,0-2.001-0.063-2.928-0.191c-0.93-0.129-1.776-0.288-2.544-0.479L834.428,448.696
	L834.428,448.696z"/>
<path fill="#444548" d="M945.134,390.063c4.438,4.31,6.655,10.646,6.655,19.015c0,8.087-1.955,14.769-5.864,20.046
	c-3.91,5.275-9.978,7.914-18.199,7.914c-6.858,0-12.304-2.334-16.338-7.001c-4.034-4.668-6.052-10.937-6.052-18.806
	c0-8.43,2.125-15.143,6.378-20.139c4.25-4.994,9.961-7.492,17.129-7.492C935.266,383.6,940.696,385.753,945.134,390.063
	 M939.895,423.427c2.056-4.229,3.083-8.935,3.083-14.114c0-4.683-0.742-8.49-2.226-11.424c-2.349-4.619-6.396-6.931-12.145-6.931
	c-5.099,0-8.807,1.967-11.123,5.899c-2.318,3.934-3.477,8.677-3.477,14.231c0,5.338,1.156,9.785,3.477,13.344
	c2.316,3.558,5.994,5.337,11.031,5.337C934.047,429.771,937.84,427.656,939.895,423.427"/>
<path fill="#444548" d="M970.587,385.052v33.328c0,2.563,0.396,4.656,1.187,6.281c1.461,3,4.186,4.5,8.173,4.5
	c5.722,0,9.616-2.625,11.687-7.875c1.126-2.813,1.688-6.673,1.688-11.578v-24.656h8.438v50.203h-7.97l0.095-7.406
	c-1.074,1.906-2.409,3.517-4.004,4.828c-3.158,2.625-6.99,3.938-11.498,3.938c-7.022,0-11.807-2.392-14.351-7.172
	c-1.382-2.563-2.069-5.984-2.069-10.267v-34.125H970.587z"/>
<path fill="#444548" d="M1046.55,386.436c3.321,1.672,5.854,3.836,7.594,6.491c1.677,2.53,2.795,5.484,3.354,8.859
	c0.496,2.313,0.745,6,0.745,11.063h-36.516c0.155,5.106,1.35,9.205,3.582,12.291c2.232,3.087,5.688,4.631,10.37,4.631
	c4.371,0,7.859-1.461,10.466-4.38c1.457-1.694,2.489-3.656,3.098-5.887h8.298c-0.22,1.845-0.946,3.898-2.181,6.163
	c-1.233,2.267-2.61,4.118-4.131,5.556c-2.544,2.5-5.691,4.188-9.443,5.063c-2.017,0.5-4.296,0.75-6.839,0.75
	c-6.211,0-11.476-2.273-15.792-6.82c-4.315-4.548-6.475-10.914-6.475-19.102c0-8.063,2.174-14.609,6.521-19.641
	s10.031-7.548,17.052-7.548C1039.793,383.927,1043.226,384.764,1046.55,386.436 M1049.571,406.146
	c-0.342-3.656-1.132-6.578-2.371-8.767c-2.293-4.063-6.119-6.094-11.48-6.094c-3.841,0-7.063,1.397-9.668,4.194
	c-2.604,2.797-3.981,6.353-4.136,10.664h27.655V406.146z"/>
<path fill="#444548" d="M1073.946,419.505c0.255,2.813,0.973,4.969,2.152,6.469c2.169,2.72,5.933,4.078,11.291,4.078
	c3.188,0,5.995-0.68,8.42-2.039s3.637-3.461,3.637-6.305c0-2.156-0.969-3.797-2.906-4.922c-1.239-0.688-3.684-1.484-7.336-2.392
	l-6.813-1.688c-4.352-1.063-7.559-2.25-9.622-3.563c-3.685-2.281-5.526-5.438-5.526-9.47c0-4.75,1.733-8.594,5.201-11.53
	c3.469-2.938,8.131-4.406,13.99-4.406c7.664,0,13.189,2.219,16.577,6.656c2.123,2.813,3.153,5.844,3.091,9.094h-7.97
	c-0.159-1.896-0.848-3.62-2.063-5.176c-1.982-2.205-5.423-3.31-10.315-3.31c-3.264,0-5.734,0.606-7.414,1.821
	c-1.679,1.215-2.52,2.818-2.52,4.811c0,2.18,1.104,3.924,3.312,5.231c1.272,0.778,3.15,1.465,5.635,2.059l5.684,1.359
	c6.178,1.469,10.316,2.891,12.418,4.266c3.281,2.156,4.922,5.548,4.922,10.173c0,4.468-1.717,8.327-5.148,11.577
	s-8.661,4.875-15.686,4.875c-7.563,0-12.917-1.694-16.063-5.086c-3.148-3.391-4.834-7.586-5.056-12.586h8.109V419.505z"/>
<path fill="#444548" d="M1118.617,371.037h8.531v14.016h8.016v6.891h-8.016v32.767c0,1.75,0.594,2.922,1.782,3.516
	c0.655,0.345,1.75,0.517,3.28,0.517c0.405,0,0.845-0.01,1.313-0.031c0.469-0.02,1.016-0.072,1.641-0.156v6.703
	c-0.969,0.281-1.977,0.484-3.023,0.609c-1.046,0.125-2.179,0.188-3.397,0.188c-3.938,0-6.608-1.008-8.017-3.022
	c-1.405-2.017-2.108-4.634-2.108-7.853v-33.234h-6.797v-6.891h6.797L1118.617,371.037L1118.617,371.037z"/>
<rect x="1141.399" y="404.177" fill="#444548" width="23.53" height="8.673"/>
<path fill="#444548" d="M1179.509,369.725c1.969-2.875,5.766-4.313,11.391-4.313c0.531,0,1.078,0.016,1.642,0.047
	c0.563,0.031,1.201,0.078,1.922,0.142v7.688c-0.886-0.063-1.525-0.102-1.92-0.117c-0.396-0.016-0.768-0.023-1.113-0.023
	c-2.592,0-4.142,0.664-4.647,1.992c-0.504,1.328-0.757,4.711-0.757,10.148h8.438v6.656h-8.438v43.313h-8.344v-43.313h-6.985v-6.656
	h6.985v-7.876C1177.806,373.911,1178.414,371.35,1179.509,369.725"/>
<path fill="#444548" d="M1202.478,385.052h8.016v8.673c0.656-1.688,2.267-3.742,4.828-6.164c2.563-2.422,5.516-3.634,8.859-3.634
	c0.155,0,0.422,0.017,0.797,0.048c0.375,0.03,1.016,0.094,1.922,0.188v8.906c-0.5-0.094-0.961-0.156-1.383-0.188
	s-0.883-0.047-1.383-0.047c-4.25,0-7.517,1.366-9.798,4.103c-2.28,2.733-3.421,5.883-3.421,9.444v28.875h-8.438V385.052
	L1202.478,385.052z"/>
<path fill="#444548" d="M1261.118,404.873c1.938-0.248,3.234-1.061,3.892-2.434c0.374-0.752,0.562-1.836,0.562-3.248
	c0-2.885-1.021-4.979-3.063-6.279s-4.966-1.953-8.771-1.953c-4.396,0-7.517,1.193-9.355,3.58c-1.029,1.318-1.699,3.283-2.012,5.889
	h-7.875c0.155-6.205,2.16-10.521,6.016-12.951c3.854-2.428,8.325-3.643,13.414-3.643c5.897,0,10.689,1.125,14.374,3.375
	c3.65,2.25,5.478,5.75,5.478,10.501v28.923c0,0.875,0.181,1.578,0.539,2.109c0.359,0.527,1.117,0.795,2.272,0.795
	c0.375,0,0.798-0.023,1.267-0.07s0.969-0.116,1.5-0.21v6.233c-1.313,0.375-2.313,0.608-3,0.702
	c-0.688,0.095-1.625,0.142-2.813,0.142c-2.905,0-5.016-1.031-6.328-3.093c-0.688-1.095-1.172-2.642-1.452-4.641
	c-1.72,2.25-4.188,4.202-7.406,5.858c-3.219,1.655-6.767,2.482-10.642,2.482c-4.655,0-8.461-1.412-11.413-4.236
	c-2.953-2.824-4.431-6.358-4.431-10.604c0-4.649,1.453-8.255,4.359-10.813s6.719-4.137,11.438-4.729L1261.118,404.873z
	 M1243.353,427.667c1.781,1.403,3.891,2.104,6.328,2.104c2.969,0,5.844-0.687,8.625-2.059c4.688-2.278,7.03-6.006,7.03-11.186
	v-6.786c-1.028,0.657-2.354,1.206-3.977,1.646c-1.621,0.439-3.212,0.752-4.771,0.939l-5.101,0.654
	c-3.056,0.405-5.354,1.045-6.895,1.918c-2.609,1.467-3.914,3.806-3.914,7.017C1240.681,424.346,1241.571,426.263,1243.353,427.667"
	/>
<path fill="#444548" d="M1287.603,385.052h8.016v7.125c2.375-2.938,4.892-5.047,7.548-6.327c2.655-1.281,5.608-1.923,8.858-1.923
	c7.125,0,11.938,2.484,14.438,7.453c1.375,2.72,2.063,6.609,2.063,11.672v32.203h-8.578v-31.642c0-3.063-0.453-5.53-1.359-7.405
	c-1.5-3.125-4.219-4.688-8.155-4.688c-2,0-3.643,0.203-4.922,0.609c-2.313,0.688-4.344,2.063-6.094,4.125
	c-1.406,1.656-2.32,3.367-2.742,5.133c-0.424,1.766-0.633,4.289-0.633,7.57v26.297h-8.438L1287.603,385.052L1287.603,385.052z"/>
<path fill="#444548" d="M1374.156,387.725c3.547,2.75,5.681,7.483,6.397,14.202h-8.202c-0.5-3.094-1.641-5.663-3.423-7.711
	c-1.78-2.047-4.641-3.069-8.577-3.069c-5.375,0-9.219,2.621-11.531,7.864c-1.5,3.401-2.25,7.601-2.25,12.595
	c0,5.024,1.063,9.254,3.188,12.688c2.125,3.433,5.469,5.149,10.03,5.149c3.5,0,6.273-1.065,8.32-3.198
	c2.047-2.132,3.461-5.051,4.242-8.756h8.202c-0.938,6.656-3.28,11.523-7.03,14.603s-8.547,4.617-14.391,4.617
	c-6.563,0-11.798-2.398-15.704-7.195c-3.905-4.797-5.858-10.788-5.858-17.978c0-8.813,2.141-15.672,6.422-20.577
	c4.281-4.906,9.734-7.358,16.359-7.358C1366.009,383.6,1370.61,384.975,1374.156,387.725"/>
<path fill="#444548" d="M1420.003,386.436c3.321,1.672,5.854,3.836,7.594,6.491c1.677,2.53,2.795,5.484,3.354,8.859
	c0.497,2.313,0.746,6,0.746,11.063h-36.516c0.155,5.106,1.35,9.205,3.582,12.291c2.231,3.087,5.688,4.631,10.37,4.631
	c4.371,0,7.859-1.461,10.466-4.38c1.457-1.694,2.489-3.656,3.098-5.887h8.297c-0.219,1.845-0.945,3.898-2.18,6.163
	c-1.234,2.267-2.611,4.118-4.131,5.556c-2.544,2.5-5.691,4.188-9.443,5.063c-2.017,0.5-4.296,0.75-6.839,0.75
	c-6.211,0-11.477-2.273-15.792-6.82c-4.315-4.548-6.476-10.914-6.476-19.102c0-8.063,2.175-14.609,6.522-19.641
	s10.031-7.548,17.052-7.548C1413.246,383.927,1416.679,384.764,1420.003,386.436 M1423.024,406.146
	c-0.342-3.656-1.132-6.578-2.371-8.767c-2.293-4.063-6.12-6.094-11.48-6.094c-3.841,0-7.063,1.397-9.668,4.194
	c-2.604,2.797-3.981,6.353-4.137,10.664h27.656V406.146z"/>
</svg>
