<?xml version="1.0" encoding="utf-8"?>
<!-- Generator: Adobe Illustrator 16.0.0, SVG Export Plug-In . SVG Version: 6.00 Build 0)  -->
<!DOCTYPE svg PUBLIC "-//W3C//DTD SVG 1.1//EN" "http://www.w3.org/Graphics/SVG/1.1/DTD/svg11.dtd">
<svg version="1.1" id="Layer_1" xmlns="http://www.w3.org/2000/svg" xmlns:xlink="http://www.w3.org/1999/xlink" x="0px" y="0px"
	 width="300px" height="100px" viewBox="0 0 300 100" enable-background="new 0 0 300 100" xml:space="preserve">
<title>GS-WidgetsFichier 16</title>
<path fill="#43B9AD" d="M155.127,37.051c0.229-0.344,0.352-0.749,0.348-1.163c-0.016-1-0.825-1.807-1.826-1.819h-1.268
	c0.213-0.425,0.324-0.894,0.328-1.369c0.019-0.451-0.066-0.901-0.249-1.314c-0.154-0.315-0.41-0.57-0.726-0.722
	c-0.337-0.159-0.705-0.239-1.078-0.233c-0.245-0.005-0.482,0.09-0.656,0.263c-0.213,0.214-0.366,0.48-0.443,0.772
	c-0.09,0.313-0.162,0.614-0.217,0.903c-0.026,0.223-0.113,0.435-0.253,0.611c-0.232,0.252-0.486,0.556-0.762,0.913
	c-0.284,0.405-0.615,0.775-0.985,1.104h-1.901c-0.504,0-0.913,0.409-0.913,0.913v4.562c0.002,0.503,0.41,0.91,0.913,0.91h2.052
	c0.337,0.063,0.667,0.159,0.985,0.286c0.584,0.204,1.099,0.359,1.543,0.466c0.442,0.107,0.895,0.161,1.35,0.161h0.92
	c0.596,0.025,1.177-0.185,1.619-0.585c0.42-0.408,0.642-0.979,0.607-1.563c0.283-0.361,0.434-0.809,0.427-1.268
	c-0.001-0.103-0.009-0.205-0.022-0.306c0.178-0.312,0.271-0.665,0.27-1.024c0-0.167-0.022-0.332-0.066-0.493L155.127,37.051z
	 M146.217,40.335c-0.177,0.172-0.459,0.169-0.632-0.008c-0.172-0.176-0.168-0.459,0.008-0.631c0.177-0.172,0.459-0.169,0.632,0.008
	c0.079,0.081,0.125,0.189,0.127,0.303C146.354,40.13,146.306,40.25,146.217,40.335z M154.427,36.486
	c-0.102,0.22-0.229,0.329-0.381,0.329c0.079,0.097,0.14,0.208,0.177,0.329c0.045,0.126,0.069,0.26,0.072,0.394
	c0.002,0.323-0.135,0.632-0.377,0.847c0.085,0.15,0.129,0.32,0.128,0.493c-0.001,0.181-0.044,0.36-0.124,0.522
	c-0.066,0.157-0.182,0.288-0.329,0.375c0.022,0.132,0.035,0.266,0.036,0.4c0,0.795-0.457,1.191-1.369,1.189h-0.891
	c-0.834-0.042-1.657-0.218-2.437-0.519l-0.207-0.076l-0.252-0.089l-0.25-0.082c-0.111-0.035-0.201-0.061-0.269-0.079l-0.236-0.046
	c-0.074-0.013-0.149-0.019-0.224-0.02h-0.227v-4.558h0.227c0.088-0.003,0.174-0.026,0.253-0.066c0.104-0.05,0.2-0.116,0.286-0.194
	c0.099-0.085,0.19-0.169,0.276-0.252c0.101-0.104,0.197-0.214,0.286-0.329l0.247-0.302l0.223-0.292l0.164-0.214
	c0.261-0.324,0.443-0.543,0.549-0.657c0.198-0.212,0.342-0.469,0.42-0.749c0.087-0.315,0.16-0.613,0.216-0.894
	c0.031-0.224,0.125-0.435,0.273-0.607c0.455,0,0.76,0.109,0.913,0.329c0.174,0.315,0.253,0.675,0.227,1.034
	c-0.029,0.399-0.142,0.789-0.328,1.143c-0.188,0.352-0.299,0.739-0.329,1.136h2.509c0.24,0.001,0.469,0.102,0.635,0.276
	c0.178,0.165,0.278,0.395,0.279,0.637c-0.01,0.201-0.063,0.398-0.154,0.578L154.427,36.486z"/>
<g>
	<circle fill="#43B9AD" cx="150.002" cy="10.057" r="8.579"/>
	<path opacity="0.5" fill="#FFFFFF" enable-background="new    " d="M151.628,4.733l-0.717,1.248
		c0.244,0.141,0.451,0.338,0.607,0.573l0.867-0.325l-0.723,0.587c0.188,0.427,0.201,0.911,0.037,1.348l1.35,0.504
		c0.551-1.482-0.047-3.147-1.418-3.938L151.628,4.733z"/>
	<path fill="#FFFFFF" d="M150.002,9.339h-0.063c-0.994-0.034-1.772-0.866-1.738-1.86c0.033-0.995,0.867-1.773,1.859-1.738
		c0.295,0.01,0.584,0.092,0.839,0.24l0.729-1.248c-1.55-0.896-3.531-0.367-4.428,1.184c-0.896,1.549-0.366,3.531,1.183,4.428
		c0.495,0.286,1.057,0.437,1.629,0.435h0.062c0.992,0.035,1.768,0.868,1.732,1.859s-0.867,1.767-1.858,1.732
		c-0.992-0.036-1.768-0.868-1.732-1.859c0.006-0.192,0.044-0.38,0.11-0.561l-1.347-0.504c-0.627,1.677,0.226,3.544,1.902,4.169
		c1.678,0.626,3.544-0.226,4.169-1.903c0.627-1.677-0.225-3.544-1.902-4.17c-0.362-0.135-0.745-0.204-1.133-0.204H150.002
		L150.002,9.339z"/>
	<path fill="#FFFFFF" d="M149.863,7.169c-0.209,0.119-0.28,0.382-0.162,0.591c0.117,0.208,0.383,0.281,0.59,0.163l1.358-1.102
		c-0.041-0.092-0.09-0.18-0.145-0.264L149.863,7.169z"/>
</g>
<path fill="#43B9AD" d="M154.151,26.957L154.151,26.957L154.151,26.957z"/>
<path fill="#43B9AD" d="M154.151,26.957L154.151,26.957L154.151,26.957z"/>
<g>
	<path fill="#43B9AD" d="M137.144,23.947v3.232h-0.319V26.5c-0.276,0.466-0.78,0.748-1.321,0.74
		c-0.918-0.001-1.662-0.746-1.661-1.664c0-0.917,0.744-1.661,1.661-1.661c0.545-0.017,1.054,0.271,1.321,0.747v-0.715H137.144
		L137.144,23.947z M134.18,25.562c-0.032,0.716,0.522,1.324,1.238,1.356c0.027,0.001,0.055,0.002,0.083,0.001
		c1.809,0,1.809-2.703,0-2.703c-0.715-0.016-1.306,0.551-1.322,1.265C134.179,25.508,134.179,25.535,134.18,25.562z"/>
	<path fill="#43B9AD" d="M138.314,23.947l0.014,0.576c0.206-0.396,0.625-0.635,1.072-0.608c0.245-0.006,0.486,0.061,0.694,0.19
		l-0.145,0.262c-0.166-0.101-0.356-0.153-0.55-0.151c-0.592,0.003-1.07,0.486-1.068,1.079v1.884h-0.318v-3.232H138.314z"/>
	<path fill="#43B9AD" d="M143.687,23.947v3.232h-0.319V26.5c-0.276,0.466-0.78,0.748-1.32,0.74
		c-0.918-0.001-1.662-0.746-1.662-1.664c0-0.917,0.744-1.661,1.662-1.661c0.544-0.017,1.053,0.271,1.32,0.747v-0.715H143.687
		L143.687,23.947z M140.722,25.564c-0.033,0.716,0.521,1.323,1.237,1.355c0.028,0.001,0.056,0.002,0.083,0.001
		c1.81,0,1.81-2.702,0-2.702c-0.714-0.015-1.305,0.553-1.319,1.268c0,0.025,0,0.05,0.001,0.075L140.722,25.564z"/>
	<path fill="#43B9AD" d="M147.927,25.562c-0.024-0.897,0.686-1.645,1.582-1.668c0.021,0,0.041,0,0.06,0
		c0.905,0,1.721,0.557,1.597,1.81h-2.913c0.04,0.69,0.625,1.222,1.316,1.197c0.442,0.013,0.866-0.167,1.165-0.492l0.227,0.184
		c-0.348,0.406-0.858,0.634-1.393,0.622c-0.875,0.032-1.608-0.65-1.641-1.524C147.925,25.647,147.925,25.604,147.927,25.562z
		 M150.867,25.431c0-0.798-0.528-1.244-1.31-1.244c-0.705-0.014-1.291,0.54-1.316,1.244H150.867z"/>
	<path fill="#43B9AD" d="M132.511,26.837c0.529-0.255,0.865-0.792,0.864-1.379c0-1.009-0.679-1.583-1.522-1.583l0,0
		c-0.836,0-1.517,0.57-1.517,1.583c0,0.863,0.581,1.565,1.517,1.565c0.602,0,1.224,0.274,1.224,0.968
		c0,0.694-0.577,0.975-1.224,0.975c-0.646,0-1.21-0.315-1.21-0.975h-0.323c0,0.818,0.679,1.288,1.531,1.288s1.538-0.417,1.538-1.288
		C133.389,27.442,133.074,27.042,132.511,26.837z M130.654,25.458c0-0.844,0.536-1.256,1.197-1.256l0,0
		c0.66,0,1.208,0.412,1.208,1.256c0.003,0.674-0.535,1.228-1.21,1.244c-0.655,0.005-1.19-0.52-1.195-1.175
		C130.653,25.504,130.653,25.481,130.654,25.458z"/>
	<path fill="#43B9AD" d="M146.579,26.837c0.528-0.257,0.862-0.793,0.86-1.379c0-1.009-0.678-1.583-1.522-1.583l0,0
		c-0.837,0-1.518,0.57-1.518,1.583c0,0.863,0.581,1.565,1.518,1.565c0.601,0,1.224,0.274,1.224,0.968
		c0,0.694-0.577,0.975-1.224,0.975s-1.192-0.308-1.192-0.97h-0.321c0,0.818,0.679,1.289,1.531,1.289s1.538-0.418,1.538-1.289
		C147.461,27.442,147.149,27.042,146.579,26.837z M144.725,25.458c0-0.844,0.536-1.256,1.196-1.256l0,0
		c0.661,0,1.208,0.412,1.208,1.256c0.002,0.674-0.536,1.228-1.21,1.244c-0.654,0.005-1.19-0.52-1.196-1.175
		C144.723,25.504,144.723,25.481,144.725,25.458z"/>
	<path fill="#43B9AD" d="M169.863,23.893c-0.003,0.306-0.253,0.552-0.56,0.55c-0.305-0.002-0.551-0.252-0.549-0.558
		c0.003-0.305,0.25-0.55,0.555-0.55c0.292-0.014,0.54,0.211,0.554,0.503C169.864,23.855,169.864,23.874,169.863,23.893z
		 M169.31,24.384c0.271,0.008,0.497-0.204,0.506-0.475c0.009-0.271-0.203-0.498-0.475-0.506s-0.498,0.204-0.507,0.475
		c0,0.005,0,0.011,0,0.016c-0.021,0.249,0.162,0.468,0.411,0.49C169.267,24.384,169.288,24.384,169.31,24.384z M169.366,23.592
		h-0.261v0.588h0.072v-0.226h0.126l0.193,0.226h0.078v-0.012l-0.182-0.208c0.102-0.004,0.18-0.09,0.175-0.192
		c-0.004-0.102-0.089-0.181-0.191-0.177H169.366L169.366,23.592z M169.178,23.662h0.199c0.062-0.013,0.124,0.028,0.136,0.09
		c0.013,0.063-0.027,0.124-0.09,0.136c-0.015,0.003-0.031,0.003-0.046,0h-0.184L169.178,23.662z"/>
	<path fill="#43B9AD" d="M158.521,26.768c-0.323,0.338-0.775,0.523-1.243,0.51c-0.937,0-1.714-0.563-1.714-1.707
		c0-1.144,0.777-1.708,1.714-1.708c0.438-0.015,0.862,0.159,1.163,0.477l-0.503,0.529c-0.177-0.161-0.407-0.252-0.646-0.255
		c-0.5-0.015-0.917,0.378-0.932,0.878c-0.001,0.025,0,0.051,0.002,0.076c-0.036,0.485,0.328,0.906,0.813,0.941
		c0.03,0.001,0.061,0.002,0.091,0.001c0.263,0.01,0.519-0.087,0.708-0.269L158.521,26.768z"/>
	<path fill="#43B9AD" d="M162.152,25.568c-0.001,0.927-0.753,1.677-1.68,1.676s-1.677-0.753-1.676-1.68
		c0.001-0.923,0.746-1.671,1.669-1.676c0.9-0.032,1.655,0.672,1.687,1.573C162.154,25.497,162.154,25.533,162.152,25.568z
		 M159.595,25.568c0,0.491,0.295,0.95,0.878,0.95s0.877-0.452,0.877-0.95c0.028-0.499-0.354-0.926-0.853-0.953
		c-0.009,0-0.016,0-0.024-0.001C159.896,24.614,159.595,25.084,159.595,25.568z"/>
	<path fill="#43B9AD" d="M163.442,23.954l0.054,0.373c0.189-0.312,0.542-0.487,0.904-0.452c0.306-0.004,0.603,0.105,0.831,0.308
		l-0.36,0.694c-0.156-0.145-0.364-0.22-0.576-0.21c-0.409-0.032-0.768,0.274-0.8,0.685c-0.003,0.043-0.003,0.085,0.001,0.127v1.701
		h-0.798v-3.225L163.442,23.954L163.442,23.954z"/>
	<path fill="#43B9AD" d="M166.222,25.851c0.052,0.398,0.397,0.679,0.961,0.679c0.314,0.005,0.621-0.102,0.864-0.301l0.512,0.505
		c-0.376,0.351-0.873,0.542-1.387,0.533c-1.113,0-1.773-0.678-1.773-1.72c0-0.982,0.678-1.688,1.715-1.688
		c1.035,0,1.753,0.678,1.628,1.995L166.222,25.851z M167.975,25.191c-0.052-0.412-0.378-0.638-0.837-0.638
		c-0.412-0.033-0.791,0.23-0.904,0.629L167.975,25.191z"/>
	<path fill="#43B9AD" d="M153.375,24.167h-0.029c-0.477-0.011-0.854-0.407-0.843-0.883c0.01-0.478,0.405-0.855,0.883-0.844
		c0.048,0.001,0.096,0.006,0.144,0.015h0.04c0.045,0.01,0.088,0.024,0.13,0.041l0.033,0.016l0.072,0.039l0.347-0.602l0,0l0,0
		c-0.106-0.061-0.221-0.109-0.34-0.143l-0.047-0.011l-0.139-0.027h-0.052c-0.853-0.091-1.619,0.526-1.711,1.379
		c-0.091,0.854,0.526,1.62,1.38,1.711c0.047,0.005,0.095,0.008,0.142,0.009h0.029c0.477,0.011,0.854,0.406,0.844,0.883
		c-0.011,0.477-0.406,0.855-0.884,0.844c-0.048,0-0.096-0.006-0.143-0.015h-0.042c-0.044-0.01-0.087-0.024-0.129-0.041l-0.033-0.016
		c-0.413-0.188-0.61-0.662-0.453-1.086l-0.646-0.242c-0.266,0.71,0.021,1.509,0.679,1.888l0,0l0,0
		c0.106,0.061,0.221,0.109,0.339,0.143l0.048,0.011l0.138,0.028h0.052c0.854,0.091,1.619-0.526,1.711-1.379s-0.526-1.619-1.379-1.71
		c-0.048-0.005-0.094-0.008-0.142-0.009L153.375,24.167z"/>
	<path opacity="0.5" fill="#43B9AD" enable-background="new    " d="M154.239,23.302c0,0.104-0.018,0.206-0.054,0.303l0.646,0.242
		c0.266-0.711-0.021-1.509-0.679-1.889l-0.346,0.602C154.073,22.713,154.237,22.996,154.239,23.302z"/>
</g>
</svg>
