<svg xmlns="http://www.w3.org/2000/svg" width="21" height="21" viewBox="0 0 21 21"><defs><style>.a,.b{fill:#161643;}.a{opacity:0.005;}</style></defs><g transform="translate(-11.332 -5)"><rect class="a" width="21" height="21" transform="translate(11.332 5)"/><g transform="translate(12.332 6)"><path class="b" d="M10,0A10,10,0,1,0,20,10,10.011,10.011,0,0,0,10,0Zm0,2.917A4.792,4.792,0,1,1,5.208,7.708,4.8,4.8,0,0,1,10,2.917Zm0,15.417a8.317,8.317,0,0,1-6.659-3.344A15.691,15.691,0,0,1,10,13.333a15.692,15.692,0,0,1,6.659,1.656A8.317,8.317,0,0,1,10,18.333Z"/></g></g></svg>