<svg xmlns="http://www.w3.org/2000/svg" width="89" height="86" viewBox="0 0 89 86"><defs><style>.a{fill:#bce0fd;}.b{fill:#dbf0ff;}.c{fill:#eff2fa;}.d{fill:#d0ebff;}.e{fill:#e8f5ff;}.f{fill:#e4eaf6;}.g{fill:#00429a;}.h{fill:#003a88;}.i{fill:#f7faff;}.j{fill:#385cf8;}.k{fill:none;stroke:#fff;stroke-linecap:round;stroke-width:3.3px;}</style></defs><ellipse class="a" cx="42" cy="41.935" rx="42" ry="41.935"/><g transform="translate(40.088 23.555)"><path class="b" d="M239.891,145.342V139.02H223.633v6.322l8.129,7.226Z" transform="translate(-208.278 -108.309)"/><path class="c" d="M198.308,170.186l-11.176-2.63a1.791,1.791,0,0,1-.469-.189l-9.052,5.281-8.7-5.536a1.8,1.8,0,0,1-.822.444l-11.176,2.63a3.613,3.613,0,0,0-2.785,3.517v7.074c0,.51,1.544-1.129,2-.7.208.21-.682,2.5-.195,2.5a37.106,37.106,0,0,0,21.677,7.055,35.164,35.164,0,0,0,21.677-7.055c.453,0-.452-1.355,0-1.806s1.806.545,1.806,0V173.7A3.612,3.612,0,0,0,198.308,170.186Z" transform="translate(-154.127 -130.195)"/><path class="d" d="M223.633,139.02v6.671c10.24,3.689,16.258-5.544,16.258-5.544V139.02Z" transform="translate(-208.278 -108.309)"/><path class="e" d="M207.28,44.985l.787,17.316a5.42,5.42,0,0,0,2.162,4.089l3.735,2.8a5.419,5.419,0,0,0,3.251,1.084h3.613a5.42,5.42,0,0,0,3.251-1.084l3.735-2.8a5.419,5.419,0,0,0,2.162-4.089l.787-17.316Z" transform="translate(-195.538 -35.047)"/><path class="b" d="M216.312,48.6c3.613,0,9.032-.9,10.318-3.613H207.28l.787,17.316a5.42,5.42,0,0,0,2.162,4.089l3.735,2.8a5.419,5.419,0,0,0,3.251,1.084h1.806c-1.806,0-5.419-3.613-5.419-8.129V51.307A2.884,2.884,0,0,1,216.312,48.6Z" transform="translate(-195.538 -35.047)"/><g transform="translate(0 41.269)"><path class="f" d="M331.432,192.067l5.853-5.258a3.607,3.607,0,0,1,.778,2.239v7.074a9.851,9.851,0,0,1-1.806,1.806l-2.6,1.819-3.72,1.965v-6.286A4.517,4.517,0,0,1,331.432,192.067Z" transform="translate(-291.096 -186.81)"/><path class="f" d="M160.76,192.067l-5.853-5.258a3.606,3.606,0,0,0-.778,2.239v7.343a11.843,11.843,0,0,0,1.806,1.537s1.561,1.169,3.095,2.064a27.981,27.981,0,0,0,3.039,1.515l.189-6.082A4.515,4.515,0,0,0,160.76,192.067Z" transform="translate(-154.129 -186.81)"/></g><g transform="translate(12.645 34.791)"><path class="f" d="M213.951,157.719l8.256,7.43a31.152,31.152,0,0,0-5.165,3.52,1.159,1.159,0,0,1-1.794-.406l-3.879-8.533,1.227-1.84A.9.9,0,0,1,213.951,157.719Z" transform="translate(-211.368 -157.487)"/><path class="f" d="M268.686,157.719l-8.256,7.43a31.15,31.15,0,0,1,5.165,3.52,1.159,1.159,0,0,0,1.794-.406l3.879-8.533-1.227-1.84A.9.9,0,0,0,268.686,157.719Z" transform="translate(-249.592 -157.487)"/></g><path class="g" d="M285.216,15.92l.847,5.984c3.865.773,4.422,6.839,4.5,8.571a1.783,1.783,0,0,0,.285.883l1.475,2.288s-.5-3.782,1.806-6.322C294.132,27.323,294.925,12.307,285.216,15.92Z" transform="translate(-256.257 -11.966)"/><path class="b" d="M308.5,88.194l-1.02,4.08a1.086,1.086,0,0,1-1.054.822h0a1.086,1.086,0,0,1-1.078-.951l-.522-4.173a1.87,1.87,0,0,1,1.855-2.1h0A1.87,1.87,0,0,1,308.5,88.194Z" transform="translate(-271.522 -66.901)"/><path class="h" d="M198.294,2.336l1.336.913c-6.04,4.46-4.911,12.109-4.911,12.109,1.806,1.806,1.806,6.322,1.806,6.322l1.806-1.806s-.7-5.218,2.71-7.225c3.161-1.863,5.927-.9,8.75-.9,7.564,0,9.681-2.851,9.314-6.322-.19-1.8-2.936-5.538-9.935-5.419C206.346.051,201.042.906,198.294,2.336Z" transform="translate(-185.687 0)"/><path class="d" d="M199.159,88.194l1.02,4.08a1.086,1.086,0,0,0,1.054.822h0a1.086,1.086,0,0,0,1.078-.951l.522-4.173a1.87,1.87,0,0,0-1.855-2.1h0A1.869,1.869,0,0,0,199.159,88.194Z" transform="translate(-189.167 -66.901)"/><path class="f" d="M287.195,228.967h-4.516a1.806,1.806,0,0,0-1.806,1.806H289A1.807,1.807,0,0,0,287.195,228.967Z" transform="translate(-252.872 -178.385)"/><path class="i" d="M288.25,234.167H281.5c-1,0-.675-2.328-.675-5.2h8.129C288.951,231.839,289.248,234.167,288.25,234.167Z" transform="translate(-252.823 -176.881)"/></g><g transform="translate(5.346 22.272)"><path class="b" d="M236.686,144.1V139.02H223.633V144.1l6.527,5.8Z" transform="translate(-211.305 -114.362)"/><path class="c" d="M189.6,169.58l-8.973-2.111a1.437,1.437,0,0,1-.377-.152l-7.268,4.24L166,167.112a1.443,1.443,0,0,1-.66.357l-8.973,2.111a2.9,2.9,0,0,0-2.236,2.824v5.68c0,.409,1.24-.907,1.607-.559.167.169-.548,2.01-.156,2.01a23,23,0,0,0,3.378,5.134,47.109,47.109,0,0,0,4.943,4.672s4.906-4.182,9.083-4.142a28.233,28.233,0,0,0,17.4-5.665c.364,0-.363-1.088,0-1.45s1.45.437,1.45,0V172.4A2.9,2.9,0,0,0,189.6,169.58Z" transform="translate(-154.127 -137.472)"/><path class="d" d="M223.633,139.02v5.356c8.222,2.962,13.053-4.451,13.053-4.451v-.9Z" transform="translate(-211.305 -114.362)"/><path class="e" d="M207.28,44.985l.632,13.9a4.351,4.351,0,0,0,1.736,3.283l3,2.249a4.351,4.351,0,0,0,2.611.87h2.9a4.351,4.351,0,0,0,2.611-.87l3-2.249a4.351,4.351,0,0,0,1.736-3.283l.632-13.9Z" transform="translate(-197.852 -37.006)"/><path class="b" d="M214.532,47.886c2.9,0,7.252-.725,8.284-2.9H207.28l.632,13.9a4.351,4.351,0,0,0,1.736,3.283l3,2.249a4.351,4.351,0,0,0,2.61.87h1.45c-1.45,0-4.351-2.9-4.351-6.527v-8.7A2.316,2.316,0,0,1,214.532,47.886Z" transform="translate(-197.852 -37.006)"/><g transform="translate(0 33.134)"><path class="f" d="M331.137,191.031l4.7-4.221a2.9,2.9,0,0,1,.625,1.8v5.68a7.91,7.91,0,0,1-1.45,1.45l-2.09,1.46-2.987,1.578v-5.047A3.626,3.626,0,0,1,331.137,191.031Z" transform="translate(-298.752 -186.81)"/><path class="f" d="M159.453,191.031l-4.7-4.221a2.9,2.9,0,0,0-.625,1.8v5.9c.839.773.736,1.548,1.857,2.4l4.207,5.264.462-8.435A3.625,3.625,0,0,0,159.453,191.031Z" transform="translate(-154.129 -186.81)"/></g><g transform="translate(10.153 27.933)"><path class="f" d="M213.442,157.673l6.628,5.965a25.012,25.012,0,0,0-4.147,2.826.93.93,0,0,1-1.441-.326l-3.114-6.851.985-1.478A.726.726,0,0,1,213.442,157.673Z" transform="translate(-211.368 -157.487)"/><path class="f" d="M267.058,157.673l-6.628,5.965a25.011,25.011,0,0,1,4.147,2.826.93.93,0,0,0,1.441-.326l3.114-6.851-.985-1.478A.726.726,0,0,0,267.058,157.673Z" transform="translate(-251.728 -157.487)"/></g><path class="g" d="M285.216,15.81l.68,4.8c3.1.621,3.551,5.491,3.615,6.882a1.431,1.431,0,0,0,.229.709l1.184,1.837a6.947,6.947,0,0,1,1.45-5.076S293.012,12.909,285.216,15.81Z" transform="translate(-261.965 -12.635)"/><path class="b" d="M307.77,87.736l-.819,3.276a.872.872,0,0,1-.846.66h0a.872.872,0,0,1-.865-.764l-.419-3.35a1.5,1.5,0,0,1,1.49-1.687h0A1.5,1.5,0,0,1,307.77,87.736Z" transform="translate(-278.083 -70.64)"/><path class="h" d="M197.573,1.876l1.073.733C193.8,6.189,194.7,12.33,194.7,12.33c1.45,1.45,1.45,5.076,1.45,5.076l1.45-1.45s-.56-4.19,2.176-5.8c2.538-1.5,4.759-.725,7.025-.725,6.073,0,7.773-2.289,7.478-5.076C214.13,2.911,211.925-.093,206.306,0A24.417,24.417,0,0,0,197.573,1.876Z" transform="translate(-187.451 0)"/><path class="d" d="M199.148,87.736l.819,3.276a.872.872,0,0,0,.846.66h0a.872.872,0,0,0,.865-.764l.419-3.35a1.5,1.5,0,0,0-1.49-1.687h0A1.5,1.5,0,0,0,199.148,87.736Z" transform="translate(-191.125 -70.64)"/><path class="f" d="M285.948,228.967h-3.626a1.45,1.45,0,0,0-1.45,1.45H287.4A1.451,1.451,0,0,0,285.948,228.967Z" transform="translate(-258.391 -188.355)"/><path class="i" d="M286.776,233.142h-5.422c-.8,0-.542-1.869-.542-4.175h6.527C287.339,231.273,287.577,233.142,286.776,233.142Z" transform="translate(-258.332 -187.148)"/></g><g transform="translate(15.088 15.292)"><path class="b" d="M242.424,146.328V139.02H223.633v7.308l9.4,8.352Z" transform="translate(-205.886 -103.523)"/><path class="c" d="M205.193,170.665l-12.918-3.039a2.07,2.07,0,0,1-.543-.218l-10.463,6.1-10.055-6.4a2.078,2.078,0,0,1-.95.513l-12.918,3.039a4.176,4.176,0,0,0-3.22,4.065v8.176c0,.589,1.785-1.305,2.313-.805.24.243-.789,2.893-.225,2.893a42.888,42.888,0,0,0,25.055,8.155,40.644,40.644,0,0,0,25.054-8.155c.523,0-.522-1.566,0-2.088s2.088.63,2.088,0V174.73A4.175,4.175,0,0,0,205.193,170.665Z" transform="translate(-154.127 -124.442)"/><path class="d" d="M223.633,139.02v7.71c11.836,4.264,18.791-6.408,18.791-6.408v-1.3Z" transform="translate(-205.886 -103.523)"/><path class="e" d="M207.28,44.985,208.19,65a6.264,6.264,0,0,0,2.5,4.727l4.316,3.237a6.263,6.263,0,0,0,3.758,1.253h4.176a6.264,6.264,0,0,0,3.758-1.253l4.316-3.237a6.264,6.264,0,0,0,2.5-4.727l.91-20.014Z" transform="translate(-193.708 -33.499)"/><path class="b" d="M217.719,49.161c4.176,0,10.439-1.044,11.925-4.176H207.28L208.19,65a6.264,6.264,0,0,0,2.5,4.727L215,72.963a6.263,6.263,0,0,0,3.758,1.253h2.088c-2.088,0-6.264-4.176-6.264-9.4V52.293A3.334,3.334,0,0,1,217.719,49.161Z" transform="translate(-193.708 -33.499)"/><g transform="translate(0.001 47.7)"><path class="f" d="M331.665,192.887l6.765-6.077a4.168,4.168,0,0,1,.9,2.588v8.176a11.386,11.386,0,0,1-2.088,2.088l-3.008,2.1-4.3,2.271V196.77A5.221,5.221,0,0,1,331.665,192.887Z" transform="translate(-285.044 -186.81)"/><path class="f" d="M161.793,192.887l-6.765-6.077a4.168,4.168,0,0,0-.9,2.588v8.488a13.688,13.688,0,0,0,2.088,1.776s1.8,1.351,3.577,2.385a32.34,32.34,0,0,0,3.512,1.752l.219-7.029A5.219,5.219,0,0,0,161.793,192.887Z" transform="translate(-154.129 -186.81)"/></g><g transform="translate(14.616 40.212)"><path class="f" d="M214.353,157.755l9.542,8.588a36.007,36.007,0,0,0-5.97,4.068,1.339,1.339,0,0,1-2.074-.469l-4.483-9.863,1.418-2.127A1.045,1.045,0,0,1,214.353,157.755Z" transform="translate(-211.368 -157.487)"/><path class="f" d="M269.972,157.755l-9.542,8.588a36,36,0,0,1,5.97,4.068,1.339,1.339,0,0,0,2.074-.469l4.483-9.863-1.418-2.127A1.045,1.045,0,0,0,269.972,157.755Z" transform="translate(-247.903 -157.487)"/></g><path class="g" d="M285.216,16.008l.979,6.916c4.467.893,5.111,7.9,5.2,9.907a2.06,2.06,0,0,0,.33,1.02l1.7,2.644s-.583-4.372,2.088-7.308C295.521,29.187,296.438,11.832,285.216,16.008Z" transform="translate(-251.744 -11.437)"/><path class="b" d="M309.071,88.556l-1.179,4.716a1.255,1.255,0,0,1-1.218.951h0a1.255,1.255,0,0,1-1.246-1.1l-.6-4.823a2.161,2.161,0,0,1,2.144-2.429h0A2.161,2.161,0,0,1,309.071,88.556Z" transform="translate(-266.335 -63.945)"/><path class="h" d="M198.864,2.7l1.544,1.055c-6.981,5.155-5.676,14-5.676,14,2.088,2.088,2.088,7.308,2.088,7.308l2.088-2.088s-.806-6.031,3.132-8.351c3.654-2.153,6.851-1.044,10.113-1.044,8.743,0,11.19-3.295,10.766-7.308C222.7,4.191,219.525-.134,211.435,0,208.171.059,202.04,1.047,198.864,2.7Z" transform="translate(-184.292 0)"/><path class="d" d="M199.168,88.556l1.179,4.716a1.255,1.255,0,0,0,1.218.951h0a1.255,1.255,0,0,0,1.246-1.1l.6-4.823a2.161,2.161,0,0,0-2.144-2.429h0A2.161,2.161,0,0,0,199.168,88.556Z" transform="translate(-187.618 -63.945)"/><path class="f" d="M288.18,228.967h-5.22a2.088,2.088,0,0,0-2.088,2.088h9.4A2.088,2.088,0,0,0,288.18,228.967Z" transform="translate(-248.509 -170.503)"/><path class="i" d="M289.415,234.977h-7.8c-1.153,0-.78-2.691-.78-6.01h9.4C290.226,232.286,290.568,234.977,289.415,234.977Z" transform="translate(-248.468 -168.765)"/></g><g transform="translate(57 54)"><rect class="j" width="32" height="32" rx="3"/><g transform="translate(8.106 8.106)"><line class="k" y2="15.059" transform="translate(7.404)"/><line class="k" y2="15.061" transform="translate(15.061 7.973) rotate(90)"/></g></g></svg>
