<svg xmlns="http://www.w3.org/2000/svg" width="26.037" height="24.203" viewBox="0 0 26.037 24.203"><defs><style>.a,.c{fill:none;stroke:#fff;stroke-width:1.5px;}.b{fill:#365af8;}.c{stroke-linecap:round;}</style></defs><g transform="translate(-1021.23 -117.063)"><g transform="translate(1022 105.221)"><g transform="translate(0 12.675)"><g transform="translate(0 0)"><path class="a" d="M17.7,20.673,9.622,12.93a.886.886,0,0,0-1.243,0L.3,20.673a1,1,0,0,0-.239,1.069.919.919,0,0,0,.861.62h1.29v7.757a.544.544,0,0,0,.529.557H7.17a.544.544,0,0,0,.529-.557v-4.71h2.6v4.71a.544.544,0,0,0,.529.557h4.426a.544.544,0,0,0,.529-.557V22.361h1.29a.92.92,0,0,0,.861-.62A1,1,0,0,0,17.7,20.673Z" transform="translate(0 -12.675)"/></g></g></g><circle class="b" cx="4.5" cy="4.5" r="4.5" transform="translate(1034 130)"/><g transform="translate(1037.625 131.625)"><line class="c" y2="8.891" transform="translate(4.371)"/><line class="c" y2="8.892" transform="translate(8.892 4.707) rotate(90)"/></g></g></svg>