<?xml version="1.0" encoding="utf-8"?>
<!-- Generator: Adobe Illustrator 24.3.0, SVG Export Plug-In . SVG Version: 6.00 Build 0)  -->
<svg version="1.1" id="Layer_1" xmlns="http://www.w3.org/2000/svg" xmlns:xlink="http://www.w3.org/1999/xlink" x="0px" y="0px"
	 viewBox="0 0 83.2 83.2" style="enable-background:new 0 0 83.2 83.2;" xml:space="preserve">
<style type="text/css">
	.st0{fill:#161643;stroke:#161643;stroke-width:0.7;}
</style>
<g id="API" transform="translate(-1.65 -1.65)">
	<path id="Path_24759" class="st0" d="M77.7,2H8.9C5.1,2,2,5.1,2,8.9v68.8c0,3.8,3.1,6.9,6.9,6.9h68.8c3.8,0,6.9-3.1,6.9-6.9V8.9
		C84.5,5.1,81.4,2,77.7,2z M8.9,4.8h68.8c2.3,0,4.1,1.8,4.1,4.1v6.9h-77V8.9C4.8,6.6,6.6,4.8,8.9,4.8z M4.8,77.7V18.5h77v27
		c-0.8,0.2-1.5,0.5-2.1,1.1l-2.8,2.8c-0.7-0.3-1.3-0.6-2-0.8v-3.9c0-2.3-1.8-4.1-4.1-4.1h-5.5c-2.3,0-4.1,1.8-4.1,4.1v3.9
		c-0.7,0.2-1.4,0.5-2,0.8l-2.8-2.8c-1.6-1.6-4.2-1.6-5.8,0l-3.9,3.9c-1.6,1.6-1.6,4.2,0,5.8c0,0,0,0,0,0l2.8,2.8
		c-0.3,0.7-0.6,1.3-0.8,2h-3.9c-2.3,0-4.1,1.8-4.1,4.1l0,0v5.5c0,2.3,1.8,4.1,4.1,4.1c0,0,0,0,0,0h3.9c0.2,0.7,0.5,1.4,0.8,2
		l-2.8,2.8c-0.6,0.6-0.9,1.3-1.1,2.1H8.9C6.6,81.8,4.8,79.9,4.8,77.7z M77.7,81.8H48.5c0,0,0.1-0.1,0.1-0.1l3.5-3.5
		c0.4-0.4,0.5-1.1,0.2-1.6c-0.6-1.1-1.1-2.2-1.4-3.4c-0.2-0.6-0.7-1-1.3-1h-4.9c-0.8,0-1.4-0.6-1.4-1.4l0,0v-5.5
		c0-0.8,0.6-1.4,1.4-1.4h4.9c0.6,0,1.1-0.4,1.3-1c0.4-1.2,0.8-2.3,1.4-3.4c0.3-0.5,0.2-1.2-0.2-1.6l-3.5-3.5c-0.5-0.5-0.5-1.4,0-1.9
		c0,0,0,0,0,0l3.9-3.9c0.5-0.5,1.4-0.5,1.9,0l3.5,3.5c0.4,0.4,1.1,0.5,1.6,0.2c1.1-0.6,2.2-1.1,3.4-1.4c0.6-0.2,1-0.7,1-1.3v-4.9
		c0-0.8,0.6-1.4,1.4-1.4l0,0h5.5c0.8,0,1.4,0.6,1.4,1.4c0,0,0,0,0,0v4.9c0,0.6,0.4,1.1,1,1.3c1.2,0.4,2.3,0.8,3.4,1.4
		c0.5,0.3,1.2,0.2,1.6-0.2l3.5-3.5c0,0,0.1-0.1,0.1-0.1v29.2C81.8,79.9,79.9,81.8,77.7,81.8C77.7,81.8,77.7,81.8,77.7,81.8
		L77.7,81.8z"/>
	<path id="Path_24760" class="st0" d="M11.6,14.4c2.3,0,4.1-1.8,4.1-4.1s-1.8-4.1-4.1-4.1c-2.3,0-4.1,1.8-4.1,4.1
		C7.5,12.5,9.3,14.4,11.6,14.4L11.6,14.4z M11.6,8.9c0.8,0,1.4,0.6,1.4,1.4c0,0.8-0.6,1.4-1.4,1.4s-1.4-0.6-1.4-1.4c0,0,0,0,0,0
		C10.3,9.5,10.9,8.9,11.6,8.9L11.6,8.9z"/>
	<path id="Path_24761" class="st0" d="M21.3,14.4c2.3,0,4.1-1.8,4.1-4.1c0-2.3-1.8-4.1-4.1-4.1c-2.3,0-4.1,1.8-4.1,4.1
		C17.1,12.5,19,14.4,21.3,14.4L21.3,14.4z M21.3,8.9c0.8,0,1.4,0.6,1.4,1.4s-0.6,1.4-1.4,1.4s-1.4-0.6-1.4-1.4
		C19.9,9.5,20.5,8.9,21.3,8.9C21.3,8.9,21.3,8.9,21.3,8.9L21.3,8.9z"/>
	<path id="Path_24762" class="st0" d="M30.9,14.4c2.3,0,4.1-1.8,4.1-4.1c0-2.3-1.8-4.1-4.1-4.1c-2.3,0-4.1,1.8-4.1,4.1
		C26.8,12.5,28.6,14.4,30.9,14.4L30.9,14.4z M30.9,8.9c0.8,0,1.4,0.6,1.4,1.4s-0.6,1.4-1.4,1.4s-1.4-0.6-1.4-1.4
		C29.5,9.5,30.1,8.9,30.9,8.9C30.9,8.9,30.9,8.9,30.9,8.9L30.9,8.9z"/>
	<path id="Path_24763" class="st0" d="M68,57c-6.1,0-11,4.9-11,11c0,6.1,4.9,11,11,11c6.1,0,11-4.9,11-11C79,61.9,74.1,57,68,57z
		 M68,76.3c-4.6,0-8.3-3.7-8.2-8.3c0-4.6,3.7-8.3,8.3-8.2c4.6,0,8.2,3.7,8.2,8.2C76.3,72.6,72.6,76.3,68,76.3
		C68,76.3,68,76.3,68,76.3z"/>
	<path id="Path_24764" class="st0" d="M11.6,43.3c0.8,0,1.4-0.6,1.4-1.4V35h5.5v6.9c0,0.8,0.6,1.4,1.4,1.4s1.4-0.6,1.4-1.4V29.5
		c0-3-2.5-5.5-5.5-5.5s-5.5,2.5-5.5,5.5v12.4C10.3,42.6,10.9,43.3,11.6,43.3z M15.8,26.8c1.5,0,2.8,1.2,2.8,2.7v0v2.8H13v-2.8
		C13,28,14.2,26.8,15.8,26.8z"/>
	<path id="Path_24765" class="st0" d="M25.4,43.3c0.8,0,1.4-0.6,1.4-1.4V35h4.1c2.3,0,4.1-1.8,4.1-4.1v-2.8c0-2.3-1.8-4.1-4.1-4.1
		h-5.5c-0.8,0-1.4,0.6-1.4,1.4c0,0,0,0,0,0v16.5C24,42.6,24.6,43.3,25.4,43.3C25.4,43.3,25.4,43.3,25.4,43.3z M26.8,26.8h4.1
		c0.8,0,1.4,0.6,1.4,1.4v2.8c0,0.8-0.6,1.4-1.4,1.4h-4.1L26.8,26.8z"/>
	<path id="Path_24766" class="st0" d="M39.1,43.3c0.8,0,1.4-0.6,1.4-1.4V25.4c0-0.8-0.6-1.4-1.4-1.4c-0.8,0-1.4,0.6-1.4,1.4v16.5
		C37.8,42.6,38.4,43.3,39.1,43.3C39.1,43.3,39.1,43.3,39.1,43.3z"/>
	<path id="Path_24767" class="st0" d="M11.6,51.5h27.5c0.8,0,1.4-0.6,1.4-1.4s-0.6-1.4-1.4-1.4H11.6c-0.8,0-1.4,0.6-1.4,1.4
		S10.9,51.5,11.6,51.5z"/>
	<path id="Path_24768" class="st0" d="M39.1,57H11.6c-0.8,0-1.4,0.6-1.4,1.4s0.6,1.4,1.4,1.4h27.5c0.8,0,1.4-0.6,1.4-1.4
		S39.9,57,39.1,57z"/>
	<path id="Path_24769" class="st0" d="M35,65.3H11.6c-0.8,0-1.4,0.6-1.4,1.4s0.6,1.4,1.4,1.4H35c0.8,0,1.4-0.6,1.4-1.4
		S35.8,65.3,35,65.3z"/>
</g>
</svg>
