<svg xmlns="http://www.w3.org/2000/svg" width="20" height="20" viewBox="0 0 20 20"><defs><style>.a{fill:#385cf8;}.b{fill:none;}.c{fill:#fff;}</style></defs><rect class="a" width="20" height="20" rx="3"/><g transform="translate(3.065 0.887)"><rect class="b" width="12.251" height="11.418" transform="translate(1.029 3)"/><g transform="translate(1.344 2.924)"><g transform="translate(0 0)"><g transform="translate(0)"><path class="c" d="M11.153,9.375,1.783,4.813a1.238,1.238,0,0,0-1.659.579A1.257,1.257,0,0,0,.089,6.4l1.464,3.681H11.781A1.237,1.237,0,0,0,11.153,9.375Z" transform="translate(0 -4.688)"/></g><g transform="translate(0.001 6.229)"><path class="c" d="M1.584,259.9.12,263.586a1.255,1.255,0,0,0,.7,1.627,1.228,1.228,0,0,0,1-.036l9.37-4.564a1.237,1.237,0,0,0,.628-.708Z" transform="translate(-0.032 -259.904)"/></g></g></g></g></svg>