<svg xmlns="http://www.w3.org/2000/svg" width="29.301" height="30.348" viewBox="0 0 29.301 30.348"><defs><style>.a{fill:#178aed;}.b{fill:#00306f;}.c{fill:#013b88;}.d{fill:#2699fb;}.e{fill:#52afff;}.f{fill:#d5d5d5;}.g{fill:#fff;}</style></defs><g transform="translate(-32 -24)"><path class="a" d="M36.709,240l-1.731.577A4.356,4.356,0,0,0,32,244.709v6.146a3.656,3.656,0,0,0,3.252,3.634l1.457.162.523-1.047Z" transform="translate(0 -201.873)"/><path class="a" d="M400.523,240l1.731.577a4.356,4.356,0,0,1,2.978,4.132v6.146a3.656,3.656,0,0,1-3.252,3.634l-1.457.162L400,252.558Z" transform="translate(-343.931 -201.873)"/><path class="b" d="M148.709,28.186v1.046H144V28.186L144.772,24h3.139Z" transform="translate(-104.675)"/><path class="b" d="M296,28.186v1.046h4.709V28.186L299.937,24H296.8Z" transform="translate(-246.733)"/><path class="c" d="M234.616,51.139a.523.523,0,0,1-.523-.523V49.57a.523.523,0,0,0-1.046,0v1.046a.523.523,0,0,1-1.046,0V49.57a1.57,1.57,0,0,1,3.139,0v1.046A.523.523,0,0,1,234.616,51.139Z" transform="translate(-186.919 -22.43)"/><path class="d" d="M123.883,97.941v14.651a1.57,1.57,0,0,1-1.57,1.57H105.57a1.57,1.57,0,0,1-1.57-1.57V97.941l.967-6.285.08-.517V89.831A1.832,1.832,0,0,1,106.877,88h14.128a1.832,1.832,0,0,1,1.831,1.831v1.308l.08.517Z" transform="translate(-67.291 -59.814)"/><path class="e" d="M412.709,244.709a4.356,4.356,0,0,0-2.978-4.132L408,240v5.756h.276a9.912,9.912,0,0,0,4.433-1.046Z" transform="translate(-351.408 -201.873)"/><path class="e" d="M32,244.709a4.356,4.356,0,0,1,2.978-4.132L36.709,240v5.756h-.276A9.912,9.912,0,0,1,32,244.709Z" transform="translate(0 -201.873)"/><rect class="a" width="15" height="10" rx="5" transform="translate(38.797 41.555)"/><path class="e" d="M145.177,296h12.3a1.177,1.177,0,0,1,1.177,1.177v1.831a2.224,2.224,0,0,1-2.224,2.224h-10.2A2.224,2.224,0,0,1,144,299.009v-1.831A1.177,1.177,0,0,1,145.177,296Z" transform="translate(-104.675 -254.21)"/><path class="e" d="M156.95,172.186H145.7a1.7,1.7,0,0,1-1.7-1.7V168h14.651v2.485A1.7,1.7,0,0,1,156.95,172.186Z" transform="translate(-104.675 -134.582)"/><path class="c" d="M177.308,154.313A1.308,1.308,0,0,1,176,153.005V136h2.616v17.005A1.308,1.308,0,0,1,177.308,154.313Z" transform="translate(-134.582 -104.675)"/><path class="c" d="M297.308,154.313A1.308,1.308,0,0,1,296,153.005V136h2.616v17.005A1.308,1.308,0,0,1,297.308,154.313Z" transform="translate(-246.733 -104.675)"/><path class="a" d="M136.73,129.041a.537.537,0,0,1-.08.006H118.86a.537.537,0,0,1-.08-.006l.08-.517V128h17.79v.523Z" transform="translate(-81.104 -97.198)"/><path class="f" d="M184,304h1.57v.523H184Z" transform="translate(-142.059 -261.687)"/><path class="f" d="M304,304h1.57v.523H304Z" transform="translate(-254.21 -261.687)"/><path class="g" d="M171.139,291.663h-2.616a.523.523,0,0,1-.523-.523v-2.616a.523.523,0,0,1,.523-.523h2.616a.523.523,0,0,1,.523.523v2.616A.523.523,0,0,1,171.139,291.663Zm-2.093-1.047h1.57v-1.57h-1.57Z" transform="translate(-127.105 -246.733)"/><path class="g" d="M291.139,291.663h-2.616a.523.523,0,0,1-.523-.523v-2.616a.523.523,0,0,1,.523-.523h2.616a.523.523,0,0,1,.523.523v2.616A.523.523,0,0,1,291.139,291.663Zm-2.093-1.047h1.57v-1.57h-1.57Z" transform="translate(-239.256 -246.733)"/><g transform="translate(41.418 31.849)"><path class="b" d="M176,144h2.616v1.046H176Z" transform="translate(-176 -144)"/><path class="b" d="M296,144h2.616v1.046H296Z" transform="translate(-288.151 -144)"/></g></g></svg>