<svg xmlns="http://www.w3.org/2000/svg" width="21" height="21" viewBox="0 0 21 21"><defs><style>.a,.b{fill:#9696b9;}.a{opacity:0.005;}</style></defs><g transform="translate(-11.332 -5)"><rect class="a" width="21" height="21" transform="translate(11.332 5)"/><path class="b" d="M24264.262,22931.934H24250.4v-15.871a.758.758,0,0,1,.2-.51.771.771,0,0,1,.576-.262.762.762,0,0,1,.508.193l1.193,1.061a.1.1,0,0,0,.061.021.078.078,0,0,0,.057-.021l1.625-1.455a.778.778,0,0,1,1.035,0l1.625,1.455a.077.077,0,0,0,.055.021.078.078,0,0,0,.057-.021l1.625-1.455a.778.778,0,0,1,1.035,0l1.627,1.455a.077.077,0,0,0,.055.021.1.1,0,0,0,.061-.021l1.193-1.061a.755.755,0,0,1,.508-.193.773.773,0,0,1,.32.072.746.746,0,0,1,.451.7v15.871Zm-11.01-5.7a.351.351,0,0,0-.348.348.345.345,0,0,0,.348.342h8.158a.341.341,0,0,0,.348-.342.348.348,0,0,0-.348-.348Zm0-2.582a.345.345,0,0,0-.348.342.348.348,0,0,0,.348.348h8.158a.345.345,0,1,0,0-.689Zm0-2.582a.345.345,0,0,0-.348.342.351.351,0,0,0,.348.348h4.287a.351.351,0,0,0,.346-.348.343.343,0,0,0-.346-.342Z" transform="translate(-24235 -22908)"/></g></svg>