<svg xmlns="http://www.w3.org/2000/svg" width="21.002" height="21" viewBox="0 0 21.002 21"><defs><style>.a,.b{fill:#161643;}.a{opacity:0.005;}</style></defs><g transform="translate(-11.332 -5)"><rect class="a" width="21" height="21" transform="translate(11.332 5)"/><path class="b" d="M24261.627,22931.7h-8.166a.345.345,0,0,1,0-.689h8.166a.345.345,0,0,1,0,.689Zm-11.012-.289,0,0a10,10,0,1,1,13.863-.41v-10.158a.764.764,0,0,0-.455-.707.778.778,0,0,0-.83.123l-1.193,1.059a.074.074,0,0,1-.055.023.091.091,0,0,1-.061-.023l-1.627-1.455a.773.773,0,0,0-1.027,0l-1.627,1.455a.078.078,0,0,1-.057.023.1.1,0,0,1-.059-.023l-1.621-1.455a.788.788,0,0,0-.52-.2.767.767,0,0,0-.516.2l-1.625,1.455a.091.091,0,0,1-.061.023.078.078,0,0,1-.057-.023l-1.193-1.059a.778.778,0,0,0-1.09.066.742.742,0,0,0-.189.518v10.57Zm11.012-2.293h-8.166a.345.345,0,0,1,0-.689h8.166a.345.345,0,0,1,0,.689Zm-3.879-2.584h-4.287a.344.344,0,0,1,0-.687h4.287a.344.344,0,1,1,0,.688Z" transform="translate(-24235 -22908)"/></g></svg>