<svg xmlns="http://www.w3.org/2000/svg" width="19.157" height="16.948" viewBox="0 0 19.157 16.948"><defs><style>.a{fill:#002cfa;stroke:#002cfa;stroke-width:0.3px;}</style></defs><g transform="translate(0.15 -29.85)"><g transform="translate(0 30)"><g transform="translate(0 0)"><path class="a" d="M0,30V46.648H18.857V30ZM17.752,45.543H1.1V33.315H17.752Zm0-13.333H1.1V31.1H17.752Z" transform="translate(0 -30)"/></g></g><g transform="translate(9.981 34.788)"><g transform="translate(0 0)"><path class="a" d="M271,160v9.281h6.666V160Zm5.561,8.176H272.1V161.1h4.457Z" transform="translate(-271 -160)"/></g></g><g transform="translate(2.215 34.795)"><g transform="translate(0 0)"><rect class="a" width="6.676" height="1.128"/></g></g><g transform="translate(2.215 36.958)"><g transform="translate(0 0)"><rect class="a" width="4.419" height="1.128"/></g></g><g transform="translate(2.215 39.967)"><g transform="translate(0 0)"><rect class="a" width="6.676" height="1.128"/></g></g><g transform="translate(2.215 42.129)"><g transform="translate(0 0)"><rect class="a" width="4.419" height="1.128"/></g></g></g></svg>