<svg xmlns="http://www.w3.org/2000/svg" id="Group_10756" width="40.256" height="40.256" data-name="Group 10756" viewBox="0 0 40.256 40.256">
    <defs>
        <style>
            .cls-1{fill:#385cf8}.cls-2{fill:#fff}
        </style>
    </defs>
    <rect id="Rectangle_1758" width="31" height="31" class="cls-1" data-name="Rectangle 1758" rx="15.5" transform="translate(1.84 2.46)"/>
    <path id="info_icn" d="M20.128 0a20.128 20.128 0 1 0 20.128 20.128A20.187 20.187 0 0 0 20.128 0zm-.2 33.412a2.818 2.818 0 1 1 2.818-2.818 2.752 2.752 0 0 1-2.819 2.818zm5.435-15.7l-2.214 2.415a2.459 2.459 0 0 0-.805 1.812 2.447 2.447 0 0 1-2.415 2.415 2.325 2.325 0 0 1-2.415-2.415 4.492 4.492 0 0 1 1.61-3.623l1.809-2.216a4.569 4.569 0 0 0 1.409-2.818 2.112 2.112 0 0 0-2.214-2.214 2.368 2.368 0 0 0-2.415 1.812 2.628 2.628 0 0 1-2.413 1.411 2.112 2.112 0 0 1-2.214-2.214 2.188 2.188 0 0 1 .2-1.006c.805-2.415 3.22-4.227 6.843-4.227 4.227 0 7.045 2.818 7.045 6.441a6.6 6.6 0 0 1-1.813 4.427z" class="cls-2"/>
</svg>
