<svg xmlns="http://www.w3.org/2000/svg" id="bookingcom" width="262.318" height="44.511" viewBox="0 0 262.318 44.511">
    <defs>
        <style>
            .cls-1{fill:#003580}.cls-2{fill:#009fe3}.cls-3{clip-path:url(#clip-path)}.cls-4{clip-path:url(#clip-path-2)}.cls-5{fill:#698396}.cls-6{clip-path:url(#clip-path-4)}.cls-7{clip-path:url(#clip-path-7)}
        </style>
        <clipPath id="clip-path">
            <path id="Path_16356" d="M736.875-36.215h262.318V8.3H736.875z" class="cls-1" data-name="Path 16356" transform="translate(-736.875 36.215)"/>
        </clipPath>
        <clipPath id="clip-path-2">
            <path id="Path_16355" d="M736.875 8.3h262.318v-44.515H736.875z" class="cls-1" data-name="Path 16355" transform="translate(-736.875 36.215)"/>
        </clipPath>
        <clipPath id="clip-path-4">
            <path id="Path_16360" d="M736.875-35.82h262.262V7.755H736.875z" class="cls-1" data-name="Path 16360" transform="translate(-736.875 35.82)"/>
        </clipPath>
        <clipPath id="clip-path-7">
            <path id="Path_16364" d="M736.875 8.3h262.318v-44.515H736.875z" class="cls-2" data-name="Path 16364" transform="translate(-736.875 36.215)"/>
        </clipPath>
    </defs>
    <g id="Group_4788" class="cls-3" data-name="Group 4788">
        <g id="Group_4787" class="cls-4" data-name="Group 4787">
            <path id="Path_16352" d="M783.2-31.83a3.986 3.986 0 0 1 3.986-3.986 3.986 3.986 0 0 1 3.986 3.986 3.989 3.989 0 0 1-3.986 3.838 3.989 3.989 0 0 1-3.986-3.838" class="cls-5" data-name="Path 16352" transform="translate(-680.33 36.702)"/>
            <path id="Path_16353" d="M811.519-19.851a3.988 3.988 0 0 1 3.978-4 4 4 0 0 1 4 4 4 4 0 0 1-4 4 3.991 3.991 0 0 1-3.978-4" class="cls-5" data-name="Path 16353" transform="translate(-645.759 51.307)"/>
            <path id="Path_16354" d="M760.628-7.543c-3.431 0-5.818-2.726-5.818-6.623s2.387-6.618 5.821-6.618c3.45 0 5.863 2.723 5.863 6.618 0 3.958-2.36 6.623-5.866 6.623zm0-19.062A12.078 12.078 0 0 0 748.1-14.166a12.078 12.078 0 0 0 12.528 12.439c7.292 0 12.583-5.23 12.583-12.436S767.92-26.6 760.631-26.6m57.7 13.063a5.936 5.936 0 0 0-.949-1.341l-.222-.23.233-.222a10.017 10.017 0 0 0 1-1.252l6.412-9.527h-7.784L812.2-18.66a1.875 1.875 0 0 1-1.646.6h-1.1v-14.09c0-2.817-1.758-3.2-3.653-3.2h-3.241l.008 33.257h6.9v-9.977h.647c.786 0 1.318.092 1.565.519l3.8 7.178c1.063 1.949 2.12 2.279 4.114 2.279h5.282L820.939-8.6l-2.609-4.941M851.8-26.66a9.378 9.378 0 0 0-7 2.879l-.417.422-.15-.575c-.367-1.413-1.61-2.187-3.478-2.187h-3.089l.017 24.021h6.848v-11.07a8.912 8.912 0 0 1 .427-2.879 5.627 5.627 0 0 1 5.544-4.208c2.137 0 2.973 1.13 2.973 4.044v10.461c0 2.487 1.152 3.65 3.642 3.65h3.259l-.011-15.278c0-6.068-2.962-9.277-8.566-9.277m-21.682.544h-3.245l.022 18.573v5.446h3.461l.122.006 1.615-.006h1.6V-2.1h.011l.014-20.361c0-2.457-1.174-3.647-3.6-3.647m-42.6 18.568c-3.431 0-5.821-2.726-5.821-6.623s2.39-6.618 5.824-6.618 5.863 2.723 5.863 6.618c0 3.958-2.36 6.623-5.863 6.623zm0-19.062c-7.267 0-12.541 5.233-12.541 12.439s5.274 12.439 12.543 12.439 12.583-5.23 12.583-12.436-5.295-12.44-12.576-12.44" class="cls-5" data-name="Path 16354" transform="translate(-723.179 37.269)"/>
        </g>
    </g>
    <g id="Group_4791" class="cls-3" data-name="Group 4791">
        <g id="Group_4790" class="cls-6" data-name="Group 4790" transform="translate(0 .877)">
            <g id="Group_4789" class="cls-4" data-name="Group 4789" transform="translate(0 -.877)">
                <path id="Path_16357" d="M838.836-12.351c-3.431 0-5.824-2.726-5.824-6.623s2.393-6.618 5.824-6.618c3.447 0 5.865 2.723 5.865 6.618-.001 3.958-2.359 6.623-5.865 6.623zm0-19.062c-7.268 0-12.539 5.232-12.539 12.439s5.271 12.439 12.539 12.439c7.284 0 12.583-5.23 12.583-12.436s-5.3-12.441-12.583-12.441" class="cls-5" data-name="Path 16357" transform="translate(-627.719 42.077)"/>
                <path id="Path_16358" d="M811.781-13.349c-3.744 0-5.077-3.264-5.077-6.326 0-1.349.342-5.743 4.719-5.743 2.174 0 5.069.622 5.069 5.968 0 5.044-2.563 6.101-4.711 6.101zm8.267-17.577a2.975 2.975 0 0 0-2.8 1.466l-.189.366-.316-.278a9.329 9.329 0 0 0-6.3-2.09c-6.4 0-10.715 4.811-10.715 11.964S804.183-7.35 810.565-7.35a8.431 8.431 0 0 0 5.268-1.543l.528-.4v.666c0 3.209-2.073 4.98-5.835 4.98a13.822 13.822 0 0 1-4.608-.849 2.033 2.033 0 0 0-2.89 1.382l-.544 1.344-.768 1.97.475.253a18.724 18.724 0 0 0 8.375 2.04c5.829 0 12.642-2.984 12.642-11.384l.025-22.032h-3.185" class="cls-5" data-name="Path 16358" transform="translate(-660.158 42.018)"/>
            </g>
        </g>
    </g>
    <g id="Group_4793" class="cls-3" data-name="Group 4793">
        <g id="Group_4792" class="cls-7" data-name="Group 4792">
            <path id="Path_16362" d="M748.825-7.824l-5.574-.006v-6.662c0-1.427.553-2.165 1.771-2.337h3.8a4.171 4.171 0 0 1 4.469 4.477 4.149 4.149 0 0 1-4.469 4.525zM743.251-25.8v-1.754c0-1.535.65-2.265 2.074-2.359h2.853A3.6 3.6 0 0 1 752.089-26c0 1.865-1 4.044-3.822 4.044h-5.016zm12.692 6.651l-1.007-.566.88-.752a8.045 8.045 0 0 0 2.737-6.273c0-5.23-4.053-8.605-10.329-8.605h-7.977a3.5 3.5 0 0 0-3.37 3.453v29.673h11.489c6.976 0 11.478-3.8 11.478-9.679a8.08 8.08 0 0 0-3.9-7.251" class="cls-5" data-name="Path 16362" transform="translate(-736.875 37.275)"/>
            <path id="Path_16363" d="M895.049-31.4a9.437 9.437 0 0 0-7.35 3.561l-.494.627-.388-.7c-1.272-2.312-3.454-3.486-6.488-3.486a8.69 8.69 0 0 0-6.309 2.831l-.65.7-.25-.924c-.361-1.332-1.546-2.062-3.339-2.062H866.9l-.028 23.928h6.537v-10.564a11.822 11.822 0 0 1 .347-2.8c.624-2.554 2.34-5.3 5.224-5.024 1.776.172 2.648 1.546 2.648 4.2v14.186h6.584v-10.562a9.583 9.583 0 0 1 .369-2.89c.528-2.437 2.32-4.935 5.1-4.935 2.015 0 2.759 1.138 2.759 4.2v10.687c0 2.415 1.077 3.5 3.495 3.5h3.076l.006-15.276c0-6.1-2.687-9.2-7.972-9.2m-59.5 16.167c-.019.025-2.831 2.99-6.537 2.99-3.376 0-6.784-2.071-6.784-6.693 0-3.992 2.643-6.781 6.429-6.781 1.227 0 2.626.439 2.845 1.18l.03.125a2.4 2.4 0 0 0 2.332 1.768l3.581.006v-3.131c0-4.13-5.255-5.629-8.788-5.629-7.562 0-13.047 5.263-13.047 12.514s5.424 12.5 12.908 12.5a13.574 13.574 0 0 0 10.054-4.308l.189-.233-2.837-4.705-.375.4" class="cls-5" data-name="Path 16363" transform="translate(-640.762 42.091)"/>
        </g>
    </g>
</svg>
