<svg xmlns="http://www.w3.org/2000/svg" width="408.006" height="69.232" viewBox="0 0 408.006 69.232">
    <defs>
        <style>
            .cls-1{clip-path:url(#clip-path)}.cls-2{clip-path:url(#clip-path-2)}.cls-3{fill:#273b7d}.cls-4{fill:#499fdd}.cls-5{clip-path:url(#clip-path-4)}
        </style>
        <clipPath id="clip-path">
            <path id="Path_24791" d="M736.875-36.215h408.006v69.232H736.875z" data-name="Path 24791" transform="translate(-736.875 36.215)"/>
        </clipPath>
        <clipPath id="clip-path-2">
            <path id="Path_24790" d="M736.875 33.017h408.006v-69.232H736.875z" data-name="Path 24790" transform="translate(-736.875 36.215)"/>
        </clipPath>
        <clipPath id="clip-path-4">
            <path id="Path_24795" d="M736.875-35.82h407.919v67.776H736.875z" data-name="Path 24795" transform="translate(-736.875 35.82)"/>
        </clipPath>
    </defs>
    <g id="bookingcom" transform="translate(-.25 .145)">
        <g id="Group_10848" class="cls-1" data-name="Group 10848" transform="translate(.25 -.145)">
            <g id="Group_10847" class="cls-2" data-name="Group 10847">
                <path id="Path_24787" d="M783.2-29.616a6.2 6.2 0 0 1 6.2-6.2 6.2 6.2 0 0 1 6.2 6.2 6.2 6.2 0 0 1-6.2 5.969 6.2 6.2 0 0 1-6.2-5.969" class="cls-3" data-name="Path 24787" transform="translate(-623.199 37.194)"/>
                <path id="Path_24788" d="M811.519-17.63a6.2 6.2 0 0 1 6.187-6.222 6.217 6.217 0 0 1 6.217 6.217 6.217 6.217 0 0 1-6.217 6.217 6.207 6.207 0 0 1-6.187-6.217" class="cls-4" data-name="Path 24788" transform="translate(-553.698 66.556)"/>
                <path id="Path_24789" d="M767.589 7.9c-5.337 0-9.05-4.24-9.05-10.3s3.713-10.293 9.054-10.293c5.366 0 9.119 4.236 9.119 10.293-.001 6.157-3.67 10.3-9.123 10.3zm0-29.648c-11.295 0-19.494 8.139-19.494 19.347s8.2 19.347 19.494 19.347c11.342 0 19.571-8.134 19.571-19.343s-8.229-19.351-19.567-19.351m89.739 20.32a9.227 9.227 0 0 0-1.476-2.085l-.345-.358.363-.345a15.539 15.539 0 0 0 1.559-1.947l9.973-14.818H855.3L847.808-9.39a2.916 2.916 0 0 1-2.56.933h-1.705v-21.916c0-4.382-2.733-4.978-5.682-4.978h-5.052l.013 51.728h10.725V.86h1.006c1.222 0 2.051.142 2.435.807l5.912 11.165c1.654 3.031 3.3 3.545 6.4 3.545h8.216L861.4 6.257l-4.059-7.685m52.057-20.4a14.588 14.588 0 0 0-10.898 4.472l-.648.656-.233-.894c-.57-2.2-2.5-3.4-5.41-3.4h-4.805l.03 37.36h10.656V-.854a13.84 13.84 0 0 1 .665-4.477 8.751 8.751 0 0 1 8.622-6.545c3.325 0 4.624 1.757 4.624 6.291v16.272c0 3.868 1.792 5.678 5.665 5.678h5.069L922.717-7.4c0-9.438-4.607-14.429-13.324-14.429m-33.724.846h-5.047l.035 28.889v8.471h5.384l.19.009 2.512-.009h2.5v-.013h.017l.022-31.669c0-3.821-1.826-5.673-5.6-5.673M809.421 7.9c-5.337 0-9.054-4.24-9.054-10.3s3.718-10.293 9.058-10.293 9.118 4.236 9.118 10.293c0 6.157-3.67 10.3-9.118 10.3zm0-29.648c-11.3 0-19.506 8.139-19.506 19.347s8.2 19.347 19.511 19.347C820.75 16.947 829 8.813 829-2.4s-8.246-19.351-19.571-19.351" class="cls-3" data-name="Path 24789" transform="translate(-709.341 38.335)"/>
            </g>
        </g>
        <g id="Group_10851" class="cls-1" data-name="Group 10851" transform="translate(.25 -.145)">
            <g id="Group_10850" class="cls-5" data-name="Group 10850" transform="translate(0 1.364)">
                <g id="Group_10849" class="cls-2" data-name="Group 10849" transform="translate(0 -1.364)">
                    <path id="Path_24792" d="M845.8-1.764c-5.337 0-9.058-4.24-9.058-10.3s3.721-10.293 9.058-10.293c5.362 0 9.123 4.236 9.123 10.293 0 6.155-3.67 10.3-9.123 10.3zm0-29.648c-11.3 0-19.5 8.139-19.5 19.347s8.2 19.347 19.5 19.347c11.329 0 19.571-8.134 19.571-19.343s-8.246-19.352-19.571-19.352" class="cls-4" data-name="Path 24792" transform="translate(-517.43 48)"/>
                    <path id="Path_24793" d="M818.478-3.289c-5.824 0-7.9-5.077-7.9-9.84 0-2.1.531-8.933 7.34-8.933 3.381 0 7.884.967 7.884 9.283-.002 7.845-3.983 9.49-7.324 9.49zm12.858-27.339a4.626 4.626 0 0 0-4.356 2.28l-.294.57-.492-.432c-1.719-1.485-4.8-3.251-9.805-3.251-9.961 0-16.666 7.482-16.666 18.609s6.938 18.893 16.864 18.893a13.114 13.114 0 0 0 8.195-2.4l.82-.617v1.035c0 4.991-3.225 7.746-9.075 7.746a21.5 21.5 0 0 1-7.167-1.321c-2.254-.682-3.584-.117-4.495 2.15l-.846 2.09-1.2 3.057.739.393a29.124 29.124 0 0 0 13.026 3.173c9.067 0 19.662-4.641 19.662-17.706l.039-34.268h-4.953" class="cls-3" data-name="Path 24793" transform="translate(-582.646 47.881)"/>
                </g>
            </g>
        </g>
        <g id="Group_10853" class="cls-1" data-name="Group 10853" transform="translate(.25 -.145)">
            <g id="Group_10852" class="cls-2" data-name="Group 10852">
                <path id="Path_24797" d="M755.462 7.462l-8.67-.009V-2.909c0-2.219.859-3.368 2.755-3.635h5.915c4.218 0 6.947 2.66 6.951 6.964 0 4.421-2.664 7.038-6.951 7.038zm-8.67-27.96v-2.729c0-2.388 1.01-3.523 3.225-3.67h4.438c3.8 0 6.083 2.275 6.083 6.088 0 2.9-1.563 6.291-5.945 6.291h-7.8zm19.74 10.345l-1.567-.881 1.369-1.17a12.513 12.513 0 0 0 4.257-9.758c0-8.134-6.3-13.384-16.066-13.384h-12.408a5.44 5.44 0 0 0-5.242 5.371v46.154h17.87c10.85 0 17.853-5.906 17.853-15.055 0-4.926-2.262-9.136-6.066-11.277" class="cls-3" data-name="Path 24797" transform="translate(-736.875 38.347)"/>
                <path id="Path_24798" d="M939.167-31.4a14.679 14.679 0 0 0-11.433 5.539l-.768.976-.6-1.092c-1.978-3.6-5.371-5.423-10.09-5.423a13.517 13.517 0 0 0-9.814 4.4l-1.01 1.092-.388-1.438c-.562-2.072-2.405-3.208-5.194-3.208h-4.477l-.043 37.217h10.168V-9.762a18.4 18.4 0 0 1 .54-4.352c.971-3.972 3.64-8.242 8.125-7.815 2.764.268 4.119 2.4 4.119 6.532V6.666h10.242V-9.762a14.91 14.91 0 0 1 .574-4.495c.821-3.791 3.61-7.677 7.936-7.677 3.135 0 4.292 1.77 4.292 6.537V1.226c0 3.756 1.675 5.44 5.436 5.44h4.784l.009-23.759c0-9.494-4.18-14.308-12.4-14.308m-92.55 25.145c-.03.039-4.4 4.65-10.168 4.65-5.25 0-10.552-3.221-10.552-10.41 0-6.209 4.11-10.548 10-10.548 1.909 0 4.084.682 4.426 1.835l.047.194A3.739 3.739 0 0 0 844-17.784l5.57.009v-4.87c0-6.424-8.173-8.756-13.67-8.756-11.761 0-20.292 8.186-20.292 19.463s8.436 19.446 20.077 19.446a21.111 21.111 0 0 0 15.638-6.7l.294-.363-4.413-7.318-.583.617" class="cls-4" data-name="Path 24798" transform="translate(-543.652 48.028)"/>
            </g>
        </g>
    </g>
</svg>
