<svg xmlns="http://www.w3.org/2000/svg" width="145" height="145.223" viewBox="0 0 145 145.223">
    <defs>
        <style>
            .cls-1{fill:#c4e6ff}.cls-2{fill:#dbf0ff}.cls-3{fill:#eff2fa}.cls-4{fill:#d0ebff}.cls-5{fill:#e8f5ff}.cls-6{fill:#e4eaf6}.cls-7{fill:#00429a}.cls-8{fill:#003a88}.cls-9{fill:#f7faff}
        </style>
    </defs>
    <g id="bookings-icon" transform="translate(-377.24 -226.656)">
        <circle id="Ellipse_778" cx="72.5" cy="72.5" r="72.5" class="cls-1" data-name="Ellipse 778" transform="translate(377.24 226.656)"/>
        <g id="individual-icon" transform="translate(459.346 282.714)">
            <path id="Path_19207" d="M242.549 146.376v-7.356h-18.916v7.356l9.458 8.407z" class="cls-2" data-name="Path 19207" transform="translate(-205.768 -103.287)"/>
            <path id="Path_19208" d="M205.533 170.688l-13-3.059a2.083 2.083 0 0 1-.546-.22l-10.533 6.144-10.122-6.441a2.091 2.091 0 0 1-.957.517l-13 3.059a4.2 4.2 0 0 0-3.241 4.092v8.231c0 .593 1.8-1.314 2.328-.811.242.245-.794 2.912-.226 2.912a43.173 43.173 0 0 0 25.221 8.209 22.287 22.287 0 0 1 10.062 2.655l7.2-7.094 9.908-14.477s-1.196-3.27-3.094-3.717z" class="cls-3" data-name="Path 19208" transform="translate(-154.127 -124.158)"/>
            <path id="Path_19209" d="M223.633 139.02v7.761c11.915 4.292 18.916-6.451 18.916-6.451v-1.31z" class="cls-4" data-name="Path 19209" transform="translate(-205.768 -103.287)"/>
            <path id="Path_19210" d="M207.28 44.985l.916 20.147a6.306 6.306 0 0 0 2.516 4.758l4.345 3.259a6.3 6.3 0 0 0 3.783 1.261h4.2a6.306 6.306 0 0 0 3.783-1.261l4.345-3.259a6.305 6.305 0 0 0 2.516-4.758l.916-20.147z" class="cls-5" data-name="Path 19210" transform="translate(-193.618 -33.422)"/>
            <path id="Path_19211" d="M217.789 49.189c4.2 0 10.509-1.051 12-4.2H207.28l.916 20.147a6.306 6.306 0 0 0 2.516 4.758l4.345 3.259a6.3 6.3 0 0 0 3.783 1.261h2.1c-2.1 0-6.305-4.2-6.305-9.458V52.341a3.356 3.356 0 0 1 3.154-3.152z" class="cls-2" data-name="Path 19211" transform="translate(-193.618 -33.422)"/>
            <g id="Group_6977" data-name="Group 6977" transform="translate(.001 48.017)">
                <path id="Path_19212" d="M331.677 192.927l6.406-6.092a15.734 15.734 0 0 1 1.23 2s-1.813 3.852-3.232 6.169a53.653 53.653 0 0 1-8.2 9.862l2.052-8.028a5.255 5.255 0 0 1 1.744-3.911z" class="cls-6" data-name="Path 19212" transform="translate(-284.746 -186.81)"/>
                <path id="Path_19213" d="M161.844 192.927l-6.81-6.117a4.2 4.2 0 0 0-.905 2.605v8.544a13.777 13.777 0 0 0 2.1 1.788s1.817 1.36 3.6 2.4a32.55 32.55 0 0 0 3.535 1.763l.22-7.076a5.253 5.253 0 0 0-1.74-3.907z" class="cls-6" data-name="Path 19213" transform="translate(-154.129 -186.81)"/>
            </g>
            <g id="Group_6978" data-name="Group 6978" transform="translate(14.713 40.48)">
                <path id="Path_19216" d="M214.373 157.756l9.605 8.645a36.247 36.247 0 0 0-6.01 4.1 1.348 1.348 0 0 1-2.088-.472l-4.513-9.928 1.428-2.141a1.051 1.051 0 0 1 1.578-.204z" class="cls-6" data-name="Path 19216" transform="translate(-211.368 -157.487)"/>
                <path id="Path_19217" d="M270.035 157.756l-9.605 8.644a36.245 36.245 0 0 1 6.01 4.1 1.348 1.348 0 0 0 2.088-.472l4.513-9.928-1.428-2.141a1.051 1.051 0 0 0-1.578-.203z" class="cls-6" data-name="Path 19217" transform="translate(-247.819 -157.487)"/>
            </g>
            <path id="Path_19218" d="M285.216 16.012l.985 6.962c4.5.9 5.145 7.957 5.239 9.973a2.073 2.073 0 0 0 .332 1.027l1.716 2.662s-.587-4.4 2.1-7.356c.002-.001.925-17.472-10.372-13.268z" class="cls-7" data-name="Path 19218" transform="translate(-251.522 -11.411)"/>
            <path id="Path_19219" d="M309.1 88.574l-1.187 4.747a1.264 1.264 0 0 1-1.226.957 1.264 1.264 0 0 1-1.254-1.107l-.607-4.855a2.175 2.175 0 0 1 2.159-2.445 2.175 2.175 0 0 1 2.115 2.703z" class="cls-2" data-name="Path 19219" transform="translate(-266.079 -63.799)"/>
            <path id="Path_19220" d="M198.893 2.718l1.555 1.062c-7.028 5.189-5.714 14.088-5.714 14.088 2.1 2.1 2.1 7.356 2.1 7.356l2.1-2.1s-.811-6.071 3.153-8.407c3.678-2.167 6.9-1.051 10.18-1.051 8.8 0 11.264-3.317 10.837-7.356-.221-2.09-3.416-6.444-11.56-6.305-3.283.054-9.455 1.049-12.651 2.713z" class="cls-8" data-name="Path 19220" transform="translate(-184.224)"/>
            <path id="Path_19222" d="M199.168 88.574l1.187 4.747a1.264 1.264 0 0 0 1.226.957 1.264 1.264 0 0 0 1.254-1.107l.607-4.855a2.175 2.175 0 0 0-2.159-2.445 2.175 2.175 0 0 0-2.115 2.703z" class="cls-4" data-name="Path 19222" transform="translate(-187.542 -63.799)"/>
            <path id="Path_19223" d="M288.228 228.967h-5.255a2.1 2.1 0 0 0-2.1 2.1h9.458a2.1 2.1 0 0 0-2.103-2.1z" class="cls-6" data-name="Path 19223" transform="translate(-248.294 -170.114)"/>
            <path id="Path_19732" d="M289.473 235.017h-7.857c-1.161 0-.785-2.709-.785-6.05h9.458c0 3.341.344 6.05-.816 6.05z" class="cls-9" data-name="Path 19732" transform="translate(-248.253 -168.365)"/>
        </g>
        <g id="individual-icon-2" data-name="individual-icon" transform="translate(377.918 272.047)">
            <path id="Path_19207-2" d="M245.466 147.511v-8.491h-21.833v8.491l10.917 9.7z" class="cls-2" data-name="Path 19207" transform="translate(-203.012 -97.776)"/>
            <path id="Path_19208-2" d="M213.46 171.24l-15.009-3.531a2.4 2.4 0 0 1-.63-.254l-12.157 7.091-11.683-7.434a2.414 2.414 0 0 1-1.1.6l-14.16 3.413c-1.164.274 3.8 10.682 10.467 19.08a69.513 69.513 0 0 0 12.795 12.054l32.8-14.367c.608 0-.606-1.819 0-2.426s2.426.732 2.426 0v-9.5a4.851 4.851 0 0 0-3.749-4.726z" class="cls-3" data-name="Path 19208" transform="translate(-154.127 -117.534)"/>
            <path id="Path_19209-2" d="M223.633 139.02v8.958c13.752 4.954 21.833-7.446 21.833-7.446v-1.512z" class="cls-4" data-name="Path 19209" transform="translate(-203.012 -97.776)"/>
            <path id="Path_19210-2" d="M207.28 44.985l1.057 23.254a7.278 7.278 0 0 0 2.9 5.492l5.015 3.762a7.277 7.277 0 0 0 4.366 1.455h4.852a7.278 7.278 0 0 0 4.366-1.455l5.015-3.762a7.278 7.278 0 0 0 2.9-5.492l1.057-23.254z" class="cls-5" data-name="Path 19210" transform="translate(-191.511 -31.639)"/>
            <path id="Path_19211-2" d="M219.409 49.837c4.852 0 12.13-1.213 13.856-4.852H207.28l1.057 23.254a7.278 7.278 0 0 0 2.9 5.492l5.015 3.762a7.277 7.277 0 0 0 4.366 1.455h2.426c-2.426 0-7.278-4.852-7.278-10.917V53.476a3.873 3.873 0 0 1 3.643-3.639z" class="cls-2" data-name="Path 19211" transform="translate(-191.511 -31.639)"/>
            <g id="Group_6977-2" data-name="Group 6977" transform="translate(.001 55.422)">
                <path id="Path_19212-2" d="M331.946 193.871l7.86-7.061a4.843 4.843 0 0 1 1.045 3.007v9.5a13.231 13.231 0 0 1-2.426 2.426l-3.5 2.443-5 2.639v-8.442a6.066 6.066 0 0 1 2.021-4.512z" class="cls-6" data-name="Path 19212" transform="translate(-277.777 -186.81)"/>
            </g>
            <g id="Group_6978-2" data-name="Group 6978" transform="translate(16.982 46.723)">
                <path id="Path_19216-2" d="M214.837 157.8l11.087 9.978a41.837 41.837 0 0 0-6.937 4.727 1.556 1.556 0 0 1-2.41-.545l-5.209-11.46 1.648-2.472a1.214 1.214 0 0 1 1.821-.228z" class="cls-6" data-name="Path 19216" transform="translate(-211.368 -157.487)"/>
                <path id="Path_19217-2" d="M271.517 157.8l-11.087 9.978a41.835 41.835 0 0 1 6.937 4.727 1.556 1.556 0 0 0 2.41-.545l5.209-11.459-1.648-2.472a1.214 1.214 0 0 0-1.821-.229z" class="cls-6" data-name="Path 19217" transform="translate(-245.874 -157.487)"/>
            </g>
            <path id="Path_19218-2" d="M285.216 16.113l1.137 8.036c5.191 1.038 5.939 9.184 6.047 11.511a2.393 2.393 0 0 0 .383 1.185l1.981 3.072s-.678-5.079 2.426-8.491c0 0 1.065-20.165-11.974-15.313z" class="cls-7" data-name="Path 19218" transform="translate(-246.325 -10.803)"/>
            <path id="Path_19219-2" d="M309.761 88.991l-1.37 5.479a1.459 1.459 0 0 1-1.415 1.1 1.459 1.459 0 0 1-1.446-1.27l-.7-5.6a2.511 2.511 0 0 1 2.492-2.822h.005a2.511 2.511 0 0 1 2.434 3.113z" class="cls-2" data-name="Path 19219" transform="translate(-260.106 -60.395)"/>
            <path id="Path_19220-2" d="M199.549 3.137l1.794 1.226c-8.111 5.989-6.6 16.261-6.6 16.261 2.426 2.426 2.426 8.491 2.426 8.491l2.426-2.426s-.936-7.008 3.639-9.7c4.245-2.5 7.96-1.213 11.75-1.213 10.159 0 13-3.828 12.508-8.491-.249-2.416-3.938-7.44-13.337-7.285-3.793.069-10.917 1.217-14.606 3.137z" class="cls-8" data-name="Path 19220" transform="translate(-182.618)"/>
            <path id="Path_19222-2" d="M199.178 88.991l1.37 5.479a1.458 1.458 0 0 0 1.415 1.1 1.459 1.459 0 0 0 1.447-1.27l.7-5.6a2.511 2.511 0 0 0-2.491-2.822h-.005a2.511 2.511 0 0 0-2.436 3.113z" class="cls-4" data-name="Path 19222" transform="translate(-185.759 -60.395)"/>
            <path id="Path_19223-2" d="M289.363 228.967H283.3a2.426 2.426 0 0 0-2.426 2.426h10.917a2.426 2.426 0 0 0-2.428-2.426z" class="cls-6" data-name="Path 19223" transform="translate(-243.27 -161.038)"/>
            <path id="Path_19732-2" d="M290.815 235.95h-9.068c-1.34 0-.907-3.127-.907-6.983h10.917c-.001 3.857.397 6.983-.942 6.983z" class="cls-9" data-name="Path 19732" transform="translate(-243.237 -159.019)"/>
        </g>
        <g id="individual-icon-3" data-name="individual-icon" transform="translate(403.285 253.275)">
            <path id="Path_19207-3" d="M256.07 151.634V139.02h-32.437v12.614l16.219 14.416z" class="cls-2" data-name="Path 19207" transform="translate(-192.998 -77.745)"/>
            <path id="Path_19208-3" d="M242.276 173.245L219.978 168a3.573 3.573 0 0 1-.937-.377l-18.061 10.534-17.357-11.045a3.586 3.586 0 0 1-1.641.886l-22.3 5.246a7.208 7.208 0 0 0-5.558 7.017v14.114c0 1.017 3.08-2.253 3.992-1.39.414.42-1.361 4.994-.388 4.994 0 0 16.837 13.82 43.249 14.077s43.249-14.077 43.249-14.077c.9 0-.9-2.7 0-3.6s3.6 1.087 3.6 0v-14.117a7.207 7.207 0 0 0-5.55-7.017z" class="cls-3" data-name="Path 19208" transform="translate(-154.127 -93.456)"/>
            <path id="Path_19209-3" d="M223.633 139.02v13.309c20.431 7.361 32.437-11.062 32.437-11.062v-2.247z" class="cls-4" data-name="Path 19209" transform="translate(-192.998 -77.745)"/>
            <path id="Path_19210-3" d="M207.28 44.985l1.57 34.548a10.813 10.813 0 0 0 4.314 8.159l7.451 5.588a10.811 10.811 0 0 0 6.487 2.162h7.208a10.813 10.813 0 0 0 6.49-2.162l7.451-5.588a10.812 10.812 0 0 0 4.314-8.159l1.57-34.548z" class="cls-5" data-name="Path 19210" transform="translate(-183.852 -25.158)"/>
            <path id="Path_19211-3" d="M225.3 52.193c7.208 0 18.02-1.8 20.585-7.208H207.28l1.57 34.548a10.813 10.813 0 0 0 4.314 8.159l7.451 5.588a10.811 10.811 0 0 0 6.487 2.162h3.6c-3.6 0-10.812-7.208-10.812-16.219V57.6c.004-1.8 1.81-5.407 5.41-5.407z" class="cls-2" data-name="Path 19211" transform="translate(-183.852 -25.158)"/>
            <g id="Group_6977-3" data-name="Group 6977" transform="translate(.001 82.339)">
                <path id="Path_19212-3" d="M332.923 197.3l11.677-10.49a7.2 7.2 0 0 1 1.552 4.467v14.114c-1.627 1.778-2.4 2.864-3.6 3.6l-5.193 3.629-7.421 3.92V204a9.012 9.012 0 0 1 2.985-6.7z" class="cls-6" data-name="Path 19212" transform="translate(-252.446 -186.81)"/>
                <path id="Path_19213-2" d="M167.358 197.3l-11.677-10.49a7.2 7.2 0 0 0-1.552 4.467v14.651a23.626 23.626 0 0 0 3.6 3.066s3.115 2.332 6.174 4.118a55.822 55.822 0 0 0 6.063 3.023l.381-12.135a9.009 9.009 0 0 0-2.989-6.7z" class="cls-6" data-name="Path 19213" transform="translate(-154.129 -186.81)"/>
            </g>
            <g id="Group_6978-3" data-name="Group 6978" transform="translate(25.23 69.414)">
                <path id="Path_19216-3" d="M216.521 157.949l16.471 14.824a62.156 62.156 0 0 0-10.306 7.022 2.312 2.312 0 0 1-3.58-.81l-7.738-17.025 2.448-3.672a1.8 1.8 0 0 1 2.705-.339z" class="cls-6" data-name="Path 19216" transform="translate(-211.368 -157.487)"/>
                <path id="Path_19217-3" d="M276.9 157.949l-16.47 14.824a62.153 62.153 0 0 1 10.306 7.022 2.312 2.312 0 0 0 3.58-.81l7.738-17.025-2.448-3.672a1.8 1.8 0 0 0-2.706-.339z" class="cls-6" data-name="Path 19217" transform="translate(-238.805 -157.487)"/>
            </g>
            <path id="Path_19218-3" d="M285.216 16.479l1.689 11.939c7.712 1.542 8.823 13.645 8.983 17.1a3.555 3.555 0 0 0 .569 1.761l2.943 4.564S298.393 44.3 303 39.23c0-.001 1.588-29.96-17.784-22.751z" class="cls-7" data-name="Path 19218" transform="translate(-227.437 -8.59)"/>
            <path id="Path_19219-3" d="M312.166 90.506l-2.035 8.14a2.167 2.167 0 0 1-2.1 1.641 2.167 2.167 0 0 1-2.15-1.9l-1.041-8.326a3.73 3.73 0 0 1 3.7-4.193h.007a3.73 3.73 0 0 1 3.619 4.638z" class="cls-2" data-name="Path 19219" transform="translate(-238.395 -48.023)"/>
            <path id="Path_19220-3" d="M201.935 4.661l2.665 1.821c-12.051 8.9-9.8 24.159-9.8 24.159 3.6 3.6 3.6 12.614 3.6 12.614l3.6-3.6s-1.391-10.411 5.406-14.416c6.307-3.717 11.826-1.8 17.457-1.8 15.092 0 19.315-5.688 18.583-12.614C243.079 7.234 237.6-.231 223.635.006c-5.635.094-16.218 1.802-21.7 4.655z" class="cls-8" data-name="Path 19220" transform="translate(-176.781)"/>
            <path id="Path_19222-3" d="M199.215 90.506l2.035 8.14a2.167 2.167 0 0 0 2.1 1.641 2.167 2.167 0 0 0 2.15-1.9l1.041-8.326a3.73 3.73 0 0 0-3.7-4.193h-.007a3.73 3.73 0 0 0-3.619 4.638z" class="cls-4" data-name="Path 19222" transform="translate(-179.279 -48.023)"/>
            <path id="Path_19223-3" d="M293.487 228.967h-9.01a3.6 3.6 0 0 0-3.6 3.6h16.219a3.6 3.6 0 0 0-3.609-3.6z" class="cls-6" data-name="Path 19223" transform="translate(-225.008 -128.047)"/>
            <path id="Path_19732-3" d="M295.691 239.342h-13.472c-1.99 0-1.347-4.645-1.347-10.375h16.219c-.001 5.733.591 10.375-1.4 10.375z" class="cls-9" data-name="Path 19732" transform="translate(-225.008 -125.047)"/>
        </g>
    </g>
</svg>
