<svg xmlns="http://www.w3.org/2000/svg" width="49.559" height="35.033" viewBox="0 0 49.559 35.033"><defs><style>.a{fill:#0048a8;}.b{fill:#385cf8;}.c{fill:#107dea;}.d{fill:#fc6fd0;}.e{fill:#f254c1;}.f{fill:#edf7ff;}.g{fill:#d6ecfd;}.h{fill:#b4e1fa;}.i{fill:#a0d2f0;}.j{fill:#013b88;}.k{fill:#f7c0bb;}.l{fill:#dbefff;}.m{fill:#f5b4ae;}.n{fill:#ffd3cf;}.o{fill:#cbe9ff;}.p{fill:#006fde;}.q{fill:#21215d;}.r{fill:#161643;}.s{fill:#0c0c33;}</style></defs><g transform="translate(0 -75.035)"><path class="a" d="M89.985,105.8h37.6a1.709,1.709,0,0,0,1.709-1.709V76.744a1.709,1.709,0,0,0-1.709-1.709h-37.6a1.709,1.709,0,0,0-1.709,1.709v27.343A1.709,1.709,0,0,0,89.985,105.8Z" transform="translate(-79.731)"/><path class="b" d="M277.927,141.388h-3.418a.855.855,0,0,1-.854-.855V120.027a.855.855,0,0,1,.854-.854h3.418a.855.855,0,0,1,.854.854v20.507A.855.855,0,0,1,277.927,141.388Z" transform="translate(-247.167 -39.865)"/><path class="c" d="M277.927,253.012h-3.418a.855.855,0,0,1-.854-.855v-8.545a.855.855,0,0,1,.854-.855h3.418a.855.855,0,0,1,.854.855v8.545A.855.855,0,0,1,277.927,253.012Z" transform="translate(-247.167 -151.488)"/><path class="d" d="M348.548,253.012H345.13a.855.855,0,0,1-.854-.855v-8.545a.855.855,0,0,1,.854-.855h3.418a.855.855,0,0,1,.854.855v8.545A.855.855,0,0,1,348.548,253.012Z" transform="translate(-310.952 -151.488)"/><path class="e" d="M348.548,316.8H345.13a.855.855,0,0,1-.854-.855v-1.709a.855.855,0,0,1,.854-.854h3.418a.855.855,0,0,1,.854.854v1.709A.855.855,0,0,1,348.548,316.8Z" transform="translate(-310.952 -215.274)"/><path class="f" d="M136.686,253.012h-3.418a.855.855,0,0,1-.855-.855v-8.545a.855.855,0,0,1,.855-.855h3.418a.855.855,0,0,1,.855.855v8.545A.855.855,0,0,1,136.686,253.012Z" transform="translate(-119.597 -151.488)"/><path class="f" d="M419.168,189.227H415.75a.855.855,0,0,1-.854-.855v-15.38a.855.855,0,0,1,.854-.855h3.418a.855.855,0,0,1,.854.855v15.38A.854.854,0,0,1,419.168,189.227Z" transform="translate(-374.736 -87.704)"/><path class="g" d="M419.168,284.9H415.75a.855.855,0,0,1-.854-.854v-5.127a.855.855,0,0,1,.854-.854h3.418a.855.855,0,0,1,.854.854v5.127A.854.854,0,0,1,419.168,284.9Z" transform="translate(-374.736 -183.381)"/><path class="h" d="M207.306,221.119h-3.418a.855.855,0,0,1-.855-.855V208.3a.855.855,0,0,1,.855-.854h3.418a.855.855,0,0,1,.855.854v11.962A.855.855,0,0,1,207.306,221.119Z" transform="translate(-183.381 -119.596)"/><path class="i" d="M207.306,300.851h-3.418a.855.855,0,0,1-.855-.854v-3.418a.855.855,0,0,1,.855-.854h3.418a.855.855,0,0,1,.855.854V300A.855.855,0,0,1,207.306,300.851Z" transform="translate(-183.381 -199.328)"/><path class="g" d="M136.686,316.8h-3.418a.855.855,0,0,1-.855-.855v-1.709a.855.855,0,0,1,.855-.854h3.418a.855.855,0,0,1,.855.854v1.709A.855.855,0,0,1,136.686,316.8Z" transform="translate(-119.597 -215.274)"/><path class="j" d="M142.673,341.57H106.786a.855.855,0,0,1-.855-.855h0a.855.855,0,0,1,.855-.854h35.887a.855.855,0,0,1,.855.854h0A.855.855,0,0,1,142.673,341.57Z" transform="translate(-95.677 -239.192)"/><path class="k" d="M76.361,341.944v-2.761h-7.1v2.761l3.549,3.155Z" transform="translate(-62.558 -238.58)"/><path class="l" d="M19.291,368.519l-4.88-1.148a.779.779,0,0,1-.2-.082l-3.953,2.306-3.8-2.417a.784.784,0,0,1-.359.194l-4.88,1.148A1.577,1.577,0,0,0,0,370.055v3.089a.789.789,0,0,0,.789.789h18.93a.789.789,0,0,0,.789-.789v-3.089A1.578,1.578,0,0,0,19.291,368.519Z" transform="translate(0 -263.864)"/><path class="m" d="M76.362,339.183V342.1c-4.472,1.611-7.1-2.421-7.1-2.421v-.492Z" transform="translate(-62.558 -238.58)"/><path class="n" d="M52.966,245.474l.344,7.561a2.367,2.367,0,0,0,.944,1.785l1.631,1.223a2.366,2.366,0,0,0,1.42.473h1.577a2.367,2.367,0,0,0,1.42-.473l1.631-1.223a2.366,2.366,0,0,0,.944-1.785l.344-7.561Z" transform="translate(-47.839 -153.941)"/><path class="k" d="M57.47,247.053c-1.577,0-3.943-.394-4.5-1.578h8.447l-.344,7.561a2.367,2.367,0,0,1-.944,1.786l-1.63,1.223a2.365,2.365,0,0,1-1.419.473h-.789c.789,0,2.366-1.578,2.366-3.55v-4.733A1.259,1.259,0,0,0,57.47,247.053Z" transform="translate(-45.839 -153.942)"/><g transform="translate(0 105.213)"><path class="o" d="M175.848,389.1l2.555-2.3a1.575,1.575,0,0,1,.34.978v3.089a.789.789,0,0,1-.789.789h-2.761v-1.093A1.971,1.971,0,0,1,175.848,389.1Z" transform="translate(-158.236 -386.808)"/><path class="o" d="M2.9,389.1l-2.555-2.3a1.574,1.574,0,0,0-.34.978v3.089a.789.789,0,0,0,.789.789H3.549v-1.093A1.972,1.972,0,0,0,2.9,389.1Z" transform="translate(0 -386.808)"/></g><path class="b" d="M97.717,403.846H95.745l.247-3.549H97.47Z" transform="translate(-86.477 -293.778)"/><path class="p" d="M97.717,392.149H95.745v.228a.955.955,0,0,0,.955.955h.061a.955.955,0,0,0,.955-.955v-.228Z" transform="translate(-86.477 -286.419)"/><g transform="translate(5.521 102.384)"><path class="o" d="M58.168,357.687l3.6,3.244a13.6,13.6,0,0,0-2.255,1.537.506.506,0,0,1-.784-.177l-1.694-3.726.536-.8A.394.394,0,0,1,58.168,357.687Z" transform="translate(-57.04 -357.586)"/><path class="o" d="M109.536,357.687l-3.6,3.244a13.6,13.6,0,0,1,2.255,1.537.506.506,0,0,0,.784-.177l1.694-3.726-.536-.8A.394.394,0,0,0,109.536,357.687Z" transform="translate(-101.199 -357.586)"/></g><g transform="translate(3.907 87.193)"><path class="q" d="M134.532,216.2l-.37,2.613c-1.688.338-1.931,2.986-1.966,3.742a.778.778,0,0,1-.125.385l-.644,1a3.777,3.777,0,0,0-.789-2.76S130.292,214.62,134.532,216.2Z" transform="translate(-130.632 -214.47)"/><path class="r" d="M49.471,201.665l-.583.4a5.9,5.9,0,0,1,2.145,5.287c-.789.789-.789,2.76-.789,2.76l-.789-.789s.3-2.278-1.183-3.155c-1.38-.813-2.588-.394-3.821-.394-3.3,0-4.228-1.245-4.067-2.76.083-.784,1.282-2.418,4.339-2.366A13.282,13.282,0,0,1,49.471,201.665Z" transform="translate(-38.43 -200.645)"/><path class="s" d="M47.039,218.663a4.331,4.331,0,0,0-.813-3.364,5.9,5.9,0,0,1,2.145,5.287c-.789.789-.789,2.76-.789,2.76l-.789-.789s.3-2.278-1.183-3.155c-1.38-.813-2.588-.394-3.821-.394a9.689,9.689,0,0,1-1.422-.1C42.91,219,44.409,217.069,47.039,218.663Z" transform="translate(-35.768 -213.881)"/></g><path class="o" d="M129.063,428.817h-1.972a.789.789,0,0,0-.789.789h3.549A.789.789,0,0,0,129.063,428.817Z" transform="translate(-114.077 -319.538)"/><path class="n" d="M44.842,287.23l.445,1.781a.474.474,0,0,0,.46.359h0a.474.474,0,0,0,.471-.415l.228-1.822a.816.816,0,0,0-.81-.918h0A.816.816,0,0,0,44.842,287.23Z" transform="translate(-40.479 -190.74)"/><path class="k" d="M151.766,287.23l-.445,1.781a.474.474,0,0,1-.46.359h0a.474.474,0,0,1-.471-.415l-.228-1.822a.816.816,0,0,1,.81-.918h0A.817.817,0,0,1,151.766,287.23Z" transform="translate(-135.621 -190.74)"/></g></svg>
