<svg xmlns="http://www.w3.org/2000/svg" xmlns:xlink="http://www.w3.org/1999/xlink" width="21" height="21" viewBox="0 0 21 21"><defs><style>.a{fill:url(#a);}.b{fill:#fff;}</style><linearGradient id="a" x1="0.5" x2="0.601" y2="1.336" gradientUnits="objectBoundingBox"><stop offset="0" stop-color="#3458f9"/><stop offset="1" stop-color="#244afe"/></linearGradient></defs><g transform="translate(0.367 0.394)"><rect class="a" width="21" height="21" rx="4" transform="translate(-0.367 -0.394)"/><g transform="translate(-9.041 3.29)"><g transform="translate(12.885)"><path class="b" d="M24.606,1.65H23.57V.942A.942.942,0,0,0,22.628,0H22.59a.942.942,0,0,0-.942.942V1.65H16.786V.942A.942.942,0,0,0,15.844,0h-.038a.942.942,0,0,0-.942.942V1.65H13.827a.942.942,0,0,0-.942.942v10.1a.942.942,0,0,0,.942.942H24.606a.942.942,0,0,0,.942-.942V2.592A.942.942,0,0,0,24.606,1.65Zm-.641,10.5h-9.5V4.5h9.5Z" transform="translate(-12.885)"/><path class="b" d="M85.287,161.577h1.639a.151.151,0,0,0,.151-.151v-1.639a.151.151,0,0,0-.151-.151H85.287a.151.151,0,0,0-.151.151v1.639A.151.151,0,0,0,85.287,161.577Z" transform="translate(-82.413 -153.62)"/><path class="b" d="M155.287,161.577h1.639a.151.151,0,0,0,.151-.151v-1.639a.151.151,0,0,0-.151-.151h-1.639a.151.151,0,0,0-.151.151v1.639A.151.151,0,0,0,155.287,161.577Z" transform="translate(-149.775 -153.62)"/><path class="b" d="M225.287,161.577h1.639a.151.151,0,0,0,.151-.151v-1.639a.151.151,0,0,0-.151-.151h-1.639a.151.151,0,0,0-.151.151v1.639A.151.151,0,0,0,225.287,161.577Z" transform="translate(-217.137 -153.62)"/><path class="b" d="M85.287,231.577h1.639a.151.151,0,0,0,.151-.151v-1.639a.151.151,0,0,0-.151-.151H85.287a.151.151,0,0,0-.151.151v1.639A.151.151,0,0,0,85.287,231.577Z" transform="translate(-82.413 -220.981)"/><path class="b" d="M155.287,231.577h1.639a.151.151,0,0,0,.151-.151v-1.639a.151.151,0,0,0-.151-.151h-1.639a.151.151,0,0,0-.151.151v1.639A.151.151,0,0,0,155.287,231.577Z" transform="translate(-149.775 -220.981)"/><path class="b" d="M225.287,231.577h1.639a.151.151,0,0,0,.151-.151v-1.639a.151.151,0,0,0-.151-.151h-1.639a.151.151,0,0,0-.151.151v1.639A.151.151,0,0,0,225.287,231.577Z" transform="translate(-217.137 -220.981)"/></g></g></g></svg>