<svg xmlns="http://www.w3.org/2000/svg" width="15.682" height="14.113" viewBox="0 0 15.682 14.113"><defs><style>.a{fill:#385cf8;fill-rule:evenodd;}</style></defs><path class="a" d="M7.841,9.409A1.928,1.928,0,0,0,9.8,7.527a1.962,1.962,0,0,0-3.92,0A1.928,1.928,0,0,0,7.841,9.409Zm0-5.645a3.856,3.856,0,0,1,3.92,3.764,3.856,3.856,0,0,1-3.92,3.764A3.856,3.856,0,0,1,3.92,7.527,3.856,3.856,0,0,1,7.841,3.764Zm5.881,10.35H1.96a1.975,1.975,0,0,1-1.372-.565A1.822,1.822,0,0,1,0,12.232V3.764A1.928,1.928,0,0,1,1.96,1.882H3.528L5,.47A1.657,1.657,0,0,1,6.175,0h3.43a1.6,1.6,0,0,1,1.078.47l1.47,1.411h1.568a1.928,1.928,0,0,1,1.96,1.882v8.468A1.928,1.928,0,0,1,13.721,14.113Z"/></svg>
