<svg xmlns="http://www.w3.org/2000/svg" width="33.964" height="33.964" viewBox="0 0 33.964 33.964"><defs><style>.a{fill:#fed3cf;}.b{fill:#f470cb;}.c{fill:#161643;}.d{fill:#385cf8;}.e{fill:#0e78f0;}.f{fill:#46a1fd;}.g{fill:#033b88;}.h{fill:#01295f;}.i{fill:#ff45c5;}.j{fill:#f7c0bb;}</style></defs><g transform="translate(0 -0.301)"><path class="a" d="M455.231,67.68l-6.126-6.137V86.138h8.2V72.664A7.028,7.028,0,0,0,455.231,67.68Zm0,0" transform="translate(-423.34 -57.729)"/><path class="b" d="M4.788,23.934.157,11.912A2.342,2.342,0,0,1,1.5,8.885L23.359.465a2.342,2.342,0,0,1,3.027,1.344l4.631,12.022a2.342,2.342,0,0,1-1.344,3.027L7.816,25.278A2.343,2.343,0,0,1,4.788,23.934Zm0,0" transform="translate(0 -0.007)"/><path class="c" d="M58.4,101.961,32.2,112.12l1.745,4.53L60.15,106.5Zm0,0" transform="translate(-30.349 -95.828)"/><path class="d" d="M0,15.526V2.643A2.343,2.343,0,0,1,2.346.3H25.77a2.343,2.343,0,0,1,2.342,2.342V15.526a2.343,2.343,0,0,1-2.342,2.342H2.346A2.343,2.343,0,0,1,0,15.526Zm0,0" transform="translate(-0.004)"/><path class="e" d="M119.576.3h-2.489L99.52,17.868h20.056a2.343,2.343,0,0,0,2.342-2.342V2.643A2.343,2.343,0,0,0,119.576.3Zm0,0" transform="translate(-93.81)"/><path class="f" d="M40.832,163.609h2.342v1.171H40.832Zm0,0" transform="translate(-38.49 -153.939)"/><path class="f" d="M40.832,224.852h2.342v1.171H40.832Zm0,0" transform="translate(-38.49 -211.668)"/><path class="f" d="M224.555,224.852H226.9v1.171h-2.342Zm0,0" transform="translate(-211.672 -211.668)"/><path class="f" d="M102.074,163.609h2.342v1.171h-2.342Zm0,0" transform="translate(-96.218 -153.939)"/><path class="f" d="M163.313,163.609h2.342v1.171h-2.342Zm0,0" transform="translate(-153.943 -153.939)"/><path class="f" d="M224.555,163.609H226.9v1.171h-2.342Zm0,0" transform="translate(-211.672 -153.939)"/><path class="f" d="M418.484,41.129h1.171v1.757h-1.171Zm0,0" transform="translate(-394.475 -38.486)"/><path class="f" d="M377.656,41.129h1.171v1.757h-1.171Zm0,0" transform="translate(-355.99 -38.486)"/><path class="f" d="M336.828,41.129H338v1.757h-1.171Zm0,0" transform="translate(-317.504 -38.486)"/><path class="f" d="M296,41.129h1.171v1.757H296Zm0,0" transform="translate(-279.022 -38.486)"/><path class="g" d="M408.277,490.23h10.54v5.856h-10.54Zm0,0" transform="translate(-384.854 -461.822)"/><path class="a" d="M307.171,172.523a2.539,2.539,0,0,0-3.666,3.511l4.8,5.235a7.9,7.9,0,0,0,.16,8.1l.426.681H316.5v-8.2Zm0,0" transform="translate(-285.467 -161.644)"/><path class="h" d="M438.9,520.852h1.171v1.171H438.9Zm0,0" transform="translate(-413.718 -490.686)"/><path class="b" d="M40.832,44.877V42.066a.937.937,0,0,1,.937-.937H44.58a.937.937,0,0,1,.937.937v2.811a.937.937,0,0,1-.937.937H41.769A.937.937,0,0,1,40.832,44.877Zm0,0" transform="translate(-38.49 -38.486)"/><path class="i" d="M40.832,71.75h1.757v1.171H40.832Zm0,0" transform="translate(-38.49 -67.35)"/><path class="i" d="M91.867,71.75h1.757v1.171H91.867Zm0,0" transform="translate(-86.597 -67.35)"/><path class="j" d="M482.77,289.726a.584.584,0,0,1-.414-.172l-2.342-2.342a.586.586,0,0,1,.828-.828l2.342,2.342a.586.586,0,0,1-.414,1Zm0,0" transform="translate(-452.32 -269.515)"/></g></svg>
