<svg xmlns="http://www.w3.org/2000/svg" width="20" height="20" viewBox="0 0 20 20"><defs><style>.a{fill:#1a8cff;}.b{fill:#fff;}</style></defs><rect class="a" width="20" height="20" rx="3"/><path class="b" d="M12.173,5.041l-1.009-.128a5.071,5.071,0,0,0-.305-.737l.623-.8a.8.8,0,0,0-.065-1.062l-.845-.845A.8.8,0,0,0,9.506,1.4l-.8.623a5.053,5.053,0,0,0-.738-.305L7.838.708A.8.8,0,0,0,7.041,0h-1.2a.8.8,0,0,0-.8.707L4.913,1.716a5,5,0,0,0-.738.305l-.8-.623a.8.8,0,0,0-1.062.065l-.845.845A.8.8,0,0,0,1.4,3.374l.623.8a5.012,5.012,0,0,0-.305.737L.708,5.041a.8.8,0,0,0-.708.8v1.2a.8.8,0,0,0,.707.8l1.009.128a5.071,5.071,0,0,0,.305.737l-.623.8a.8.8,0,0,0,.065,1.062l.845.845a.8.8,0,0,0,1.065.068l.8-.623a4.954,4.954,0,0,0,.737.305l.128,1.007a.8.8,0,0,0,.8.709h1.2a.8.8,0,0,0,.8-.707l.128-1.009a5.071,5.071,0,0,0,.737-.305l.8.623a.8.8,0,0,0,1.062-.065l.845-.845a.8.8,0,0,0,.068-1.065l-.623-.8a4.954,4.954,0,0,0,.305-.737l1.007-.128a.8.8,0,0,0,.708-.8v-1.2a.8.8,0,0,0-.706-.8ZM6.44,9.123A2.683,2.683,0,1,1,9.123,6.44,2.686,2.686,0,0,1,6.44,9.123Z" transform="translate(3.561 3.56)"/></svg>