<svg xmlns="http://www.w3.org/2000/svg" width="84" height="84" viewBox="0 0 84 84"><defs><style>.a{fill:#35e5bc;}.b{fill:#16dbad;}.c{fill:#f2f9ff;}</style></defs><path class="a" d="M84,42A42,42,0,1,1,42,0,42,42,0,0,1,84,42Zm0,0"/><path class="b" d="M38.971,82.663a21.77,21.77,0,0,0,5-7.822L38.388,70.1s-6.864-13.186-6.821-13.153c-15.324-17.821-3.755-41.982-3.625-42.254a42.01,42.01,0,0,0,9.391,81.333A10.5,10.5,0,0,1,38.971,82.663Zm0,0" transform="translate(0 -12.281)"/><path class="c" d="M108.317,190.7a6.094,6.094,0,0,1-3.733-1.274l-19.8-15.273a6.117,6.117,0,1,1,7.472-9.687l15.318,11.817,21.135-23.39a6.117,6.117,0,0,1,9.077,8.2l-24.928,27.589A6.108,6.108,0,0,1,108.317,190.7Zm0,0" transform="translate(-68.884 -126.124)"/></svg>