<svg xmlns="http://www.w3.org/2000/svg" width="84.32" height="84.236" viewBox="0 0 84.32 84.236"><defs><style>.a{fill:#bce0fd;}.b{fill:#385cf8;}.c{fill:#b9e1ff;}.d{fill:#ffddcf;}.e{fill:#00429a;}.f{fill:#fc6fd0;}.g{fill:#f5d0c7;}.h{fill:#ebc3ba;}.i{fill:#013272;}.j{fill:#ffcbbe;}</style></defs><g transform="translate(0 0)"><path class="a" d="M0,42A42,42,0,1,0,42,0,42,42,0,0,0,0,42Z"/><g transform="translate(2.273 6.1)"><path class="b" d="M6.156,14.186H67.921V70.663s-8.879,8.5-19.617,10.826A42.01,42.01,0,0,1-1.915,47.339S-3.9,32.536.9,23.27,6.156,14.186,6.156,14.186Z" transform="translate(0.315 -4.29)"/><g transform="translate(11.08 15.573)"><path class="c" d="M169.4,67.759H129.24a1.349,1.349,0,0,1,0-2.692H169.4a1.349,1.349,0,0,1,0,2.692Z" transform="translate(-127.981 -65.067)"/><path class="c" d="M324.933,109.847h-16.08a1.346,1.346,0,1,1,0-2.692h16.08a1.346,1.346,0,1,1,0,2.692Z" transform="translate(-284.163 -100.861)"/><path class="c" d="M152.046,109.847H129.327a1.346,1.346,0,0,1,0-2.692h22.719a1.346,1.346,0,1,1,0,2.692Z" transform="translate(-127.981 -100.861)"/><path class="c" d="M169.4,151.936H129.24a1.349,1.349,0,0,1,0-2.692H169.4a1.349,1.349,0,0,1,0,2.692Z" transform="translate(-127.981 -136.656)"/><path class="c" d="M360.652,194.024h-9.8a1.346,1.346,0,1,1,0-2.692h9.8a1.346,1.346,0,1,1,0,2.692Z" transform="translate(-319.324 -176.357)"/><path class="c" d="M158.327,194.024h-29a1.346,1.346,0,0,1,0-2.692h29a1.346,1.346,0,0,1,0,2.692Z" transform="translate(-127.981 -172.45)"/><path class="c" d="M280.029,236.112H256.053a1.346,1.346,0,1,1,0-2.692h23.976a1.346,1.346,0,1,1,0,2.692Z" transform="translate(-238.7 -208.244)"/><path class="c" d="M280.029,236.112H256.053a1.346,1.346,0,1,1,0-2.692h23.976a1.346,1.346,0,1,1,0,2.692Z" transform="translate(-238.7 -195.407)"/><path class="c" d="M144.331,236.112h-15a1.346,1.346,0,1,1,0-2.692h15a1.346,1.346,0,1,1,0,2.692Z" transform="translate(-127.982 -208.244)"/><path class="c" d="M144.331,236.112h-15a1.346,1.346,0,1,1,0-2.692h15a1.346,1.346,0,1,1,0,2.692Z" transform="translate(-127.982 -195.407)"/><path class="c" d="M161.378,278.2H129.327a1.346,1.346,0,1,1,0-2.692h32.051a1.346,1.346,0,0,1,0,2.692Z" transform="translate(-127.981 -244.037)"/><path class="c" d="M161.378,278.2H129.327a1.346,1.346,0,1,1,0-2.692h32.051a1.346,1.346,0,0,1,0,2.692Z" transform="translate(-127.981 -231.2)"/></g><g transform="translate(28.243 0)"><path class="d" d="M206.035,201.7l-1.685,4.487a3.037,3.037,0,0,1-.948,1.338l-7.057,5.656-1.19-1.485a4.215,4.215,0,0,1-.927-2.633V184.841h33.1a56.689,56.689,0,0,1,1.882,7.325,54.293,54.293,0,0,1,.709,7.431H210.459Z" transform="translate(-176.119 -162.407)"/><path class="e" d="M150,98.507v6.32H143.9v-3.413l.769.864a6.109,6.109,0,0,0,.508-8.624l0,0L143.9,92.209V59.01H150v39.5Z" transform="translate(-131.896 -51.848)"/><path class="f" d="M150,436.5l-3.054,9.163-2.5-7.5L143.9,436.5Z" transform="translate(-131.896 -383.523)"/><path class="g" d="M67.931,215.265a6.109,6.109,0,0,1-.5,8.624l0,0-.769-.864v-.011l-9.869-11.091-.032-.042a3.065,3.065,0,0,1,.042-4.108l9.859-10.354V206.3l-3.5,3.592,3.5,3.929Z" transform="translate(-54.656 -173.461)"/><path class="h" d="M57.023,331.433l.558,1.664a6.545,6.545,0,0,1-1.117,1.317L45.8,322.406a3.055,3.055,0,0,1,.042-4.108l1.317-1.38,9.869,11.091v3.423Z" transform="translate(-45.022 -278.454)"/><g transform="translate(6.366)"><path class="i" d="M161.437,8.215a1.054,1.054,0,0,1-1.053-1.053V1.053a1.053,1.053,0,1,1,2.107,0V7.162A1.054,1.054,0,0,1,161.437,8.215Z" transform="translate(-152.748)"/><path class="i" d="M98.522,86.769a1.054,1.054,0,0,1-1.053-1.053V78.648a3.154,3.154,0,0,1,3.149-3.149H103.1a1.053,1.053,0,1,1,0,2.107h-2.486a1.044,1.044,0,0,0-1.043,1.043v7.067A1.054,1.054,0,0,1,98.522,86.769Z" transform="translate(-97.469 -66.336)"/></g><path class="j" d="M187.9,293.024l-1.19-1.485a5.256,5.256,0,0,1,.8-7.387l2.89-2.317,2.512-6.875,1.978.723-2.612,7.152a1.066,1.066,0,0,1-.331.461l-3.118,2.5a3.15,3.15,0,0,0-.478,4.428,0,0,0,0,0,0,0l.527.661,5.549-2.951C194.707,287.709,187.9,293.024,187.9,293.024Z" transform="translate(-168.494 -241.588)"/></g></g></g></svg>
