<svg xmlns="http://www.w3.org/2000/svg" width="13.059" height="17.412" viewBox="0 0 13.059 17.412"><defs><style>.a{fill:#ffc400;}</style></defs><path class="a" d="M75.328,6.53H67.71V5.441a3.265,3.265,0,1,1,6.53,0l.033,1.088,2.144.3V5.441a5.441,5.441,0,0,0-10.883,0V6.832a2.169,2.169,0,0,0-1.088,1.874v6.53a2.179,2.179,0,0,0,2.176,2.176h8.706A2.179,2.179,0,0,0,77.5,15.236V8.706A2.179,2.179,0,0,0,75.328,6.53Zm-3.265,6.106v1.512H69.886V12.635a1.632,1.632,0,1,1,2.176,0Z" transform="translate(-64.445)"/></svg>