<svg xmlns="http://www.w3.org/2000/svg" id="cloudbeds-logo" width="269.839" height="48.304" viewBox="0 0 269.839 48.304">
    <defs>
        <style>
            .cls-1{fill:#698396}
        </style>
    </defs>
    <g id="Group_5572" data-name="Group 5572">
        <path id="Path_17279" d="M62.233 26.792a9.467 9.467 0 0 0 .44-2.936 12.156 12.156 0 0 0-12.186-12.187 13.641 13.641 0 0 0-4.258.734A17.317 17.317 0 0 0 30.96 3.3a17.044 17.044 0 0 0-17.032 17.031 24.009 24.009 0 0 0 .294 3.23 9.67 9.67 0 0 0-3.671 17.765 38.4 38.4 0 0 1 8.222-3.23s-3.524-12.039.587-12.92c4.992-.881 5.286.44 15.416-.587a77.612 77.612 0 0 1 20.261.587c1.909 0 1.762 3.964 1.468 6.9a24.02 24.02 0 0 1-1.321 5.579 41.642 41.642 0 0 1 9.984 3.964 7.949 7.949 0 0 0 3.817-6.754 7.534 7.534 0 0 0-6.752-8.073z" class="cls-1" data-name="Path 17279" transform="translate(-2.77 -3.3)"/>
        <path id="Path_17280" d="M38.744 32.992c14.095 0 26.722 1.909 34.944 7.047C68.4 32.992 54.747 28 38.744 28S9.086 32.845 3.8 39.893c8.222-4.993 20.849-6.901 34.944-6.901z" class="cls-1" data-name="Path 17280" transform="translate(-3.8 8.265)"/>
    </g>
    <g id="Group_6648" data-name="Group 6648" transform="translate(83.85 9.363)">
        <path id="Path_17281" d="M166.1 28.6a7.4 7.4 0 0 1-3.02 2.517 4.909 4.909 0 0 1-6.418-1.888l13.716-5.663c-.126-.5-.378-1.007-.5-1.51-2.391-5.537-7.424-9.438-13.968-6.669-5.663 2.391-7.8 8.683-5.411 14.346v.126c2.517 6.04 8.557 8.305 14.471 5.914a12.1 12.1 0 0 0 4.656-3.4zm-8.431-8.809c2.391-1.007 4.53.126 5.914 2.517l-8.431 3.523c-.627-2.767.128-5.031 2.519-6.039z" class="cls-1" data-name="Path 17281" transform="translate(-26.548 -7.46)"/>
        <path id="Path_17282" d="M51.8 23.72c0-7.8 5.789-14.22 13.842-14.22a14.05 14.05 0 0 1 10.7 4.4L74.2 16.169a12.116 12.116 0 0 0-8.683-3.775c-6.04 0-10.57 4.908-10.57 11.2v.126c0 6.418 4.656 11.325 10.57 11.325 3.775 0 6.166-1.384 8.809-3.9l2.013 2.013c-2.894 2.894-6.04 4.782-10.948 4.782-7.802-.126-13.591-6.418-13.591-14.22z" class="cls-1" data-name="Path 17282" transform="translate(-51.8 -8.745)"/>
        <path id="Path_17283" d="M73.4 8.9h3.02v28.691H73.4z" class="cls-1" data-name="Path 17283" transform="translate(-46.219 -8.9)"/>
        <path id="Path_17284" d="M77.6 25.8a10.58 10.58 0 0 1 10.57-10.7 10.473 10.473 0 0 1 10.57 10.57v.13a10.57 10.57 0 1 1-21.141 0zm17.995 0a7.661 7.661 0 0 0-7.55-7.928c-4.4 0-7.424 3.523-7.424 7.8v.128a7.5 7.5 0 1 0 14.975 0z" class="cls-1" data-name="Path 17284" transform="translate(-45.134 -7.298)"/>
        <path id="Path_17285" d="M96.3 28.084V15.5h3.02v11.829c0 3.775 2.013 6.166 5.663 6.166 3.4 0 6.04-2.517 6.04-6.418V15.5h3.02v20.26h-3.02v-3.524a7.73 7.73 0 0 1-6.921 3.9c-5.034.127-7.802-3.27-7.802-8.052z" class="cls-1" data-name="Path 17285" transform="translate(-40.302 -7.195)"/>
        <path id="Path_17286" d="M112 27.4c0-6.669 4.782-10.57 9.69-10.57a9.286 9.286 0 0 1 7.8 4.278V8.9h3.02v28.691h-3.02v-4.027c-1.636 2.391-4.027 4.53-7.8 4.53-4.908-.125-9.69-4.026-9.69-10.694zm17.492 0c0-4.782-3.523-7.928-7.3-7.928-3.9 0-7.173 2.894-7.173 7.8v.128c0 4.782 3.272 7.8 7.173 7.8a7.506 7.506 0 0 0 7.299-7.8z" class="cls-1" data-name="Path 17286" transform="translate(-36.245 -8.9)"/>
        <path id="Path_17287" d="M136.814 34.7v2.768H130.9V8.9h5.914v10.57a7.435 7.435 0 0 1 6.544-3.4c4.908 0 9.564 3.9 9.564 10.822v.126c0 7.047-4.53 10.822-9.564 10.822a7.866 7.866 0 0 1-6.544-3.14zm10.193-7.676c0-3.523-2.391-5.914-5.159-5.914s-5.159 2.265-5.159 5.789v.126c0 3.523 2.265 5.789 5.159 5.789 2.768-.005 5.159-2.27 5.159-5.793z" class="cls-1" data-name="Path 17287" transform="translate(-31.362 -8.9)"/>
        <path id="Path_17288" d="M166.9 27.021c0-7.047 4.53-10.948 9.564-10.948a7.867 7.867 0 0 1 6.544 3.146V8.9h5.914v28.691h-5.914v-3.02a7.435 7.435 0 0 1-6.544 3.4c-4.908-.128-9.564-3.903-9.564-10.95zm16.233 0c0-3.523-2.265-5.914-5.159-5.914s-5.159 2.265-5.159 5.789v.126c0 3.523 2.391 5.789 5.159 5.789s5.159-2.267 5.159-5.79z" class="cls-1" data-name="Path 17288" transform="translate(-22.06 -8.9)"/>
        <path id="Path_17289" d="M186 33.2l2.517-3.9a11.937 11.937 0 0 0 6.669 2.517c1.762 0 2.517-.629 2.517-1.51v-.126c0-1.258-2.013-1.762-4.4-2.391-2.894-.881-6.292-2.265-6.292-6.292v-.126c0-4.278 3.4-6.669 7.676-6.669a14.57 14.57 0 0 1 7.8 2.391l-2.265 4.153a11.886 11.886 0 0 0-5.663-2.013c-1.384 0-2.139.629-2.139 1.384v.126c0 1.133 2.013 1.762 4.279 2.517 2.894 1.007 6.418 2.391 6.418 6.292v.126c0 4.656-3.523 6.8-8.054 6.8A16.307 16.307 0 0 1 186 33.2z" class="cls-1" data-name="Path 17289" transform="translate(-17.125 -7.401)"/>
    </g>
</svg>
