<svg xmlns="http://www.w3.org/2000/svg" width="84" height="84" viewBox="0 0 84 84"><defs><style>.a{fill:#bce0fd;}.b{fill:#ffd3cf;}.c{fill:#fc98dd;}.d{fill:#fc6fd0;}.e{fill:#f0b9b4;}.f{fill:#2677ef;}.g{fill:#2699fb;}.h{fill:#fedfc5;}.i{fill:#fac4bf;}.j{fill:#00429a;}.k{fill:#005cd6;}.l{fill:#fac5bf;}</style></defs><g transform="translate(0.272)"><circle class="a" cx="42" cy="42" r="42" transform="translate(-0.272)"/><g transform="translate(4.392 0.032)"><path class="b" d="M199.8,192.418,182.459,175.08a2.776,2.776,0,1,1,3.926-3.926l-4.465-4.465a2.774,2.774,0,0,1,3.662-4.155l-1.7-1.7a2.776,2.776,0,0,1-.816-1.967,2.6,2.6,0,0,1,.037-.451,2.777,2.777,0,0,1,4.705-1.51l1.946,1.946a2.777,2.777,0,0,1-.78-2.408,2.747,2.747,0,0,1,.777-1.521,2.779,2.779,0,0,1,3.929,0L204.951,166.2l.031-.045a5.077,5.077,0,0,1,7.187.006l5.254,5.254a5.389,5.389,0,0,1,1.579,3.8l0,3.287a5.8,5.8,0,0,0,1.7,4.1l1.171,1.171-13.4,13.4-1.5-1.5a5.8,5.8,0,0,0-3.724-1.687A5.387,5.387,0,0,1,199.8,192.418Zm0,0" transform="translate(-153.465 -128.857)"/><path class="c" d="M356.758,359.861l15.211-15.211a1.283,1.283,0,0,1,1.815,0l5.417,5.417a1.283,1.283,0,0,1,0,1.815l-15.21,15.211a1.283,1.283,0,0,1-1.815,0l-5.417-5.417A1.284,1.284,0,0,1,356.758,359.861Zm0,0" transform="translate(-302.619 -290.677)"/><path class="d" d="M461.745,381.4a1.15,1.15,0,1,0,0-1.627A1.15,1.15,0,0,0,461.745,381.4Zm0,0" transform="translate(-391.99 -320.594)"/><path class="e" d="M344.974,231.846l-3.88-3.879.031-.045a5.05,5.05,0,0,1,1.962-1.219l3.515,3.515a1.151,1.151,0,0,1-1.628,1.628Zm0,0" transform="translate(-289.608 -190.629)"/><path class="b" d="M79.423,192.427l17.339-17.339a2.776,2.776,0,1,0-3.926-3.926L97.3,166.7a2.774,2.774,0,0,0-3.662-4.155l1.7-1.7a2.774,2.774,0,0,0,.816-1.966,2.6,2.6,0,0,0-.037-.452,2.777,2.777,0,0,0-4.705-1.509l-1.946,1.946a2.776,2.776,0,1,0-3.926-3.926L74.27,166.2l-.031-.044a5.078,5.078,0,0,0-7.187.005L61.8,171.419a5.389,5.389,0,0,0-1.579,3.8l0,3.287a5.8,5.8,0,0,1-1.7,4.1l-1.171,1.171,13.4,13.4,1.5-1.5a5.8,5.8,0,0,1,3.724-1.687A5.387,5.387,0,0,0,79.423,192.427Zm0,0" transform="translate(-48.15 -128.864)"/><path class="f" d="M22.349,359.872,7.138,344.662a1.283,1.283,0,0,0-1.815,0l-6.44,6.543a50.6,50.6,0,0,0,6.782,9.988,47.744,47.744,0,0,0,9.159,7.536l7.524-7.041A1.284,1.284,0,0,0,22.349,359.872Zm0,0" transform="translate(1.117 -290.687)"/><path class="g" d="M107.055,451.334a1.15,1.15,0,1,0-1.627,0A1.15,1.15,0,0,0,107.055,451.334Zm0,0" transform="translate(-88.781 -380.108)"/><path class="e" d="M133.654,231.858l3.879-3.88-.031-.044a5.05,5.05,0,0,0-1.962-1.219l-3.515,3.514a1.152,1.152,0,0,0,1.629,1.629Zm0,0" transform="translate(-111.413 -190.639)"/><path class="h" d="M174.431,78.114v24.521a2.776,2.776,0,1,1-5.552,0v6.314a2.771,2.771,0,0,1-.812,1.965,2.772,2.772,0,0,1-3.572.3,2.775,2.775,0,0,1-1.143-1.918v2.4a2.776,2.776,0,0,1-.814,1.967,2.631,2.631,0,0,1-.345.293,2.777,2.777,0,0,1-4.4-2.26v-2.751a2.776,2.776,0,1,1-5.552,0V93.013l-.054.009a5.077,5.077,0,0,1-5.078-5.086V80.506a5.392,5.392,0,0,1,1.574-3.806l2.322-2.326a5.8,5.8,0,0,0,1.7-4.1V68.617h18.951v2.117a5.807,5.807,0,0,0,1.44,3.826A5.388,5.388,0,0,1,174.431,78.114Zm0,0" transform="translate(-124.54 -56.105)"/><path class="e" d="M166.969,171.159a2.779,2.779,0,0,0-3.93,0L167.5,166.7a2.774,2.774,0,0,0-3.662-4.155l1.7-1.7a2.776,2.776,0,0,0,.815-1.966,2.614,2.614,0,0,0-.037-.452,2.778,2.778,0,0,0-4.706-1.509l-1.946,1.946a2.776,2.776,0,1,0-3.926-3.926L144.473,166.2l-.031-.044a5.05,5.05,0,0,0-1.962-1.219,5.1,5.1,0,0,0-2.636-.163,7.438,7.438,0,0,0,3.912,2.959v13.972a5.085,5.085,0,0,0,6.071,4.987,5.095,5.095,0,0,0,2.945,2.586l14.192-14.192A2.777,2.777,0,0,0,166.969,171.159Zm0,0" transform="translate(-118.353 -128.864)"/><path class="e" d="M205.653,175.387v-9.807a5.154,5.154,0,0,0-.678.57l-.031.045-11.268-11.268a2.779,2.779,0,0,0-3.929,0,2.747,2.747,0,0,0-.777,1.521,2.777,2.777,0,0,0,.78,2.408l-1.946-1.946a2.775,2.775,0,0,0-4.706,1.51,2.66,2.66,0,0,0-.037.451,2.776,2.776,0,0,0,.816,1.967l1.7,1.7a2.772,2.772,0,0,0-4.442,1.747,2.72,2.72,0,0,0-.036.444,2.768,2.768,0,0,0,.815,1.964l4.465,4.465a2.776,2.776,0,1,0-3.926,3.926L194.067,186.7a5.1,5.1,0,0,0,.954.09,5.035,5.035,0,0,0,2.972-.962,5.131,5.131,0,0,0,.621-.528A5.048,5.048,0,0,0,200.1,181.7V180.45c.156.015.314.022.473.022A5.087,5.087,0,0,0,205.653,175.387Zm0,0" transform="translate(-153.459 -128.857)"/><path class="b" d="M174.431,78.114v24.521a2.777,2.777,0,0,1-2.776,2.781c-.041,0-.086,0-.13,0a2.747,2.747,0,0,1-1.491-.522l0,0a2.775,2.775,0,0,1-1.152-2.254v6.314a2.771,2.771,0,0,1-.812,1.965,2.772,2.772,0,0,1-3.572.3,2.775,2.775,0,0,1-1.143-1.918v2.4a2.776,2.776,0,0,1-.814,1.967,2.631,2.631,0,0,1-.345.293,2.777,2.777,0,0,1-4.4-2.26v-2.751a2.776,2.776,0,1,1-5.552,0V93.013l-.054.009a5.077,5.077,0,0,1-5.078-5.086V80.506a5.392,5.392,0,0,1,1.574-3.806l2.322-2.326a5.818,5.818,0,0,0,1.7-4.1V68.617h18.951v2.117a5.261,5.261,0,0,0,.183,1.432,5.774,5.774,0,0,0,1.258,2.394A5.43,5.43,0,0,1,174.431,78.114Zm0,0" transform="translate(-124.54 -56.105)"/><path class="i" d="M204.87,78.114v24.521a2.777,2.777,0,0,1-2.776,2.781c-.041,0-.086,0-.13,0a2.747,2.747,0,0,1-1.491-.522l.047-23.628a3.615,3.615,0,0,0-.092-.656,10.68,10.68,0,0,0-10.684-8.619h-6.861a5.779,5.779,0,0,0,.26-1.713V68.617h18.951v2.117a5.261,5.261,0,0,0,.183,1.432,5.774,5.774,0,0,0,1.258,2.394A5.43,5.43,0,0,1,204.87,78.114Zm0,0" transform="translate(-154.978 -56.105)"/><path class="j" d="M189.9,8.568H168.385A1.283,1.283,0,0,1,167.1,7.285V-2.31a47.529,47.529,0,0,1,11.662-1.636A58.18,58.18,0,0,1,191.179-2.31V7.285A1.283,1.283,0,0,1,189.9,8.568Zm0,0" transform="translate(-141.549 3.945)"/><path class="k" d="M194.761,27.738a1.15,1.15,0,1,0-1.15,1.152A1.15,1.15,0,0,0,194.761,27.738Zm0,0" transform="translate(-163.128 -20.338)"/><g transform="translate(25.403 30.27)"><path class="l" d="M287.726,204.183v15.086a2.774,2.774,0,0,1-1.152-2.254v6.314a2.769,2.769,0,0,1-.812,1.966,2.7,2.7,0,0,1-.339.289v-21.4a1.152,1.152,0,0,1,2.3,0Zm0,0" transform="translate(-267.637 -200.755)"/><path class="l" d="M250.588,204.183V225.6a2.775,2.775,0,0,1-1.144-1.918v2.4a2.774,2.774,0,0,1-.814,1.967,2.635,2.635,0,0,1-.345.293V204.183a1.152,1.152,0,1,1,2.3,0Zm0,0" transform="translate(-236.035 -200.755)"/><path class="l" d="M213.374,204.183v24.152a2.775,2.775,0,0,1-1.152-2.254v-2.752a2.776,2.776,0,0,1-1.152,2.254v-21.4a1.152,1.152,0,1,1,2.3,0Zm0,0" transform="translate(-204.367 -200.755)"/><path class="l" d="M168.4,188.913V194.4l-.054.009a5.052,5.052,0,0,1-2.249-.525v-4.971a1.152,1.152,0,0,1,2.3,0Zm0,0" transform="translate(-166.094 -187.762)"/></g></g></g></svg>