<svg xmlns="http://www.w3.org/2000/svg" width="18.413" height="18.375" viewBox="0 0 18.413 18.375"><defs><style>.a{fill:#385cf8;}.b{fill:none;stroke:#385cf8;stroke-linecap:round;stroke-width:1.6px;}</style></defs><g transform="translate(0 -0.5)"><g transform="translate(0 0.5)"><path class="a" d="M17.628.5H.781A.782.782,0,0,0,0,1.281V18.094a.782.782,0,0,0,.781.781H17.594a.839.839,0,0,0,.82-.743V1.285A.788.788,0,0,0,17.628.5Zm-.781,16.851H1.524V2.028H16.851V17.351h0Z" transform="translate(0 -0.5)"/><g transform="translate(1.999 2.133)"><path class="a" d="M86.7,81.9a.7.7,0,0,0-.674.709v4.077H81.909a.709.709,0,1,0,0,1.417H86.7a.709.709,0,0,0,.709-.709V82.609A.711.711,0,0,0,86.7,81.9Z" transform="translate(-81.2 -81.9)"/><path class="b" d="M8.007,7.75,4.119,4.129" transform="translate(-2.702 -2.451)"/></g><g transform="translate(9.405 9.408)"><path class="a" d="M225.281,219.781A.782.782,0,0,0,224.5,219h-5.28a.843.843,0,0,0-.82.781v5.279a.781.781,0,0,0,1.562,0v-4.494H224.5A.785.785,0,0,0,225.281,219.781Z" transform="translate(-218.4 -219)"/><path class="b" d="M7.914,7.619l-3.8-3.49" transform="translate(-2.596 -2.34)"/></g></g></g></svg>
