<svg xmlns="http://www.w3.org/2000/svg" width="165.539" height="160.553" viewBox="0 0 165.539 160.553">
    <defs>
        <style>
            .prefix__cls-2{fill:#fecbaa}.prefix__cls-5{fill:#ffae85}.prefix__cls-8{fill:#fedfc5}.prefix__cls-11{fill:#f83d77}.prefix__cls-14{fill:#fff}.prefix__cls-15{fill:#ddf0ff}
        </style>
    </defs>
    <g id="prefix__no-access-collaborators-icon" transform="translate(-216.24 -196.656)">
        <circle id="prefix__Ellipse_778" cx="72.5" cy="72.5" r="72.5" data-name="Ellipse 778" transform="translate(216.24 196.656)" style="fill:#c4e6ff"/>
        <g id="prefix__team" transform="translate(224.291 196.711)">
            <path id="prefix__Path_24930" d="M213.372 220.236l-29.93-29.93a4.792 4.792 0 116.778-6.777l-7.707-7.707a4.789 4.789 0 016.321-7.173l-2.933-2.933a4.792 4.792 0 01-1.408-3.395 4.494 4.494 0 01.064-.779 4.794 4.794 0 018.122-2.606l3.359 3.359a4.794 4.794 0 01-1.346-4.157 4.742 4.742 0 011.341-2.626 4.8 4.8 0 016.783.006l19.451 19.451.054-.077a8.764 8.764 0 0112.406.01l9.069 9.069a9.3 9.3 0 012.726 6.567l.005 5.674a10.014 10.014 0 002.936 7.073l2.022 2.022-23.133 23.133-2.585-2.585a10.02 10.02 0 00-6.428-2.912 9.3 9.3 0 01-5.967-2.707zm0 0" class="prefix__cls-2" data-name="Path 24930" transform="translate(-133.393 -110.517)"/>
            <path id="prefix__Path_24931" d="M357.031 371.18l26.256-26.256a2.215 2.215 0 013.133 0l9.35 9.35a2.215 2.215 0 010 3.133l-26.255 26.256a2.215 2.215 0 01-3.133 0l-9.351-9.35a2.216 2.216 0 010-3.133zm0 0" data-name="Path 24931" transform="translate(-263.576 -251.755)" style="fill:#fc98dd"/>
            <path id="prefix__Path_24932" d="M461.99 382.821a1.984 1.984 0 100-2.809 1.986 1.986 0 000 2.809zm0 0" data-name="Path 24932" transform="translate(-341.58 -277.867)" style="fill:#ff8812"/>
            <path id="prefix__Path_24933" d="M347.791 235.581l-6.7-6.7.054-.077a8.718 8.718 0 013.387-2.1l6.067 6.067a1.988 1.988 0 01-2.811 2.811zm0 0" class="prefix__cls-5" data-name="Path 24933" transform="translate(-252.22 -164.432)"/>
            <path id="prefix__Path_24934" d="M95.456 220.245l29.93-29.93a4.793 4.793 0 10-6.778-6.778l7.707-7.706a4.789 4.789 0 00-6.321-7.173l2.933-2.934a4.788 4.788 0 001.408-3.394 4.5 4.5 0 00-.064-.78 4.794 4.794 0 00-8.122-2.6l-3.359 3.359a4.793 4.793 0 10-6.778-6.778l-19.451 19.447-.054-.076a8.765 8.765 0 00-12.406.009l-9.069 9.07a9.3 9.3 0 00-2.726 6.567l-.006 5.673a10.009 10.009 0 01-2.935 7.074l-2.022 2.022 23.132 23.132 2.585-2.585a10.02 10.02 0 016.428-2.912 9.3 9.3 0 005.968-2.707zm0 0" class="prefix__cls-2" data-name="Path 24934" transform="translate(-41.473 -110.523)"/>
            <path id="prefix__Path_24935" d="M39.389 371.191l-26.256-26.256a2.215 2.215 0 00-3.133 0L-1.117 356.23a87.354 87.354 0 0011.707 17.24 82.415 82.415 0 0015.81 13.008l12.989-12.154a2.216 2.216 0 000-3.133zm0 0" data-name="Path 24935" transform="translate(1.117 -251.764)" style="fill:#2677ef"/>
            <path id="prefix__Path_24936" d="M108.481 452.76a1.984 1.984 0 10-2.809 0 1.986 1.986 0 002.809 0zm0 0" data-name="Path 24936" transform="translate(-76.936 -329.811)" style="fill:#2699fb"/>
            <path id="prefix__Path_24937" d="M135.081 235.593l6.7-6.7-.054-.076a8.717 8.717 0 00-3.387-2.1l-6.067 6.066a1.988 1.988 0 002.812 2.812zm0 0" class="prefix__cls-5" data-name="Path 24937" transform="translate(-96.69 -164.441)"/>
            <path id="prefix__Path_24938" d="M194.27 85.011v42.327a4.792 4.792 0 11-9.585 0v10.9a4.783 4.783 0 01-1.4 3.392 4.785 4.785 0 01-6.166.521 4.79 4.79 0 01-1.974-3.311v4.149a4.791 4.791 0 01-1.4 3.395 4.54 4.54 0 01-.6.507 4.794 4.794 0 01-7.587-3.9v-4.75a4.792 4.792 0 11-9.585 0v-27.512l-.092.016a8.764 8.764 0 01-8.766-8.779V89.14a9.308 9.308 0 012.717-6.571l4.008-4.015a10.013 10.013 0 002.927-7.077v-2.86h32.713v3.655a10.023 10.023 0 002.486 6.6 9.3 9.3 0 012.304 6.139zm0 0" class="prefix__cls-8" data-name="Path 24938" transform="translate(-108.147 -47.018)"/>
            <path id="prefix__Path_24939" d="M186.666 183.532a4.8 4.8 0 00-6.784.006l7.707-7.707a4.789 4.789 0 00-6.321-7.173l2.934-2.934a4.791 4.791 0 001.407-3.394 4.511 4.511 0 00-.063-.78 4.795 4.795 0 00-8.123-2.6l-3.359 3.359a4.793 4.793 0 10-6.778-6.778l-19.451 19.451-.054-.076a8.718 8.718 0 00-3.387-2.1 8.81 8.81 0 00-4.551-.281 12.84 12.84 0 006.754 5.107v24.119a8.777 8.777 0 0010.48 8.609 8.795 8.795 0 005.084 4.463l24.5-24.5a4.794 4.794 0 00.005-6.791zm0 0" class="prefix__cls-5" data-name="Path 24939" transform="translate(-102.747 -110.523)"/>
            <path id="prefix__Path_24940" d="M223.484 190.837v-16.928a8.9 8.9 0 00-1.171.984l-.054.077-19.451-19.45a4.8 4.8 0 00-6.783-.006 4.742 4.742 0 00-1.341 2.626 4.794 4.794 0 001.346 4.157l-3.359-3.359a4.79 4.79 0 00-8.123 2.606 4.591 4.591 0 00-.063.779 4.792 4.792 0 001.408 3.395l2.933 2.933a4.785 4.785 0 00-7.667 3.016 4.7 4.7 0 00-.061.767 4.778 4.778 0 001.407 3.39l7.707 7.707a4.793 4.793 0 10-6.778 6.778l20.051 20.05a8.807 8.807 0 001.647.155 8.691 8.691 0 005.13-1.66 8.862 8.862 0 001.071-.912 8.714 8.714 0 002.567-6.2v-2.161c.269.025.543.037.816.037a8.782 8.782 0 008.768-8.781zm0 0" class="prefix__cls-5" data-name="Path 24940" transform="translate(-133.387 -110.517)"/>
            <path id="prefix__Path_24941" d="M194.27 85.011v42.327a4.793 4.793 0 01-4.792 4.8c-.071 0-.149 0-.225-.005a4.742 4.742 0 01-2.574-.9h-.006a4.79 4.79 0 01-1.988-3.89v10.9a4.783 4.783 0 01-1.4 3.392 4.785 4.785 0 01-6.166.521 4.79 4.79 0 01-1.974-3.311v4.149a4.791 4.791 0 01-1.4 3.395 4.54 4.54 0 01-.6.507 4.794 4.794 0 01-7.587-3.9v-4.75a4.792 4.792 0 11-9.585 0v-27.517l-.092.016a8.764 8.764 0 01-8.766-8.779V89.14a9.308 9.308 0 012.717-6.571l4.008-4.015a10.042 10.042 0 002.927-7.077v-2.86h32.713v3.655a9.081 9.081 0 00.316 2.472 9.967 9.967 0 002.171 4.133 9.374 9.374 0 012.303 6.134zm0 0" class="prefix__cls-8" data-name="Path 24941" transform="translate(-108.147 -47.018)"/>
            <path id="prefix__Path_24942" d="M220.836 85.011v42.327a4.793 4.793 0 01-4.792 4.8c-.071 0-.149 0-.225-.005a4.742 4.742 0 01-2.574-.9l.081-40.787a6.239 6.239 0 00-.159-1.132 18.436 18.436 0 00-18.443-14.878h-11.841a9.975 9.975 0 00.448-2.958v-2.86h32.713v3.655a9.081 9.081 0 00.316 2.472 9.966 9.966 0 002.171 4.133 9.374 9.374 0 012.305 6.133zm0 0" class="prefix__cls-2" data-name="Path 24942" transform="translate(-134.713 -47.018)"/>
            <path id="prefix__Path_24943" d="M206.449 17.655h-37.132a2.215 2.215 0 01-2.217-2.215V-1.122a82.044 82.044 0 0120.131-2.824 100.43 100.43 0 0121.431 2.824V15.44a2.215 2.215 0 01-2.213 2.215zm0 0" data-name="Path 24943" transform="translate(-122.992 3.945)" style="fill:#00429a"/>
            <path id="prefix__Path_24944" d="M196.431 28.574a1.985 1.985 0 10-1.985 1.988 1.986 1.986 0 001.985-1.988zm0 0" data-name="Path 24944" transform="translate(-141.827 -15.801)" style="fill:#005cd6"/>
            <g id="prefix__Group_11028" data-name="Group 11028" transform="translate(43.85 52.252)">
                <path id="prefix__Path_24945" d="M289.4 205.019v26.041a4.789 4.789 0 01-1.989-3.891v10.9a4.78 4.78 0 01-1.4 3.393 4.651 4.651 0 01-.586.5v-36.943a1.988 1.988 0 013.977 0zm0 0" class="prefix__cls-2" data-name="Path 24945" transform="translate(-254.721 -199.103)"/>
                <path id="prefix__Path_24946" d="M252.261 205.019v36.962a4.791 4.791 0 01-1.975-3.31v4.149a4.789 4.789 0 01-1.4 3.395 4.547 4.547 0 01-.6.507v-41.7a1.988 1.988 0 113.976 0zm0 0" class="prefix__cls-2" data-name="Path 24946" transform="translate(-227.139 -199.103)"/>
                <path id="prefix__Path_24947" d="M215.046 205.019v41.69a4.79 4.79 0 01-1.988-3.89v-4.751a4.792 4.792 0 01-1.988 3.891v-36.94a1.988 1.988 0 113.976 0zm0 0" class="prefix__cls-2" data-name="Path 24947" transform="translate(-199.499 -199.103)"/>
                <path id="prefix__Path_24948" d="M170.069 189.75v9.471l-.093.015a8.721 8.721 0 01-3.882-.906v-8.58a1.988 1.988 0 113.976 0zm0 0" class="prefix__cls-2" data-name="Path 24948" transform="translate(-166.094 -187.762)"/>
            </g>
        </g>
        <g id="prefix__warning" transform="translate(309.798 263.974)">
            <path id="prefix__Path_19272" d="M70.5 77.277L45.068 34.72a10.574 10.574 0 00-18.154 0L1.484 77.277A10.543 10.543 0 001.4 87.916a10.416 10.416 0 009.161 5.32H61.42a10.416 10.416 0 009.161-5.32 10.542 10.542 0 00-.081-10.639z" class="prefix__cls-11" data-name="Path 19272"/>
            <path id="prefix__Path_19273" d="M290.591 87.917a10.416 10.416 0 01-9.161 5.32H256V29.57a10.54 10.54 0 019.077 5.151l25.43 42.557a10.543 10.543 0 01.084 10.639z" data-name="Path 19273" transform="translate(-220.009 -.001)" style="fill:#eb1154"/>
            <path id="prefix__Path_19274" d="M36.341 114.821a6.171 6.171 0 01-5.492-3.187 6.293 6.293 0 01.066-6.428l25.406-42.522a6.356 6.356 0 0110.917.029l25.41 42.526a6.278 6.278 0 01.045 6.395 6.171 6.171 0 01-5.492 3.187h-50.86z" data-name="Path 19274" transform="translate(-25.781 -25.807)" style="fill:#ff5d8f"/>
            <path id="prefix__Path_19275" d="M281.43 114.82a6.171 6.171 0 005.492-3.187 6.279 6.279 0 00-.045-6.395l-25.411-42.526A6.358 6.358 0 00256 59.6v55.22z" class="prefix__cls-11" data-name="Path 19275" transform="translate(-220.008 -25.806)"/>
            <path id="prefix__Path_19276" d="M234.413 126.286v16.888a4.222 4.222 0 01-8.444 0v-16.888a4.222 4.222 0 118.444 0z" class="prefix__cls-14" data-name="Path 19276" transform="translate(-194.2 -79.491)"/>
            <path id="prefix__Path_19277" d="M260.222 126.286v16.888A4.234 4.234 0 01256 147.4v-25.336a4.234 4.234 0 014.222 4.222z" class="prefix__cls-15" data-name="Path 19277" transform="translate(-220.009 -79.491)"/>
            <path id="prefix__Path_19278" d="M217.287 332.278a6.333 6.333 0 106.333 6.333 6.324 6.324 0 00-6.333-6.333z" class="prefix__cls-14" data-name="Path 19278" transform="translate(-181.296 -260.152)"/>
            <path id="prefix__Path_19279" d="M262.333 338.611a6.324 6.324 0 01-6.333 6.333v-12.666a6.324 6.324 0 016.333 6.333z" class="prefix__cls-15" data-name="Path 19279" transform="translate(-220.009 -260.152)"/>
        </g>
    </g>
</svg>
