<svg xmlns="http://www.w3.org/2000/svg" width="21" height="21" viewBox="0 0 21 21"><defs><style>.a,.b{fill:#2148ff;}.a{opacity:0.005;}</style></defs><g transform="translate(-11.332 -5)"><rect class="a" width="21" height="21" transform="translate(11.332 5)"/><path class="b" d="M24265.262,22932.342h-.02c-.025,0-.1-.016-.781-.148l-.314-.062c-.416-.084-.992-.2-1.8-.355a5.865,5.865,0,0,1-2.521.566,5.917,5.917,0,0,1,.006-11.834c.105,0,.2,0,.281.008a5.921,5.921,0,0,1,5.322,7.813h.02l0,0,0,.006a5.831,5.831,0,0,1-.256.613l.559,2.783a.511.511,0,0,1-.5.609Zm-17.3-5.328a.509.509,0,0,1-.492-.609l.555-2.777a5.877,5.877,0,0,1-.562-2.527,5.936,5.936,0,0,1,11.262-2.605,6.935,6.935,0,0,0-6.668,8.361,5.469,5.469,0,0,1-1.176-.408l-2.814.555-.016,0-.014,0A.455.455,0,0,1,24247.965,22927.014Z" transform="translate(-24235 -22908)"/></g></svg>