<svg xmlns="http://www.w3.org/2000/svg" xmlns:xlink="http://www.w3.org/1999/xlink" width="20" height="20" viewBox="0 0 20 20"><defs><style>.a{fill:url(#a);}.b{fill:#fff;}.c,.d{stroke:none;}.d{fill:#2148ff;}</style><linearGradient id="a" x1="0.5" x2="0.755" y2="1" gradientUnits="objectBoundingBox"><stop offset="0" stop-color="#385cf8"/><stop offset="1" stop-color="#2148ff"/></linearGradient></defs><g transform="translate(-66 -296)"><g class="a" transform="translate(66 296)"><path class="c" d="M 10 19.5 C 4.761680126190186 19.5 0.5 15.23832035064697 0.5 10 C 0.5 4.761680126190186 4.761680126190186 0.5 10 0.5 C 15.23832035064697 0.5 19.5 4.761680126190186 19.5 10 C 19.5 15.23832035064697 15.23832035064697 19.5 10 19.5 Z"/><path class="d" d="M 10 1 C 5.037380218505859 1 1 5.037380218505859 1 10 C 1 14.96261978149414 5.037380218505859 19 10 19 C 14.96261978149414 19 19 14.96261978149414 19 10 C 19 5.037380218505859 14.96261978149414 1 10 1 M 10 0 C 15.52285003662109 0 20 4.477149963378906 20 10 C 20 15.52285003662109 15.52285003662109 20 10 20 C 4.477149963378906 20 0 15.52285003662109 0 10 C 0 4.477149963378906 4.477149963378906 0 10 0 Z"/></g><path class="b" d="M3.823,8.756.292,5.171a1.058,1.058,0,0,1,0-1.459L1.1,2.9a1.041,1.041,0,0,1,1.447,0l2,2.031L9.16.3a1.032,1.032,0,0,1,1.447,0l.806.812a1.051,1.051,0,0,1,0,1.456L6.184,7.811a.906.906,0,0,1-.111.133l-.8.812a1.039,1.039,0,0,1-1.447,0Z" transform="translate(69.942 301.475)"/></g></svg>