<svg xmlns="http://www.w3.org/2000/svg" width="16.263" height="15.12" viewBox="0 0 16.263 15.12"><defs><style>.a{fill:#385cf8;}.b{fill:none;}.c{fill:#fff;}</style></defs><g transform="translate(-49)"><path class="a" d="M64.673,0H50.846c-.325,0-.589.2-.589.443V2.392h-.668c-.325,0-.589.2-.589.443s.264.443.589.443h.668V4.755h-.668c-.325,0-.589.2-.589.443s.264.443.589.443h.668V7.117h-.668c-.325,0-.589.2-.589.443s.264.443.589.443h.668V9.48h-.668c-.325,0-.589.2-.589.443s.264.443.589.443h.668v1.477h-.668c-.325,0-.589.2-.589.443s.264.443.589.443h.668v1.949c0,.245.264.443.589.443H64.673c.325,0,.589-.2.589-.443V.443C65.263.2,65,0,64.673,0ZM60.9,11.075c-.325,0-.589-.2-.589-.443a2.559,2.559,0,0,0-5.107,0c0,.245-.264.443-.589.443s-.589-.2-.589-.443a3.259,3.259,0,0,1,1.935-2.887,1.938,1.938,0,0,1-.992-1.6c0-1.156,1.251-2.1,2.789-2.1s2.789.941,2.789,2.1a1.938,1.938,0,0,1-.992,1.6,3.259,3.259,0,0,1,1.935,2.887C61.492,10.876,61.228,11.075,60.9,11.075Z" transform="translate(0)"/><circle class="a" cx="5.5" cy="5.5" r="5.5" transform="translate(52.37 3.545)"/><g transform="translate(52.485 0.545)"><rect class="b" width="10.012" height="9.41" transform="translate(1.029 3)"/><path class="c" d="M12.391,8.436a2.218,2.218,0,1,0-2.218-2.218A2.225,2.225,0,0,0,12.391,8.436Zm0,1.109c-1.5,0-4.436.721-4.436,2.218v1.109h8.872V11.763C16.827,10.266,13.888,9.545,12.391,9.545Z" transform="translate(-7.071 -1)"/></g></g></svg>
