<svg xmlns="http://www.w3.org/2000/svg" width="25" height="17" viewBox="0 0 25 17"><defs><style>.a{fill:#9696b9;}</style></defs><path class="a" d="M21,17H4a4,4,0,0,1-4-4V4A4,4,0,0,1,4,0H21a4,4,0,0,1,4,4v9A4,4,0,0,1,21,17ZM2.632,12.974v1.342H22.807V12.974Zm0-2.684v1.342H22.807V10.29ZM17.762,6.556h0a2.825,2.825,0,0,0,2.193,1.048A2.883,2.883,0,0,0,22.807,4.7a2.883,2.883,0,0,0-2.851-2.908,2.827,2.827,0,0,0-2.193,1.049A2.823,2.823,0,0,0,15.57,1.789,2.883,2.883,0,0,0,12.719,4.7,2.883,2.883,0,0,0,15.57,7.605a2.821,2.821,0,0,0,2.192-1.048Z" transform="translate(0 0)"/></svg>