<svg xmlns="http://www.w3.org/2000/svg" width="25.907" height="17.319" viewBox="0 0 25.907 17.319">
  <g id="contract_1_" data-name="contract (1)" transform="translate(-28.545 -0.001)">
    <path id="Subtraction_11" data-name="Subtraction 11" d="M13.861,17.319H0V0H13.861V17.318Zm-5.187-4-.045,0a2.126,2.126,0,0,0-1.15.87,2.919,2.919,0,0,0-.615,1.092.31.31,0,0,0,.074.215.322.322,0,0,0,.217.1H7.17a.3.3,0,0,0,.3-.275,3.211,3.211,0,0,1,.512-.792,1.869,1.869,0,0,1,.729-.615.3.3,0,0,0-.035-.6Zm3.422.8h0a.478.478,0,0,1,.1.235.287.287,0,0,1-.109.231.31.31,0,0,0,0,.433.326.326,0,0,0,.217.089.3.3,0,0,0,.217-.089.911.911,0,0,0,.285-.708,1.537,1.537,0,0,0-.635-.979.287.287,0,0,0-.18-.063.277.277,0,0,0-.086.014.3.3,0,0,0-.2.187,5.277,5.277,0,0,1-.236.556,2.183,2.183,0,0,0-.221-.565.3.3,0,0,0-.26-.145l-.041,0a.289.289,0,0,0-.25.207c-.178.557-.469.93-.648.969a.169.169,0,0,1-.033,0,.3.3,0,0,1-.2-.122c-.131-.146-.184-.282.174-.929l.01-.017a2.369,2.369,0,0,0,.289-.7.772.772,0,0,0-.373-.811.881.881,0,0,0-.5-.143,1.49,1.49,0,0,0-.529.109A6.255,6.255,0,0,0,6.1,14.5a.308.308,0,0,0,.295.392.3.3,0,0,0,.291-.22A5.982,5.982,0,0,1,9.1,12.456a.991.991,0,0,1,.32-.07.305.305,0,0,1,.166.041c.162.108.172.188-.123.728-.25.454-.6,1.076-.094,1.633a.855.855,0,0,0,.643.323.762.762,0,0,0,.164-.018,1.267,1.267,0,0,0,.732-.585.727.727,0,0,1-.039.206.3.3,0,0,0,.291.4.3.3,0,0,0,.127-.03,1.763,1.763,0,0,0,.811-.958Zm-10.02-4.8a.3.3,0,1,0,0,.61H9.328a.3.3,0,0,0,0-.61ZM6.363,7.9a.3.3,0,0,0,0,.61h5.424a.3.3,0,0,0,0-.61Zm-4.287,0a.3.3,0,1,0,0,.61H5.469a.3.3,0,0,0,.3-.3.3.3,0,0,0-.3-.3ZM9.568,6.471a.3.3,0,0,0,0,.61h2.219a.3.3,0,0,0,0-.61Zm-7.492,0a.3.3,0,1,0,0,.61H8.635a.3.3,0,0,0,0-.61Zm0-1.421a.3.3,0,1,0,0,.6h9.711a.3.3,0,1,0,0-.6Zm6.07-1.426a.3.3,0,0,0,0,.61h3.641a.3.3,0,0,0,0-.61Zm-6.07,0a.3.3,0,1,0,0,.61H7.213a.3.3,0,0,0,0-.61Zm0-1.426a.3.3,0,1,0,0,.61h9.711a.3.3,0,0,0,0-.61Z" transform="translate(28.545 0.001)" fill="#9696b9"/>
    <path id="Union_97" data-name="Union 97" d="M10.5,11.181,9.377,10.045h0l-.605.61L6.652,8.52h0L6.107,7.97,4.775,6.627,4.455,6.3h0L1.887,3.714l-.549.554L3.285,6.23,2.5,7.021.162,4.666a.563.563,0,0,1,0-.792l.523-.529,0,0,.42-.424L.2,2.011,2.2,0,3.5,1.3,6.852,4.689l.387.385,0,0,.99,1,.428.429h0L10.77,8.639l-.607.613,0,0,.373.374,0,0,.756.76a.558.558,0,0,1-.395.954A.552.552,0,0,1,10.5,11.181Z" transform="translate(46.354 1.202) rotate(45)" fill="#9696b9"/>
  </g>
</svg>
