<svg xmlns="http://www.w3.org/2000/svg" xmlns:xlink="http://www.w3.org/1999/xlink" width="246.949" height="496.198" viewBox="0 0 246.949 496.198"><defs><style>.a{fill:url(#a);}.b{fill:#dedee4;}.c{fill:#161643;}.d{fill:#fff;}</style><radialGradient id="a" cx="0.5" cy="0.5" r="0.612" gradientTransform="translate(0 0)" gradientUnits="objectBoundingBox"><stop offset="0" stop-color="#f2f2f5"/><stop offset="1" stop-color="#ebebeb"/></radialGradient></defs><g transform="translate(-243.004 -219)"><g transform="translate(243.004 219)"><path class="a" d="M210.1,496.2H36.838A34.512,34.512,0,0,1,2.3,461.656v-278.6a2.307,2.307,0,0,1-2.3-2.3V149.666a2.306,2.306,0,0,1,2.3-2.3v-9.209a2.307,2.307,0,0,1-2.3-2.3V104.763a2.3,2.3,0,0,1,2.3-2.3V85.193A2.307,2.307,0,0,1,0,82.89V69.074a2.305,2.305,0,0,1,2.3-2.3V34.537A34.51,34.51,0,0,1,36.838,0H210.1a34.51,34.51,0,0,1,34.536,34.537v80.016a2.307,2.307,0,0,1,2.308,2.3v51.808a2.309,2.309,0,0,1-2.308,2.3V461.656A34.509,34.509,0,0,1,210.1,496.2ZM40.1,16.119A23.131,23.131,0,0,0,16.939,39.278v416.86A23.141,23.141,0,0,0,40.1,479.3H206.842A23.131,23.131,0,0,0,230,456.137V39.278a23.141,23.141,0,0,0-23.162-23.158l-20.086.15c-.048,0-.166-.013-.334-.013a3.348,3.348,0,0,0-2.6.988c-.843,1.072-.789,3.289-.771,3.722a.032.032,0,0,0,0,.011,15.655,15.655,0,0,1-.56,2.985,15.1,15.1,0,0,1-3.043,5.808c-2.969,3.368-8.183,3.539-9.2,3.539-.13,0-.2,0-.2,0l-96.109-.075a14.876,14.876,0,0,1-2.616-.934A11.745,11.745,0,0,1,66.9,28.97c-2.456-3.216-2.855-8.637-2.859-8.691a.025.025,0,0,0,0-.009A4.4,4.4,0,0,0,63.18,17.2c-1.021-1.016-3.271-1.045-3.295-1.045Z" transform="translate(0)"/><path class="b" d="M85.568-962.546A3.453,3.453,0,0,1,89.021-966a3.454,3.454,0,0,1,3.454,3.453,3.454,3.454,0,0,1-3.454,3.454A3.454,3.454,0,0,1,85.568-962.546Zm-36.841,1.727A1.728,1.728,0,0,1,47-962.546a1.727,1.727,0,0,1,1.727-1.727H75.782a1.727,1.727,0,0,1,1.727,1.727,1.727,1.727,0,0,1-1.727,1.727Z" transform="translate(61.215 982.118)"/><g transform="translate(16.938 16.117)"><path class="c" d="M23.159,0,42.946.036s2.256.013,3.3,1.045A4.464,4.464,0,0,1,47.1,4.164s.383,5.452,2.856,8.689S57,17.111,57,17.111l96.108.079s6.087.226,9.4-3.537a16.235,16.235,0,0,0,3.607-8.8s-.158-2.553.769-3.729,2.938-.977,2.938-.977L189.9,0a23.159,23.159,0,0,1,23.159,23.159V71.277H0V23.159A23.159,23.159,0,0,1,23.159,0Z" transform="translate(0)"/><path class="d" d="M-32.667,2.293-36.188-6.67h-1.962L-41.67,2.293h1.787l.658-1.72h4.112l.658,1.72Zm-2.889-3.1h-3.225l1.612-4.273Zm9.809,3.1V-6.67h-1.411V-3.3a2.6,2.6,0,0,0-2.083-1.062c-1.68,0-2.889,1.317-2.889,3.413,0,2.137,1.223,3.4,2.889,3.4a2.628,2.628,0,0,0,2.083-1.048v.887ZM-28.837,1.2a1.907,1.907,0,0,1-1.827-2.15,1.912,1.912,0,0,1,1.827-2.163,2.132,2.132,0,0,1,1.68.873V.344A2.121,2.121,0,0,1-28.837,1.2Zm10.9,1.088V-6.67h-1.411V-3.3a2.6,2.6,0,0,0-2.083-1.062c-1.68,0-2.889,1.317-2.889,3.413,0,2.137,1.223,3.4,2.889,3.4a2.628,2.628,0,0,0,2.083-1.048v.887ZM-21.03,1.2a1.907,1.907,0,0,1-1.827-2.15A1.912,1.912,0,0,1-21.03-3.109a2.132,2.132,0,0,1,1.68.873V.344A2.121,2.121,0,0,1-21.03,1.2Zm9.984,1.088V-1.053h2.365A2.741,2.741,0,0,0-5.752-3.862,2.734,2.734,0,0,0-8.681-6.67h-3.937V2.293Zm2.15-4.73h-2.15V-5.286H-8.9A1.413,1.413,0,0,1-7.365-3.862,1.413,1.413,0,0,1-8.9-2.437Zm7.2,4.891A3.783,3.783,0,0,0,.94,1.513L.295.586A2.747,2.747,0,0,1-1.546,1.3,1.966,1.966,0,0,1-3.616-.489H1.4V-.825A3.216,3.216,0,0,0-1.8-4.359a3.28,3.28,0,0,0-3.292,3.4A3.263,3.263,0,0,0-1.694,2.454ZM.026-1.483H-3.629A1.79,1.79,0,0,1-1.8-3.2,1.736,1.736,0,0,1,.026-1.483ZM4.2,2.293V-2.128a2.241,2.241,0,0,1,1.666-.86,2.08,2.08,0,0,1,.443.04v-1.4a2.772,2.772,0,0,0-2.11,1.1V-4.2H2.794v6.49Zm5.469.161c1.747,0,2.7-.873,2.7-2.016,0-2.58-3.924-1.72-3.924-2.876,0-.457.47-.793,1.209-.793a2.617,2.617,0,0,1,1.922.779l.591-.994a3.71,3.71,0,0,0-2.526-.914c-1.639,0-2.553.914-2.553,1.975C7.094.1,11.018-.811,11.018.465c0,.511-.43.873-1.277.873a3.35,3.35,0,0,1-2.2-.914L6.892,1.446A3.947,3.947,0,0,0,9.674,2.454Zm7.055,0A3.248,3.248,0,0,0,20.074-.959a3.244,3.244,0,0,0-3.346-3.4A3.249,3.249,0,0,0,13.4-.959,3.252,3.252,0,0,0,16.728,2.454Zm0-1.25A1.951,1.951,0,0,1,14.861-.959a1.946,1.946,0,0,1,1.868-2.15A1.948,1.948,0,0,1,18.61-.959,1.953,1.953,0,0,1,16.728,1.2ZM27.29,2.293V-2.276a1.871,1.871,0,0,0-2.1-2.083A3.071,3.071,0,0,0,22.91-3.311V-4.2H21.5v6.49H22.91V-2.236a2.136,2.136,0,0,1,1.666-.873c.793,0,1.3.336,1.3,1.344V2.293Zm7.2,0v-4.3c0-1.747-1.263-2.352-2.7-2.352a3.86,3.86,0,0,0-2.728,1.048l.578.981a2.658,2.658,0,0,1,1.922-.82c.9,0,1.518.457,1.518,1.209v.967a2.683,2.683,0,0,0-2.1-.833A2.09,2.09,0,0,0,28.728.3a2.156,2.156,0,0,0,2.257,2.15,2.74,2.74,0,0,0,2.1-.86v.7Zm-2.956-.806A1.23,1.23,0,0,1,30.152.331,1.232,1.232,0,0,1,31.536-.838a1.9,1.9,0,0,1,1.545.672V.815A1.9,1.9,0,0,1,31.536,1.486Zm6.195.806V-6.67H36.32V2.293Zm8.654,0a4.37,4.37,0,0,0,4.69-4.475,4.38,4.38,0,0,0-4.69-4.488H43.052V2.293Zm0-1.384h-1.76V-5.286h1.76a2.9,2.9,0,0,1,3.077,3.1A2.943,2.943,0,0,1,46.385.909ZM57.927,2.293v-4.3c0-1.747-1.263-2.352-2.7-2.352A3.86,3.86,0,0,0,52.5-3.311l.578.981A2.658,2.658,0,0,1,55-3.149c.9,0,1.518.457,1.518,1.209v.967a2.683,2.683,0,0,0-2.1-.833A2.09,2.09,0,0,0,52.163.3a2.156,2.156,0,0,0,2.257,2.15,2.74,2.74,0,0,0,2.1-.86v.7Zm-2.956-.806A1.23,1.23,0,0,1,53.587.331,1.232,1.232,0,0,1,54.971-.838a1.9,1.9,0,0,1,1.545.672V.815A1.9,1.9,0,0,1,54.971,1.486Zm6.732.967a1.861,1.861,0,0,0,1.33-.417L62.7.976a.911.911,0,0,1-.632.228c-.4,0-.618-.322-.618-.766v-3.4h1.317V-4.2H61.448V-5.971H60.037V-4.2H58.962v1.236h1.075V.788A1.5,1.5,0,0,0,61.7,2.454Zm7.713-.161v-4.3c0-1.747-1.263-2.352-2.7-2.352a3.86,3.86,0,0,0-2.728,1.048l.578.981a2.658,2.658,0,0,1,1.922-.82c.9,0,1.518.457,1.518,1.209v.967a2.683,2.683,0,0,0-2.1-.833A2.09,2.09,0,0,0,63.651.3a2.156,2.156,0,0,0,2.257,2.15,2.74,2.74,0,0,0,2.1-.86v.7ZM66.46,1.486A1.23,1.23,0,0,1,65.076.331,1.232,1.232,0,0,1,66.46-.838a1.9,1.9,0,0,1,1.545.672V.815A1.9,1.9,0,0,1,66.46,1.486Z" transform="translate(92.656 55.743)"/><path class="d" d="M-22.514-8.452V-8.4h2.678v-.056a1.609,1.609,0,0,1,1.705-1.626,1.409,1.409,0,0,1,1.578,1.315c0,.717-.351,1.275-1.307,2.192l-4.487,4.128V-.491h8.766V-2.738h-4.965v-.056L-15.8-5.328c.924-.885,2.072-2.024,2.072-3.53,0-2.016-1.7-3.419-4.311-3.419C-20.721-12.277-22.514-10.723-22.514-8.452Zm10.749,9.838,3.12-10.671h-1.17l-3.12,10.671ZM-3.782-.491h1.31V-2.227h1.207V-3.373H-2.472V-9.284H-4.446A60.192,60.192,0,0,0-8.182-3.422v1.194h4.4ZM-6.908-3.385A56.391,56.391,0,0,1-3.794-8.23h.024v4.875H-6.908Z" transform="translate(199.046 24.549)"/><g transform="translate(14.181 12.387)"><g transform="translate(0)"><path class="d" d="M95.07,205.856a1.691,1.691,0,0,1,0,2.349l-1.31,1.31a1.691,1.691,0,0,1-2.349,0l-5.737-5.782a1.691,1.691,0,0,1,0-2.349l1.31-1.31a1.691,1.691,0,0,1,2.349,0Z" transform="translate(-85.2 -195.399)"/><path class="d" d="M174.812,125.674a1.691,1.691,0,0,1,2.349,0l1.31,1.31a1.691,1.691,0,0,1,0,2.349l-9.938,9.893a1.691,1.691,0,0,1-2.349,0l-1.31-1.31a1.691,1.691,0,0,1,0-2.349Z" transform="translate(-159.928 -125.2)"/></g></g></g></g></g></svg>