<svg xmlns="http://www.w3.org/2000/svg" xmlns:xlink="http://www.w3.org/1999/xlink" width="36" height="36" viewBox="0 0 36 36"><defs><style>.a{fill:url(#a);}.b{fill:#fff;}.c{filter:url(#d);}.d{filter:url(#b);}</style><linearGradient id="a" x1="0.5" x2="0.601" y2="1.336" gradientUnits="objectBoundingBox"><stop offset="0" stop-color="#ff2467"/><stop offset="1" stop-color="#eb2461"/></linearGradient><filter id="b" x="0" y="0" width="36" height="36" filterUnits="userSpaceOnUse"><feOffset dy="3" input="SourceAlpha"/><feGaussianBlur stdDeviation="2" result="c"/><feFlood flood-color="#000203" flood-opacity="0.169"/><feComposite operator="in" in2="c"/><feComposite in="SourceGraphic"/></filter><filter id="d" x="2.875" y="0.904" width="30.145" height="34.191" filterUnits="userSpaceOnUse"><feOffset dy="3" input="SourceAlpha"/><feGaussianBlur stdDeviation="3" result="e"/><feFlood flood-opacity="0.161"/><feComposite operator="in" in2="e"/><feComposite in="SourceGraphic"/></filter></defs><g transform="translate(6 3)"><g class="d" transform="matrix(1, 0, 0, 1, -6, -3)"><rect class="a" width="24" height="24" rx="4" transform="translate(6 3)"/></g><g class="c" transform="matrix(1, 0, 0, 1, -6, -3)"><path class="b" d="M2.248,16.191a.822.822,0,0,1-.822-.781L.881,3.941H11.27L10.719,15.41a.817.817,0,0,1-.816.781ZM7.8,6.789V13.34a.336.336,0,0,0,.336.336h.533A.331.331,0,0,0,9,13.34V6.789a.33.33,0,0,0-.33-.33H8.139A.335.335,0,0,0,7.8,6.789Zm-2.33,0V13.34a.336.336,0,0,0,.336.336h.533a.335.335,0,0,0,.33-.336V6.789a.333.333,0,0,0-.33-.33H5.809A.335.335,0,0,0,5.473,6.789Zm-2.33,0V13.34a.336.336,0,0,0,.336.336h.533a.335.335,0,0,0,.33-.336V6.789a.333.333,0,0,0-.33-.33H3.479A.335.335,0,0,0,3.143,6.789ZM0,2.951V1.344A.511.511,0,0,1,.516.834H4.047V.168A.172.172,0,0,1,4.221,0H7.93A.167.167,0,0,1,8.1.168V.834h3.531a.511.511,0,0,1,.516.51V2.951Z" transform="translate(11.88 6.9)"/></g></g></svg>