<svg xmlns="http://www.w3.org/2000/svg" width="84" height="93.899" viewBox="0 0 84 93.899"><defs><style>.a{fill:#bce0fd;}.b{fill:#2a7ffd;}.c{fill:#0063f6;}.d{fill:#5d9dfd;}.e{fill:#0054d1;}.f{fill:#1976d2;}.g{fill:#eceff1;}.h{fill:#00429a;}.i{fill:#2196f3;}.j{fill:#cdcfcf;}.k{fill:#b1deff;}.l{fill:#c6e6fd;}.m{fill:#99cff7;}</style></defs><g transform="translate(0 9.895)"><path class="a" d="M0,42A42,42,0,1,0,42,0,42,42,0,0,0,0,42Z"/><g transform="translate(13.963 -9.895)"><path class="b" d="M116.5,153.127a43.821,43.821,0,0,1-10.057,4.387A59.73,59.73,0,0,1,94.527,159.3a49.839,49.839,0,0,1-11.96-1.457,37.889,37.889,0,0,1-10.438-5L67.121,98.462h54.6Z" transform="translate(-66.51 -65.4)"/><path class="c" d="M67.121,98.462l.7,7.493c4.356,5.17,14.638,8.771,26.6,8.771s22.247-3.6,26.6-8.771l.7-7.493Zm27.3,24.047a1.872,1.872,0,0,0-1.859,1.859v24.8a1.859,1.859,0,0,0,3.717,0V124.31A1.861,1.861,0,0,0,94.421,122.509Zm9.178-.929a1.872,1.872,0,0,0-1.859,1.859l-.929,24.744a1.859,1.859,0,0,0,3.717,0l.871-24.744A1.823,1.823,0,0,0,103.6,121.58Zm8.248-1.859a1.872,1.872,0,0,0-1.859,1.859l-1.859,24.338a1.859,1.859,0,1,0,3.717,0l1.859-24.338A1.911,1.911,0,0,0,111.847,119.721Zm-26.6,1.859a1.872,1.872,0,0,0-1.859,1.859l.929,24.8a1.872,1.872,0,0,0,1.859,1.859,1.835,1.835,0,0,0,1.859-1.859l-.929-24.8A1.872,1.872,0,0,0,85.244,121.58ZM77,119.721a1.872,1.872,0,0,0-1.859,1.859L77,145.918a1.872,1.872,0,0,0,1.859,1.859,1.835,1.835,0,0,0,1.859-1.859L78.854,121.58A1.953,1.953,0,0,0,77,119.721Z" transform="translate(-66.51 -65.4)"/><path class="d" d="M116.909,64.268a6.016,6.016,0,0,1,1.8,5c0,7.725-12.488,14-27.881,14s-27.823-6.273-27.823-14a6.329,6.329,0,0,1,1.743-5C66.375,62.467,115.341,62.467,116.909,64.268Z" transform="translate(-62.975 -35.098)"/><path class="c" d="M94.421,0c15.1,0,27.3,5.983,27.3,13.36s-12.2,13.36-27.3,13.36-27.3-5.983-27.3-13.36S79.319,0,94.421,0Z" transform="translate(-66.51 18.54)"/><path class="e" d="M94.421,4.647c12.256,0,22.77,3.659,27.3,8.829V13.36c0-7.377-12.2-13.36-27.3-13.36s-27.3,5.983-27.3,13.36v.116C71.652,8.306,82.165,4.647,94.421,4.647Z" transform="translate(-66.51 18.54)"/><g transform="matrix(0.978, 0.208, -0.208, 0.978, 19.669, 0)"><rect class="f" width="6.918" height="12.22" rx="2" transform="translate(25.272 0.61)"/><path class="g" d="M0,15.24V32.424L30.313,31.2,30.48,15.24,15.24,0h0C9.331,5.987,5.987,9.331,0,15.24Z" transform="translate(3.266 4.899)"/><path class="g" d="M30.558,15.24,15.318,0c-3.032,2.955-5.365,5.287-7.7,7.62L0,15.24v3.5L15.24,3.5l15.24,15.24v.467h0V15.24h.078Z" transform="translate(3.266 4.899)"/><path class="h" d="M0,0H9.46V12.171H0Z" transform="translate(14.481 23.437)"/><path class="i" d="M36.623,16.951,20.372.7a2.537,2.537,0,0,0-3.5,0L.7,16.951a2.537,2.537,0,0,0,0,3.5,2.537,2.537,0,0,0,3.5,0L18.661,5.987,33.124,20.45a2.474,2.474,0,1,0,3.5-3.5Z" transform="translate(0 0)"/></g><path class="j" d="M130.446,137.058l-2.672,3.02a47.454,47.454,0,0,0,18.355,3.427,46.4,46.4,0,0,0,18.355-3.427l-2.672-3.02a44.975,44.975,0,0,1-15.683,2.73A44.488,44.488,0,0,1,130.446,137.058Z" transform="translate(-118.217 -98.304)"/><path class="k" d="M245.178,106.294a46.148,46.148,0,0,0,18.355-3.485l-8.248-9.468-11.327,12.953Z" transform="translate(-217.266 -61.034)"/><path class="l" d="M158.887,83.225l.174.174a51.743,51.743,0,0,0,13.592,1.743,52.151,52.151,0,0,0,11.152-1.162l.755-.755-12.837-14.7Z" transform="translate(-144.742 -39.882)"/><path class="k" d="M146.129,106.294h1.22L136.022,93.341l-8.248,9.468A45.155,45.155,0,0,0,146.129,106.294Z" transform="translate(-118.217 -61.034)"/><path class="m" d="M244.352,143.448h1.1a46.61,46.61,0,0,0,18.355-3.427l-2.614-2.962a43.423,43.423,0,0,1-13.592,2.73Z" transform="translate(-217.602 -98.305)"/><path class="k" d="M182.457,147.254a45.08,45.08,0,0,1-9.468.987,44.074,44.074,0,0,1-10.978-1.336l-2.73,3.137.058.058a52.322,52.322,0,0,0,13.708,1.743,52.858,52.858,0,0,0,11.269-1.162l.7-.7Z" transform="translate(-145.077 -106.699)"/><path class="m" d="M147.233,143.113,143.98,139.4a43.418,43.418,0,0,1-13.592-2.73l-2.614,3.079a47.454,47.454,0,0,0,18.355,3.427A7.029,7.029,0,0,1,147.233,143.113Z" transform="translate(-118.217 -97.969)"/></g></g></svg>