<svg id="deposits-icon-inactive" xmlns="http://www.w3.org/2000/svg" width="16.163" height="16.163" viewBox="0 0 16.163 16.163">
  <path id="Path_31478" data-name="Path 31478" d="M2.862,7.694H.505A.505.505,0,0,1,0,7.189V5.505A.505.505,0,0,1,.505,5H2.862a.505.505,0,0,1,.505.505V7.189A.505.505,0,0,1,2.862,7.694Z" transform="translate(0 -1.633)" fill="#9696b9"/>
  <path id="Path_31479" data-name="Path 31479" d="M2.862,17.694H.505A.505.505,0,0,1,0,17.189V15.505A.505.505,0,0,1,.505,15H2.862a.505.505,0,0,1,.505.505v1.684A.505.505,0,0,1,2.862,17.694Z" transform="translate(0 -4.898)" fill="#9696b9"/>
  <path id="Path_31480" data-name="Path 31480" d="M14.882,0H3.6A1.854,1.854,0,0,0,1.75,1.852v.842H3.434A1.18,1.18,0,0,1,4.612,3.872V5.556A1.18,1.18,0,0,1,3.434,6.734H1.75V9.428H3.434a1.18,1.18,0,0,1,1.179,1.179V12.29a1.18,1.18,0,0,1-1.179,1.179H1.75v.842A1.854,1.854,0,0,0,3.6,16.163h11.28a1.854,1.854,0,0,0,1.852-1.852V1.852A1.854,1.854,0,0,0,14.882,0ZM12.857,10.939A4.043,4.043,0,1,1,14.04,8.081,4.014,4.014,0,0,1,12.857,10.939Zm.089-3.279h-.971A2.022,2.022,0,0,0,11.7,6.98l.684-.684a.421.421,0,0,0-.6-.6l-.684.684a2.013,2.013,0,0,0-.681-.265V5.135a.421.421,0,1,0-.842,0v.984a2.008,2.008,0,0,0-.681.265L8.214,5.7a.421.421,0,0,0-.6.6L8.3,6.98a2.008,2.008,0,0,0-.278.681H7.053a.421.421,0,1,0,0,.842h.97a2.025,2.025,0,0,0,.278.682l-.684.684a.421.421,0,0,0,.6.6l.68-.68a2.034,2.034,0,0,0,.686.286v.959a.421.421,0,1,0,.842,0v-.959a2.047,2.047,0,0,0,.686-.286l.68.68a.421.421,0,0,0,.6-.6L11.7,9.184a2.012,2.012,0,0,0,.278-.682h.97a.421.421,0,1,0,0-.842Z" transform="translate(-0.571)" fill="#9696b9"/>
</svg>
