<svg xmlns="http://www.w3.org/2000/svg" width="84" height="84" viewBox="0 0 84 84"><defs><style>.a{fill:#bce0fd;}.b{fill:#fed3cf;}.c{fill:#f470cb;}.d{fill:#161643;}.e{fill:#385cf8;}.f{fill:#0e78f0;}.g{fill:#46a1fd;}.h{fill:#033b88;}.i{fill:#01295f;}.j{fill:#ff45c5;}.k{fill:#f7c0bb;}</style></defs><g transform="translate(-259 -31)"><g transform="translate(259 31)"><path class="a" d="M0,42A42,42,0,1,0,42,0,42,42,0,0,0,0,42Z" transform="translate(0 0)"/></g><g transform="translate(272 44.6)"><path class="b" d="M459.578,72.035,449.105,61.543v42.045H463.12V80.554A12.015,12.015,0,0,0,459.578,72.035Zm0,0" transform="translate(-405.059 -55.236)"/><path class="c" d="M8.185,40.7.268,20.146a4,4,0,0,1,2.3-5.176L39.933.577a4,4,0,0,1,5.175,2.3l7.917,20.552a4,4,0,0,1-2.3,5.176L13.361,42.995A4.006,4.006,0,0,1,8.185,40.7Zm0,0" transform="translate(0 -0.007)"/><path class="d" d="M77,101.961,32.2,119.328l2.983,7.744,44.805-17.359Zm0,0" transform="translate(-29.038 -91.69)"/><path class="e" d="M0,26.329V4.305a4,4,0,0,1,4-4H44.051a4,4,0,0,1,4,4V26.329a4,4,0,0,1-4,4H4.008A4,4,0,0,1,0,26.329Zm0,0" transform="translate(-0.004 0)"/><path class="f" d="M133.806.3h-4.255L99.52,30.333h34.287a4,4,0,0,0,4-4V4.305A4,4,0,0,0,133.806.3Zm0,0" transform="translate(-89.759 0)"/><path class="g" d="M40.832,163.609h4v2h-4Zm0,0" transform="translate(-36.828 -147.292)"/><path class="g" d="M40.832,224.852h4v2h-4Zm0,0" transform="translate(-36.828 -202.527)"/><path class="g" d="M224.555,224.852h4v2h-4Zm0,0" transform="translate(-202.531 -202.527)"/><path class="g" d="M102.074,163.609h4v2h-4Zm0,0" transform="translate(-92.063 -147.292)"/><path class="g" d="M163.313,163.609h4v2h-4Zm0,0" transform="translate(-147.296 -147.292)"/><path class="g" d="M224.555,163.609h4v2h-4Zm0,0" transform="translate(-202.531 -147.292)"/><path class="g" d="M418.484,41.129h2v3h-2Zm0,0" transform="translate(-377.441 -36.824)"/><path class="g" d="M377.656,41.129h2v3h-2Zm0,0" transform="translate(-340.617 -36.824)"/><path class="g" d="M336.828,41.129h2v3h-2Zm0,0" transform="translate(-303.793 -36.824)"/><path class="g" d="M296,41.129h2v3h-2Zm0,0" transform="translate(-266.973 -36.824)"/><path class="h" d="M408.277,490.23H426.3v10.318a40.719,40.719,0,0,1-7.715,5.928,52.835,52.835,0,0,1-10.3,4.309Zm0,0" transform="translate(-368.235 -441.879)"/><path class="b" d="M310.244,173.049a4.34,4.34,0,0,0-6.267,6l8.2,8.95a13.5,13.5,0,0,0,.273,13.852l.728,1.164H326.2V189Zm0,0" transform="translate(-273.139 -154.664)"/><path class="i" d="M438.9,520.852h2v2h-2Zm0,0" transform="translate(-395.853 -469.496)"/><path class="c" d="M40.832,47.536V42.731a1.6,1.6,0,0,1,1.6-1.6h4.805a1.6,1.6,0,0,1,1.6,1.6v4.805a1.6,1.6,0,0,1-1.6,1.6H42.434A1.6,1.6,0,0,1,40.832,47.536Zm0,0" transform="translate(-36.828 -36.824)"/><path class="j" d="M40.832,71.75h3v2h-3Zm0,0" transform="translate(-36.828 -64.442)"/><path class="j" d="M91.867,71.75h3v2h-3Zm0,0" transform="translate(-82.857 -64.442)"/><path class="k" d="M484.842,292.214a1,1,0,0,1-.708-.293l-4-4a1,1,0,0,1,1.416-1.416l4,4a1,1,0,0,1-.708,1.709Zm0,0" transform="translate(-432.787 -257.877)"/></g></g></svg>
