<svg xmlns="http://www.w3.org/2000/svg" width="17.085" height="14" viewBox="0 0 17.085 14"><defs><style>.a{fill:#385cf8;}</style></defs><path class="a" d="M10.271,11.8a.537.537,0,0,1-.386-.162L6.148,7.788A.524.524,0,0,1,6.534,6.9H8.491V2.875A.884.884,0,0,1,9.381,2h1.78a.884.884,0,0,1,.89.875V6.9h1.958a.524.524,0,0,1,.386.888l-3.737,3.85A.537.537,0,0,1,10.271,11.8Z" transform="translate(-1.728 -2)"/><path class="a" d="M15.84,20.8H1.246A1.237,1.237,0,0,1,0,19.575v-.35A1.237,1.237,0,0,1,1.246,18H15.84a1.237,1.237,0,0,1,1.246,1.225v.35A1.237,1.237,0,0,1,15.84,20.8Z" transform="translate(0 -6.8)"/></svg>
