<svg xmlns="http://www.w3.org/2000/svg" width="12.495" height="15.436" viewBox="0 0 12.495 15.436"><defs><style>.a{fill:#9696b9;}</style></defs><g transform="translate(-53.195 0.082)"><path class="a" d="M10.474,0H2.021A2.02,2.02,0,0,0,0,2.021V13.414a2.02,2.02,0,0,0,2.021,2.021h8.453A2.423,2.423,0,0,0,11.9,14.9a2.827,2.827,0,0,0,.6-1.482V2.021A2.02,2.02,0,0,0,10.474,0ZM2.94,2.94H5.88a.735.735,0,0,1,0,1.47H2.94a.735.735,0,1,1,0-1.47Zm6.615,7.35H2.94a.735.735,0,0,1,0-1.47H9.555c.4,0,.919.331.919.735S9.96,10.29,9.555,10.29Zm0-2.94H2.94a.735.735,0,1,1,0-1.47H9.555a.735.735,0,1,1,0,1.47Z" transform="translate(53.195 -0.082)"/><path class="a" d="M10.474,0H2.021A2.02,2.02,0,0,0,0,2.021V13.414a2.02,2.02,0,0,0,2.021,2.021h8.453A2.423,2.423,0,0,0,11.9,14.9a2.827,2.827,0,0,0,.6-1.482V2.021A2.02,2.02,0,0,0,10.474,0ZM2.94,2.94H5.88a.735.735,0,0,1,0,1.47H2.94a.735.735,0,1,1,0-1.47Zm6.615,7.35H2.94a.735.735,0,0,1,0-1.47H9.555c.4,0,.919.331.919.735S9.96,10.29,9.555,10.29Zm0-2.94H2.94a.735.735,0,1,1,0-1.47H9.555a.735.735,0,1,1,0,1.47Z" transform="translate(53.195 -0.082)"/></g></svg>