<svg xmlns="http://www.w3.org/2000/svg" width="84" height="84.071" viewBox="0 0 84 84.071"><defs><style>.a{fill:#bce0fd;}.b{fill:#e0f1ff;}.c{fill:#edf7ff;}.d{fill:#033b88;}.e{fill:#01295f;}.f{fill:#fed3cf;}.g{fill:#f7c0bb;}.h{fill:#f470cb;}.i{fill:#46a1fd;}</style></defs><g transform="translate(-259 -31)"><g transform="translate(259 31)"><path class="a" d="M0,42A42,42,0,1,0,42,0,42,42,0,0,0,0,42Z" transform="translate(0 0)"/></g><g transform="translate(272 44.6)"><g transform="translate(-47.436 8.302)"><path class="b" d="M151.133,55.426V27.147H115.312V65.215" transform="translate(-54.889 -24.1)"/><path class="c" d="M122.446,28.279V0H86.625V38.068" transform="translate(-29.422)"/><path class="d" d="M98.947,218.453V197.009a4.133,4.133,0,0,0-4.133-4.133h-18.4a4.133,4.133,0,0,1-3.847-2.621l-.814-2.073a4.133,4.133,0,0,0-3.847-2.621h-10.3a4.133,4.133,0,0,0-4.133,4.133v30.336a41.481,41.481,0,0,0,3.749,2.174,39.856,39.856,0,0,0,19.187,4.7c11.435-.015,18.759-4.353,18.759-4.353a35.419,35.419,0,0,0,3.77-2.18Z" transform="translate(0 -164.731)"/><path class="e" d="M55.93,218.453V189.692a4.133,4.133,0,0,1,4.133-4.133H57.616a4.133,4.133,0,0,0-4.133,4.133v30.295a14.855,14.855,0,0,0,3.749,2.215l1.088.593-.557-.593C55.521,220.548,55.93,220.523,55.93,218.453Z" transform="translate(0 -164.73)"/><circle class="f" cx="3.981" cy="3.981" r="3.981" transform="translate(62.336 5.024)"/><path class="g" d="M134.918,48.74a3.982,3.982,0,0,1,2.7-3.768,3.981,3.981,0,1,0,0,7.536A3.982,3.982,0,0,1,134.918,48.74Z" transform="translate(-70.013 -39.735)"/><path class="h" d="M132.347,119.676a3.981,3.981,0,0,1,7.962,0" transform="translate(-70.012 -102.708)"/><g transform="translate(74.613 5.244)"><path class="i" d="M255.381,48.552h-12.74a.918.918,0,1,1,0-1.835h12.74a.918.918,0,0,1,0,1.835Z" transform="translate(-241.723 -46.717)"/><path class="i" d="M314.792,208.664h-5.228a.918.918,0,1,1,0-1.835h5.228a.918.918,0,0,1,0,1.835Z" transform="translate(-301.135 -188.857)"/><path class="i" d="M255.381,168.638h-12.74a.918.918,0,1,1,0-1.835h12.74a.918.918,0,0,1,0,1.835Z" transform="translate(-241.723 -153.323)"/><path class="i" d="M255.381,88.58h-12.74a.918.918,0,1,1,0-1.835h12.74a.918.918,0,0,1,0,1.835Z" transform="translate(-241.723 -82.252)"/><path class="i" d="M255.381,128.609h-12.74a.918.918,0,1,1,0-1.835h12.74a.918.918,0,0,1,0,1.835Z" transform="translate(-241.723 -117.788)"/></g></g></g></g></svg>