<svg xmlns="http://www.w3.org/2000/svg" width="84" height="84" viewBox="0 0 84 84"><defs><style>.a{fill:#bce0fd;}.b{fill:#2196f3;}.c{fill:#0f6bc6;}.d{fill:#2b88e5;}.e{fill:#1976d2;}.f{fill:#04429a;}.g{fill:#033a88;}</style></defs><g transform="translate(0 0)"><path class="a" d="M0,42A42,42,0,1,0,42,0,42,42,0,0,0,0,42Z"/><g transform="translate(-4.019 14)"><rect class="b" width="35" height="36" transform="translate(29.019 28)"/><path class="b" d="M104,32V93.688a42.937,42.937,0,0,0,19.177,4.361,38.972,38.972,0,0,0,18.212-4.361V32Zm16.726,56.109H106.952V64.484h13.775Zm0-29.531H106.952V34.953h13.775Zm17.71,29.531H124.662V64.484h13.775Zm0-29.531H124.662V34.953h13.775Z" transform="translate(-76.538 -28.062)"/><g transform="translate(30.414 6.891)"><path class="b" d="M145.968,73.969v15.75L144,91.688h9.839V72l-1.968,1.969Z" transform="translate(-142.032 -70.031)"/><path class="b" d="M129.968,57.969h9.839L141.775,56H128V79.625l1.968-1.969Z" transform="translate(-128 -56)"/></g><g transform="translate(30.414 6.891)"><path class="b" d="M145.968,73.969v15.75L144,91.688h9.839V72l-1.968,1.969Z" transform="translate(-142.032 -70.031)"/><path class="b" d="M129.968,57.969h9.839L141.775,56H128V79.625l1.968-1.969Z" transform="translate(-128 -56)"/></g><g transform="translate(30.414 36.891)"><path class="b" d="M145.968,73.969v15.75L144,91.688h9.839V72l-1.968,1.969Z" transform="translate(-142.032 -70.031)"/><path class="b" d="M129.968,57.969h9.839L141.775,56H128V79.625l1.968-1.969Z" transform="translate(-128 -56)"/></g><g transform="translate(48.124 6.891)"><path class="c" d="M289.968,73.969v15.75L288,91.688h9.839V72l-1.968,1.969Z" transform="translate(-286.032 -70.031)"/><path class="d" d="M273.968,57.969h9.839L285.775,56H272V79.625l1.968-1.969Z" transform="translate(-272 -56)"/></g><path class="e" d="M283.807,77.656V57.969L285.775,56V79.625H272l1.968-1.969Z" transform="translate(-223.876 -49.109)"/><path class="b" d="M289.968,73.969v15.75L288,91.688V72h9.839l-1.968,1.969Z" transform="translate(-237.908 -63.141)"/><g transform="translate(48.124 6.891)"><path class="c" d="M289.968,73.969v15.75L288,91.688h9.839V72l-1.968,1.969Z" transform="translate(-286.032 -70.031)"/><path class="d" d="M273.968,57.969h9.839L285.775,56H272V79.625l1.968-1.969Z" transform="translate(-272 -56)"/></g><path class="e" d="M283.807,77.656V57.969L285.775,56V79.625H272l1.968-1.969Z" transform="translate(-223.876 -49.109)"/><path class="b" d="M289.968,73.969v15.75L288,91.688V72h9.839l-1.968,1.969Z" transform="translate(-237.908 -63.141)"/><g transform="translate(0 29)"><g transform="translate(48.124 6.891)"><path class="c" d="M289.968,73.969v15.75L288,91.688h9.839V72l-1.968,1.969Z" transform="translate(-286.032 -70.031)"/><path class="d" d="M273.968,57.969h9.839L285.775,56H272V79.625l1.968-1.969Z" transform="translate(-272 -56)"/></g><path class="e" d="M283.807,77.656V57.969L285.775,56V79.625H272l1.968-1.969Z" transform="translate(-223.876 -49.109)"/><path class="b" d="M289.968,73.969v15.75L288,91.688V72h9.839l-1.968,1.969Z" transform="translate(-237.908 -63.141)"/></g><g transform="translate(-17)"><g transform="translate(48.124 6.891)"><path class="c" d="M289.968,73.969v15.75L288,91.688h9.839V72l-1.968,1.969Z" transform="translate(-286.032 -70.031)"/><path class="d" d="M273.968,57.969h9.839L285.775,56H272V79.625l1.968-1.969Z" transform="translate(-272 -56)"/></g><path class="e" d="M283.807,77.656V57.969L285.775,56V79.625H272l1.968-1.969Z" transform="translate(-223.876 -49.109)"/><path class="b" d="M289.968,73.969v15.75L288,91.688V72h9.839l-1.968,1.969Z" transform="translate(-237.908 -63.141)"/></g><g transform="translate(-17 29)"><g transform="translate(48.124 6.891)"><path class="c" d="M289.968,73.969v15.75L288,91.688h9.839V72l-1.968,1.969Z" transform="translate(-286.032 -70.031)"/><path class="d" d="M273.968,57.969h9.839L285.775,56H272V79.625l1.968-1.969Z" transform="translate(-272 -56)"/></g><path class="e" d="M283.807,77.656V57.969L285.775,56V79.625H272l1.968-1.969Z" transform="translate(-223.876 -49.109)"/><path class="b" d="M289.968,73.969v15.75L288,91.688V72h9.839l-1.968,1.969Z" transform="translate(-237.908 -63.141)"/></g><path class="f" d="M326.887,264h-5.9a.984.984,0,0,0,0,1.969h4.92a.984.984,0,1,0,1.968,0v-.984A.984.984,0,0,0,326.887,264Z" transform="translate(-265.972 -231.516)"/><path class="g" d="M332.92,280H328l.984.984h4.92A.984.984,0,0,1,332.92,280Z" transform="translate(-272.989 -245.547)"/><path class="e" d="M72,0V63.48l4,2.162L75.936,3.938h37.388l.036,61.705,3.895-2.359L117.26,0Z" transform="translate(-48.473)"/></g></g></svg>