<svg xmlns="http://www.w3.org/2000/svg" width="20" height="20" viewBox="0 0 20 20"><defs><style>.a{fill:#fff;}.b{fill:#385cf8;}</style></defs><g transform="translate(-135 66)"><rect class="a" width="20" height="20" rx="3" transform="translate(135 -66)"/><g transform="translate(137.098 -65)"><path class="b" d="M9.975,11.276a.5.5,0,0,1-.359-.154L6.138,7.478a.5.5,0,0,1,.359-.84H8.319V2.828A.829.829,0,0,1,9.147,2H10.8a.829.829,0,0,1,.828.828v3.81h1.822a.5.5,0,0,1,.359.84l-3.479,3.644A.5.5,0,0,1,9.975,11.276Z" transform="translate(-2.024)"/><path class="b" d="M14.743,20.65H1.16A1.161,1.161,0,0,1,0,19.491V19.16A1.161,1.161,0,0,1,1.16,18H14.743a1.161,1.161,0,0,1,1.16,1.16v.331A1.161,1.161,0,0,1,14.743,20.65Z" transform="translate(0 -5.398)"/></g></g></svg>
