<svg xmlns="http://www.w3.org/2000/svg" width="10.589" height="9.989" viewBox="0 0 10.589 9.989"><defs><style>.a{fill:#ff2467;}</style></defs><g transform="translate(-0.001 -14.519)"><g transform="translate(0.001 14.519)"><path class="a" d="M10.375,22.173,6.63,15.279a1.553,1.553,0,0,0-2.671,0l-.006.011L.221,22.162a1.552,1.552,0,0,0,1.335,2.345H9.013a1.569,1.569,0,0,0,1.371-.785A1.53,1.53,0,0,0,10.375,22.173Zm-5.7-4.5a.621.621,0,1,1,1.242,0V20.16a.621.621,0,0,1-1.242,0V17.676Zm.621,5.59a.932.932,0,1,1,.932-.932A.933.933,0,0,1,5.295,23.265Z" transform="translate(-0.001 -14.519)"/></g></g></svg>