<svg xmlns="http://www.w3.org/2000/svg" width="18.413" height="18.375" viewBox="0 0 18.413 18.375"><defs><style>.a{fill:#9696b9;}.b{fill:none;stroke:#9696b9;stroke-linecap:round;stroke-width:1.6px;}</style></defs><g transform="translate(0 -0.5)"><g transform="translate(0 0.5)"><path class="a" d="M17.628.5H.781A.782.782,0,0,0,0,1.281V18.094a.782.782,0,0,0,.781.781H17.594a.839.839,0,0,0,.82-.743V1.285A.788.788,0,0,0,17.628.5Zm-.781,16.851H1.524V2.028H16.851V17.351h0Z" transform="translate(0 -0.5)"/><path class="a" d="M218.4,225.061a.782.782,0,0,0,.781.781h5.28a.843.843,0,0,0,.82-.781v-5.28a.781.781,0,0,0-1.562,0v4.495h-4.537A.785.785,0,0,0,218.4,225.061Z" transform="translate(-209.996 -210.592)"/><path class="a" d="M81.909,88.1a.7.7,0,0,0,.674-.709V83.318H86.7a.709.709,0,1,0,0-1.418h-4.79a.709.709,0,0,0-.709.709V87.4A.712.712,0,0,0,81.909,88.1Z" transform="translate(-78.201 -78.768)"/><path class="b" d="M4.119,4.129,8.007,7.751" transform="translate(-0.218 -0.092)"/><path class="b" d="M4.119,4.129l3.795,3.49" transform="translate(5.848 5.842)"/></g></g></svg>