<svg xmlns="http://www.w3.org/2000/svg" width="52.029" height="29.393" viewBox="0 0 52.029 29.393"><defs><style>.a{fill:#f2f9ff;}.b{fill:#bce0fd;}.c{fill:#fff;}.d{fill:#eceff1;}.e{fill:#a3d4ff;}.f{fill:#2196f3;}.g{fill:#1976d2;}.h{fill:#00429a;}.i{fill:#003a88;}</style></defs><g transform="translate(0 10.74)"><g transform="translate(0 0)"><path class="a" d="M.26,163.7l4.332-3.536a.735.735,0,0,1,.768-.1.706.706,0,0,1,.416.641v2.122H16.6a.715.715,0,0,1,.722.707v1.414a.715.715,0,0,1-.722.707H5.775v2.122a.707.707,0,0,1-.416.641.746.746,0,0,1-.306.066.723.723,0,0,1-.462-.164L.26,164.789a.7.7,0,0,1,0-1.086Z" transform="translate(0 -160.002)"/></g></g><g transform="translate(22.668)"><path class="b" d="M29.361,14.68A14.68,14.68,0,1,1,14.68,0,14.68,14.68,0,0,1,29.361,14.68Zm0,0"/><g transform="translate(-1 1)"><path class="c" d="M135.647,52.469H122V73.524h18.379V56.717Zm0,0" transform="translate(-114.625 -49.459)"/><path class="d" d="M264.967,56.662l-4.731-4.193h-4.474V73.252h9.205Zm0,0" transform="translate(-239.212 -49.459)"/><path class="e" d="M321,57.2l4.914-.4L321,52.469Zm0,0" transform="translate(-299.977 -49.459)"/><path class="f" d="M97.019,160.675,95.27,158H88.234l.73,14.415a15.885,15.885,0,0,0,4.559,2.8,15.6,15.6,0,0,0,11.436-.318A14.642,14.642,0,0,0,111,169.531l.249-8.857Zm0,0" transform="translate(-83.174 -147.754)"/><path class="g" d="M255.762,197h11.522l-.182,9.062a16.643,16.643,0,0,1-4.822,4.545,17.775,17.775,0,0,1-6.5,1.864Zm0,0" transform="translate(-239.212 -184.079)"/><path class="h" d="M140.605,263.363h-5.738v1.67H136.9v4.144h1.67v-4.144h2.034Zm0,0" transform="translate(-126.609 -245.891)"/><path class="i" d="M306.181,264.465h-1.8l-.814,1.416-.814-1.416h-1.8l1.649,2.869-1.649,2.869h1.8l.814-1.416.814,1.416h1.8l-1.649-2.869Zm0,0" transform="translate(-281.307 -246.917)"/><path class="h" d="M216.939,270.207h1.67l-1.584-5.738H214.5l-1.585,5.738h1.67l.4-1.458h1.55Zm-1.631-2.623.453-1.641.453,1.641Zm0,0" transform="translate(-199.302 -246.921)"/><path class="i" d="M256.934,264.469h-1.173v1.8l.362,1.313h-.362v1.165h.684l.4,1.458h1.67Zm0,0" transform="translate(-239.212 -246.921)"/></g></g></svg>