<svg xmlns="http://www.w3.org/2000/svg" width="42" height="26" viewBox="0 0 42 26">
    <defs>
        <style>
            .cls-1{fill:#8ca2b2}
        </style>
    </defs>
    <g id="eye" transform="translate(0 -98.725)">
        <path id="Path_18961" d="M21 98.725c-8.025 0-15.3 4.559-20.671 11.965a1.78 1.78 0 0 0 0 2.061C5.7 120.166 12.975 124.725 21 124.725s15.3-4.559 20.671-11.965a1.78 1.78 0 0 0 0-2.061C36.3 103.284 29.025 98.725 21 98.725zm.576 22.154a9.179 9.179 0 0 1-1.151-18.309 9.179 9.179 0 0 1 1.151 18.309zm-.266-4.229a4.943 4.943 0 1 1 4.442-4.613 4.843 4.843 0 0 1-4.443 4.613z" class="cls-1" data-name="Path 18961"/>
    </g>
</svg>
