<?xml version="1.0" encoding="utf-8"?>
<!-- Generator: Adobe Illustrator 24.3.0, SVG Export Plug-In . SVG Version: 6.00 Build 0)  -->
<svg version="1.1" id="Layer_1" xmlns="http://www.w3.org/2000/svg" xmlns:xlink="http://www.w3.org/1999/xlink" x="0px" y="0px"
	 viewBox="0 0 30.6 19" style="enable-background:new 0 0 30.6 19;" xml:space="preserve">
<style type="text/css">
	.st0{fill:#2960F5;}
</style>
<g id="eye" transform="translate(0 -98.725)">
	<path id="Path_18961" class="st0" d="M15.3,98.7c-5.9,0-11.2,3.3-15.1,8.7c-0.3,0.4-0.3,1.1,0,1.5c3.9,5.4,9.2,8.7,15.1,8.7
		s11.2-3.3,15.1-8.7c0.3-0.4,0.3-1.1,0-1.5C26.5,102.1,21.2,98.7,15.3,98.7z M15.7,114.9c-3.7,0-6.7-2.9-6.8-6.6
		c0-3.4,2.5-6.4,5.9-6.7c3.7,0,6.7,2.9,6.8,6.6C21.7,111.6,19.2,114.5,15.7,114.9z M15.5,111.8c-2,0.2-3.7-1.2-3.9-3.2
		c-0.2-2,1.2-3.7,3.2-3.9c2-0.2,3.7,1.2,3.9,3.2c0,0.2,0,0.4,0,0.6C18.7,110.2,17.3,111.7,15.5,111.8L15.5,111.8z"/>
</g>
</svg>
