<svg xmlns="http://www.w3.org/2000/svg" width="20.281" height="20.24" viewBox="0 0 20.281 20.24"><defs><style>.a{fill:#385cf8;}</style></defs><g transform="translate(1.57 1.682)"><path class="a" d="M141.751,137.845l-4.629-4.753h0l-4.028-4.028a.949.949,0,0,0-1.343,0l-2.686,2.686a.949.949,0,0,0,0,1.343l4.028,4.028h0l4.6,4.609c.185.185.578.605.971.611s1.905-1.52,1.905-1.52l1.816-1.713C142.752,138.738,142.122,138.216,141.751,137.845Zm-6.644-1.4,1.343-1.343Zm-2.685-5.371,2.685,2.686-1.343,1.343-2.685-2.686Z" transform="translate(-123.784 -123.783)"/><g transform="translate(-1.57 -1.682)"><path class="a" d="M46.449,213.875l-2.279,2.279a.806.806,0,1,0,1.139,1.139l2.279-2.279a.806.806,0,0,0-1.139-1.139Z" transform="translate(-41.575 -202.164)"/><path class="a" d="M216.155,44.17l-2.279,2.279a.806.806,0,1,0,1.139,1.139l2.279-2.279a.806.806,0,0,0-1.139-1.139Z" transform="translate(-202.165 -41.574)"/><path class="a" d="M150,.806V4.028a.806.806,0,0,0,1.611,0V.806a.806.806,0,0,0-1.611,0Z" transform="translate(-141.943 0)"/><path class="a" d="M45.31,44.17A.806.806,0,0,0,44.17,45.31l2.279,2.279a.806.806,0,0,0,1.139-1.139Z" transform="translate(-41.575 -41.575)"/><path class="a" d="M4.834,150.806A.806.806,0,0,0,4.028,150H.806a.806.806,0,0,0,0,1.611H4.028A.806.806,0,0,0,4.834,150.806Z" transform="translate(0 -141.943)"/></g><path class="a" d="M8.113,11.006,10.832,8.24l4.73,3.908-3.282,3.443Z" transform="translate(1.957 2.038)"/></g></svg>
