<svg xmlns="http://www.w3.org/2000/svg" width="14.737" height="14.737" viewBox="0 0 14.737 14.737"><defs><style>.a{fill:#fff;stroke:#fff;stroke-width:0.5px;}</style></defs><g transform="translate(0.25 0.25)"><g transform="translate(0)"><path class="a" d="M14.142,2.683,11.554.095A.323.323,0,0,0,11.325,0H1.294A1.3,1.3,0,0,0,0,1.294V12.943a1.3,1.3,0,0,0,1.294,1.294H12.943a1.3,1.3,0,0,0,1.294-1.294V2.912A.324.324,0,0,0,14.142,2.683ZM3.236.647h7.119V4.53a.648.648,0,0,1-.647.647H3.883a.648.648,0,0,1-.647-.647ZM11.649,13.59H2.589V7.766h9.06Zm1.941-.647a.648.648,0,0,1-.647.647H12.3V7.442a.323.323,0,0,0-.324-.324H2.265a.323.323,0,0,0-.324.324V13.59H1.294a.648.648,0,0,1-.647-.647V1.294A.648.648,0,0,1,1.294.647H2.589V4.53A1.3,1.3,0,0,0,3.883,5.824H9.707A1.3,1.3,0,0,0,11,4.53V.647h.19l2.4,2.4Z" transform="translate(0)"/></g></g></svg>