<svg xmlns="http://www.w3.org/2000/svg" width="84" height="84" viewBox="0 0 84 84"><defs><style>.a{fill:#bce0fd;}.b{fill:#2196f3;}.c{fill:#1976d2;}.d{fill:#eceff1;}.e{fill:#ccc;}.f{fill:#003a88;}.g{fill:#cbe9ff;}.h{fill:#8ecfff;}.i{fill:#00429a;}</style></defs><path class="a" d="M0,42A42,42,0,1,0,42,0,42,42,0,0,0,0,42Z"/><g transform="translate(13.457 26.09)"><path class="b" d="M51.645,0H0L.067,46.629a37.478,37.478,0,0,0,4.165,3.561,40.719,40.719,0,0,0,4.81,2.9s9.125,3.887,18.078,3.957,17.735-3.676,17.735-3.676l13.055-7.7V6.265Z"/><path class="c" d="M248.942,0H237.523a132.55,132.55,0,0,1-15.065,57.91l18.337-2.561a38.827,38.827,0,0,0,7.148-3.617,59.3,59.3,0,0,0,7.111-5.687l.152-39.78Z" transform="translate(-197.297)"/><path class="d" d="M0,0H36.152l.012,24.8s-6.8,3.848-18.349,4.084S0,24.955,0,24.955Z" transform="translate(10.879 28.955)"/><path class="e" d="M233.522,256a132.329,132.329,0,0,1-11.063,28.955,97.657,97.657,0,0,0,13.727-1.184,22.3,22.3,0,0,0,8.145-2.98l0-24.791Z" transform="translate(-197.298 -227.045)"/><path class="f" d="M103.88,0l2.463,9.231L103.88,19.415h-7.7V0Z" transform="translate(-85.302)"/><rect class="g" width="28.453" height="19.415" transform="translate(18.578)"/><path class="h" d="M347.077,19.415V0h-6.8a133.789,133.789,0,0,1-1.962,19.415Z" transform="translate(-300.046)"/><path class="i" d="M344.049,51.4a.848.848,0,0,1-.848-.848V42.182a.848.848,0,0,1,1.7,0v8.369A.848.848,0,0,1,344.049,51.4Z" transform="translate(-304.383 -36.659)"/><g transform="translate(17.395 36.308)"><path class="f" d="M176.063,322.707H154.639a.848.848,0,1,1,0-1.7h21.423a.848.848,0,0,1,0,1.7Z" transform="translate(-153.791 -321.01)"/><path class="f" d="M176.063,381.9H154.639a.848.848,0,1,1,0-1.7h21.423a.848.848,0,0,1,0,1.7Z" transform="translate(-153.791 -373.506)"/><path class="f" d="M176.063,441.089H154.639a.848.848,0,1,1,0-1.7h21.423a.848.848,0,1,1,0,1.7Z" transform="translate(-153.791 -426.002)"/></g></g></svg>