<svg xmlns="http://www.w3.org/2000/svg" width="106" height="106.404" viewBox="0 0 106 106.404">
    <defs>
        <style>
            .cls-1{fill:#dbf0ff}.cls-2{fill:#eff2fa}.cls-3{fill:#d0ebff}.cls-4{fill:#e8f5ff}.cls-5{fill:#e4eaf6}.cls-6{fill:#00429a}.cls-7{fill:#003a88}.cls-8{fill:#f7faff}.cls-9{fill:#c4e6ff}.cls-10{fill:#1976d2}.cls-11{fill:#2196f3}.cls-12{fill:#eceff1}
        </style>
    </defs>
    <g id="group_302" data-name="group 302" transform="translate(.372)">
        <g id="individual-icon" transform="translate(3.721 32.895)">
            <path id="Path_19207" d="M239.538 145.205v-6.185h-15.9v6.185l7.952 7.069z" class="cls-1" data-name="Path 19207" transform="translate(-211.831 -108.975)"/>
            <path id="Path_19208" d="M198.549 170.119l-10.934-2.572a1.752 1.752 0 0 1-.459-.185l-8.856 5.166-8.51-5.416a1.758 1.758 0 0 1-.8.435l-10.315 2.486c-.848.2 2.768 7.782 7.625 13.9a50.637 50.637 0 0 0 9.321 8.781l23.891-10.465c.443 0-.442-1.325 0-1.767s1.767.533 1.767 0v-6.92a3.534 3.534 0 0 0-2.73-3.443z" class="cls-2" data-name="Path 19208" transform="translate(-158.547 -130.996)"/>
            <path id="Path_19209" d="M223.633 139.02v6.526c10.018 3.609 15.9-5.424 15.9-5.424v-1.1z" class="cls-3" data-name="Path 19209" transform="translate(-211.831 -108.975)"/>
            <path id="Path_19210" d="M207.28 44.985l.77 16.94a5.3 5.3 0 0 0 2.115 4l3.653 2.74A5.3 5.3 0 0 0 217 69.726h3.534a5.3 5.3 0 0 0 3.181-1.06l3.653-2.74a5.3 5.3 0 0 0 2.115-4l.77-16.94z" class="cls-4" data-name="Path 19210" transform="translate(-199.013 -35.263)"/>
            <path id="Path_19211" d="M216.116 48.519c3.534 0 8.836-.883 10.094-3.534h-18.93l.77 16.94a5.3 5.3 0 0 0 2.115 4l3.653 2.74A5.3 5.3 0 0 0 217 69.726h1.767c-1.767 0-5.3-3.534-5.3-7.952V51.17a2.822 2.822 0 0 1 2.649-2.651z" class="cls-1" data-name="Path 19211" transform="translate(-199.013 -35.263)"/>
            <g id="Group_6977" data-name="Group 6977" transform="translate(34.775 40.373)">
                <path id="Path_19212" d="M331.4 191.953l5.726-5.143a3.528 3.528 0 0 1 .761 2.19v6.92a9.638 9.638 0 0 1-1.767 1.767l-2.546 1.779-3.639 1.922v-6.15a4.419 4.419 0 0 1 1.465-3.285z" class="cls-5" data-name="Path 19212" transform="translate(-329.934 -186.81)"/>
            </g>
            <g id="Group_6978" data-name="Group 6978" transform="translate(9.151 34.036)">
                <path id="Path_19216" d="M213.895 157.714l8.076 7.269a30.477 30.477 0 0 0-5.053 3.443 1.134 1.134 0 0 1-1.756-.4l-3.794-8.348 1.2-1.8a.884.884 0 0 1 1.327-.164z" class="cls-5" data-name="Path 19216" transform="translate(-211.368 -157.487)"/>
                <path id="Path_19217" d="M268.506 157.714l-8.076 7.269a30.475 30.475 0 0 1 5.053 3.443 1.134 1.134 0 0 0 1.756-.4l3.794-8.348-1.2-1.8a.884.884 0 0 0-1.327-.164z" class="cls-5" data-name="Path 19217" transform="translate(-249.827 -157.487)"/>
            </g>
            <path id="Path_19218" d="M285.216 15.908l.828 5.854c3.781.756 4.326 6.69 4.4 8.385a1.743 1.743 0 0 0 .279.863l1.443 2.238s-.494-3.7 1.767-6.185c.005 0 .782-14.689-8.717-11.155z" class="cls-6" data-name="Path 19218" transform="translate(-260.105 -12.04)"/>
            <path id="Path_19219" d="M308.417 88.143l-1 3.991a1.063 1.063 0 0 1-1.031.8 1.063 1.063 0 0 1-1.054-.93l-.51-4.082a1.829 1.829 0 0 1 1.815-2.056 1.829 1.829 0 0 1 1.78 2.277z" class="cls-1" data-name="Path 19219" transform="translate(-275.464 -67.313)"/>
            <path id="Path_19220" d="M198.215 2.286l1.307.893c-5.909 4.363-4.8 11.846-4.8 11.846 1.767 1.767 1.767 6.185 1.767 6.185l1.767-1.767s-.682-5.1 2.651-7.069c3.093-1.822 5.8-.883 8.56-.883 7.4 0 9.471-2.789 9.112-6.185-.186-1.757-2.873-5.418-9.719-5.3-2.768.044-7.96.881-10.645 2.28z" class="cls-7" data-name="Path 19220" transform="translate(-189.101)"/>
            <path id="Path_19222" d="M199.158 88.143l1 3.991a1.062 1.062 0 0 0 1.031.8 1.063 1.063 0 0 0 1.054-.93l.51-4.082a1.829 1.829 0 0 0-1.815-2.056 1.829 1.829 0 0 0-1.78 2.277z" class="cls-3" data-name="Path 19222" transform="translate(-192.602 -67.313)"/>
            <path id="Path_19223" d="M287.057 228.967h-4.418a1.767 1.767 0 0 0-1.767 1.767h7.952a1.767 1.767 0 0 0-1.767-1.767z" class="cls-5" data-name="Path 19223" transform="translate(-256.7 -179.483)"/>
            <path id="Path_19732" d="M288.088 234.054h-6.606c-.976 0-.66-2.278-.66-5.087h7.953c-.001 2.809.289 5.087-.687 5.087z" class="cls-8" data-name="Path 19732" transform="translate(-256.65 -178.012)"/>
        </g>
        <g id="properties-icon">
            <circle id="Ellipse_778" cx="53" cy="53" r="53" class="cls-9" data-name="Ellipse 778" transform="translate(-.372)"/>
            <g id="home_1_" data-name="home (1)" transform="translate(59.213 56.332)">
                <path id="Path_19733" d="M348.911 21.332h-6.242a1.338 1.338 0 0 0-1.337 1.337V28.7a1.332 1.332 0 0 0 .4.951l6.241 6.17a1.337 1.337 0 0 0 2.277-.951v-12.2a1.338 1.338 0 0 0-1.339-1.338zm0 0" class="cls-10" data-name="Path 19733" transform="translate(-312.8 -19.549)"/>
                <path id="Path_19734" d="M40.517 21.15a20.28 20.28 0 0 1-1.217 2.033h-1.852L21.4 7.58 5.35 23.183H2.229A2.232 2.232 0 0 1 .66 19.367L20.472.375a1.336 1.336 0 0 1 1.855 0l19.206 18.47a24.75 24.75 0 0 1-1.016 2.305z" class="cls-11" data-name="Path 19734" transform="translate(0 -.001)"/>
                <path id="Path_19735" d="M79.939 90.668l-16.049 15.6s-.141 13.85 0 14.154a18.489 18.489 0 0 0 3.8 2.493 15.66 15.66 0 0 0 3.581 1.568 22.193 22.193 0 0 0 3.361.878l10.421-3.795 7.51-7.493 3.424-4.914v-2.891zm0 0" class="cls-12" data-name="Path 19735" transform="translate(-58.54 -83.089)"/>
                <path id="Path_19736" d="M192 341.332h10.7v9.623l-5.521 3.654-3.645-1.635zm0 0" class="cls-6" data-name="Path 19736" transform="translate(-175.951 -312.8)"/>
                <path id="Path_19737" d="M192 341.332h5.35l-.05 13.206-5.148 2.886zm0 0" class="cls-7" data-name="Path 19737" transform="translate(-175.951 -312.8)"/>
            </g>
            <g id="home_1_2" data-name="home (1)" transform="translate(.867 44.312)">
                <path id="Path_19733-2" d="M349.978 21.332h-7.12a1.526 1.526 0 0 0-1.526 1.526v6.876a1.519 1.519 0 0 0 .454 1.084l7.12 7.038a1.525 1.525 0 0 0 2.6-1.084V22.858a1.526 1.526 0 0 0-1.528-1.526zm0 0" class="cls-10" data-name="Path 19733" transform="translate(-314.01 -19.298)"/>
                <path id="Path_19734-2" d="M50.769 23.9a2.544 2.544 0 0 1-2.543 2.543h-3.56L26.359 8.646 9.139 25.555l-1.43-4.925-.535-3.188L25.3.428a1.523 1.523 0 0 1 2.116 0L50 22.072a2.541 2.541 0 0 1 .769 1.828zm0 0" class="cls-11" data-name="Path 19734" transform="translate(-7.174 -.001)"/>
                <path id="Path_19735-2" d="M82.662 90.668L65.5 107.469a57.209 57.209 0 0 0 2.85 7.349 36.761 36.761 0 0 0 3.638 5.859l3.167 4.147 2.856 2.814 10.729 6.672h12.23v-25.843zm0 0" class="cls-12" data-name="Path 19735" transform="translate(-63.477 -82.022)"/>
                <path id="Path_19736-2" d="M192 341.332h12.205V361H201.3l-3.188-2.557-4.359-3.832zm0 0" class="cls-6" data-name="Path 19736" transform="translate(-178.918 -308.785)"/>
                <path id="Path_19737-2" d="M192 341.332h6.1V358.4l-5.765-5.086zm0 0" class="cls-7" data-name="Path 19737" transform="translate(-178.918 -308.785)"/>
            </g>
            <g id="home_1_3" data-name="home (1)" transform="translate(18.559 38.331)">
                <path id="Path_19733-3" d="M353.4 21.332h-9.939a2.131 2.131 0 0 0-2.13 2.13v9.6a2.121 2.121 0 0 0 .633 1.514L351.9 44.4a2.129 2.129 0 0 0 3.626-1.514V23.462a2.131 2.131 0 0 0-2.126-2.13zm0 0" class="cls-10" data-name="Path 19733" transform="translate(-295.896 -18.493)"/>
                <path id="Path_19734-3" d="M68.154 33.368a3.551 3.551 0 0 1-3.55 3.549h-4.969L34.077 12.07 8.519 36.917H3.55a3.554 3.554 0 0 1-2.5-6.077L32.6.6a2.127 2.127 0 0 1 2.953 0l31.522 30.212a3.547 3.547 0 0 1 1.079 2.556zm0 0" class="cls-11" data-name="Path 19734" transform="translate(0 -.001)"/>
                <path id="Path_19735-3" d="M89.522 90.668l-25.558 24.847v24.62s5.621 2.781 8.385 3.755 8.724 2.178 8.724 2.178l16.816.009s6.337-1.388 8.855-2.259a85.559 85.559 0 0 0 8.273-4.01l.062-24.293zm0 0" class="cls-12" data-name="Path 19735" transform="translate(-55.444 -78.599)"/>
                <path id="Path_19736-3" d="M192 341.332h17.039L209 363.379a45.578 45.578 0 0 1-8.578.569c-.015 0 .237.016 0 0a6.716 6.716 0 0 1-5.976-4.076zm0 0" class="cls-6" data-name="Path 19736" transform="translate(-166.442 -295.896)"/>
                <path id="Path_19737-3" d="M192 341.332h8.519l-.078 22.6s-2.562.019-4.692-.18-3.749-.5-3.749-.5zm0 0" class="cls-7" data-name="Path 19737" transform="translate(-166.442 -295.896)"/>
            </g>
        </g>
    </g>
</svg>
