<svg xmlns="http://www.w3.org/2000/svg" width="21" height="21" viewBox="0 0 21 21"><defs><style>.a,.b{fill:#2148ff;}.a{opacity:0.005;}</style></defs><g transform="translate(-11.332 -5)"><rect class="a" width="21" height="21" transform="translate(11.332 5)"/><path class="b" d="M24265.787,22918.1l-7.127-2.383a1.035,1.035,0,0,0-.652,0l-7.125,2.383a1,1,0,0,0-.689.945v5.357c0,6.537,7.428,9.715,7.744,9.848a1.038,1.038,0,0,0,.795,0c.316-.133,7.744-3.311,7.744-9.848v-5.357A1,1,0,0,0,24265.787,22918.1Zm-2.994,5.055-3.73,4.666a1.375,1.375,0,0,1-1.951.189l-2.373-2a1.315,1.315,0,0,1-.148-1.879,1.374,1.374,0,0,1,1.914-.145l1.3,1.094,2.857-3.57a1.371,1.371,0,0,1,1.906-.225A1.313,1.313,0,0,1,24262.793,22923.156Z" transform="translate(-24236.504 -22909.5)"/></g></svg>