<svg xmlns="http://www.w3.org/2000/svg" width="150.713" height="139.5" viewBox="0 0 150.713 139.5">
    <defs>
        <style>
            .cls-1{fill:#00429a}.cls-2{fill:#ddf0ff}.cls-3{fill:#2699fb}.cls-4{fill:#0063f6}.cls-5{fill:#b2dfff}
        </style>
    </defs>
    <g id="guests-book" transform="translate(0 -19.024)">
        <path id="Path_19265" d="M124.879 124.2v93.66a2.6 2.6 0 0 1-2.6 2.6H78.05a2.6 2.6 0 0 0-2.6 2.6v5.2a2.6 2.6 0 0 1-2.6 2.6H52.033a2.6 2.6 0 0 1-2.6-2.6v-5.2a2.6 2.6 0 0 0-2.6-2.6H2.6a2.6 2.6 0 0 1-2.6-2.6V124.2a2.6 2.6 0 0 1 2.6-2.6h7.8z" class="cls-1" data-name="Path 19265" transform="translate(0 -72.344)"/>
        <g id="Group_7073" data-name="Group 7073" transform="translate(10.406 41.476)">
            <path id="Path_19266" d="M87.343 100.381v93.659c-.859-.208-1.717-.416-2.6-.625-17.015-3.772-39.415-4.423-46.882-4.553a2.581 2.581 0 0 1-2.55-2.6V97.806a2.583 2.583 0 0 1 2.628-2.6 266.2 266.2 0 0 1 46.8 4.579c.887.18 1.745.388 2.604.596z" class="cls-2" data-name="Path 19266" transform="translate(-35.31 -95.204)"/>
            <path id="Path_19267" d="M263.9 97.806v88.456a2.581 2.581 0 0 1-2.55 2.6c-7.467.13-29.867.78-46.882 4.553-.884.208-1.743.416-2.6.624v-93.658c.859-.208 1.717-.416 2.6-.6a266.2 266.2 0 0 1 46.8-4.579 2.583 2.583 0 0 1 2.628 2.6z" class="cls-2" data-name="Path 19267" transform="translate(-159.829 -95.204)"/>
        </g>
        <path id="Path_19268" d="M293.008 157.209l-8.755 8.651a13.471 13.471 0 0 1-11.031 3.434l-6.452-.859 20.462-19.6z" class="cls-1" data-name="Path 19268" transform="translate(-188.148 -91.551)"/>
        <path id="Path_19269" d="M326.019 37.157c-16.286 19.616-13.971 33.9-13.971 33.9s16.26 10.355 40.221-13.607c8.976-8.976 12.8-26.068 18.42-38.374l.026-.026s-28.435-1.483-44.696 18.107z" class="cls-3" data-name="Path 19269" transform="translate(-220.002)"/>
        <path id="Path_19270" d="M370.962 19.2c-5.62 12.306-9.444 29.4-18.42 38.374-23.961 23.961-40.221 13.606-40.221 13.606 22.14-30.856 57.548-51.356 58.641-51.98z" class="cls-4" data-name="Path 19270" transform="translate(-220.274 -.123)"/>
        <path id="Path_19271" d="M208.238 110.741v93.633c-.884.208-1.743.416-2.6.625-.859-.208-1.717-.416-2.6-.625v-93.633c.884.182 1.743.39 2.6.6a72.296 72.296 0 0 1 2.6-.6z" class="cls-5" data-name="Path 19271" transform="translate(-143.196 -64.686)"/>
    </g>
</svg>
