<svg xmlns="http://www.w3.org/2000/svg" width="84" height="84" viewBox="0 0 84 84"><defs><style>.a{fill:#bce0fd;}.b{fill:#dbf0ff;}.c{fill:#eff2fa;}.d{fill:#d0ebff;}.e{fill:#e8f5ff;}.f{fill:#e4eaf6;}.g{fill:#00429a;}.h{fill:#003a88;}.i{fill:#f7faff;}</style></defs><ellipse class="a" cx="42" cy="41.935" rx="42" ry="41.935"/><g transform="translate(15.088 15.292)"><path class="b" d="M242.424,146.328V139.02H223.633v7.308l9.4,8.352Z" transform="translate(-205.886 -103.523)"/><path class="c" d="M205.193,170.665l-12.918-3.039a2.07,2.07,0,0,1-.543-.218l-10.463,6.1-10.055-6.4a2.078,2.078,0,0,1-.95.513l-12.918,3.039a4.176,4.176,0,0,0-3.22,4.065v8.176c0,.589,1.785-1.305,2.313-.805.24.243-.789,2.893-.225,2.893a42.888,42.888,0,0,0,25.055,8.155,40.644,40.644,0,0,0,25.054-8.155c.523,0-.522-1.566,0-2.088s2.088.63,2.088,0V174.73A4.175,4.175,0,0,0,205.193,170.665Z" transform="translate(-154.127 -124.442)"/><path class="d" d="M223.633,139.02v7.71c11.836,4.264,18.791-6.408,18.791-6.408v-1.3Z" transform="translate(-205.886 -103.523)"/><path class="e" d="M207.28,44.985,208.19,65a6.264,6.264,0,0,0,2.5,4.727l4.316,3.237a6.263,6.263,0,0,0,3.758,1.253h4.176a6.264,6.264,0,0,0,3.758-1.253l4.316-3.237a6.264,6.264,0,0,0,2.5-4.727l.91-20.014Z" transform="translate(-193.708 -33.499)"/><path class="b" d="M217.719,49.161c4.176,0,10.439-1.044,11.925-4.176H207.28L208.19,65a6.264,6.264,0,0,0,2.5,4.727L215,72.963a6.263,6.263,0,0,0,3.758,1.253h2.088c-2.088,0-6.264-4.176-6.264-9.4V52.293A3.334,3.334,0,0,1,217.719,49.161Z" transform="translate(-193.708 -33.499)"/><g transform="translate(0.001 47.7)"><path class="f" d="M331.665,192.887l6.765-6.077a4.168,4.168,0,0,1,.9,2.588v8.176a11.386,11.386,0,0,1-2.088,2.088l-3.008,2.1-4.3,2.271V196.77A5.221,5.221,0,0,1,331.665,192.887Z" transform="translate(-285.044 -186.81)"/><path class="f" d="M161.793,192.887l-6.765-6.077a4.168,4.168,0,0,0-.9,2.588v8.488a13.688,13.688,0,0,0,2.088,1.776s1.8,1.351,3.577,2.385a32.34,32.34,0,0,0,3.512,1.752l.219-7.029A5.219,5.219,0,0,0,161.793,192.887Z" transform="translate(-154.129 -186.81)"/></g><g transform="translate(14.616 40.212)"><path class="f" d="M214.353,157.755l9.542,8.588a36.007,36.007,0,0,0-5.97,4.068,1.339,1.339,0,0,1-2.074-.469l-4.483-9.863,1.418-2.127A1.045,1.045,0,0,1,214.353,157.755Z" transform="translate(-211.368 -157.487)"/><path class="f" d="M269.972,157.755l-9.542,8.588a36,36,0,0,1,5.97,4.068,1.339,1.339,0,0,0,2.074-.469l4.483-9.863-1.418-2.127A1.045,1.045,0,0,0,269.972,157.755Z" transform="translate(-247.903 -157.487)"/></g><path class="g" d="M285.216,16.008l.979,6.916c4.467.893,5.111,7.9,5.2,9.907a2.06,2.06,0,0,0,.33,1.02l1.7,2.644s-.583-4.372,2.088-7.308C295.521,29.187,296.438,11.832,285.216,16.008Z" transform="translate(-251.744 -11.437)"/><path class="b" d="M309.071,88.556l-1.179,4.716a1.255,1.255,0,0,1-1.218.951h0a1.255,1.255,0,0,1-1.246-1.1l-.6-4.823a2.161,2.161,0,0,1,2.144-2.429h0A2.161,2.161,0,0,1,309.071,88.556Z" transform="translate(-266.335 -63.945)"/><path class="h" d="M198.864,2.7l1.544,1.055c-6.981,5.155-5.676,14-5.676,14,2.088,2.088,2.088,7.308,2.088,7.308l2.088-2.088s-.806-6.031,3.132-8.351c3.654-2.153,6.851-1.044,10.113-1.044,8.743,0,11.19-3.295,10.766-7.308C222.7,4.191,219.525-.134,211.435,0,208.171.059,202.04,1.047,198.864,2.7Z" transform="translate(-184.292 0)"/><path class="d" d="M199.168,88.556l1.179,4.716a1.255,1.255,0,0,0,1.218.951h0a1.255,1.255,0,0,0,1.246-1.1l.6-4.823a2.161,2.161,0,0,0-2.144-2.429h0A2.161,2.161,0,0,0,199.168,88.556Z" transform="translate(-187.618 -63.945)"/><path class="f" d="M288.18,228.967h-5.22a2.088,2.088,0,0,0-2.088,2.088h9.4A2.088,2.088,0,0,0,288.18,228.967Z" transform="translate(-248.509 -170.503)"/><path class="i" d="M289.415,234.977h-7.8c-1.153,0-.78-2.691-.78-6.01h9.4C290.226,232.286,290.568,234.977,289.415,234.977Z" transform="translate(-248.468 -168.765)"/></g></svg>