<svg xmlns="http://www.w3.org/2000/svg" width="21.002" height="21.002" viewBox="0 0 21.002 21.002"><defs><style>.a,.b{fill:#161643;}.a{opacity:0.005;}</style></defs><g transform="translate(-11.332 -5)"><rect class="a" width="21" height="21" transform="translate(11.332 5)"/><path class="b" d="M24257.334,22934a10,10,0,1,1,7.07-2.928A9.943,9.943,0,0,1,24257.334,22934Zm-.3-16.346a.657.657,0,0,0-.227.037l-4.994,1.7a.709.709,0,0,0-.482.676v3.818a6.93,6.93,0,0,0,2.631,5.234,11.464,11.464,0,0,0,2.8,1.793.714.714,0,0,0,.273.057.707.707,0,0,0,.279-.057,11.464,11.464,0,0,0,2.8-1.793,6.93,6.93,0,0,0,2.631-5.234v-3.818a.709.709,0,0,0-.482-.676l-4.994-1.7A.684.684,0,0,0,24257.037,22917.656Zm-.24,9.035a.944.944,0,0,1-.615-.229l-1.662-1.426a.94.94,0,0,1-.1-1.34.957.957,0,0,1,.719-.334.943.943,0,0,1,.621.23l.908.779,2-2.545a.951.951,0,0,1,1.693.469.959.959,0,0,1-.2.7l-2.619,3.33A.938.938,0,0,1,24256.8,22926.691Z" transform="translate(-24235 -22908)"/></g></svg>