<svg xmlns="http://www.w3.org/2000/svg" width="22" height="22.004" viewBox="0 0 22 22.004"><defs><style>.a{fill:#fff;stroke:rgba(255,255,255,0);stroke-miterlimit:10;stroke-width:2px;}</style></defs><g transform="translate(-1063.501 -27.498)"><path class="a" d="M10,20A10,10,0,1,1,20,10,10.012,10.012,0,0,1,10,20Zm-.41-7.115a1.146,1.146,0,1,0,1.148,1.15A1.161,1.161,0,0,0,9.591,12.889Zm-.1-7.264c1.148,0,1.557.609,1.557,1.18,0,.633-.554,1.027-1.14,1.445a2.679,2.679,0,0,0-1.5,2.152A1.863,1.863,0,0,0,9,11.795l1.443-.473a1.033,1.033,0,0,1-.364-.74c0-.646.554-1.039,1.2-1.492a3.133,3.133,0,0,0,1.735-2.6c0-1.537-1.334-2.57-3.32-2.57A4.511,4.511,0,0,0,6.121,5.541l1.1,1.227A2.8,2.8,0,0,1,9.491,5.625Z" transform="translate(1064.501 28.498)"/></g></svg>