<?xml version="1.0" encoding="utf-8"?>
<!-- Generator: Adobe Illustrator 24.3.0, SVG Export Plug-In . SVG Version: 6.00 Build 0)  -->
<svg version="1.1" id="Layer_1" xmlns="http://www.w3.org/2000/svg" xmlns:xlink="http://www.w3.org/1999/xlink" x="0px" y="0px"
	 viewBox="0 0 109.2 87.4" style="enable-background:new 0 0 109.2 87.4;" xml:space="preserve">
<style type="text/css">
	.st0{fill:#161643;}
</style>
<g id="resort" transform="translate(0 -51.2)">
	<g id="Group_10682" transform="translate(43.698 122.209)">
		<g id="Group_10681">
			<path id="Path_24755" class="st0" d="M20,0H1.8C0.8,0,0,0.8,0,1.8c0,0,0,0,0,0v12.7c0,1,0.8,1.8,1.8,1.8c0,0,0,0,0,0H20
				c1,0,1.8-0.8,1.8-1.8c0,0,0,0,0,0V1.8C21.9,0.8,21,0,20,0C20,0,20,0,20,0z M18.2,12.7H3.6V3.6h14.6V12.7z"/>
		</g>
	</g>
	<g id="Group_10684" transform="translate(52.802 124.03)">
		<g id="Group_10683">
			<path id="Rectangle_1914" class="st0" d="M0,0h3.6v12.7H0V0z"/>
		</g>
	</g>
	<g id="Group_10686" transform="translate(34.594 51.2)">
		<g id="Group_10685">
			<path id="Path_24756" class="st0" d="M38.2,0H1.8C0.8,0,0,0.8,0,1.8v83.8c0,1,0.8,1.8,1.8,1.8c0,0,0,0,0,0h36.4
				c1,0,1.8-0.8,1.8-1.8c0,0,0,0,0,0V1.8C40.1,0.8,39.2,0,38.2,0C38.2,0,38.2,0,38.2,0L38.2,0z M36.4,83.8H3.6V3.6h32.8V83.8z"/>
		</g>
	</g>
	<g id="Group_10688" transform="translate(20.028 58.483)">
		<g id="Group_10687">
			<path id="Path_24757" class="st0" d="M16.4,0H1.8C0.8,0,0,0.8,0,1.8v76.5c0,1,0.8,1.8,1.8,1.8c0,0,0,0,0,0h14.6
				c1,0,1.8-0.8,1.8-1.8c0,0,0,0,0,0V1.8C18.2,0.8,17.4,0,16.4,0z M14.6,76.5H3.6V3.6h10.9L14.6,76.5z"/>
		</g>
	</g>
	<g id="Group_10690" transform="translate(16.387 58.483)">
		<g id="Group_10689">
			<path id="Rectangle_1915" class="st0" d="M0,0h5.5v3.6H0V0z"/>
		</g>
	</g>
	<g id="Group_10692" transform="translate(30.953 51.2)">
		<g id="Group_10691">
			<path id="Rectangle_1916" class="st0" d="M0,0h47.3v3.6H0V0z"/>
		</g>
	</g>
	<g id="Group_10694" transform="translate(41.877 113.105)">
		<g id="Group_10693">
			<path id="Rectangle_1917" class="st0" d="M0,0h3.6v5.5H0V0z"/>
		</g>
	</g>
	<g id="Group_10696" transform="translate(49.16 113.105)">
		<g id="Group_10695">
			<path id="Rectangle_1918" class="st0" d="M0,0h3.6v5.5H0V0z"/>
		</g>
	</g>
	<g id="Group_10698" transform="translate(56.443 113.105)">
		<g id="Group_10697">
			<path id="Rectangle_1919" class="st0" d="M0,0h3.6v5.5H0V0z"/>
		</g>
	</g>
	<g id="Group_10700" transform="translate(63.726 113.105)">
		<g id="Group_10699">
			<path id="Rectangle_1920" class="st0" d="M0,0h3.6v5.5H0V0z"/>
		</g>
	</g>
	<g id="Group_10702" transform="translate(41.877 104.002)">
		<g id="Group_10701">
			<path id="Rectangle_1921" class="st0" d="M0,0h3.6v5.5H0V0z"/>
		</g>
	</g>
	<g id="Group_10704" transform="translate(49.16 104.002)">
		<g id="Group_10703">
			<path id="Rectangle_1922" class="st0" d="M0,0h3.6v5.5H0V0z"/>
		</g>
	</g>
	<g id="Group_10706" transform="translate(56.443 104.002)">
		<g id="Group_10705">
			<path id="Rectangle_1923" class="st0" d="M0,0h3.6v5.5H0V0z"/>
		</g>
	</g>
	<g id="Group_10708" transform="translate(63.726 104.002)">
		<g id="Group_10707">
			<path id="Rectangle_1924" class="st0" d="M0,0h3.6v5.5H0V0z"/>
		</g>
	</g>
	<g id="Group_10710" transform="translate(41.877 94.898)">
		<g id="Group_10709">
			<path id="Rectangle_1925" class="st0" d="M0,0h3.6v5.5H0V0z"/>
		</g>
	</g>
	<g id="Group_10712" transform="translate(49.16 94.898)">
		<g id="Group_10711">
			<path id="Rectangle_1926" class="st0" d="M0,0h3.6v5.5H0V0z"/>
		</g>
	</g>
	<g id="Group_10714" transform="translate(56.443 94.898)">
		<g id="Group_10713">
			<path id="Rectangle_1927" class="st0" d="M0,0h3.6v5.5H0V0z"/>
		</g>
	</g>
	<g id="Group_10716" transform="translate(63.726 94.898)">
		<g id="Group_10715">
			<path id="Rectangle_1928" class="st0" d="M0,0h3.6v5.5H0V0z"/>
		</g>
	</g>
	<g id="Group_10718" transform="translate(41.877 85.794)">
		<g id="Group_10717">
			<path id="Rectangle_1929" class="st0" d="M0,0h3.6v5.5H0V0z"/>
		</g>
	</g>
	<g id="Group_10720" transform="translate(49.16 85.794)">
		<g id="Group_10719">
			<path id="Rectangle_1930" class="st0" d="M0,0h3.6v5.5H0V0z"/>
		</g>
	</g>
	<g id="Group_10722" transform="translate(56.443 85.794)">
		<g id="Group_10721">
			<path id="Rectangle_1931" class="st0" d="M0,0h3.6v5.5H0V0z"/>
		</g>
	</g>
	<g id="Group_10724" transform="translate(63.726 85.794)">
		<g id="Group_10723">
			<path id="Rectangle_1932" class="st0" d="M0,0h3.6v5.5H0V0z"/>
		</g>
	</g>
	<g id="Group_10726" transform="translate(41.877 76.69)">
		<g id="Group_10725">
			<path id="Rectangle_1933" class="st0" d="M0,0h3.6v5.5H0V0z"/>
		</g>
	</g>
	<g id="Group_10728" transform="translate(49.16 76.69)">
		<g id="Group_10727">
			<path id="Rectangle_1934" class="st0" d="M0,0h3.6v5.5H0V0z"/>
		</g>
	</g>
	<g id="Group_10730" transform="translate(56.443 76.69)">
		<g id="Group_10729">
			<path id="Rectangle_1935" class="st0" d="M0,0h3.6v5.5H0V0z"/>
		</g>
	</g>
	<g id="Group_10732" transform="translate(63.726 76.69)">
		<g id="Group_10731">
			<path id="Rectangle_1936" class="st0" d="M0,0h3.6v5.5H0V0z"/>
		</g>
	</g>
	<g id="Group_10734" transform="translate(41.877 67.587)">
		<g id="Group_10733">
			<path id="Rectangle_1937" class="st0" d="M0,0h3.6v5.5H0V0z"/>
		</g>
	</g>
	<g id="Group_10736" transform="translate(49.16 67.587)">
		<g id="Group_10735">
			<path id="Rectangle_1938" class="st0" d="M0,0h3.6v5.5H0V0z"/>
		</g>
	</g>
	<g id="Group_10738" transform="translate(56.443 67.587)">
		<g id="Group_10737">
			<path id="Rectangle_1939" class="st0" d="M0,0h3.6v5.5H0V0z"/>
		</g>
	</g>
	<g id="Group_10740" transform="translate(63.726 67.587)">
		<g id="Group_10739">
			<path id="Rectangle_1940" class="st0" d="M0,0h3.6v5.5H0V0z"/>
		</g>
	</g>
	<g id="Group_10742" transform="translate(41.877 58.483)">
		<g id="Group_10741">
			<path id="Rectangle_1941" class="st0" d="M0,0h3.6v5.5H0V0z"/>
		</g>
	</g>
	<g id="Group_10744" transform="translate(49.16 58.483)">
		<g id="Group_10743">
			<path id="Rectangle_1942" class="st0" d="M0,0h3.6v5.5H0V0z"/>
		</g>
	</g>
	<g id="Group_10746" transform="translate(56.443 58.483)">
		<g id="Group_10745">
			<path id="Rectangle_1943" class="st0" d="M0,0h3.6v5.5H0V0z"/>
		</g>
	</g>
	<g id="Group_10748" transform="translate(63.726 58.483)">
		<g id="Group_10747">
			<path id="Rectangle_1944" class="st0" d="M0,0h3.6v5.5H0V0z"/>
		</g>
	</g>
	<g id="Group_10750" transform="translate(27.311 122.209)">
		<g id="Group_10749">
			<path id="Rectangle_1945" class="st0" d="M0,0h3.6v5.5H0V0z"/>
		</g>
	</g>
	<g id="Group_10752" transform="translate(27.311 113.105)">
		<g id="Group_10751">
			<path id="Rectangle_1946" class="st0" d="M0,0h3.6v5.5H0V0z"/>
		</g>
	</g>
	<g id="Group_10754" transform="translate(27.311 104.002)">
		<g id="Group_10753">
			<path id="Rectangle_1947" class="st0" d="M0,0h3.6v5.5H0V0z"/>
		</g>
	</g>
	<g id="Group_10756" transform="translate(27.311 94.898)">
		<g id="Group_10755">
			<path id="Rectangle_1948" class="st0" d="M0,0h3.6v5.5H0V0z"/>
		</g>
	</g>
	<g id="Group_10758" transform="translate(27.311 85.794)">
		<g id="Group_10757">
			<path id="Rectangle_1949" class="st0" d="M0,0h3.6v5.5H0V0z"/>
		</g>
	</g>
	<g id="Group_10760" transform="translate(27.311 76.69)">
		<g id="Group_10759">
			<path id="Rectangle_1950" class="st0" d="M0,0h3.6v5.5H0V0z"/>
		</g>
	</g>
	<g id="Group_10762" transform="translate(27.311 67.587)">
		<g id="Group_10761">
			<path id="Rectangle_1951" class="st0" d="M0,0h3.6v5.5H0V0z"/>
		</g>
	</g>
	<g id="Group_10764" transform="translate(71.009 58.483)">
		<g id="Group_10763">
			<path id="Path_24758" class="st0" d="M16.4,0H1.8C0.8,0,0,0.8,0,1.8c0,0,0,0,0,0v76.5c0,1,0.8,1.8,1.8,1.8c0,0,0,0,0,0h14.6
				c1,0,1.8-0.8,1.8-1.8c0,0,0,0,0,0V1.8C18.2,0.8,17.4,0,16.4,0C16.4,0,16.4,0,16.4,0z M14.6,76.5H3.6V3.6h10.9V76.5z"/>
		</g>
	</g>
	<g id="Group_10766" transform="translate(87.396 58.483)">
		<g id="Group_10765">
			<path id="Rectangle_1952" class="st0" d="M0,0h5.5v3.6H0V0z"/>
		</g>
	</g>
	<g id="Group_10768" transform="translate(78.292 122.209)">
		<g id="Group_10767">
			<path id="Rectangle_1953" class="st0" d="M0,0h3.6v5.5H0V0z"/>
		</g>
	</g>
	<g id="Group_10770" transform="translate(78.292 113.105)">
		<g id="Group_10769">
			<path id="Rectangle_1954" class="st0" d="M0,0h3.6v5.5H0V0z"/>
		</g>
	</g>
	<g id="Group_10772" transform="translate(78.292 104.002)">
		<g id="Group_10771">
			<path id="Rectangle_1955" class="st0" d="M0,0h3.6v5.5H0V0z"/>
		</g>
	</g>
	<g id="Group_10774" transform="translate(78.292 94.898)">
		<g id="Group_10773">
			<path id="Rectangle_1956" class="st0" d="M0,0h3.6v5.5H0V0z"/>
		</g>
	</g>
	<g id="Group_10776" transform="translate(78.292 85.794)">
		<g id="Group_10775">
			<path id="Rectangle_1957" class="st0" d="M0,0h3.6v5.5H0V0z"/>
		</g>
	</g>
	<g id="Group_10778" transform="translate(78.292 76.69)">
		<g id="Group_10777">
			<path id="Rectangle_1958" class="st0" d="M0,0h3.6v5.5H0V0z"/>
		</g>
	</g>
	<g id="Group_10780" transform="translate(78.292 67.587)">
		<g id="Group_10779">
			<path id="Rectangle_1959" class="st0" d="M0,0h3.6v5.5H0V0z"/>
		</g>
	</g>
	<g id="Group_10782" transform="translate(0 134.954)">
		<g id="Group_10781">
			<path id="Rectangle_1960" class="st0" d="M0,0h21.8v3.6H0V0z"/>
		</g>
	</g>
	<g id="Group_10784" transform="translate(87.396 134.954)">
		<g id="Group_10783">
			<path id="Rectangle_1961" class="st0" d="M0,0h21.8v3.6H0V0z"/>
		</g>
	</g>
	<g id="Group_10786" transform="translate(7.283 98.539)">
		<g id="Group_10785">
			<path id="Rectangle_1962" class="st0" d="M0,0h3.6v38.2H0V0z"/>
		</g>
	</g>
	<g id="Group_10788" transform="translate(.728 100.724)">
		<g id="Group_10787">
			<path id="Rectangle_1963" class="st0" d="M0,2.9L2.2,0l14.5,11l-2.2,2.9L0,2.9z"/>
		</g>
	</g>
	<g id="Group_10790" transform="translate(.725 100.725)">
		<g id="Group_10789">
			<path id="Rectangle_1964" class="st0" d="M0,10.9L14.6,0l2.2,2.9L2.2,13.8L0,10.9z"/>
		</g>
	</g>
	<g id="Group_10792" transform="translate(98.32 98.539)">
		<g id="Group_10791">
			<path id="Rectangle_1965" class="st0" d="M0,0h3.6v38.2H0V0z"/>
		</g>
	</g>
	<g id="Group_10794" transform="translate(91.765 100.726)">
		<g id="Group_10793">
			<path id="Rectangle_1966" class="st0" d="M0,2.9L2.2,0l14.5,11l-2.2,2.9L0,2.9z"/>
		</g>
	</g>
	<g id="Group_10796" transform="translate(91.755 100.735)">
		<g id="Group_10795">
			<path id="Rectangle_1967" class="st0" d="M0,10.9L14.6,0l2.2,2.9L2.2,13.8L0,10.9z"/>
		</g>
	</g>
</g>
</svg>
