<?xml version="1.0" encoding="utf-8"?>
<!-- Generator: Adobe Illustrator 24.3.0, SVG Export Plug-In . SVG Version: 6.00 Build 0)  -->
<svg version="1.1" id="houses" xmlns="http://www.w3.org/2000/svg" xmlns:xlink="http://www.w3.org/1999/xlink" x="0px" y="0px"
	 viewBox="0 0 94.2 94.2" style="enable-background:new 0 0 94.2 94.2;" xml:space="preserve">
<style type="text/css">
	.st0{fill:#2960F5;}
</style>
<path id="Path_24750" class="st0" d="M83.1,22.1c-6.1,0-11-4.9-11-11S77,0,83.1,0c6.1,0,11,4.9,11,11c0,0,0,0,0,0
	C94.1,17.1,89.2,22.1,83.1,22.1z M83.1,3.7c-4.1,0-7.4,3.3-7.4,7.4s3.3,7.4,7.4,7.4c4.1,0,7.4-3.3,7.4-7.4c0,0,0,0,0,0
	C90.5,7,87.2,3.7,83.1,3.7z"/>
<path id="Path_24751" class="st0" d="M49.2,20.3H1.8c-1,0-1.8-0.8-1.8-1.8C0,12.2,5.1,7.1,11.3,7.1c0.1,0,0.2,0,0.3,0
	c4.3-7,13.4-9.2,20.5-5C33.4,3,34.6,4,35.6,5.1c6.7-1.7,13.5,2.4,15.2,9.2c0.2,1,0.4,2,0.4,3c0,0.5,0,0.9-0.1,1.4
	C51,19.6,50.2,20.3,49.2,20.3z M3.9,16.6h43.5c-0.4-4.9-4.6-8.5-9.5-8.2c-0.8,0.1-1.6,0.2-2.4,0.5c-0.8,0.3-1.6,0-2.1-0.6
	c-3.6-5-10.6-6.1-15.7-2.5c-1.5,1.1-2.7,2.5-3.5,4.1c-0.4,0.7-1.1,1.1-1.9,1C8.5,10.3,4.8,12.8,3.9,16.6z"/>
<path id="Path_24752" class="st0" d="M82.3,86.2c-0.1,0-0.2,0-0.4,0c-0.1,0-0.2-0.1-0.3-0.1c-0.1,0-0.2-0.1-0.3-0.2
	c-0.1-0.1-0.2-0.1-0.3-0.2c-0.1-0.1-0.2-0.2-0.2-0.3c-0.1-0.1-0.1-0.2-0.2-0.3c0-0.1-0.1-0.2-0.1-0.3c0-0.1,0-0.2,0-0.4
	c0-0.1,0-0.2,0-0.4c0-0.1,0.1-0.2,0.1-0.3c0-0.1,0.1-0.2,0.2-0.3c0.1-0.1,0.1-0.2,0.2-0.3c0.1-0.1,0.2-0.2,0.3-0.2
	c0.1-0.1,0.2-0.1,0.3-0.2c0.3-0.1,0.7-0.2,1.1-0.1c0.1,0,0.2,0.1,0.3,0.1c0.1,0,0.2,0.1,0.3,0.2c0.1,0.1,0.2,0.1,0.3,0.2
	c0.1,0.1,0.2,0.2,0.2,0.3c0.1,0.1,0.1,0.2,0.2,0.3c0,0.1,0.1,0.2,0.1,0.3c0,0.1,0,0.2,0,0.4c0,0.1,0,0.2,0,0.4
	c0,0.1-0.1,0.2-0.1,0.3c0,0.1-0.1,0.2-0.2,0.3c-0.1,0.1-0.1,0.2-0.2,0.3c-0.1,0.1-0.2,0.2-0.3,0.2C83.2,85.9,83.1,86,83,86
	c-0.1,0-0.2,0.1-0.3,0.1C82.5,86.2,82.4,86.2,82.3,86.2L82.3,86.2z"/>
<path id="Path_24753" class="st0" d="M92.3,74.5h-3.4V54l0.6,0.4c0.8,0.6,2,0.4,2.6-0.4c0.2-0.3,0.4-0.7,0.4-1.1V42.9
	c0-0.6-0.3-1.1-0.8-1.5L66.5,22.9c-0.6-0.5-1.5-0.5-2.2,0l-11,8.1l-5.1-3.7c-0.6-0.5-1.5-0.5-2.2,0L40.9,31l-11-8.1
	c-0.6-0.5-1.5-0.5-2.2,0L2.5,41.4c-0.5,0.3-0.8,0.9-0.8,1.5V53c0,1,0.8,1.8,1.8,1.8c0.4,0,0.8-0.1,1.1-0.4L5.2,54v20.5H1.8
	c-1,0-1.8,0.8-1.8,1.8c0,0,0,0,0,0v16c0,1,0.8,1.8,1.8,1.8c0,0,0,0,0,0h90.5c1,0,1.8-0.8,1.8-1.8l0,0v-16
	C94.2,75.3,93.3,74.5,92.3,74.5C92.3,74.5,92.3,74.5,92.3,74.5z M85.2,51.3v23.2H70.6V58.4l0.6,0.4l0,0l0,0l0,0l0,0l0,0l0,0l0,0l0,0
	l0,0l0,0l0,0h0l0.1,0l0,0h0l0,0h0l0,0h0c0.4,0.2,0.9,0.2,1.3,0.1l0.1,0h0l0,0h0l0,0l0,0l0,0l0,0l0,0l0,0c0.6-0.3,1-0.9,1-1.6V47.3
	c0-0.6-0.3-1.1-0.8-1.5l-10.1-7.4l2.2-1.6L85.2,51.3z M51.2,82.5h-8.3v-11h8.3L51.2,82.5z M53.1,67.8h-12c-1,0-1.8,0.8-1.8,1.8v12.8
	h-12V55.7l19.8-14.6l19.8,14.6v26.8h-12V69.7C54.9,68.7,54.1,67.8,53.1,67.8L53.1,67.8z M65.4,26.7l23.3,17.1v5.5L66.5,33
	c-0.6-0.4-1.4-0.5-2-0.1c-0.1,0-0.1,0.1-0.2,0.1l-4.2,3.1l-3.7-2.8L65.4,26.7z M47.1,31.1l23.3,17.1v5.5l-0.6-0.4L48.2,37.4
	c-0.1,0-0.1-0.1-0.2-0.1c-0.6-0.4-1.4-0.3-2,0.1L24.3,53.3l-0.6,0.4v-5.5L47.1,31.1z M5.4,43.8l23.3-17.1l9,6.6L34,36.1L29.8,33
	c-0.6-0.5-1.5-0.5-2.2,0L5.4,49.3L5.4,43.8z M8.9,51.3l19.8-14.6l2.2,1.6l-10.1,7.4l0,0c-0.4,0.3-0.6,0.7-0.7,1.2c0,0,0,0,0,0.1
	l0,0.1c0,0.1,0,0.1,0,0.2v10.1c0,0.7,0.4,1.3,1,1.6l0,0c0.6,0.3,1.3,0.2,1.9-0.2l0.6-0.4v16.1H8.9L8.9,51.3z M23.6,78.2v4.3H3.7
	v-4.3H23.6z M90.5,90.5H3.7v-4.3h71.2c1,0,1.8-0.8,1.8-1.8c0-1-0.8-1.8-1.8-1.8c0,0,0,0,0,0h-4.3v-4.3h19.9L90.5,90.5z"/>
<path id="Path_24754" class="st0" d="M47.1,64c-4.4,0-8-3.6-8-8c0-4.4,3.6-8,8-8c4.4,0,8,3.6,8,8C55,60.4,51.5,64,47.1,64L47.1,64z
	 M47.1,51.8c-2.4,0-4.3,1.9-4.3,4.3s1.9,4.3,4.3,4.3c2.4,0,4.3-1.9,4.3-4.3l0,0C51.4,53.7,49.4,51.8,47.1,51.8L47.1,51.8z"/>
</svg>
