<svg xmlns="http://www.w3.org/2000/svg" width="17" height="14" viewBox="0 0 17 14"><defs><style>.a{fill:#385cf8;}</style></defs><g transform="translate(0 -2)"><path class="a" d="M10.249,2a.533.533,0,0,0-.384.162L6.147,6.013a.525.525,0,0,0,.384.888H8.479v4.025a.881.881,0,0,0,.885.875h1.771a.881.881,0,0,0,.885-.875V6.9h1.948a.525.525,0,0,0,.384-.888l-3.718-3.85A.533.533,0,0,0,10.249,2Z" transform="translate(-1.75 0)"/><path class="a" d="M15.76,20.8H1.24A1.234,1.234,0,0,1,0,19.575v-.35A1.234,1.234,0,0,1,1.24,18H15.76A1.234,1.234,0,0,1,17,19.225v.35A1.234,1.234,0,0,1,15.76,20.8Z" transform="translate(0 -4.8)"/></g></svg>
