<svg xmlns="http://www.w3.org/2000/svg" xmlns:xlink="http://www.w3.org/1999/xlink" width="106" height="106" viewBox="0 0 106 106"><defs><style>.a,.d{fill:#fff;}.b{fill:#36baff;}.c{fill:#161643;}.e,.i{fill:#64caff;}.f{fill:#99dbfd;}.g{fill:#fcc70f;}.h{fill:#fd2467;}.j{fill:#44bdfc;}.k{fill:#3da7ff;}.l{fill:#249cff;}.m{fill:#ea0048;}.n{fill:#e3f3ff;}.o{fill:#cfe8fc;}.p{fill:#89ccfc;}.q,.r{stroke:none;}.r{fill:#161643;}.s{filter:url(#e);}.t{filter:url(#c);}.u{filter:url(#a);}</style><filter id="a" x="5.155" y="4.883" width="94.826" height="94.826" filterUnits="userSpaceOnUse"><feOffset dy="3" input="SourceAlpha"/><feGaussianBlur stdDeviation="3" result="b"/><feFlood flood-opacity="0.161"/><feComposite operator="in" in2="b"/><feComposite in="SourceGraphic"/></filter><filter id="c" x="0" y="0" width="106" height="106" filterUnits="userSpaceOnUse"><feOffset dy="3" input="SourceAlpha"/><feGaussianBlur stdDeviation="3" result="d"/><feFlood flood-opacity="0.161"/><feComposite operator="in" in2="d"/><feComposite in="SourceGraphic"/></filter><filter id="e" x="4.334" y="4.334" width="97.2" height="97.2" filterUnits="userSpaceOnUse"><feOffset dy="3" input="SourceAlpha"/><feGaussianBlur stdDeviation="3" result="f"/><feFlood flood-opacity="0.161"/><feComposite operator="in" in2="f"/><feComposite in="SourceGraphic"/></filter></defs><g transform="translate(9 5.729)"><g class="u" transform="matrix(1, 0, 0, 1, -9, -5.73)"><g class="a" transform="translate(14.15 10.88)"><path class="q" d="M 38.41303634643555 76.32607269287109 C 33.29458618164062 76.32607269287109 28.32951545715332 75.32373809814453 23.65572547912598 73.34688568115234 C 19.14112663269043 71.4373779296875 15.08649635314941 68.70363616943359 11.60446643829346 65.22160339355469 C 8.122446060180664 61.73957824707031 5.388696193695068 57.6849479675293 3.479186296463013 53.17034530639648 C 1.502336382865906 48.49656677246094 0.4999963343143463 43.53148651123047 0.4999963343143463 38.41303634643555 C 0.4999963343143463 33.29458618164062 1.502336382865906 28.32951545715332 3.479186296463013 23.65572547912598 C 5.388696193695068 19.14112663269043 8.122446060180664 15.08649635314941 11.60446643829346 11.60446643829346 C 15.08649635314941 8.122446060180664 19.14112663269043 5.388696193695068 23.65572547912598 3.479186296463013 C 28.32951545715332 1.502336382865906 33.29458618164062 0.4999963343143463 38.41303634643555 0.4999963343143463 C 43.53148651123047 0.4999963343143463 48.49656677246094 1.502336382865906 53.17034530639648 3.479186296463013 C 57.6849479675293 5.388696193695068 61.73957824707031 8.122446060180664 65.22160339355469 11.60446643829346 C 68.70363616943359 15.08649635314941 71.4373779296875 19.14112663269043 73.34688568115234 23.65572547912598 C 75.32373809814453 28.32951545715332 76.32607269287109 33.29458618164062 76.32607269287109 38.41303634643555 C 76.32607269287109 43.53148651123047 75.32373809814453 48.49656677246094 73.34688568115234 53.17034530639648 C 71.4373779296875 57.6849479675293 68.70363616943359 61.73957824707031 65.22160339355469 65.22160339355469 C 61.73957824707031 68.70363616943359 57.6849479675293 71.4373779296875 53.17034530639648 73.34688568115234 C 48.49656677246094 75.32373809814453 43.53148651123047 76.32607269287109 38.41303634643555 76.32607269287109 Z"/><path class="r" d="M 38.41303634643555 1 C 33.36186981201172 1 28.46232604980469 1.989059448242188 23.85050201416016 3.939689636230469 C 19.39550399780273 5.824005126953125 15.39429092407227 8.521759033203125 11.95802307128906 11.95802307128906 C 8.521759033203125 15.39429092407227 5.824005126953125 19.39550399780273 3.939689636230469 23.85050201416016 C 1.989059448242188 28.46232604980469 1 33.36186981201172 1 38.41303634643555 C 1 43.46420288085938 1.989059448242188 48.36374664306641 3.939689636230469 52.97557067871094 C 5.824005126953125 57.43057250976562 8.521759033203125 61.43178176879883 11.95802307128906 64.86804962158203 C 15.39429092407227 68.30431365966797 19.39550399780273 71.00206756591797 23.85050201416016 72.88638305664062 C 28.46232604980469 74.83701324462891 33.36186981201172 75.82607269287109 38.41303634643555 75.82607269287109 C 43.46420288085938 75.82607269287109 48.36374664306641 74.83701324462891 52.97557067871094 72.88638305664062 C 57.43057250976562 71.00206756591797 61.43178176879883 68.30431365966797 64.86804962158203 64.86804962158203 C 68.30431365966797 61.43178176879883 71.00206756591797 57.43057250976562 72.88638305664062 52.97557067871094 C 74.83701324462891 48.36374664306641 75.82607269287109 43.46420288085938 75.82607269287109 38.41303634643555 C 75.82607269287109 33.36186981201172 74.83701324462891 28.46232604980469 72.88638305664062 23.85050201416016 C 71.00206756591797 19.39550399780273 68.30431365966797 15.39429092407227 64.86804962158203 11.95802307128906 C 61.43178176879883 8.521759033203125 57.43057250976562 5.824005126953125 52.97557067871094 3.939689636230469 C 48.36374664306641 1.989059448242188 43.46420288085938 1 38.41303634643555 1 M 38.41303634643555 0 C 59.62796783447266 0 76.82607269287109 17.19810485839844 76.82607269287109 38.41303634643555 C 76.82607269287109 59.62796783447266 59.62796783447266 76.82607269287109 38.41303634643555 76.82607269287109 C 17.19810485839844 76.82607269287109 0 59.62796783447266 0 38.41303634643555 C 0 17.19810485839844 17.19810485839844 0 38.41303634643555 0 Z"/></g></g><g transform="translate(20.989 22.298)"><rect class="b" width="43.086" height="7.181" rx="1" transform="translate(1.311 6.775)"/><path class="c" d="M53.712,60.1H12.124A1.125,1.125,0,0,1,11,58.972V53.289a1.125,1.125,0,0,1,1.124-1.124H53.712a1.125,1.125,0,0,1,1.124,1.124v5.683A1.125,1.125,0,0,1,53.712,60.1ZM12.124,52.914a.375.375,0,0,0-.375.375v5.683a.375.375,0,0,0,.375.375H53.712a.375.375,0,0,0,.375-.375V53.289a.375.375,0,0,0-.375-.375Z" transform="translate(-10.063 -45.765)"/><path class="d" d="M23,92.5H62.34v23.885H23Z" transform="translate(-19.815 -78.543)"/><path class="c" d="M60.714,115.134H21.375a.375.375,0,0,1-.375-.375V90.875a.375.375,0,0,1,.375-.375h39.34a.375.375,0,0,1,.375.375v23.885A.375.375,0,0,1,60.714,115.134Zm-38.965-.749H60.34V91.249H21.749Z" transform="translate(-18.19 -76.918)"/><rect class="e" width="18.546" height="18.046" rx="1" transform="translate(13.582 0.375)"/><rect class="e" width="45" height="3" rx="1.5" transform="translate(0.321 37.908)"/><path class="b" d="M99.749,134.667h9.367a.749.749,0,0,1,.749.749v15.236H99V135.416A.749.749,0,0,1,99.749,134.667Z" transform="translate(-81.578 -112.812)"/><rect class="f" width="3.247" height="7.119" rx="1" transform="translate(26.414 23.729) rotate(90)"/><rect class="b" width="8.805" height="9.616" rx="1" transform="translate(40.682 22.261) rotate(90)"/><rect class="f" width="6.994" height="6.182" rx="2" transform="translate(39.371 29.755) rotate(180)"/><rect class="b" width="8.805" height="9.616" rx="1" transform="translate(14.643 22.261) rotate(90)"/><rect class="f" width="6.994" height="6.182" rx="2" transform="translate(13.332 29.755) rotate(180)"/><path class="g" d="M104.94,31.861a.175.175,0,0,1-.214-.1l-.21-.517a.175.175,0,0,0-.217-.1l-1.491.5a.174.174,0,0,0-.106.232l.258.619a3.814,3.814,0,0,1,.716,2.473,3.846,3.846,0,0,1-.53,2.19,1.338,1.338,0,0,0,.071,1.377,2.954,2.954,0,0,0,1.635,1.476l2.454.932a.349.349,0,0,0,.248,0l2.454-.932a2.954,2.954,0,0,0,1.635-1.476,1.338,1.338,0,0,0,.071-1.377,3.85,3.85,0,0,1-.53-2.19,3.8,3.8,0,0,1,.716-2.473l.258-.618a.174.174,0,0,0-.106-.232l-1.491-.5a.175.175,0,0,0-.217.1l-.21.517a.174.174,0,0,1-.215.1l-2.167-.691a1.047,1.047,0,0,0-.635,0Z" transform="translate(-84.576 -28.663)"/><path class="c" d="M112.937,39.361a.375.375,0,0,1-.257-.648,4.046,4.046,0,0,1,5.548,0,.375.375,0,1,1-.513.546,3.3,3.3,0,0,0-4.521,0A.372.372,0,0,1,112.937,39.361Z" transform="translate(-92.6 -33.939)"/><circle class="c" cx="2.68" cy="2.68" r="2.68" transform="translate(20.175 5.381)"/><path class="h" d="M120.626,52.142l.368.745a.222.222,0,0,0,.167.121l.823.12a.222.222,0,0,1,.123.378l-.6.581a.222.222,0,0,0-.064.2l.141.819a.222.222,0,0,1-.322.234l-.736-.387a.221.221,0,0,0-.206,0l-.736.387a.222.222,0,0,1-.322-.234l.14-.819a.222.222,0,0,0-.064-.2l-.6-.581a.222.222,0,0,1,.123-.378l.823-.12a.222.222,0,0,0,.167-.121l.368-.745a.222.222,0,0,1,.4,0Z" transform="translate(-97.572 -45.646)"/><path class="c" d="M105.8,39.7a.721.721,0,0,1-.257-.047l-2.454-.932a3.312,3.312,0,0,1-1.84-1.665,1.728,1.728,0,0,1-.054-1.731,3.4,3.4,0,0,0,.477-1.916v-.081a3.428,3.428,0,0,0-.64-2.246.367.367,0,0,1-.048-.084l-.258-.619a.549.549,0,0,1,.333-.732l1.491-.5a.551.551,0,0,1,.683.315l.14.345,2-.636a1.41,1.41,0,0,1,.863,0l1.99.635.14-.345a.551.551,0,0,1,.683-.314l1.491.5a.549.549,0,0,1,.333.732L110.62,31a.368.368,0,0,1-.05.086,3.429,3.429,0,0,0-.638,2.243v.028a3.44,3.44,0,0,0,.476,1.969,1.728,1.728,0,0,1-.054,1.731,3.313,3.313,0,0,1-1.84,1.665l-2.454.932A.723.723,0,0,1,105.8,39.7Zm-4.142-9.029a4.194,4.194,0,0,1,.762,2.658v.077a4.135,4.135,0,0,1-.583,2.3c-.116.193-.185.451.087,1.025a2.567,2.567,0,0,0,1.43,1.286l2.454.932,2.435-.932a2.568,2.568,0,0,0,1.43-1.286c.272-.574.2-.832.087-1.025a4.2,4.2,0,0,1-.583-2.354v-.028a4.141,4.141,0,0,1,.762-2.658l.158-.38-1.109-.37-.139.342a.553.553,0,0,1-.676.317l-2.167-.691a.669.669,0,0,0-.408,0l-2.178.692a.553.553,0,0,1-.674-.317l-.139-.343-1.109.37Z" transform="translate(-82.949 -27.027)"/><path class="c" d="M87.5,88.355a.927.927,0,0,0-.371-.2,2.187,2.187,0,0,0-.577-.059h-.8a.537.537,0,0,0-.377.119.494.494,0,0,0-.131.377v2.375a.515.515,0,0,0,.115.356.423.423,0,0,0,.616,0,.516.516,0,0,0,.118-.359V90.2h.459a1.431,1.431,0,0,0,.937-.269.988.988,0,0,0,.33-.8,1.172,1.172,0,0,0-.08-.44A.9.9,0,0,0,87.5,88.355Zm-1.407.436H86.4c.323,0,.435.064.471.1a.356.356,0,0,1,.089.255.347.347,0,0,1-.056.209.319.319,0,0,1-.169.111,1.152,1.152,0,0,1-.335.041H86.1Z" transform="translate(-70.4 -74.965)"/><path class="c" d="M102.308,88.031a1.762,1.762,0,0,0-.878-.209,1.814,1.814,0,0,0-.672.118,1.39,1.39,0,0,0-.512.345,1.519,1.519,0,0,0-.32.545,2.117,2.117,0,0,0-.108.688,2.182,2.182,0,0,0,.1.68,1.521,1.521,0,0,0,.312.551,1.4,1.4,0,0,0,.518.358,1.985,1.985,0,0,0,1.377,0,1.386,1.386,0,0,0,.516-.357,1.52,1.52,0,0,0,.313-.546,2.177,2.177,0,0,0,.1-.685,2.006,2.006,0,0,0-.187-.892A1.377,1.377,0,0,0,102.308,88.031Zm-1.4,2.242a.868.868,0,0,1-.165-.312,1.492,1.492,0,0,1-.061-.442,1.448,1.448,0,0,1,.061-.436.876.876,0,0,1,.159-.3.644.644,0,0,1,.232-.174.737.737,0,0,1,.3-.061.752.752,0,0,1,.406.11.7.7,0,0,1,.27.325,1.343,1.343,0,0,1,.1.541,1.327,1.327,0,0,1-.108.568.721.721,0,0,1-.275.321.764.764,0,0,1-.681.044.677.677,0,0,1-.238-.181Z" transform="translate(-82.242 -74.741)"/><path class="c" d="M120.7,90.444h-1.152v-2.13a.513.513,0,0,0-.117-.361.407.407,0,0,0-.31-.129.4.4,0,0,0-.307.131.519.519,0,0,0-.114.359v2.373a.436.436,0,0,0,.495.495H120.7a.449.449,0,0,0,.307-.1.346.346,0,0,0,.118-.268.352.352,0,0,0-.117-.268A.441.441,0,0,0,120.7,90.444Z" transform="translate(-97.58 -74.743)"/><path class="c" d="M133.214,87.823a.4.4,0,0,0-.306.131.516.516,0,0,0-.116.359v2.427a.518.518,0,0,0,.117.361.425.425,0,0,0,.615,0,.516.516,0,0,0,.117-.362V88.314a.513.513,0,0,0-.118-.361A.407.407,0,0,0,133.214,87.823Z" transform="translate(-109.039 -74.743)"/><path class="c" d="M141.795,89.712a.329.329,0,0,0-.278.121.778.778,0,0,0-.115.228.7.7,0,0,1-.241.339.646.646,0,0,1-.39.112.672.672,0,0,1-.372-.1.647.647,0,0,1-.243-.305,1.44,1.44,0,0,1-.092-.554,1.223,1.223,0,0,1,.2-.761.625.625,0,0,1,.525-.249.593.593,0,0,1,.343.094.837.837,0,0,1,.252.3.887.887,0,0,0,.156.225.362.362,0,0,0,.257.087.353.353,0,0,0,.265-.118.381.381,0,0,0,.106-.265.84.84,0,0,0-.176-.48,1.318,1.318,0,0,0-.488-.4,1.56,1.56,0,0,0-.718-.162,1.656,1.656,0,0,0-.62.117,1.47,1.47,0,0,0-.511.345,1.533,1.533,0,0,0-.334.543,2.035,2.035,0,0,0-.115.705,2.234,2.234,0,0,0,.045.457,1.818,1.818,0,0,0,.138.409,1.647,1.647,0,0,0,.224.349,1.339,1.339,0,0,0,.327.281,1.362,1.362,0,0,0,.4.157,2.091,2.091,0,0,0,.468.049,1.547,1.547,0,0,0,.608-.112,1.282,1.282,0,0,0,.435-.294,1.267,1.267,0,0,0,.25-.37.937.937,0,0,0,.081-.362.382.382,0,0,0-.383-.383Z" transform="translate(-114.253 -74.742)"/><path class="c" d="M159.329,90.781a.427.427,0,0,0-.3-.1h-1.341v-.652h1.182a.41.41,0,0,0,.292-.1.341.341,0,0,0,.1-.252.331.331,0,0,0-.107-.252.415.415,0,0,0-.289-.094h-1.182V88.8h1.293a.428.428,0,0,0,.3-.1.358.358,0,0,0,0-.515.427.427,0,0,0-.3-.1h-1.649a.637.637,0,0,0-.264.049.36.36,0,0,0-.18.178.624.624,0,0,0-.05.268v2.316a.435.435,0,0,0,.495.495h1.7a.427.427,0,0,0,.3-.1.344.344,0,0,0,.111-.26A.349.349,0,0,0,159.329,90.781Z" transform="translate(-128.578 -74.965)"/><rect class="f" width="7" height="7" rx="1" transform="translate(26.321 28.908) rotate(90)"/><path class="c" d="M195.875,148.764a.375.375,0,0,1-.375-.375v-6.182a.375.375,0,1,1,.749,0v6.182A.375.375,0,0,1,195.875,148.764Z" transform="translate(-160.001 -118.635)"/><path class="c" d="M185.875,148.764a.375.375,0,0,1-.375-.375v-6.182a.375.375,0,1,1,.749,0v6.182A.375.375,0,0,1,185.875,148.764Z" transform="translate(-151.874 -118.635)"/><path class="c" d="M205.875,148.764a.375.375,0,0,1-.375-.375v-6.182a.375.375,0,0,1,.749,0v6.182A.375.375,0,0,1,205.875,148.764Z" transform="translate(-168.127 -118.635)"/><path class="c" d="M56.875,148.764a.375.375,0,0,1-.375-.375v-6.182a.375.375,0,0,1,.749,0v6.182A.375.375,0,0,1,56.875,148.764Z" transform="translate(-47.04 -118.635)"/><path class="c" d="M46.875,148.764a.375.375,0,0,1-.375-.375v-6.182a.375.375,0,1,1,.749,0v6.182A.375.375,0,0,1,46.875,148.764Z" transform="translate(-38.913 -118.635)"/><path class="c" d="M66.875,148.764a.375.375,0,0,1-.375-.375v-6.182a.375.375,0,1,1,.749,0v6.182A.375.375,0,0,1,66.875,148.764Z" transform="translate(-55.166 -118.635)"/><path class="c" d="M179.075,144.387h-8.118a1.125,1.125,0,0,1-1.124-1.124v-7.306a1.125,1.125,0,0,1,1.124-1.124h8.118a1.125,1.125,0,0,1,1.124,1.124v7.306A1.125,1.125,0,0,1,179.075,144.387Zm-8.118-8.8a.375.375,0,0,0-.375.375v7.306a.375.375,0,0,0,.375.375h8.118a.375.375,0,0,0,.375-.375v-7.306a.375.375,0,0,0-.375-.375Z" transform="translate(-139.142 -112.946)"/><path class="c" d="M183.827,148.764h-6.245a.749.749,0,0,1-.749-.749v-5.433a.749.749,0,0,1,.749-.749h6.245a.749.749,0,0,1,.749.749v5.433A.749.749,0,0,1,183.827,148.764Zm-6.245-6.182v5.433h6.245v-5.433Z" transform="translate(-144.831 -118.635)"/><path class="c" d="M40.075,144.387H31.957a1.125,1.125,0,0,1-1.124-1.124v-7.306a1.125,1.125,0,0,1,1.124-1.124h8.118a1.125,1.125,0,0,1,1.124,1.124v7.306A1.125,1.125,0,0,1,40.075,144.387Zm-8.118-8.8a.375.375,0,0,0-.375.375v7.306a.375.375,0,0,0,.375.375h8.118a.375.375,0,0,0,.375-.375v-7.306a.375.375,0,0,0-.375-.375Z" transform="translate(-26.181 -112.946)"/><path class="c" d="M44.827,148.764H38.582a.749.749,0,0,1-.749-.749v-5.433a.749.749,0,0,1,.749-.749h6.245a.749.749,0,0,1,.749.749v5.433A.749.749,0,0,1,44.827,148.764Zm-6.245-6.182v5.433h6.245v-5.433Z" transform="translate(-31.87 -118.635)"/><path class="c" d="M94.3,36.8H78a1.5,1.5,0,0,1-1.5-1.5V19.5A1.5,1.5,0,0,1,78,18H94.3a1.5,1.5,0,0,1,1.5,1.5V35.3A1.5,1.5,0,0,1,94.3,36.8ZM78,18.749a.749.749,0,0,0-.749.749V35.3a.749.749,0,0,0,.749.749H94.3a.749.749,0,0,0,.749-.749V19.5a.749.749,0,0,0-.749-.749Z" transform="translate(-63.293 -18)"/><path class="c" d="M108.24,149.4H97.375a.375.375,0,0,1-.375-.375V133.791a1.125,1.125,0,0,1,1.124-1.124h9.367a1.125,1.125,0,0,1,1.124,1.124v15.236A.375.375,0,0,1,108.24,149.4Zm-10.491-.749h10.116V133.791a.375.375,0,0,0-.375-.375H98.124a.375.375,0,0,0-.375.375Z" transform="translate(-79.953 -111.186)"/><path class="c" d="M114.306,146.663h-6.744A.562.562,0,0,1,107,146.1v-2.873a.562.562,0,0,1,.562-.562h6.744a.562.562,0,0,1,.562.562V146.1A.562.562,0,0,1,114.306,146.663Zm-6.557-.749h6.369v-2.5h-6.369Z" transform="translate(-88.079 -119.312)"/><path class="c" d="M114.306,176.243h-6.744a.562.562,0,0,1-.562-.562v-7.119a.562.562,0,0,1,.562-.562h6.744a.562.562,0,0,1,.562.562v7.119a.562.562,0,0,1-.562.562Zm-6.557-.749h6.369v-6.744h-6.369Z" transform="translate(-88.079 -139.9)"/><path class="c" d="M50.96,221.747H6.749A.749.749,0,0,1,6,221v-2.248A.749.749,0,0,1,6.749,218H50.96a.749.749,0,0,1,.749.749V221A.749.749,0,0,1,50.96,221.747Zm-44.21-3V221H50.96v-2.248Z" transform="translate(-6 -180.534)"/></g><g transform="translate(-230.706 -1052.729)"><g class="t" transform="matrix(1, 0, 0, 1, 221.71, 1047)"><g class="i" transform="translate(9 6)"><path class="q" d="M 44 87.5 C 38.12731170654297 87.5 32.43056488037109 86.34992980957031 27.06798934936523 84.08175659179688 C 21.88809967041016 81.89085388183594 17.23597717285156 78.75426483154297 13.24085521697998 74.75914764404297 C 9.245733261108398 70.76402282714844 6.10914421081543 66.11190032958984 3.918244361877441 60.93201065063477 C 1.650066614151001 55.56943511962891 0.5 49.87268829345703 0.5 44 C 0.5 38.12731170654297 1.650066614151001 32.43056488037109 3.918244361877441 27.06798934936523 C 6.10914421081543 21.88809967041016 9.245733261108398 17.23597717285156 13.24085521697998 13.24085521697998 C 17.23597717285156 9.245733261108398 21.88809967041016 6.10914421081543 27.06798934936523 3.918244361877441 C 32.43056488037109 1.650066614151001 38.12731170654297 0.5 44 0.5 C 49.87268829345703 0.5 55.56943511962891 1.650066614151001 60.93201065063477 3.918244361877441 C 66.11190032958984 6.10914421081543 70.76402282714844 9.245733261108398 74.75914764404297 13.24085521697998 C 78.75426483154297 17.23597717285156 81.89085388183594 21.88809967041016 84.08175659179688 27.06798934936523 C 86.34992980957031 32.43056488037109 87.5 38.12731170654297 87.5 44 C 87.5 49.87268829345703 86.34992980957031 55.56943511962891 84.08175659179688 60.93201065063477 C 81.89085388183594 66.11190032958984 78.75426483154297 70.76402282714844 74.75914764404297 74.75914764404297 C 70.76402282714844 78.75426483154297 66.11190032958984 81.89085388183594 60.93201065063477 84.08175659179688 C 55.56943511962891 86.34992980957031 49.87268829345703 87.5 44 87.5 Z"/><path class="r" d="M 44 1 C 38.19459915161133 1 32.56337738037109 2.13677978515625 27.26276397705078 4.378738403320312 C 22.14247131347656 6.544448852539062 17.54377746582031 9.645034790039062 13.59441375732422 13.59441375732422 C 9.645034790039062 17.54377746582031 6.544448852539062 22.14247131347656 4.378738403320312 27.26276397705078 C 2.13677978515625 32.56337738037109 1 38.19459915161133 1 44 C 1 49.80540084838867 2.13677978515625 55.43662261962891 4.378738403320312 60.73723602294922 C 6.544448852539062 65.85752868652344 9.645034790039062 70.45622253417969 13.59441375732422 74.40558624267578 C 17.54377746582031 78.35496520996094 22.14247131347656 81.45555114746094 27.26276397705078 83.62126159667969 C 32.56337738037109 85.86322021484375 38.19459915161133 87 44 87 C 49.80540084838867 87 55.43662261962891 85.86322021484375 60.73723602294922 83.62126159667969 C 65.85752868652344 81.45555114746094 70.45622253417969 78.35496520996094 74.40558624267578 74.40558624267578 C 78.35496520996094 70.45622253417969 81.45555114746094 65.85752868652344 83.62126159667969 60.73723602294922 C 85.86322021484375 55.43662261962891 87 49.80540084838867 87 44 C 87 38.19459915161133 85.86322021484375 32.56337738037109 83.62126159667969 27.26276397705078 C 81.45555114746094 22.14247131347656 78.35496520996094 17.54377746582031 74.40558624267578 13.59441375732422 C 70.45622253417969 9.645034790039062 65.85752868652344 6.544448852539062 60.73723602294922 4.378738403320312 C 55.43662261962891 2.13677978515625 49.80540084838867 1 44 1 M 44 0 C 68.30052947998047 0 88 19.69947052001953 88 44 C 88 68.30052947998047 68.30052947998047 88 44 88 C 19.69947052001953 88 0 68.30052947998047 0 44 C 0 19.69947052001953 19.69947052001953 0 44 0 Z"/></g></g><g class="s" transform="matrix(1, 0, 0, 1, 221.71, 1047)"><g class="a" transform="translate(13.33 10.33)"><path class="q" d="M 39.59999847412109 78.69999694824219 C 34.32130813598633 78.69999694824219 29.20078659057617 77.66626739501953 24.38066482543945 75.62753295898438 C 19.7247314453125 73.65823364257812 15.54316520690918 70.83891296386719 11.95212078094482 67.24786376953125 C 8.361087799072266 63.65683364868164 5.541765213012695 59.47526550292969 3.572465181350708 54.81932067871094 C 1.533720731735229 49.99919891357422 0.4999984800815582 44.87867736816406 0.4999984800815582 39.59999847412109 C 0.4999984800815582 34.32130813598633 1.533720731735229 29.20078659057617 3.572465181350708 24.38066482543945 C 5.541765213012695 19.7247200012207 8.361087799072266 15.54316520690918 11.95212078094482 11.95212078094482 C 15.54316520690918 8.361087799072266 19.7247200012207 5.541765213012695 24.38066482543945 3.572465181350708 C 29.20078659057617 1.533720731735229 34.32130813598633 0.4999984800815582 39.59999847412109 0.4999984800815582 C 44.87867736816406 0.4999984800815582 49.99919891357422 1.533720731735229 54.81932067871094 3.572465181350708 C 59.47526550292969 5.541765213012695 63.65683364868164 8.361087799072266 67.24786376953125 11.95212078094482 C 70.83891296386719 15.54316520690918 73.65823364257812 19.7247314453125 75.62753295898438 24.38066482543945 C 77.66626739501953 29.20078659057617 78.69999694824219 34.32130813598633 78.69999694824219 39.59999847412109 C 78.69999694824219 44.87867736816406 77.66626739501953 49.99919891357422 75.62753295898438 54.81932067871094 C 73.65823364257812 59.47526550292969 70.83891296386719 63.65683364868164 67.24786376953125 67.24786376953125 C 63.65683364868164 70.83891296386719 59.47526550292969 73.65823364257812 54.81932067871094 75.62753295898438 C 49.99919891357422 77.66626739501953 44.87867736816406 78.69999694824219 39.59999847412109 78.69999694824219 Z"/><path class="r" d="M 39.59999847412109 1 C 34.38858795166016 1 29.33359909057617 2.020431518554688 24.57544326782227 4.032966613769531 C 19.97909927368164 5.97705078125 15.8509521484375 8.760398864746094 12.30567932128906 12.30567932128906 C 8.760398864746094 15.8509521484375 5.97705078125 19.97909927368164 4.032966613769531 24.57544326782227 C 2.020431518554688 29.33359909057617 1 34.38858795166016 1 39.59999847412109 C 1 44.81139755249023 2.020431518554688 49.86638641357422 4.032966613769531 54.62454223632812 C 5.97705078125 59.22088623046875 8.760398864746094 63.34902954101562 12.30567932128906 66.89430999755859 C 15.8509521484375 70.43959808349609 19.97909927368164 73.22293090820312 24.57544326782227 75.16703033447266 C 29.33359909057617 77.17955017089844 34.38858795166016 78.19999694824219 39.59999847412109 78.19999694824219 C 44.81139755249023 78.19999694824219 49.86638641357422 77.17955017089844 54.62454223632812 75.16703033447266 C 59.22088623046875 73.22293090820312 63.34902954101562 70.43959808349609 66.89430999755859 66.89430999755859 C 70.43959808349609 63.34902954101562 73.22293090820312 59.22088623046875 75.16703033447266 54.62454223632812 C 77.17955017089844 49.86638641357422 78.19999694824219 44.81139755249023 78.19999694824219 39.59999847412109 C 78.19999694824219 34.38858795166016 77.17955017089844 29.33359909057617 75.16703033447266 24.57544326782227 C 73.22293090820312 19.97909927368164 70.43959808349609 15.8509521484375 66.89430999755859 12.30567932128906 C 63.34902954101562 8.760398864746094 59.22088623046875 5.97705078125 54.62454223632812 4.032966613769531 C 49.86638641357422 2.020431518554688 44.81139755249023 1 39.59999847412109 1 M 39.59999847412109 0 C 61.47045135498047 0 79.19999694824219 17.72951889038086 79.19999694824219 39.59999847412109 C 79.19999694824219 61.47045135498047 61.47045135498047 79.19999694824219 39.59999847412109 79.19999694824219 C 17.72951889038086 79.19999694824219 0 61.47045135498047 0 39.59999847412109 C 0 17.72951889038086 17.72951889038086 0 39.59999847412109 0 Z"/></g></g><g transform="translate(252.308 1071.383)"><g transform="translate(0 0)"><rect class="e" width="43" height="44" rx="3" transform="translate(1.4 4.215)"/><path class="j" d="M49.47,5H47a2.47,2.47,0,0,1,2.47,2.47V46.989A2.47,2.47,0,0,1,47,49.459h2.47a2.47,2.47,0,0,0,2.47-2.47V7.47A2.47,2.47,0,0,0,49.47,5Z" transform="translate(-8.304 -0.883)"/><path class="k" d="M53,48.226h3.2a1.729,1.729,0,0,0,1.717-1.969L53,12Z" transform="translate(-9.364 -2.12)"/><path class="l" d="M57.922,46.257,53,12V29.19l2.452,17.067a1.729,1.729,0,0,1-1.717,1.969H56.2a1.729,1.729,0,0,0,1.717-1.969Z" transform="translate(-9.364 -2.12)"/><path class="h" d="M41.226,10.647v4.94H5v-4.94A1.652,1.652,0,0,1,6.647,9H39.58A1.652,1.652,0,0,1,41.226,10.647Z" transform="translate(-0.883 -1.59)"/><path class="m" d="M46.47,9H44a1.652,1.652,0,0,1,1.647,1.647v4.94h2.47v-4.94A1.652,1.652,0,0,0,46.47,9Z" transform="translate(-7.774 -1.59)"/><path class="n" d="M41.226,17V41.84a1.652,1.652,0,0,1-.486,1.169L35.949,47.8a1.652,1.652,0,0,1-1.169.486H6.647A1.652,1.652,0,0,1,5,46.64V17Z" transform="translate(-0.883 -3.004)"/><path class="o" d="M44.617,17V41.84a1.652,1.652,0,0,1-.486,1.169L39.339,47.8a1.652,1.652,0,0,1-1.169.486h2.47a1.652,1.652,0,0,0,1.169-.486L46.6,43.009a1.652,1.652,0,0,0,.486-1.169V17Z" transform="translate(-6.744 -3.004)"/><path class="p" d="M47.615,48a1.661,1.661,0,0,1-.338.486l-4.792,4.792a1.661,1.661,0,0,1-.486.338V49.647A1.652,1.652,0,0,1,43.647,48Z" transform="translate(-7.42 -8.481)"/><path class="c" d="M44.459,9.818V6.587a3.293,3.293,0,0,0-3.293-3.293H35.654a5.744,5.744,0,0,0-10.39,0H20.011a5.744,5.744,0,0,0-10.39,0H3.293A3.293,3.293,0,0,0,0,6.587V46.106A3.293,3.293,0,0,0,3.293,49.4H41.166a3.293,3.293,0,0,0,3.176-2.47h2.5a2.552,2.552,0,0,0,2.533-2.91Zm-14-8.171a4.122,4.122,0,0,1,3.293,1.647H27.191A4.1,4.1,0,0,1,30.463,1.647Zm0,9.88a.823.823,0,1,0,0-1.647,4.1,4.1,0,0,1-3.272-1.647H38.7a.823.823,0,0,1,.823.823v4.117H4.94V9.057a.823.823,0,0,1,.823-.823H9.621a5.763,5.763,0,0,0,5.2,3.293.823.823,0,1,0,0-1.647,4.1,4.1,0,0,1-3.272-1.647H25.264A5.763,5.763,0,0,0,30.463,11.527ZM39.519,38.7H36.226a2.47,2.47,0,0,0-2.47,2.47v3.293H5.763a.823.823,0,0,1-.823-.823V14.82h34.58Zm-1.164,1.647L35.4,43.3V41.166a.823.823,0,0,1,.823-.823ZM10.786,6.587a4.117,4.117,0,0,1,0-1.647h13.98a5.785,5.785,0,0,0-.066.823,5.785,5.785,0,0,0,.066.823Zm4.034-4.94a4.122,4.122,0,0,1,3.293,1.647H11.548A4.1,4.1,0,0,1,14.82,1.647ZM42.813,46.106a1.647,1.647,0,0,1-1.647,1.647H3.293a1.647,1.647,0,0,1-1.647-1.647V6.587A1.647,1.647,0,0,1,3.293,4.94H9.122a5.785,5.785,0,0,0-.066.823,5.785,5.785,0,0,0,.066.823H5.763a2.47,2.47,0,0,0-2.47,2.47v34.58a2.47,2.47,0,0,0,2.47,2.47H33.9a2.452,2.452,0,0,0,1.746-.724l4.8-4.8a2.452,2.452,0,0,0,.724-1.746V9.057a2.47,2.47,0,0,0-2.47-2.47H26.429a4.117,4.117,0,0,1,0-1.647H41.166a1.647,1.647,0,0,1,1.647,1.647Zm4.72-1.139a.9.9,0,0,1-.692.315H44.459V21.4l3.283,22.853a.88.88,0,0,1-.21.713Z" transform="translate(0 0)"/><path class="c" d="M17.94,40.466a4.945,4.945,0,0,0,4.94-4.94V28.94a4.94,4.94,0,1,0-9.88,0v6.587A4.945,4.945,0,0,0,17.94,40.466ZM14.647,28.94a3.293,3.293,0,1,1,6.587,0v6.587a3.293,3.293,0,1,1-6.587,0Z" transform="translate(-2.297 -4.24)"/><path class="c" d="M29.823,38.82a.823.823,0,1,0,0,1.647H36.41a.823.823,0,1,0,0-1.647H33.94v-14a.823.823,0,0,0-1.405-.582l-3.293,3.293A.823.823,0,0,0,30.405,28.7l1.888-1.888V38.82Z" transform="translate(-5.124 -4.24)"/><path class="c" d="M33.76,47H14.823a.823.823,0,1,0,0,1.647H33.76a.823.823,0,0,0,0-1.647Z" transform="translate(-2.473 -8.304)"/></g></g></g></g></svg>