<svg xmlns="http://www.w3.org/2000/svg" width="84" height="89.127" viewBox="0 0 84 89.127"><defs><style>.a{fill:#bce0fd;}.b{fill:#1976d2;}.c{fill:#2196f3;}.d{fill:#eceff1;}.e{fill:#00429a;}.f{fill:#003a88;}.g{fill:#385cf8;}</style></defs><g transform="translate(0 4.83)"><path class="a" d="M0,42A42,42,0,1,0,42,0,42,42,0,0,0,0,42Z"/><g transform="translate(17.767 35.96)"><path class="b" d="M349.878,21.332H342.84a1.509,1.509,0,0,0-1.508,1.508v6.8a1.5,1.5,0,0,0,.448,1.072l7.038,6.957a1.507,1.507,0,0,0,2.568-1.072V22.84A1.509,1.509,0,0,0,349.878,21.332Zm0,0" transform="translate(-309.161 -19.321)"/><path class="c" d="M48.257,23.627a2.514,2.514,0,0,1-2.514,2.513H42.225L24.129,8.547,6.032,26.14H2.514a2.516,2.516,0,0,1-1.769-4.3L23.083.423a1.506,1.506,0,0,1,2.091,0L47.493,21.817A2.511,2.511,0,0,1,48.257,23.627Zm0,0" transform="translate(0 0)"/><path class="d" d="M81.994,90.668,63.9,108.261v17.806s3.808,1.666,5.765,2.355a50.676,50.676,0,0,0,6.35,1.367l11.911-.042a42.277,42.277,0,0,0,6.029-1.118c1.783-.617,6.139-2.482,6.139-2.482V108.261Zm0,0" transform="translate(-57.865 -82.121)"/><path class="e" d="M192,341.332h12.064l.015,15.446a20.9,20.9,0,0,1-6.381.686,4.242,4.242,0,0,1-3.969-3Zm0,0" transform="translate(-173.904 -309.16)"/><path class="f" d="M192,341.332h6.032v16.086a21.115,21.115,0,0,1-2.673-.086c-1.508-.141-3.359-.478-3.359-.478Zm0,0" transform="translate(-173.904 -309.16)"/></g><g transform="matrix(-0.017, 1, -1, -0.017, 71.088, -17.957)"><path class="g" d="M23.854,0A11.971,11.971,0,0,0,12.887,16.669L0,29.455l0,7.694h5.5L8.259,34.4V30.27h2.752V27.518h4.128l4.026-4.552A11.956,11.956,0,1,0,23.854,0Z" transform="matrix(0.695, -0.719, 0.719, 0.695, 13.582, 25.961)"/><path class="a" d="M3.44,0A3.44,3.44,0,1,1,0,3.44,3.44,3.44,0,0,1,3.44,0Z" transform="matrix(0.695, -0.719, 0.719, 0.695, 33.828, 14.901)"/></g></g></svg>
