<svg xmlns="http://www.w3.org/2000/svg" width="84" height="84.212" viewBox="0 0 84 84.212"><defs><style>.a{fill:#bce0fd;}.b{fill:#385cf8;}.c,.d{fill:#b9e1ff;}.d{stroke:#ff2467;stroke-width:4px;}.e{fill:#00429a;}</style></defs><g transform="translate(0 0)"><path class="a" d="M0,42A42,42,0,1,0,42,0,42,42,0,0,0,0,42Z"/><g transform="translate(-11.725 -2.449)"><path class="b" d="M27.758,0s8.4-.267,15.642,3.3S56.729,14.269,56.729,14.269l-.147,37.656c0,8.96.725,16.223-6.384,16.223H7.2C.095,68.148.268,60.885.268,51.925L0,14.282S5.423,7.46,12.362,3.89,27.758,0,27.758,0Z" transform="translate(82.551 86.661) rotate(180)"/><path class="c" d="M160,176h27.652v4.089H160Z" transform="translate(-120.321 -128.271)"/><path class="c" d="M160,240h27.652v4.089H160Z" transform="translate(-120.321 -185.092)"/><path class="c" d="M160,240h27.652v4.089H160Z" transform="translate(-120.321 -204.179)"/><path class="c" d="M160,240h27.652v4.089H160Z" transform="translate(-120.321 -212.798)"/><path class="c" d="M160,304h27.652v4.252H160Z" transform="translate(-120.32 -241.947)"/><path class="d" d="M160,304h31.869v7.482H160Z" transform="translate(-122.51 -268.178)"/><rect class="e" width="27.652" height="10.016" rx="1" transform="translate(39.679 70.662)"/></g></g></svg>
