<svg xmlns="http://www.w3.org/2000/svg" width="84" height="84" viewBox="0 0 84 84"><defs><style>.a{fill:#bce0fd;}.b{fill:#1976d2;}.c{fill:#385cf8;}.d{fill:#cceaff;}.e{fill:#003a88;}.f{fill:#dbf0ff;}.g{fill:#eff2fa;}.h{fill:#d0ebff;}.i{fill:#e8f5ff;}.j{fill:#e4eaf6;}.k{fill:#00429a;}.l{fill:#f7faff;}</style></defs><g transform="translate(0 0)"><path class="a" d="M0,42A42,42,0,1,0,42,0,42,42,0,0,0,0,42Z"/><g transform="translate(12.178 11.178)"><rect class="b" width="7.148" height="12.252" transform="translate(57.733 52.682) rotate(135)"/><circle class="c" cx="28.304" cy="28.304" r="28.304" transform="translate(0 0)"/><circle class="d" cx="23.029" cy="23.029" r="23.029" transform="translate(5.276 5.276)"/><g transform="translate(49.409 49.409)"><path class="e" d="M317.976,312.18l-5.8,5.8a3.329,3.329,0,0,0,0,4.708l3.682,4c1.3,1.3,11.956-9.761,10.656-11.061l-3.835-3.442A3.329,3.329,0,0,0,317.976,312.18Z" transform="translate(-311.205 -311.205)"/></g></g><g transform="translate(23.883 20.293)"><path class="f" d="M235.181,143.511V139.02H223.633v4.491l5.774,5.132Z" transform="translate(-212.726 -117.205)"/><path class="g" d="M185.509,169.3l-7.939-1.868a1.273,1.273,0,0,1-.333-.134l-6.43,3.751-6.179-3.932a1.277,1.277,0,0,1-.584.316l-7.939,1.868a2.566,2.566,0,0,0-1.979,2.5l1.556,2.775c0,.362-.46,1.448-.135,1.755.148.149.211,1.342.557,1.342a21.99,21.99,0,0,0,14.7,5.447c9.4.091,14.211-4.728,14.211-4.728l1.7-1.663a4.374,4.374,0,0,0,.619-1.341l.15-3.587A2.566,2.566,0,0,0,185.509,169.3Z" transform="translate(-154.127 -140.889)"/><path class="h" d="M223.633,139.02v4.738c7.274,2.621,11.548-3.938,11.548-3.938v-.8Z" transform="translate(-212.726 -117.205)"/><path class="i" d="M207.28,44.985l.559,12.3a3.85,3.85,0,0,0,1.536,2.9l2.653,1.99a3.849,3.849,0,0,0,2.309.77H216.9a3.85,3.85,0,0,0,2.31-.77l2.653-1.99a3.849,3.849,0,0,0,1.536-2.9l.559-12.3Z" transform="translate(-198.939 -37.926)"/><path class="f" d="M213.7,47.551c2.566,0,6.416-.641,7.329-2.566H207.28l.559,12.3a3.85,3.85,0,0,0,1.536,2.9l2.653,1.99a3.849,3.849,0,0,0,2.309.77h1.283c-1.283,0-3.849-2.566-3.849-5.774v-7.7A2.049,2.049,0,0,1,213.7,47.551Z" transform="translate(-198.939 -37.926)"/><g transform="translate(0 29.314)"><path class="j" d="M331,190.544l4.157-3.734a2.562,2.562,0,0,1,.553,1.59v4.087a12.65,12.65,0,0,1-2.018,2.078,38.317,38.317,0,0,1-3.756,2.66v-4.3A3.208,3.208,0,0,1,331,190.544Z" transform="translate(-302.347 -186.81)"/><path class="j" d="M158.839,190.544l-4.157-3.734a2.562,2.562,0,0,0-.553,1.59v4.232a15.923,15.923,0,0,0,2.406,2.3,24.42,24.42,0,0,0,3.223,2l.145-4A3.207,3.207,0,0,0,158.839,190.544Z" transform="translate(-154.129 -186.81)"/></g><g transform="translate(8.982 24.712)"><path class="j" d="M213.2,157.651l5.864,5.278a22.128,22.128,0,0,0-3.669,2.5.823.823,0,0,1-1.275-.288l-2.755-6.061.872-1.307A.642.642,0,0,1,213.2,157.651Z" transform="translate(-211.368 -157.487)"/><path class="j" d="M266.294,157.651l-5.864,5.278a22.126,22.126,0,0,1,3.669,2.5.823.823,0,0,0,1.275-.288l2.755-6.061-.871-1.307A.642.642,0,0,0,266.294,157.651Z" transform="translate(-252.731 -157.487)"/></g><path class="k" d="M285.216,15.758l.6,4.25c2.745.549,3.141,4.858,3.2,6.088a1.266,1.266,0,0,0,.2.627l1.048,1.625a6.146,6.146,0,0,1,1.283-4.491S292.113,13.191,285.216,15.758Z" transform="translate(-264.646 -12.949)"/><path class="f" d="M307.429,87.521l-.724,2.9a.771.771,0,0,1-.748.584h0a.771.771,0,0,1-.765-.676l-.37-2.964a1.328,1.328,0,0,1,1.318-1.493h0A1.328,1.328,0,0,1,307.429,87.521Z" transform="translate(-281.165 -72.396)"/><path class="e" d="M197.234,1.66l.949.648c-4.29,3.168-3.488,8.6-3.488,8.6,1.283,1.283,1.283,4.491,1.283,4.491l1.283-1.283s-.5-3.707,1.925-5.132c2.245-1.323,4.21-.641,6.215-.641,5.373,0,6.877-2.025,6.616-4.491C211.882,2.576,209.931-.082,204.96,0A21.6,21.6,0,0,0,197.234,1.66Z" transform="translate(-188.279 0)"/><path class="h" d="M199.143,87.521l.725,2.9a.771.771,0,0,0,.748.584h0a.771.771,0,0,0,.765-.676l.37-2.964a1.328,1.328,0,0,0-1.318-1.493h0A1.328,1.328,0,0,0,199.143,87.521Z" transform="translate(-192.045 -72.396)"/><path class="j" d="M285.363,228.967h-3.208a1.283,1.283,0,0,0-1.283,1.283h5.774A1.283,1.283,0,0,0,285.363,228.967Z" transform="translate(-260.984 -193.038)"/><path class="l" d="M286.084,232.661h-4.8c-.709,0-.479-1.654-.479-3.694h5.774C286.582,231.007,286.792,232.661,286.084,232.661Z" transform="translate(-260.92 -191.97)"/></g></g></svg>
