<svg xmlns="http://www.w3.org/2000/svg" width="84" height="84.297" viewBox="0 0 84 84.297"><defs><style>.a{fill:#bce0fd;}.b{fill:#1976d2;}.c{fill:#2196f3;}.d{fill:#eceff1;}.e{fill:#00429a;}.f{fill:#003a88;}</style></defs><g transform="translate(0 0)"><path class="a" d="M0,42A42,42,0,1,0,42,0,42,42,0,0,0,0,42Z"/><g transform="translate(6.463 12.617)"><path class="b" d="M354,21.332H343.568a2.237,2.237,0,0,0-2.236,2.236V33.647A2.227,2.227,0,0,0,342,35.236l10.436,10.317a2.235,2.235,0,0,0,3.808-1.589v-20.4A2.237,2.237,0,0,0,354,21.332Zm0,0" transform="translate(-293.624 -18.35)"/><path class="c" d="M71.562,35.036a3.728,3.728,0,0,1-3.727,3.727H62.617L35.781,12.673,8.945,38.763H3.727A3.732,3.732,0,0,1,1.1,32.382L34.23.627a2.233,2.233,0,0,1,3.1,0l33.1,31.725A3.724,3.724,0,0,1,71.562,35.036Zm0,0" transform="translate(0 0)"/><path class="d" d="M90.767,90.668l-26.836,26.09s-.235,23.158,0,23.667,3.27,2.471,6.356,4.168a26.186,26.186,0,0,0,5.988,2.622,37.108,37.108,0,0,0,5.621,1.468l17.662-.062A59.785,59.785,0,0,0,105.526,147a30.287,30.287,0,0,0,4.609-2.037c5.239-2.881,3.4-1.676,7.382-4.665l.085-23.539Zm0,0" transform="translate(-54.986 -77.995)"/><path class="e" d="M192,341.332h17.89l.023,22.9a30.988,30.988,0,0,1-9.463,1.017,6.291,6.291,0,0,1-5.886-4.455Zm0,0" transform="translate(-165.164 -293.624)"/><path class="f" d="M192,341.332h8.945v23.854a31.318,31.318,0,0,1-3.964-.127c-2.236-.209-4.981-.71-4.981-.71Zm0,0" transform="translate(-165.164 -293.624)"/></g></g></svg>