<svg xmlns="http://www.w3.org/2000/svg" width="84" height="84" viewBox="0 0 84 84"><defs><style>.a{fill:#c4e6ff;}.b{fill:#e8f5ff;}.c{fill:#003a88;}.d{fill:#2196f3;}.e{fill:#fff;}</style></defs><g transform="translate(-377.24 -226.656)"><circle class="a" cx="42" cy="42" r="42" transform="translate(377.24 226.656)"/><g transform="translate(392.138 249.029)"><path class="b" d="M0,154.5v33.224c0,2.488.942,3.756,3.988,5.245,0,0,8.6,7.064,23.49,6.8s22.579-6.817,22.838-6.977c2.328-1.441,3.725-2.679,3.725-5.065V154.5Z" transform="translate(0 -138.2)"/><g transform="translate(12.885 25.008)"><path class="c" d="M122.08,241.253h7.952v19.64h-4.213v-15.9H122.08Z" transform="translate(-122.08 -240.804)"/><path class="c" d="M244.142,257.312a7.062,7.062,0,0,1-6.1-2.767,14.509,14.509,0,0,1,0-14.78,8.1,8.1,0,0,1,12.2,0,14.509,14.509,0,0,1,0,14.78,7.063,7.063,0,0,1-6.1,2.767m-2.893-14.893a12.619,12.619,0,0,0,0,9.5,3.228,3.228,0,0,0,5.789,0,12.647,12.647,0,0,0,0-9.5,3.227,3.227,0,0,0-5.789,0" transform="translate(-223.995 -236.997)"/></g><path class="d" d="M49.537,30.416H4.5a4.5,4.5,0,0,0-4.5,4.5v8.6H54.041v-8.6a4.5,4.5,0,0,0-4.5-4.5" transform="translate(0 -27.212)"/><g transform="translate(7.158 6.568)"><path class="e" d="M390.231,65.474a3.185,3.185,0,1,1-3.186-3.186,3.185,3.185,0,0,1,3.186,3.186" transform="translate(-350.503 -62.288)"/><path class="e" d="M74.189,65.474A3.185,3.185,0,1,1,71,62.288a3.187,3.187,0,0,1,3.186,3.186" transform="translate(-67.819 -62.288)"/></g><g transform="translate(8.222 0)"><path class="c" d="M396.095.059a2.12,2.12,0,0,0-2.12,2.12l-.033,6.872a2.121,2.121,0,0,0,4.242,0l.033-6.872a2.12,2.12,0,0,0-2.122-2.12" transform="translate(-360.584 -0.059)"/><path class="c" d="M80.052.059h0a2.12,2.12,0,0,0-2.12,2.12L77.9,9.05a2.12,2.12,0,0,0,4.24,0l.033-6.872A2.118,2.118,0,0,0,80.052.059" transform="translate(-77.899 -0.059)"/></g></g></g></svg>