<svg xmlns="http://www.w3.org/2000/svg" width="84" height="88.379" viewBox="0 0 84 88.379"><defs><style>.a{fill:#bce0fd;}.b{fill:#385cf8;}.c{fill:#0980f7;}.d{fill:#161643;}.e{fill:#3a3a8b;}.f{fill:#5468d1;}.g{fill:#1080f7;}.h{fill:#4254b6;}</style></defs><g transform="translate(0 4.379)"><path class="a" d="M0,42A42,42,0,1,0,42,0,42,42,0,0,0,0,42Z"/><g transform="translate(10.685 -4.379)"><path class="b" d="M32.646,0H2.043A2.042,2.042,0,0,0,0,2.043V51.014H34.689V2.043A2.042,2.042,0,0,0,32.646,0Z" transform="translate(0 0)"/><path class="c" d="M16.323,0H0S0,.914,0,51.014H17.344V2.043C17.344.914,16.887,0,16.323,0Z" transform="translate(17.345 0)"/><path class="d" d="M20.142,5.041H14.02A1.02,1.02,0,0,1,14.02,3h6.122a1.02,1.02,0,0,1,0,2.041Z" transform="translate(0.264 0.061)"/><path class="d" d="M.427,61.007A2.572,2.572,0,0,1,0,59.535V46H34.689V59.474a3.138,3.138,0,0,1-.578,1.533,2.308,2.308,0,0,1-1.354.605s-8.754.067-15.341,0C11.288,61.55,1.778,61.6,1.778,61.6A2.291,2.291,0,0,1,.427,61.007Z" transform="translate(0 0.932)"/><ellipse class="e" cx="3.337" cy="3.337" rx="3.337" ry="3.337" transform="translate(15.016 50.824)"/></g><g transform="translate(72.805 32.997) rotate(90)"><path class="f" d="M32.647,0H2.043A2.042,2.042,0,0,0,0,2.043V51.013H34.689V2.043A2.042,2.042,0,0,0,32.647,0Z" transform="translate(0 0)"/><path class="g" d="M32.647,0H2.043A1.98,1.98,0,0,0,0,1.911v45.81H34.689V1.911A1.98,1.98,0,0,0,32.647,0Z" transform="translate(0 0)"/><path class="d" d="M7.142,2.041H1.02A1.02,1.02,0,1,1,1.02,0H7.142a1.02,1.02,0,1,1,0,2.041Z" transform="translate(13.264 3.061)"/><path class="d" d="M.427,15.007A2.572,2.572,0,0,1,0,13.535V0H34.689V13.474a3.138,3.138,0,0,1-.578,1.533,2.308,2.308,0,0,1-1.354.605s-8.754.067-15.341,0C11.288,15.55,1.779,15.6,1.779,15.6A2.291,2.291,0,0,1,.427,15.007Z" transform="translate(0 46.932)"/><ellipse class="e" cx="3.337" cy="3.337" rx="3.337" ry="3.337" transform="translate(15.016 50.823)"/></g><g transform="matrix(0.174, -0.985, 0.985, 0.174, 45.341, 30.727)"><g transform="translate(3.592 -0.398)"><g transform="translate(1.617 0)"><path class="h" d="M1.673,20.01c10.736,0,19.146-4.906,19.146-11.169C20.819,5.319,18.151,2.1,13.5,0L12.187,2.912c3.408,1.534,5.442,3.749,5.442,5.929,0,4.324-7.306,7.978-15.955,7.978-.5,0-1.015-.012-1.518-.037L0,19.969C.554,20,1.115,20.01,1.673,20.01Z" transform="translate(0 0)"/></g><path class="h" d="M.468,8.419,5.254,3.632,7.51,5.889,5.5,7.9C13.15,7.338,19.246,3.95,19.246,0h3.191c0,5.877-7.4,10.557-17.184,11.113l2,2.129L4.924,15.425.432,10.639A1.6,1.6,0,0,1,.468,8.419Z" transform="translate(0 8.841)"/></g></g></g></svg>
