<svg xmlns="http://www.w3.org/2000/svg" width="84" height="88.731" viewBox="0 0 84 88.731"><defs><style>.a{fill:#bce0fd;}.b{fill:#2a7ffd;}.c{fill:#0063f6;}.d{fill:#5d9dfd;}.e{fill:#0054d1;}.f{fill:#cdcfcf;}.g{fill:#b1deff;}.h{fill:#dbf0ff;}.i{fill:#eff2fa;}.j{fill:#d0ebff;}.k{fill:#e8f5ff;}.l{fill:#e4eaf6;}.m{fill:#00429a;}.n{fill:#003a88;}.o{fill:#f7faff;}.p{fill:#c6e6fd;}.q{fill:#99cff7;}</style></defs><g transform="translate(0 4.726)"><path class="a" d="M0,42A42,42,0,1,0,42,0,42,42,0,0,0,0,42Z"/><g transform="translate(13.963 -9.895)"><path class="b" d="M116.5,153.127a43.821,43.821,0,0,1-10.057,4.387A59.73,59.73,0,0,1,94.527,159.3a49.839,49.839,0,0,1-11.96-1.457,37.889,37.889,0,0,1-10.438-5L67.121,98.462h54.6Z" transform="translate(-66.51 -65.4)"/><path class="c" d="M67.121,98.462l.7,7.493c4.356,5.17,14.638,8.771,26.6,8.771s22.247-3.6,26.6-8.771l.7-7.493Zm27.3,24.047a1.872,1.872,0,0,0-1.859,1.859v24.8a1.859,1.859,0,0,0,3.717,0V124.31A1.861,1.861,0,0,0,94.421,122.509Zm9.178-.929a1.872,1.872,0,0,0-1.859,1.859l-.929,24.744a1.859,1.859,0,0,0,3.717,0l.871-24.744A1.823,1.823,0,0,0,103.6,121.58Zm8.248-1.859a1.872,1.872,0,0,0-1.859,1.859l-1.859,24.338a1.859,1.859,0,1,0,3.717,0l1.859-24.338A1.911,1.911,0,0,0,111.847,119.721Zm-26.6,1.859a1.872,1.872,0,0,0-1.859,1.859l.929,24.8a1.872,1.872,0,0,0,1.859,1.859,1.835,1.835,0,0,0,1.859-1.859l-.929-24.8A1.872,1.872,0,0,0,85.244,121.58ZM77,119.721a1.872,1.872,0,0,0-1.859,1.859L77,145.918a1.872,1.872,0,0,0,1.859,1.859,1.835,1.835,0,0,0,1.859-1.859L78.854,121.58A1.953,1.953,0,0,0,77,119.721Z" transform="translate(-66.51 -65.4)"/><path class="d" d="M116.909,64.268a6.016,6.016,0,0,1,1.8,5c0,7.725-12.488,14-27.881,14s-27.823-6.273-27.823-14a6.329,6.329,0,0,1,1.743-5C66.375,62.467,115.341,62.467,116.909,64.268Z" transform="translate(-62.975 -35.098)"/><path class="c" d="M94.421,0c15.1,0,27.3,5.983,27.3,13.36s-12.2,13.36-27.3,13.36-27.3-5.983-27.3-13.36S79.319,0,94.421,0Z" transform="translate(-66.51 18.54)"/><path class="e" d="M94.421,4.647c12.256,0,22.77,3.659,27.3,8.829V13.36c0-7.377-12.2-13.36-27.3-13.36s-27.3,5.983-27.3,13.36v.116C71.652,8.306,82.165,4.647,94.421,4.647Z" transform="translate(-66.51 18.54)"/><path class="f" d="M130.446,137.058l-2.672,3.02a47.454,47.454,0,0,0,18.355,3.427,46.4,46.4,0,0,0,18.355-3.427l-2.672-3.02a44.975,44.975,0,0,1-15.683,2.73A44.488,44.488,0,0,1,130.446,137.058Z" transform="translate(-118.217 -98.304)"/><path class="g" d="M182.457,147.254a45.08,45.08,0,0,1-9.468.987,44.074,44.074,0,0,1-10.978-1.336l-2.73,3.137.058.058a52.322,52.322,0,0,0,13.708,1.743,52.858,52.858,0,0,0,11.269-1.162l.7-.7Z" transform="translate(-145.077 -106.699)"/><g transform="matrix(0.995, 0.105, -0.105, 0.995, 16.911, -19.411)"><g transform="translate(15.71 25.481)"><path class="h" d="M232.644,142.524v-3.5h-9.011v3.5l4.506,4.005Z" transform="translate(-215.122 -121.997)"/><path class="i" d="M178.616,168.816l-6.195-1.458a.993.993,0,0,1-.26-.1l-5.018,2.927-4.822-3.068a1,1,0,0,1-.456.246l-6.195,1.458a2,2,0,0,0-1.544,1.949v3.921c0,.283.856-.626,1.109-.386.115.117-.378,1.387-.108,1.387a20.567,20.567,0,0,0,12.015,3.911c2.152.021,6.6-.518,6.6-.518l1.623-.874,2.637-2.022a18.323,18.323,0,0,0,2.155-2.351v-3.068A2,2,0,0,0,178.616,168.816Z" transform="translate(-154.127 -146.649)"/><path class="j" d="M223.633,139.02v3.7c5.676,2.045,9.011-3.073,9.011-3.073v-.624Z" transform="translate(-215.122 -121.997)"/><path class="k" d="M207.28,44.985l.436,9.6a3,3,0,0,0,1.2,2.267l2.07,1.553a3,3,0,0,0,1.8.6h2a3,3,0,0,0,1.8-.6l2.07-1.553a3,3,0,0,0,1.2-2.267l.436-9.6Z" transform="translate(-200.771 -39.477)"/><path class="h" d="M212.286,46.988c2,0,5.006-.5,5.719-2H207.28l.436,9.6a3,3,0,0,0,1.2,2.267l2.07,1.553a3,3,0,0,0,1.8.6h1c-1,0-3-2-3-4.506V48.489A1.6,1.6,0,0,1,212.286,46.988Z" transform="translate(-200.771 -39.477)"/><g transform="translate(0 22.875)"><path class="l" d="M330.764,189.724l3.244-2.914a2,2,0,0,1,.431,1.241l.021,3.059a24.07,24.07,0,0,1-4.5,4.143l-.031-3.668A2.5,2.5,0,0,1,330.764,189.724Z" transform="translate(-308.407 -186.81)"/><path class="l" d="M157.8,189.724l-3.244-2.914a2,2,0,0,0-.431,1.241v4.07a6.563,6.563,0,0,0,1,.852s.865.648,1.715,1.144a15.515,15.515,0,0,0,1.684.84l.1-3.371A2.5,2.5,0,0,0,157.8,189.724Z" transform="translate(-154.129 -186.81)"/></g><g transform="translate(7.009 19.284)"><path class="l" d="M212.8,157.615l4.576,4.118a17.264,17.264,0,0,0-2.863,1.951.642.642,0,0,1-.995-.225l-2.15-4.73.68-1.02A.5.5,0,0,1,212.8,157.615Z" transform="translate(-211.368 -157.487)"/><path class="l" d="M265.006,157.615l-4.576,4.118a17.266,17.266,0,0,1,2.863,1.951.642.642,0,0,0,.995-.225l2.15-4.73-.68-1.02A.5.5,0,0,0,265.006,157.615Z" transform="translate(-254.422 -157.487)"/></g><path class="m" d="M285.216,15.67l.469,3.317c2.142.428,2.451,3.791,2.5,4.751a.988.988,0,0,0,.158.489l.817,1.268a4.8,4.8,0,0,1,1-3.5S290.6,13.668,285.216,15.67Z" transform="translate(-269.164 -13.478)"/><path class="h" d="M306.853,87.159l-.565,2.262a.6.6,0,0,1-.584.456h0a.6.6,0,0,1-.6-.527l-.289-2.313a1.036,1.036,0,0,1,1.028-1.165h0A1.036,1.036,0,0,1,306.853,87.159Z" transform="translate(-286.358 -75.356)"/><path class="n" d="M196.664,1.3l.741.506c-3.348,2.472-2.722,6.712-2.722,6.712,1,1,1,3.5,1,3.5l1-1s-.386-2.892,1.5-4c1.752-1.032,3.285-.5,4.85-.5,4.193,0,5.366-1.58,5.163-3.5-.105-1-1.628-3.07-5.507-3A16.856,16.856,0,0,0,196.664,1.3Z" transform="translate(-189.675 0)"/><path class="j" d="M199.134,87.159l.565,2.262a.6.6,0,0,0,.584.456h0a.6.6,0,0,0,.6-.527l.289-2.313a1.036,1.036,0,0,0-1.028-1.165h0A1.036,1.036,0,0,0,199.134,87.159Z" transform="translate(-193.595 -75.356)"/><path class="l" d="M284.376,228.967h-2.5a1,1,0,0,0-1,1h4.506A1,1,0,0,0,284.376,228.967Z" transform="translate(-265.352 -200.93)"/><path class="o" d="M284.917,231.849h-3.743c-.553,0-.374-1.29-.374-2.882h4.506C285.306,230.559,285.47,231.849,284.917,231.849Z" transform="translate(-265.28 -200.097)"/></g><g transform="translate(-5.322 33.979)"><path class="h" d="M230.868,141.834V139.02h-7.235v2.814l3.618,3.216Z" transform="translate(-216.665 -125.353)"/><path class="i" d="M173.789,168.48l-4.974-1.17a.8.8,0,0,1-.209-.084l-4.029,2.35-3.871-2.464a.8.8,0,0,1-.366.2l-4.974,1.17a1.608,1.608,0,0,0-1.24,1.565v3.148c0,.227.687-.5.89-.31.092.094-.3,1.114-.087,1.114a9.521,9.521,0,0,0,1.72,2.876c.462.52.232.568,1.21.97.645.282,2.459.748,2.459.748a7.8,7.8,0,0,1,4.259-1.454,15.649,15.649,0,0,0,9.647-3.14c.2,0-.2-.6,0-.8s.8.242.8,0v-3.148A1.608,1.608,0,0,0,173.789,168.48Z" transform="translate(-153.992 -150.683)"/><path class="j" d="M223.633,139.02v2.969c4.557,1.642,7.235-2.467,7.235-2.467v-.5Z" transform="translate(-216.665 -125.353)"/><path class="k" d="M207.28,44.985l.35,7.706a2.412,2.412,0,0,0,.962,1.82l1.662,1.247a2.412,2.412,0,0,0,1.447.482h1.608a2.412,2.412,0,0,0,1.447-.482l1.662-1.247a2.412,2.412,0,0,0,.962-1.82l.35-7.706Z" transform="translate(-201.92 -40.562)"/><path class="h" d="M211.3,46.593c1.608,0,4.02-.4,4.592-1.608H207.28l.35,7.706a2.412,2.412,0,0,0,.962,1.82l1.662,1.247a2.411,2.411,0,0,0,1.447.482h.8c-.8,0-2.412-1.608-2.412-3.618V47.8A1.284,1.284,0,0,1,211.3,46.593Z" transform="translate(-201.92 -40.562)"/><g transform="translate(0 18.366)"><path class="l" d="M330.6,189.15l2.6-2.34a1.6,1.6,0,0,1,.346,1v3.148a4.386,4.386,0,0,1-.8.8l-1.158.809-1.655.874v-2.8A2.01,2.01,0,0,1,330.6,189.15Z" transform="translate(-312.515 -186.81)"/><path class="l" d="M157.1,189.15l-2.6-2.34a1.6,1.6,0,0,0-.346,1l-.135,5.974s1,.567,1.942,1.02a12.767,12.767,0,0,0,1.812.7v-4.857A2.01,2.01,0,0,0,157.1,189.15Z" transform="translate(-154.016 -186.81)"/></g><g transform="translate(5.762 15.483)"><path class="l" d="M212.517,157.59l3.674,3.307a13.863,13.863,0,0,0-2.3,1.566.516.516,0,0,1-.8-.181l-1.726-3.8.546-.819A.4.4,0,0,1,212.517,157.59Z" transform="translate(-211.368 -157.487)"/><path class="l" d="M264.1,157.59,260.43,160.9a13.861,13.861,0,0,1,2.3,1.566.516.516,0,0,0,.8-.181l1.726-3.8-.546-.819A.4.4,0,0,0,264.1,157.59Z" transform="translate(-255.607 -157.487)"/></g><path class="m" d="M285.216,15.609l.377,2.663c1.72.344,1.968,3.043,2,3.815a.793.793,0,0,0,.127.393l.656,1.018a3.851,3.851,0,0,1,.8-2.814S289.537,14,285.216,15.609Z" transform="translate(-272.193 -13.849)"/><path class="h" d="M306.45,86.9,306,88.721a.483.483,0,0,1-.469.366h0a.483.483,0,0,1-.48-.423l-.232-1.857a.832.832,0,0,1,.826-.935h0A.832.832,0,0,1,306.45,86.9Z" transform="translate(-289.861 -77.429)"/><path class="n" d="M196.264,1.04l.595.406a6.01,6.01,0,0,0-2.186,5.389c.8.8.8,2.814.8,2.814l.8-.8s-.31-2.322,1.206-3.216c1.407-.829,2.638-.4,3.894-.4,3.366,0,4.308-1.269,4.145-2.814-.084-.8-1.307-2.465-4.421-2.412A13.534,13.534,0,0,0,196.264,1.04Z" transform="translate(-190.518 0)"/><path class="j" d="M199.127,86.9l.454,1.816a.483.483,0,0,0,.469.366h0a.483.483,0,0,0,.48-.423l.232-1.857a.832.832,0,0,0-.826-.935h0A.832.832,0,0,0,199.127,86.9Z" transform="translate(-194.546 -77.429)"/><path class="l" d="M283.686,228.967h-2.01a.8.8,0,0,0-.8.8h3.618A.8.8,0,0,0,283.686,228.967Z" transform="translate(-268.276 -206.457)"/><path class="o" d="M284.1,231.281H281.1c-.444,0-.3-1.036-.3-2.314h3.618C284.412,230.245,284.544,231.281,284.1,231.281Z" transform="translate(-268.199 -205.787)"/></g><g transform="translate(3.16 23.78)"><path class="h" d="M234.049,143.07v-4.05H223.633v4.05l5.208,4.629Z" transform="translate(-213.796 -119.344)"/><path class="i" d="M182.432,169.081l-7.16-1.685a1.147,1.147,0,0,1-.3-.121l-5.8,3.383-5.573-3.547a1.152,1.152,0,0,1-.527.285l-7.16,1.685a2.315,2.315,0,0,0-1.785,2.253v4.532c0,.327.989-.723,1.282-.446.133.135-.437,1.6-.125,1.6a23.772,23.772,0,0,0,13.887,4.52,22.528,22.528,0,0,0,13.887-4.52c.29,0-.289-.868,0-1.157s1.157.349,1.157,0v-4.532A2.314,2.314,0,0,0,182.432,169.081Z" transform="translate(-154.127 -143.461)"/><path class="j" d="M223.633,139.02v4.274c6.56,2.364,10.416-3.552,10.416-3.552v-.722Z" transform="translate(-213.796 -119.344)"/><path class="k" d="M207.28,44.985l.5,11.093a3.472,3.472,0,0,0,1.385,2.62l2.393,1.794a3.472,3.472,0,0,0,2.083.694h2.315a3.472,3.472,0,0,0,2.083-.694l2.393-1.794a3.472,3.472,0,0,0,1.385-2.62l.5-11.093Z" transform="translate(-199.757 -38.618)"/><path class="h" d="M213.066,47.3c2.315,0,5.786-.579,6.61-2.315h-12.4l.5,11.093a3.472,3.472,0,0,0,1.385,2.62l2.393,1.794a3.472,3.472,0,0,0,2.083.694H214.8c-1.157,0-3.472-2.315-3.472-5.208V49.035A1.848,1.848,0,0,1,213.066,47.3Z" transform="translate(-199.757 -38.618)"/><g transform="translate(0 26.439)"><path class="l" d="M330.894,190.178l3.75-3.368a2.311,2.311,0,0,1,.5,1.434v4.532a6.312,6.312,0,0,1-1.157,1.157l-1.667,1.165-2.383,1.259v-4.027A2.894,2.894,0,0,1,330.894,190.178Z" transform="translate(-305.052 -186.81)"/><path class="l" d="M158.377,190.178l-3.75-3.368a2.31,2.31,0,0,0-.5,1.434v4.7a7.584,7.584,0,0,0,1.157.985s1,.749,1.983,1.322a17.924,17.924,0,0,0,1.947.971l.121-3.9A2.893,2.893,0,0,0,158.377,190.178Z" transform="translate(-154.129 -186.81)"/></g><g transform="translate(8.101 22.289)"><path class="l" d="M213.023,157.635l5.289,4.76A19.959,19.959,0,0,0,215,164.65a.742.742,0,0,1-1.15-.26l-2.485-5.467.786-1.179A.579.579,0,0,1,213.023,157.635Z" transform="translate(-211.368 -157.487)"/><path class="l" d="M265.719,157.635l-5.289,4.76a19.959,19.959,0,0,1,3.309,2.255.742.742,0,0,0,1.15-.26l2.485-5.467-.786-1.179A.579.579,0,0,0,265.719,157.635Z" transform="translate(-253.486 -157.487)"/></g><path class="m" d="M285.216,15.719l.542,3.834c2.476.5,2.833,4.381,2.885,5.491a1.142,1.142,0,0,0,.183.565l.945,1.466a5.543,5.543,0,0,1,1.157-4.05S291.436,13.4,285.216,15.719Z" transform="translate(-266.663 -13.185)"/><path class="h" d="M307.172,87.359l-.653,2.614a.7.7,0,0,1-.675.527h0a.7.7,0,0,1-.69-.609l-.334-2.673a1.2,1.2,0,0,1,1.189-1.346h0A1.2,1.2,0,0,1,307.172,87.359Z" transform="translate(-283.483 -73.718)"/><path class="n" d="M196.98,1.5l.856.585c-3.87,2.857-3.146,7.757-3.146,7.757,1.157,1.157,1.157,4.05,1.157,4.05L197,12.732s-.447-3.343,1.736-4.629c2.025-1.193,3.8-.579,5.606-.579,4.846,0,6.2-1.826,5.967-4.05-.122-1.151-1.881-3.548-6.365-3.472A19.483,19.483,0,0,0,196.98,1.5Z" transform="translate(-188.902 0)"/><path class="j" d="M199.139,87.359l.653,2.614a.7.7,0,0,0,.675.527h0a.7.7,0,0,0,.69-.609l.334-2.673a1.2,1.2,0,0,0-1.189-1.346h0A1.2,1.2,0,0,0,199.139,87.359Z" transform="translate(-192.737 -73.718)"/><path class="l" d="M284.923,228.967h-2.893a1.157,1.157,0,0,0-1.157,1.157h5.208A1.158,1.158,0,0,0,284.923,228.967Z" transform="translate(-262.934 -196.561)"/><path class="o" d="M285.563,232.3h-4.326c-.639,0-.432-1.491-.432-3.331h5.208C286.012,230.807,286.2,232.3,285.563,232.3Z" transform="translate(-262.866 -195.598)"/></g></g><path class="g" d="M245.178,106.294a46.148,46.148,0,0,0,18.355-3.485l-8.248-9.468-11.327,12.953Z" transform="translate(-217.266 -61.034)"/><path class="p" d="M158.887,83.225l.174.174a51.743,51.743,0,0,0,13.592,1.743,52.151,52.151,0,0,0,11.152-1.162l.755-.755-12.837-14.7Z" transform="translate(-144.742 -39.882)"/><path class="q" d="M244.352,143.448h1.1a46.61,46.61,0,0,0,18.355-3.427l-2.614-2.962a43.423,43.423,0,0,1-13.592,2.73l-1.23,1.384Z" transform="translate(-217.602 -98.305)"/><path class="g" d="M182.457,147.254a45.08,45.08,0,0,1-9.468.987,44.074,44.074,0,0,1-10.978-1.336l-2.73,3.137.058.058a52.322,52.322,0,0,0,13.708,1.743,52.858,52.858,0,0,0,11.269-1.162l.7-.7Z" transform="translate(-145.078 -106.699)"/><path class="g" d="M146.129,106.294h1.22L136.022,93.341l-8.248,9.468A45.155,45.155,0,0,0,146.129,106.294Z" transform="translate(-118.217 -61.034)"/><path class="q" d="M147.233,143.113,143.98,139.4a43.418,43.418,0,0,1-13.592-2.73l-2.614,3.079a47.454,47.454,0,0,0,18.355,3.427A7.029,7.029,0,0,1,147.233,143.113Z" transform="translate(-118.217 -97.969)"/></g></g></svg>