<svg xmlns="http://www.w3.org/2000/svg" width="84" height="101.472" viewBox="0 0 84 101.472"><defs><style>.a{fill:#bce0fd;}.b{fill:#2a7ffd;}.c{fill:#0063f6;}.d{fill:#5d9dfd;}.e{fill:#0054d1;}.f{fill:#003a88;}.g{fill:#002d6e;}.h{fill:#4175df;}.i{fill:#4254b6;}.j{fill:#fff5f5;}.k{fill:#e3e7ea;}.l{fill:#cdcfcf;}.m{fill:#b1deff;}.n{fill:#c6e6fd;}.o{fill:#99cff7;}</style></defs><g transform="translate(0 17.468)"><path class="a" d="M0,42A42,42,0,1,0,42,0,42,42,0,0,0,0,42Z"/><g transform="translate(13.963 -9.895)"><path class="b" d="M116.5,153.127a43.821,43.821,0,0,1-10.057,4.387A59.73,59.73,0,0,1,94.527,159.3a49.839,49.839,0,0,1-11.96-1.457,37.889,37.889,0,0,1-10.438-5L67.121,98.462h54.6Z" transform="translate(-66.51 -65.4)"/><path class="c" d="M67.121,98.462l.7,7.493c4.356,5.17,14.638,8.771,26.6,8.771s22.247-3.6,26.6-8.771l.7-7.493Zm27.3,24.047a1.872,1.872,0,0,0-1.859,1.859v24.8a1.859,1.859,0,0,0,3.717,0V124.31A1.861,1.861,0,0,0,94.421,122.509Zm9.178-.929a1.872,1.872,0,0,0-1.859,1.859l-.929,24.744a1.859,1.859,0,0,0,3.717,0l.871-24.744A1.823,1.823,0,0,0,103.6,121.58Zm8.248-1.859a1.872,1.872,0,0,0-1.859,1.859l-1.859,24.338a1.859,1.859,0,1,0,3.717,0l1.859-24.338A1.911,1.911,0,0,0,111.847,119.721Zm-26.6,1.859a1.872,1.872,0,0,0-1.859,1.859l.929,24.8a1.872,1.872,0,0,0,1.859,1.859,1.835,1.835,0,0,0,1.859-1.859l-.929-24.8A1.872,1.872,0,0,0,85.244,121.58ZM77,119.721a1.872,1.872,0,0,0-1.859,1.859L77,145.918a1.872,1.872,0,0,0,1.859,1.859,1.835,1.835,0,0,0,1.859-1.859L78.854,121.58A1.953,1.953,0,0,0,77,119.721Z" transform="translate(-66.51 -65.4)"/><path class="d" d="M116.909,64.268a6.016,6.016,0,0,1,1.8,5c0,7.725-12.488,14-27.881,14s-27.823-6.273-27.823-14a6.329,6.329,0,0,1,1.743-5C66.375,62.467,115.341,62.467,116.909,64.268Z" transform="translate(-62.975 -35.098)"/><path class="c" d="M94.421,0c15.1,0,27.3,5.983,27.3,13.36s-12.2,13.36-27.3,13.36-27.3-5.983-27.3-13.36S79.319,0,94.421,0Z" transform="translate(-66.51 18.54)"/><path class="e" d="M94.421,4.647c12.256,0,22.77,3.659,27.3,8.829V13.36c0-7.377-12.2-13.36-27.3-13.36s-27.3,5.983-27.3,13.36v.116C71.652,8.306,82.165,4.647,94.421,4.647Z" transform="translate(-66.51 18.54)"/><g transform="translate(-30.803 -17.921) rotate(13)"><g transform="translate(46 0)"><g transform="translate(0)"><path class="f" d="M90.969,6.655,69.555.066a1.89,1.89,0,0,0-.989,0L47.153,6.655A1.661,1.661,0,0,0,46,8.236V24.928a39.233,39.233,0,0,0,3.864,16.736c3.188,7.393,7.356,7.606,7.513,7.651s11.48-1.641,11.645-1.641-.165.033,0,0c.23-.066,23.1,1.271,23.1-22.745V8.236A1.661,1.661,0,0,0,90.969,6.655Z" transform="translate(-46 0)"/></g></g><g transform="translate(69.061 0)"><g transform="translate(0)"><path class="g" d="M279.061,8.236V24.928c0,13.4-6.138,17.172-12.835,19.816-4.791,1.894-10.437,3.883-10.538,3.912-.165.033.165,0,0,0L256,0a1.284,1.284,0,0,1,.494.066l21.414,6.589A1.661,1.661,0,0,1,279.061,8.236Z" transform="translate(-256)"/></g></g><g transform="translate(52.589 10.103)"><path class="h" d="M131.676,120.976a1.649,1.649,0,0,1-.968-1.5V117.5c0-1.374-4.427-2.439-8.236-2.439s-8.236,1.065-8.236,2.439v1.975a1.648,1.648,0,0,1-2.736,1.237,16.3,16.3,0,0,1-5.5-12.24,16.472,16.472,0,0,1,32.944,0,16.3,16.3,0,0,1-5.5,12.24A1.651,1.651,0,0,1,131.676,120.976Z" transform="translate(-106 -92)"/></g><path class="i" d="M264.236,117.5v1.975a1.648,1.648,0,0,0,2.736,1.237,16.3,16.3,0,0,0,5.5-12.24A16.491,16.491,0,0,0,256,92v23.061C259.809,115.061,264.236,116.126,264.236,117.5Z" transform="translate(-186.939 -81.897)"/><g transform="translate(62.472 16.692)"><path class="j" d="M202.589,165.178a6.589,6.589,0,1,1,6.589-6.589A6.6,6.6,0,0,1,202.589,165.178Z" transform="translate(-196 -152)"/></g><g transform="translate(57.53 29.869)"><path class="j" d="M162.53,285.178a16.269,16.269,0,0,1-10.993-4.218,1.647,1.647,0,0,1-.537-1.218v-2.009c0-5.572,10.35-5.733,11.53-5.733s11.53.161,11.53,5.733v2.009a1.647,1.647,0,0,1-.537,1.218A16.269,16.269,0,0,1,162.53,285.178Zm9.883-5.435h0Z" transform="translate(-151 -272)"/></g><g transform="translate(69.061 16.692)"><path class="k" d="M266.993,280.96a1.647,1.647,0,0,0,.537-1.218v-2.009c0-5.572-10.35-5.733-11.53-5.733v13.178A16.269,16.269,0,0,0,266.993,280.96Z" transform="translate(-256 -258.822)"/><path class="k" d="M262.589,158.589A6.6,6.6,0,0,0,256,152v13.178A6.6,6.6,0,0,0,262.589,158.589Z" transform="translate(-256 -152)"/></g></g><path class="l" d="M130.446,137.058l-2.672,3.02a47.454,47.454,0,0,0,18.355,3.427,46.4,46.4,0,0,0,18.355-3.427l-2.672-3.02a44.975,44.975,0,0,1-15.683,2.73A44.488,44.488,0,0,1,130.446,137.058Z" transform="translate(-118.217 -98.304)"/><path class="m" d="M182.457,147.254a45.08,45.08,0,0,1-9.468.987,44.074,44.074,0,0,1-10.978-1.336l-2.73,3.137.058.058a52.322,52.322,0,0,0,13.708,1.743,52.858,52.858,0,0,0,11.269-1.162l.7-.7Z" transform="translate(-145.077 -106.699)"/><path class="m" d="M245.178,106.294a46.148,46.148,0,0,0,18.355-3.485l-8.248-9.468-11.327,12.953Z" transform="translate(-217.266 -61.035)"/><path class="n" d="M158.887,83.225l.174.174a51.743,51.743,0,0,0,13.592,1.743,52.151,52.151,0,0,0,11.152-1.162l.755-.755-12.837-14.7Z" transform="translate(-144.741 -39.882)"/><path class="o" d="M244.352,143.448h1.1a46.61,46.61,0,0,0,18.355-3.427l-2.614-2.962a43.423,43.423,0,0,1-13.592,2.73Z" transform="translate(-217.602 -98.305)"/><path class="m" d="M182.457,147.254a45.08,45.08,0,0,1-9.468.987,44.074,44.074,0,0,1-10.978-1.336l-2.73,3.137.058.058a52.322,52.322,0,0,0,13.708,1.743,52.858,52.858,0,0,0,11.269-1.162l.7-.7Z" transform="translate(-145.078 -106.699)"/><path class="m" d="M146.129,106.294h1.22L136.022,93.341l-8.248,9.468A45.155,45.155,0,0,0,146.129,106.294Z" transform="translate(-118.217 -61.035)"/><path class="o" d="M147.233,143.113,143.98,139.4a43.418,43.418,0,0,1-13.592-2.73l-2.614,3.079a47.454,47.454,0,0,0,18.355,3.427A7.029,7.029,0,0,1,147.233,143.113Z" transform="translate(-118.217 -97.969)"/></g></g></svg>