<svg xmlns="http://www.w3.org/2000/svg" width="19" height="21" viewBox="0 0 19 21"><defs><style>.a{fill:#9696b9;}</style></defs><path class="a" d="M138.166,450.614a3.273,3.273,0,0,0,3.2-2.614h-6.4A3.273,3.273,0,0,0,138.166,450.614Zm0,0" transform="translate(-129.526 -429.614)"/><path class="a" d="M14.678,51.381h-.01A6.095,6.095,0,0,1,9.2,42.7c-.19-.018-.382-.03-.577-.03a6.07,6.07,0,0,0-6.04,6.1V51.2A5.866,5.866,0,0,1,.527,55.669a1.534,1.534,0,0,0-.475,1.565A1.584,1.584,0,0,0,1.6,58.352H15.647a1.584,1.584,0,0,0,1.577-1.209,1.536,1.536,0,0,0-.515-1.492A5.82,5.82,0,0,1,14.678,51.381Zm0,0" transform="translate(0.002 -40.925)"/><path class="a" d="M264.725,4.357A4.357,4.357,0,1,1,260.368,0,4.357,4.357,0,0,1,264.725,4.357Zm0,0" transform="translate(-245.725)"/></svg>