<svg xmlns="http://www.w3.org/2000/svg" width="96.963" height="87.963" viewBox="0 0 96.963 87.963"><defs><style>.a{fill:#bce0fd;}.b{opacity:0.344;}.c{fill:#1976d2;}.d{fill:#2196f3;}.e{fill:#eceff1;}.f{fill:#00429a;}.g{fill:#003a88;}.h{fill:#ff2467;}.i{fill:#fa004d;}</style></defs><g transform="translate(0 0)"><path class="a" d="M0,42A42,42,0,1,0,42,0,42,42,0,0,0,0,42Z"/><g class="b" transform="translate(6.463 12.617)"><path class="c" d="M354,21.332H343.568a2.237,2.237,0,0,0-2.236,2.236V33.647A2.227,2.227,0,0,0,342,35.236l10.436,10.317a2.235,2.235,0,0,0,3.808-1.589v-20.4A2.237,2.237,0,0,0,354,21.332Zm0,0" transform="translate(-293.624 -18.35)"/><path class="d" d="M71.562,35.036a3.728,3.728,0,0,1-3.727,3.727H62.617L35.781,12.673,8.945,38.763H3.727A3.732,3.732,0,0,1,1.1,32.382L34.23.627a2.233,2.233,0,0,1,3.1,0l33.1,31.725A3.724,3.724,0,0,1,71.562,35.036Zm0,0" transform="translate(0 0)"/><path class="e" d="M90.767,90.668l-26.836,26.09s-.235,23.158,0,23.667,3.27,2.471,6.356,4.168a26.186,26.186,0,0,0,5.988,2.622,37.108,37.108,0,0,0,5.621,1.468l17.662-.062A59.785,59.785,0,0,0,105.526,147a30.287,30.287,0,0,0,4.609-2.037c5.239-2.881,3.4-1.676,7.382-4.665l.085-23.539Zm0,0" transform="translate(-54.986 -77.995)"/><path class="f" d="M192,341.332h17.89l.023,22.9a30.988,30.988,0,0,1-9.463,1.017,6.291,6.291,0,0,1-5.886-4.455Zm0,0" transform="translate(-165.164 -293.624)"/><path class="g" d="M192,341.332h8.945v23.854a31.318,31.318,0,0,1-3.964-.127c-2.236-.209-4.981-.71-4.981-.71Zm0,0" transform="translate(-165.164 -293.624)"/></g><g transform="translate(51 42)"><path class="h" d="M22.981,0A22.981,22.981,0,1,0,45.963,22.981,23.007,23.007,0,0,0,22.981,0Zm0,36.059a13.1,13.1,0,0,1-4.577-.827L35.232,18.4a13.077,13.077,0,0,1-12.25,17.654Zm0-26.154a13.1,13.1,0,0,1,4.577.827L10.731,27.558A13.077,13.077,0,0,1,22.981,9.9Zm0,0"/><path class="i" d="M260.577,10.731,256,15.308V30.654L268.25,18.4A13.077,13.077,0,0,1,256,36.059v9.9A22.981,22.981,0,0,0,256,0V9.9A13.1,13.1,0,0,1,260.577,10.731Zm0,0" transform="translate(-233.019)"/></g></g></svg>