<svg xmlns="http://www.w3.org/2000/svg" width="84" height="95.207" viewBox="0 0 84 95.207"><defs><style>.a{fill:#bce0fd;}.b{fill:#2a7ffd;}.c{fill:#0063f6;}.d{fill:#5d9dfd;}.e{fill:#0054d1;}.f{fill:#cdcfcf;}.g{fill:#b1deff;}.h{fill:#dbf0ff;}.i{fill:#eff2fa;}.j{fill:#d0ebff;}.k{fill:#e8f5ff;}.l{fill:#e4eaf6;}.m{fill:#00429a;}.n{fill:#003a88;}.o{fill:#f7faff;}.p{fill:#c6e6fd;}.q{fill:#99cff7;}</style></defs><g transform="translate(0 11.202)"><path class="a" d="M0,42A42,42,0,1,0,42,0,42,42,0,0,0,0,42Z"/><g transform="translate(13.963 -9.895)"><path class="b" d="M116.5,153.127a43.821,43.821,0,0,1-10.057,4.387A59.73,59.73,0,0,1,94.527,159.3a49.839,49.839,0,0,1-11.96-1.457,37.889,37.889,0,0,1-10.438-5L67.121,98.462h54.6Z" transform="translate(-66.51 -65.4)"/><path class="c" d="M67.121,98.462l.7,7.493c4.356,5.17,14.638,8.771,26.6,8.771s22.247-3.6,26.6-8.771l.7-7.493Zm27.3,24.047a1.872,1.872,0,0,0-1.859,1.859v24.8a1.859,1.859,0,0,0,3.717,0V124.31A1.861,1.861,0,0,0,94.421,122.509Zm9.178-.929a1.872,1.872,0,0,0-1.859,1.859l-.929,24.744a1.859,1.859,0,0,0,3.717,0l.871-24.744A1.823,1.823,0,0,0,103.6,121.58Zm8.248-1.859a1.872,1.872,0,0,0-1.859,1.859l-1.859,24.338a1.859,1.859,0,1,0,3.717,0l1.859-24.338A1.911,1.911,0,0,0,111.847,119.721Zm-26.6,1.859a1.872,1.872,0,0,0-1.859,1.859l.929,24.8a1.872,1.872,0,0,0,1.859,1.859,1.835,1.835,0,0,0,1.859-1.859l-.929-24.8A1.872,1.872,0,0,0,85.244,121.58ZM77,119.721a1.872,1.872,0,0,0-1.859,1.859L77,145.918a1.872,1.872,0,0,0,1.859,1.859,1.835,1.835,0,0,0,1.859-1.859L78.854,121.58A1.953,1.953,0,0,0,77,119.721Z" transform="translate(-66.51 -65.4)"/><path class="d" d="M116.909,64.268a6.016,6.016,0,0,1,1.8,5c0,7.725-12.488,14-27.881,14s-27.823-6.273-27.823-14a6.329,6.329,0,0,1,1.743-5C66.375,62.467,115.341,62.467,116.909,64.268Z" transform="translate(-62.975 -35.098)"/><path class="c" d="M94.421,0c15.1,0,27.3,5.983,27.3,13.36s-12.2,13.36-27.3,13.36-27.3-5.983-27.3-13.36S79.319,0,94.421,0Z" transform="translate(-66.51 18.54)"/><path class="e" d="M94.421,4.647c12.256,0,22.77,3.659,27.3,8.829V13.36c0-7.377-12.2-13.36-27.3-13.36s-27.3,5.983-27.3,13.36v.116C71.652,8.306,82.165,4.647,94.421,4.647Z" transform="translate(-66.51 18.54)"/><path class="f" d="M130.446,137.058l-2.672,3.02a47.454,47.454,0,0,0,18.355,3.427,46.4,46.4,0,0,0,18.355-3.427l-2.672-3.02a44.975,44.975,0,0,1-15.683,2.73A44.488,44.488,0,0,1,130.446,137.058Z" transform="translate(-118.217 -98.304)"/><path class="g" d="M182.457,147.254a45.08,45.08,0,0,1-9.468.987,44.074,44.074,0,0,1-10.978-1.336l-2.73,3.137.058.058a52.322,52.322,0,0,0,13.708,1.743,52.858,52.858,0,0,0,11.269-1.162l.7-.7Z" transform="translate(-145.077 -106.699)"/><g transform="matrix(0.996, 0.087, -0.087, 0.996, 14.645, -1.903)"><path class="h" d="M236.028,143.84v-4.82h-12.4v4.82l6.2,5.509Z" transform="translate(-211.926 -115.605)"/><path class="i" d="M187.812,169.456l-8.521-2a1.365,1.365,0,0,1-.358-.144l-6.9,4.026-6.633-4.221a1.37,1.37,0,0,1-.627.339l-8.521,2a2.755,2.755,0,0,0-2.124,2.681v5.393c0,.389,1.177-.861,1.526-.531.158.16-.52,1.908-.148,1.908a28.29,28.29,0,0,0,16.527,5.379,26.81,26.81,0,0,0,16.527-5.379c.345,0-.344-1.033,0-1.377s1.377.415,1.377,0v-5.393A2.754,2.754,0,0,0,187.812,169.456Z" transform="translate(-154.127 -138.965)"/><path class="j" d="M223.633,139.02v5.086c7.807,2.813,12.4-4.227,12.4-4.227v-.859Z" transform="translate(-211.926 -115.605)"/><path class="k" d="M207.28,44.985l.6,13.2a4.132,4.132,0,0,0,1.648,3.118l2.847,2.136a4.131,4.131,0,0,0,2.479.826h2.755a4.132,4.132,0,0,0,2.479-.826l2.847-2.136a4.132,4.132,0,0,0,1.648-3.118l.6-13.2Z" transform="translate(-198.327 -37.408)"/><path class="h" d="M214.166,47.74c2.755,0,6.886-.689,7.866-2.755H207.28l.6,13.2a4.132,4.132,0,0,0,1.648,3.118l2.847,2.136a4.131,4.131,0,0,0,2.479.826h1.377c-1.377,0-4.132-2.755-4.132-6.2V49.805A2.2,2.2,0,0,1,214.166,47.74Z" transform="translate(-198.327 -37.408)"/><g transform="translate(0 31.465)"><path class="l" d="M331.076,190.818l4.462-4.008a2.75,2.75,0,0,1,.593,1.707l.2,7.414c-.622.679-1.124-.926-3.566.743l-2.836,1.5V193.38A3.444,3.444,0,0,1,331.076,190.818Z" transform="translate(-300.323 -186.81)"/><path class="l" d="M159.184,190.818l-4.462-4.008a2.75,2.75,0,0,0-.593,1.707l-.108,11.016c.8.734,2.675-3.354,3.844-2.672a21.336,21.336,0,0,0,2.317,1.155l.144-4.637A3.443,3.443,0,0,0,159.184,190.818Z" transform="translate(-154.129 -186.81)"/></g><g transform="translate(9.641 26.526)"><path class="l" d="M213.337,157.664l6.294,5.665a23.752,23.752,0,0,0-3.938,2.683.883.883,0,0,1-1.368-.309l-2.957-6.506.935-1.4A.689.689,0,0,1,213.337,157.664Z" transform="translate(-211.368 -157.487)"/><path class="l" d="M266.724,157.664l-6.294,5.665a23.75,23.75,0,0,1,3.938,2.683.883.883,0,0,0,1.368-.309l2.957-6.506-.935-1.4A.689.689,0,0,0,266.724,157.664Z" transform="translate(-252.166 -157.487)"/></g><path class="m" d="M285.216,15.787l.646,4.562c2.947.589,3.372,5.214,3.433,6.535a1.359,1.359,0,0,0,.218.673l1.124,1.744a6.6,6.6,0,0,1,1.377-4.82S292.619,13.032,285.216,15.787Z" transform="translate(-263.137 -12.772)"/><path class="h" d="M307.621,87.642l-.778,3.111a.828.828,0,0,1-.8.627h0a.828.828,0,0,1-.822-.725l-.4-3.181a1.426,1.426,0,0,1,1.415-1.6h0A1.426,1.426,0,0,1,307.621,87.642Z" transform="translate(-279.43 -71.408)"/><path class="n" d="M197.425,1.781l1.019.7c-4.605,3.4-3.744,9.232-3.744,9.232,1.377,1.377,1.377,4.82,1.377,4.82l1.377-1.377s-.532-3.979,2.066-5.509c2.41-1.42,4.519-.689,6.671-.689,5.767,0,7.381-2.173,7.1-4.82-.145-1.37-2.239-4.222-7.575-4.132A23.186,23.186,0,0,0,197.425,1.781Z" transform="translate(-187.813 0)"/><path class="j" d="M199.145,87.642l.778,3.111a.828.828,0,0,0,.8.627h0a.828.828,0,0,0,.822-.725l.4-3.181a1.426,1.426,0,0,0-1.414-1.6h0A1.425,1.425,0,0,0,199.145,87.642Z" transform="translate(-191.527 -71.408)"/><path class="l" d="M285.693,228.967h-3.443a1.377,1.377,0,0,0-1.377,1.377h6.2A1.377,1.377,0,0,0,285.693,228.967Z" transform="translate(-259.524 -190.402)"/><path class="o" d="M286.474,232.932h-5.148c-.761,0-.515-1.775-.515-3.965h6.2C287.008,231.157,287.234,232.932,286.474,232.932Z" transform="translate(-259.463 -189.255)"/></g><path class="g" d="M245.178,106.294a46.148,46.148,0,0,0,18.355-3.485l-8.248-9.468-11.327,12.953Z" transform="translate(-217.266 -61.034)"/><path class="p" d="M158.887,83.225l.174.174a51.743,51.743,0,0,0,13.592,1.743,52.151,52.151,0,0,0,11.152-1.162l.755-.755-12.837-14.7Z" transform="translate(-144.742 -39.882)"/><path class="q" d="M244.352,143.448h1.1a46.61,46.61,0,0,0,18.355-3.427l-2.614-2.962a43.423,43.423,0,0,1-13.592,2.73Z" transform="translate(-217.602 -98.305)"/><path class="g" d="M182.457,147.254a45.08,45.08,0,0,1-9.468.987,44.074,44.074,0,0,1-10.978-1.336l-2.73,3.137.058.058a52.322,52.322,0,0,0,13.708,1.743,52.858,52.858,0,0,0,11.269-1.162l.7-.7Z" transform="translate(-145.078 -106.699)"/><path class="g" d="M146.129,106.294h1.22L136.022,93.341l-8.248,9.468A45.155,45.155,0,0,0,146.129,106.294Z" transform="translate(-118.217 -61.034)"/><path class="q" d="M147.233,143.113,143.98,139.4a43.418,43.418,0,0,1-13.592-2.73l-2.614,3.079a47.454,47.454,0,0,0,18.355,3.427A7.029,7.029,0,0,1,147.233,143.113Z" transform="translate(-118.217 -97.969)"/></g></g></svg>