<svg xmlns="http://www.w3.org/2000/svg" width="58.305" height="58.305" viewBox="0 0 58.305 58.305"><defs><style>.a{fill:#bce0fd;}.b{fill:#1976d2;}.c{fill:#2196f3;}.d{fill:#eceff1;}.e{fill:#00429a;}.f{fill:#003a88;}.g{fill:#385cf8;}.h{fill:none;stroke:#fff;stroke-linecap:round;stroke-width:2.3px;}</style></defs><g transform="translate(0 0)"><path class="a" d="M0,27.214A27.214,27.214,0,1,0,27.214,0,27.217,27.217,0,0,0,0,27.214Z" transform="translate(0 0)"/><g transform="translate(4.188 8.176)"><path class="b" d="M349.543,21.332h-6.762a1.45,1.45,0,0,0-1.449,1.449v6.53a1.443,1.443,0,0,0,.431,1.03l6.762,6.685A1.448,1.448,0,0,0,350.992,36V22.781A1.45,1.45,0,0,0,349.543,21.332Zm0,0" transform="translate(-310.42 -19.4)"/><path class="c" d="M46.369,22.7a2.416,2.416,0,0,1-2.415,2.415H40.572L23.184,8.212,5.8,25.117H2.415a2.418,2.418,0,0,1-1.7-4.134L22.18.407a1.447,1.447,0,0,1,2.009,0L45.634,20.963A2.413,2.413,0,0,1,46.369,22.7Zm0,0" transform="translate(0 -0.001)"/><path class="d" d="M81.283,90.668l-17.388,16.9s-.152,15.006,0,15.335a20.031,20.031,0,0,0,4.118,2.7,16.968,16.968,0,0,0,3.88,1.7,24.044,24.044,0,0,0,3.642.951l11.444-.04a38.737,38.737,0,0,0,3.866-1.052,19.624,19.624,0,0,0,2.987-1.32,21.537,21.537,0,0,0,4.783-3.023l.055-15.252Zm0,0" transform="translate(-58.099 -82.457)"/><path class="e" d="M192,341.332h11.592l.015,14.841a20.078,20.078,0,0,1-6.131.659,4.076,4.076,0,0,1-3.814-2.886Zm0,0" transform="translate(-174.612 -310.42)"/><path class="f" d="M192,341.332h5.8v15.456a20.3,20.3,0,0,1-2.568-.082c-1.449-.135-3.228-.46-3.228-.46Zm0,0" transform="translate(-174.612 -310.42)"/></g><g transform="translate(37.305 37.305)"><rect class="g" width="21" height="21" rx="3"/><g transform="translate(5.252 5.252)"><line class="h" y2="9.758" transform="translate(4.797)"/><line class="h" y2="9.759" transform="translate(9.759 5.166) rotate(90)"/></g></g></g></svg>
