<svg xmlns="http://www.w3.org/2000/svg" width="25.53" height="19.534" viewBox="0 0 25.53 19.534"><defs><style>.a{fill:none;stroke:#002cfa;stroke-width:1.5px;}.b{fill:#fdfdff;}.c{fill:#002cfa;}.d,.e{stroke:none;}.e{fill:#002cfa;}</style></defs><g transform="translate(0 0.833)"><g transform="translate(6.809)"><g transform="translate(0 0)"><path class="a" d="M17.649,20.651,9.6,12.93a.883.883,0,0,0-1.24,0L.3,20.651a1,1,0,0,0-.238,1.066.917.917,0,0,0,.858.619H2.208V30.07a.542.542,0,0,0,.528.555H7.15a.542.542,0,0,0,.528-.555v-4.7h2.594v4.7a.542.542,0,0,0,.528.555h4.414a.542.542,0,0,0,.528-.555V22.335h1.287a.917.917,0,0,0,.858-.619A1,1,0,0,0,17.649,20.651Z" transform="translate(0 -12.675)"/></g></g><circle class="b" cx="6" cy="6" r="6" transform="translate(1.308 3.476)"/><g transform="translate(0 5.891)"><line class="a" x2="7.639" transform="translate(0 3.83)"/><g class="c" transform="translate(12.732) rotate(90)"><path class="d" d="M 6.157676696777344 4.342696189880371 L 1.502479076385498 4.342696189880371 L 3.830077886581421 1.247784018516541 L 6.157676696777344 4.342696189880371 Z"/><path class="e" d="M 3.830077886581421 2.49559473991394 L 3.004977703094482 3.59269642829895 L 4.655178070068359 3.59269642829895 L 3.830077886581421 2.49559473991394 M 3.830077886581421 -3.337860107421875e-06 L 7.660157680511475 5.092696189880371 L -1.9073486328125e-06 5.092696189880371 L 3.830077886581421 -3.337860107421875e-06 Z"/></g></g></g></svg>