<svg xmlns="http://www.w3.org/2000/svg" width="20" height="20" viewBox="0 0 20 20"><defs><style>.a{fill:#9696b9;}</style></defs><g transform="translate(0 6.25)"><path class="a" d="M14.775,163.272l-3.75-3.125a.625.625,0,0,0-1.025.48V162.5H.625a.625.625,0,0,0-.625.625v1.25A.625.625,0,0,0,.625,165H10v1.875a.626.626,0,0,0,.36.566.634.634,0,0,0,.265.059.618.618,0,0,0,.4-.145l3.75-3.125a.624.624,0,0,0,0-.96Z" transform="translate(0 -160.002)"/></g><path class="a" d="M18.75,0H1.25A1.25,1.25,0,0,0,0,1.25V7.5H2.5v-5h15v15H2.5v-5H0v6.25A1.25,1.25,0,0,0,1.25,20h17.5A1.249,1.249,0,0,0,20,18.75V1.25A1.25,1.25,0,0,0,18.75,0Z"/></svg>