<svg xmlns="http://www.w3.org/2000/svg" width="113.362" height="55.661" viewBox="0 0 113.362 55.661"><defs><style>.a{fill:#bce0fd;}.b{fill:#2699fb;}.c{fill:#1976d2;}.d{fill:#2196f3;}.e{fill:#eceff1;}.f{fill:#00429a;}.g{fill:#003a88;}</style></defs><g transform="translate(58.934 1.234)"><path class="a" d="M0,27.214A27.214,27.214,0,1,0,27.214,0,27.217,27.217,0,0,0,0,27.214Z" transform="translate(0 0)"/><g transform="translate(-5.799 15.554)"><g transform="translate(-22.736 -13.911)"><path class="b" d="M246.962,208.471l-10.123-10.6v5.6H220.2v10h16.644v5.6Zm0,0" transform="translate(-209.052 -171.714)"/><g transform="translate(-30.398 -2.876)"><path class="c" d="M346.249,21.332H342.2a.868.868,0,0,0-.868.868V26.11a.864.864,0,0,0,.258.617l4.049,4a.867.867,0,0,0,1.477-.617V22.2A.868.868,0,0,0,346.249,21.332Zm0,0" transform="translate(-322.822 -20.175)"/><path class="d" d="M27.766,13.595a1.447,1.447,0,0,1-1.446,1.446H24.3L13.883,4.918,3.471,15.041H1.446A1.448,1.448,0,0,1,.428,12.565L13.281.244a.866.866,0,0,1,1.2,0l12.842,12.31A1.445,1.445,0,0,1,27.766,13.595Zm0,0" transform="translate(0 -0.001)"/><path class="e" d="M74.3,90.668,63.885,100.791l.121,12.363,6.849.024,6.853-.024h7V100.791Zm0,0" transform="translate(-60.414 -85.751)"/><path class="f" d="M192,341.332h6.941l.009,8.887H195.4S192.995,348.885,192,341.332Zm0,0" transform="translate(-181.588 -322.821)"/><path class="g" d="M192,341.332h3.471v8.931H192Zm0,0" transform="translate(-181.588 -322.821)"/></g><g transform="translate(-15.7 -2.012)"><path class="c" d="M346.249,21.332H342.2a.868.868,0,0,0-.868.868V26.11a.864.864,0,0,0,.258.617l4.049,4a.867.867,0,0,0,1.477-.617V22.2A.868.868,0,0,0,346.249,21.332Zm0,0" transform="translate(-322.822 -20.175)"/><path class="d" d="M27.766,13.595a1.447,1.447,0,0,1-1.446,1.446H24.3L13.883,4.918,3.471,15.041H1.446A1.448,1.448,0,0,1,.428,12.565L13.281.244a.866.866,0,0,1,1.2,0l12.842,12.31A1.445,1.445,0,0,1,27.766,13.595Zm0,0" transform="translate(0 -0.001)"/><path class="e" d="M74.3,90.668,63.885,100.791l.121,12.363,6.849.024,6.853-.024h7V100.791Zm0,0" transform="translate(-60.414 -85.751)"/><path class="f" d="M192,341.332h6.941l.009,8.887H195.4S192.995,348.885,192,341.332Zm0,0" transform="translate(-181.588 -322.821)"/><path class="g" d="M192,341.332h3.471v8.931H192Zm0,0" transform="translate(-181.588 -322.821)"/></g><g transform="translate(-2.731 -2.012)"><path class="c" d="M346.249,21.332H342.2a.868.868,0,0,0-.868.868V26.11a.864.864,0,0,0,.258.617l4.049,4a.867.867,0,0,0,1.477-.617V22.2A.868.868,0,0,0,346.249,21.332Zm0,0" transform="translate(-322.822 -20.175)"/><path class="d" d="M27.766,13.595a1.447,1.447,0,0,1-1.446,1.446H24.3L13.883,4.918,3.471,15.041H1.446A1.448,1.448,0,0,1,.428,12.565L13.281.244a.866.866,0,0,1,1.2,0l12.842,12.31A1.445,1.445,0,0,1,27.766,13.595Zm0,0" transform="translate(0 -0.001)"/><path class="e" d="M74.3,90.668,63.885,100.791l.121,12.363,6.849.024,6.853-.024h7V100.791Zm0,0" transform="translate(-60.414 -85.751)"/><path class="f" d="M192,341.332h6.941l.009,8.887H195.4S192.995,348.885,192,341.332Zm0,0" transform="translate(-181.588 -322.821)"/><path class="g" d="M192,341.332h3.471v8.931H192Zm0,0" transform="translate(-181.588 -322.821)"/></g><g transform="translate(57.06 7.211) rotate(48)"><path class="c" d="M346.249,21.332H342.2a.868.868,0,0,0-.868.868V26.11a.864.864,0,0,0,.258.617l4.049,4a.867.867,0,0,0,1.477-.617V22.2A.868.868,0,0,0,346.249,21.332Zm0,0" transform="translate(-322.822 -20.175)"/><path class="d" d="M27.766,13.595a1.447,1.447,0,0,1-1.446,1.446H24.3L13.883,4.918,3.471,15.041H1.446A1.448,1.448,0,0,1,.428,12.565L13.281.244a.866.866,0,0,1,1.2,0l12.842,12.31A1.445,1.445,0,0,1,27.766,13.595Zm0,0" transform="translate(0 -0.001)"/><path class="e" d="M74.3,90.668,63.885,100.791l.121,12.363,6.849.024,6.853-.024h7V100.791Zm0,0" transform="translate(-60.414 -85.751)"/><path class="f" d="M192,341.332h6.941l.009,8.887H195.4S192.995,348.885,192,341.332Zm0,0" transform="translate(-181.588 -322.821)"/><path class="g" d="M192,341.332h3.471v8.931H192Zm0,0" transform="translate(-181.588 -322.821)"/></g></g></g></g></svg>