<svg xmlns="http://www.w3.org/2000/svg" width="47.473" height="29.03" viewBox="0 0 47.473 29.03">
  <g id="import-properties-icon" transform="translate(-4.42 -0.224)">
    <g id="Group_11731" data-name="Group 11731" transform="translate(12.906 6.32) rotate(90)">
      <g id="Group_11730" data-name="Group 11730" transform="translate(0 0)">
        <path id="Path_25147" data-name="Path 25147" d="M17.066,163.7l-4.332-3.536a.735.735,0,0,0-.768-.1.706.706,0,0,0-.416.641v2.122H.722a.715.715,0,0,0-.722.707v1.414a.715.715,0,0,0,.722.707H11.551v2.122a.707.707,0,0,0,.416.641.746.746,0,0,0,.306.066.723.723,0,0,0,.462-.164l4.332-3.536a.7.7,0,0,0,0-1.086Z" transform="translate(0 -160.002)" fill="#f2f9ff"/>
      </g>
    </g>
    <g id="bookings-illus" transform="translate(22.807 0.061)">
      <circle id="Ellipse_778" data-name="Ellipse 778" cx="14.5" cy="14.5" r="14.5" transform="translate(0.085 0.163)" fill="#c4e6ff"/>
      <g id="individual-icon" transform="translate(16.48 11.335)">
        <path id="Path_19207" data-name="Path 19207" d="M227.421,140.493V139.02h-3.788v1.473l1.894,1.684Z" transform="translate(-220.055 -131.863)" fill="#dbf0ff"/>
        <path id="Path_19208" data-name="Path 19208" d="M164.423,167.828l-2.6-.613a.417.417,0,0,1-.109-.044L159.6,168.4l-2.027-1.29a.419.419,0,0,1-.192.1l-2.6.613a.842.842,0,0,0-.649.82V170.3c0,.119.36-.263.466-.162.048.049-.159.583-.045.583a8.647,8.647,0,0,0,5.051,1.644,4.464,4.464,0,0,1,2.015.532l1.442-1.421,1.984-2.9S164.8,167.918,164.423,167.828Z" transform="translate(-154.127 -158.509)" fill="#eff2fa"/>
        <path id="Path_19209" data-name="Path 19209" d="M223.633,139.02v1.554a3.289,3.289,0,0,0,3.788-1.292v-.262Z" transform="translate(-220.055 -131.863)" fill="#d0ebff"/>
        <path id="Path_19210" data-name="Path 19210" d="M207.28,44.985l.183,4.035a1.263,1.263,0,0,0,.5.953l.87.653a1.263,1.263,0,0,0,.758.253h.842a1.263,1.263,0,0,0,.758-.253l.87-.653a1.263,1.263,0,0,0,.5-.953l.183-4.035Z" transform="translate(-204.544 -42.669)" fill="#e8f5ff"/>
        <path id="Path_19211" data-name="Path 19211" d="M209.385,45.827c.842,0,2.1-.21,2.4-.842H207.28l.183,4.035a1.263,1.263,0,0,0,.5.953l.87.653a1.263,1.263,0,0,0,.758.253h.421c-.421,0-1.263-.842-1.263-1.894V46.458A.672.672,0,0,1,209.385,45.827Z" transform="translate(-204.544 -42.669)" fill="#dbf0ff"/>
        <g id="Group_6977" data-name="Group 6977" transform="translate(0 9.617)">
          <path id="Path_19212" data-name="Path 19212" d="M328.642,188.055l1.283-1.22a3.151,3.151,0,0,1,.246.4s-.363.771-.647,1.236a10.746,10.746,0,0,1-1.642,1.975l.411-1.608A1.053,1.053,0,0,1,328.642,188.055Z" transform="translate(-319.243 -186.83)" fill="#e4eaf6"/>
          <path id="Path_19213" data-name="Path 19213" d="M155.674,188.035l-1.364-1.225a.84.84,0,0,0-.181.522v1.711a2.76,2.76,0,0,0,.421.358s.364.272.721.481a6.519,6.519,0,0,0,.708.353l.044-1.417A1.052,1.052,0,0,0,155.674,188.035Z" transform="translate(-154.129 -186.81)" fill="#e4eaf6"/>
        </g>
        <g id="Group_6978" data-name="Group 6978" transform="translate(2.947 8.107)">
          <path id="Path_19216" data-name="Path 19216" d="M211.97,157.541l1.924,1.731a7.261,7.261,0,0,0-1.2.82.27.27,0,0,1-.418-.095l-.9-1.988.286-.429A.211.211,0,0,1,211.97,157.541Z" transform="translate(-211.368 -157.487)" fill="#e4eaf6"/>
          <path id="Path_19217" data-name="Path 19217" d="M262.354,157.541l-1.924,1.731a7.259,7.259,0,0,1,1.2.82.27.27,0,0,0,.418-.095l.9-1.988-.286-.429A.211.211,0,0,0,262.354,157.541Z" transform="translate(-257.904 -157.487)" fill="#e4eaf6"/>
        </g>
        <path id="Path_19218" data-name="Path 19218" d="M285.216,15.49l.2,1.394c.9.18,1.031,1.594,1.049,2a.415.415,0,0,0,.067.206l.344.533a2.016,2.016,0,0,1,.421-1.473S287.479,14.648,285.216,15.49Z" transform="translate(-278.468 -14.568)" fill="#00429a"/>
        <path id="Path_19219" data-name="Path 19219" d="M305.669,86.412l-.238.951a.253.253,0,0,1-.245.192h0a.253.253,0,0,1-.251-.222l-.122-.972a.436.436,0,0,1,.432-.49h0A.436.436,0,0,1,305.669,86.412Z" transform="translate(-297.052 -81.45)" fill="#dbf0ff"/>
        <path id="Path_19220" data-name="Path 19220" d="M195.488.545l.311.213a3.147,3.147,0,0,0-1.144,2.822,2.593,2.593,0,0,1,.421,1.473l.421-.421s-.162-1.216.631-1.684a3.379,3.379,0,0,1,2.039-.21c1.763,0,2.256-.664,2.17-1.473-.044-.419-.684-1.291-2.315-1.263A7.086,7.086,0,0,0,195.488.545Z" transform="translate(-192.55 0)" fill="#003a88"/>
        <path id="Path_19222" data-name="Path 19222" d="M199.115,86.412l.238.951a.253.253,0,0,0,.246.192h0a.253.253,0,0,0,.251-.222l.122-.972a.436.436,0,0,0-.432-.49h0A.436.436,0,0,0,199.115,86.412Z" transform="translate(-196.787 -81.45)" fill="#d0ebff"/>
        <path id="Path_19223" data-name="Path 19223" d="M282.345,228.967h-1.052a.421.421,0,0,0-.421.421h1.894A.421.421,0,0,0,282.345,228.967Z" transform="translate(-274.347 -217.18)" fill="#e4eaf6"/>
        <path id="Path_19732" data-name="Path 19732" d="M282.515,230.179h-1.574c-.232,0-.157-.542-.157-1.212h1.894C282.679,229.636,282.748,230.179,282.515,230.179Z" transform="translate(-274.26 -216.83)" fill="#f7faff"/>
      </g>
      <g id="individual-icon-2" data-name="individual-icon" transform="translate(1.057 9.199)">
        <path id="Path_19207-2" data-name="Path 19207" d="M228.006,140.72v-1.7h-4.373v1.7l2.186,1.943Z" transform="translate(-220.388 -130.76)" fill="#dbf0ff"/>
        <path id="Path_19208-2" data-name="Path 19208" d="M169.545,167.939l-3.006-.707a.481.481,0,0,1-.126-.051l-2.435,1.42-2.34-1.489a.483.483,0,0,1-.221.119l-2.836.684c-.233.055.761,2.139,2.1,3.821a13.921,13.921,0,0,0,2.563,2.414l6.568-2.877c.122,0-.121-.364,0-.486s.486.147.486,0v-1.9A.972.972,0,0,0,169.545,167.939Z" transform="translate(-158.547 -157.183)" fill="#eff2fa"/>
        <path id="Path_19209-2" data-name="Path 19209" d="M223.633,139.02v1.794a3.8,3.8,0,0,0,4.373-1.491v-.3Z" transform="translate(-220.388 -130.76)" fill="#d0ebff"/>
        <path id="Path_19210-2" data-name="Path 19210" d="M207.28,44.985l.212,4.657a1.458,1.458,0,0,0,.582,1.1l1,.753a1.457,1.457,0,0,0,.875.292h.972a1.458,1.458,0,0,0,.875-.292l1-.753a1.458,1.458,0,0,0,.582-1.1l.212-4.657Z" transform="translate(-205.007 -42.312)" fill="#e8f5ff"/>
        <path id="Path_19211-2" data-name="Path 19211" d="M209.709,45.957c.972,0,2.429-.243,2.775-.972h-5.2l.212,4.657a1.458,1.458,0,0,0,.582,1.1l1,.753a1.458,1.458,0,0,0,.875.292h.486c-.486,0-1.458-.972-1.458-2.186V46.686A.776.776,0,0,1,209.709,45.957Z" transform="translate(-205.007 -42.312)" fill="#dbf0ff"/>
        <g id="Group_6977-2" data-name="Group 6977" transform="translate(9.561 11.1)">
          <path id="Path_19212-2" data-name="Path 19212" d="M330.337,188.224l1.574-1.414a.97.97,0,0,1,.209.6v1.9a2.652,2.652,0,0,1-.486.486l-.7.489-1,.529v-1.691A1.215,1.215,0,0,1,330.337,188.224Z" transform="translate(-329.934 -186.81)" fill="#e4eaf6"/>
        </g>
        <g id="Group_6978-2" data-name="Group 6978" transform="translate(2.516 9.358)">
          <path id="Path_19216-2" data-name="Path 19216" d="M212.063,157.549l2.22,2a8.38,8.38,0,0,0-1.389.947.312.312,0,0,1-.483-.109l-1.043-2.3.33-.5A.243.243,0,0,1,212.063,157.549Z" transform="translate(-211.368 -157.487)" fill="#e4eaf6"/>
          <path id="Path_19217-2" data-name="Path 19217" d="M262.65,157.549l-2.22,2a8.38,8.38,0,0,1,1.389.947.312.312,0,0,0,.483-.109l1.043-2.3-.33-.5A.243.243,0,0,0,262.65,157.549Z" transform="translate(-257.515 -157.487)" fill="#e4eaf6"/>
        </g>
        <path id="Path_19218-2" data-name="Path 19218" d="M285.216,15.51l.228,1.609c1.04.208,1.189,1.839,1.211,2.305a.48.48,0,0,0,.077.237l.4.615a2.327,2.327,0,0,1,.486-1.7S287.827,14.538,285.216,15.51Z" transform="translate(-278.312 -14.446)" fill="#00429a"/>
        <path id="Path_19219-2" data-name="Path 19219" d="M305.8,86.5l-.274,1.1a.292.292,0,0,1-.283.221h0a.292.292,0,0,1-.29-.256l-.14-1.122a.5.5,0,0,1,.5-.565h0A.5.5,0,0,1,305.8,86.5Z" transform="translate(-296.741 -80.769)" fill="#dbf0ff"/>
        <path id="Path_19220-2" data-name="Path 19220" d="M195.62.629l.359.245a3.632,3.632,0,0,0-1.321,3.257,2.993,2.993,0,0,1,.486,1.7l.486-.486s-.188-1.4.729-1.943a3.9,3.9,0,0,1,2.353-.243c2.035,0,2.6-.767,2.505-1.7-.051-.483-.79-1.49-2.672-1.458A8.18,8.18,0,0,0,195.62.629Z" transform="translate(-193.114 0)" fill="#003a88"/>
        <path id="Path_19222-2" data-name="Path 19222" d="M199.118,86.5l.274,1.1a.292.292,0,0,0,.283.221h0a.292.292,0,0,0,.29-.256l.14-1.122a.5.5,0,0,0-.5-.565h0A.5.5,0,0,0,199.118,86.5Z" transform="translate(-197.315 -80.769)" fill="#d0ebff"/>
        <path id="Path_19223-2" data-name="Path 19223" d="M282.573,228.967h-1.215a.486.486,0,0,0-.486.486h2.186A.486.486,0,0,0,282.573,228.967Z" transform="translate(-274.226 -215.362)" fill="#e4eaf6"/>
        <path id="Path_19732-2" data-name="Path 19732" d="M282.784,230.366h-1.816c-.268,0-.182-.626-.182-1.4h2.186C282.972,229.739,283.052,230.366,282.784,230.366Z" transform="translate(-274.14 -214.958)" fill="#f7faff"/>
      </g>
      <g id="individual-icon-3" data-name="individual-icon" transform="translate(5.252 5.439)">
        <path id="Path_19207-3" data-name="Path 19207" d="M230.129,141.546V139.02h-6.5v2.526l3.248,2.887Z" transform="translate(-217.497 -126.748)" fill="#dbf0ff"/>
        <path id="Path_19208-3" data-name="Path 19208" d="M171.782,168.34l-4.466-1.051a.715.715,0,0,1-.188-.075l-3.617,2.11-3.476-2.212a.718.718,0,0,1-.329.178l-4.466,1.051a1.444,1.444,0,0,0-1.113,1.405v2.827c0,.2.617-.451.8-.278.083.084-.273,1-.078,1a14.827,14.827,0,0,0,8.662,2.819,14.051,14.051,0,0,0,8.662-2.819c.181,0-.18-.541,0-.722s.722.218.722,0v-2.827A1.443,1.443,0,0,0,171.782,168.34Z" transform="translate(-154.127 -152.36)" fill="#eff2fa"/>
        <path id="Path_19209-3" data-name="Path 19209" d="M223.633,139.02v2.666c4.092,1.474,6.5-2.215,6.5-2.215v-.45Z" transform="translate(-217.497 -126.748)" fill="#d0ebff"/>
        <path id="Path_19210-3" data-name="Path 19210" d="M207.28,44.985l.315,6.919a2.166,2.166,0,0,0,.864,1.634l1.492,1.119a2.165,2.165,0,0,0,1.3.433h1.444a2.166,2.166,0,0,0,1.3-.433l1.492-1.119a2.166,2.166,0,0,0,.864-1.634l.315-6.919Z" transform="translate(-202.588 -41.014)" fill="#e8f5ff"/>
        <path id="Path_19211-3" data-name="Path 19211" d="M210.889,46.429c1.444,0,3.609-.361,4.123-1.444H207.28l.314,6.919a2.166,2.166,0,0,0,.864,1.634l1.492,1.119a2.165,2.165,0,0,0,1.3.433h.722c-.722,0-2.165-1.444-2.165-3.248V47.511A1.153,1.153,0,0,1,210.889,46.429Z" transform="translate(-202.588 -41.014)" fill="#dbf0ff"/>
        <g id="Group_6977-3" data-name="Group 6977" transform="translate(0 16.491)">
          <path id="Path_19212-3" data-name="Path 19212" d="M330.533,188.911l2.339-2.1a1.441,1.441,0,0,1,.311.895v2.827a3.936,3.936,0,0,1-.722.722l-1.04.727-1.486.785v-2.512A1.8,1.8,0,0,1,330.533,188.911Z" transform="translate(-314.415 -186.81)" fill="#e4eaf6"/>
          <path id="Path_19213-2" data-name="Path 19213" d="M156.779,188.911l-2.339-2.1a1.441,1.441,0,0,0-.311.895v2.934a4.73,4.73,0,0,0,.722.614s.624.467,1.237.825a11.177,11.177,0,0,0,1.214.606l.076-2.43A1.8,1.8,0,0,0,156.779,188.911Z" transform="translate(-154.129 -186.81)" fill="#e4eaf6"/>
        </g>
        <g id="Group_6978-3" data-name="Group 6978" transform="translate(5.053 13.902)">
          <path id="Path_19216-3" data-name="Path 19216" d="M212.4,157.579l3.3,2.969a12.448,12.448,0,0,0-2.064,1.406.463.463,0,0,1-.717-.162l-1.55-3.41.49-.735A.361.361,0,0,1,212.4,157.579Z" transform="translate(-211.368 -157.487)" fill="#e4eaf6"/>
          <path id="Path_19217-3" data-name="Path 19217" d="M263.729,157.579l-3.3,2.969a12.447,12.447,0,0,1,2.064,1.406.463.463,0,0,0,.717-.162l1.55-3.41-.49-.735A.361.361,0,0,0,263.729,157.579Z" transform="translate(-256.099 -157.487)" fill="#e4eaf6"/>
        </g>
        <path id="Path_19218-3" data-name="Path 19218" d="M285.216,15.583l.338,2.391c1.544.309,1.767,2.733,1.8,3.425a.712.712,0,0,0,.114.353l.589.914a3.457,3.457,0,0,1,.722-2.526S289.1,14.14,285.216,15.583Z" transform="translate(-273.644 -14.003)" fill="#00429a"/>
        <path id="Path_19219-3" data-name="Path 19219" d="M306.283,86.8l-.408,1.63a.434.434,0,0,1-.421.329h0a.434.434,0,0,1-.431-.38l-.208-1.667a.747.747,0,0,1,.741-.84h0A.747.747,0,0,1,306.283,86.8Z" transform="translate(-291.508 -78.291)" fill="#dbf0ff"/>
        <path id="Path_19220-3" data-name="Path 19220" d="M196.1.934l.534.365a5.4,5.4,0,0,0-1.962,4.838,4.446,4.446,0,0,1,.722,2.526l.722-.722s-.279-2.085,1.083-2.887c1.263-.744,2.368-.361,3.5-.361,3.023,0,3.868-1.139,3.722-2.526-.076-.718-1.173-2.213-3.97-2.165A12.152,12.152,0,0,0,196.1.934Z" transform="translate(-191.06 0)" fill="#003a88"/>
        <path id="Path_19222-3" data-name="Path 19222" d="M199.125,86.8l.408,1.63a.434.434,0,0,0,.421.329h0a.434.434,0,0,0,.431-.38l.208-1.667a.747.747,0,0,0-.741-.84h0A.747.747,0,0,0,199.125,86.8Z" transform="translate(-195.132 -78.291)" fill="#d0ebff"/>
        <path id="Path_19223-3" data-name="Path 19223" d="M283.4,228.967h-1.8a.722.722,0,0,0-.722.722h3.248A.722.722,0,0,0,283.4,228.967Z" transform="translate(-269.684 -208.755)" fill="#e4eaf6"/>
        <path id="Path_19732-3" data-name="Path 19732" d="M283.761,231.045h-2.7c-.4,0-.27-.93-.27-2.078h3.248C284.041,230.115,284.159,231.045,283.761,231.045Z" transform="translate(-269.604 -208.154)" fill="#f7faff"/>
      </g>
    </g>
    <g id="properties-icon" transform="translate(22.893 0.224)">
      <ellipse id="Ellipse_778-2" data-name="Ellipse 778" cx="14.5" cy="14.461" rx="14.5" ry="14.461" fill="#c4e6ff"/>
      <g id="home_1_" data-name="home (1)" transform="translate(16.321 15.285)">
        <path id="Path_19733" data-name="Path 19733" d="M343.408,21.332H341.7a.366.366,0,0,0-.366.366v1.651a.365.365,0,0,0,.109.26l1.71,1.69a.366.366,0,0,0,.624-.26V21.7A.366.366,0,0,0,343.408,21.332Zm0,0" transform="translate(-333.517 -20.844)" fill="#1976d2"/>
        <path id="Path_19734" data-name="Path 19734" d="M11.1,5.794a5.555,5.555,0,0,1-.334.557h-.506l-4.4-4.274-4.4,4.274H.611a.611.611,0,0,1-.43-1.045L5.607.1a.366.366,0,0,1,.508,0l5.261,5.059A6.779,6.779,0,0,1,11.1,5.794Z" transform="translate(0 -0.001)" fill="#2196f3"/>
        <path id="Path_19735" data-name="Path 19735" d="M68.24,90.668l-4.4,4.274s-.039,3.794,0,3.877a5.064,5.064,0,0,0,1.041.683,4.289,4.289,0,0,0,.981.43,6.078,6.078,0,0,0,.921.24l2.855-1.04L71.7,97.08l.938-1.346v-.792Zm0,0" transform="translate(-62.379 -88.592)" fill="#eceff1"/>
        <path id="Path_19736" data-name="Path 19736" d="M192,341.332h2.931v2.636l-1.512,1-1-.448Zm0,0" transform="translate(-187.604 -333.517)" fill="#00429a"/>
        <path id="Path_19737" data-name="Path 19737" d="M192,341.332h1.465l-.014,3.617-1.41.79Zm0,0" transform="translate(-187.604 -333.517)" fill="#003a88"/>
      </g>
      <g id="home_1_2" data-name="home (1)" transform="translate(0.339 11.992)">
        <path id="Path_19733-2" data-name="Path 19733" d="M343.7,21.332h-1.95a.418.418,0,0,0-.418.418v1.883a.416.416,0,0,0,.124.3l1.95,1.928a.418.418,0,0,0,.711-.3V21.75A.418.418,0,0,0,343.7,21.332Zm0,0" transform="translate(-333.848 -20.775)" fill="#1976d2"/>
        <path id="Path_19734-2" data-name="Path 19734" d="M19.115,6.548a.7.7,0,0,1-.7.7h-.975L12.429,2.369,7.712,7,7.32,5.652l-.147-.873L12.139.118a.417.417,0,0,1,.58,0L18.9,6.047A.7.7,0,0,1,19.115,6.548Zm0,0" transform="translate(-7.174 -0.001)" fill="#2196f3"/>
        <path id="Path_19735-2" data-name="Path 19735" d="M70.2,90.668l-4.7,4.6a15.672,15.672,0,0,0,.781,2.013,10.07,10.07,0,0,0,1,1.6l.868,1.136.782.771,2.938,1.828h3.35V95.543Zm0,0" transform="translate(-64.949 -88.3)" fill="#eceff1"/>
        <path id="Path_19736-2" data-name="Path 19736" d="M192,341.332h3.343v5.388h-.8l-.873-.7-1.194-1.05Zm0,0" transform="translate(-188.417 -332.417)" fill="#00429a"/>
        <path id="Path_19737-2" data-name="Path 19737" d="M192,341.332h1.672v4.674l-1.579-1.393Zm0,0" transform="translate(-188.417 -332.417)" fill="#003a88"/>
      </g>
      <g id="home_1_3" data-name="home (1)" transform="translate(5.185 10.354)">
        <path id="Path_19733-3" data-name="Path 19733" d="M344.638,21.332h-2.723a.584.584,0,0,0-.583.583v2.629a.581.581,0,0,0,.173.415l2.723,2.691a.583.583,0,0,0,.993-.415V21.915A.584.584,0,0,0,344.638,21.332Zm0,0" transform="translate(-328.887 -20.554)" fill="#1976d2"/>
        <path id="Path_19734-3" data-name="Path 19734" d="M18.668,9.141a.973.973,0,0,1-.972.972H16.335l-7-6.806-7,6.806H.972A.973.973,0,0,1,.288,8.448L8.93.164a.583.583,0,0,1,.809,0L18.373,8.44A.972.972,0,0,1,18.668,9.141Zm0,0" transform="translate(0 -0.001)" fill="#2196f3"/>
        <path id="Path_19735-3" data-name="Path 19735" d="M70.964,90.668l-7,6.806v6.744s1.54.762,2.3,1.028,2.39.6,2.39.6l4.606,0s1.736-.38,2.426-.619a23.432,23.432,0,0,0,2.266-1.1l.017-6.654Zm0,0" transform="translate(-61.63 -87.362)" fill="#eceff1"/>
        <path id="Path_19736-3" data-name="Path 19736" d="M192,341.332h4.667l-.012,6.039a12.483,12.483,0,0,1-2.35.156h0a1.84,1.84,0,0,1-1.637-1.116Zm0,0" transform="translate(-184.999 -328.887)" fill="#00429a"/>
        <path id="Path_19737-3" data-name="Path 19737" d="M192,341.332h2.334l-.021,6.19s-.7.005-1.285-.049-1.027-.136-1.027-.136Zm0,0" transform="translate(-184.999 -328.887)" fill="#003a88"/>
      </g>
    </g>
  </g>
</svg>
