<svg xmlns="http://www.w3.org/2000/svg" width="39.109" height="22.854" viewBox="0 0 39.109 22.854"><defs><style>.a{fill:none;stroke:#fff;stroke-width:1.5px;}.b{fill:#365af8;}.c{fill:#fff;}.d,.e{stroke:none;}.e{fill:#fff;}</style></defs><g transform="translate(9.119 0.75)"><g transform="translate(17.005 2.937)"><path class="a" d="M14.072,10.117a3.059,3.059,0,1,1,3.059-3.059A3.068,3.068,0,0,1,14.072,10.117Zm0,1.529c2.065,0,6.117.994,6.117,3.059v1.529H7.955V14.705C7.955,12.641,12.007,11.647,14.072,11.647Z" transform="translate(-7.955 -4)"/></g><g transform="translate(5.005 0)"><path class="b" d="M17.04,13.086a4.543,4.543,0,1,1,4.543-4.543A4.556,4.556,0,0,1,17.04,13.086Zm0,2.271c3.067,0,9.086,1.476,9.086,4.543v2.271H7.955V19.9C7.955,16.834,13.974,15.357,17.04,15.357Z" transform="translate(-7.955 -4)"/><path class="a" d="M17.04,13.086a4.543,4.543,0,1,1,4.543-4.543A4.556,4.556,0,0,1,17.04,13.086Zm0,2.271c3.067,0,9.086,1.476,9.086,4.543v2.271H7.955V19.9C7.955,16.834,13.974,15.357,17.04,15.357Z" transform="translate(-7.955 -4)"/></g><ellipse class="b" cx="9.584" cy="9.584" rx="9.584" ry="9.584" transform="translate(-9.119 2.936)"/><g transform="translate(-4.936 6.389)"><line class="a" x2="7.639" transform="translate(0 3.83)"/><g class="c" transform="translate(12.732) rotate(90)"><path class="d" d="M 6.157676696777344 4.342696189880371 L 1.502479076385498 4.342696189880371 L 3.830077886581421 1.247784018516541 L 6.157676696777344 4.342696189880371 Z"/><path class="e" d="M 3.830077886581421 2.49559473991394 L 3.004977703094482 3.59269642829895 L 4.655178070068359 3.59269642829895 L 3.830077886581421 2.49559473991394 M 3.830077886581421 -3.337860107421875e-06 L 7.660157680511475 5.092696189880371 L -1.9073486328125e-06 5.092696189880371 L 3.830077886581421 -3.337860107421875e-06 Z"/></g></g></g></svg>