<svg xmlns="http://www.w3.org/2000/svg" width="220.489" height="44.536" viewBox="0 0 220.489 44.536">
    <defs>
        <style>
            .prefix__cls-1{fill:#1976d2}.prefix__cls-2{fill:#2196f3}.prefix__cls-3{fill:#eceff1}.prefix__cls-4{fill:#00429a}.prefix__cls-5{fill:#003a88}
        </style>
    </defs>
    <g id="prefix__importing" transform="translate(-2167.882 -96.249)">
        <g id="prefix__home_1_" data-name="home (1)" transform="translate(2167.882 96.249)">
            <path id="prefix__Path_19733" d="M349.3 21.332h-6.56a1.406 1.406 0 00-1.406 1.406v6.335a1.4 1.4 0 00.418 1l6.56 6.484a1.405 1.405 0 002.393-1V22.738a1.406 1.406 0 00-1.405-1.406zm0 0" class="prefix__cls-1" data-name="Path 19733" transform="translate(-311.346 -19.458)"/>
            <path id="prefix__Path_19734" d="M44.98 22.022a2.343 2.343 0 01-2.343 2.342h-3.28L22.49 7.966 5.622 24.365H2.343a2.346 2.346 0 01-1.649-4.011L21.515.395a1.4 1.4 0 011.949 0l20.8 19.941a2.341 2.341 0 01.716 1.686zm0 0" class="prefix__cls-2" data-name="Path 19734" transform="translate(0 -.001)"/>
            <path id="prefix__Path_19735" d="M80.831 90.668l-16.867 16.4v20.162h11.291l11.1.006H97.7v-20.17zm0 0" class="prefix__cls-3" data-name="Path 19735" transform="translate(-58.341 -82.703)"/>
            <path id="prefix__Path_19736" d="M192 341.332h11.245v14.55H192zm0 0" class="prefix__cls-4" data-name="Path 19736" transform="translate(-175.133 -311.346)"/>
            <path id="prefix__Path_19737" d="M192 341.332h5.622V355.8H192zm0 0" class="prefix__cls-5" data-name="Path 19737" transform="translate(-175.133 -311.346)"/>
        </g>
        <g id="prefix__home_1_2" data-name="home (1)" transform="translate(2219.219 96.249)">
            <path id="prefix__Path_19733-2" d="M349.3 21.332h-6.56a1.406 1.406 0 00-1.406 1.406v6.335a1.4 1.4 0 00.418 1l6.56 6.484a1.405 1.405 0 002.393-1V22.738a1.406 1.406 0 00-1.405-1.406zm0 0" class="prefix__cls-1" data-name="Path 19733" transform="translate(-311.346 -19.458)"/>
            <path id="prefix__Path_19734-2" d="M44.98 22.022a2.343 2.343 0 01-2.343 2.342h-3.28L22.49 7.966 5.622 24.365H2.343a2.346 2.346 0 01-1.649-4.011L21.515.395a1.4 1.4 0 011.949 0l20.8 19.941a2.341 2.341 0 01.716 1.686zm0 0" class="prefix__cls-2" data-name="Path 19734" transform="translate(0 -.001)"/>
            <path id="prefix__Path_19735-2" d="M80.831 90.668l-16.867 16.4v20.162h11.291l11.1.006H97.7v-20.17zm0 0" class="prefix__cls-3" data-name="Path 19735" transform="translate(-58.341 -82.703)"/>
            <path id="prefix__Path_19736-2" d="M192 341.332h11.245v14.55H192zm0 0" class="prefix__cls-4" data-name="Path 19736" transform="translate(-175.133 -311.346)"/>
            <path id="prefix__Path_19737-2" d="M192 341.332h5.622V355.8H192zm0 0" class="prefix__cls-5" data-name="Path 19737" transform="translate(-175.133 -311.346)"/>
        </g>
        <g id="prefix__home_1_3" data-name="home (1)" transform="translate(2272.837 96.249)">
            <path id="prefix__Path_19733-3" d="M349.3 21.332h-6.56a1.406 1.406 0 00-1.406 1.406v6.335a1.4 1.4 0 00.418 1l6.56 6.484a1.405 1.405 0 002.393-1V22.738a1.406 1.406 0 00-1.405-1.406zm0 0" class="prefix__cls-1" data-name="Path 19733" transform="translate(-311.346 -19.458)"/>
            <path id="prefix__Path_19734-3" d="M44.98 22.022a2.343 2.343 0 01-2.343 2.342h-3.28L22.49 7.966 5.622 24.365H2.343a2.346 2.346 0 01-1.649-4.011L21.515.395a1.4 1.4 0 011.949 0l20.8 19.941a2.341 2.341 0 01.716 1.686zm0 0" class="prefix__cls-2" data-name="Path 19734" transform="translate(0 -.001)"/>
            <path id="prefix__Path_19735-3" d="M80.831 90.668l-16.867 16.4v20.162h11.291l11.1.006H97.7v-20.17zm0 0" class="prefix__cls-3" data-name="Path 19735" transform="translate(-58.341 -82.703)"/>
            <path id="prefix__Path_19736-3" d="M192 341.332h11.245v14.55H192zm0 0" class="prefix__cls-4" data-name="Path 19736" transform="translate(-175.133 -311.346)"/>
            <path id="prefix__Path_19737-3" d="M192 341.332h5.622V355.8H192zm0 0" class="prefix__cls-5" data-name="Path 19737" transform="translate(-175.133 -311.346)"/>
        </g>
        <path id="prefix__Path_24890" d="M278.138 216.954l-21.913-19.079v10.08H220.2v18h36.029v10.079zm0 0" data-name="Path 24890" transform="translate(2110.234 -95.299)" style="fill:#00ffc4"/>
    </g>
</svg>
