<svg xmlns="http://www.w3.org/2000/svg" width="13" height="13" viewBox="0 0 13 13"><defs><style>.a{fill:#fff;}</style></defs><g transform="translate(-10 -14)"><g transform="translate(10 18.063)"><path class="a" d="M9.6,162.128,7.166,160.1a.406.406,0,0,0-.666.312v1.219H.406a.406.406,0,0,0-.406.406v.813a.406.406,0,0,0,.406.406H6.5v1.219a.407.407,0,0,0,.234.368.412.412,0,0,0,.172.038.4.4,0,0,0,.26-.094L9.6,162.752a.406.406,0,0,0,0-.624Z" transform="translate(0 -160.002)"/></g><g transform="translate(10 14)"><path class="a" d="M12.188,0H.813A.813.813,0,0,0,0,.813V4.875H1.625V1.625h9.75v9.75H1.625V8.125H0v4.063A.812.812,0,0,0,.813,13H12.188A.812.812,0,0,0,13,12.188V.813A.812.812,0,0,0,12.188,0Z"/></g></g></svg>