<svg xmlns="http://www.w3.org/2000/svg" width="84" height="84.026" viewBox="0 0 84 84.026"><defs><style>.a{fill:#bce0fd;}.b{fill:#385cf8;}.c{fill:#6ab5ff;}.d{fill:#0674e3;}.e{fill:#399cff;}.f{fill:#023272;}.g{fill:#04429a;}.h{fill:#1976d2;}.i{fill:#2196f3;}.j{fill:#eceff1;}.k{fill:#00429a;}.l{fill:#003a88;}</style></defs><g transform="translate(0 0)"><path class="a" d="M0,42A42,42,0,1,0,42,0,42,42,0,0,0,0,42Z"/><g transform="translate(13 24)"><rect class="b" width="56" height="14" transform="translate(1 2)"/><path class="c" d="M50,8l6-6h2V16H56L50,8"/><path class="d" d="M50,8v8h6Z"/><path class="c" d="M8,8,2,2H0V16H2L8,8"/><path class="d" d="M8,8v8H2Z"/><path class="e" d="M48.219,55.392A40.655,40.655,0,0,1,29.26,60.025,48.041,48.041,0,0,1,8.871,55.149s-3.626-2.2-5.844-3.892A14.513,14.513,0,0,1,0,48.369V16H58V48.369a38.627,38.627,0,0,1-4.072,3.347C51.482,53.471,48.219,55.392,48.219,55.392Z"/><circle class="f" cx="3" cy="3" r="3" transform="translate(14 21)"/><circle class="f" cx="3" cy="3" r="3" transform="translate(38 21)"/><path class="g" d="M29,43A13.015,13.015,0,0,1,16,30V24a1,1,0,0,1,2,0v6a11,11,0,0,0,22,0V24a1,1,0,0,1,2,0v6A13.015,13.015,0,0,1,29,43Z"/></g><g transform="translate(22 4)"><path class="h" d="M348.454,21.332h-5.866a1.257,1.257,0,0,0-1.257,1.257v5.664a1.251,1.251,0,0,0,.374.893l5.865,5.8a1.256,1.256,0,0,0,2.14-.893V22.589A1.257,1.257,0,0,0,348.454,21.332Zm0,0" transform="translate(-314.519 -19.656)"/><path class="i" d="M40.219,19.692a2.1,2.1,0,0,1-2.095,2.095H35.192L20.11,7.123,5.027,21.786H2.095A2.1,2.1,0,0,1,.62,18.2L19.238.353a1.255,1.255,0,0,1,1.743,0l18.6,17.83A2.093,2.093,0,0,1,40.219,19.692Zm0,0" transform="translate(0 -0.001)"/><path class="j" d="M78.936,90.668l-15.082,12.9v15.992H94.018V103.567Zm0,0" transform="translate(-58.826 -83.546)"/><path class="k" d="M192,341.332h10.055v9.2H196.8l-3.364-1.526Zm0,0" transform="translate(-176.918 -314.519)"/><path class="l" d="M192,341.332h5.027v9.2H192Zm0,0" transform="translate(-176.918 -314.519)"/></g></g></svg>
