<svg xmlns="http://www.w3.org/2000/svg" width="20.596" height="16.889" viewBox="0 0 20.596 16.889">
  <g id="iver-icon-inactive" transform="translate(0 -17.773)">
    <g id="Group_14033" data-name="Group 14033" transform="translate(0 20.968)">
      <g id="Group_14032" data-name="Group 14032">
        <path id="Path_31630" data-name="Path 31630" d="M15.482,140.565A5.124,5.124,0,0,1,10.4,136H1.712A1.714,1.714,0,0,0,0,137.712v10.271a1.714,1.714,0,0,0,1.712,1.712H16.623a1.714,1.714,0,0,0,1.712-1.712V139.7A5.1,5.1,0,0,1,15.482,140.565ZM13.2,141.706a.571.571,0,1,1-.571.571A.571.571,0,0,1,13.2,141.706Zm-2.282,0a.571.571,0,1,1-.571.571A.571.571,0,0,1,10.917,141.706Zm-2.929,5.135a.57.57,0,0,1-.571.571H2.853a.57.57,0,0,1-.571-.571V145.7a2.852,2.852,0,0,1,1.259-2.365,2.282,2.282,0,1,1,3.188,0A2.852,2.852,0,0,1,7.988,145.7Zm7.494.571H10.917a.571.571,0,1,1,0-1.141h4.565a.571.571,0,1,1,0,1.141Zm0-2.282H10.917a.571.571,0,0,1,0-1.141h4.565a.571.571,0,0,1,0,1.141Zm0-2.282a.571.571,0,1,1,.571-.571A.571.571,0,0,1,15.482,142.847Z" transform="translate(0 -136)" fill="#9696b9"/>
      </g>
    </g>
    <g id="Group_14035" data-name="Group 14035" transform="translate(3.994 25.533)">
      <g id="Group_14034" data-name="Group 14034">
        <path id="Path_31631" data-name="Path 31631" d="M106.141,256a1.141,1.141,0,1,0,1.141,1.141A1.143,1.143,0,0,0,106.141,256Z" transform="translate(-105 -256)" fill="#9696b9"/>
      </g>
    </g>
    <g id="Group_14037" data-name="Group 14037" transform="translate(3.424 28.956)">
      <g id="Group_14036" data-name="Group 14036">
        <path id="Path_31632" data-name="Path 31632" d="M91.712,346A1.714,1.714,0,0,0,90,347.712v.571h3.424v-.571A1.714,1.714,0,0,0,91.712,346Z" transform="translate(-90 -346)" fill="#9696b9"/>
      </g>
    </g>
    <g id="Group_14040" data-name="Group 14040" transform="translate(12.124 17.773)">
      <path id="Union_66" data-name="Union 66" d="M2.767,6.659.211,3.932a.833.833,0,0,1,0-1.108l.584-.618a.723.723,0,0,1,1.046,0L3.287,3.749,6.63.224a.724.724,0,0,1,1.046,0L8.26.842a.832.832,0,0,1,0,1.108L4.479,5.936a.735.735,0,0,1-.082.105l-.583.618a.723.723,0,0,1-1.046,0Z" transform="translate(0 0)" fill="#9696b9"/>
    </g>
  </g>
</svg>
