<svg xmlns="http://www.w3.org/2000/svg" width="39" height="39" viewBox="0 0 39 39"><defs><style>.a{fill:#002cfa;}.b{fill:#fff;}</style></defs><g transform="translate(5.174 5.174)"><path class="a" d="M19.5,0A19.5,19.5,0,1,1,0,19.5,19.5,19.5,0,0,1,19.5,0Z" transform="translate(-5.174 -5.174)"/><path class="b" d="M13.662,1.421A4.858,4.858,0,0,0,5.6,6.354L.13,11.828A.442.442,0,0,0,0,12.14v2.5a.442.442,0,0,0,.442.442h2.5a.441.441,0,0,0,.312-.129l.625-.625a.442.442,0,0,0,.126-.363l-.078-.671.93-.088a.441.441,0,0,0,.4-.4l.088-.93.671.078a.435.435,0,0,0,.345-.109.443.443,0,0,0,.148-.33v-.823h.808a.441.441,0,0,0,.312-.129L8.762,9.445a4.785,4.785,0,0,0,4.9-1.15A4.866,4.866,0,0,0,13.662,1.421Zm-1.25,3.125a1.325,1.325,0,1,1,0-1.875A1.327,1.327,0,0,1,12.412,4.546Z" transform="translate(6.784 6.786)"/></g></svg>