<svg xmlns="http://www.w3.org/2000/svg" width="20.719" height="34.219" viewBox="0 0 20.719 34.219"><defs><style>.a{fill:#d7f3ff;}.b{fill:#a2e3ff;}.c{fill:#013b88;}.d{fill:#f470cb;}.e{fill:#006099;}.f{fill:#fff;}.g{fill:#f058c1;}.h{fill:#00295f;}.i{fill:#0078f0;}.j{fill:#385cf8;}</style></defs><path class="a" d="M20.719,3.873V30.347a3.876,3.876,0,0,1-3.872,3.872H3.872A3.876,3.876,0,0,1,0,30.347V3.873A3.877,3.877,0,0,1,3.872,0H16.846A3.877,3.877,0,0,1,20.719,3.873Zm0,0"/><path class="b" d="M165.815,3.873V30.347a3.876,3.876,0,0,1-3.872,3.872h-6.454V0h6.454A3.877,3.877,0,0,1,165.815,3.873Zm0,0" transform="translate(-145.096)"/><g transform="translate(0 2.699)"><path class="c" d="M20.719,425.328v1.92a3.876,3.876,0,0,1-3.872,3.872H3.872A3.876,3.876,0,0,1,0,427.248v-1.92Zm0,0" transform="translate(0 -399.6)"/><path class="d" d="M126.611,41.381a1,1,0,0,1-1,1h-2.375a1,1,0,0,1,0-2.005h2.375A1,1,0,0,1,126.611,41.381Zm0,0" transform="translate(-114.061 -40.379)"/><path class="e" d="M103.734,146.893v5.193a1,1,0,1,1-2.005,0v-1.54H97.915v1.54a1,1,0,1,1-2.005,0v-5.193a1,1,0,0,1,2.005,0v1.648h3.813v-1.648a1,1,0,0,1,2.005,0Zm0,0" transform="translate(-89.5 -138.839)"/></g><path class="f" d="M130.062,321.831a1,1,0,0,1-1,1H127.3a1,1,0,0,1,0-2.005h1.756A1,1,0,0,1,130.062,321.831Zm0,0" transform="translate(-117.86 -299.386)"/><path class="a" d="M156.3,322.833h-.808v-2.005h.808a1,1,0,1,1,0,2.005Zm0,0" transform="translate(-145.096 -299.386)"/><path class="g" d="M156.643,42.384h-1.155V40.379h1.155a1,1,0,1,1,0,2.005Zm0,0" transform="translate(-145.096 -37.68)"/><path class="h" d="M165.815,425.328v1.92a3.876,3.876,0,0,1-3.872,3.872h-6.454v-5.793Zm0,0" transform="translate(-145.096 -396.902)"/><g transform="translate(4.897 7.433)"><path class="i" d="M32.849,29.06V36.3l-2.431,2.425L28,36.3V35.139L29.14,34,28,32.86v-.3l.709-.709L28,31.145V29.059a5.441,5.441,0,0,0,4.849,0Z" transform="translate(-24.969 -18.719)"/><path class="j" d="M28.455,12a5.454,5.454,0,1,0,5.455,5.455A5.455,5.455,0,0,0,28.455,12Zm.018,3.637a.606.606,0,0,1-.007-1.212h.007a.606.606,0,0,1,0,1.212Z" transform="translate(-23 -12)"/></g></svg>
