<svg xmlns="http://www.w3.org/2000/svg" width="16" height="16" viewBox="0 0 16 16"><defs><style>.a{fill:#385cf8;}</style></defs><g transform="translate(-0.001 0.001)"><g transform="translate(0.001 0)"><path class="a" d="M14.493,1.507A5.154,5.154,0,0,0,5.945,6.741L.138,12.548A.468.468,0,0,0,0,12.879v2.652A.468.468,0,0,0,.47,16H3.122a.468.468,0,0,0,.331-.137l.663-.663a.469.469,0,0,0,.134-.385L4.168,14.1l.987-.093a.468.468,0,0,0,.423-.423L5.67,12.6l.712.083a.461.461,0,0,0,.366-.115.47.47,0,0,0,.157-.35v-.873h.857a.468.468,0,0,0,.331-.137L9.3,10.02a5.076,5.076,0,0,0,5.2-1.22A5.162,5.162,0,0,0,14.493,1.507ZM13.167,4.822a1.406,1.406,0,1,1,0-1.989A1.407,1.407,0,0,1,13.167,4.822Z" transform="translate(-0.001 0.001)"/></g></g></svg>
