<svg xmlns="http://www.w3.org/2000/svg" width="18.141" height="17.792" viewBox="0 0 18.141 17.792">
  <g id="legal-icon-inactive" transform="translate(-14.123 0.686)">
    <path id="Path_31493" data-name="Path 31493" d="M24.592,126.827c-.948-.833-1.408-1.539-1.408-2.161v-.036l.006-.036c.005-.032.061-.353.135-.769l-.914-.21-.07-.692a3.319,3.319,0,0,0,1.831-3.388,6.125,6.125,0,0,1-3.294.823,6.128,6.128,0,0,1-3.294-.823,3.32,3.32,0,0,0,1.831,3.388l-.07.692-3.475.8a.838.838,0,0,0-.736.9l.343,1.977a.9.9,0,0,0,.936.646h8.932a1.125,1.125,0,0,0,.517-.123A14.587,14.587,0,0,1,24.592,126.827Z" transform="translate(-1 -111.981)" fill="#9696b9"/>
    <path id="Path_31494" data-name="Path 31494" d="M39.356,5.386l.977.657C40.139,7.357,42,8.454,44.314,8.454s4.175-1.1,3.981-2.411l.977-.657a.579.579,0,0,0,.237-.628l-.564-2.141a1,1,0,0,0-.511-.635L44.768.109a1,1,0,0,0-.909,0L40.194,1.983a1,1,0,0,0-.511.635l-.564,2.141A.579.579,0,0,0,39.356,5.386ZM43.13,2.344a.238.238,0,0,1,.236-.2h1.912a.238.238,0,0,1,.236.207l.14,1.061c0,.53-.842,1.262-1.191,1.543a.238.238,0,0,1-.3,0c-.35-.281-1.191-1.013-1.191-1.543l.156-1.064Z" transform="translate(-24.667 -0.686)" fill="#9696b9"/>
    <path id="Path_31495" data-name="Path 31495" d="M178.083,163.7c-.145-.791-1.777-.993-3.977-1s-3.833.206-3.977,1c-.2,1.087-.645,4.372-.645,4.372,0,1.855,2.987,4.425,4.159,5.362a.742.742,0,0,0,.928,0c1.172-.937,4.158-3.506,4.158-5.361C178.728,168.069,178.281,164.784,178.083,163.7Zm-1.527,3.085a.358.358,0,0,1-.154-.035l-.841.941.128,1.256a.36.36,0,1,1-.411.356c0-.013,0-.025,0-.037l-1.173-.518-1.158.511a.36.36,0,1,1-.717.044.36.36,0,0,1,.293-.354l.128-1.258-.841-.941a.36.36,0,1,1,.159-.5l1.238-.268.632-1.087a.36.36,0,1,1,.534,0l.632,1.087,1.238.268a.36.36,0,1,1,.313.537Z" transform="translate(-146.464 -156.487)" fill="#9696b9"/>
  </g>
</svg>
