<svg xmlns="http://www.w3.org/2000/svg" width="16.004" height="16.071" viewBox="0 0 16.004 16.071"><defs><style>.a{fill:#385cf8;}</style></defs><g transform="translate(-5.486 -4.441)"><path class="a" d="M16.158,149.143a4.385,4.385,0,0,1,.8,1.135,4.137,4.137,0,0,1-.8,4.739l-3.571,3.6a4.154,4.154,0,0,1-5.874-5.874l2.537-2.537a4.732,4.732,0,0,0,.1,3.037l-1.068,1.068a1.975,1.975,0,0,0,0,2.737,1.914,1.914,0,0,0,2.737,0l3.571-3.571a1.936,1.936,0,0,0-1.368-3.3l1.8-1.8A4.011,4.011,0,0,1,16.158,149.143Z" transform="translate(0 -139.336)"/><path class="a" d="M135.631,15.146a4.385,4.385,0,0,1-.8-1.135,4.137,4.137,0,0,1,.8-4.739l3.571-3.6a4.154,4.154,0,0,1,5.874,5.874l-2.537,2.537a4.732,4.732,0,0,0-.1-3.037l1.068-1.068a1.975,1.975,0,0,0,0-2.737,1.914,1.914,0,0,0-2.737,0l-3.538,3.6a1.936,1.936,0,0,0,1.368,3.3l-1.8,1.8A4.55,4.55,0,0,1,135.631,15.146Z" transform="translate(-124.813)"/></g></svg>
