<svg xmlns="http://www.w3.org/2000/svg" width="12" height="18" viewBox="0 0 12 18"><defs><style>.a{fill:#385cf8;}</style></defs><path class="a" d="M70.884,7.88v-2.3a5.345,5.345,0,1,0-10.679,0V7.859a1.023,1.023,0,0,0-.66,1.023V17.3s.027.616.468.654c.187.018,5.532-.013,5.532-.013s4.014.139,5.676,0c.05,0,.324-.028.324-.663V8.882A1.021,1.021,0,0,0,70.884,7.88Zm-4.2,6.718a.152.152,0,0,1-.15.189H64.576a.152.152,0,0,1-.15-.189l.314-1.739a1.272,1.272,0,0,1-.39-.923,1.2,1.2,0,1,1,2.388,0,1.272,1.272,0,0,1-.37.9Zm2.358-6.829h-7V5.585a3.5,3.5,0,1,1,7,0Z" transform="translate(-59.544)"/></svg>
