<svg xmlns="http://www.w3.org/2000/svg" width="19.123" height="13.812" viewBox="0 0 19.123 13.812"><defs><style>.a{fill:#385cf8;}</style></defs><g transform="translate(-13.729 -13.002)"><g transform="translate(22.495 17.316)"><g transform="translate(0 0)"><path class="a" d="M10.2,162.261,7.613,160.1a.431.431,0,0,0-.708.331v1.295H.432a.432.432,0,0,0-.432.432v.863a.432.432,0,0,0,.432.432H6.905v1.295a.432.432,0,0,0,.249.391.438.438,0,0,0,.183.041.427.427,0,0,0,.276-.1l2.589-2.158a.431.431,0,0,0,0-.663Z" transform="translate(0 -160.002)"/></g></g><g transform="translate(13.729 13.002)"><g transform="translate(0 0)"><path class="a" d="M.863,0H12.947a.864.864,0,0,1,.863.863V5.18H12.084V1.727H1.726V12.086H12.084V8.633H13.81v4.316a.863.863,0,0,1-.863.863H.863A.862.862,0,0,1,0,12.949V.863A.863.863,0,0,1,.863,0Z" transform="translate(0 0)"/></g></g></g></svg>
