<?xml version="1.0" standalone="no"?>
<!DOCTYPE svg PUBLIC "-//W3C//DTD SVG 20010904//EN"
 "http://www.w3.org/TR/2001/REC-SVG-20010904/DTD/svg10.dtd">
<svg version="1.0" xmlns="http://www.w3.org/2000/svg"
 width="2255.000000pt" height="1025.000000pt" viewBox="0 0 2255.000000 1025.000000"
 preserveAspectRatio="xMidYMid meet">
<metadata>
Created by potrace 1.16, written by Peter Selinger 2001-2019
</metadata>
<g transform="translate(0.000000,1025.000000) scale(0.100000,-0.100000)"
fill="#000000" stroke="none">
<path d="M19540 10244 c-656 -62 -1196 -310 -1646 -759 -359 -357 -608 -772
-772 -1285 -66 -208 -108 -416 -147 -725 -11 -88 -14 -486 -4 -605 48 -602
218 -1115 523 -1573 118 -178 234 -322 369 -458 441 -445 922 -687 1537 -773
144 -21 632 -15 773 8 562 93 1000 311 1406 701 657 631 995 1489 968 2460
-11 385 -67 709 -182 1044 -274 799 -821 1426 -1520 1742 -328 149 -652 219
-1040 224 -121 2 -240 1 -265 -1z m375 -935 c321 -27 623 -133 862 -302 100
-71 285 -246 378 -357 360 -432 542 -1046 496 -1679 -38 -531 -189 -935 -488
-1306 -231 -288 -511 -486 -828 -588 -209 -67 -310 -82 -575 -82 -203 0 -251
3 -352 23 -414 79 -769 287 -1035 605 -355 426 -540 997 -520 1611 12 375 92
706 246 1021 117 239 234 399 421 578 283 272 671 446 1050 473 52 4 97 8 99
10 8 7 125 4 246 -7z"/>
<path d="M1750 10209 c-361 -43 -649 -168 -915 -398 -242 -211 -403 -493 -462
-811 -25 -137 -25 -452 1 -570 78 -359 294 -672 645 -937 41 -31 355 -224 698
-430 344 -205 653 -394 686 -420 94 -71 233 -209 297 -294 122 -163 180 -326
186 -519 3 -128 -5 -189 -42 -302 -67 -205 -261 -388 -489 -462 -143 -46 -365
-59 -549 -31 -420 63 -663 282 -881 793 l-67 159 -322 -149 c-176 -82 -363
-169 -415 -194 -51 -24 -97 -44 -101 -44 -24 0 -16 -31 40 -152 163 -352 325
-601 530 -812 158 -163 289 -261 476 -354 269 -135 520 -190 899 -199 256 -6
399 7 580 53 544 138 986 522 1168 1014 77 207 108 394 108 641 -1 310 -47
517 -172 779 -106 221 -239 400 -443 598 -149 144 -255 216 -1116 762 -379
241 -490 320 -606 435 -173 171 -219 292 -179 479 46 218 198 362 437 415 241
53 475 21 639 -88 121 -79 205 -177 328 -377 43 -71 83 -128 87 -127 5 1 193
92 417 202 342 169 408 204 402 219 -15 39 -178 305 -248 402 -306 431 -664
656 -1136 715 -122 15 -371 17 -481 4z"/>
<path d="M10230 7155 l0 -3035 1165 0 1165 0 0 470 0 470 -697 2 -698 3 -3
2563 -2 2562 -465 0 -465 0 0 -3035z"/>
<path d="M13100 9720 l0 -470 670 0 670 0 0 -2565 0 -2565 470 0 470 0 0 2565
0 2565 660 0 660 0 0 470 0 470 -1800 0 -1800 0 0 -470z"/>
<path d="M0 2650 l0 -160 60 0 60 0 0 160 0 160 -60 0 -60 0 0 -160z"/>
<path d="M6530 2650 l0 -160 60 0 60 0 0 160 0 160 -60 0 -60 0 0 -160z"/>
<path d="M11619 2318 l0 -493 -20 44 c-74 166 -237 295 -427 337 -112 25 -291
16 -397 -20 -257 -88 -412 -295 -461 -619 -19 -123 -14 -343 11 -457 64 -290
249 -499 493 -556 96 -23 275 -20 375 5 154 40 279 133 372 275 l50 77 3 -171
2 -170 60 0 60 0 0 1120 0 1120 -60 0 -60 0 -1 -492z m-439 -224 c268 -79 433
-350 433 -714 1 -441 -239 -741 -593 -740 -258 1 -468 162 -554 426 -44 136
-58 347 -32 494 55 307 206 490 451 544 84 19 214 14 295 -10z"/>
<path d="M12961 2230 c-265 -34 -433 -133 -522 -308 -26 -51 -35 -85 -53 -189
l-5 -33 179 0 179 0 16 58 c13 44 28 68 65 104 66 63 148 89 282 90 213 0 328
-74 328 -212 0 -69 -21 -114 -67 -144 -52 -34 -81 -40 -363 -81 -135 -19 -279
-44 -320 -56 -210 -58 -323 -179 -350 -371 -38 -275 115 -486 396 -544 102
-21 285 -14 399 15 96 26 203 75 266 124 l47 35 17 -44 c24 -63 77 -111 144
-131 62 -18 198 -14 286 9 l50 13 3 128 3 128 -36 -7 c-19 -3 -51 -3 -70 0
-65 13 -65 8 -65 538 0 282 -5 491 -11 517 -38 167 -175 285 -393 341 -94 24
-294 33 -405 20z m438 -1188 c-37 -135 -194 -227 -389 -226 -159 0 -271 49
-311 137 -23 51 -24 78 -4 145 38 127 128 172 410 207 137 17 233 38 275 60
l25 13 3 -146 c2 -92 -2 -163 -9 -190z"/>
<path d="M14754 2229 c-407 -67 -643 -384 -645 -864 0 -353 145 -622 406 -751
139 -68 193 -79 385 -79 144 0 174 3 240 24 275 85 420 260 494 594 l6 27
-180 0 -180 0 -6 -27 c-25 -116 -80 -210 -154 -266 -151 -114 -369 -97 -504
40 -97 98 -148 252 -148 449 0 380 160 580 460 576 103 -1 186 -35 254 -102
48 -48 60 -68 78 -128 l22 -72 179 0 179 0 -6 43 c-36 257 -215 447 -489 518
-89 23 -302 33 -391 18z"/>
<path d="M16514 2225 c-97 -17 -136 -31 -224 -76 -143 -74 -235 -170 -310
-324 -78 -159 -107 -316 -97 -515 17 -336 168 -587 422 -706 105 -49 177 -65
320 -71 204 -9 349 27 486 118 143 96 261 291 294 487 l7 42 -179 0 -179 0
-17 -70 c-34 -131 -127 -238 -240 -277 -76 -26 -205 -23 -279 6 -169 66 -278
275 -278 528 1 373 160 584 440 585 129 0 207 -30 281 -109 42 -45 89 -139 89
-178 0 -13 29 -15 180 -15 l180 0 0 23 c0 12 -7 50 -15 84 -52 223 -232 393
-478 454 -104 25 -304 33 -403 14z"/>
<path d="M18340 2233 c-349 -46 -593 -290 -671 -668 -18 -87 -15 -313 6 -410
65 -309 249 -516 531 -597 68 -19 102 -23 239 -23 122 1 175 5 225 19 142 39
278 123 368 228 46 54 126 208 137 266 l7 32 -169 0 -169 0 -27 -55 c-77 -158
-240 -236 -432 -208 -213 30 -346 180 -369 415 l-6 58 597 2 598 3 -1 140 c-2
119 -6 153 -28 228 -83 279 -273 476 -526 546 -74 21 -239 34 -310 24z m202
-295 c142 -31 275 -194 295 -360 l6 -48 -417 0 -417 0 6 38 c29 172 134 313
268 358 99 33 154 36 259 12z"/>
<path d="M19995 2232 c-302 -37 -498 -177 -535 -382 -33 -182 39 -351 189
-441 88 -53 151 -75 326 -115 291 -66 329 -76 384 -100 97 -43 141 -99 141
-179 0 -124 -113 -194 -325 -200 -216 -8 -352 70 -387 223 l-13 52 -177 0
-178 0 0 -38 c0 -21 7 -65 15 -97 51 -199 197 -333 430 -397 69 -18 107 -22
265 -22 141 0 201 4 252 17 238 59 393 175 454 341 15 39 19 77 19 166 0 104
-3 121 -27 172 -75 160 -228 244 -583 318 -248 52 -338 84 -387 136 -93 100
-43 213 111 254 68 18 221 15 286 -6 75 -23 140 -81 162 -145 l18 -49 187 0
188 0 -6 33 c-42 240 -220 403 -493 450 -77 13 -243 18 -316 9z"/>
<path d="M21639 2230 c-140 -17 -279 -68 -376 -139 -189 -138 -206 -463 -32
-626 90 -84 214 -133 484 -191 297 -63 382 -100 425 -183 39 -78 17 -162 -56
-213 -64 -44 -144 -62 -279 -62 -102 0 -129 4 -179 23 -98 39 -164 114 -184
208 -10 48 -15 49 -207 45 l-155 -3 0 -42 c0 -116 62 -248 158 -339 118 -110
275 -165 494 -175 435 -20 738 156 781 451 21 145 -16 269 -108 361 -93 93
-213 142 -506 205 -287 62 -378 100 -412 173 -55 115 23 201 203 226 191 26
351 -44 389 -169 l12 -40 184 0 185 0 0 28 c0 34 -28 120 -60 182 -52 102
-203 214 -340 253 -117 33 -277 43 -421 27z"/>
<path d="M1312 2200 c-172 -45 -319 -164 -388 -315 l-23 -50 0 175 -1 175 -60
-3 -60 -4 0 -804 0 -804 60 0 60 0 1 453 c0 494 2 536 30 646 56 219 190 366
393 429 33 10 89 16 156 16 178 1 300 -54 374 -167 36 -54 71 -159 80 -237 3
-25 5 -291 5 -592 l1 -548 61 0 60 0 -4 603 c-4 670 -3 665 -73 798 -62 117
-175 201 -316 234 -90 21 -265 19 -356 -5z"/>
<path d="M3075 2205 c-282 -53 -420 -221 -385 -468 19 -132 94 -230 224 -291
88 -42 137 -56 371 -106 213 -45 304 -75 374 -120 115 -73 158 -203 114 -339
-45 -140 -202 -225 -439 -238 -308 -16 -532 139 -577 402 l-11 65 -58 0 -58 0
0 -38 c0 -57 36 -186 67 -245 91 -169 291 -278 533 -290 310 -15 557 87 646
268 27 56 29 68 29 180 0 114 -2 123 -32 187 -67 143 -202 219 -483 273 -161
31 -335 77 -396 105 -126 57 -185 139 -186 256 -1 155 101 253 307 295 193 40
407 0 507 -95 71 -67 118 -170 118 -257 l0 -39 60 0 60 0 0 45 c0 114 -47 230
-126 311 -101 104 -254 154 -464 153 -69 0 -156 -7 -195 -14z"/>
<path d="M5057 2205 c-160 -41 -316 -167 -391 -315 l-36 -73 0 181 0 180 -56
4 c-31 1 -58 1 -60 -1 -2 -2 -4 -494 -4 -1093 l0 -1088 60 0 60 0 0 453 1 452
32 -65 c66 -136 212 -248 375 -286 88 -21 273 -21 372 0 314 67 501 321 529
719 9 120 8 142 -4 262 -33 315 -212 563 -472 651 -66 23 -99 28 -213 30 -96
3 -152 -1 -193 -11z m288 -100 c240 -50 403 -236 459 -520 43 -221 12 -481
-77 -649 -47 -88 -143 -186 -225 -228 -99 -52 -151 -63 -287 -63 -146 0 -232
23 -327 88 -169 115 -252 325 -252 637 0 162 8 223 50 350 96 295 358 448 659
385z"/>
<path d="M8924 2200 c-299 -78 -487 -342 -524 -733 -44 -465 164 -826 525
-913 101 -24 295 -22 398 5 211 55 371 202 442 408 13 37 27 87 31 111 l7 42
-59 0 -59 -1 -28 -86 c-64 -199 -194 -322 -395 -374 -323 -82 -621 99 -712
433 -16 62 -40 212 -40 255 0 10 131 13 656 13 l657 0 -6 103 c-16 264 -81
431 -223 573 -84 84 -197 145 -312 169 -102 21 -269 19 -358 -5z m359 -110
c215 -67 377 -286 405 -548 l8 -72 -588 0 -588 0 0 33 c0 33 29 149 49 202 86
216 256 372 441 404 75 13 196 5 273 -19z"/>
<path d="M52 2182 l-52 -3 0 -805 0 -804 60 0 60 0 0 804 c0 443 -3 806 -7
808 -5 2 -32 2 -61 0z"/>
<path d="M7333 2182 l-23 -3 0 -805 0 -804 60 0 60 0 0 428 c0 235 3 459 6
497 11 135 51 265 104 333 123 158 278 244 447 246 l73 1 0 58 0 57 -68 0
c-211 0 -446 -136 -528 -305 l-29 -60 -3 178 c-2 175 -3 177 -25 178 -12 0
-29 2 -37 3 -8 1 -25 0 -37 -2z"/>
<path d="M6530 1375 l0 -805 59 0 c48 0 60 3 63 17 2 9 2 371 0 805 l-2 788
-60 0 -60 0 0 -805z"/>
</g>
</svg>
