<svg xmlns="http://www.w3.org/2000/svg" width="38.232" height="26.31" viewBox="0 0 38.232 26.31"><defs><style>.a{fill:#013b88;}.b{fill:#f470cb;}.c{fill:#00295f;}.d{fill:#c4e6ff;}.e{fill:#385cf8;}.f{fill:#0379f0;}</style></defs><path class="a" d="M52.1,87.821H24.689a.955.955,0,0,1-.99-.914v-16.6H17.165a.916.916,0,1,1,0-1.827h7.523a.955.955,0,0,1,.99.913v16.6H52.1a.917.917,0,1,1,0,1.827Z" transform="translate(-14.854 -67.805)"/><path class="b" d="M7.248,59.451H1.728a1.6,1.6,0,1,0,0,3.188h5.52Z" transform="translate(0 -59.451)"/><ellipse class="c" cx="2.93" cy="2.703" rx="2.93" ry="2.703" transform="translate(27.864 20.905)"/><ellipse class="d" cx="1.32" cy="1.217" rx="1.32" ry="1.217" transform="translate(29.475 22.39)"/><ellipse class="c" cx="2.93" cy="2.703" rx="2.93" ry="2.703" transform="translate(13.352 20.905)"/><ellipse class="d" cx="1.32" cy="1.217" rx="1.32" ry="1.217" transform="translate(14.962 22.39)"/><path class="c" d="M248.374,72.217V70.331a.652.652,0,0,1,.676-.624h3.721a.652.652,0,0,1,.676.624v1.886h1.327V70.331a1.933,1.933,0,0,0-2-1.848H249.05a1.933,1.933,0,0,0-2,1.848v1.886Z" transform="translate(-226.877 -67.803)"/><path class="e" d="M192.11,108.333v10a1.748,1.748,0,0,1-1.813,1.672H173.969a1.749,1.749,0,0,1-1.816-1.672v-10a1.749,1.749,0,0,1,1.816-1.672H190.3A1.748,1.748,0,0,1,192.11,108.333Z" transform="translate(-158.098 -103.106)"/><path class="f" d="M205.515,108.333v10a1.748,1.748,0,0,1-1.813,1.672h-7.95l-.319-13.346H203.7A1.748,1.748,0,0,1,205.515,108.333Z" transform="translate(-171.503 -103.106)"/><rect class="a" width="1.327" height="13.346" transform="translate(28.827 3.555)"/><path class="c" d="M341.2,187.958H338.89a.7.7,0,0,0-.73.673v2.444a.705.705,0,0,0,.73.676H341.2a.707.707,0,0,0,.733-.676v-2.444A.705.705,0,0,0,341.2,187.958Zm.274,3.117a.265.265,0,0,1-.273.255h-.874v-.7l-.279-.37-.279.37v.7h-.876a.265.265,0,0,1-.274-.255v-2.444a.263.263,0,0,1,.274-.252H341.2a.263.263,0,0,1,.273.252v2.444Z" transform="translate(-310.552 -178.281)"/><rect class="a" width="1.327" height="13.346" transform="translate(17.91 3.555)"/><path class="c" d="M207.451,187.958h-2.307a.705.705,0,0,0-.733.673v2.444a.707.707,0,0,0,.733.676h2.307a.705.705,0,0,0,.73-.676v-2.444A.7.7,0,0,0,207.451,187.958Zm.273,3.117a.265.265,0,0,1-.274.255h-.876v-.7l-.279-.37-.279.37v.7h-.873a.265.265,0,0,1-.274-.255v-2.444a.263.263,0,0,1,.274-.252h2.307a.263.263,0,0,1,.274.252Z" transform="translate(-187.722 -178.281)"/></svg>
