<?xml version="1.0" encoding="utf-8"?>
<!-- Generator: Adobe Illustrator 24.3.0, SVG Export Plug-In . SVG Version: 6.00 Build 0)  -->
<svg version="1.1" id="Search-icn" xmlns="http://www.w3.org/2000/svg" xmlns:xlink="http://www.w3.org/1999/xlink" x="0px" y="0px"
	 viewBox="0 0 30.9 30.9" style="enable-background:new 0 0 30.9 30.9;" xml:space="preserve">
<style type="text/css">
	.st0{fill:none;}
	.st1{fill:#2960F5;}
</style>
<path id="Rectangle_176" class="st0" d="M0,0h30.9v30.9H0V0z"/>
<path id="Path_99" class="st1" d="M30.7,28l-6.4-6.4c1.8-2.3,2.7-5.2,2.7-8.1C27,6.1,21.1,0,13.7,0c-0.1,0-0.1,0-0.2,0
	C6.1,0,0,5.9,0,13.3c0,0.1,0,0.1,0,0.2C0,20.9,5.9,27,13.3,27c0.1,0,0.1,0,0.2,0c2.9,0,5.8-0.9,8.1-2.7l6.4,6.4L30.7,28z M3.9,13.5
	C3.8,8.2,8,3.9,13.3,3.9c0.1,0,0.1,0,0.2,0c5.3-0.1,9.6,4.2,9.6,9.5c0,0.1,0,0.1,0,0.2c0.1,5.3-4.2,9.6-9.5,9.6c-0.1,0-0.1,0-0.2,0
	c-5.3,0.1-9.6-4.2-9.6-9.5C3.9,13.6,3.9,13.6,3.9,13.5z"/>
</svg>
