<svg xmlns="http://www.w3.org/2000/svg" width="154" height="154" viewBox="0 0 154 154">
    <defs>
        <style>
            .prefix__cls-2{fill:#dbf0ff}.prefix__cls-4{fill:#d0ebff}.prefix__cls-6{fill:#e4eaf6}
        </style>
    </defs>
    <g id="prefix__plan-canceled-icon" transform="translate(-373.24 -222.656)">
        <circle id="prefix__Ellipse_778" cx="72.5" cy="72.5" r="72.5" data-name="Ellipse 778" transform="translate(377.24 226.656)" style="fill:#c4e6ff"/>
        <g id="prefix__individual-icon" transform="translate(403.285 253.275)">
            <path id="prefix__Path_19207" d="M256.07 151.634V139.02h-32.437v12.614l16.219 14.416z" class="prefix__cls-2" data-name="Path 19207" transform="translate(-192.998 -77.745)"/>
            <path id="prefix__Path_19208" d="M242.276 173.245L219.978 168a3.573 3.573 0 0 1-.937-.377l-18.061 10.534-17.357-11.045a3.586 3.586 0 0 1-1.641.886l-22.3 5.246a7.208 7.208 0 0 0-5.558 7.017v14.114c0 1.017 3.08-2.253 3.992-1.39.414.42-1.361 4.994-.388 4.994 0 0 16.837 13.82 43.249 14.077s43.249-14.077 43.249-14.077c.9 0-.9-2.7 0-3.6s3.6 1.087 3.6 0v-14.117a7.207 7.207 0 0 0-5.55-7.017z" data-name="Path 19208" transform="translate(-154.127 -93.456)" style="fill:#eff2fa"/>
            <path id="prefix__Path_19209" d="M223.633 139.02v13.309c20.431 7.361 32.437-11.062 32.437-11.062v-2.247z" class="prefix__cls-4" data-name="Path 19209" transform="translate(-192.998 -77.745)"/>
            <path id="prefix__Path_19210" d="M207.28 44.985l1.57 34.548a10.813 10.813 0 0 0 4.314 8.159l7.451 5.588a10.811 10.811 0 0 0 6.487 2.162h7.208a10.813 10.813 0 0 0 6.49-2.162l7.451-5.588a10.812 10.812 0 0 0 4.314-8.159l1.57-34.548z" data-name="Path 19210" transform="translate(-183.852 -25.158)" style="fill:#e8f5ff"/>
            <path id="prefix__Path_19211" d="M225.3 52.193c7.208 0 18.02-1.8 20.585-7.208H207.28l1.57 34.548a10.813 10.813 0 0 0 4.314 8.159l7.451 5.588a10.811 10.811 0 0 0 6.487 2.162h3.6c-3.6 0-10.812-7.208-10.812-16.219V57.6c.004-1.8 1.81-5.407 5.41-5.407z" class="prefix__cls-2" data-name="Path 19211" transform="translate(-183.852 -25.158)"/>
            <g id="prefix__Group_6977" data-name="Group 6977" transform="translate(.001 82.339)">
                <path id="prefix__Path_19212" d="M332.923 197.3l11.677-10.49a7.2 7.2 0 0 1 1.552 4.467v14.114c-1.627 1.778-2.4 2.864-3.6 3.6l-5.193 3.629-7.421 3.92V204a9.012 9.012 0 0 1 2.985-6.7z" class="prefix__cls-6" data-name="Path 19212" transform="translate(-252.446 -186.81)"/>
                <path id="prefix__Path_19213" d="M167.358 197.3l-11.677-10.49a7.2 7.2 0 0 0-1.552 4.467v14.651a23.626 23.626 0 0 0 3.6 3.066s3.115 2.332 6.174 4.118a55.822 55.822 0 0 0 6.063 3.023l.381-12.135a9.009 9.009 0 0 0-2.989-6.7z" class="prefix__cls-6" data-name="Path 19213" transform="translate(-154.129 -186.81)"/>
            </g>
            <g id="prefix__Group_6978" data-name="Group 6978" transform="translate(25.23 69.414)">
                <path id="prefix__Path_19216" d="M216.521 157.949l16.471 14.824a62.156 62.156 0 0 0-10.306 7.022 2.312 2.312 0 0 1-3.58-.81l-7.738-17.025 2.448-3.672a1.8 1.8 0 0 1 2.705-.339z" class="prefix__cls-6" data-name="Path 19216" transform="translate(-211.368 -157.487)"/>
                <path id="prefix__Path_19217" d="M276.9 157.949l-16.47 14.824a62.153 62.153 0 0 1 10.306 7.022 2.312 2.312 0 0 0 3.58-.81l7.738-17.025-2.448-3.672a1.8 1.8 0 0 0-2.706-.339z" class="prefix__cls-6" data-name="Path 19217" transform="translate(-238.805 -157.487)"/>
            </g>
            <path id="prefix__Path_19218" d="M285.216 16.479l1.689 11.939c7.712 1.542 8.823 13.645 8.983 17.1a3.555 3.555 0 0 0 .569 1.761l2.943 4.564S298.393 44.3 303 39.23c0-.001 1.588-29.96-17.784-22.751z" data-name="Path 19218" transform="translate(-227.437 -8.59)" style="fill:#00429a"/>
            <path id="prefix__Path_19219" d="M312.166 90.506l-2.035 8.14a2.167 2.167 0 0 1-2.1 1.641 2.167 2.167 0 0 1-2.15-1.9l-1.041-8.326a3.73 3.73 0 0 1 3.7-4.193h.007a3.73 3.73 0 0 1 3.619 4.638z" class="prefix__cls-2" data-name="Path 19219" transform="translate(-238.395 -48.023)"/>
            <path id="prefix__Path_19220" d="M201.935 4.661l2.665 1.821c-12.051 8.9-9.8 24.159-9.8 24.159 3.6 3.6 3.6 12.614 3.6 12.614l3.6-3.6s-1.391-10.411 5.406-14.416c6.307-3.717 11.826-1.8 17.457-1.8 15.092 0 19.315-5.688 18.583-12.614C243.079 7.234 237.6-.231 223.635.006c-5.635.094-16.218 1.802-21.7 4.655z" data-name="Path 19220" transform="translate(-176.781)" style="fill:#003a88"/>
            <path id="prefix__Path_19222" d="M199.215 90.506l2.035 8.14a2.167 2.167 0 0 0 2.1 1.641 2.167 2.167 0 0 0 2.15-1.9l1.041-8.326a3.73 3.73 0 0 0-3.7-4.193h-.007a3.73 3.73 0 0 0-3.619 4.638z" class="prefix__cls-4" data-name="Path 19222" transform="translate(-179.279 -48.023)"/>
            <path id="prefix__Path_19223" d="M293.487 228.967h-9.01a3.6 3.6 0 0 0-3.6 3.6h16.219a3.6 3.6 0 0 0-3.609-3.6z" class="prefix__cls-6" data-name="Path 19223" transform="translate(-225.008 -128.047)"/>
            <path id="prefix__Path_19732" d="M295.691 239.342h-13.472c-1.99 0-1.347-4.645-1.347-10.375h16.219c-.001 5.733.591 10.375-1.4 10.375z" data-name="Path 19732" transform="translate(-225.008 -125.047)" style="fill:#f7faff"/>
        </g>
        <g id="prefix__Ellipse_875" data-name="Ellipse 875" transform="translate(373.24 222.656)" style="stroke:#f4437a;stroke-width:15px;fill:none">
            <circle cx="77" cy="77" r="77" style="stroke:none"/>
            <circle cx="77" cy="77" r="69.5" style="fill:none"/>
        </g>
    </g>
</svg>
