<svg xmlns="http://www.w3.org/2000/svg" width="21" height="20" viewBox="0 0 21 20"><defs><style>.a{fill:#fff;}</style></defs><g transform="translate(0 -1)"><path class="a" d="M18.375,1H2.625A2.835,2.835,0,0,0,0,4v6.37A3.43,3.43,0,0,0,3.177,14a3,3,0,0,0,2.357-1.22A3.191,3.191,0,0,0,7.99,14a3.2,3.2,0,0,0,2.51-1.3,3.079,3.079,0,0,0,4.966.077A3,3,0,0,0,17.823,14,3.43,3.43,0,0,0,21,10.37V4A2.835,2.835,0,0,0,18.375,1ZM4.6,10.13v.239A1.54,1.54,0,0,1,3.177,12,1.538,1.538,0,0,1,1.75,10.37V7H4.6Zm5.022,0A1.767,1.767,0,0,1,7.99,12a1.767,1.767,0,0,1-1.636-1.87V7H9.625Zm5.022,0A1.767,1.767,0,0,1,13.01,12a1.767,1.767,0,0,1-1.635-1.87V7h3.272Zm4.6.24A1.54,1.54,0,0,1,17.823,12,1.54,1.54,0,0,1,16.4,10.37V7H19.25Z"/><path class="a" d="M19.25,15.757V20a.945.945,0,0,1-.875,1H2.625a.945.945,0,0,1-.875-1V15.757A4.782,4.782,0,0,1,0,14.666V20a2.835,2.835,0,0,0,2.625,3h15.75A2.835,2.835,0,0,0,21,20V14.666A4.769,4.769,0,0,1,19.25,15.757Z" transform="translate(0 -2)"/></g></svg>