<svg xmlns="http://www.w3.org/2000/svg" width="49.853" height="52.45" viewBox="0 0 49.853 52.45">
    <defs>
        <style>
            .prefix__cls-1{fill:#198dfa}
        </style>
    </defs>
    <g id="prefix__money" transform="translate(-9.491 -.063)">
        <g id="prefix__Group_11010" data-name="Group 11010" transform="translate(9.491 .063)">
            <path id="prefix__Path_24847" d="M138.081 102.057a3.083 3.083 0 00-.459-1.626l-2.922-4.707a5.155 5.155 0 01-.551-2.334v-14.5A17.046 17.046 0 00117.1 61.841h-7.868a17.046 17.046 0 00-17.045 17.046v14.5a5.151 5.151 0 01-.551 2.334l-2.924 4.707a3.082 3.082 0 00-.459 1.626 3.067 3.067 0 003.055 3.055h43.717a3.067 3.067 0 003.056-3.052z" class="prefix__cls-1" data-name="Path 24847" transform="translate(-88.253 -52.662)"/>
            <path id="prefix__Path_24848" d="M199.759 9.242l6.556-9.179h-20.98l6.556 9.179v2.623h7.868z" class="prefix__cls-1" data-name="Path 24848" transform="translate(-170.911 -.063)"/>
        </g>
        <path id="prefix__Path_24849" d="M223.06 138l-2.924-4.707a5.155 5.155 0 01-.551-2.334v-14.5a17.042 17.042 0 00-3.58-10.49c-3.5 19.289-15.827 30.408-27.405 36.715h31.864a3.069 3.069 0 002.622-4.684z" data-name="Path 24849" transform="translate(-164.2 -90.17)" style="fill:#0379f0"/>
        <path id="prefix__Path_24850" d="M224.84 149.138v-.838a4.419 4.419 0 00-4.406-4.406h-.839v-2.624h-2.622v2.623h-.839a4.406 4.406 0 00-1.547 8.536l2.386.892v5h-.839a1.784 1.784 0 01-1.783-1.783v-.839h-2.623v.839a4.419 4.419 0 004.406 4.406h4.3a4.406 4.406 0 001.547-8.536l-2.386-.892v-5h.839a1.784 1.784 0 011.783 1.783v.839zm-3.776 5.717a1.81 1.81 0 011.154 1.678 1.784 1.784 0 01-1.783 1.783h-.839V154.3zm-4.091-4.327l-1.469-.551a1.81 1.81 0 01-1.154-1.678 1.784 1.784 0 011.783-1.783h.839z" data-name="Path 24850" transform="translate(-183.879 -120.227)" style="fill:#e3faff"/>
    </g>
</svg>
