<svg xmlns="http://www.w3.org/2000/svg" width="12.663" height="13.635" viewBox="0 0 12.663 13.635">
  <g id="monthly-calendar" transform="translate(-12.885)">
    <g id="Group_13741" data-name="Group 13741" transform="translate(12.885)">
      <g id="Group_13740" data-name="Group 13740">
        <path id="Path_31461" data-name="Path 31461" d="M24.606,1.65H23.57V.942A.942.942,0,0,0,22.628,0H22.59a.942.942,0,0,0-.942.942V1.65H16.786V.942A.942.942,0,0,0,15.844,0h-.038a.942.942,0,0,0-.942.942V1.65H13.827a.942.942,0,0,0-.942.942v10.1a.942.942,0,0,0,.942.942H24.606a.942.942,0,0,0,.942-.942V2.592A.942.942,0,0,0,24.606,1.65Zm-.641,10.5h-9.5V4.5h9.5Z" transform="translate(-12.885)" fill="#9696b9"/>
        <path id="Path_31462" data-name="Path 31462" d="M85.287,161.577h1.639a.151.151,0,0,0,.151-.151v-1.639a.151.151,0,0,0-.151-.151H85.287a.151.151,0,0,0-.151.151v1.639A.151.151,0,0,0,85.287,161.577Z" transform="translate(-82.413 -153.62)" fill="#9696b9"/>
        <path id="Path_31463" data-name="Path 31463" d="M155.287,161.577h1.639a.151.151,0,0,0,.151-.151v-1.639a.151.151,0,0,0-.151-.151h-1.639a.151.151,0,0,0-.151.151v1.639A.151.151,0,0,0,155.287,161.577Z" transform="translate(-149.775 -153.62)" fill="#9696b9"/>
        <path id="Path_31464" data-name="Path 31464" d="M225.287,161.577h1.639a.151.151,0,0,0,.151-.151v-1.639a.151.151,0,0,0-.151-.151h-1.639a.151.151,0,0,0-.151.151v1.639A.151.151,0,0,0,225.287,161.577Z" transform="translate(-217.137 -153.62)" fill="#9696b9"/>
        <path id="Path_31465" data-name="Path 31465" d="M85.287,231.577h1.639a.151.151,0,0,0,.151-.151v-1.639a.151.151,0,0,0-.151-.151H85.287a.151.151,0,0,0-.151.151v1.639A.151.151,0,0,0,85.287,231.577Z" transform="translate(-82.413 -220.981)" fill="#9696b9"/>
        <path id="Path_31466" data-name="Path 31466" d="M155.287,231.577h1.639a.151.151,0,0,0,.151-.151v-1.639a.151.151,0,0,0-.151-.151h-1.639a.151.151,0,0,0-.151.151v1.639A.151.151,0,0,0,155.287,231.577Z" transform="translate(-149.775 -220.981)" fill="#9696b9"/>
        <path id="Path_31467" data-name="Path 31467" d="M225.287,231.577h1.639a.151.151,0,0,0,.151-.151v-1.639a.151.151,0,0,0-.151-.151h-1.639a.151.151,0,0,0-.151.151v1.639A.151.151,0,0,0,225.287,231.577Z" transform="translate(-217.137 -220.981)" fill="#9696b9"/>
      </g>
    </g>
  </g>
</svg>
