<svg xmlns="http://www.w3.org/2000/svg" width="29.208" height="25.119" viewBox="0 0 29.208 25.119"><defs><style>.a,.c{fill:none;stroke:#fff;stroke-width:1.5px;}.b{fill:#365af8;}.c{stroke-linecap:round;}</style></defs><g transform="translate(-1018.059 -117.146)"><g transform="translate(1016.085 118.068)"><path class="a" d="M14.072,10.117a3.059,3.059,0,1,0-3.059-3.059A3.068,3.068,0,0,0,14.072,10.117Zm0,1.529c-2.065,0-6.117.994-6.117,3.059v1.529H20.189V14.705C20.189,12.641,16.137,11.647,14.072,11.647Z" transform="translate(-5.23 -1.234)"/></g><g transform="translate(1022.148 115.131)"><path class="b" d="M17.04,13.086A4.543,4.543,0,1,0,12.5,8.543,4.556,4.556,0,0,0,17.04,13.086Zm0,2.271c-3.067,0-9.086,1.476-9.086,4.543v2.271H26.126V19.9C26.126,16.834,20.107,15.357,17.04,15.357Z" transform="translate(-5.23 -1.234)"/><path class="a" d="M17.04,13.086A4.543,4.543,0,1,0,12.5,8.543,4.556,4.556,0,0,0,17.04,13.086Zm0,2.271c-3.067,0-9.086,1.476-9.086,4.543v2.271H26.126V19.9C26.126,16.834,20.107,15.357,17.04,15.357Z" transform="translate(-5.23 -1.234)"/></g><circle class="b" cx="5.024" cy="5.024" r="5.024" transform="translate(1035 129.951)"/><g transform="translate(1037.625 132.625)"><line class="c" y2="8.891" transform="translate(4.371)"/><line class="c" y2="8.892" transform="translate(8.892 4.707) rotate(90)"/></g></g></svg>