<svg xmlns="http://www.w3.org/2000/svg" width="31.182" height="31.182" viewBox="0 0 31.182 31.182"><defs><style>.a{fill:#385cf8;}.b{fill:#0074ea;}.c{fill:#46a2ff;}.d{fill:#161643;}</style></defs><g transform="translate(-47.874 -72.229)"><path class="a" d="M15.591,0A15.591,15.591,0,1,1,0,15.591,15.591,15.591,0,0,1,15.591,0Z" transform="translate(47.874 72.229)"/><path class="b" d="M49.82,87.82A15.589,15.589,0,0,1,64.437,72.262c-.321-.02-.645-.033-.972-.033a15.591,15.591,0,1,0,0,31.181c.327,0,.651-.014.973-.033A15.589,15.589,0,0,1,49.82,87.82Z"/><path class="c" d="M137.618,87.82A15.589,15.589,0,0,0,123,72.262c.321-.02.645-.033.972-.033a15.591,15.591,0,1,1,0,31.181c-.327,0-.651-.014-.973-.033A15.589,15.589,0,0,0,137.618,87.82Z" transform="translate(-60.508)"/><path class="d" d="M80.148,124.581a1.07,1.07,0,1,0,1.513-1.513l-1.644-1.644,1.644-1.644a1.07,1.07,0,1,0-1.513-1.513L78.5,119.91l-1.644-1.644a1.07,1.07,0,1,0-1.513,1.513l1.644,1.644-1.644,1.644a1.07,1.07,0,1,0,1.513,1.513l1.644-1.644Z" transform="translate(-21.875 -36.827)"/><path class="d" d="M150.277,121.423l1.644-1.644a1.07,1.07,0,1,0-1.513-1.513l-1.644,1.644-1.644-1.644a1.07,1.07,0,1,0-1.513,1.513l1.644,1.644-1.644,1.644a1.07,1.07,0,1,0,1.513,1.513l1.644-1.644,1.644,1.644a1.07,1.07,0,1,0,1.513-1.513Z" transform="translate(-78.463 -36.827)"/><path class="d" d="M105.7,173.439a5.964,5.964,0,0,0-5.261,3.149,1.07,1.07,0,1,0,1.886,1.012,3.829,3.829,0,0,1,6.75,0,1.07,1.07,0,1,0,1.886-1.012A5.964,5.964,0,0,0,105.7,173.439Z" transform="translate(-42.23 -81.517)"/></g></svg>
