<svg xmlns="http://www.w3.org/2000/svg" width="21" height="21" viewBox="0 0 21 21"><defs><style>.a,.b{fill:#2148ff;}.a{opacity:0.005;}.c{fill:#efeff8;}.d{fill:#f0f0f8;}</style></defs><g transform="translate(-11.332 -5)"><rect class="a" width="21" height="21" transform="translate(11.332 5)"/><g transform="translate(-1009.54 -111.448)"><g transform="translate(1022.366 118.501)"><path class="b" d="M12453.936-4741.766l-1.083-1.048a.509.509,0,0,0-.435-.141l-1.492.209a1.692,1.692,0,0,1-.222.016,1.534,1.534,0,0,1-1.514-1.276l-.263-1.486a.514.514,0,0,0-.27-.369l-1.329-.707a1.538,1.538,0,0,1-.663-2.042l.66-1.352a.52.52,0,0,0,0-.459l-.66-1.352a1.538,1.538,0,0,1,.663-2.042l1.329-.707a.518.518,0,0,0,.27-.372l.263-1.482a1.532,1.532,0,0,1,1.735-1.261l1.492.209a.518.518,0,0,0,.435-.141l1.083-1.048a1.54,1.54,0,0,1,2.148,0l1.082,1.048a.521.521,0,0,0,.436.141l1.491-.209a1.533,1.533,0,0,1,1.736,1.261l.263,1.482a.508.508,0,0,0,.27.372l1.329.707a1.535,1.535,0,0,1,.663,2.042l-.66,1.352a.52.52,0,0,0,0,.459l.66,1.352a1.536,1.536,0,0,1-.663,2.042l-1.329.707a.5.5,0,0,0-.27.369l-.263,1.486a1.536,1.536,0,0,1-1.736,1.26l-1.491-.209a.512.512,0,0,0-.436.141l-1.082,1.048a1.538,1.538,0,0,1-1.073.435A1.543,1.543,0,0,1,12453.936-4741.766Z" transform="translate(-12446.507 4759.053)"/><g transform="translate(4.619 4.977)"><g transform="translate(0)"><path class="c" d="M151.41,143.941a.511.511,0,0,0-.723,0l-6.746,6.746a.511.511,0,1,0,.723.723l6.746-6.746A.511.511,0,0,0,151.41,143.941Z" transform="translate(-143.791 -143.791)"/></g></g><g transform="translate(4.585 4.262)"><g transform="translate(0)"><path class="d" d="M144.676,123.116a1.874,1.874,0,1,0,1.874,1.874A1.876,1.876,0,0,0,144.676,123.116Zm0,2.726a.852.852,0,1,1,.852-.852A.853.853,0,0,1,144.676,125.842Z" transform="translate(-142.802 -123.116)"/></g></g><g transform="translate(8.673 9.713)"><path class="d" d="M262.8,280.61a1.874,1.874,0,1,0,1.874,1.874A1.876,1.876,0,0,0,262.8,280.61Zm0,2.726a.852.852,0,1,1,.852-.852A.853.853,0,0,1,262.8,283.336Z" transform="translate(-260.922 -280.61)"/></g></g></g></g></svg>