<svg xmlns="http://www.w3.org/2000/svg" width="20.634" height="21.504" viewBox="0 0 20.634 21.504"><defs><style>.a{fill:#fff;}</style></defs><g transform="translate(-1022.366 -118.501)"><g transform="translate(1012.007 118.503)"><g transform="translate(10.359 -0.002)"><g transform="translate(0 0)"><path class="a" d="M30,11.029a.63.63,0,0,1,0-.557l.8-1.641a1.867,1.867,0,0,0-.805-2.479L28.381,5.5a.63.63,0,0,1-.327-.451l-.316-1.8A1.867,1.867,0,0,0,25.63,1.715l-1.808.256a.63.63,0,0,1-.53-.172L21.979.528a1.867,1.867,0,0,0-2.607,0L18.06,1.8a.63.63,0,0,1-.53.172l-1.808-.256a1.867,1.867,0,0,0-2.109,1.532l-.316,1.8a.63.63,0,0,1-.327.451l-1.613.856a1.867,1.867,0,0,0-.805,2.479l.8,1.641a.63.63,0,0,1,0,.557l-.8,1.641a1.867,1.867,0,0,0,.805,2.479L12.97,16a.63.63,0,0,1,.327.451l.316,1.8a1.866,1.866,0,0,0,1.84,1.551,1.918,1.918,0,0,0,.269-.019l1.808-.256a.63.63,0,0,1,.53.172l1.313,1.27a1.867,1.867,0,0,0,2.606,0l1.313-1.27a.631.631,0,0,1,.53-.172l1.808.256a1.867,1.867,0,0,0,2.109-1.532l.316-1.8A.63.63,0,0,1,28.381,16l1.613-.856a1.867,1.867,0,0,0,.805-2.479Zm-.585,3.024-1.613.856a1.863,1.863,0,0,0-.968,1.332l-.315,1.8a.632.632,0,0,1-.713.518L24,18.3a1.862,1.862,0,0,0-1.566.509l-1.313,1.27a.632.632,0,0,1-.882,0l-1.313-1.27a1.861,1.861,0,0,0-1.3-.528,1.9,1.9,0,0,0-.267.019l-1.808.256a.632.632,0,0,1-.713-.518l-.316-1.8a1.862,1.862,0,0,0-.968-1.332l-1.613-.856a.632.632,0,0,1-.273-.839l.8-1.641a1.863,1.863,0,0,0,0-1.646l-.8-1.641a.632.632,0,0,1,.273-.839l1.613-.856a1.863,1.863,0,0,0,.968-1.332l.316-1.8a.632.632,0,0,1,.713-.518l1.808.256a1.863,1.863,0,0,0,1.566-.509l1.313-1.27a.632.632,0,0,1,.882,0l1.313,1.27A1.862,1.862,0,0,0,24,3.2L25.8,2.943a.632.632,0,0,1,.713.518l.315,1.8A1.862,1.862,0,0,0,27.8,6.592l1.613.856a.632.632,0,0,1,.273.839l-.8,1.641a1.863,1.863,0,0,0,0,1.646l.8,1.641A.632.632,0,0,1,29.413,14.053Z" transform="translate(-10.359 0.002)"/></g></g><g transform="translate(15.963 6.037)"><g transform="translate(0)"><path class="a" d="M153.035,143.973a.62.62,0,0,0-.877,0l-8.185,8.185a.62.62,0,1,0,.877.877l8.185-8.185A.62.62,0,0,0,153.035,143.973Z" transform="translate(-143.791 -143.791)"/></g></g><g transform="translate(15.922 5.169)"><g transform="translate(0)"><path class="a" d="M145.076,123.116a2.274,2.274,0,1,0,2.274,2.274A2.276,2.276,0,0,0,145.076,123.116Zm0,3.307a1.034,1.034,0,1,1,1.034-1.034A1.035,1.035,0,0,1,145.076,126.423Z" transform="translate(-142.802 -123.116)"/></g></g><g transform="translate(20.883 11.784)"><path class="a" d="M263.2,280.61a2.274,2.274,0,1,0,2.274,2.274A2.276,2.276,0,0,0,263.2,280.61Zm0,3.307a1.034,1.034,0,1,1,1.034-1.034A1.035,1.035,0,0,1,263.2,283.917Z" transform="translate(-260.922 -280.61)"/></g></g></g></svg>