<svg xmlns="http://www.w3.org/2000/svg" xmlns:xlink="http://www.w3.org/1999/xlink" width="54.123" height="71.863" viewBox="0 0 54.123 71.863"><defs><style>.a{fill:#ffc400;}.b{fill:#e3af00;}.c{fill:#ff2467;}.d{fill:#dc4955;}.e{fill:#f5004b;}.f{fill:#f48931;}.g{filter:url(#a);}</style><filter id="a" x="0" y="0" width="54.123" height="71.863" filterUnits="userSpaceOnUse"><feOffset dy="4" input="SourceAlpha"/><feGaussianBlur stdDeviation="2.5" result="b"/><feFlood flood-opacity="0.161"/><feComposite operator="in" in2="b"/><feComposite in="SourceGraphic"/></filter></defs><g transform="translate(-70.039 3.497)"><g class="g" transform="matrix(1, 0, 0, 1, 70.04, -3.5)"><path class="a" d="M19441.723,21783.838a31.375,31.375,0,0,1-.848-4.223,28.928,28.928,0,0,1,7.779-23.447.2.2,0,0,1,.346.141,10.315,10.315,0,0,0,.158,1.85,10.621,10.621,0,0,0,2.3,5.27.312.312,0,0,0,.258.092h0a.324.324,0,0,0,.146-.047l.006,0s0,0,.006,0a.254.254,0,0,0,.1-.164c.133-.562.307-1.176.5-1.789v-.006c.033-.1.066-.2.1-.295v.006a19.127,19.127,0,0,1,.721-1.859c1.139-3.064,3.852-5.312,5.668-7.266,1.439-1.762,3.047-4.826,3.678-10.5a.3.3,0,0,1,.514-.182c.547.559,1.066,1.139,1.57,1.734.191.23.383.461.568.7.066.088.137.176.2.262.016.018.027.033.037.045a35.164,35.164,0,0,1,7.15,19.82,29.788,29.788,0,0,1-.17,4.432.491.491,0,0,0,.045.279.284.284,0,0,0,.221.158l0-.006c.553-.006,1.629-1.74,2.221-2.877a.241.241,0,0,1,.027-.061c.055-.109.1-.209.152-.3a.049.049,0,0,1,.012-.027.619.619,0,0,1,.033-.072,2.5,2.5,0,0,0,.18-.471,13.8,13.8,0,0,0,.656-2.285c.318-.711,1.063,1.373,1.51,2.619.137.373.246.674.307.8a31.07,31.07,0,0,1,1.576,14.908,19.34,19.34,0,0,1-17.873,17.041l-.131.012-.115.01h.006c-.207.023-.406.027-.58.031-.254.012-.506.018-.76.018A19.288,19.288,0,0,1,19441.723,21783.838Zm36.551-26.516a6.5,6.5,0,0,1-2.713-3.6,3.915,3.915,0,0,1-.1-.871c0-.021,0-.043,0-.064a7.236,7.236,0,0,1,1.072-3.445.231.231,0,0,1,.324-.072,7.375,7.375,0,0,1,2.23,2.348v-.006a4.761,4.761,0,0,1,.482,1.248,6.48,6.48,0,0,1-.979,4.387.23.23,0,0,1-.2.109A.217.217,0,0,1,19478.273,21757.322Zm-27.014-7a7.455,7.455,0,0,1-1-4.764,5.538,5.538,0,0,1,.412-1.271c.008-.02.016-.039.025-.059a8.371,8.371,0,0,1,2.232-2.752.232.232,0,0,1,.344.066,8.28,8.28,0,0,1,1.078,3.457,5.307,5.307,0,0,1-.082,1.307,7.457,7.457,0,0,1-2.67,4.076.225.225,0,0,1-.145.051A.22.22,0,0,1,19451.26,21750.318Z" transform="translate(-19433.16 -21737.82)"/></g><path class="a" d="M120.535,33.238c-.062-.127-.17-.427-.3-.8-.45-1.25-1.311-1.112-1.311-1.112s.175.293-.117,1.051c-.088.519-3.053,4.373-3.59,3.38a.468.468,0,0,1-.046-.277,29.46,29.46,0,0,0,.17-4.431,35.148,35.148,0,0,0-7.148-19.819l-.037-.046-.207-.265h0q-.28-.354-.569-.7c-.5-.6-.754-.091-1.3-.649a.3.3,0,0,0-.517.18c-.631,5.682-1.961,7.865-3.4,9.629-1.82,1.949-4.587,4.238-5.725,7.3a24.278,24.278,0,0,0-1.812,3.7.309.309,0,0,1-.521.127,10.594,10.594,0,0,1-2.3-5.27c-.113-.661-.528-.143-.518-.7a.2.2,0,0,0-.344-.14c-5.84,5.806-7.662,13.878-6.6,22.349a30.263,30.263,0,0,0,.584,4.147c1.182,4.6,4.377,8.163,8.061,10.749,3.321,2.33,6.961,3.936,11.248,3.546h0c9.44-.7,16.548-7.656,17.878-17.037a31.106,31.106,0,0,0-1.579-14.912Z" transform="translate(-5.775 -8.395)"/><g transform="translate(77.54 14.794)"><path class="b" d="M98.028,171.351A19.225,19.225,0,0,1,78.6,157.043a31.562,31.562,0,0,1-.849-4.222c-1.06-8.471,1.941-17.638,7.781-23.444a.2.2,0,0,1,.344.14,10.053,10.053,0,0,0,.159,1.846,29.279,29.279,0,0,0-6,21.458,31.562,31.562,0,0,0,.849,4.222A19.344,19.344,0,0,0,98.028,171.351Z" transform="translate(-77.54 -129.317)"/><path class="b" d="M358.22,240.741l.031,0h-.032Z" transform="translate(-326.109 -227.994)"/><path class="b" d="M188.46,148.791c-.176.341-.339.682-.49,1.019v0C188.12,149.471,188.282,149.131,188.46,148.791Z" transform="translate(-175.336 -146.563)"/></g><path class="c" d="M164.216,188.994c-.252-.641-.321-.831-.477-1.149a.132.132,0,0,0-.248.032,6.085,6.085,0,0,1-.317,1.263,6.633,6.633,0,0,1-1.722,2.328.2.2,0,0,1-.289-.019.264.264,0,0,1-.043-.15,22.615,22.615,0,0,0-4.561-15.959l-.024-.029-.045-.058a15.677,15.677,0,0,0-1.368-1.453.2.2,0,0,0-.339.118c-.414,3.721-1.077,5.686-2.018,6.842-.916,1.126-1.857,1.439-2.907,3.046a12.565,12.565,0,0,0-1.767,3.992c-.038.156-.652.29-.757.168a6.1,6.1,0,0,1-.957-1.527,7.35,7.35,0,0,1-.44-1.332c-.165-.718-.4-.843-.4-1.288a.132.132,0,0,0-.226-.091c-4.073,4.049-5.277,9.9-4.167,15.734,1.546,8.124,7.762,11.282,12.268,11.211.2,0,.448.037.712.016,2.782-.216,8.924-1.641,11.178-9.406a19.026,19.026,0,0,0-.607-11.4A5.545,5.545,0,0,0,164.216,188.994Z" transform="translate(-55.978 -153.865)"/><path class="d" d="M205.336,275.831l-.4,1.03C205.052,276.527,205.184,276.181,205.336,275.831Z" transform="translate(-112.825 -244.276)"/><path class="e" d="M150.479,283.7c-.289.032-.567.025-.773.04a13.172,13.172,0,0,1-12.852-11.081,18.925,18.925,0,0,1,4.927-16.428.131.131,0,0,1,.225.091,8.514,8.514,0,0,0,.21,1.8,19.176,19.176,0,0,0-3.3,14.534A13.261,13.261,0,0,0,150.479,283.7Z" transform="translate(-52.257 -226.887)"/><path class="c" d="M165.961,5.788a5.928,5.928,0,0,1-2.341,3.636.228.228,0,0,1-.341-.065,5.787,5.787,0,0,1-.881-4.2,6.041,6.041,0,0,1,.238-1.414A8.33,8.33,0,0,1,164.866.994a.228.228,0,0,1,.341.065,8.257,8.257,0,0,1,1.08,3.455,5.811,5.811,0,0,1-.326,1.274Z" transform="translate(-75.063 -0.836)"/><path class="e" d="M164.726,26.667a7.472,7.472,0,0,1-2.669,4.077.228.228,0,0,1-.341-.064,7.463,7.463,0,0,1-1-4.765,5.463,5.463,0,0,1,.493-1.435,8.258,8.258,0,0,0,1.079,3.454.228.228,0,0,0,.341.064,8.37,8.37,0,0,0,2.176-2.64A5.352,5.352,0,0,1,164.726,26.667Z" transform="translate(-73.582 -21.681)"/><path class="c" d="M385.652,72.866a5.281,5.281,0,0,1-.915,3.972.228.228,0,0,1-.322.07,6.952,6.952,0,0,1-2.684-4.147,7.131,7.131,0,0,1,1.073-3.447.228.228,0,0,1,.322-.07,7.425,7.425,0,0,1,2.229,2.345A4.5,4.5,0,0,1,385.652,72.866Z" transform="translate(-269.392 -61.288)"/><path class="e" d="M384.862,95.684a.229.229,0,0,1-.321.07,6.485,6.485,0,0,1-2.711-3.592,4.376,4.376,0,0,1-.089-1.157,7.412,7.412,0,0,0,2.229,2.346.229.229,0,0,0,.321-.07,7.267,7.267,0,0,0,1.066-3.231,4.506,4.506,0,0,1,.483,1.246A6.468,6.468,0,0,1,384.862,95.684Z" transform="translate(-269.394 -79.749)"/><path class="e" d="M208.626,173.272a11.378,11.378,0,0,1-2.175,5.29c-.916,1.126-1.764,1.491-2.815,3.1a14.592,14.592,0,0,0-1.289,2.869,2.286,2.286,0,0,1-2.15,1.523l-.578,0c.391-.177.348-1.112.609-1.584a13.076,13.076,0,0,1,1.349-2.81c1.051-1.606,1.9-1.971,2.815-3.1.94-1.155,1.993-3.16,2.407-6.881a.2.2,0,0,1,.339-.118c.46.472.9.969,1.312,1.486l.176.223Z" transform="translate(-108.114 -151.884)"/><path class="e" d="M324.044,295.685c-.013.025-.028.05-.043.076a3.218,3.218,0,0,1-2.782,1.563h-.529a.183.183,0,0,0,.117-.054,6.732,6.732,0,0,0,1.574-2.457,9.332,9.332,0,0,0,.382-1.269v0c.017-.078.033-.154.048-.225a.132.132,0,0,1,.247-.033c.157.319.386.816.638,1.455h0C323.81,295.026,323.928,295.343,324.044,295.685Z" transform="translate(-215.333 -259.666)"/><path class="f" d="M358.251,240.743h-.032v0Z" transform="translate(-248.57 -213.201)"/><g transform="translate(88.59 0)"><path class="b" d="M185.068.27c-.631,5.682-2.239,8.742-3.676,10.506-1.82,1.949-4.531,4.2-5.67,7.264v0c-.264.59-.5,1.224-.719,1.859l0,0c-.033.1-.063.2-.1.3h0c-.2.616-.37,1.226-.5,1.79a.271.271,0,0,1-.261.22h.8a2.285,2.285,0,0,0,2.191-1.628,24.255,24.255,0,0,1,.876-2.538v0c1.138-3.064,3.85-5.315,5.67-7.264,1.3-1.6,2.74-4.252,3.47-8.952Q186.4.929,185.585.09a.3.3,0,0,0-.517.18Z" transform="translate(-174.139 0)"/><path class="b" d="M361.515,186.142a14.147,14.147,0,0,1-.657,2.285,2.493,2.493,0,0,1-.18.468l-.034.073-.013.028c-.045.093-.095.194-.149.3l-.03.059c-.59,1.141-1.665,2.871-2.216,2.878l-.016.029h.114a4.572,4.572,0,0,0,3.6-1.822,10.507,10.507,0,0,0,1.1-1.677C362.575,187.513,361.829,185.431,361.515,186.142Z" transform="translate(-337.16 -164.719)"/></g></g></svg>