<svg xmlns="http://www.w3.org/2000/svg" width="158.72" height="30.805" viewBox="0 0 158.72 30.805"><defs><style>.a{fill:#989798;}.a,.b{fill-rule:evenodd;}.b,.c{fill:#791355;}</style></defs><g transform="translate(0)"><path class="a" d="M1041.785,29.354a15.407,15.407,0,1,0,15.767,15.4A15.583,15.583,0,0,0,1041.785,29.354Zm-4.928,7.129a1.682,1.682,0,1,1-1.713,1.683A1.7,1.7,0,0,1,1036.857,36.483Zm0,4.455a1.681,1.681,0,1,1-1.713,1.679A1.7,1.7,0,0,1,1036.857,40.937Zm0,4.452a1.682,1.682,0,1,1-1.712,1.681A1.7,1.7,0,0,1,1036.858,45.389Zm0,7.811a1.679,1.679,0,1,1,1.729-1.674A1.69,1.69,0,0,1,1036.859,53.2Zm4.756-16.717a1.682,1.682,0,1,1-1.719,1.683A1.7,1.7,0,0,1,1041.615,36.483Zm0,4.455a1.681,1.681,0,1,1-1.718,1.679A1.7,1.7,0,0,1,1041.615,40.937Zm0,4.452a1.682,1.682,0,1,1-1.719,1.681A1.7,1.7,0,0,1,1041.616,45.389Zm0,7.811a1.679,1.679,0,1,1,1.719-1.674A1.7,1.7,0,0,1,1041.618,53.2Zm4.756-16.717a1.682,1.682,0,1,1-1.719,1.683A1.7,1.7,0,0,1,1046.373,36.483Zm0,4.455a1.681,1.681,0,1,1-1.719,1.679A1.7,1.7,0,0,1,1046.374,40.937Zm0,4.452a1.682,1.682,0,1,1-1.72,1.681A1.7,1.7,0,0,1,1046.374,45.389Zm0,7.811a1.679,1.679,0,1,1,1.72-1.674A1.695,1.695,0,0,1,1046.375,53.2Z" transform="translate(-898.832 -29.354)"/><path class="a" d="M580.768,99.77c-.317-.735-.332-3.084-.432-7h-2.406V89.391h2.406V86.514h4.673v2.877h7.385v3.377h-7.385V97a3.919,3.919,0,0,0,.067.948,1.037,1.037,0,0,0,.536.668,2.4,2.4,0,0,0,.734.126,7.432,7.432,0,0,0,1.029-.011,2.255,2.255,0,0,0,.787-.167,1.191,1.191,0,0,0,.607-.849,6.477,6.477,0,0,0,.061-1.283h4.092c.015.548.008,1.121-.02,1.709a4.252,4.252,0,0,1-.459,1.724C590.658,102.7,581.74,102.612,580.768,99.77Z" transform="translate(-507.632 -79.256)"/><path class="a" d="M727.034,112.539v.793H715.491a6.4,6.4,0,0,0,.107,1.448,1.49,1.49,0,0,0,.723,1.064,3.444,3.444,0,0,0,1.066.2c.519.038,1.1.063,1.739.049s1.222-.033,1.747-.078a3.834,3.834,0,0,0,1.09-.209.916.916,0,0,0,.505-.362,1.42,1.42,0,0,0,.149-.723h4.438c-.255,3.659-3.072,4.331-9.166,4.2-2.03-.049-5.364-.26-6.383-2.218a4.727,4.727,0,0,1-.509-1.765,18.68,18.68,0,0,1-.184-2.521,19.4,19.4,0,0,1,.142-2.535,5.03,5.03,0,0,1,.48-1.742,4,4,0,0,1,1.711-1.55,6.014,6.014,0,0,1,1.95-.523,12.243,12.243,0,0,1,1.431-.057h5.135a8.171,8.171,0,0,1,1.226.1,6.368,6.368,0,0,1,1.545.424,4.219,4.219,0,0,1,1.449.954,3.644,3.644,0,0,1,.811,1.481,8.182,8.182,0,0,1,.3,1.8C727.026,111.391,727.039,111.984,727.034,112.539Zm-4.607-1.861a2.215,2.215,0,0,0-.137-.9,1.043,1.043,0,0,0-.736-.595,6.354,6.354,0,0,0-1.009-.1c-.507-.03-1.076-.043-1.7-.048s-1.174,0-1.675.026a3.4,3.4,0,0,0-.922.117c-.423.24-.668.481-.718.732a2.16,2.16,0,0,0-.042.764Z" transform="translate(-623.642 -96.273)"/><path class="a" d="M863.531,115.53q.22.009.933.023c.475.009,1,.011,1.595.006s1.125-.027,1.608-.062a2.881,2.881,0,0,0,.978-.19,1.347,1.347,0,0,0,.471-.538,2.686,2.686,0,0,0,.175-.94h4.673a10.451,10.451,0,0,1-.137,1.986,3.552,3.552,0,0,1-.879,1.847,4.8,4.8,0,0,1-2.246,1.31,11.749,11.749,0,0,1-3.079.3h-2.939c-.791.016-1.606,0-2.459-.047a6.87,6.87,0,0,1-2.4-.59,4.365,4.365,0,0,1-1.914-1.782,5.84,5.84,0,0,1-.579-1.749,13.62,13.62,0,0,1-.241-2.339,12.982,12.982,0,0,1,.158-2.373,5.449,5.449,0,0,1,.609-1.858,4.093,4.093,0,0,1,1.616-1.6,5.511,5.511,0,0,1,2.132-.545q1.229-.081,2.8-.056h3.38a16.119,16.119,0,0,1,2.071.109,6.473,6.473,0,0,1,2.009.562,3.852,3.852,0,0,1,1.57,1.393,3.463,3.463,0,0,1,.49,1.507,15.4,15.4,0,0,1,.039,1.6h-4.651a1.866,1.866,0,0,0-.18-.845,1.494,1.494,0,0,0-1-.674,7.025,7.025,0,0,0-1-.077c-.481-.014-1-.019-1.551-.018s-1.031.009-1.424.013-.608.016-.625.016a1.538,1.538,0,0,0-1.263.521,1.9,1.9,0,0,0-.383,1.221c0,.017-.009.142-.022.363s-.019.445-.022.661.01.479.022.722.02.39.022.408a1.841,1.841,0,0,0,.383,1.243A1.571,1.571,0,0,0,863.531,115.53Z" transform="translate(-751.345 -96.552)"/><path class="b" d="M42.108,115.524A3.483,3.483,0,0,1,41.5,117.5a4.735,4.735,0,0,1-1.473,1.429,3.065,3.065,0,0,1-1.529.521H28.477a3.819,3.819,0,0,1-2.192-.64,4.456,4.456,0,0,1-1.473-1.591,3.867,3.867,0,0,1-.51-1.83v-4.849a3.456,3.456,0,0,1,.344-1.51,4.691,4.691,0,0,1,2.175-2.171,2.989,2.989,0,0,1,1.3-.324h9.87a4.279,4.279,0,0,1,1.637.429,4.553,4.553,0,0,1,1.726,1.4,3.988,3.988,0,0,1,.756,2.506Zm-3.75-1.217V111.65a1.959,1.959,0,0,0-.57-1.426,2.448,2.448,0,0,0-1.809-.583H30.2a1.984,1.984,0,0,0-.838.25,2.989,2.989,0,0,0-.863.668,1.319,1.319,0,0,0-.362.881v2.533a2.551,2.551,0,0,0,.491,1.533,1.711,1.711,0,0,0,1.426.622h6.429a2.105,2.105,0,0,0,1.327-.418A1.667,1.667,0,0,0,38.358,114.306Z" transform="translate(-24.302 -96.734)"/><path class="b" d="M203.9,119.056h-3.719v-7.881a.42.42,0,0,0-.17-.341.459.459,0,0,0-.306-.151.57.57,0,0,0-.556.348l-4.466,8.025h-3.52l-4.6-8.063a.585.585,0,0,0-.153-.264.706.706,0,0,0-.253-.168.47.47,0,0,0-.2-.064.387.387,0,0,0-.306.176.625.625,0,0,0-.135.375v8.008H181.87v-9.791a2.536,2.536,0,0,1,.353-1.305,3.5,3.5,0,0,1,.879-1.01,4.333,4.333,0,0,1,1.124-.63,2.9,2.9,0,0,1,1.033-.231,3.394,3.394,0,0,1,2.1.637,7.583,7.583,0,0,1,1.779,2.172l3.683,6.559,3.79-6.575a6.873,6.873,0,0,1,1.61-2.077,3.279,3.279,0,0,1,2.157-.717,3.374,3.374,0,0,1,1.409.295,3.522,3.522,0,0,1,1.86,1.879,2.982,2.982,0,0,1,.25,1.153v9.64Z" transform="translate(-161.863 -96.345)"/><path class="b" d="M390.906,116.114a3.128,3.128,0,0,1-.345,1.279,3.549,3.549,0,0,1-1.214,1.264,4.2,4.2,0,0,1-1.6.415,4.256,4.256,0,0,1-1.85-.248,4.339,4.339,0,0,1-1.458-1.125l-6.192-7.318a2.152,2.152,0,0,0-.471-.486.76.76,0,0,0-.429-.11.57.57,0,0,0-.344.127.4.4,0,0,0-.182.35l0,8.809h-3.612l.007-10.187a2.073,2.073,0,0,1,.168-.706,3.407,3.407,0,0,1,.576-.931,3.245,3.245,0,0,1,1.061-.821,3.5,3.5,0,0,1,1.6-.339,3.7,3.7,0,0,1,1.851.392,4.382,4.382,0,0,1,1.085.837l6.235,7.187a1.9,1.9,0,0,0,.5.5,1.11,1.11,0,0,0,.484.108c.21,0,.342-.067.391-.182a1.5,1.5,0,0,0,.08-.537l0-8.307h3.7Z" transform="translate(-328.903 -96.345)"/><rect class="c" width="3.664" height="12.908" transform="translate(64.541 9.796)"/></g></svg>