<svg xmlns="http://www.w3.org/2000/svg" width="20.484" height="15.044" viewBox="0 0 20.484 15.044">
  <g id="online-check-icon-inactive" transform="translate(-228.517 -340.877)">
    <path id="Icon" d="M15.476,11.522a3.761,3.761,0,1,0-3.761-3.761A3.772,3.772,0,0,0,15.476,11.522Zm0,1.88c-2.539,0-7.522,1.222-7.522,3.761v1.88H23v-1.88C23,14.625,18.015,13.4,15.476,13.4Z" transform="translate(220.563 336.877)" fill="#9696b9"/>
    <g id="Group_15537" data-name="Group 15537" transform="translate(241.135 345.716)">
      <path id="Union_66" data-name="Union 66" d="M2.613,5.8.2,3.427a.685.685,0,0,1,0-.966l.551-.539a.723.723,0,0,1,.988,0L3.1,3.268,6.261.195a.724.724,0,0,1,.988,0L7.8.734a.684.684,0,0,1,0,.966L4.23,5.174a.651.651,0,0,1-.078.092L3.6,5.8a.723.723,0,0,1-.988,0Z" transform="translate(-0.135 -0.318)" fill="#9696b9"/>
    </g>
  </g>
</svg>
