<svg xmlns="http://www.w3.org/2000/svg" width="21.557" height="19.357" viewBox="0 0 21.557 19.357">
  <g id="Book_Open" data-name="Book Open" transform="translate(-2 -2.089)">
    <path id="Path_33272" data-name="Path 33272" d="M12.778,20.522H4.983A2.244,2.244,0,0,1,2.75,18.288V7.143A2.244,2.244,0,0,1,4.983,4.91H5.97" transform="translate(0 0.174)" fill="none" stroke="#002cfa" stroke-linecap="round" stroke-linejoin="round" stroke-width="1.5"/>
    <path id="Path_33273" data-name="Path 33273" d="M12.518,5.1V20.7A7.016,7.016,0,0,0,9.255,17.92a7.21,7.21,0,0,0-2.363-.51A1.1,1.1,0,0,1,5.84,16.305V3.957A1.106,1.106,0,0,1,6.978,2.84,8.508,8.508,0,0,1,9.125,3.2,8.89,8.89,0,0,1,12.518,5.1Z" transform="translate(0.26 0)" fill="none" stroke="#002cfa" stroke-linecap="round" stroke-linejoin="round" stroke-width="1.5"/>
    <path id="Path_33274" data-name="Path 33274" d="M22.028,7.142V18.287a2.244,2.244,0,0,1-2.233,2.233H12V4.92h7.795A2.235,2.235,0,0,1,22.028,7.142Z" transform="translate(0.778 0.175)" fill="none" stroke="#002cfa" stroke-linecap="round" stroke-linejoin="round" stroke-width="1.5"/>
    <path id="Path_33275" data-name="Path 33275" d="M15.07,7.97h3.372" transform="translate(1.037 0.432)" fill="none" stroke="#002cfa" stroke-linecap="round" stroke-linejoin="round" stroke-width="1.5"/>
    <path id="Path_33276" data-name="Path 33276" d="M15.07,12.11h3.372" transform="translate(1.037 0.78)" fill="none" stroke="#002cfa" stroke-linecap="round" stroke-linejoin="round" stroke-width="1.5"/>
    <path id="Path_33277" data-name="Path 33277" d="M15.07,16.26h3.372" transform="translate(1.037 1.129)" fill="none" stroke="#002cfa" stroke-linecap="round" stroke-linejoin="round" stroke-width="1.5"/>
  </g>
</svg>
