<svg xmlns="http://www.w3.org/2000/svg" width="17.702" height="17.702" viewBox="0 0 17.702 17.702"><defs><style>.a{fill:#fff;stroke:#002cfa;stroke-width:1.5px;}</style></defs><path class="a" d="M14.676,1.526a5.218,5.218,0,0,0-8.656,5.3L.14,12.706A.474.474,0,0,0,0,13.041v2.685a.474.474,0,0,0,.475.475H3.161a.474.474,0,0,0,.336-.139l.671-.672A.475.475,0,0,0,4.3,15l-.083-.721,1-.094a.474.474,0,0,0,.428-.428l.094-1,.721.084a.467.467,0,0,0,.37-.117.476.476,0,0,0,.159-.355v-.884H7.86a.474.474,0,0,0,.336-.139l1.217-1.2A5.14,5.14,0,0,0,14.676,8.91,5.227,5.227,0,0,0,14.676,1.526ZM12.333,5.883a1.424,1.424,0,1,1,0-2.014A1.425,1.425,0,0,1,12.333,5.883Z" transform="translate(0.749 0.75)"/></svg>