<?xml version="1.0" encoding="UTF-8"?> <svg xmlns="http://www.w3.org/2000/svg" xmlns:xlink="http://www.w3.org/1999/xlink" width="934px" height="150px" viewBox="0 0 934 150"><!-- Generator: Sketch 57 (83077) - https://sketch.com --><title>OwnerRez</title><desc>Created with Sketch.</desc><g id="Page-1" stroke="none" stroke-width="1" fill="none" fill-rule="evenodd"><g id="Artboard" transform="translate(-1291.000000, -2044.000000)"><g id="OwnerRez" transform="translate(1291.000000, 2044.000000)"><path d="M934,61.0017857 C932.117005,61.1196429 930.701009,61.9510714 929.531367,63.4832143 C914.844431,82.7153571 900.118936,101.9175 883.767509,123.266786 C898.175959,123.266786 910.739972,124.008214 923.169028,123.035357 C933.498725,122.225357 932.890339,128.081786 932.682546,134.840357 C932.487606,141.099643 934.392023,147.363214 923.569619,146.981786 C899.371307,146.131071 875.123725,146.816786 850.899706,146.6025 C847.416486,146.574643 842.294482,148.981071 840.722106,143.893929 C839.246128,139.121786 840.096583,134.210357 843.549812,129.8325 C857.232055,112.498929 870.700078,94.9982143 884.228083,77.5446429 C886.363858,74.7867857 888.396807,71.9475 891.850037,67.3017857 C877.546555,67.3017857 864.969688,66.9825 852.418528,67.4217857 C844.84156,67.6875 845.135041,62.7482143 846.054046,58.3489286 C847.088729,53.4010714 841.131266,44.4053571 851.173908,44.1289286 C877.163101,43.4175 903.184427,43.8867857 929.190757,44.0282143 C930.797408,44.0367857 932.397633,45.3160714 934,46.0017857 L934,61.0017857 Z" id="Fill-1" fill="#60B96E"></path><path d="M0,65.2875 C0.608385321,65.1310714 1.22533945,65.0732143 1.85086239,65.1182143 C6.98143578,72.3782143 6.99214679,79.6339286 1.84229358,86.8896429 C1.21677064,86.9453571 0.604100917,86.8875 0,86.7160714 L0,65.2875 Z" id="Fill-3" fill="#BEE2C4"></path><path d="M624.333157,2.6655 C641.800671,3.3555 659.334593,2.52407143 676.784969,3.39835714 C699.365918,4.53192857 713.977877,15.8205 717.341134,33.2655 C721.188528,53.2219286 712.043469,69.8933571 691.713973,79.9540714 C690.537905,80.5369286 689.318992,81.0276429 687.455276,81.8569286 C709.312161,99.6790714 718.784978,124.467643 735.586267,146.706214 C722.780184,146.706214 712.529749,146.496214 702.292166,146.802643 C697.780689,146.9355 696.114056,144.166929 694.239629,141.068357 C687.041831,129.164786 679.841891,117.261214 672.530556,105.428357 C670.097015,101.489786 667.509235,97.5940714 663.546161,94.9369286 C659.233909,92.0462143 654.167602,89.9269286 649.433336,91.8533571 C644.478423,93.8697857 647.049065,99.3662143 646.941955,103.264071 C646.61634,115.039071 646.597061,126.833357 646.922675,138.608357 C647.076914,144.2355 645.947973,146.708357 639.437822,146.894786 C614.288372,147.614786 614.294799,147.882643 614.294799,123.087643 C614.294799,86.3097857 614.53901,49.5297857 614.106285,12.7583571 C614.012028,4.64978571 616.377019,2.3505 624.333157,2.6655 Z M682.886174,39.6837857 C680.043472,30.1545 666.575449,24.1416429 651.903509,27.0409286 C641.196784,29.1559286 649.232183,38.3145 646.875761,43.7423571 C646.483738,44.6423571 646.820064,45.8552143 646.835059,46.9245 C646.850055,51.9152143 646.897183,56.9059286 646.832917,61.8945 C646.790073,65.1837857 647.661949,67.2752143 651.567183,67.3159286 C658.368674,67.3823571 665.170165,67.4895 671.526078,64.6866429 C680.945339,60.5380714 685.833844,49.5730714 682.886174,39.6837857 Z" id="Combined-Shape" fill="#60B96E"></path><path d="M801.444192,43.7102143 C823.078289,49.9780714 838.872743,78.7630714 832.773894,100.330929 C831.67066,104.235214 829.16,104.128071 826.328009,104.140929 C817.062986,104.1795 807.800105,104.155929 798.535082,104.1645 C790.34116,104.170929 782.1301,104.488071 773.955458,104.087357 C764.780408,103.635214 765.568738,108.673071 768.407156,114.058071 C774.745931,126.0945 786.416646,126.8745 797.988821,126.538071 C804.693912,126.347357 811.407573,124.890214 817.523559,121.686643 C821.563752,119.571643 822.834078,120.696643 823.234669,125.325214 C824.672087,141.917357 823.416756,143.781643 806.606899,147.210214 C794.968316,149.580214 783.192633,150.300214 771.652591,147.578786 C743.094899,140.837357 728.495793,114.182357 735.571486,82.6030714 C742.51222,51.6430714 770.926385,34.8666429 801.444192,43.7102143 Z M788.362622,63.2511429 C776.786164,61.749 768.423008,69.7032857 766.540012,84.6861429 C776.8997,84.6861429 787.171558,84.7075714 797.443416,84.6732857 C800.296829,84.6625714 802.98315,84.9347143 802.985297,80.4154286 C802.991719,72.3775714 796.453719,64.299 788.362622,63.2511429 Z" id="Combined-Shape" fill="#60B96E"></path><path d="M116.09213,18.0075 C147.201185,47.6860714 143.683689,111.4875 109.134258,136.481786 C87.9221757,151.826786 63.7517124,153.408214 39.9582766,143.283214 C15.6914142,132.958929 4.6890656,112.366071 1.84207936,86.8896429 C1.84422156,79.6317857 1.84850596,72.3760714 1.85064817,65.1182143 C4.78118028,37.6489286 16.2034005,15.2667857 43.3065381,5.48892857 C69.2678821,-3.87535714 94.8864739,-2.22535714 116.09213,18.0075 Z M114.544817,46.3725 C105.577561,22.2353571 81.6491661,10.4239286 56.6925147,17.4567857 C32.294978,24.3310714 19.0904459,44.5210714 19.0026156,76.8010714 C18.6255881,82.6060714 19.6152853,89.9839286 21.6246706,97.2225 C27.9441661,119.9775 46.2321431,133.9575 69.4600376,133.846733 C93.0071202,133.734643 110.862372,120.024643 116.714868,96.8025 C120.979992,79.8846429 120.675799,62.8703571 114.544817,46.3725 Z" id="Combined-Shape" fill="#60B96E"></path><path d="M253.585284,128.970429 C260.622417,102.857571 267.668119,77.9725714 273.882647,52.8818571 C275.714229,45.4825714 278.871835,43.0868571 286.253862,43.674 C291.568665,44.0982857 292.153486,46.1575714 290.885303,50.3704286 C281.740243,80.7218571 272.462367,111.036857 263.578656,141.467571 C261.421459,148.856143 255.937422,145.991143 251.449509,146.743286 C245.941908,147.662571 244.09533,144.529714 242.788587,139.907571 C235.924972,115.611857 228.879271,91.3697143 221.664335,66.2982857 C214.014532,90.8254286 206.426853,114.555429 199.304032,138.424714 C197.541,144.334714 195.263839,147.107571 188.464491,146.991857 C181.909353,146.880429 179.274445,144.765429 177.470711,138.534 C169.257509,110.132571 160.399505,81.9197143 152.051344,53.5568571 C151.188037,50.6232857 146.635858,45.4054286 152.90394,44.3575714 C158.124486,43.4832857 165.630761,40.2818571 168.109289,50.3832857 C173.029927,70.4382857 178.888849,90.2597143 184.362174,110.177571 C185.960257,115.995429 187.560482,121.815429 189.34922,128.316857 C197.136124,102.690429 204.743083,77.7432857 212.285775,52.7768571 C213.871005,47.5311429 215.173463,43.4254286 222.662601,43.5004286 C230.03606,43.5732857 231.383505,47.2804286 232.853055,52.7832857 C239.55172,77.8654286 246.466748,102.889714 253.585284,128.970429" id="Fill-12" fill="#60B96E"></path><path d="M486.286029,45.0514286 C501.864121,51.3342857 507.984391,64.6757143 509.888809,80.4278571 C510.272263,83.6035714 509.965928,86.8671429 510.400795,90.0278571 C511.431194,97.4957143 508.464244,99.8357143 500.951543,99.6192857 C483.149845,99.1092857 465.309589,99.8764286 447.512176,99.2742857 C439.127598,98.9892857 437.906543,102.366429 439.253988,109.362857 C443.240625,130.058571 462.963878,140.277857 485.913286,133.015714 C491.575125,131.224286 496.864222,128.254286 502.440373,125.775 C506.279199,136.658571 501.949809,142.024286 491.652244,145.459286 C464.951841,154.360714 439.656722,147.499286 428.403735,127.461429 C414.850024,103.332857 420.569703,67.1121429 440.918478,51.195 C454.652134,40.4528571 470.268786,38.5907143 486.286029,45.0514286 Z M492.53933,74.2986429 C489.553101,61.9515 479.216977,54.5629286 466.462307,55.6472143 C453.716206,56.7293571 440.751601,69.1900714 439.734055,80.7207857 C439.316326,85.4607857 442.079766,85.0407857 444.888193,85.0622143 C451.991734,85.1222143 459.095275,85.0815 466.198817,85.0879286 C472.235541,85.0943571 478.327963,84.5822143 484.300422,85.2143571 C493.693977,86.2065 494.225243,81.2650714 492.53933,74.2986429 Z" id="Combined-Shape" fill="#60B96E"></path><path d="M328.069642,58.5574286 C335.400257,51.0467143 342.683743,45.6317143 351.916633,42.9531429 C374.257656,36.4667143 394.612858,49.626 396.045991,73.1052857 C397.412716,95.4831429 396.480858,117.998143 396.917867,140.446714 C397.046399,147.126 393.121885,146.667429 388.644683,146.787429 C383.80545,146.913857 380.547161,146.431714 380.686404,140.114571 C381.031298,124.437429 380.902766,108.745286 380.73139,93.0638571 C380.671408,87.7431429 380.101583,82.4095714 379.439642,77.121 C378.150037,66.816 373.891339,58.7674286 362.726183,56.2924286 C351.282541,53.7552857 340.42372,58.131 334.044243,67.9624286 C329.408518,75.1045714 328.116771,83.1295714 328.088922,91.431 C328.033225,107.114571 327.92183,122.800286 328.151046,138.483857 C328.230307,143.879571 327.626206,147.177429 320.826858,146.905286 C315.021491,146.671714 311.728927,146.166 311.823183,138.918857 C312.195927,110.048143 312.133803,81.171 311.853174,52.2981429 C311.79105,45.9381429 313.500528,43.7395714 320.182055,43.6045714 C327.332725,43.461 328.83655,46.401 328.108202,52.4545714 C327.866133,54.4624286 328.069642,56.5217143 328.069642,58.5574286" id="Fill-16" fill="#60BA6E"></path><path d="M552.397377,60.8175 C557.76145,54.1210714 562.270785,47.6603571 569.792056,44.6089286 C575.338216,42.3589286 581.89978,39.6696429 587.158886,43.6553571 C592.051675,47.3646429 588.054326,53.5146429 589.346074,58.7153571 C564.822147,55.6467857 553.294959,65.5960714 552.618023,89.9946429 C552.163877,106.370357 552.048198,122.776071 552.568753,139.143214 C552.812964,146.7825 548.929152,146.690357 543.387276,146.868214 C537.506932,147.058929 535.354019,145.415357 535.418285,139.175357 C535.711767,109.968214 535.696771,80.7567857 535.426854,51.5475 C535.371156,45.5196429 537.164179,43.3896429 543.241606,43.7196429 C548.539271,44.0089286 553.51989,43.4067857 552.465927,51.2560714 C552.046056,54.3889286 552.397377,57.6267857 552.397377,60.8175" id="Fill-18" fill="#60BA6E"></path></g></g></g></svg> 