<svg xmlns="http://www.w3.org/2000/svg" width="84" height="84" viewBox="0 0 84 84"><defs><style>.a{fill:#bce0fd;}.b{fill:#fdbc8c;}.c{fill:#003a88;}.d{fill:#f8b64c;}.e{fill:#2196f3;}.f{fill:#e8f5ff;}.g{fill:#ff2467;}.h{fill:#ffc400;}</style></defs><g transform="translate(-111 -52)"><g transform="translate(111 52)"><path class="a" d="M0,42A42,42,0,1,0,42,0,42,42,0,0,0,0,42Z"/></g><g transform="translate(123.016 67.239)"><path class="b" d="M82.816,30.4,68.523,42.115a4.3,4.3,0,0,0-1.64,3.163l-.117,11.364a14.889,14.889,0,0,1-2.46,10.075l10.075,9.255a76.6,76.6,0,0,0,5.74-6.678c6.443-8.435,3.866-13.941,3.866-13.941-.937-1.874-.586-6.326-.586-6.326.117-1.172,1.523-6.443,1.992-8.435a7.555,7.555,0,0,0,.351-2.343c0-2.694-1.172-3.514-2.46-3.632h-.937C82.933,32.392,83.167,30.751,82.816,30.4Z" transform="translate(-57.243 -26.587)"/><path class="c" d="M19.949,346.673l-4.8,5.155a1.628,1.628,0,0,1-2.226.117L.5,340.581a1.628,1.628,0,0,1-.117-2.226l4.8-5.155a1.528,1.528,0,0,1,2.226-.117l12.418,11.481A1.4,1.4,0,0,1,19.949,346.673Z" transform="translate(0 -295.648)"/><path class="d" d="M156.422,61.333a50.957,50.957,0,0,0-4.452,10.895s-1.64,6.678-2.343,7.966C149.511,80.194,156.305,74.454,156.422,61.333Z" transform="translate(-133.193 -54.122)"/><path class="e" d="M214.9.533H182.682a2.1,2.1,0,0,0-2.109,2.109V22.323a2.1,2.1,0,0,0,2.109,2.109H214.9a2.1,2.1,0,0,0,2.109-2.109V2.642A2.1,2.1,0,0,0,214.9.533Z" transform="translate(-160.741 0)"/><rect class="c" width="13.707" height="2.577" transform="translate(24.284 14.24)"/><rect class="c" width="36.551" height="4.803" transform="translate(19.715 4.75)"/><path class="b" d="M144.306,89.211a19.905,19.905,0,0,0,2.109-3.4s2.343-6.209,2.694-8.083a27.283,27.283,0,0,1,2.109-7.5,3.4,3.4,0,0,1,3.4-1.757c1.172.117,2.46.937,2.46,3.632a8.119,8.119,0,0,1-.351,2.343,65.253,65.253,0,0,0-1.992,8.435s-.351,4.452.586,6.326c0,0,2.577,5.506-3.866,13.941Z" transform="translate(-128.457 -60.445)"/><path class="f" d="M210.992,83.373a1.842,1.842,0,0,0,1.172-1.289,4.851,4.851,0,0,0,.117-1.172c0-2.46-1.172-2.577-1.523-2.694a2.444,2.444,0,0,0-2.109.82c-.117.117-.234.351-.351.469-.234.469-.469.937-.7,1.523a1.626,1.626,0,0,0,0,1.054A2.612,2.612,0,0,0,210.992,83.373Z" transform="translate(-184.717 -69.133)"/><circle class="g" cx="3.632" cy="3.632" r="3.632" transform="translate(41.036 13.185)"/><circle class="h" cx="3.632" cy="3.632" r="3.632" transform="translate(46.191 13.185)"/></g></g></svg>