<svg xmlns="http://www.w3.org/2000/svg" width="21.002" height="21.002" viewBox="0 0 21.002 21.002"><defs><style>.a,.b{fill:#161643;}.a{opacity:0.005;}</style></defs><g transform="translate(-11.332 -5)"><rect class="a" width="21" height="21" transform="translate(11.332 5)"/><path class="b" d="M24257.334,22934a10,10,0,1,1,7.07-2.928A9.943,9.943,0,0,1,24257.334,22934Zm.268-16.443a6.243,6.243,0,1,0,6.242,6.242A6.247,6.247,0,0,0,24257.6,22917.559Zm0,10.822a.732.732,0,0,1-.736-.742v-.17a1.893,1.893,0,0,1-.963-.518,1.924,1.924,0,0,1-.578-1.377.727.727,0,0,1,.211-.521.74.74,0,0,1,.52-.223h.006a.75.75,0,0,1,.742.738.472.472,0,0,0,.477.469c.205,0,.268,0,.332,0l.332,0a.472.472,0,0,0,.469-.477v-.006a.491.491,0,0,0-.2-.377l-.615-.457-1.492-1.107a1.969,1.969,0,0,1-.791-1.566,1.949,1.949,0,0,1,1.547-1.9v-.172a.739.739,0,1,1,1.479,0v.17a1.961,1.961,0,0,1,1.541,1.906.739.739,0,0,1-1.479,0,.476.476,0,0,0-.477-.475h-.656a.476.476,0,0,0-.477.475.454.454,0,0,0,.189.379l.615.455,1.5,1.109a1.965,1.965,0,0,1,.791,1.553v.006a1.954,1.954,0,0,1-1.547,1.924v.172A.744.744,0,0,1,24257.6,22928.381Z" transform="translate(-24235 -22908)"/></g></svg>