<svg xmlns="http://www.w3.org/2000/svg" width="21" height="21" viewBox="0 0 21 21"><defs><style>.a{fill:#9696b9;opacity:0.005;}.b{fill:#2047ff;}</style></defs><g transform="translate(-11.332 -5)"><rect class="a" width="21" height="21" transform="translate(11.332 5)"/><path class="b" d="M24258.467,22933.533a8.867,8.867,0,1,1,8.867-8.867A8.878,8.878,0,0,1,24258.467,22933.533Zm-2.2-7.4a1.04,1.04,0,0,0-1.041,1.053,2.766,2.766,0,0,0,2.186,2.691v.244a1.051,1.051,0,1,0,2.1,0v-.244a2.778,2.778,0,0,0,2.2-2.734v-.006a2.789,2.789,0,0,0-1.127-2.211l-2.119-1.57-.877-.646a.673.673,0,0,1,.4-1.211h.943a.671.671,0,0,1,.67.67,1.051,1.051,0,0,0,2.1,0,2.784,2.784,0,0,0-2.193-2.711v-.244a1.051,1.051,0,0,0-2.1,0v.244a2.775,2.775,0,0,0-1.072,4.939l2.127,1.57.871.646a.679.679,0,0,1,.273.535v.014a.679.679,0,0,1-.67.676c-.418,0-.418,0-.609,0h-.1l-.225,0a.674.674,0,0,1-.676-.67,1.056,1.056,0,0,0-1.049-1.041Z" transform="translate(-24236.637 -22909.166)"/></g></svg>