<svg id="payments-icon-inactive" xmlns="http://www.w3.org/2000/svg" width="18.072" height="18.073" viewBox="0 0 18.072 18.073">
  <path id="Path_31474" data-name="Path 31474" d="M187.785,18.073a9.036,9.036,0,1,0-9.036-9.036A9.046,9.046,0,0,0,187.785,18.073Zm-1.07-14.348V3.479a1.07,1.07,0,1,1,2.14,0v.247a2.83,2.83,0,0,1,2.232,2.762,1.07,1.07,0,1,1-2.14,0,.686.686,0,0,0-.685-.685h-.96a.685.685,0,0,0-.407,1.235l.89.659,2.163,1.6a2.837,2.837,0,0,1,1.144,2.252v.01a2.827,2.827,0,0,1-2.237,2.783v.25a1.07,1.07,0,1,1-2.14,0v-.247a2.825,2.825,0,0,1-2.23-2.745,1.07,1.07,0,0,1,1.063-1.077h.007a1.071,1.071,0,0,1,1.07,1.064.684.684,0,0,0,.688.681l.958-.006a.684.684,0,0,0,.681-.69v-.01a.688.688,0,0,0-.277-.546l-.89-.659-2.164-1.6a2.825,2.825,0,0,1,1.094-5.034Z" transform="translate(-178.749 0)" fill="#9696b9"/>
</svg>
