<svg xmlns="http://www.w3.org/2000/svg" xmlns:xlink="http://www.w3.org/1999/xlink" width="284.352" height="573.557" viewBox="0 0 284.352 573.557"><defs><style>.a{fill:#fff;}.b{fill:url(#a);}.c{fill:#dedee4;}</style><radialGradient id="a" cx="0.5" cy="0.5" r="0.612" gradientTransform="translate(0 0)" gradientUnits="objectBoundingBox"><stop offset="0" stop-color="#f0f0f8"/><stop offset="1" stop-color="#e7ebef"/></radialGradient></defs><rect class="a" width="260.137" height="471.608" rx="30" transform="translate(11.5 85.537)"/><path class="b" d="M241.927,573.557H42.418A39.569,39.569,0,0,1,14.3,561.863,39.891,39.891,0,0,1,2.651,533.629V211.59A2.662,2.662,0,0,1,0,208.927V173a2.66,2.66,0,0,1,2.651-2.663V159.692A2.661,2.661,0,0,1,0,157.029V121.1a2.657,2.657,0,0,1,2.651-2.657V98.475A2.662,2.662,0,0,1,0,95.813V79.843A2.66,2.66,0,0,1,2.651,77.18V39.921A39.94,39.94,0,0,1,26.94,3.138,39.386,39.386,0,0,1,42.418,0H241.927a39.579,39.579,0,0,1,28.12,11.693,39.883,39.883,0,0,1,11.647,28.228v92.49a2.662,2.662,0,0,1,2.658,2.657v59.885a2.664,2.664,0,0,1-2.658,2.663V533.629A39.944,39.944,0,0,1,257.4,570.42,39.377,39.377,0,0,1,241.927,573.557ZM46.175,18.632a26.54,26.54,0,0,0-18.859,7.839A26.7,26.7,0,0,0,19.5,45.4V527.25a26.78,26.78,0,0,0,16.289,24.665,26.432,26.432,0,0,0,10.381,2.1H238.17a26.543,26.543,0,0,0,18.859-7.839,26.706,26.706,0,0,0,7.811-18.93V45.4a26.782,26.782,0,0,0-16.289-24.666,26.425,26.425,0,0,0-10.381-2.1l-23.128.173c-.055,0-.191-.014-.385-.014a3.847,3.847,0,0,0-3,1.142c-.97,1.239-.908,3.8-.887,4.3a.037.037,0,0,0,0,.012,18.16,18.16,0,0,1-.645,3.451,17.48,17.48,0,0,1-3.5,6.713c-3.418,3.893-9.423,4.09-10.591,4.09-.15,0-.235,0-.235,0L85.133,38.411a17.084,17.084,0,0,1-3.013-1.08,13.528,13.528,0,0,1-5.085-3.845c-2.828-3.717-3.287-9.984-3.291-10.046a.029.029,0,0,0,0-.01c.023-.4.092-2.465-1-3.553-1.176-1.175-3.766-1.208-3.794-1.208Z" transform="translate(0 0)"/><path class="c" d="M91.58-962.008A3.992,3.992,0,0,1,95.572-966a3.992,3.992,0,0,1,3.992,3.992,3.993,3.993,0,0,1-3.992,3.993A3.992,3.992,0,0,1,91.58-962.008Zm-42.584,2a2,2,0,0,1-2-2,2,2,0,0,1,2-2H80.269a2,2,0,0,1,2,2,2,2,0,0,1-2,2Z" transform="translate(77.497 984.63)"/><g transform="translate(19.579 18.63)"><path class="a" d="M26.65,0,49.42.042s2.6.015,3.792,1.208.992,3.563.992,3.563.441,6.3,3.287,10.044,8.1,4.923,8.1,4.923l110.6.092s7,.261,10.816-4.089a18.817,18.817,0,0,0,4.151-10.167s-.181-2.951.885-4.311S195.416.175,195.416.175L218.532,0a26.71,26.71,0,0,1,26.65,26.77v55.62H0V26.77A26.71,26.71,0,0,1,26.65,0Z" transform="translate(0)"/></g></svg>