<svg xmlns="http://www.w3.org/2000/svg" width="25.749" height="33.74" viewBox="0 0 25.749 33.74"><defs><style>.a{fill:#ffd3cf;}.b{fill:#f7c0bb;}.c{fill:#ededed;}.d{fill:#385cf8;}.e{fill:#0078f0;}.f{fill:#161643;}.g{fill:#013b88;}.h{fill:#f470cb;}</style></defs><g transform="translate(-60.627)"><path class="a" d="M181.641,265.961,184.9,262.9l-1.295-.24a1.543,1.543,0,0,1-1.074-1.488v-2.84h-6.055v2.84a1.543,1.543,0,0,1-1.074,1.488l-1.295.24,3.261,3.063A3.119,3.119,0,0,0,181.641,265.961Z" transform="translate(-106.004 -241.307)"/><path class="b" d="M259.778,258.33v4.034a1.543,1.543,0,0,0,1.074,1.488l2.554.474,1.52-1.427-1.295-.24a1.543,1.543,0,0,1-1.074-1.488v-2.84Z" transform="translate(-186.027 -241.307)"/><path class="c" d="M249.789,473.08Z" transform="translate(-176.697 -441.905)"/><path class="d" d="M82.471,319.441l-4.6-.855a.616.616,0,0,0-.481.112L73.5,321.6l-3.886-2.9a.616.616,0,0,0-.481-.112l-4.6.855a5.442,5.442,0,0,0-3.905,5.221v5.517a1.143,1.143,0,0,0,1.143,1.143H85.233a1.143,1.143,0,0,0,1.143-1.143v-5.517A5.442,5.442,0,0,0,82.471,319.441Z" transform="translate(0 -297.582)"/><g transform="translate(67.814 20.994)"><path class="e" d="M291.126,319.442l-4.6-.855a.616.616,0,0,0-.481.112L284,320.225l4.38.814c2.315.682,3.9,1.321,3.9,3.735v6.55h1.6a1.143,1.143,0,0,0,1.143-1.143v-5.517A5.442,5.442,0,0,0,291.126,319.442Z" transform="translate(-276.469 -318.577)"/><path class="e" d="M169.691,318.832l2.519,3.525a.7.7,0,0,0,.839.236l2.33-.99-3.886-2.9a.616.616,0,0,0-.481-.112Z" transform="translate(-169.691 -318.576)"/><path class="e" d="M261.688,318.832l-2.519,3.525a.7.7,0,0,1-.839.236L256,321.6l3.886-2.9a.616.616,0,0,1,.481-.112Z" transform="translate(-250.312 -318.576)"/></g><path class="d" d="M130.655,0c-4.884,0-8.843,3.379-8.843,5.288s3.959,3.273,8.843,3.273S139.5,7.2,139.5,5.288,135.538,0,130.655,0Z" transform="translate(-57.153)"/><path class="e" d="M236.233,0a10.77,10.77,0,0,0-1.395.092c4.221.551,7.448,3.473,7.448,5.2s-3.227,3-7.448,3.235c.454.025.92.038,1.395.038,4.884,0,8.843-1.364,8.843-3.273S241.116,0,236.233,0Z" transform="translate(-162.731)"/><path class="a" d="M157.51,70.211h-.4V68.6a5.518,5.518,0,0,0-1.869-4.193c-.95-.818-7.151-.818-8.1,0a5.518,5.518,0,0,0-1.869,4.193v1.607h-.4a1.071,1.071,0,0,0-1.071,1.071v1.187a1.071,1.071,0,0,0,1.071,1.071h.405a5.508,5.508,0,0,0,1.867,4.068,6.061,6.061,0,0,0,8.1,0,5.507,5.507,0,0,0,1.867-4.068h.405a1.071,1.071,0,0,0,1.071-1.071V71.282A1.071,1.071,0,0,0,157.51,70.211Z" transform="translate(-77.686 -59.593)"/><path class="b" d="M242.95,70.212h-.4V68.6a5.518,5.518,0,0,0-1.869-4.193c-.6-.515-3.277-.706-5.417-.572a5.9,5.9,0,0,1,2.684.572,5.518,5.518,0,0,1,1.869,4.193v1.133l0,3.8a5.508,5.508,0,0,1-1.867,4.068A6.309,6.309,0,0,1,235.26,79a6.279,6.279,0,0,0,1.367.163,6.2,6.2,0,0,0,4.051-1.552,5.508,5.508,0,0,0,1.867-4.068h.405a1.071,1.071,0,0,0,1.071-1.071V71.283A1.071,1.071,0,0,0,242.95,70.212Z" transform="translate(-163.125 -59.594)"/><path class="f" d="M152.554,82.691V86.38a2.27,2.27,0,0,1,1.487.555.193.193,0,0,0,.327-.138V84.066h10.005V86.8a.193.193,0,0,0,.327.138,2.27,2.27,0,0,1,1.487-.555V82.691C166.188,80.407,152.554,80.407,152.554,82.691Z" transform="translate(-85.869 -75.642)"/><path class="d" d="M159.371,115.581c-3.765,0-6.817-1.169-6.817-2.61h13.634C166.188,114.413,163.136,115.581,159.371,115.581Z" transform="translate(-85.869 -105.526)"/><path class="e" d="M152.554,58.551v1.812h13.634V58.57a1.064,1.064,0,0,0-.8-1.031,27.329,27.329,0,0,0-6.335-.888,22.169,22.169,0,0,0-5.722.875A1.064,1.064,0,0,0,152.554,58.551Z" transform="translate(-85.869 -52.919)"/><g transform="translate(71.67 24.021)"><path class="g" d="M230.031,364.512l-1.832.778,1.071,1.245h1.522l1.071-1.245Z" transform="translate(-228.199 -364.512)"/><path class="g" d="M230.792,395.214H229.27l-1.071,7.7h3.664Z" transform="translate(-228.199 -393.191)"/></g><g transform="translate(66.227 29.101)"><path class="g" d="M318.9,443.676h-2.682a.323.323,0,0,1-.323-.323v-1.429a.323.323,0,0,1,.323-.323H318.9a.323.323,0,0,1,.323.323v1.429A.323.323,0,0,1,318.9,443.676Z" transform="translate(-304.678 -441.602)"/><path class="g" d="M148.609,443.676h-2.682a.323.323,0,0,1-.323-.323v-1.429a.323.323,0,0,1,.323-.323h2.682a.323.323,0,0,1,.323.323v1.429A.323.323,0,0,1,148.609,443.676Z" transform="translate(-145.604 -441.602)"/></g><path class="h" d="M68.762,342.779a1.17,1.17,0,0,0,1.645-.176l.554-.687a1.17,1.17,0,0,0-.176-1.645l-.4-.32a5.448,5.448,0,0,0-2.16,2.4Z" transform="translate(-7.1 -317.548)"/><path class="h" d="M401.352,342.348a5.447,5.447,0,0,0-2.16-2.4l-.4.32a1.17,1.17,0,0,0-.176,1.645l.554.687a1.17,1.17,0,0,0,1.645.176Z" transform="translate(-315.476 -317.548)"/><g transform="translate(63.808 28.591)"><path class="e" d="M388.159,433.872a.509.509,0,0,0-.509.509v4.639h1.019v-4.639A.509.509,0,0,0,388.159,433.872Z" transform="translate(-369.28 -433.872)"/><path class="e" d="M109.4,433.872a.509.509,0,0,0-.509.509v4.639h1.019v-4.639A.509.509,0,0,0,109.4,433.872Z" transform="translate(-108.892 -433.872)"/></g></g></svg>
