<svg xmlns="http://www.w3.org/2000/svg" xmlns:xlink="http://www.w3.org/1999/xlink" width="106" height="106" viewBox="0 0 106 106"><defs><style>.a,.j{fill:#64caff;}.b{fill:#fff;}.c{fill:#84b75b;}.d{fill:#69a833;}.e{fill:#a0d37d;}.f{fill:#e3f3ff;}.g{fill:#cfe8fc;}.h{fill:#38b7f8;}.i{fill:#5f9eeb;}.k{fill:#7b8c98;}.l{fill:#627687;}.m{fill:#fd2467;}.n{fill:#161643;}.o,.p{stroke:none;}.p{fill:#161643;}.q{filter:url(#c);}.r{filter:url(#a);}</style><filter id="a" x="0" y="0" width="106" height="106" filterUnits="userSpaceOnUse"><feOffset dy="3" input="SourceAlpha"/><feGaussianBlur stdDeviation="3" result="b"/><feFlood flood-opacity="0.161"/><feComposite operator="in" in2="b"/><feComposite in="SourceGraphic"/></filter><filter id="c" x="5.09" y="5.09" width="94.966" height="94.966" filterUnits="userSpaceOnUse"><feOffset dy="3" input="SourceAlpha"/><feGaussianBlur stdDeviation="3" result="d"/><feFlood flood-opacity="0.161"/><feComposite operator="in" in2="d"/><feComposite in="SourceGraphic"/></filter></defs><g transform="translate(9 6)"><g class="r" transform="matrix(1, 0, 0, 1, -9, -6)"><g class="a" transform="translate(9 6)"><path class="o" d="M 44 87.5 C 38.12731170654297 87.5 32.43056488037109 86.34992980957031 27.06798934936523 84.08175659179688 C 21.88809967041016 81.89085388183594 17.23597717285156 78.75426483154297 13.24085521697998 74.75914764404297 C 9.245733261108398 70.76402282714844 6.10914421081543 66.11190032958984 3.918244361877441 60.93201065063477 C 1.650066614151001 55.56943511962891 0.5 49.87268829345703 0.5 44 C 0.5 38.12731170654297 1.650066614151001 32.43056488037109 3.918244361877441 27.06798934936523 C 6.10914421081543 21.88809967041016 9.245733261108398 17.23597717285156 13.24085521697998 13.24085521697998 C 17.23597717285156 9.245733261108398 21.88809967041016 6.10914421081543 27.06798934936523 3.918244361877441 C 32.43056488037109 1.650066614151001 38.12731170654297 0.5 44 0.5 C 49.87268829345703 0.5 55.56943511962891 1.650066614151001 60.93201065063477 3.918244361877441 C 66.11190032958984 6.10914421081543 70.76402282714844 9.245733261108398 74.75914764404297 13.24085521697998 C 78.75426483154297 17.23597717285156 81.89085388183594 21.88809967041016 84.08175659179688 27.06798934936523 C 86.34992980957031 32.43056488037109 87.5 38.12731170654297 87.5 44 C 87.5 49.87268829345703 86.34992980957031 55.56943511962891 84.08175659179688 60.93201065063477 C 81.89085388183594 66.11190032958984 78.75426483154297 70.76402282714844 74.75914764404297 74.75914764404297 C 70.76402282714844 78.75426483154297 66.11190032958984 81.89085388183594 60.93201065063477 84.08175659179688 C 55.56943511962891 86.34992980957031 49.87268829345703 87.5 44 87.5 Z"/><path class="p" d="M 44 1 C 38.19459915161133 1 32.56337738037109 2.13677978515625 27.26276397705078 4.378738403320312 C 22.14247131347656 6.544448852539062 17.54377746582031 9.645034790039062 13.59441375732422 13.59441375732422 C 9.645034790039062 17.54377746582031 6.544448852539062 22.14247131347656 4.378738403320312 27.26276397705078 C 2.13677978515625 32.56337738037109 1 38.19459915161133 1 44 C 1 49.80541229248047 2.13677978515625 55.43662261962891 4.378738403320312 60.73723602294922 C 6.544448852539062 65.85752868652344 9.645034790039062 70.45622253417969 13.59441375732422 74.40560150146484 C 17.54377746582031 78.35496520996094 22.14247131347656 81.45556640625 27.26276397705078 83.62126159667969 C 32.56337738037109 85.86322021484375 38.19459915161133 87 44 87 C 49.80541229248047 87 55.43662261962891 85.86322021484375 60.73723602294922 83.62126159667969 C 65.85752868652344 81.45556640625 70.45622253417969 78.35496520996094 74.40560150146484 74.40560150146484 C 78.35496520996094 70.45622253417969 81.45556640625 65.85752868652344 83.62126159667969 60.73723602294922 C 85.86322021484375 55.43662261962891 87 49.80541229248047 87 44 C 87 38.19459915161133 85.86322021484375 32.56337738037109 83.62126159667969 27.26276397705078 C 81.45556640625 22.14247131347656 78.35496520996094 17.54377746582031 74.40560150146484 13.59441375732422 C 70.45622253417969 9.645034790039062 65.85752868652344 6.544448852539062 60.73723602294922 4.378738403320312 C 55.43662261962891 2.13677978515625 49.80541229248047 1 44 1 M 44 0 C 68.300537109375 0 88 19.69947052001953 88 44 C 88 68.300537109375 68.300537109375 88 44 88 C 19.69947052001953 88 0 68.300537109375 0 44 C 0 19.69947052001953 19.69947052001953 0 44 0 Z"/></g></g><g class="q" transform="matrix(1, 0, 0, 1, -9, -6)"><g class="b" transform="translate(14.09 11.09)"><path class="o" d="M 38.4830322265625 76.466064453125 C 33.35513305664062 76.466064453125 28.38089179992676 75.46187591552734 23.69847297668457 73.48136901855469 C 19.1755428314209 71.56832885742188 15.11343193054199 68.82954406738281 11.62497234344482 65.34109497070312 C 8.13652229309082 61.85263061523438 5.397732257843018 57.79052352905273 3.484692335128784 53.26759338378906 C 1.504192233085632 48.58517074584961 0.5000022053718567 43.61093139648438 0.5000022053718567 38.4830322265625 C 0.5000022053718567 33.35513305664062 1.504192233085632 28.38089179992676 3.484692335128784 23.69847297668457 C 5.397732257843018 19.1755428314209 8.13652229309082 15.11343193054199 11.62497234344482 11.62497234344482 C 15.11343193054199 8.13652229309082 19.1755428314209 5.397732257843018 23.69847297668457 3.484692335128784 C 28.38089179992676 1.504192233085632 33.35513305664062 0.5000022053718567 38.4830322265625 0.5000022053718567 C 43.61093139648438 0.5000022053718567 48.58517074584961 1.504192233085632 53.26759338378906 3.484692335128784 C 57.79052352905273 5.397732257843018 61.85263061523438 8.13652229309082 65.34109497070312 11.62497234344482 C 68.82954406738281 15.11343193054199 71.56832885742188 19.1755428314209 73.48136901855469 23.69847297668457 C 75.46187591552734 28.38089179992676 76.466064453125 33.35513305664062 76.466064453125 38.4830322265625 C 76.466064453125 43.61093139648438 75.46187591552734 48.58517074584961 73.48136901855469 53.26759338378906 C 71.56832885742188 57.79052352905273 68.82954406738281 61.85263061523438 65.34109497070312 65.34109497070312 C 61.85263061523438 68.82954406738281 57.79052352905273 71.56832885742188 53.26759338378906 73.48136901855469 C 48.58517074584961 75.46187591552734 43.61093139648438 76.466064453125 38.4830322265625 76.466064453125 Z"/><path class="p" d="M 38.4830322265625 1 C 33.42240905761719 1 28.51369857788086 1.990913391113281 23.89325332641602 3.9451904296875 C 19.4299201965332 5.833023071289062 15.42122268676758 8.535835266113281 11.97852325439453 11.97852325439453 C 8.535835266113281 15.42122268676758 5.833023071289062 19.4299201965332 3.9451904296875 23.89325332641602 C 1.990913391113281 28.51369857788086 1 33.42240905761719 1 38.4830322265625 C 1 43.54365539550781 1.990913391113281 48.45236587524414 3.9451904296875 53.07280731201172 C 5.833023071289062 57.5361442565918 8.535835266113281 61.54484558105469 11.97852325439453 64.98754119873047 C 15.42122268676758 68.43022918701172 19.4299201965332 71.13304138183594 23.89325332641602 73.0208740234375 C 28.51369857788086 74.97515106201172 33.42240905761719 75.966064453125 38.4830322265625 75.966064453125 C 43.54365539550781 75.966064453125 48.45236587524414 74.97515106201172 53.07280731201172 73.0208740234375 C 57.5361442565918 71.13304138183594 61.54484558105469 68.43022918701172 64.98754119873047 64.98754119873047 C 68.43022918701172 61.54484558105469 71.13304138183594 57.5361442565918 73.0208740234375 53.07280731201172 C 74.97515106201172 48.45236587524414 75.966064453125 43.54365539550781 75.966064453125 38.4830322265625 C 75.966064453125 33.42240905761719 74.97515106201172 28.51369857788086 73.0208740234375 23.89325332641602 C 71.13304138183594 19.4299201965332 68.43022918701172 15.42122268676758 64.98754119873047 11.97852325439453 C 61.54484558105469 8.535835266113281 57.5361442565918 5.833023071289062 53.07280731201172 3.9451904296875 C 48.45236587524414 1.990913391113281 43.54365539550781 1 38.4830322265625 1 M 38.4830322265625 0 C 59.73662185668945 0 76.966064453125 17.22944259643555 76.966064453125 38.4830322265625 C 76.966064453125 59.73662185668945 59.73662185668945 76.966064453125 38.4830322265625 76.966064453125 C 17.22944259643555 76.966064453125 0 59.73662185668945 0 38.4830322265625 C 0 17.22944259643555 17.22944259643555 0 38.4830322265625 0 Z"/></g></g><g transform="translate(18.824 19.317)"><path class="c" d="M362.32,329.054a7.886,7.886,0,0,1-.551,2.9H347.09a7.894,7.894,0,0,1,6.672-10.764c.22-.019.443-.028.667-.028A7.89,7.89,0,0,1,362.32,329.054Zm0,0" transform="translate(-311.919 -289.079)"/><path class="d" d="M357.977,330.326a6.3,6.3,0,0,1-.286,1.883h-10.6a7.894,7.894,0,0,1,6.672-10.764v2.924A6.329,6.329,0,0,1,357.977,330.326Zm0,0" transform="translate(-311.919 -289.332)"/><path class="e" d="M22.73,331.956a7.89,7.89,0,1,0-14.679,0Zm0,0" transform="translate(-6.751 -289.079)"/><path class="f" d="M118.486,28.567V55.657H86.48V28.567l16-14.368Zm0,0" transform="translate(-77.841 -12.781)"/><path class="g" d="M165.281,211.751l24.133-24.133v24.133Zm0,0" transform="translate(-148.769 -168.874)"/><path class="h" d="M337.729,272.359h-1.847a1.026,1.026,0,0,0-1.026,1.026v8.725h3.9v-8.725A1.026,1.026,0,0,0,337.729,272.359Zm0,0" transform="translate(-301.403 -245.15)"/><path class="h" d="M123.333,282.107v-8.725a1.026,1.026,0,0,0-1.026-1.026H120.46a1.026,1.026,0,0,0-1.026,1.026v8.725" transform="translate(-107.502 -245.147)"/><path class="i" d="M86.48,369.969h32.005v5.917H86.48Zm0,0" transform="translate(-77.841 -333.008)"/><path class="j" d="M86.48,369.969h32.005v5.916H86.48Zm0,0" transform="translate(-77.841 -333.008)"/><path class="h" d="M189.414,369.969v5.916H165.281l5.916-5.916Zm0,0" transform="translate(-148.769 -333.008)"/><path class="k" d="M206.491,273.382v14.642h-10.03V273.382a1.026,1.026,0,0,1,1.026-1.026h7.978A1.027,1.027,0,0,1,206.491,273.382Zm0,0" transform="translate(-176.834 -245.147)"/><path class="l" d="M206.491,297.6v13.146h-10.03v-3.115Zm0,0" transform="translate(-176.834 -267.867)"/><path class="j" d="M75.4,28.668,57.872,12.931,40.344,28.668a1.026,1.026,0,0,1-1.449-.078l-1.714-1.909a1.026,1.026,0,0,1,.078-1.449L56.33,8.109a2.308,2.308,0,0,1,3.085,0L78.485,25.231a1.026,1.026,0,0,1,.078,1.449L76.849,28.59A1.026,1.026,0,0,1,75.4,28.668Zm0,0" transform="translate(-33.23 -6.767)"/><path class="m" d="M213.818,153.9a4.1,4.1,0,1,1-4.1-4.1A4.1,4.1,0,0,1,213.818,153.9Zm0,0" transform="translate(-185.076 -134.839)"/><path class="e" d="M356.424,366.1a5.119,5.119,0,1,0-9.524,0Zm0,0" transform="translate(-311.923 -323.223)"/><path class="n" d="M42.51,31.336a8.743,8.743,0,0,0-1.116.074V28.159a.749.749,0,0,0-1.5,0v6.97c-.052,0-.1,0-.156,0a5.852,5.852,0,0,0-1.638.234V28.235a1.778,1.778,0,0,0-1.776-1.776H34.479A1.778,1.778,0,0,0,32.7,28.235v7.976h-2.3V28.235a1.777,1.777,0,0,0-1.775-1.776H20.653a1.778,1.778,0,0,0-1.776,1.776v7.976h-2.3V28.235a1.778,1.778,0,0,0-1.776-1.776H12.958a1.778,1.778,0,0,0-1.776,1.776v7.976H9.389V20.865L24.642,7.17,39.9,20.865V24.9a.749.749,0,1,0,1.5,0V22.211l.276.247a1.777,1.777,0,0,0,2.507-.135l1.714-1.909a1.777,1.777,0,0,0-.135-2.507l-8.19-7.353a.749.749,0,1,0-1,1.115l8.191,7.354a.277.277,0,0,1,.021.391l-1.714,1.909a.277.277,0,0,1-.391.021L25.143,5.606a.749.749,0,0,0-1,0L6.613,21.343a.277.277,0,0,1-.391-.021L4.508,19.413a.278.278,0,0,1,.021-.391L23.6,1.9a1.558,1.558,0,0,1,2.084,0l8.451,7.588a.749.749,0,0,0,1-1.115L26.685.784a3.053,3.053,0,0,0-4.086,0L3.528,17.907a1.777,1.777,0,0,0-.135,2.507l1.714,1.909a1.763,1.763,0,0,0,1.226.587c.033,0,.065,0,.1,0a1.764,1.764,0,0,0,1.184-.454l.276-.248v9.158a8.549,8.549,0,0,0-4.453,1.71.749.749,0,0,0,.9,1.2,7.06,7.06,0,0,1,3.55-1.4v9.253H1.829A7.155,7.155,0,0,1,2.4,36.5a.749.749,0,1,0-1.308-.731A8.65,8.65,0,0,0,.6,43.153a.749.749,0,0,0,.7.474H49.85a.749.749,0,0,0,.7-.474A8.644,8.644,0,0,0,42.51,31.336Zm-8.308-3.1a.277.277,0,0,1,.277-.277h1.847a.277.277,0,0,1,.277.277v7.8q-.132.084-.258.174H34.2Zm.676,9.475a5.86,5.86,0,0,0-.9,4.418H30.407V37.71ZM20.653,27.959h7.978a.277.277,0,0,1,.277.277V42.128H20.376V28.235A.277.277,0,0,1,20.653,27.959Zm-7.972.277a.277.277,0,0,1,.277-.277h1.847a.277.277,0,0,1,.277.277v7.976h-2.4ZM9.389,42.128V37.71h9.489v4.418Zm31.256,0H35.518a4.37,4.37,0,1,1,8.444,0Zm8.677,0H45.5a5.871,5.871,0,0,0-4.1-6.764V32.922a7.143,7.143,0,0,1,8.258,7.053A7.119,7.119,0,0,1,49.321,42.128Zm0,0" transform="translate(0 0)"/><path class="n" d="M265.593,345.622a.749.749,0,0,0,.749-.749v-.85a.749.749,0,1,0-1.5,0v.85A.749.749,0,0,0,265.593,345.622Zm0,0" transform="translate(-238.385 -308.98)"/><path class="n" d="M198.117,147.154a4.85,4.85,0,1,0,4.85-4.85A4.855,4.855,0,0,0,198.117,147.154Zm8.2,0a3.351,3.351,0,1,1-3.351-3.351A3.355,3.355,0,0,1,206.318,147.154Zm0,0" transform="translate(-178.325 -128.088)"/></g></g></svg>