<svg xmlns="http://www.w3.org/2000/svg" width="19.059" height="21.206" viewBox="0 0 19.059 21.206">
  <path id="propertyinfo-icon-active" d="M22094.426,1939.318h-10.775a3.005,3.005,0,0,1-3-3V1925.63a3.471,3.471,0,0,1,.039-.471h-.172a1,1,0,0,1-.51-1.858l8.523-5.047a.993.993,0,0,1,1.021,0l8.523,5.047a1,1,0,0,1-.51,1.858h-.172a3.472,3.472,0,0,1,.033.471v10.687A3,3,0,0,1,22094.426,1939.318Zm-7.01-10.948a.945.945,0,0,1,.637.155.761.761,0,0,1,.166.56,2.734,2.734,0,0,1-.049.494c-.031.137-.078.348-.139.571l-.594,2.1a5.236,5.236,0,0,0-.117.593,3.982,3.982,0,0,0-.033.51,1.344,1.344,0,0,0,.479,1.065,1.977,1.977,0,0,0,1.348.422,3.129,3.129,0,0,0,.986-.144c.268-.094.629-.23,1.143-.427l.16-.649a2.631,2.631,0,0,1-.4.133,1.867,1.867,0,0,1-.488.078,1.006,1.006,0,0,1-.648-.155.679.679,0,0,1-.189-.566,3.027,3.027,0,0,1,.057-.488,4.944,4.944,0,0,1,.133-.577l.594-2.085a3.63,3.63,0,0,0,.115-.632c.023-.248.033-.392.033-.483a1.361,1.361,0,0,0-.465-1.07,1.934,1.934,0,0,0-1.326-.416,3.248,3.248,0,0,0-1.01.172c-.369.113-.744.25-1.119.4l-.162.643.057-.019.029-.009c.1-.035.211-.071.33-.1A1.61,1.61,0,0,1,22087.416,1928.37Zm2.723-4.842a1.437,1.437,0,0,0-1,.388,1.223,1.223,0,0,0-.422.932,1.207,1.207,0,0,0,.422.932,1.5,1.5,0,0,0,2,0,1.22,1.22,0,0,0,.416-.932,1.237,1.237,0,0,0-.416-.932A1.429,1.429,0,0,0,22090.139,1923.529Z" transform="translate(-22079.512 -1918.113)" fill="#254bfa"/>
</svg>
