<svg xmlns="http://www.w3.org/2000/svg" width="20" height="20" viewBox="0 0 20 20"><defs><style>.a{fill:#385cf8;}.b{fill:#fff;}</style></defs><rect class="a" width="20" height="20" rx="3"/><g transform="translate(-244.039 -261.191)"><g transform="translate(247.039 263.191)"><path class="b" d="M34.177,7.762A4.832,4.832,0,0,1,38.09,3.055v.826l2.934-1.941L38.09,0V1.053a6.757,6.757,0,0,0-3.48,11.853l1.713-1.133A4.839,4.839,0,0,1,34.177,7.762Z" transform="translate(-32.221 0)"/><path class="b" d="M39.068,5.144a4.832,4.832,0,0,1-3.912,4.707V9.025l-2.934,1.941,2.934,1.941V11.854A6.757,6.757,0,0,0,38.635,0L36.922,1.133A4.839,4.839,0,0,1,39.068,5.144Z" transform="translate(-27.024 3.093)"/></g></g></svg>
