<svg xmlns="http://www.w3.org/2000/svg" xmlns:xlink="http://www.w3.org/1999/xlink" id="register-illustration" width="738.882" height="702.271" viewBox="0 0 738.882 702.271">
    <defs>
        <style>
            .cls-1,.cls-10,.cls-58,.cls-59,.cls-61,.cls-63,.cls-64,.cls-65,.cls-66,.cls-67,.cls-69,.cls-9{fill:none}.cls-2{fill:#58595b}.cls-3{fill:#434f8c}.cls-4{fill:#fff}.cls-5,.cls-60,.cls-8{opacity:.37}.cls-12,.cls-5,.cls-6,.cls-60,.cls-7,.cls-70,.cls-71,.cls-72,.cls-73,.cls-74,.cls-75,.cls-8,.cls-9{mix-blend-mode:multiply}.cls-12,.cls-13,.cls-5,.cls-6,.cls-60,.cls-7,.cls-70,.cls-71,.cls-72,.cls-73,.cls-74,.cls-75,.cls-8,.cls-9{isolation:isolate}.cls-5{fill:url(#linear-gradient)}.cls-6,.cls-7{opacity:.16}.cls-6{fill:url(#linear-gradient-2)}.cls-7{fill:url(#linear-gradient-3)}.cls-8{fill:url(#linear-gradient-4)}.cls-74,.cls-9{opacity:.33}.cls-10,.cls-58,.cls-64,.cls-65{stroke:#d69668}.cls-10,.cls-58,.cls-59,.cls-61,.cls-63,.cls-64,.cls-65,.cls-66,.cls-67,.cls-69{stroke-linecap:round;stroke-linejoin:round}.cls-10{stroke-width:13.108px}.cls-11{fill:#d69668}.cls-12{fill:url(#linear-gradient-5)}.cls-14{clip-path:url(#clip-path)}.cls-15{fill:#b3efff}.cls-16{clip-path:url(#clip-path-2)}.cls-17{fill:#a6ecff}.cls-18{clip-path:url(#clip-path-3)}.cls-19{fill:#99e9ff}.cls-20{clip-path:url(#clip-path-4)}.cls-21{clip-path:url(#clip-path-5)}.cls-22{fill:#bff2ff}.cls-23{fill:#ccf4ff}.cls-24{clip-path:url(#clip-path-6)}.cls-25{fill:#8ce7ff}.cls-26{clip-path:url(#clip-path-7)}.cls-27{clip-path:url(#clip-path-8)}.cls-28{fill:#61cff8}.cls-29{fill:#6acff7}.cls-30{fill:#73d0f7}.cls-31{fill:#7cd0f6}.cls-32{fill:#85d1f5}.cls-33{fill:#8ed1f5}.cls-34{clip-path:url(#clip-path-9)}.cls-35{clip-path:url(#clip-path-10)}.cls-36{clip-path:url(#clip-path-11)}.cls-37{clip-path:url(#clip-path-12)}.cls-38{fill:url(#linear-gradient-6)}.cls-39{clip-path:url(#clip-path-13)}.cls-40{clip-path:url(#clip-path-14)}.cls-41{clip-path:url(#clip-path-15)}.cls-42{fill:#49c9f7}.cls-43{fill:#99eaff}.cls-44{clip-path:url(#clip-path-16)}.cls-45{clip-path:url(#clip-path-17)}.cls-46{fill:#4fc9f6}.cls-47{fill:#56c9f5}.cls-48{fill:#5cc9f4}.cls-49{fill:#63c9f4}.cls-50{fill:#6ac9f3}.cls-51{clip-path:url(#clip-path-18)}.cls-52{fill:url(#linear-gradient-7)}.cls-53{fill:url(#linear-gradient-8)}.cls-54{fill:url(#linear-gradient-9)}.cls-55{fill:url(#linear-gradient-10)}.cls-56{fill:#51d1fe}.cls-57{fill:#efedf8}.cls-58{stroke-width:13.865px}.cls-59{stroke:#31216b;stroke-width:22.24px}.cls-60{fill:url(#radial-gradient)}.cls-61{stroke:#3b4885;stroke-width:22.701px}.cls-62{fill:#382777}.cls-63,.cls-69{stroke:#382777}.cls-63{stroke-width:6.311px}.cls-64{stroke-width:3.383px}.cls-65{stroke-width:13.865px}.cls-66{stroke:#e5e3f1;stroke-width:3.517px}.cls-67{stroke:#fff;stroke-width:4.69px}.cls-68{fill:#58ceeb}.cls-69{stroke-width:22.18px}.cls-70{fill:url(#linear-gradient-11)}.cls-71{fill:url(#linear-gradient-12)}.cls-72{fill:url(#linear-gradient-13)}.cls-73{fill:url(#linear-gradient-14)}.cls-74{fill:url(#linear-gradient-15)}.cls-75{fill:url(#linear-gradient-16)}.cls-76{opacity:.64}.cls-77{opacity:.24;fill:url(#linear-gradient-17)}
        </style>
        <linearGradient id="linear-gradient" x1="-46.052" x2="-45.058" y1="-.528" y2="-.528" gradientUnits="objectBoundingBox">
            <stop offset="0" stop-color="#fff"/>
            <stop offset=".222" stop-color="#f2eefa"/>
            <stop offset=".723" stop-color="#dacff0"/>
            <stop offset="1" stop-color="#d1c3ed"/>
        </linearGradient>
        <linearGradient id="linear-gradient-2" x1="-57.267" x2="-56.279" y1="-.771" y2="-.771" gradientUnits="objectBoundingBox">
            <stop offset="0" stop-color="#fff"/>
            <stop offset=".358" stop-color="#b7eaf6"/>
            <stop offset=".654" stop-color="#83daf0"/>
            <stop offset=".877" stop-color="#64d1ec"/>
            <stop offset="1" stop-color="#58ceeb"/>
        </linearGradient>
        <linearGradient id="linear-gradient-3" x1="-50.147" x2="-49.239" y1="32.172" y2="32.172" xlink:href="#linear-gradient-2"/>
        <linearGradient id="linear-gradient-4" x1="-60.462" x2="-59.476" y1="-.894" y2="-.894" xlink:href="#linear-gradient"/>
        <linearGradient id="linear-gradient-5" x1=".532" x2=".968" y1=".463" y2=".718" gradientUnits="objectBoundingBox">
            <stop offset="0" stop-color="#d1c3ed"/>
            <stop offset=".467" stop-color="#e4dcf4"/>
            <stop offset="1" stop-color="#fff"/>
        </linearGradient>
        <clipPath id="clip-path">
            <path id="Path_23199" d="M1365.631 837.7q.42 1.105.9 2.2l-13.536 7.865q-.477-1.094-.9-2.2z" class="cls-1" data-name="Path 23199" transform="translate(-1352.097 -837.7)"/>
        </clipPath>
        <clipPath id="clip-path-2">
            <path id="Path_23202" d="M1365.975 838.714l-13.534 7.865q-.541-1.43-.975-2.873l7.652-4.446 1.759-1.023.864-.5.849-.493 1.635-.949c.233-.136.508-.453.777-.453.287.958.613 1.918.973 2.872z" class="cls-1" data-name="Path 23202" transform="translate(-1351.466 -835.841)"/>
        </clipPath>
        <clipPath id="clip-path-3">
            <path id="Path_23205" d="M1364.494 833.891q.327 1.5.783 3.013l-13.535 7.865c-.3-1-.565-2.01-.785-3.012z" class="cls-1" data-name="Path 23205" transform="translate(-1350.958 -833.891)"/>
        </clipPath>
        <clipPath id="clip-path-4">
            <path id="Path_23207" d="M1364.632 834.624l-13.536 7.867q-.228-1.043-.393-2.078l13.535-7.867q.162 1.036.394 2.078z" class="cls-1" data-name="Path 23207" transform="translate(-1350.704 -832.546)"/>
        </clipPath>
        <clipPath id="clip-path-5">
            <path id="Path_23212" d="M1366.213 839.124c3.651 8.361 9.855 16.055 16.9 20.123l-13.535 7.865c-7.048-4.069-13.252-11.762-16.9-20.123q6.767-3.931 13.535-7.865z" class="cls-1" data-name="Path 23212" transform="translate(-1352.677 -839.124)"/>
        </clipPath>
        <clipPath id="clip-path-6">
            <path id="Path_23215" d="M1363.979 829.331a31.177 31.177 0 0 0 .4 4.968l-13.535 7.867a31.238 31.238 0 0 1-.4-4.969z" class="cls-1" data-name="Path 23215" transform="translate(-1350.444 -829.331)"/>
        </clipPath>
        <clipPath id="clip-path-7">
            <path id="Path_23223" d="M1392.651 882.031l13.534-7.865c-1.428.83-2.314 2.591-2.321 5.093-.015 5.033 3.543 11.188 7.922 13.715l-13.534 7.865c-4.379-2.528-7.938-8.682-7.924-13.715.008-2.502.895-4.263 2.323-5.093z" class="cls-1" data-name="Path 23223" transform="translate(-1390.328 -874.166)"/>
        </clipPath>
        <clipPath id="clip-path-8">
            <path id="Path_23231" d="M1393.38 883.641l13.535-7.865c-1.062.616-1.721 1.927-1.726 3.787a12.988 12.988 0 0 0 5.881 10.188l-13.535 7.865a12.986 12.986 0 0 1-5.881-10.187c.004-1.861.664-3.171 1.726-3.788z" class="cls-1" data-name="Path 23231" transform="translate(-1391.654 -875.776)"/>
        </clipPath>
        <clipPath id="clip-path-9">
            <path id="Path_23237" d="M1392.771 883.782l13.535-7.865c1.072-.624 2.559-.538 4.194.406l-13.535 7.865c-1.635-.944-3.122-1.03-4.194-.406z" class="cls-1" data-name="Path 23237" transform="translate(-1392.771 -875.517)"/>
        </clipPath>
        <clipPath id="clip-path-10">
            <path id="Path_23243" d="M1391.831 882.221l13.535-7.865c1.446-.841 3.449-.725 5.653.548l-13.535 7.865c-2.204-1.269-4.207-1.389-5.653-.548z" class="cls-1" data-name="Path 23243" transform="translate(-1391.831 -873.818)"/>
        </clipPath>
        <clipPath id="clip-path-11">
            <path id="Path_23251" d="M1430.238 895.068l-13.535 7.867c-1.074.624-2.56.538-4.2-.406l13.534-7.865c1.642.943 3.126 1.028 4.201.404z" class="cls-1" data-name="Path 23251" transform="translate(-1412.508 -894.663)"/>
        </clipPath>
        <clipPath id="clip-path-12">
            <path id="Path_23261" d="M1430.224 899.856l-13.534 7.867c1.06-.617 1.718-1.925 1.724-3.781a12.992 12.992 0 0 0-5.881-10.194l13.535-7.867a12.992 12.992 0 0 1 5.881 10.2c-.006 1.851-.665 3.16-1.725 3.775z" class="cls-1" data-name="Path 23261" transform="translate(-1412.533 -885.881)"/>
        </clipPath>
        <linearGradient id="linear-gradient-6" x1=".68" x2="-.019" y1=".641" y2=".094" gradientUnits="objectBoundingBox">
            <stop offset="0" stop-color="#fde0c9"/>
            <stop offset="1" stop-color="#fbb47c"/>
        </linearGradient>
        <clipPath id="clip-path-13">
            <path id="Path_23270" d="M1431.668 903.171l-13.534 7.867c1.426-.83 2.312-2.59 2.319-5.09.014-5.039-3.537-11.19-7.916-13.718l13.535-7.865c4.379 2.528 7.93 8.68 7.916 13.719-.008 2.497-.894 4.259-2.32 5.087z" class="cls-1" data-name="Path 23270" transform="translate(-1412.537 -884.364)"/>
        </clipPath>
        <clipPath id="clip-path-14">
            <path id="Path_23277" d="M1472.5 900.228l-13.535 7.865c-3.713 2.157-8.856 1.854-14.53-1.422l13.534-7.865c5.672 3.276 10.814 3.579 14.531 1.422z" class="cls-1" data-name="Path 23277" transform="translate(-1444.432 -898.806)"/>
        </clipPath>
        <clipPath id="clip-path-15">
            <path id="Path_23279" d="M1467.369 904.347l-13.534 7.865c3.667-2.131 5.94-6.66 5.958-13.1l13.534-7.867c-.018 6.442-2.291 10.971-5.958 13.102z" class="cls-1" data-name="Path 23279" transform="translate(-1453.835 -891.25)"/>
        </clipPath>
        <clipPath id="clip-path-16">
            <path id="Path_23282" d="M1357 619.265l13.534-7.867c-3.667 2.131-5.94 6.661-5.958 13.1l-13.535 7.867c.015-6.44 2.288-10.971 5.959-13.1z" class="cls-1" data-name="Path 23282" transform="translate(-1351.038 -611.398)"/>
        </clipPath>
        <clipPath id="clip-path-17">
            <path id="Path_23288" d="M1354.894 619.751l13.534-7.865c3.713-2.159 8.856-1.854 14.53 1.422l-13.534 7.865c-5.674-3.273-10.817-3.581-14.53-1.422z" class="cls-1" data-name="Path 23288" transform="translate(-1354.894 -610.507)"/>
        </clipPath>
        <clipPath id="clip-path-18">
            <path id="Path_23298" d="M1445.112 666.843l13.534-7.865c11.277 6.51 20.392 22.3 20.355 35.254l-13.534 7.867c.033-12.957-9.08-28.746-20.355-35.256z" class="cls-1" data-name="Path 23298" transform="translate(-1445.112 -658.978)"/>
        </clipPath>
        <linearGradient id="linear-gradient-7" x2="1" y1=".5" y2=".5" gradientUnits="objectBoundingBox">
            <stop offset="0" stop-color="#51d1fe"/>
            <stop offset=".075" stop-color="#5ac1f5"/>
            <stop offset=".222" stop-color="#69a7e7"/>
            <stop offset=".355" stop-color="#7298de"/>
            <stop offset=".462" stop-color="#7693dc"/>
            <stop offset=".689" stop-color="#778fda"/>
            <stop offset=".861" stop-color="#7d86d4"/>
            <stop offset="1" stop-color="#8678cd"/>
        </linearGradient>
        <linearGradient id="linear-gradient-8" x1="-.093" x2="2.579" y1=".475" y2=".586" gradientUnits="objectBoundingBox">
            <stop offset="0" stop-color="#fde0c9"/>
            <stop offset="1" stop-color="#fbc397"/>
        </linearGradient>
        <linearGradient id="linear-gradient-9" x2="1" y1=".5" y2=".5" gradientUnits="objectBoundingBox">
            <stop offset="0" stop-color="#fde0c9"/>
            <stop offset="1" stop-color="#fcc498"/>
        </linearGradient>
        <linearGradient id="linear-gradient-10" x1=".021" x2="1.077" y1=".043" y2=".688" xlink:href="#linear-gradient-7"/>
        <radialGradient id="radial-gradient" cx="-84.656" cy="-20.844" r=".582" gradientTransform="matrix(-.764 0 0 .7 -123.41 -5.142)">
            <stop offset="0" stop-color="#d1c3ed"/>
            <stop offset=".277" stop-color="#dacff0"/>
            <stop offset=".778" stop-color="#f2eefa"/>
            <stop offset="1" stop-color="#fff"/>
        </radialGradient>
        <linearGradient id="linear-gradient-11" x1=".616" x2="1.852" y1=".53" y2=".854" xlink:href="#linear-gradient-5"/>
        <linearGradient id="linear-gradient-12" x1=".519" x2="1.078" y1=".457" y2=".742" xlink:href="#linear-gradient-5"/>
        <linearGradient id="linear-gradient-13" x1="-345.559" x2="-344.474" y1=".634" y2=".445" xlink:href="#linear-gradient-5"/>
        <linearGradient id="linear-gradient-14" x1=".988" x2=".472" y1="-.115" y2=".779" xlink:href="#radial-gradient"/>
        <linearGradient id="linear-gradient-15" x1="-1.991" x2="-1.718" y1="-3.835" y2="-3.329" xlink:href="#linear-gradient"/>
        <linearGradient id="linear-gradient-16" x1="-.745" x2="1.718" y1=".227" y2=".787" xlink:href="#linear-gradient"/>
        <linearGradient id="linear-gradient-17" x1=".385" x2=".615" y1=".392" y2=".608" xlink:href="#linear-gradient"/>
    </defs>
    <path id="Path_23316" d="M1331.637 968.276l15.729-9.948c4.319-2.494 4.816-8.829 4.05-11.942s-3.2-7.959-12.388-3.319l-16.46 9.5a9.1 9.1 0 0 0-3.319 12.388 9.1 9.1 0 0 0 12.388 3.321z" class="cls-2" data-name="Path 23316" transform="translate(-1040.811 -414.056)"/>
    <path id="Path_23317" d="M1311.565 957.559l15.729-9.95c4.32-2.494 4.816-8.828 4.05-11.941s-3.2-7.959-12.388-3.319l-16.458 9.5a9.1 9.1 0 0 0-3.321 12.388 9.1 9.1 0 0 0 12.388 3.322z" class="cls-2" data-name="Path 23317" transform="translate(-1072.235 -422.176)"/>
    <path id="Path_21171" d="M204.866 259.487s-2.143 143.985 1.716 150.725 17.741 4.137 18.075-2.609c.831-16.7 3.377-107.532 10.13-111.665s10.936 30.338 12.866 46.547 3.432 77.32 8.014 92.622c.621 2.073 17.644 4.657 17.644-3.41 0-14.63-3.727-149.565-6.687-165 0 .003-36.676-17.824-61.758-7.21z" class="cls-3" data-name="Path 21171" transform="translate(20.882 111.353)"/>
    <g id="Group_9753" data-name="Group 9753" transform="translate(524.171 233.7)">
        <path id="Path_23187" d="M1504.148 764.559l17.759-11.073 4.031 18.469z" class="cls-4" data-name="Path 23187" transform="translate(-1479.443 -753.487)"/>
        <path id="Path_23188" d="M1488.16 786.349l14.811-9.235 4.029 18.47z" class="cls-4" data-name="Path 23188" transform="translate(-1488.16 -740.604)"/>
        <path id="Path_23189" d="M1491.031 832.757l17.5-10.914 6.21 17.111z" class="cls-4" data-name="Path 23189" transform="translate(-1486.595 -716.218)"/>
    </g>
    <g id="Group_9754" data-name="Group 9754" transform="translate(0 363.355)">
        <path id="Path_23190" d="M1664.625 931.949l-128.229-78.8-363.755 197.184 128 78.8z" class="cls-5" data-name="Path 23190" transform="translate(-1136.015 -828.805)"/>
        <path id="Path_23191" d="M1519.145 877.446s24.192-10.966 22.259-23.571c-1.448-9.451-13.964-15.149-23.452-16.331s-30.611 4.9-39.721 7.8l-85.9 27.292c-28.468 9.046-56.93 18.167-84.873 28.749-30.462 11.535-60.382 24.822-88.341 41.613a440.16 440.16 0 0 0-14.587 9.123c-13.544 8.873-26.59 18.694-37.92 30.306-4.072 4.174-8.564 8.442-11.535 13.456-5.189 8.754-8.088 21.539-4.64 31.362 2.287 6.515 6.757 12.084 11.944 16.637a97.354 97.354 0 0 0 12.555 9.041c1.137.714 8.893 4.937 10.628 6 8.925-4.832 36.767-19.91 45.689-24.737q33.122-17.922 66.247-35.84 32.507-17.588 65.009-35.182l77.672-42.076c10.68-5.788 78.966-43.642 78.966-43.642z" class="cls-6" data-name="Path 23191" transform="translate(-1148.938 -837.394)"/>
        <path id="Path_23192" d="M1593.156 942.038c52.624-30.16 106.108-58.712 163-81.093 14.131-5.56 29.117-10.916 44.156-8.817s29.792 14.245 29.415 29.425c-.372 14.947-14.068 25.632-26.5 33.945q-100.5 67.221-205.667 127.091c-67.662 38.519-140.744 69.564-206.547 110.849-19.25 12.085-34.489 17.762-56.669 13.882a131.471 131.471 0 0 1-45.752-16.633c-4.63-2.766-24.073-14.579-33.12-20.751 8.7-4.358 41-22.027 49.56-26.658l66.738-36.127q32.751-17.729 65.5-35.447c52.765-28.52 103.905-59.877 155.886-89.666z" class="cls-7" data-name="Path 23192" transform="translate(-1090.852 -829.614)"/>
        <path id="Path_23193" d="M1551.921 862.374l-9.291-5.4-363.755 197.184 9.061 5.393z" class="cls-8" data-name="Path 23193" transform="translate(-1132.616 -826.716)"/>
    </g>
    <path id="Path_23194" d="M1517.883 846.172h1.083" class="cls-9" data-name="Path 23194" transform="translate(-947.784 -469.253)"/>
    <g id="Group_9755" data-name="Group 9755" transform="translate(231.931 162.772)">
        <path id="Line_75" d="M2.441 0L0 19.514" class="cls-10" data-name="Line 75" transform="translate(25.787 81.327)"/>
        <path id="Path_23195" d="M1302.852 755.822c0 18.538 12.578 33.567 28.092 33.567 10.5 0 19.328-7.034 23.983-16.076 4.925-9.566 8.434-26.144 5.608-36.526-2.076-7.626-7.759-14.428-15.285-16.833-8.018-2.562-20.553 1.539-27.578 6.116-9.772 6.366-14.82 18.387-14.82 29.752z" class="cls-11" data-name="Path 23195" transform="translate(-1296.953 -701.272)"/>
        <path id="Path_23196" d="M1304.665 729.416c5.431-7.953 14.374-14.065 23.908-12.643 3.43.51 7.415 1.565 10-.749 2.442-2.187 1.581-6.895-1.476-8.077 5.334-1.887 13.1 3.946 13.618 9.58-.907-3.1 2.69-6.087 5.89-5.643s5.626 3.138 7.167 5.977c3.641 6.7 4.6 18.121-1.123 24.079-2.091 2.176-4.949 3.427-7.338 5.271-2.919 2.255-3.665 4.492-3.474 7.881a54.171 54.171 0 0 1-.72 10.055c-.273 2.145-.493 4.29-.712 6.436q-2.007.7-4 1.429c.927-4.683 1.683-12.91-4.232-13.99-3.984-.728-5.814 1.742-6.726 5a19.278 19.278 0 0 1-6.377 10.243c-8.857 7.088-21.979 5.132-25.89-5.506-4.7-12.779-6.722-26.69 1.176-38.873.098-.158.202-.314.309-.47z" class="cls-2" data-name="Path 23196" transform="translate(-1299.034 -707.585)"/>
        <path id="Path_23197" d="M1330.294 801.832a26.564 26.564 0 0 0 1.092-5.638 53.6 53.6 0 0 1 5.583-17.827c2.86-5.518 7.4-9.866 8.491-16.188.917-5.334.952-9.631 3.761-14.523 3.483-6.067 7.681-11.646 10.73-17.977 1.534-3.189 2.833-6.826 1.788-10.209s-5.47-5.788-8.284-3.641c-1.284.981-1.9 2.593-2.941 3.827s-3.057 2.032-4.215.907a8.072 8.072 0 0 0-1.779-9.191 7.392 7.392 0 0 1-3.565 7.267c-3.85 2.2-7.9-.716-12.02-.3-17.276 1.749-29.807 15.775-29.375 33.051a42.118 42.118 0 0 0 1.193 8.947c1.888 7.715 5.841 13.17 9.921 19.768 1.136 1.837 1.018 3.3 3.081 4.651 1.261.83 2.695 1.718 3.064 3.183a5.62 5.62 0 0 1-.269 2.811c-.865 3.185-2.3 6.494-2.3 9.732.555 2.08 2.812 3.137 4.817 3.925 2.826 1.109 6.133 2.772 8.938.689a6.819 6.819 0 0 0 2.289-3.264z" class="cls-12" data-name="Path 23197" transform="translate(-1298.753 -705.52)"/>
    </g>
    <g id="Group_9823" data-name="Group 9823" transform="translate(306.686)">
        <g id="Group_9822" class="cls-13" data-name="Group 9822">
            <g id="Group_9758" class="cls-13" data-name="Group 9758" transform="translate(7.238 363.828)">
                <g id="Group_9757" class="cls-14" data-name="Group 9757">
                    <g id="Group_9756" class="cls-13" data-name="Group 9756" transform="translate(-.249 -.678)">
                        <path id="Path_23198" d="M1351.936 845.128l13.534-7.867a47.794 47.794 0 0 0 2.476 5.677l-13.535 7.865a47.861 47.861 0 0 1-2.475-5.675" class="cls-15" data-name="Path 23198" transform="translate(-1351.936 -837.261)"/>
                    </g>
                </g>
            </g>
            <g id="Group_9761" class="cls-13" data-name="Group 9761" transform="translate(6.263 360.956)">
                <g id="Group_9760" class="cls-16" data-name="Group 9760">
                    <g id="Group_9759" class="cls-13" data-name="Group 9759" transform="translate(-.78 -2.998)">
                        <path id="Path_23200" d="M1350.961 841.768l13.539-7.868a41.732 41.732 0 0 0 1.507 5.192l-13.534 7.867a41.768 41.768 0 0 1-1.507-5.192" class="cls-17" data-name="Path 23200" transform="translate(-1350.961 -833.901)"/>
                        <path id="Path_23201" d="M1351.936 845.128l13.534-7.867a47.794 47.794 0 0 0 2.476 5.677l-13.535 7.865a47.861 47.861 0 0 1-2.475-5.675" class="cls-15" data-name="Path 23201" transform="translate(-1350.43 -832.069)"/>
                    </g>
                </g>
            </g>
            <g id="Group_9764" class="cls-13" data-name="Group 9764" transform="translate(5.478 357.942)">
                <g id="Group_9763" class="cls-18" data-name="Group 9763">
                    <g id="Group_9762" class="cls-13" data-name="Group 9762" transform="translate(-.756 -5.498)">
                        <path id="Path_23203" d="M1350.469 838.2l13.531-7.867a33.982 33.982 0 0 0 .76 5.513l-13.534 7.867a33.809 33.809 0 0 1-.76-5.515" class="cls-19" data-name="Path 23203" transform="translate(-1350.469 -830.333)"/>
                        <path id="Path_23204" d="M1350.961 841.768l13.539-7.868a41.732 41.732 0 0 0 1.507 5.192l-13.534 7.867a41.768 41.768 0 0 1-1.507-5.192" class="cls-17" data-name="Path 23204" transform="translate(-1350.201 -828.388)"/>
                    </g>
                </g>
            </g>
            <g id="Group_9767" class="cls-13" data-name="Group 9767" transform="translate(5.086 355.864)">
                <g id="Group_9766" class="cls-20" data-name="Group 9766">
                    <g id="Group_9765" class="cls-13" data-name="Group 9765" transform="translate(-.363 -3.42)">
                        <path id="Path_23206" d="M1350.469 838.2l13.531-7.867a33.982 33.982 0 0 0 .76 5.513l-13.534 7.867a33.809 33.809 0 0 1-.76-5.515" class="cls-19" data-name="Path 23206" transform="translate(-1350.469 -830.333)"/>
                    </g>
                </g>
            </g>
            <g id="Group_9770" class="cls-13" data-name="Group 9770" transform="translate(8.134 366.028)">
                <g id="Group_9769" class="cls-21" data-name="Group 9769">
                    <g id="Group_9768" class="cls-13" data-name="Group 9768" transform="translate(-1.145 -2.879)">
                        <path id="Path_23208" d="M1351.936 845.128l13.534-7.867a47.794 47.794 0 0 0 2.476 5.677l-13.535 7.865a47.861 47.861 0 0 1-2.475-5.675" class="cls-15" data-name="Path 23208" transform="translate(-1351.936 -837.261)"/>
                        <path id="Path_23209" d="M1353.538 848.8l13.535-7.865a49.177 49.177 0 0 0 6.033 9.094l-13.534 7.865a49.189 49.189 0 0 1-6.033-9.094" class="cls-22" data-name="Path 23209" transform="translate(-1351.062 -835.258)"/>
                        <path id="Path_23210" d="M1357.442 854.685l13.535-7.865a42.929 42.929 0 0 0 3.359 3.565l-13.536 7.865a43.067 43.067 0 0 1-3.359-3.565" class="cls-23" data-name="Path 23210" transform="translate(-1348.934 -832.049)"/>
                        <path id="Path_23211" d="M1359.616 856.992l13.534-7.865a33.546 33.546 0 0 0 6.182 4.667l-13.535 7.865a33.448 33.448 0 0 1-6.182-4.667" class="cls-22" data-name="Path 23211" transform="translate(-1347.749 -830.791)"/>
                    </g>
                </g>
            </g>
            <g id="Group_9773" class="cls-13" data-name="Group 9773" transform="translate(4.684 350.896)">
                <g id="Group_9772" class="cls-24" data-name="Group 9772">
                    <g id="Group_9771" class="cls-13" data-name="Group 9771">
                        <path id="Path_23213" d="M1350.444 837.2l13.535-7.865c0 .511.012 1.027.039 1.548l-13.535 7.865a27.768 27.768 0 0 1-.039-1.548" class="cls-25" data-name="Path 23213" transform="translate(-1350.444 -829.331)"/>
                        <path id="Path_23214" d="M1350.469 838.2l13.531-7.867a33.982 33.982 0 0 0 .76 5.513l-13.534 7.867a33.809 33.809 0 0 1-.76-5.515" class="cls-19" data-name="Path 23214" transform="translate(-1350.43 -828.785)"/>
                    </g>
                </g>
            </g>
            <g id="Group_9776" class="cls-13" data-name="Group 9776" transform="translate(66.313 420.176)">
                <g id="Group_9775" class="cls-26" data-name="Group 9775">
                    <g id="Group_9774" class="cls-13" data-name="Group 9774">
                        <path id="Path_23216" d="M1392.651 882.031l13.534-7.865c-1.428.83-2.314 2.591-2.321 5.093q0 .3.014.6l-13.534 7.865c-.011-.2-.016-.4-.016-.6.008-2.5.895-4.263 2.323-5.093" class="cls-25" data-name="Path 23216" transform="translate(-1390.328 -874.166)"/>
                        <path id="Path_23217" d="M1390.338 885.714l13.535-7.865a13.046 13.046 0 0 0 .295 2.137l-13.534 7.865a13.021 13.021 0 0 1-.3-2.137" class="cls-19" data-name="Path 23217" transform="translate(-1390.323 -872.158)"/>
                        <path id="Path_23218" d="M1390.529 887.1l13.534-7.865a16.331 16.331 0 0 0 .586 2.018l-13.534 7.865a16.028 16.028 0 0 1-.585-2.018" class="cls-17" data-name="Path 23218" transform="translate(-1390.219 -871.404)"/>
                        <path id="Path_23219" d="M1390.908 888.4l13.534-7.865a18.885 18.885 0 0 0 .965 2.213l-13.535 7.865a18.7 18.7 0 0 1-.964-2.213" class="cls-15" data-name="Path 23219" transform="translate(-1390.012 -870.692)"/>
                        <path id="Path_23220" d="M1391.532 889.835l13.535-7.865a19.178 19.178 0 0 0 2.354 3.548l-13.534 7.865a19.179 19.179 0 0 1-2.355-3.548" class="cls-22" data-name="Path 23220" transform="translate(-1389.672 -869.911)"/>
                        <path id="Path_23221" d="M1393.056 892.131l13.534-7.865a16.784 16.784 0 0 0 1.308 1.389l-13.535 7.865a16.838 16.838 0 0 1-1.307-1.389" class="cls-23" data-name="Path 23221" transform="translate(-1388.84 -868.659)"/>
                        <path id="Path_23222" d="M1393.9 893.03l13.535-7.865a13.077 13.077 0 0 0 2.4 1.813l-13.535 7.865a13.081 13.081 0 0 1-2.4-1.812" class="cls-22" data-name="Path 23222" transform="translate(-1388.379 -868.169)"/>
                    </g>
                </g>
            </g>
            <g id="Group_9779" class="cls-13" data-name="Group 9779" transform="translate(68.362 422.664)">
                <g id="Group_9778" class="cls-27" data-name="Group 9778">
                    <g id="Group_9777" class="cls-13" data-name="Group 9777">
                        <path id="Path_23224" d="M1393.38 883.641l13.535-7.865c-1.062.616-1.721 1.927-1.726 3.787 0 .147 0 .3.011.445l-13.534 7.865a6.69 6.69 0 0 1-.011-.445c0-1.861.664-3.171 1.726-3.787" class="cls-28" data-name="Path 23224" transform="translate(-1391.654 -875.776)"/>
                        <path id="Path_23225" d="M1391.661 886.38l13.534-7.865a9.577 9.577 0 0 0 .219 1.587l-13.535 7.867a9.587 9.587 0 0 1-.219-1.588" class="cls-29" data-name="Path 23225" transform="translate(-1391.65 -874.282)"/>
                        <path id="Path_23226" d="M1391.8 887.409l13.534-7.867a11.846 11.846 0 0 0 .434 1.5l-13.535 7.867a11.96 11.96 0 0 1-.434-1.5" class="cls-30" data-name="Path 23226" transform="translate(-1391.572 -873.723)"/>
                        <path id="Path_23227" d="M1392.084 888.38l13.535-7.867a13.739 13.739 0 0 0 .719 1.646l-13.535 7.865a13.977 13.977 0 0 1-.719-1.644" class="cls-31" data-name="Path 23227" transform="translate(-1391.419 -873.193)"/>
                        <path id="Path_23228" d="M1392.549 889.443l13.535-7.865a14.285 14.285 0 0 0 1.747 2.635l-13.534 7.867a14.26 14.26 0 0 1-1.748-2.636" class="cls-32" data-name="Path 23228" transform="translate(-1391.166 -872.613)"/>
                        <path id="Path_23229" d="M1393.68 891.15l13.534-7.867a12.311 12.311 0 0 0 .97 1.031l-13.535 7.865a12.063 12.063 0 0 1-.97-1.029" class="cls-33" data-name="Path 23229" transform="translate(-1390.549 -871.683)"/>
                        <path id="Path_23230" d="M1394.308 891.815l13.534-7.865a9.715 9.715 0 0 0 1.78 1.344l-13.535 7.865a9.585 9.585 0 0 1-1.78-1.344" class="cls-32" data-name="Path 23230" transform="translate(-1390.206 -871.319)"/>
                    </g>
                </g>
            </g>
            <g id="Group_9782" class="cls-13" data-name="Group 9782" transform="translate(70.088 422.264)">
                <g id="Group_9781" class="cls-34" data-name="Group 9781">
                    <g id="Group_9780" class="cls-13" data-name="Group 9780" transform="translate(0 -.001)">
                        <path id="Path_23232" d="M1392.771 883.7l13.535-7.865a2.7 2.7 0 0 1 .337-.167l-13.534 7.865a2.729 2.729 0 0 0-.337.167" class="cls-25" data-name="Path 23232" transform="translate(-1392.771 -875.435)"/>
                        <path id="Path_23233" d="M1392.989 883.614l13.534-7.865a3.121 3.121 0 0 1 1.072-.23l-13.534 7.867a3.114 3.114 0 0 0-1.072.229" class="cls-19" data-name="Path 23233" transform="translate(-1392.652 -875.516)"/>
                        <path id="Path_23234" d="M1393.683 883.387l13.534-7.867a4.053 4.053 0 0 1 1.083.11l-13.534 7.865a4.117 4.117 0 0 0-1.083-.108" class="cls-17" data-name="Path 23234" transform="translate(-1392.274 -875.517)"/>
                        <path id="Path_23235" d="M1394.384 883.455l13.534-7.865a5.77 5.77 0 0 1 1.253.454l-13.535 7.865a5.845 5.845 0 0 0-1.253-.454" class="cls-15" data-name="Path 23235" transform="translate(-1391.892 -875.477)"/>
                        <path id="Path_23236" d="M1395.195 883.749l13.535-7.865c.149.073.3.153.448.24l-13.535 7.865a7.882 7.882 0 0 0-.448-.24" class="cls-22" data-name="Path 23236" transform="translate(-1391.449 -875.317)"/>
                    </g>
                </g>
            </g>
            <g id="Group_9785" class="cls-13" data-name="Group 9785" transform="translate(68.636 419.638)">
                <g id="Group_9784" class="cls-35" data-name="Group 9784">
                    <g id="Group_9783" class="cls-13" data-name="Group 9783">
                        <path id="Path_23238" d="M1391.831 882.111l13.535-7.865a3.847 3.847 0 0 1 .454-.225l-13.535 7.867a3.669 3.669 0 0 0-.454.224" class="cls-28" data-name="Path 23238" transform="translate(-1391.831 -873.707)"/>
                        <path id="Path_23239" d="M1392.125 882l13.535-7.867a4.222 4.222 0 0 1 1.445-.309l-13.536 7.867a4.159 4.159 0 0 0-1.443.309" class="cls-29" data-name="Path 23239" transform="translate(-1391.671 -873.816)"/>
                        <path id="Path_23240" d="M1393.059 881.688l13.536-7.867a5.507 5.507 0 0 1 1.459.147l-13.534 7.865a5.518 5.518 0 0 0-1.461-.145" class="cls-30" data-name="Path 23240" transform="translate(-1391.161 -873.817)"/>
                        <path id="Path_23241" d="M1394 881.78l13.534-7.865a7.875 7.875 0 0 1 1.69.614l-13.534 7.865a7.86 7.86 0 0 0-1.69-.613" class="cls-31" data-name="Path 23241" transform="translate(-1390.646 -873.764)"/>
                        <path id="Path_23242" d="M1395.1 882.177l13.535-7.865c.2.1.4.205.6.323L1395.7 882.5c-.2-.118-.4-.224-.6-.323" class="cls-32" data-name="Path 23242" transform="translate(-1390.05 -873.548)"/>
                    </g>
                </g>
            </g>
            <g id="Group_9786" data-name="Group 9786" transform="translate(74.236 438.984)">
                <path id="Path_23244" d="M1395.456 894.2l13.534-7.866 26.342 15.209-13.535 7.865z" class="cls-23" data-name="Path 23244" transform="translate(-1395.456 -886.338)"/>
            </g>
            <g id="Group_9787" data-name="Group 9787" transform="translate(74.243 436.639)">
                <path id="Path_23245" d="M1395.46 892.685l13.535-7.865 26.342 15.209-13.534 7.865z" class="cls-33" data-name="Path 23245" transform="translate(-1395.46 -884.82)"/>
            </g>
            <g id="Group_9790" class="cls-13" data-name="Group 9790" transform="translate(100.586 451.848)">
                <g id="Group_9789" class="cls-36" data-name="Group 9789">
                    <g id="Group_9788" class="cls-13" data-name="Group 9788">
                        <path id="Path_23246" d="M1412.508 902.528l13.534-7.865c.15.087.3.167.448.24l-13.535 7.865a6.979 6.979 0 0 1-.448-.24" class="cls-32" data-name="Path 23246" transform="translate(-1412.508 -894.663)"/>
                        <path id="Path_23247" d="M1412.8 902.683l13.534-7.865a5.834 5.834 0 0 0 1.254.454l-13.535 7.865a5.826 5.826 0 0 1-1.253-.454" class="cls-31" data-name="Path 23247" transform="translate(-1412.35 -894.578)"/>
                        <path id="Path_23248" d="M1413.609 902.977l13.535-7.865a4.107 4.107 0 0 0 1.083.108l-13.535 7.865a4.043 4.043 0 0 1-1.083-.108" class="cls-30" data-name="Path 23248" transform="translate(-1411.908 -894.418)"/>
                        <path id="Path_23249" d="M1414.31 903.128l13.535-7.865a3.107 3.107 0 0 0 1.072-.229l-13.534 7.865a3.109 3.109 0 0 1-1.073.229" class="cls-29" data-name="Path 23249" transform="translate(-1411.526 -894.461)"/>
                        <path id="Path_23250" d="M1415 902.958l13.534-7.865a2.847 2.847 0 0 0 .339-.168l-13.534 7.867a2.9 2.9 0 0 1-.339.167" class="cls-28" data-name="Path 23250" transform="translate(-1411.147 -894.52)"/>
                    </g>
                </g>
            </g>
            <g id="Group_9791" data-name="Group 9791" transform="translate(74.282 423.07)">
                <path id="Path_23252" d="M1395.485 883.9l13.534-7.865 26.342 15.209-13.534 7.866z" class="cls-23" data-name="Path 23252" transform="translate(-1395.485 -876.039)"/>
            </g>
            <g id="Group_9792" data-name="Group 9792" transform="translate(74.288 420.724)">
                <path id="Path_23253" d="M1395.489 882.386l13.535-7.865 26.342 15.209-13.535 7.865z" class="cls-33" data-name="Path 23253" transform="translate(-1395.489 -874.521)"/>
            </g>
            <g id="Group_9795" class="cls-13" data-name="Group 9795" transform="translate(100.625 438.278)">
                <g id="Group_9794" class="cls-37" data-name="Group 9794">
                    <g id="Group_9793" class="cls-13" data-name="Group 9793">
                        <path id="Path_23254" d="M1412.533 893.748l13.535-7.867a9.717 9.717 0 0 1 1.78 1.344l-13.534 7.867a9.641 9.641 0 0 0-1.78-1.344" class="cls-22" data-name="Path 23254" transform="translate(-1412.533 -885.881)"/>
                        <path id="Path_23255" d="M1413.685 894.618l13.534-7.867a12.5 12.5 0 0 1 .969 1.031l-13.535 7.865a12.309 12.309 0 0 0-.969-1.029" class="cls-23" data-name="Path 23255" transform="translate(-1411.905 -885.407)"/>
                        <path id="Path_23256" d="M1414.312 895.283l13.534-7.865a14.2 14.2 0 0 1 1.748 2.633l-13.534 7.867a14.181 14.181 0 0 0-1.748-2.635" class="cls-22" data-name="Path 23256" transform="translate(-1411.563 -885.043)"/>
                        <path id="Path_23257" d="M1415.443 896.989l13.535-7.867a13.821 13.821 0 0 1 .717 1.646l-13.535 7.865a13.59 13.59 0 0 0-.717-1.644" class="cls-15" data-name="Path 23257" transform="translate(-1410.946 -884.114)"/>
                        <path id="Path_23258" d="M1415.907 898.052l13.535-7.865a11.865 11.865 0 0 1 .437 1.5l-13.534 7.865a11.951 11.951 0 0 0-.437-1.5" class="cls-17" data-name="Path 23258" transform="translate(-1410.693 -883.533)"/>
                        <path id="Path_23259" d="M1416.19 899.025l13.534-7.865a9.9 9.9 0 0 1 .219 1.592l-13.534 7.867a10.005 10.005 0 0 0-.22-1.593" class="cls-19" data-name="Path 23259" transform="translate(-1410.539 -883.003)"/>
                        <path id="Path_23260" d="M1416.937 900.057l13.534-7.867c.008.15.011.3.011.447-.006 1.856-.664 3.164-1.724 3.779l-13.534 7.867c1.06-.617 1.718-1.925 1.724-3.781 0-.147 0-.3-.011-.445" class="cls-25" data-name="Path 23260" transform="translate(-1411.066 -882.441)"/>
                    </g>
                </g>
            </g>
            <g id="Group_9796" data-name="Group 9796" transform="translate(66.313 427.503)">
                <path id="Path_23262" d="M1424.646 895.2c4.379 2.528 7.93 8.68 7.916 13.719s-3.59 7.069-7.969 4.54l-26.341-15.208c-4.379-2.528-7.938-8.683-7.924-13.715s3.6-7.073 7.975-4.544zm-.045 15.914c3.251 1.877 5.909.361 5.92-3.375a12.992 12.992 0 0 0-5.881-10.194l-26.34-15.205c-3.251-1.877-5.909-.362-5.92 3.381a12.986 12.986 0 0 0 5.881 10.188l26.343 15.21" class="cls-38" data-name="Path 23262" transform="translate(-1390.328 -878.908)"/>
            </g>
            <g id="Group_9799" class="cls-13" data-name="Group 9799" transform="translate(100.631 435.934)">
                <g id="Group_9798" class="cls-39" data-name="Group 9798">
                    <g id="Group_9797" class="cls-13" data-name="Group 9797">
                        <path id="Path_23263" d="M1412.537 892.229l13.535-7.865a12.991 12.991 0 0 1 2.4 1.811l-13.535 7.865a13 13 0 0 0-2.4-1.811" class="cls-32" data-name="Path 23263" transform="translate(-1412.537 -884.364)"/>
                        <path id="Path_23264" d="M1414.089 893.4l13.535-7.865a16.373 16.373 0 0 1 1.305 1.386l-13.534 7.865a16.435 16.435 0 0 0-1.305-1.386" class="cls-33" data-name="Path 23264" transform="translate(-1411.691 -883.725)"/>
                        <path id="Path_23265" d="M1414.934 894.3l13.535-7.865a19.083 19.083 0 0 1 2.35 3.542l-13.534 7.865a19.119 19.119 0 0 0-2.35-3.542" class="cls-32" data-name="Path 23265" transform="translate(-1411.23 -883.236)"/>
                        <path id="Path_23266" d="M1416.455 896.59l13.535-7.865a18.581 18.581 0 0 1 .964 2.213l-13.535 7.865a18.693 18.693 0 0 0-.964-2.213" class="cls-31" data-name="Path 23266" transform="translate(-1410.401 -881.987)"/>
                        <path id="Path_23267" d="M1417.079 898.022l13.535-7.865a16.059 16.059 0 0 1 .587 2.021l-13.535 7.865a16.36 16.36 0 0 0-.587-2.021" class="cls-30" data-name="Path 23267" transform="translate(-1410.061 -881.206)"/>
                        <path id="Path_23268" d="M1417.459 899.33l13.535-7.865a13.132 13.132 0 0 1 .295 2.145l-13.535 7.865a13.109 13.109 0 0 0-.3-2.145" class="cls-29" data-name="Path 23268" transform="translate(-1409.854 -880.492)"/>
                        <path id="Path_23269" d="M1418.463 900.718l13.537-7.865c.01.2.015.4.015.6-.008 2.5-.893 4.26-2.319 5.089l-13.535 7.867c1.426-.83 2.312-2.59 2.319-5.09 0-.2 0-.4-.015-.6" class="cls-28" data-name="Path 23269" transform="translate(-1410.562 -879.736)"/>
                    </g>
                </g>
            </g>
            <g id="Group_9800" data-name="Group 9800" transform="translate(25.038 386.152)">
                <path id="Path_23271" d="M1363.616 860.012l13.535-7.865 124.878 72.1-13.535 7.865z" class="cls-23" data-name="Path 23271" transform="translate(-1363.616 -852.147)"/>
            </g>
            <g id="Group_9803" class="cls-13" data-name="Group 9803" transform="translate(149.915 458.25)">
                <g id="Group_9802" class="cls-40" data-name="Group 9802">
                    <g id="Group_9801" class="cls-13" data-name="Group 9801">
                        <path id="Path_23272" d="M1444.432 906.671l13.534-7.865q.788.454 1.562.833l-13.534 7.867q-.774-.38-1.562-.834" class="cls-22" data-name="Path 23272" transform="translate(-1444.432 -898.806)"/>
                        <path id="Path_23273" d="M1445.443 907.212l13.534-7.867a20.18 20.18 0 0 0 4.351 1.581l-13.534 7.865a20.177 20.177 0 0 1-4.351-1.579" class="cls-15" data-name="Path 23273" transform="translate(-1443.881 -898.512)"/>
                        <path id="Path_23274" d="M1448.259 908.233l13.534-7.865a14.182 14.182 0 0 0 3.75.375l-13.534 7.867a14.189 14.189 0 0 1-3.75-.377" class="cls-17" data-name="Path 23274" transform="translate(-1442.345 -897.954)"/>
                        <path id="Path_23275" d="M1450.686 908.757l13.535-7.867a10.72 10.72 0 0 0 3.7-.791l-13.534 7.865a10.764 10.764 0 0 1-3.7.793" class="cls-19" data-name="Path 23275" transform="translate(-1441.022 -898.101)"/>
                        <path id="Path_23276" d="M1453.082 908.168l13.534-7.865a9.951 9.951 0 0 0 1.164-.577l-13.535 7.865a9.884 9.884 0 0 1-1.163.577" class="cls-25" data-name="Path 23276" transform="translate(-1439.716 -898.304)"/>
                    </g>
                </g>
            </g>
            <g id="Group_9806" class="cls-13" data-name="Group 9806" transform="translate(164.445 446.574)">
                <g id="Group_9805" class="cls-41" data-name="Group 9805">
                    <g id="Group_9804" class="cls-13" data-name="Group 9804">
                        <path id="Path_23278" d="M1459.793 899.117l13.534-7.867c-.018 6.438-2.291 10.966-5.958 13.1l-13.534 7.865c3.667-2.131 5.94-6.66 5.958-13.1" class="cls-42" data-name="Path 23278" transform="translate(-1453.835 -891.25)"/>
                    </g>
                </g>
            </g>
            <g id="Group_9807" data-name="Group 9807" transform="translate(4.684 27.241)">
                <path id="Path_23280" d="M1351.361 627.74l13.535-7.865-.918 323.656-13.535 7.865z" class="cls-43" data-name="Path 23280" transform="translate(-1350.444 -619.874)"/>
            </g>
            <g id="Group_9810" class="cls-13" data-name="Group 9810" transform="translate(5.602 14.143)">
                <g id="Group_9809" class="cls-44" data-name="Group 9809">
                    <g id="Group_9808" class="cls-13" data-name="Group 9808">
                        <path id="Path_23281" d="M1357 619.265l13.534-7.867c-3.667 2.131-5.94 6.661-5.958 13.1l-13.535 7.867c.019-6.437 2.292-10.968 5.958-13.1" class="cls-25" data-name="Path 23281" transform="translate(-1351.038 -611.398)"/>
                    </g>
                </g>
            </g>
            <g id="Group_9813" class="cls-13" data-name="Group 9813" transform="translate(11.56 12.766)">
                <g id="Group_9812" class="cls-45" data-name="Group 9812">
                    <g id="Group_9811" class="cls-13" data-name="Group 9811">
                        <path id="Path_23283" d="M1354.894 619.467l13.534-7.865a9.679 9.679 0 0 1 1.164-.576l-13.535 7.865a9.668 9.668 0 0 0-1.163.576" class="cls-42" data-name="Path 23283" transform="translate(-1354.894 -610.223)"/>
                        <path id="Path_23284" d="M1355.647 619.171l13.534-7.865a10.728 10.728 0 0 1 3.7-.793l-13.534 7.865a10.753 10.753 0 0 0-3.7.793" class="cls-46" data-name="Path 23284" transform="translate(-1354.484 -610.503)"/>
                        <path id="Path_23285" d="M1358.043 618.382l13.535-7.865a14.173 14.173 0 0 1 3.75.375l-13.534 7.867a14.181 14.181 0 0 0-3.75-.377" class="cls-47" data-name="Path 23285" transform="translate(-1353.177 -610.506)"/>
                        <path id="Path_23286" d="M1360.47 618.623l13.53-7.867a20.29 20.29 0 0 1 4.351 1.581l-13.535 7.865a20.2 20.2 0 0 0-4.351-1.579" class="cls-48" data-name="Path 23286" transform="translate(-1351.854 -610.37)"/>
                        <path id="Path_23287" d="M1363.286 619.644l13.534-7.865c.516.253 1.037.53 1.562.834l-13.535 7.865q-.788-.454-1.562-.834" class="cls-49" data-name="Path 23287" transform="translate(-1350.318 -609.813)"/>
                    </g>
                </g>
            </g>
            <g id="Group_9814" data-name="Group 9814" transform="translate(170.403 122.919)">
                <path id="Path_23289" d="M1458.608 689.659l13.535-7.865-.917 323.656-13.535 7.866z" class="cls-46" data-name="Path 23289" transform="translate(-1457.691 -681.793)"/>
            </g>
            <g id="Group_9815" data-name="Group 9815" transform="translate(26.089 15.566)">
                <path id="Path_23290" d="M1364.3 620.184l13.535-7.865 124.877 72.1-13.535 7.865z" class="cls-50" data-name="Path 23290" transform="translate(-1364.297 -612.319)"/>
            </g>
            <g id="Group_9818" class="cls-13" data-name="Group 9818" transform="translate(150.966 87.664)">
                <g id="Group_9817" class="cls-51" data-name="Group 9817">
                    <g id="Group_9816" class="cls-13" data-name="Group 9816">
                        <path id="Path_23291" d="M1445.112 666.843l13.534-7.865a33.427 33.427 0 0 1 6.183 4.666l-13.535 7.865a33.454 33.454 0 0 0-6.182-4.667" class="cls-49" data-name="Path 23291" transform="translate(-1445.112 -658.978)"/>
                        <path id="Path_23292" d="M1449.113 669.863l13.534-7.863a42.632 42.632 0 0 1 3.358 3.565l-13.534 7.865a42.871 42.871 0 0 0-3.358-3.565" class="cls-50" data-name="Path 23292" transform="translate(-1442.931 -657.331)"/>
                        <path id="Path_23293" d="M1451.286 672.17l13.535-7.865a49.023 49.023 0 0 1 6.034 9.094l-13.534 7.865a49.126 49.126 0 0 0-6.034-9.094" class="cls-49" data-name="Path 23293" transform="translate(-1441.745 -656.074)"/>
                        <path id="Path_23294" d="M1455.191 678.055l13.534-7.865a47.812 47.812 0 0 1 2.476 5.675l-13.534 7.867a47.765 47.765 0 0 0-2.476-5.677" class="cls-48" data-name="Path 23294" transform="translate(-1439.617 -652.865)"/>
                        <path id="Path_23295" d="M1456.793 681.73l13.534-7.867a41.67 41.67 0 0 1 1.507 5.193l-13.535 7.865a41.749 41.749 0 0 0-1.507-5.192" class="cls-47" data-name="Path 23295" transform="translate(-1438.743 -650.862)"/>
                        <path id="Path_23296" d="M1457.768 685.089l13.534-7.865a33.835 33.835 0 0 1 .76 5.513l-13.535 7.865a33.965 33.965 0 0 0-.76-5.513" class="cls-46" data-name="Path 23296" transform="translate(-1438.212 -649.03)"/>
                        <path id="Path_23297" d="M1458.26 688.657l13.535-7.865c.028.521.04 1.035.038 1.547l-13.534 7.867c0-.511-.013-1.028-.039-1.548" class="cls-42" data-name="Path 23297" transform="translate(-1437.944 -647.085)"/>
                    </g>
                </g>
            </g>
            <g id="Group_9819" data-name="Group 9819" transform="translate(4.684 20.631)">
                <path id="Path_23299" d="M1496.726 690.495c11.276 6.51 20.392 22.3 20.355 35.256l-.918 323.656c-.037 12.957-9.211 18.184-20.488 11.674l-124.877-72.1c-11.277-6.51-20.392-22.3-20.355-35.254l.918-323.656c.037-12.957 9.211-18.186 20.488-11.676z" class="cls-52" data-name="Path 23299" transform="translate(-1350.444 -615.597)"/>
            </g>
            <g id="Group_9820" data-name="Group 9820" transform="translate(0 7.865)">
                <path id="Path_23300" d="M1501.287 685.795c12.231 7.062 22.112 24.175 22.072 38.229L1522.333 1086c-.04 14.054-9.985 19.722-22.215 12.66l-130.632-75.42c-12.232-7.062-22.112-24.176-22.072-38.229l1.026-361.979c.04-14.054 9.985-19.72 22.215-12.66zm16.529 368.115l.918-323.654c.036-12.958-9.08-28.747-20.355-35.256L1373.5 622.9c-11.276-6.512-20.449-1.283-20.487 11.676l-.918 323.654c-.037 12.958 9.078 28.746 20.355 35.256l124.877 72.1c11.275 6.51 20.451 1.283 20.488-11.676m-69.825 7.618c4.379 2.529 7.955.491 7.969-4.54s-3.537-11.19-7.916-13.718l-26.343-15.21c-4.379-2.528-7.959-.495-7.975 4.544s3.545 11.187 7.924 13.715l26.341 15.208" class="cls-53" data-name="Path 23300" transform="translate(-1347.413 -607.335)"/>
            </g>
            <g id="Group_9821" data-name="Group 9821" transform="translate(68.362 430.13)">
                <path id="Path_23301" d="M1423.916 896.623a12.991 12.991 0 0 1 5.881 10.194c-.011 3.736-2.668 5.252-5.92 3.375l-26.343-15.21a12.987 12.987 0 0 1-5.881-10.188c.011-3.743 2.669-5.258 5.92-3.381z" class="cls-54" data-name="Path 23301" transform="translate(-1391.654 -880.608)"/>
            </g>
            <path id="Path_23302" d="M1352.257 611.6l13.535-7.865c4.027-2.339 9.6-2.009 15.756 1.544l-13.535 7.865c-6.154-3.544-11.729-3.879-15.756-1.544z" class="cls-1" data-name="Path 23302" transform="translate(-1344.772 -602.245)"/>
            <path id="Path_23303" d="M1446.994 660.886l13.536-7.865c12.229 7.06 22.11 24.175 22.07 38.229l-13.535 7.865c.041-14.054-9.841-31.167-22.071-38.229z" class="cls-1" data-name="Path 23303" transform="translate(-1293.12 -574.561)"/>
            <path id="Path_23304" d="M1534.211 717.254a36.918 36.918 0 0 0-.823-5.982 45.611 45.611 0 0 0-1.633-5.631 52.146 52.146 0 0 0-2.684-6.153 53.182 53.182 0 0 0-6.541-9.857 46.332 46.332 0 0 0-3.64-3.865 36.412 36.412 0 0 0-6.706-5.062l-130.634-75.422q-.855-.494-1.7-.9a21.906 21.906 0 0 0-4.72-1.715 15.445 15.445 0 0 0-4.066-.408 11.66 11.66 0 0 0-4.015.859 10.747 10.747 0 0 0-1.261.624l-13.535 7.865a10.664 10.664 0 0 1 1.261-.624 11.618 11.618 0 0 1 4.014-.858 15.376 15.376 0 0 1 4.066.406 21.982 21.982 0 0 1 4.72 1.715q.839.41 1.7.9l130.633 75.422a36.367 36.367 0 0 1 6.706 5.062 46.107 46.107 0 0 1 3.642 3.865 53.038 53.038 0 0 1 6.539 9.858 51.463 51.463 0 0 1 2.684 6.151 45.287 45.287 0 0 1 1.635 5.631 36.874 36.874 0 0 1 .823 5.981q.044.846.042 1.68l-1.026 361.977c-.021 6.981-2.485 11.894-6.46 14.2l13.535-7.865c3.974-2.31 6.439-7.222 6.459-14.2l1.026-361.979q.003-.829-.041-1.675z" class="cls-55" data-name="Path 23304" transform="translate(-1344.772 -602.245)"/>
        </g>
    </g>
    <g id="Group_9824" data-name="Group 9824" transform="translate(328.355 210.059)">
        <path id="Path_23305" d="M1483.094 806.748a7.593 7.593 0 0 1 3.444 5.964l-.261 38.134c-.006 2.189-1.561 3.075-3.467 1.975l-117.93-68.086a7.6 7.6 0 0 1-3.444-5.966l.261-38.133c.006-2.191 1.561-3.076 3.467-1.976zm-.272 42.1l.261-38.134-117.931-68.087-.261 38.133 117.931 68.088" class="cls-56" data-name="Path 23305" transform="translate(-1361.436 -738.187)"/>
    </g>
    <g id="Group_9834" data-name="Group 9834" transform="translate(339.058 228.249)">
        <g id="Group_9833" data-name="Group 9833">
            <g id="Group_9825" data-name="Group 9825">
                <path id="Path_23306" d="M1374.2 750.922a13.585 13.585 0 0 1 3.7 3.078l-.6 1.7a12.247 12.247 0 0 0-3.194-2.764c-2.288-1.321-3.171-.252-3.174 1.063-.006 1.8 1.018 3.279 3.333 5.648 2.839 2.911 4.283 5.312 4.276 8.159-.008 2.97-1.939 4.444-5.906 2.154a15.763 15.763 0 0 1-4.277-3.708l.549-1.772a14.581 14.581 0 0 0 3.883 3.5c2.219 1.281 3.526.684 3.531-1.266 0-1.8-.89-3.353-3.155-5.66-2.74-2.706-4.432-5.319-4.424-8.04.012-2.998 2.189-3.978 5.458-2.092z" class="cls-57" data-name="Path 23306" transform="translate(-1368.363 -749.959)"/>
            </g>
            <g id="Group_9826" data-name="Group 9826" transform="translate(11.642 7.85)">
                <path id="Path_23307" d="M1379.93 755.617l-.012 3.979 3.138 1.811-.006 1.916-3.137-1.811-.021 7.471c0 1.723.417 2.942 1.641 3.648a5.53 5.53 0 0 0 1.263.56l.094 1.939a5.374 5.374 0 0 1-1.945-.771 6.14 6.14 0 0 1-2.364-2.432 8.169 8.169 0 0 1-.828-4.089l.02-7.562-1.874-1.083.006-1.915 1.875 1.082.009-3.321z" class="cls-57" data-name="Path 23307" transform="translate(-1375.897 -755.039)"/>
            </g>
            <g id="Group_9827" data-name="Group 9827" transform="translate(20.29 16.477)">
                <path id="Path_23308" d="M1390.915 775.212a25.075 25.075 0 0 0 .189 3.435l-1.994-1.151-.162-1.842-.079-.045c-.674.7-1.97.929-3.7-.068a7.473 7.473 0 0 1-3.679-6.108c.009-3.336 2.579-3.679 7.181-1.021l.086.05v-.284a5.235 5.235 0 0 0-2.725-4.786 5.147 5.147 0 0 0-3.149-.786l-.49-1.939a6.385 6.385 0 0 1 3.961 1.049 9.051 9.051 0 0 1 4.572 8.316zm-2.117-2.562l.006-2.415c-.114-.07-.232-.139-.349-.205-2.295-1.326-4.753-2.177-4.76.389a4.171 4.171 0 0 0 2.055 3.594c1.569.906 2.568.335 2.927-.638a2.412 2.412 0 0 0 .121-.725" class="cls-57" data-name="Path 23308" transform="translate(-1381.494 -760.622)"/>
            </g>
            <g id="Group_9828" data-name="Group 9828" transform="translate(33.185 22.522)">
                <path id="Path_23309" d="M1395.275 767.355a3.652 3.652 0 0 1 .621.439l-.006 2.381a5.231 5.231 0 0 0-.749-.513c-1.55-.895-2.649-.188-2.95 1.533a7.25 7.25 0 0 0-.1 1.123l-.02 7.38-2.171-1.253.028-9.534c0-1.633-.013-3.05-.087-4.378l1.913 1.106.072 2.766.1.057c.554-1.539 1.88-1.955 3.349-1.107z" class="cls-57" data-name="Path 23309" transform="translate(-1389.839 -764.534)"/>
            </g>
            <g id="Group_9829" data-name="Group 9829" transform="translate(40.658 24.595)">
                <path id="Path_23310" d="M1398.706 766.46l-.01 3.979 3.137 1.811v1.916l-3.138-1.811-.02 7.471c0 1.723.416 2.942 1.629 3.644a5.85 5.85 0 0 0 1.273.564l.094 1.939a5.432 5.432 0 0 1-1.945-.771 6.131 6.131 0 0 1-2.364-2.432 8.192 8.192 0 0 1-.839-4.095l.022-7.562-1.863-1.076v-1.916l1.865 1.076.009-3.321z" class="cls-57" data-name="Path 23310" transform="translate(-1394.675 -765.876)"/>
            </g>
            <g id="Group_9830" data-name="Group 9830" transform="translate(55.472 35.39)">
                <path id="Path_23311" d="M1410.359 776.064c1.677.969 4.259 3.607 4.244 8.356l-.023 8.275-2.19-1.264.022-7.981c.006-2.233-.708-4.52-2.78-5.716-1.44-.831-2.568-.3-2.947.887a3.187 3.187 0 0 0-.152 1.083l-.025 8.332-2.189-1.264.029-10.1c0-1.44-.023-2.624-.088-3.809l1.943 1.122.113 2.358.05.029c.606-.972 2-1.458 3.993-.308z" class="cls-57" data-name="Path 23311" transform="translate(-1404.262 -772.862)"/>
            </g>
            <g id="Group_9831" data-name="Group 9831" transform="translate(68.504 45.18)">
                <path id="Path_23312" d="M1418.705 780.083a12.348 12.348 0 0 1 5.781 10.48c-.016 5.124-3.109 5.574-6.03 3.888a12.419 12.419 0 0 1-5.76-10.467c.012-4.638 2.664-5.832 6.009-3.901zm-.134 12.538c2.091 1.207 3.667-.144 3.674-3.26.008-2.358-1.01-5.921-3.6-7.414s-3.727.6-3.735 3.239c-.008 3.026 1.505 6.193 3.656 7.436" class="cls-57" data-name="Path 23312" transform="translate(-1412.696 -779.197)"/>
            </g>
            <g id="Group_9832" data-name="Group 9832" transform="translate(81.536 50.439)">
                <path id="Path_23313" d="M1438.651 792.716l-3.926 11.609-1.994-1.151-1.825-7.674c-.42-1.8-.762-3.369-1.063-5.178l-.049-.028a29.366 29.366 0 0 1-1.108 3.946l-1.962 5.464-1.993-1.15-3.6-15.954 2.25 1.3 1.568 7.958c.351 1.757.672 3.373.885 4.928l.078.045c.281-1.245.679-2.5 1.078-3.76l1.993-5.935 1.845 1.065 1.845 8c.45 1.93.79 3.58 1.063 5.146l.079.045a32.836 32.836 0 0 1 .93-3.959l1.737-5.971z" class="cls-57" data-name="Path 23313" transform="translate(-1421.13 -782.601)"/>
            </g>
        </g>
    </g>
    <path id="Path_23314" d="M1310.99 773.209l-36.685 34.015 26.721 51.092" class="cls-58" data-name="Path 23314" transform="translate(-1080.586 -509.033)"/>
    <path id="Line_76" d="M22.425 0L0 20.793" class="cls-59" data-name="Line 76" transform="translate(207.979 264.175)"/>
    <path id="Path_23315" d="M1437.11 938.483l-35.3-20.377a43.012 43.012 0 0 0-42.96-.028l-72.14 41.515c-28.684 16.507-28.761 57.868-.139 74.482l35.055 20.347a43.014 43.014 0 0 0 42.983.119l72.382-41.487c28.784-16.496 28.85-57.985.119-74.571z" class="cls-60" data-name="Path 23315" transform="translate(-1085.576 -433.175)"/>
    <path id="Path_23319" d="M1344.926 861.314c1.519 6.587.64 10.167-4.263 13.873s-11.358 2.03-16.933 0c-6.928-2.525-14.876-2.857-17.819-10.606a35 35 0 0 1 .166-24.676" class="cls-61" data-name="Path 23319" transform="translate(-1069.086 -472.67)"/>
    <ellipse id="Ellipse_781" cx="11.91" cy="9.6" class="cls-11" data-name="Ellipse 781" rx="11.91" ry="9.6" transform="rotate(-83.47 306.961 60.459)"/>
    <path id="Path_23321" d="M1353.634 780.971c-8.993-3.539-22.545-9.769-31.4-13.609a37.021 37.021 0 0 0-13.8-2.6 17.456 17.456 0 0 0-16.4 10.687c-4.886 11.961-2.054 24.929-1.094 37.366.41 5.3 5.24 55.351 5.24 55.351 0 7.629-.5 13.813 6.147 17.565l36.053 20.364c14.1 7.964 24.433-2.531 24.433-18.725l-1.615-15.888 3.336-67.586c.005-6.759-5.011-19.596-10.9-22.925z" class="cls-62" data-name="Path 23321" transform="translate(-1072.436 -513.642)"/>
    <path id="Line_77" d="M0 0l24.559 8.487" class="cls-63" data-name="Line 77" transform="translate(245.596 251.777)"/>
    <ellipse id="Ellipse_782" cx="11.91" cy="9.6" class="cls-11" data-name="Ellipse 782" rx="11.91" ry="9.6" transform="rotate(-58 429.367 -177.168)"/>
    <path id="Path_23322" d="M1386.117 778.917s7.749-3.123 9.822-7.806" class="cls-64" data-name="Path 23322" transform="translate(-1019.625 -510.177)"/>
    <path id="Path_23323" d="M1329.31 783.791l52.325 28.447 28.595-26.048" class="cls-65" data-name="Path 23323" transform="translate(-1050.597 -503.264)"/>
    <path id="Path_23324" d="M1386.1 796.131c5.991-6.48-3.155-17.39-10.118-11.577" class="cls-66" data-name="Path 23324" transform="translate(-1025.148 -503.747)"/>
    <g id="Group_9835" data-name="Group 9835" transform="translate(356.87 277.993)">
        <path id="Path_23325" d="M1384.214 788.183a11.354 11.354 0 0 0-2.936-4.09" class="cls-67" data-name="Path 23325" transform="translate(-1379.133 -781.093)"/>
        <path id="Path_23326" d="M1382.475 782.152c-.227.031-.332.226-.47.39l-1.868 2.22-.1.113a.651.651 0 0 0 .079.915 16.653 16.653 0 0 1 4.373 5.887.648.648 0 0 0 1.132.1l1.051-1.581a4.91 4.91 0 0 0 .864-1.523 2.528 2.528 0 0 0-.562-1.822 16.592 16.592 0 0 0-2.865-3.571 7.223 7.223 0 0 0-1.012-.916 1.04 1.04 0 0 0-.622-.212z" class="cls-68" data-name="Path 23326" transform="translate(-1379.89 -782.151)"/>
    </g>
    <path id="Line_78" d="M0 0l35.788 19.457" class="cls-69" data-name="Line 78" transform="translate(278.713 280.527)"/>
    <path id="Path_23327" d="M1310.511 942.462l.049.377.3 2.122a5.455 5.455 0 0 0 .7 1.029z" class="cls-70" data-name="Path 23327" transform="translate(-1060.846 -416.754)"/>
    <path id="Path_23328" d="M1417.515 819.318c-5.558 1.437-11.153 1.009-15.882-2.794-8.556-6.881-19.365-10.778-29.316-15.787-6.192-3.117-11.3-7.789-16.4-12.394-4.507-4.065-9.659-8-7.9-14.9.374-1.473 1.034-3.117.244-4.415a4.607 4.607 0 0 0-2.576-1.639l-12.771-4.5a12.5 12.5 0 0 0-4.047-.938 4.249 4.249 0 0 0-3.622 1.7c-.457.7-.62 1.573-1.116 2.251-1.035 1.414-2.088.175-3.344.2-2.327.05-5.393 1.525-7.512 2.5-4.56 2.323-8.172 6.114-11.688 9.832a42.751 42.751 0 0 0-2.913 3.6c-1.431 1.877-3.767 3.294-5.555 4.835a149.538 149.538 0 0 0-11.445 10.9c-1.618 1.724-3.189 3.494-4.759 5.261-2.407 2.71-4.849 5.475-6.355 8.771-2.976 6.519.108 11.821 3.509 17.414q12.373 20.344 24.742 40.687a12.935 12.935 0 0 0 3.971 4.429 3.986 3.986 0 0 0 4.486-.049c-.1 3.044.811 5.955.4 8.953-.263 1.9-1.276 3.684-1.474 5.558a35.08 35.08 0 0 0 .32 6.028c.328 4.246.888 8.5.617 12.768-.331 5.186 1.187 11.033 1.88 16.175.745 5.526-.661 12.184.134 17.7 1.576 10.926-2.652 22.942-1.477 33.921 1.952 18.269 3.461 34.294 1.477 52.588-.306 2.831.487 4.571 0 7.3-.845 4.75 1.4 9.063 0 13.486-1.225 3.879-.143 9.44-.06 13.539.208 10.384 1.4 22.358 10.3 29.192 10.186 7.827 24.722 4.382 36.994.586 5.736-1.776 11.546-3.585 16.625-6.787s9.427-8.015 10.744-13.873c1.666-7.408-1.509-15.934 2.559-22.342 3.254-5.125 10.6-7.774 11.322-13.8 1.4-11.71-13.29-9.194-19.44-7.3-8.8 2.706-13.091 1.139-12.3 12.427 3.325-1.042 7.248-2.905 9.919.531a9.233 9.233 0 0 1 1.318 7.3c-1.047 5.484-5.881 9.076-10.958 5.482-5.36-3.8-3.106-16.732-3.295-22.294-.553-16.251 3.806-33.953 3.295-50.205-.508-16.18-7.641-30.914-9.308-47.046-.493-4.753-.978-9.606.077-14.267.7-3.086 2.06-6 2.59-9.122.614-3.6.093-7.295-.429-10.914-.678-4.7-1.955-9.7-1.987-14.446-.022-3.372.97-6.56.881-10.012q-.387-14.818-.406-29.636c.045-8.244-3.947-31.765 7.327-33.937 3.984-.77 7.945 3.041 11.308 4.753 5.376 2.741 10.824 5.336 16.222 8.035a27.23 27.23 0 0 0 3.976 2.012 26.487 26.487 0 0 0 2.849.311c2.974.572 5.652 2.661 8.189 4.189 3.061 1.845 6.676 3.432 10.121 2.479 2.448-.677 4.4-2.454 6.1-4.229 2.865-2.985 5.461-6.142 8.191-9.169l4.192-4.645c2.653-2.939 5.319-5.821 8.094-8.621l.107.9a7.84 7.84 0 0 0 4.133-5.343 13.835 13.835 0 0 0 9.3-5.651 12.475 12.475 0 0 0 .895-13.433 9.51 9.51 0 0 0-.9-1.289 9.305 9.305 0 0 0 4.6-5.057c.239-.643.269-1.588-.39-1.786-.5-.15-.973.3-1.309.708l-5.218 6.337a32.913 32.913 0 0 0-3.957 5.544c-1.375 2.628-2.174 5.8-4.624 7.473a27.546 27.546 0 0 1-2.735 1.4 4.367 4.367 0 0 0-2.154 2.1 8.633 8.633 0 0 0-.272 2.67c-.1 1.649-1.318 2.63-2.378 3.767-5.102 5.479-13.375 11.864-21.736 14.028zM1292.148 843.1c-3.027-4.942-6.089-9.967-7.632-15.552s-1.389-11.906 1.741-16.783 9.7-7.717 15.033-5.461c.526.223.568 10.072.766 11.272.717 4.331.881 8.82 1.289 13.193l2.506 26.836a6.608 6.608 0 0 1-.24 3.236c-1.965 4.552-5.312-3.427-6.267-4.986l-7.196-11.755zm47.006 187.13c.043 2.146 1.629 2.9 1.656 5.044.017 1.4-.612 3.347-1.656 4.021-1.2.774-3.791.454-5.059 1.1-2.324 1.692-5.036 6.478-6.422 7.225a6.882 6.882 0 0 0 2.166-4.937 17.715 17.715 0 0 0-.205-3.392c-1.675-3.245.076-5.767 0-9.064-.343-15.157-.887-26.623 0-41.756.326-5.564 3.969-55.261 4.461-60.813.643-7.241 13.068 13.7 14.161 6.5 2.755 10.606 3.183 34.415 4.66 45.274 1.468 10.787 3.035 24.308 3.451 35.2.217 5.723-17.331 9.879-17.213 15.598z" class="cls-71" data-name="Path 23328" transform="translate(-1083.287 -515.17)"/>
    <path id="Path_23329" d="M1305.073 845.289a60.742 60.742 0 0 0 14.21 14.392 58.806 58.806 0 0 0 17.152 8.565c5.555 1.7 11.03 4.722 16.427.986 1.955-1.352 4.688 1.352 3.311 3.311-3.755 5.339-8.675 5.255-14.4 6.6-5.276 1.238-8.914 5.6-11.4 10.218-2.19 4.068-4.483 8.647-8.8 10.291-3.506 1.335-7.587.283-10.628-1.911s-5.208-5.39-7.062-8.65a76.131 76.131 0 0 1-8.327-22.078 84.1 84.1 0 0 1-1.465-11.095 12.417 12.417 0 0 1-.029-4.132c.086-.323 1.9-3.441 2.092-3.116a43.272 43.272 0 0 1-5.682-17.977c-.207-2.421.511-5.688 2.941-5.782 2.173-.085 3.285 2.5 3.919 4.582a56.029 56.029 0 0 0 7.741 15.796z" class="cls-72" data-name="Path 23329" transform="translate(-1071.789 -480.846)"/>
    <path id="Path_23330" d="M1405.673 790.113q-.19-.816-.386-1.627c-.541-2.234-1.669-4.268-1.992-6.549-.479-3.375-.635-6.578-1.763-9.848-.292-.85-.808-1.83-1.706-1.87-.749-.034-1.335.629-1.721 1.273-3.087 5.163-1 13.422-1.151 19.164a118.249 118.249 0 0 1-2.454 21.085c-2.5 11.961-6.978 24.272-6.978 36.668-.621 4.286-1.23 8.749.09 12.873s5.184 7.782 9.494 7.351a9.561 9.561 0 0 0 6.827-4.73 25.157 25.157 0 0 0 2.825-8.078q.234-1.087.451-2.177a144.774 144.774 0 0 0 1.841-43.6 166.831 166.831 0 0 0-3.377-19.935z" class="cls-73" data-name="Path 23330" transform="translate(-1019.238 -510.664)"/>
    <g id="Group_9844" data-name="Group 9844" transform="translate(328.07 106.638)">
        <g id="Group_9843" data-name="Group 9843">
            <g id="Group_9836" data-name="Group 9836">
                <path id="Path_23331" d="M1376.6 673.654a27.165 27.165 0 0 1 6.941 5.506l-.918 3.024a24.02 24.02 0 0 0-5.906-4.818c-6.867-3.964-11.448-1.556-11.473 7.286a22.844 22.844 0 0 0 11.218 20.035 14.647 14.647 0 0 0 6.181 2.16l.77 3.9c-1.394 0-4.178-.811-7.74-2.866a29.475 29.475 0 0 1-14.425-25.383c.033-10.538 6.269-14.092 15.352-8.844z" class="cls-4" data-name="Path 23331" transform="translate(-1361.252 -671.257)"/>
            </g>
            <g id="Group_9837" data-name="Group 9837" transform="translate(26.759 7.79)">
                <path id="Path_23332" d="M1382.5 678.509l-.043 15.077.089.053a3.448 3.448 0 0 1 2.741-1.517 6.757 6.757 0 0 1 3.92 1.014c2.821 1.629 7.334 6.233 7.31 14.576l-.04 14.375-3.818-2.2.039-13.876c.012-3.9-1.241-7.929-4.852-10.013-2.477-1.429-4.437-.552-5.143 1.437a4.808 4.808 0 0 0-.263 1.948l-.042 14.579-3.828-2.21.1-35.45z" class="cls-4" data-name="Path 23332" transform="translate(-1378.569 -676.298)"/>
            </g>
            <g id="Group_9838" data-name="Group 9838" transform="translate(49.384 35.89)">
                <path id="Path_23333" d="M1411.774 712.259a18.6 18.6 0 0 1-.135 1.978l-14.779-8.533a14.488 14.488 0 0 0 7.2 12.558 13.612 13.612 0 0 0 5.824 2.114l.643 3.517c-1.354-.077-3.655-.612-7-2.542a21.006 21.006 0 0 1-10.314-18.151c.02-7.3 3.776-10.878 9.9-7.34 6.866 3.963 8.673 11.955 8.661 16.399zm-3.687-3.23c.046-2.766-.977-7.717-5.288-10.206-3.868-2.233-5.566.9-5.881 3.758l11.169 6.448" class="cls-4" data-name="Path 23333" transform="translate(-1393.211 -694.483)"/>
            </g>
            <g id="Group_9839" data-name="Group 9839" transform="translate(72.554 36.023)">
                <path id="Path_23334" d="M1430.115 707.162l-10.124 8.519 10.679 25.519-6.255-3.611-8.253-20.219-2.625 2.084-.032 11.835-5.3-3.058.1-33.658 5.3 3.06-.043 15.485.138.08c.7-.906 1.439-1.669 2.132-2.426l7.689-7.415z" class="cls-4" data-name="Path 23334" transform="translate(-1408.206 -694.569)"/>
            </g>
            <g id="Group_9840" data-name="Group 9840" transform="translate(97.841 59.962)">
                <path id="Path_23335" d="M1424.57 734.379l.069-24.317 5.387 3.11-.069 24.317z" class="cls-4" data-name="Path 23335" transform="translate(-1424.57 -710.062)"/>
            </g>
            <g id="Group_9841" data-name="Group 9841" transform="translate(97.622 50.921)">
                <path id="Path_23336" d="M1427.38 711.293a6.117 6.117 0 0 1-2.951-5.008c.006-1.893 1.233-2.638 3.01-1.613a6.213 6.213 0 0 1 2.989 5.076c-.005 1.852-1.184 2.62-3.048 1.545z" class="cls-4" data-name="Path 23336" transform="translate(-1424.429 -704.21)"/>
            </g>
            <g id="Group_9842" data-name="Group 9842" transform="translate(108.861 66.284)">
                <path id="Path_23337" d="M1443.523 720.434c3.688 2.129 7.509 7.083 7.488 14.769l-.042 14.431-5.347-3.087.039-13.728c.009-3.492-1.108-6.794-4.017-8.474-2.131-1.23-3.616-.34-4.185 1.184a5.864 5.864 0 0 0-.222 1.87l-.04 14.284-5.4-3.115.05-17.073c.008-2.8-.025-5.169-.147-7.341l4.7 2.712.246 3.8.128.074c.92-1.377 3.226-2.34 6.749-.306z" class="cls-4" data-name="Path 23337" transform="translate(-1431.702 -714.153)"/>
            </g>
        </g>
    </g>
    <path id="Path_23338" d="M1547.925 978.6l-.136-.421c-2.913-8.755-11.914-12.751-19.6-16.653q-11.682-5.931-23.3-11.988-23.7-12.354-47.13-25.223-22.97-12.618-45.78-25.539c-7.918-4.486-15.794-9.015-23.82-13.306-10.635-5.685-23.88-13.776-33.641-1.145a17.354 17.354 0 0 0-1.879 17.716c3.695 7.712 12.439 10.487 19.068 15.121 39.977 27.95 83.2 50.9 123.957 77.406 7.074 4.6 14.293 9.268 22.426 11.518s17.476 1.743 24.195-3.364c7.515-5.715 8.296-15.739 5.64-24.122z" class="cls-74" data-name="Path 23338" transform="translate(-1038.751 -452.103)"/>
    <path id="Path_23339" d="M1478.643 930.071c-1.1-28.637-.1-57.7.81-86.291a17.56 17.56 0 0 0-.549-6.224 5.971 5.971 0 0 0-4.31-4.151c-12.362-2.086-9.619 33.74-9.5 39.3.4 18.441.757 36.889.431 55.334-.171 9.65-.939 19.279-1.123 28.929-.065 3.464-.28 7.361-1.932 10.484a13.117 13.117 0 0 1-7.15 6.187 8.942 8.942 0 0 0-1.972.811 2.09 2.09 0 0 0-1.049 1.749c.054 1.074 1.225 1.746 2.293 1.874 2.223.263 4.339-.91 6.27-2.044l7.989-4.684a28 28 0 0 0 5.815-4.115 13.973 13.973 0 0 0 2.863-4.187c.063-.141.122-.284.176-.428.924-2.417.753-4.875.808-7.434.06-2.794.13-5.586.184-8.38.111-5.575.159-11.156-.054-16.73z" class="cls-75" data-name="Path 23339" transform="translate(-983.541 -476.261)"/>
    <g id="Group_9845" class="cls-76" data-name="Group 9845" transform="translate(159.903 157.832)">
        <path id="Path_23340" d="M1266.458 704.388q-4.589 5.987-9.245 11.917-2.371 3.131-4.792 6.252z" class="cls-77" data-name="Path 23340" transform="translate(-1252.421 -704.388)"/>
    </g>
</svg>
