<svg xmlns="http://www.w3.org/2000/svg" width="79.615" height="97.085" viewBox="0 0 79.615 97.085"><defs><style>.a{fill:#fdc9a6;}.b{fill:#f6bb92;}.c{fill:#385cf8;}.d{fill:#0e78f2;}.e{fill:#eff2fa;}.f{fill:#033a88;}.g{fill:#dbf0ff;}.h{fill:#04429a;}.i{fill:#d0ebff;}.j{fill:#e8f5ff;}.k{fill:#00429a;}.l{fill:#003a88;}</style></defs><g transform="translate(-45.176 0.409)"><rect class="a" width="7.582" height="9.666" transform="translate(81.192 22.747)"/><path class="b" d="M235.921,124.957a6.589,6.589,0,0,0,7.582,0V120.47h-7.582v4.487Z" transform="translate(-154.729 -97.723)"/><path d="M215.282,0A9.479,9.479,0,0,0,205.8,9.478v1.9l9.478-3.791,9.478,3.791v-1.9A9.479,9.479,0,0,0,215.282,0Z" transform="translate(-130.298)"/><path class="c" d="M124.791,381.7H45.176l9.478-30.329h60.659Z" transform="translate(0 -285.027)"/><g transform="translate(65.519 62.554)"><path class="d" d="M216.837,343.174l5.687,9.85,19.7-11.374a3.791,3.791,0,0,0,1.388-5.179l-1.9-3.283a3.791,3.791,0,0,0-5.179-1.388Z" transform="translate(-204.767 -331.292)"/><path class="d" d="M176.448,404.831h0a5.685,5.685,0,0,0,7.768,2.081l4.925-2.843-5.687-9.85-4.925,2.843A5.689,5.689,0,0,0,176.448,404.831Z" transform="translate(-171.386 -382.337)"/><path class="d" d="M180.2,343.174l-5.687,9.85-19.7-11.374a3.791,3.791,0,0,1-1.388-5.179l1.9-3.283A3.791,3.791,0,0,1,160.5,331.8Z" transform="translate(-152.914 -331.292)"/><path class="d" d="M279.987,404.831h0a5.685,5.685,0,0,1-7.768,2.081l-4.925-2.843,5.687-9.85,4.925,2.843A5.689,5.689,0,0,1,279.987,404.831Z" transform="translate(-245.697 -382.337)"/></g><rect class="e" width="22.747" height="36.016" transform="translate(73.61 32.225)"/><path class="f" d="M180.2,330.444l-5.687,9.85-19.7-11.374a3.791,3.791,0,0,1-1.388-5.179l1.9-3.283a3.791,3.791,0,0,1,5.179-1.388Z" transform="translate(-87.395 -258.412)"/><path class="g" d="M279.987,392.1h0a5.685,5.685,0,0,1-7.768,2.081l-4.925-2.843,5.687-9.85,4.925,2.843A5.689,5.689,0,0,1,279.987,392.1Z" transform="translate(-180.178 -309.458)"/><path class="h" d="M216.837,330.444l5.687,9.85,19.7-11.374a3.791,3.791,0,0,0,1.388-5.179l-1.9-3.283a3.791,3.791,0,0,0-5.179-1.388Z" transform="translate(-139.248 -258.412)"/><path class="g" d="M176.448,392.1h0a5.685,5.685,0,0,0,7.768,2.081l4.925-2.843-5.687-9.85-4.925,2.843A5.689,5.689,0,0,0,176.448,392.1Z" transform="translate(-105.867 -309.458)"/><path class="e" d="M308.092,170.667l11.374,11.374h9.478v7.582H317.57l-9.478-7.582h-1.9V170.667Z" transform="translate(-211.735 -138.442)"/><path class="g" d="M426.667,238.485h3.791a3.79,3.79,0,0,0,3.791-3.791h0a3.79,3.79,0,0,0-3.791-3.791h-3.791Z" transform="translate(-309.458 -187.304)"/><path class="e" d="M106.185,170.667,94.811,182.04H85.333v7.582H96.707l9.478-7.582,1.918.023v-11.4Z" transform="translate(-32.575 -138.442)"/><path class="g" d="M52.759,238.485H48.968a3.79,3.79,0,0,1-3.791-3.791h0a3.79,3.79,0,0,1,3.791-3.791h3.791Z" transform="translate(-0.001 -187.304)"/><g transform="translate(56.55 79.615)"><rect class="d" width="3.791" height="3.791" transform="translate(53.077 7.582)"/><rect class="d" width="3.791" height="3.791" transform="translate(0 7.582)"/><rect class="d" width="3.791" height="3.791" transform="translate(49.285)"/><rect class="d" width="3.791" height="3.791" transform="translate(3.791)"/></g><g transform="translate(62.203 -0.409)"><path class="g" d="M237.946,144.586V139.02H223.633v5.566s4.038,4.548,7.617,4.548S237.946,144.586,237.946,144.586Z" transform="translate(-207.65 -111.983)"/><path class="i" d="M223.633,139.02v5.873c9.015,3.248,14.313-4.881,14.313-4.881v-.992Z" transform="translate(-207.65 -111.983)"/><path class="j" d="M207.28,44.985l.693,15.244a4.771,4.771,0,0,0,1.9,3.6l3.288,2.466a4.77,4.77,0,0,0,2.862.954h3.181a4.771,4.771,0,0,0,2.862-.954l3.288-2.466a4.771,4.771,0,0,0,1.9-3.6l.693-15.244Z" transform="translate(-194.477 -36.236)"/><path class="k" d="M285.216,15.853l.745,5.268c3.4.681,3.893,6.021,3.964,7.546a1.569,1.569,0,0,0,.251.777l1.3,2.014a7.617,7.617,0,0,1,1.59-5.566S293.764,12.672,285.216,15.853Z" transform="translate(-257.257 -12.372)"/><path class="g" d="M308.056,87.916l-.9,3.592a.956.956,0,0,1-.927.724h0a.956.956,0,0,1-.949-.837l-.459-3.674a1.646,1.646,0,0,1,1.633-1.85h0A1.646,1.646,0,0,1,308.056,87.916Z" transform="translate(-273.039 -69.17)"/><path class="l" d="M197.857,2.057l1.176.8c-5.317,3.926-4.324,10.66-4.324,10.66,1.59,1.59,1.59,5.566,1.59,5.566l1.59-1.59s-.614-4.594,2.386-6.361c2.783-1.64,5.218-.8,7.7-.8,6.659,0,8.523-2.51,8.2-5.566C216.011,3.192,213.593-.1,207.432,0,204.945.045,200.275.8,197.857,2.057Z" transform="translate(-184.293 0)"/><path class="i" d="M199.152,87.916l.9,3.592a.956.956,0,0,0,.927.724h0a.956.956,0,0,0,.949-.837l.459-3.674a1.646,1.646,0,0,0-1.633-1.85h0A1.646,1.646,0,0,0,199.152,87.916Z" transform="translate(-187.891 -69.17)"/></g></g></svg>
