<svg xmlns="http://www.w3.org/2000/svg" width="14.232" height="14.232" viewBox="0 0 14.232 14.232">
  <path id="remoteacc-icon-inactive" d="M12.892,1.341A4.584,4.584,0,0,0,5.289,6L.123,11.161A.417.417,0,0,0,0,11.456v2.359a.417.417,0,0,0,.417.417H2.777a.417.417,0,0,0,.295-.122l.59-.59a.417.417,0,0,0,.119-.343l-.073-.634.878-.083a.416.416,0,0,0,.376-.376l.083-.878.634.074a.41.41,0,0,0,.325-.1.418.418,0,0,0,.14-.311V10.09H6.9A.417.417,0,0,0,7.2,9.968L8.268,8.913a4.516,4.516,0,0,0,4.623-1.085A4.592,4.592,0,0,0,12.892,1.341Zm-1.18,2.948a1.251,1.251,0,1,1,0-1.769A1.252,1.252,0,0,1,11.712,4.289Z" transform="translate(-0.001 0)" fill="#9696b9"/>
</svg>
