<?xml version="1.0" encoding="UTF-8"?> <svg xmlns="http://www.w3.org/2000/svg" xmlns:xlink="http://www.w3.org/1999/xlink" width="880px" height="150px" viewBox="0 0 880 150"><!-- Generator: Sketch 57 (83077) - https://sketch.com --><title>Rentlio</title><desc>Created with Sketch.</desc><g id="Page-1" stroke="none" stroke-width="1" fill="none" fill-rule="evenodd"><g id="Artboard" transform="translate(-1231.000000, -1095.000000)"><g id="Rentlio" transform="translate(1231.000000, 1095.000000)"><path d="M379.464672,9.39480958 C386.468124,10.3069717 395.936479,5.35227273 395.67641,19.7648956 C394.96985,58.4903256 395.252934,97.2387899 395.58435,135.975737 C395.651093,143.846591 393.372612,146.221437 385.294361,146.70516 C373.381818,147.419226 365.697123,143.738329 358.493441,133.796683 C340.373763,108.792844 320.84557,84.8071253 299.623475,57.5090602 L299.623475,129.235872 C299.625777,145.357647 290.981358,151.408784 275.634983,146.292844 C271.67641,144.972973 271.731646,142.151259 271.731646,139.037009 C271.729344,98.3789926 271.777675,57.7232801 271.6533,17.0675676 C271.639586,11.884828 273.13786,9.50537469 278.771922,9.29115479 C290.571692,8.84428747 300.017031,9.87162162 308.148216,21.5247236 C326.056157,47.1827396 346.189643,71.2813268 365.414039,96.0179668 C366.152819,95.6332924 366.8916,95.2463145 367.63038,94.86164 C367.63038,70.0006143 368.145915,45.1211609 367.379517,20.2831695 C367.071116,10.3046683 371.142463,8.31219287 379.464672,9.39480958 Z M10.1758343,9.23172604 C30.4819333,9.90202703 50.8455696,9.00829238 71.1332566,9.9296683 C88.0837745,10.6990172 102.942232,16.9298219 109.977906,33.9246007 C116.516456,49.7146806 116.067664,65.4103194 105.773072,79.8874386 C104.226467,82.0618857 102.017031,83.7710381 100.534868,85.9777334 C97.2483314,90.8748464 87.460069,90.3842138 88.4589183,97.5456081 C89.1792865,102.707617 94.2655926,107.254607 97.3979287,112.080313 C103.034292,120.766585 108.493441,129.572635 114.355351,138.099969 C118.988262,144.839834 116.548677,146.694103 109.49229,146.424601 C104.542303,146.233238 99.5589789,146.063465 94.6255856,146.373646 L93.3933257,146.461456 C87.1562716,146.958999 83.5705409,144.208692 80.5601841,138.97758 C73.8628308,127.352119 66.7212888,115.980037 59.6188723,104.59183 C56.7051784,99.9181511 35.3518987,96.3155713 31.3104718,99.713145 C28.8823936,101.756296 29.9249712,104.71852 29.8950518,107.279945 C29.78458,117.64312 29.6257768,128.013206 29.9341772,138.369472 C30.1113924,144.310043 27.8720368,146.212684 21.9456847,146.516738 C0.586421174,147.602534 0.170287687,147.834411 0.162186053,127.134715 L0.162025316,77.4757371 C0.162025316,58.2834767 0.468124281,39.0843059 0.0124280783,19.9012592 C-0.173993096,12.1501843 1.71093211,8.95070639 10.1758343,9.23172604 Z M425.500575,9.23449017 C458.796318,9.73664005 492.105869,9.63989558 525.403913,9.29437961 C536.911392,9.17460074 533.224396,17.1813575 533.498274,22.8570332 C533.776755,28.5995086 535.700806,35.7816339 525.295742,35.1090295 C516.527043,34.5400799 507.654776,35.5052211 498.902186,34.8418305 C491.111623,34.2498464 489.30725,37.1913391 489.401611,44.5738636 C489.788262,74.4517813 488.759494,104.368857 489.896433,134.207617 C490.467204,149.191493 481.41542,145.639588 473.095512,146.549447 C462.764097,147.680436 459.825086,143.822174 460.418872,133.742322 C461.27733,119.235258 460.639816,104.63836 460.642117,90.0806204 C460.644419,75.1405098 460.24626,60.1842752 460.810127,45.2625921 C461.100115,37.5460688 459.330265,34.0932125 450.881473,34.8349201 C442.524741,35.5651106 434.009206,34.4525491 425.643268,35.1228501 C414.545455,36.0119779 416.752589,28.4589988 416.817031,22.2857801 C416.879171,16.22543 414.33832,9.06633907 425.500575,9.23449017 Z M567.057998,9.34505528 C569.679402,9.73433661 572.4458,9.69748157 575.081013,9.34966216 C582.9084,8.31311425 584.749597,11.9894042 584.671346,19.2590602 C584.35374,49.9086302 584.843959,80.567414 584.335328,111.210074 C584.19954,119.49094 586.814039,121.573249 594.64603,121.21852 C608.017722,120.610412 621.49298,121.810504 634.820944,120.820025 C646.855466,119.92629 644.807135,127.375614 645.290449,134.610719 C645.845109,142.937654 644.236364,146.98019 634.346835,146.634674 C611.787572,145.851505 589.175374,146.091063 566.597699,146.547144 C558.728884,146.706081 555.875029,144.554668 556.10748,136.315264 C556.657537,116.789005 556.284695,97.2397113 556.282394,77.697328 C556.282394,58.5396192 556.687457,39.3703931 556.095972,20.2311118 C555.8313,11.6577088 558.36985,8.05282555 567.057998,9.34505528 Z M695.329114,21.1900338 C694.622555,45.3024416 695.098964,69.4494011 695.098964,93.5825399 C695.098964,108.137976 694.795167,122.702626 695.227848,137.248848 C695.434983,144.21445 693.188723,147.252687 686.111623,146.441877 C683.464902,146.137822 680.726122,146.124002 678.086306,146.44418 C670.316456,147.38168 667.273878,144.619856 667.506329,136.320562 C668.054085,116.801213 667.681243,97.254223 667.683544,77.71875 C667.683544,60.0974355 667.681243,42.4784244 667.683544,24.85711 L667.68403,23.5031584 C667.698936,9.36791232 668.169827,9.85745547 683,9.19832617 C692.367089,8.78140356 695.619102,11.3497389 695.329114,21.1900338 Z M244.613349,22.0425369 C244.466053,28.8445946 246.410817,35.8447482 234.820483,35.2412469 C216.864212,34.3060504 198.813579,35.335688 180.822785,34.8266278 C173.209436,34.6101044 170.097814,36.1326781 170.263521,44.6807432 C170.654776,64.780559 170.176064,64.7874693 189.890679,64.7897727 C202.150748,64.7897727 214.410817,64.8703931 226.666283,64.7759521 C238.385501,64.6884214 233.441887,73.5704853 234.012658,78.9674447 C234.578826,84.3114251 236.035673,90.8670147 226.36939,90.5836916 C210.675489,90.1230037 194.944764,90.8439803 179.257768,90.2980651 C171.971231,90.0423833 170.337169,92.5439189 170.316456,99.4450246 C170.249712,121.048986 169.952819,121.048986 191.913694,121.048986 C206.470656,121.048986 221.050633,121.564957 235.577675,120.887746 C247.662831,120.32801 244.159954,128.606572 244.530495,134.805129 C244.898734,140.987561 245.881473,146.796837 235.860759,146.589527 C207.524741,146.006757 179.165708,146.188729 150.822785,146.520424 C143.743383,146.601044 141.531646,144.258446 141.662831,137.27672 C142.033372,117.347359 141.791715,97.4064803 141.791715,77.4679054 C141.791715,58.2986794 142.070196,39.122543 141.651323,19.9602273 C141.487917,12.3473587 143.257768,9.08338452 151.734177,9.23310811 C179.3084,9.72604423 206.910242,9.95869165 234.470656,9.14097052 C245.582278,8.81157862 244.772152,14.8465909 244.613349,22.0425369 Z M29.8462113,53.4008753 C29.8508631,74.5579699 29.8508631,74.5579699 50.4285386,73.9913237 C56.156962,73.9913237 61.9590334,74.5694871 67.6,73.866938 C78.435443,72.5148188 84.7047181,65.0355498 84.8174914,54.4097819 C84.9302647,43.7817107 78.7737629,36.1412009 68.0257768,34.6209306 C62.0073648,33.7709613 55.8255466,33.8999539 49.7173763,33.8723127 C29.8439586,33.7916923 29.8439586,33.8423679 29.8462113,53.4008753 Z" id="Combined-Shape" fill="#004667"></path><path d="M826.255236,46.5377764 C809.771922,35.0505221 793.23107,34.5138206 776.628078,46.2797912 C767.16893,37.8238636 758.839816,28.5663391 755.164327,16.0056818 C784.022785,-4.98786855 821.046951,-4.96483415 847.198849,16.0609644 C844.3542,29.0684889 834.821404,37.4691339 826.255236,46.5377764" id="Fill-13" fill="#7FCFD8"></path><path d="M755.165017,16.0061425 C762.601151,25.897113 770.667894,35.3412162 776.624166,46.2825553 C764.587342,57.735258 760.543613,71.5904484 764.20069,87.7582924 C751.606904,93.0423833 738.681703,96.4514742 724.849712,94.8091216 C716.826697,66.8453624 729.217952,34.6317568 755.165017,16.0061425" id="Fill-16" fill="#A3C939"></path><path d="M826.255236,46.5377764 C831.115995,34.9215295 840.671807,26.5324017 847.198849,16.0609644 C873.290909,33.9955467 885.454315,66.851812 877.350748,97.5175061 C865.000921,91.5838452 850.513003,92.6411241 838.49229,85.6294533 C842.414039,70.0904484 836.952589,57.4929361 826.255236,46.5377764" id="Fill-18" fill="#25C6E3"></path><path d="M838.493211,85.6298395 C850.228539,85.609183 861.126122,89.9212224 872.424166,92.1624693 C875.485155,92.7705774 876.810817,94.716984 877.351669,97.5179668 C872.822325,119.465141 859.956962,135.285166 841.333257,147.007371 C835.591024,150.621468 831.556502,151.268735 830.408055,142.964834 C830.147986,141.094441 829.310242,139.309275 828.755581,137.478041 C824.210127,122.501075 816.592175,107.277641 834.101956,94.8275491 C836.52313,93.1068796 837.075489,88.7602887 838.493211,85.6298395" id="Fill-20" fill="#00AEE6"></path><path d="M724.850173,94.810043 C737.754661,91.2742629 750.691369,87.9158477 764.201151,87.7592138 C765.662601,90.4289005 766.46122,94.0476044 768.698274,95.6208538 C785.303567,107.294687 778.237975,121.686579 773.977906,135.974816 C768.919217,152.928133 768.813349,153.287469 754.949137,142.737715 C739.031991,130.621622 727.328884,115.534091 724.850173,94.810043" id="Fill-22" fill="#83A73F"></path></g></g></g></svg> 