<svg xmlns="http://www.w3.org/2000/svg" width="21" height="21" viewBox="0 0 21 21"><defs><style>.a,.b{fill:#2148ff;}.a{opacity:0.005;}</style></defs><g transform="translate(-11.332 -5)"><rect class="a" width="21" height="21" transform="translate(11.332 5)"/><g transform="translate(13.015 7.117)"><g transform="translate(0 6.637)"><path class="b" d="M4.194,187.75H.6a.6.6,0,0,0-.6.6v8.984a.6.6,0,0,0,.6.6H4.194a.6.6,0,0,0,.6-.6V188.35A.6.6,0,0,0,4.194,187.75Z" transform="translate(0 -187.75)"/></g><g transform="translate(5.99 0.05)"><path class="b" d="M174.894.05H171.3a.6.6,0,0,0-.6.6V16.221a.6.6,0,0,0,.6.6h3.594a.6.6,0,0,0,.6-.6V.65A.6.6,0,0,0,174.894.05Z" transform="translate(-170.7 -0.05)"/></g><g transform="translate(11.981 4.84)"><path class="b" d="M345.594,136.55H342a.6.6,0,0,0-.6.6v10.781a.6.6,0,0,0,.6.6h3.594a.6.6,0,0,0,.6-.6V137.15A.6.6,0,0,0,345.594,136.55Z" transform="translate(-341.4 -136.55)"/></g></g></g></svg>