<svg xmlns="http://www.w3.org/2000/svg" xmlns:xlink="http://www.w3.org/1999/xlink" width="51.742" height="63.986" viewBox="0 0 51.742 63.986"><defs><style>.a{fill:#2148ff;}.b{fill:#161643;}.c{fill:#dadada;}.d{fill:#385cf8;}.e{fill:#1e1e5d;}.f{fill:#fff;}.g{filter:url(#a);}</style><filter id="a" x="0" y="0" width="51.742" height="63.986" filterUnits="userSpaceOnUse"><feOffset dy="4" input="SourceAlpha"/><feGaussianBlur stdDeviation="2.5" result="b"/><feFlood flood-opacity="0.161"/><feComposite operator="in" in2="b"/><feComposite in="SourceGraphic"/></filter></defs><g transform="translate(-88.757 -54.773)"><g transform="translate(96.257 58.273)"><g class="g" transform="matrix(1, 0, 0, 1, -7.5, -3.5)"><path class="a" d="M18.373,48.986H11.739C3.63,48.986,0,42.067,0,35.211c0-.066,0-.13,0-.2v-.069c0-.044,0-.086,0-.129,0-.026,0-.05,0-.075,0-.042,0-.084,0-.126,0-.025,0-.051,0-.077l0-.123q0-.039,0-.078c0-.041,0-.081.005-.122l0-.083c0-.039,0-.078.006-.117l0-.082c0-.042,0-.082.006-.123s0-.053.005-.08c0-.049.006-.1.01-.149,0-.016,0-.032,0-.049,0-.068.009-.136.016-.2,0-.011,0-.022,0-.033,0-.057.01-.114.014-.171,0-.021,0-.043.005-.065,0-.044.009-.089.013-.134,0-.027.005-.051.009-.078l.012-.132c0-.025.006-.05.009-.075,0-.04.009-.083.014-.123s.005-.059.01-.089l.012-.114q.008-.048.012-.1c.005-.035.01-.071.014-.107s.009-.064.013-.1.01-.083.016-.125l.012-.077c.006-.051.014-.1.021-.153,0-.018.006-.036.009-.054.009-.067.019-.132.03-.2,0-.029.008-.056.013-.086s.012-.081.019-.121.01-.058.014-.088.014-.081.019-.121.01-.056.014-.083.014-.082.022-.124.01-.062.017-.093.014-.075.019-.112.012-.061.017-.092.016-.081.023-.121.01-.059.017-.089.017-.082.025-.124l.016-.082.027-.129c.006-.028.01-.055.016-.082.013-.058.026-.116.038-.173.006-.034.014-.066.021-.1s.019-.089.03-.134.014-.063.021-.094.018-.077.027-.118.014-.067.023-.1.016-.068.022-.1.019-.077.027-.115.016-.064.025-.1.017-.073.025-.108.017-.069.026-.1.017-.066.026-.1.019-.077.03-.115.016-.063.023-.095.022-.081.031-.12.014-.057.023-.086c.012-.045.023-.092.036-.138.008-.025.013-.049.021-.073l.055-.2c.008-.024.014-.047.022-.071.013-.047.025-.094.038-.14l.023-.075c.013-.045.025-.09.038-.136.009-.027.017-.055.025-.082s.026-.085.038-.127.018-.055.026-.082l.039-.129c.008-.028.017-.055.025-.082s.027-.085.04-.127l.026-.084c.014-.042.026-.082.039-.123s.019-.058.029-.088l.043-.132c.009-.024.016-.049.025-.073L1.635,26c.013-.037.025-.074.038-.112.018-.055.038-.108.056-.164.005-.017.012-.035.017-.053l.055-.155c.008-.025.018-.05.026-.075.016-.044.031-.088.045-.131s.022-.058.031-.086.03-.082.044-.123.021-.055.03-.082c.016-.044.034-.087.049-.131l.027-.077c.016-.043.031-.086.049-.127s.019-.056.031-.084l.048-.127.03-.079c.019-.049.038-.1.058-.148.006-.019.014-.038.021-.056.055-.139.109-.277.166-.416.005-.015.012-.031.018-.045l.065-.158c.009-.022.019-.046.027-.068l.057-.136c.01-.024.021-.049.03-.073.019-.046.04-.093.06-.14.009-.02.017-.042.027-.063.019-.047.04-.093.06-.14.01-.024.019-.047.031-.071l.06-.139c.01-.021.018-.042.027-.062l.07-.159c.008-.015.013-.03.021-.044l.187-.414,0-.007c.03-.066.06-.131.091-.2.006-.013.012-.026.017-.038.027-.055.053-.11.079-.164.006-.016.016-.032.022-.049.026-.051.049-.1.074-.154.009-.018.017-.036.027-.054.022-.049.048-.1.073-.149l.023-.051c.026-.053.053-.106.078-.158l.022-.043c.03-.058.058-.117.088-.175l.01-.021c.136-.271.278-.54.42-.808l.016-.027c.03-.056.06-.113.091-.168.008-.013.013-.026.019-.038.03-.055.058-.108.088-.161.008-.012.014-.025.022-.037l.09-.163.018-.032c.03-.055.061-.108.091-.162.006-.013.014-.025.021-.038.032-.058.068-.116.1-.175l.008-.014c.114-.2.227-.391.343-.584l.016-.023c.032-.056.068-.112.1-.167.006-.012.014-.022.021-.034l.092-.151c.01-.016.021-.033.03-.049.029-.045.057-.09.084-.136.01-.018.023-.036.035-.055.027-.045.056-.09.084-.134.009-.016.019-.032.03-.047.032-.051.064-.1.1-.15.006-.012.014-.022.021-.034.035-.053.069-.105.1-.158a.3.3,0,0,0,.017-.027c.082-.123.161-.246.243-.368a.192.192,0,0,0,.014-.02l.105-.157.032-.047c.03-.044.058-.086.088-.129.014-.021.027-.041.042-.06.027-.038.052-.075.078-.113s.032-.045.048-.068.051-.071.074-.106l.049-.07c.025-.034.051-.069.074-.1l.052-.073c.022-.031.045-.061.066-.092s.04-.056.06-.082.04-.053.058-.079.045-.061.066-.091.039-.051.058-.077c.045-.062.092-.125.139-.187l.044-.057c.027-.037.056-.073.084-.11l.04-.052c.027-.037.056-.074.084-.11l.039-.049.088-.113.035-.045.091-.114c.012-.014.022-.028.032-.042.032-.039.064-.078.095-.118l.026-.031c.034-.042.07-.085.105-.128l.005-.008a26.873,26.873,0,0,1,1.895-2.081H7.655a1.532,1.532,0,0,1,0-3.063h2.533L6.659,6.36A3.525,3.525,0,0,1,5.311,3.626,3.642,3.642,0,0,1,5.516,2.39,3.524,3.524,0,0,1,8.879,0H27.862a3.526,3.526,0,0,1,3.364,2.39A3.535,3.535,0,0,1,30.079,6.36l-3.53,2.822h2.538a1.532,1.532,0,1,1,0,3.063H26.865c5.564,5.482,9.878,15.088,9.878,22.965,0,8.494-4.3,13.775-11.226,13.775Z" transform="translate(7.5 3.5)"/></g></g><g transform="translate(96.257 58.271)"><path class="a" d="M27.886,10.516,33.08,6.36a3.527,3.527,0,0,0,1.143-3.968A3.521,3.521,0,0,0,30.862,0H11.879A3.525,3.525,0,0,0,8.515,2.392,3.526,3.526,0,0,0,9.658,6.36l5.2,4.156C8.372,15.478,3,26.423,3,35.21c0,6.856,3.629,13.778,11.737,13.778H28.514c6.926,0,11.226-5.28,11.226-13.778,0-8.787-5.372-19.732-11.855-24.694Z" transform="translate(-3 0)"/><path class="b" d="M28.963,4.5H7.531a1.531,1.531,0,0,0,0,3.062H28.963a1.531,1.531,0,0,0,0-3.062Z" transform="translate(0.123 4.685)"/><g transform="translate(13.267 20.411)"><path class="c" d="M15.379,25.788H11.031a1.531,1.531,0,1,1,0-3.062h4.348a1.276,1.276,0,0,0,0-2.551H13.827a4.337,4.337,0,0,1,0-8.675h4.348a1.531,1.531,0,1,1,0,3.062H13.827a1.276,1.276,0,0,0,0,2.551h1.551a4.337,4.337,0,0,1,0,8.675Z" transform="translate(-9.5 -8.438)"/><path class="c" d="M12.781,16.123a1.531,1.531,0,0,1-1.531-1.531V11.531a1.531,1.531,0,1,1,3.062,0v3.062A1.531,1.531,0,0,1,12.781,16.123Z" transform="translate(-7.678 -10)"/><path class="c" d="M12.781,23.123a1.531,1.531,0,0,1-1.531-1.531V18.531a1.531,1.531,0,0,1,3.062,0v3.062A1.531,1.531,0,0,1,12.781,23.123Z" transform="translate(-7.678 -2.712)"/></g><path class="d" d="M21.37,26.535h-.776a1.276,1.276,0,0,0,0,2.551h.776Zm0-14.288h-8.5C7.313,17.727,3,27.335,3,35.21c0,6.856,3.629,13.778,11.737,13.778H21.37V40.823a1.531,1.531,0,0,1-1.531-1.531V37.761H17.8a1.531,1.531,0,0,1,0-3.062H21.37V32.148h-.776a4.339,4.339,0,0,1-.755-8.61v-1.6a1.531,1.531,0,0,1,1.531-1.531ZM21.37,0H11.879A3.525,3.525,0,0,0,8.515,2.392,3.526,3.526,0,0,0,9.658,6.36l3.531,2.825H21.37Z" transform="translate(-3 0)"/><path class="e" d="M18.247,4.5H7.531a1.531,1.531,0,0,0,0,3.062H18.247Z" transform="translate(0.123 4.685)"/><path class="f" d="M14.6,22.693H11.031a1.531,1.531,0,1,0,0,3.062h2.041V24.224A1.531,1.531,0,0,1,14.6,22.693ZM13.072,11.532a4.339,4.339,0,0,0,.755,8.61H14.6V17.08h-.776a1.276,1.276,0,0,1,0-2.551H14.6A1.531,1.531,0,0,1,13.072,13Z" transform="translate(3.767 12.007)"/><path class="f" d="M12.781,10a1.531,1.531,0,0,0-1.531,1.531v3.062a1.531,1.531,0,0,0,1.531,1.531Z" transform="translate(5.589 10.411)"/><path class="f" d="M12.781,17a1.531,1.531,0,0,0-1.531,1.531v3.062a1.531,1.531,0,0,0,1.531,1.531Z" transform="translate(5.589 17.699)"/></g></g></svg>