<svg xmlns="http://www.w3.org/2000/svg" width="9.702" height="16" viewBox="0 0 9.702 16"><defs><style>.a{fill:#fff;}</style></defs><g transform="translate(0)"><path class="a" d="M74.48,110.8a.735.735,0,0,0,.655.772H81.25a.735.735,0,0,0,.655-.772l.437-11.332h-8.3Zm5.1-8.518a.3.3,0,0,1,.266-.327h.426a.3.3,0,0,1,.266.327v6.474a.3.3,0,0,1-.266.327h-.426a.3.3,0,0,1-.266-.327Zm-1.862,0a.3.3,0,0,1,.266-.327H78.4a.3.3,0,0,1,.266.327v6.474a.3.3,0,0,1-.266.327h-.426a.3.3,0,0,1-.266-.327v-6.474Zm-1.862,0a.3.3,0,0,1,.266-.327h.426a.3.3,0,0,1,.266.327v6.474a.3.3,0,0,1-.266.327h-.426a.3.3,0,0,1-.266-.327Z" transform="translate(-73.341 -95.572)"/><path class="a" d="M61.307.824H58.486V.169A.155.155,0,0,0,58.348,0H55.386a.155.155,0,0,0-.137.169V.824H52.427a.466.466,0,0,0-.411.505V2.917h9.7V1.33A.466.466,0,0,0,61.307.824Z" transform="translate(-52.016)"/></g></svg>