<svg xmlns="http://www.w3.org/2000/svg" width="12" height="16" viewBox="0 0 12 16"><defs><style>.a{fill:#ff3d78;}</style></defs><path class="a" d="M74.583,110.8a.808.808,0,0,0,.81.772h7.564a.808.808,0,0,0,.81-.772l.54-11.332H74.043Zm6.3-8.518a.328.328,0,0,1,.329-.327h.526a.328.328,0,0,1,.329.327v6.474a.328.328,0,0,1-.329.327h-.526a.328.328,0,0,1-.329-.327Zm-2.3,0a.328.328,0,0,1,.329-.327h.526a.328.328,0,0,1,.329.327v6.474a.328.328,0,0,1-.329.327h-.526a.328.328,0,0,1-.329-.327v-6.474Zm-2.3,0a.328.328,0,0,1,.329-.327h.526a.328.328,0,0,1,.329.327v6.474a.328.328,0,0,1-.329.327h-.526a.328.328,0,0,1-.329-.327Z" transform="translate(-73.175 -95.572)"/><path class="a" d="M63.508.824h-3.49V.169A.169.169,0,0,0,59.848,0H56.184a.169.169,0,0,0-.17.169V.824h-3.49a.507.507,0,0,0-.508.505V2.917h12V1.33A.507.507,0,0,0,63.508.824Z" transform="translate(-52.016)"/></svg>