<svg xmlns="http://www.w3.org/2000/svg" width="84" height="84" viewBox="0 0 84 84"><defs><style>.a{fill:#bce0fd;}.b{fill:#1976d2;}.c{fill:#385cf8;}.d,.i{fill:#cceaff;}.e{fill:#003a88;}.f{fill:#2196f3;}.g{fill:#eceff1;}.h{fill:#00429a;}.i{opacity:0.066;}</style></defs><g transform="translate(0 0)"><path class="a" d="M0,42A42,42,0,1,0,42,0,42,42,0,0,0,0,42Z"/><g transform="translate(12.178 11.178)"><rect class="b" width="7.148" height="12.252" transform="translate(57.733 52.682) rotate(135)"/><circle class="c" cx="28.304" cy="28.304" r="28.304" transform="translate(0 0)"/><circle class="d" cx="23.029" cy="23.029" r="23.029" transform="translate(5.276 5.276)"/><g transform="translate(49.409 49.409)"><path class="e" d="M317.976,312.18l-5.8,5.8a3.329,3.329,0,0,0,0,4.708l3.682,4c1.3,1.3,11.956-9.761,10.656-11.061l-3.835-3.442A3.329,3.329,0,0,0,317.976,312.18Z" transform="translate(-311.205 -311.205)"/></g></g><g transform="translate(20.463 22.292)"><path class="b" d="M348.4,21.332H342.58a1.249,1.249,0,0,0-1.248,1.248v5.625a1.243,1.243,0,0,0,.371.887l5.824,5.758a1.248,1.248,0,0,0,2.125-.887V22.58A1.249,1.249,0,0,0,348.4,21.332Zm0,0" transform="translate(-314.706 -19.667)"/><path class="f" d="M39.939,19.554a2.081,2.081,0,0,1-2.08,2.08H34.946L19.969,7.073,4.992,21.634H2.08A2.083,2.083,0,0,1,.616,18.073L19.1.35a1.246,1.246,0,0,1,1.731,0L39.307,18.056A2.079,2.079,0,0,1,39.939,19.554Zm0,0" transform="translate(0 0)"/><path class="g" d="M78.862,90.668,63.885,105.229s-.131,12.925,0,13.209a17.253,17.253,0,0,0,3.547,2.326,14.615,14.615,0,0,0,3.342,1.464,20.709,20.709,0,0,0,3.137.819l9.857-.035a33.365,33.365,0,0,0,3.33-.906,16.9,16.9,0,0,0,2.573-1.137,18.551,18.551,0,0,0,4.12-2.6l.048-13.137Zm0,0" transform="translate(-58.893 -83.594)"/><path class="h" d="M192,341.332h9.985L202,354.115a17.294,17.294,0,0,1-5.281.568,3.511,3.511,0,0,1-3.285-2.486Zm0,0" transform="translate(-177.023 -314.705)"/><path class="e" d="M192,341.332h4.992v13.313a17.478,17.478,0,0,1-2.212-.071c-1.248-.117-2.78-.4-2.78-.4Zm0,0" transform="translate(-177.023 -314.705)"/></g><circle class="i" cx="23.029" cy="23.029" r="23.029" transform="translate(17.453 16.453)"/></g></svg>
