<svg xmlns="http://www.w3.org/2000/svg" width="12.023" height="12.023" viewBox="0 0 12.023 12.023"><defs><style>.a{fill:none;}.b{fill:#9696b9;stroke:#9696b9;stroke-width:0.5px;}</style></defs><g transform="translate(0.25 0.25)"><rect class="a" width="11" height="11" transform="translate(-0.001)"/><path class="b" d="M11.419,10.414l-2.37-2.37a4.917,4.917,0,0,0,1.005-3.016A5,5,0,0,0,5.027,0,5,5,0,0,0,0,5.027a5,5,0,0,0,5.027,5.027A4.917,4.917,0,0,0,8.044,9.049l2.37,2.37ZM1.436,5.027A3.556,3.556,0,0,1,5.027,1.436,3.556,3.556,0,0,1,8.618,5.027,3.556,3.556,0,0,1,5.027,8.618,3.556,3.556,0,0,1,1.436,5.027Z"/></g></svg>