<svg xmlns="http://www.w3.org/2000/svg" width="52.976" height="14.495" viewBox="0 0 52.976 14.495"><defs><style>.a{fill:#10298e;}.b{fill:#ffbe00;}</style></defs><g transform="translate(-388.399 -310.805)"><g transform="translate(367.999 118.705)"><path class="a" d="M32.176,197.546H28.557a2.324,2.324,0,0,0-.212-1.2c-.221-.3-.812-.45-1.783-.45a4.543,4.543,0,0,0-1.88.256,1.2,1.2,0,0,0-.459,1.13,1.127,1.127,0,0,0,.406,1.042,1.691,1.691,0,0,0,.777.212l.733.053c1.563.106,2.542.177,2.931.221a4.443,4.443,0,0,1,2.692.989,2.629,2.629,0,0,1,.786,1.633,10.7,10.7,0,0,1,.071,1.368,7.241,7.241,0,0,1-.335,2.56,3.314,3.314,0,0,1-2.719,1.88,15.6,15.6,0,0,1-2.71.168,16.993,16.993,0,0,1-4.246-.362,2.786,2.786,0,0,1-1.942-1.81,8.435,8.435,0,0,1-.265-2.525h3.619v.3c0,.627.177,1.033.538,1.209a2,2,0,0,0,.9.194h1.333a4.73,4.73,0,0,0,1.3-.106,1.076,1.076,0,0,0,.662-.636,2.525,2.525,0,0,0,.079-.7c0-.636-.23-1.024-.7-1.165a22.191,22.191,0,0,0-2.419-.23c-1.156-.079-1.96-.159-2.419-.238a3.246,3.246,0,0,1-2.375-1.368A5.42,5.42,0,0,1,20.4,197.3a6.949,6.949,0,0,1,.282-2.18,2.334,2.334,0,0,1,.909-1.245,4.577,4.577,0,0,1,2.348-.768c.795-.071,1.668-.106,2.64-.106a13.832,13.832,0,0,1,3.249.265c1.58.424,2.366,1.616,2.366,3.558a3.468,3.468,0,0,1-.018.724" transform="translate(0 -0.821)"/><path class="a" d="M334.4,206.678V192.2h7.257a7.882,7.882,0,0,1,2.278.247,3.519,3.519,0,0,1,2.4,2.3,8.869,8.869,0,0,1,.318,2.745,10.05,10.05,0,0,1-.353,3.169,3.25,3.25,0,0,1-2.869,2.189c-.168.026-.892.053-2.172.071l-.644.026h-2.322v3.743H334.4Zm3.893-7.1h2.428a4.452,4.452,0,0,0,1.4-.177,1.048,1.048,0,0,0,.468-.759,6.107,6.107,0,0,0,.071-1.13,4.639,4.639,0,0,0-.15-1.359,1.159,1.159,0,0,0-1.006-.759,6.252,6.252,0,0,0-.759-.026h-2.463l.009,4.211Z" transform="translate(-286.281 -0.091)"/><path class="a" d="M464.74,204.079h-5.208l-.7,2.5H454.8l4.352-14.478h5.879l4.4,14.478h-3.946Zm-.768-2.816-1.827-6.277-1.774,6.277Z" transform="translate(-396.052)"/><path class="b" d="M173.94,195.607a5.128,5.128,0,0,1,3.981,1.9l.839-1.8a7.386,7.386,0,0,0-11.847,2.472h-1.642l-.971,2.075h2.1q-.026.291-.026.583a6.3,6.3,0,0,0,.035.706h-1.059l-.971,2.075h2.569a7.291,7.291,0,0,0,6.718,4.352,7.422,7.422,0,0,0,4.1-1.236v-2.542a5.131,5.131,0,0,1-8.157-.583h5.367l.971-2.075h-7.124a5.394,5.394,0,0,1-.053-.759,5.145,5.145,0,0,1,.026-.521h7.751l.971-2.075h-8.051a5.193,5.193,0,0,1,4.467-2.569" transform="translate(-131.197 -1.459)"/><path class="a" d="M172.755,195.03a5.059,5.059,0,0,1,3.937,1.88l.062.079.044-.088.839-1.8.018-.044-.035-.026a7.468,7.468,0,0,0-9.287-.759,7.25,7.25,0,0,0-2.666,3.249l.053-.035h-1.686l-.018.035-.971,2.075-.044.088h2.2l-.062-.071c-.018.221-.026.406-.026.583a6.414,6.414,0,0,0,.035.706l.062-.071h-1.1l-.018.035-.962,2.057-.044.088h2.666l-.053-.035a7.36,7.36,0,0,0,6.78,4.4,7.477,7.477,0,0,0,4.14-1.245l.026-.018v-2.745l-.106.124a5.072,5.072,0,0,1-8.06-.565l-.053.1h5.411l.018-.035.971-2.075.044-.088h-7.221l.062.053a5.391,5.391,0,0,1-.053-.759,4.973,4.973,0,0,1,.026-.512l-.062.053h7.8l.018-.035.971-2.075.044-.088h-8.148l.053.1a5.118,5.118,0,0,1,4.4-2.525m-4.449,2.569h8.051l-.053-.088-.962,2.075.053-.035h-7.8l-.009.053q-.026.265-.026.53a5.84,5.84,0,0,0,.053.777l.009.053H174.8l-.053-.088-.971,2.075.053-.035H168.35l.062.1a5.188,5.188,0,0,0,8.254.583l-.106-.044v2.542l.026-.053a7.322,7.322,0,0,1-10.735-3.09l-.018-.035h-2.613l.053.088.962-2.075-.053.035h1.13l-.009-.071a6.253,6.253,0,0,1-.035-.7c0-.177.009-.362.026-.574v-.071h-2.172l.053.088.971-2.075-.053.035h1.686l.018-.035a7.1,7.1,0,0,1,2.613-3.2,7.365,7.365,0,0,1,9.128.742l-.018-.071-.839,1.8.106-.018a5.184,5.184,0,0,0-8.528.68l-.053.1Z" transform="translate(-130.012 -0.821)"/></g></g></svg>