<svg xmlns="http://www.w3.org/2000/svg" width="65.785" height="18" viewBox="0 0 65.785 18"><defs><style>.a{fill:#9696b9;}</style></defs><g transform="translate(-388.399 -310.805)"><g transform="translate(388.399 310.805)"><path class="a" d="M35.024,198.646H30.529a2.886,2.886,0,0,0-.263-1.491c-.274-.373-1.009-.559-2.214-.559a5.641,5.641,0,0,0-2.335.318,1.485,1.485,0,0,0-.57,1.4,1.4,1.4,0,0,0,.5,1.294,2.1,2.1,0,0,0,.965.263l.91.066c1.94.132,3.157.219,3.64.274a5.518,5.518,0,0,1,3.344,1.228,3.265,3.265,0,0,1,.976,2.028,13.287,13.287,0,0,1,.088,1.7,8.992,8.992,0,0,1-.417,3.179,4.116,4.116,0,0,1-3.376,2.335,19.369,19.369,0,0,1-3.365.208,21.1,21.1,0,0,1-5.273-.449,3.46,3.46,0,0,1-2.412-2.247,10.475,10.475,0,0,1-.329-3.135h4.495v.373c0,.778.219,1.283.669,1.5a2.478,2.478,0,0,0,1.118.241h1.655a5.874,5.874,0,0,0,1.611-.132,1.336,1.336,0,0,0,.822-.789,3.136,3.136,0,0,0,.1-.866c0-.789-.285-1.272-.866-1.447a27.56,27.56,0,0,0-3-.285c-1.436-.1-2.434-.2-3-.3a4.031,4.031,0,0,1-2.949-1.7,6.731,6.731,0,0,1-.647-3.322,8.629,8.629,0,0,1,.351-2.708,2.9,2.9,0,0,1,1.129-1.546,5.684,5.684,0,0,1,2.916-.954c.987-.088,2.072-.132,3.278-.132a17.177,17.177,0,0,1,4.034.329c1.962.526,2.938,2.006,2.938,4.418a4.306,4.306,0,0,1-.022.9" transform="translate(-20.4 -192.901)"/><path class="a" d="M334.4,210.178V192.2h9.011a9.787,9.787,0,0,1,2.828.307,4.37,4.37,0,0,1,2.982,2.85,11.013,11.013,0,0,1,.395,3.409,12.479,12.479,0,0,1-.438,3.935,4.036,4.036,0,0,1-3.563,2.719c-.208.033-1.107.066-2.7.088l-.8.033h-2.883v4.648H334.4Zm4.834-8.814h3.015a5.53,5.53,0,0,0,1.743-.219,1.3,1.3,0,0,0,.581-.943,7.586,7.586,0,0,0,.088-1.4,5.761,5.761,0,0,0-.186-1.688,1.44,1.44,0,0,0-1.25-.943,7.767,7.767,0,0,0-.943-.033h-3.058l.011,5.229Z" transform="translate(-299.978 -192.189)"/><path class="a" d="M467.144,206.976h-6.468l-.866,3.1H454.8l5.4-17.978h7.3l5.459,17.978h-4.9Zm-.954-3.5-2.269-7.794-2.2,7.794Z" transform="translate(-407.18 -192.1)"/><path class="a" d="M176.271,196.068a6.368,6.368,0,0,1,4.944,2.357l1.041-2.236a9.172,9.172,0,0,0-14.711,3.069h-2.039l-1.206,2.576h2.609q-.033.362-.033.724a7.828,7.828,0,0,0,.044.877H165.6l-1.206,2.576h3.19a9.054,9.054,0,0,0,8.342,5.4,9.216,9.216,0,0,0,5.1-1.535v-3.157A6.371,6.371,0,0,1,170.9,206h6.665l1.206-2.576h-8.847a6.7,6.7,0,0,1-.066-.943,6.393,6.393,0,0,1,.033-.647h9.625l1.206-2.576h-10a6.448,6.448,0,0,1,5.547-3.19" transform="translate(-148.525 -193.525)"/><path class="a" d="M175.113,195.521A6.282,6.282,0,0,1,180,197.856l.077.1.055-.11,1.041-2.236.022-.055-.044-.033a9.274,9.274,0,0,0-11.532-.943,9,9,0,0,0-3.311,4.034l.066-.044h-2.094l-.022.044-1.206,2.576-.055.11h2.73l-.077-.088c-.022.274-.033.5-.033.724a7.963,7.963,0,0,0,.044.877l.077-.088h-1.37l-.022.044-1.195,2.554-.055.11h3.311l-.066-.044a9.139,9.139,0,0,0,8.419,5.459A9.284,9.284,0,0,0,179.9,209.3l.033-.022V205.87l-.132.153a6.3,6.3,0,0,1-10.009-.7l-.066.121h6.72l.022-.044,1.206-2.576.055-.11h-8.967l.077.066a6.7,6.7,0,0,1-.066-.943,6.175,6.175,0,0,1,.033-.636l-.077.066h9.691l.022-.044,1.206-2.576.055-.11H169.588l.066.121a6.356,6.356,0,0,1,5.459-3.135m-5.525,3.19h10l-.066-.11-1.195,2.576.066-.044H168.7l-.011.066q-.033.329-.033.658a7.251,7.251,0,0,0,.066.965l.011.066h8.923l-.066-.11-1.206,2.576.066-.044h-6.808l.077.121a6.442,6.442,0,0,0,10.25.724l-.132-.055v3.157l.033-.066a9.093,9.093,0,0,1-13.33-3.837l-.022-.044h-3.245l.066.11,1.195-2.576-.066.044h1.4l-.011-.088a7.764,7.764,0,0,1-.044-.866c0-.219.011-.449.033-.713v-.088h-2.7l.066.11,1.206-2.576-.066.044h2.094l.022-.044a8.819,8.819,0,0,1,3.245-3.968,9.146,9.146,0,0,1,11.335.921l-.022-.088-1.041,2.236.132-.022a6.438,6.438,0,0,0-10.59.844l-.066.121Z" transform="translate(-147.368 -192.901)"/></g></g></svg>