<svg xmlns="http://www.w3.org/2000/svg" width="20" height="20.001" viewBox="0 0 20 20.001"><defs><style>.a{fill:#fff;}</style></defs><path class="a" d="M18.9,7.829l-1.567-.2a7.875,7.875,0,0,0-.474-1.145l.968-1.246a1.239,1.239,0,0,0-.1-1.649L16.416,2.277a1.242,1.242,0,0,0-1.654-.106l-1.244.968a7.847,7.847,0,0,0-1.146-.474l-.2-1.564A1.248,1.248,0,0,0,10.934,0H9.067A1.248,1.248,0,0,0,7.829,1.1l-.2,1.567a7.756,7.756,0,0,0-1.146.474L5.239,2.171a1.24,1.24,0,0,0-1.649.1L2.277,3.584a1.242,1.242,0,0,0-.106,1.655l.968,1.245a7.784,7.784,0,0,0-.474,1.145l-1.564.2A1.248,1.248,0,0,0,0,9.067v1.867a1.248,1.248,0,0,0,1.1,1.238l1.567.2a7.875,7.875,0,0,0,.474,1.145l-.968,1.246a1.239,1.239,0,0,0,.1,1.649l1.313,1.313a1.243,1.243,0,0,0,1.654.105l1.245-.968a7.694,7.694,0,0,0,1.145.474l.2,1.563A1.248,1.248,0,0,0,9.067,20h1.867a1.248,1.248,0,0,0,1.238-1.1l.2-1.567a7.875,7.875,0,0,0,1.145-.474l1.246.968a1.239,1.239,0,0,0,1.649-.1l1.313-1.313a1.241,1.241,0,0,0,.106-1.654l-.968-1.245a7.694,7.694,0,0,0,.474-1.145l1.563-.2A1.248,1.248,0,0,0,20,10.934V9.067a1.247,1.247,0,0,0-1.1-1.238ZM10,14.167A4.167,4.167,0,1,1,14.167,10,4.172,4.172,0,0,1,10,14.167Z"/></svg>