<svg xmlns="http://www.w3.org/2000/svg" width="14" height="16" viewBox="0 0 14 16"><defs><style>.a{fill:#385cf8;}</style></defs><path class="a" d="M117.486,1.833A1.793,1.793,0,0,0,115.736,0h-7.318a1.793,1.793,0,0,0-1.75,1.833v9a1.793,1.793,0,0,0,1.75,1.833h7.318a1.793,1.793,0,0,0,1.75-1.833Zm-3.023,7.833h-4.773a.5.5,0,0,1,0-1h4.773a.5.5,0,0,1,0,1Zm0-2h-4.773a.5.5,0,0,1,0-1h4.773a.5.5,0,0,1,0,1Zm0-2h-4.773a.5.5,0,0,1,0-1h4.773a.5.5,0,0,1,0,1Zm0,0" transform="translate(-103.486 0)"/><path class="a" d="M4.932,65.332a2.774,2.774,0,0,1-2.7-2.833v-9c0-.057.013-.111.016-.167H1.75A1.8,1.8,0,0,0,0,55.165V65.832a1.8,1.8,0,0,0,1.75,1.833H9.386a1.8,1.8,0,0,0,1.75-1.833v-.5Zm0,0" transform="translate(0 -51.665)"/></svg>
