<svg xmlns="http://www.w3.org/2000/svg" width="37.198" height="40.76" viewBox="0 0 37.198 40.76"><defs><style>.a{fill:#385cf8;}</style></defs><g transform="translate(-84.883 29)"><g transform="translate(0.883 4)"><path class="a" d="M277.71,362.455a1.332,1.332,0,0,1-.878-.329,1.3,1.3,0,0,1-.38-1.387,3.537,3.537,0,0,0,.169-.893,5.514,5.514,0,0,1-3.179,2.525,3.567,3.567,0,0,1-3.507-1.314c-2.184-2.386-.695-5.062.393-7.017,1.283-2.3,1.246-2.67.553-3.119a2.672,2.672,0,0,0-2.116.117c-4.225,1.539-9.992,7.866-10.476,9.508a1.326,1.326,0,0,1-1.641.89,1.306,1.306,0,0,1-.9-1.623c.788-2.673,7.317-9.487,12.1-11.23a4.9,4.9,0,0,1,4.483.151,3.3,3.3,0,0,1,1.619,3.488,10.132,10.132,0,0,1-1.306,3.081c-1.5,2.7-1.374,3.317-.749,4,.554.605.873.536.977.514.8-.173,2.068-1.774,2.823-4.156a1.329,1.329,0,0,1,2.4-.282c.106.174,1.819,6.2.176,6.955A1.334,1.334,0,0,1,277.71,362.455Z" transform="translate(-171.695 -381.124)"/><g transform="translate(95.422 -22.82)"><g transform="translate(0)"><path class="a" d="M67.007,14.641l-5.781-3.81a3.935,3.935,0,0,0-4.257,0l-.127.084V2.548a2.578,2.578,0,0,0-5.155,0V19.6a.626.626,0,0,1-.306.542.642.642,0,0,1-.627.028l-4.138-2.046a2.768,2.768,0,0,0-1.221-.285,2.718,2.718,0,0,0-2.73,2.7v.486a.634.634,0,0,0,.205.466l7.438,6.862a8.4,8.4,0,0,0,5.715,2.228H62a6.415,6.415,0,0,0,6.444-6.371V17.291A3.169,3.169,0,0,0,67.007,14.641Z" transform="translate(-42.666)"/></g></g></g></g></svg>
