<svg xmlns="http://www.w3.org/2000/svg" width="148.715" height="37.046" viewBox="0 0 148.715 37.046"><defs><style>.a{fill:#008bce;}.b{fill:#385bf8;}.c{fill:none;stroke:#9696b9;stroke-linecap:round;stroke-width:3px;}</style></defs><g transform="translate(-9424.323 -5708.615)"><path class="a" d="M-82.555,278.97a1.492,1.492,0,0,0-1.369,1.488v3.215h2.917v-3.215a1.394,1.394,0,0,0-1.548-1.488m6.37-29.47a16.994,16.994,0,0,0-15.479,9.942,13.423,13.423,0,0,0-3.453-.476A12.374,12.374,0,0,0-107.5,271.35a12.374,12.374,0,0,0,12.383,12.383H-89.7a3.75,3.75,0,0,1-1.548-3.036V276.41a3.813,3.813,0,0,1-1.488-1.727,3.575,3.575,0,0,1,.834-3.929l6.966-6.847a3.705,3.705,0,0,1,2.56-1.072,3.559,3.559,0,0,1,2.56,1.072l6.966,6.847a3.575,3.575,0,0,1,.833,3.929,3.812,3.812,0,0,1-1.488,1.727v4.644a3.412,3.412,0,0,1-1.191,2.62l.179.06a17.158,17.158,0,0,0,15.6-17.087A17.369,17.369,0,0,0-76.184,249.5" transform="translate(9631.957 5459.808)"/><g transform="translate(9424.323 5709.308)"><g transform="translate(0 0)"><path class="b" d="M108.356,214.274a3.969,3.969,0,0,1,0,5.511l-3.073,3.073a3.968,3.968,0,0,1-5.511,0L86.312,209.293a3.968,3.968,0,0,1,0-5.511l3.073-3.073a3.969,3.969,0,0,1,5.511,0Z" transform="translate(-85.199 -189.739)"/><path class="b" d="M188.826,126.313a3.969,3.969,0,0,1,5.511,0l3.073,3.073a3.969,3.969,0,0,1,0,5.511l-23.316,23.209a3.968,3.968,0,0,1-5.511,0l-3.073-3.073a3.968,3.968,0,0,1,0-5.511Z" transform="translate(-153.904 -125.2)"/></g></g><g transform="translate(9488.941 5710.736)"><g transform="translate(0 0)"><line class="c" x2="15.515" transform="translate(0 6.649)"/><line class="c" x2="6.649" y2="6.649" transform="translate(8.866)"/><line class="c" y1="6.649" x2="6.649" transform="translate(8.866 6.649)"/></g><g transform="translate(0 19.505)"><line class="c" x1="15.515" transform="translate(0 6.649)"/><line class="c" x1="6.649" y2="6.649" transform="translate(0)"/><line class="c" x1="6.649" y1="6.649" transform="translate(0 6.649)"/></g></g></g></svg>