<?xml version="1.0" encoding="utf-8"?>
<!-- Generator: Adobe Illustrator 25.0.0, SVG Export Plug-In . SVG Version: 6.00 Build 0)  -->
<svg version="1.1" id="Layer_1" xmlns="http://www.w3.org/2000/svg" xmlns:xlink="http://www.w3.org/1999/xlink" x="0px" y="0px"
	 viewBox="0 0 187.6 45" style="enable-background:new 0 0 187.6 45;" xml:space="preserve">
<style type="text/css">
	.st0{enable-background:new    ;}
	.st1{fill:#3B4AFF;}
	.st2{fill-rule:evenodd;clip-rule:evenodd;fill:#3B4AFF;}
	.st3{fill:#FFFFFF;}
	.st4{fill:#47FF9A;}
</style>
<desc>Created with Sketch.</desc>
<g>
	<g class="st0">
		<path class="st1" d="M56.2,32.8c-1.2-0.3-2.5-0.7-3.8-1.3v-4.7c1.3,0.7,2.5,1.2,3.8,1.5s2.7,0.5,4.1,0.5c1.7,0,2.6-0.6,2.6-1.7
			c0-0.5-0.1-0.8-0.4-1.1c-0.3-0.3-0.7-0.4-1.3-0.6l-3.1-0.7c-1.9-0.4-3.2-1-4.1-2c-0.9-0.9-1.3-2.2-1.3-3.8c0-4.2,2.6-6.3,7.8-6.3
			c2.2,0,4.4,0.4,6.9,1.2v4.6c-0.9-0.4-1.9-0.7-3.1-1c-1.2-0.3-2.4-0.4-3.5-0.4c-1,0-1.7,0.1-2.1,0.4c-0.4,0.3-0.6,0.6-0.6,1.1
			c0,0.4,0.1,0.7,0.4,0.9c0.3,0.2,0.7,0.4,1.2,0.5l3.1,0.7c1.9,0.4,3.4,1,4.3,2c0.9,0.9,1.3,2.3,1.3,4.1c0,2.1-0.7,3.7-2.1,4.8
			c-1.4,1.1-3.4,1.6-5.8,1.6C58.8,33.2,57.4,33.1,56.2,32.8z"/>
		<path class="st1" d="M98.9,14.8c1.2,1.3,1.8,3.4,1.8,6.2v11.6h-5.3V21c0-1.1-0.2-2-0.7-2.6s-1.2-0.8-2.4-0.8
			c-1.4,0-2.8,0.6-4.2,1.9c0,0.6,0.1,1.2,0.1,1.5v11.6h-5.3V21c0-1.1-0.2-2-0.7-2.6s-1.2-0.8-2.4-0.8c-1.4,0-2.7,0.6-4.1,1.8v13.2
			h-5.3V13.3h5.3v1.6c0.8-0.7,1.7-1.2,2.5-1.6c0.8-0.3,1.7-0.5,2.7-0.5c3,0,5.1,1,6.2,3c1-1,2-1.8,3-2.3s2.1-0.7,3.2-0.7
			C95.9,12.9,97.7,13.5,98.9,14.8z"/>
		<path class="st1" d="M107.4,31.9c-1.5-0.9-2.7-2.1-3.5-3.7c-0.8-1.5-1.2-3.3-1.2-5.2s0.4-3.7,1.2-5.2c0.8-1.5,1.9-2.8,3.5-3.7
			c1.5-0.9,3.4-1.4,5.6-1.4s4,0.5,5.5,1.4s2.7,2.1,3.4,3.7c0.8,1.5,1.2,3.3,1.2,5.2c0,1.9-0.4,3.7-1.2,5.2c-0.8,1.5-1.9,2.8-3.4,3.7
			s-3.4,1.3-5.5,1.3S109,32.8,107.4,31.9z M116.4,27.2c0.8-1,1.2-2.4,1.2-4.2c0-1.8-0.4-3.2-1.2-4.2c-0.8-1-1.9-1.5-3.4-1.5
			s-2.7,0.5-3.5,1.5s-1.2,2.4-1.2,4.2c0,1.8,0.4,3.2,1.2,4.2c0.8,1,1.9,1.5,3.5,1.5C114.5,28.7,115.6,28.2,116.4,27.2z"/>
		<path class="st1" d="M129.9,31.9c-1.5-0.9-2.7-2.1-3.5-3.7c-0.8-1.5-1.2-3.3-1.2-5.2s0.4-3.7,1.2-5.2c0.8-1.5,1.9-2.8,3.5-3.7
			c1.5-0.9,3.4-1.4,5.6-1.4c2.2,0,4,0.5,5.5,1.4s2.7,2.1,3.4,3.7c0.8,1.5,1.2,3.3,1.2,5.2c0,1.9-0.4,3.7-1.2,5.2s-1.9,2.8-3.4,3.7
			s-3.4,1.3-5.5,1.3C133.3,33.2,131.4,32.8,129.9,31.9z M138.8,27.2c0.8-1,1.2-2.4,1.2-4.2c0-1.8-0.4-3.2-1.2-4.2s-1.9-1.5-3.4-1.5
			s-2.7,0.5-3.5,1.5s-1.2,2.4-1.2,4.2c0,1.8,0.4,3.2,1.2,4.2s1.9,1.5,3.5,1.5C136.9,28.7,138.1,28.2,138.8,27.2z"/>
		<path class="st1" d="M162.9,13.9c1.3,0.8,2.4,1.9,3.1,3.5s1.1,3.4,1.1,5.6s-0.4,4.1-1.1,5.6c-0.7,1.5-1.8,2.7-3.1,3.5
			c-1.3,0.8-2.9,1.2-4.6,1.2c-1.8,0-3.6-0.7-5.3-2v1.4h-5.3V3.6h5.3v11.2c1.7-1.3,3.5-2,5.3-2C160,12.7,161.5,13.1,162.9,13.9z
			 M160.5,27.1c0.7-0.9,1.1-2.3,1.1-4.1c0-1.8-0.4-3.1-1.1-4.1c-0.7-0.9-1.8-1.4-3.3-1.4c-1.4,0-2.8,0.5-4.2,1.5v7.9
			c1.4,1.1,2.8,1.6,4.2,1.6C158.6,28.5,159.7,28,160.5,27.1z"/>
		<path class="st1" d="M187.6,13.3v19.3h-5.3V31c-1.7,1.4-3.6,2.1-5.5,2.1c-2.5,0-4.4-0.6-5.7-1.9c-1.2-1.3-1.9-3.3-1.9-6.2V13.3
			h5.3v11.6c0,1.1,0.3,2,0.8,2.6s1.4,0.8,2.6,0.8c1.4,0,2.9-0.6,4.4-1.9V13.3H187.6z"/>
	</g>
	<g id="Artboard">
		<path id="Combined-Shape-Copy-14_1_" class="st2" d="M19.4,45L0,25.6V6.8C0,3,3,0,6.8,0h31.4C42,0,45,3,45,6.8v31.4
			c0,3.7-3,6.8-6.8,6.8"/>
		<g>
			<path class="st3" d="M28.9,23.6c-0.9-1-2.5-1.9-4.7-2.8l-2.1-0.9c-0.9-0.3-1.5-0.7-1.8-0.9c-0.3-0.3-0.5-0.6-0.5-1
				c0-1,0.8-1.5,2.3-1.5c1.8,0,3.4,0.7,4.9,2.1l3-3.6c-2-2.2-4.6-3.2-7.8-3.2c-2.4,0-4.3,0.6-5.8,1.7c-1.5,1.2-2.2,2.7-2.2,4.7
				c0,1.5,0.5,2.8,1.4,3.8c0.9,1,2.4,1.9,4.5,2.8l2.3,1c0.9,0.4,1.5,0.7,1.8,0.9c0.3,0.2,0.5,0.6,0.5,1c0,0.6-0.3,1-0.8,1.3
				s-1.2,0.5-2,0.5c-1.4,0-2.6-0.4-3.9-1.1c0.9,1.1,1.4,2.6,1.4,4.1v1.7c0.8,0.1,1.6,0.2,2.4,0.2c2.4,0,4.5-0.6,6-1.8
				c1.6-1.2,2.4-2.9,2.4-5.1C30.3,25.8,29.8,24.5,28.9,23.6z"/>
			<path class="st4" d="M18,28.3c-1.2-1.6-3.2-2.7-5.4-2.7H0L19.4,45V34.1v-1.7C19.4,30.8,18.9,29.4,18,28.3z"/>
		</g>
	</g>
</g>
</svg>
