<svg xmlns="http://www.w3.org/2000/svg" id="sonder-logo" width="213.42" height="33.16" viewBox="0 0 213.42 33.16">
    <defs>
        <style>
            .cls-1{fill:#698396}
        </style>
    </defs>
    <path id="Path_19317" d="M12.518 14.081c-2.782-.9-5.285-2.065-5.382-4.53C7.03 6.9 8.681 5.363 11.823 5.363a4.371 4.371 0 0 1 4.649 4.258c0 .615.334.74.911.74h3.8c.507 0 .786-.24.786-.747a7.88 7.88 0 0 0-3.4-6.913 11.359 11.359 0 0 0-6.79-2.229C5.726.472 1.667 4.179 1.667 9.356c0 6.529 5.563 8.658 10.478 10.2 2.954.923 5.044 2.074 5.044 4.8 0 2.619-2.4 4.091-5.046 4.091-2.777 0-5.685-1.177-5.887-5.185-.026-.51-.245-.909-.736-.909H1.4c-.507 0-.684.413-.684.921 0 7.329 6.329 10.358 11.273 10.358 5.764 0 10.932-4.038 10.932-9.82 0-6.133-5.682-8.211-10.408-9.731" class="cls-1" data-name="Path 19317" transform="translate(-.72 -.472)"/>
    <path id="Path_19318" d="M72.624 28.282c-5.316 0-8.248-4.462-8.248-10.693 0-5.18 1.887-11.765 8.248-11.765 5.891 0 8.2 6.416 8.2 11.825 0 6.295-2.916 10.634-8.2 10.634m0 5.351c10.082 0 14.153-8.7 14.153-15.982C86.777 7.113 81.854.473 72.624.473 63.8.473 58.47 7.164 58.47 17.589c0 7.4 4.072 16.044 14.154 16.044" class="cls-1" data-name="Path 19318" transform="translate(-24.234 -.472)"/>
    <path id="Path_19319" d="M154.9 1.627H151a.922.922 0 0 0-.921.921v19.2c0 .895-.27 1.08-.7.458-.352-.507-13.035-20.186-13.035-20.186a.923.923 0 0 0-.752-.389h-4.322a.922.922 0 0 0-.921.921V32.5a.923.923 0 0 0 .921.922h3.894a.923.923 0 0 0 .921-.922V13.715c0-.376.294-.726.63-.2.229.359 13.106 19.515 13.106 19.515a.921.921 0 0 0 .752.389h4.327a.922.922 0 0 0 .921-.922V2.548a.922.922 0 0 0-.921-.921" class="cls-1" data-name="Path 19319" transform="translate(-53.502 -.942)"/>
    <path id="Path_19320" d="M218.993 17.523c0 6.9-3.5 10.544-10.127 10.544h-1.522c-.5 0-.6-.24-.6-.8V7.851c0-.314-.044-.873.487-.873h1.637c6.908 0 10.127 3.351 10.127 10.545m-10.127-15.9h-6.939a.923.923 0 0 0-.922.921V32.5a.923.923 0 0 0 .922.922h6.939c5.011 0 9.133-1.539 11.922-4.449 2.661-2.777 4.068-6.735 4.068-11.446 0-5.225-1.375-9.228-4.087-11.9-2.689-2.65-6.693-3.993-11.9-3.993" class="cls-1" data-name="Path 19320" transform="translate(-82.27 -.942)"/>
    <path id="Path_19321" d="M284.895 1.627h-18.656a.923.923 0 0 0-.922.921V32.5a.923.923 0 0 0 .922.922h18.656a.923.923 0 0 0 .921-.922v-3.512a.922.922 0 0 0-.921-.921H271.6c-.429 0-.549-.24-.549-.7v-6.678c0-.4 0-.751.405-.751h9.7a.922.922 0 0 0 .921-.921v-3.508a.922.922 0 0 0-.921-.921h-9.6c-.43 0-.506-.173-.506-.548V7.995c0-.345-.086-1.017.449-1.017h13.393a.922.922 0 0 0 .921-.921V2.548a.922.922 0 0 0-.921-.921" class="cls-1" data-name="Path 19321" transform="translate(-108.455 -.942)"/>
    <path id="Path_19322" d="M340.387 11.349c0 3.026-2.039 4.832-5.453 4.832h-3.613c-.716 0-.716-.586-.716-1.19V8.225c0-.518 0-1.247.694-1.247h3.635c2.488 0 5.453.758 5.453 4.371m.179 8.815a9.682 9.682 0 0 0 5.557-8.815c0-5.906-4.392-9.722-11.189-9.722h-9.144a.922.922 0 0 0-.921.921V32.5a.923.923 0 0 0 .921.922h3.893a.923.923 0 0 0 .921-.922v-9.739c0-.46 0-1.186.608-1.186h2.7a8.109 8.109 0 0 1 5.677 6.272 25.6 25.6 0 0 1 .342 3.993c0 .183-.006.36 0 .548a.985.985 0 0 0 .253.776.861.861 0 0 0 .659.254h3.776a.959.959 0 0 0 .682-.286.813.813 0 0 0 .237-.585l-.008-.318c-.078-3.418.293-8.248-4.961-12.065" class="cls-1" data-name="Path 19322" transform="translate(-132.702 -.942)"/>
</svg>
