<svg xmlns="http://www.w3.org/2000/svg" width="62.034" height="25.378" viewBox="0 0 62.034 25.378"><defs><style>.a{fill:#666ee8;}</style></defs><path class="a" d="M61.838,29.663c-1.25,0-1.119,1.536-1.171,3.176h2.082c0-1.848,0-3.176-.911-3.176Zm-1.171,5.857c0,1.483.729,1.77,1.952,1.77a24.82,24.82,0,0,0,4.034-.547v3.592a13.437,13.437,0,0,1-4.034.7c-3.1,0-6.872-.494-6.872-7.106,0-5.831,2.967-7.21,6.091-7.21,3.2,0,5.518,1.64,5.518,7.158v1.64H60.667Zm-12.21-5.154a3.18,3.18,0,0,0-1.171.417v6.663a3.41,3.41,0,0,0,.833.13c.859,0,1.38-.729,1.38-3.774,0-3.1-.235-3.436-1.042-3.436Zm.573,10.672a8.117,8.117,0,0,1-1.744-.286v4.972H42.34V26.982h4.008l.729.859a4.473,4.473,0,0,1,2.941-1.119c2.03,0,4.425.573,4.425,7.08,0,7.132-3.592,7.236-5.414,7.236ZM37.784,25.29a2.473,2.473,0,1,1,2.447-2.473,2.449,2.449,0,0,1-2.447,2.473ZM35.311,40.777v-13.8h4.946v13.8ZM32.317,30.86a3.234,3.234,0,0,0-1.64.469v9.448H25.732v-13.8h3.93l.729,1.327A2.282,2.282,0,0,1,32.6,26.721a3.4,3.4,0,0,1,1.535.286V31.12A7.319,7.319,0,0,0,32.317,30.86Zm-9.4,6.429c.312,0,1.406-.156,1.77-.208v3.514a18.716,18.716,0,0,1-3.514.443c-1.406,0-4.034-.156-4.034-3.982V30.131H15.319v-3.15h1.822l.625-3.123,4.321-1.041v4.165h2.6l-.651,3.15H22.087V36.17c0,.937.286,1.119.833,1.119ZM10.138,30.964c0,.547.365.729,1.223,1.119l.521.234A4.111,4.111,0,0,1,14.8,36.352c0,4.165-3.1,4.685-5.31,4.685a14.279,14.279,0,0,1-3.956-.65V36.821a17.352,17.352,0,0,0,3.1.6c.755,0,1.328-.1,1.328-.781,0-.521-.364-.755-1.171-1.119l-.625-.286a4.16,4.16,0,0,1-2.837-4.008c0-3.7,2.889-4.5,5.31-4.5a9.892,9.892,0,0,1,3.644.651v3.462a12.834,12.834,0,0,0-3.1-.547c-.6,0-1.041.156-1.041.676Z" transform="translate(-5.322 -20.344)"/></svg>