<svg xmlns="http://www.w3.org/2000/svg" width="49.543" height="20.615" viewBox="0 0 49.543 20.615"><defs><style>.a{fill:#fff;}</style></defs><path class="a" d="M3.482,8.078c0-.537.44-.743,1.17-.743a7.676,7.676,0,0,1,3.413.881V4.982a9.076,9.076,0,0,0-3.413-.633C1.858,4.349,0,5.808,0,8.243c0,3.8,5.23,3.193,5.23,4.83,0,.633-.55.839-1.321.839a8.566,8.566,0,0,1-3.757-1.1v3.275a9.54,9.54,0,0,0,3.757.784c2.862,0,4.83-1.417,4.83-3.881C8.725,8.89,3.482,9.62,3.482,8.078Zm9.3-6.482-3.358.716L9.413,13.335a3.458,3.458,0,0,0,3.564,3.537,5.315,5.315,0,0,0,2.408-.454V13.624c-.44.179-2.615.812-2.615-1.225V7.514h2.615V4.583H12.771Zm6.881,4-.22-1.018H16.473V16.624h3.44V8.464a2.427,2.427,0,0,1,2.615-.716V4.583A2.336,2.336,0,0,0,19.666,5.6Zm3.7-1.018h3.454V16.624H23.368Zm0-1.046,3.454-.743V0L23.368.729Zm10.638.812a3.888,3.888,0,0,0-2.7,1.073l-.179-.853H28.1V20.615l3.44-.729.014-3.895a3.876,3.876,0,0,0,2.436.867c2.463,0,4.707-1.982,4.707-6.344C38.685,6.523,36.414,4.349,34.006,4.349Zm-.826,9.482a2.057,2.057,0,0,1-1.624-.647l-.014-5.106A2.048,2.048,0,0,1,33.18,7.4c1.252,0,2.119,1.4,2.119,3.207C35.3,12.455,34.446,13.831,33.18,13.831Zm16.363-3.179c0-3.523-1.706-6.3-4.968-6.3s-5.257,2.78-5.257,6.275c0,4.142,2.34,6.234,5.7,6.234a7.673,7.673,0,0,0,3.812-.895V13.211a7.308,7.308,0,0,1-3.372.757c-1.335,0-2.518-.468-2.67-2.092h6.73C49.515,11.7,49.543,10.982,49.543,10.652Zm-6.8-1.307c0-1.555.95-2.2,1.817-2.2.839,0,1.734.647,1.734,2.2Z" transform="translate(0)"/></svg>