<svg xmlns="http://www.w3.org/2000/svg" width="145" height="145.06" viewBox="0 0 145 145.06">
    <defs>
        <style>
            .prefix__cls-3{fill:#385cf8}.prefix__cls-4{fill:#fff}
        </style>
    </defs>
    <g id="prefix__subscription-icon" transform="translate(-377.24 -226.656)">
        <circle id="prefix__Ellipse_778" cx="72.5" cy="72.5" r="72.5" data-name="Ellipse 778" transform="translate(377.24 226.656)" style="fill:#c4e6ff"/>
        <path id="prefix__Path_25165" d="M214.272 420.23l1.018 2.942a124.227 124.227 0 0 0 19.862-1.3 113.182 113.182 0 0 0 18.717-4.918v-16.419c-12.297 10.185-28.678 16.001-39.597 19.695z" data-name="Path 25165" transform="translate(225.789 -51.472)" style="fill:#fdba8f"/>
        <g id="prefix__subscribe" transform="translate(390.248 252.9)">
            <g id="prefix__Group_11642" data-name="Group 11642" transform="translate(0 23.68)">
                <path id="prefix__Path_25168" d="M393.918 123.645c0-1.441-1.293-2.013-2.9-2.013h-1.1v4.025a10.507 10.507 0 0 0 1.252.041c1.454.002 2.748-.549 2.748-2.053z" class="prefix__cls-3" data-name="Path 25168" transform="translate(-298.579 -98.688)"/>
                <path id="prefix__Path_25169" d="M393.577 98.861c0-1.081-.825-1.653-2.288-1.653a8.99 8.99 0 0 0-1.377.084v3.326h1.059c1.697.002 2.606-.697 2.606-1.757z" class="prefix__cls-3" data-name="Path 25169" transform="translate(-298.579 -79.985)"/>
                <path id="prefix__Path_25170" d="M5.622 68.317H114.29a5.638 5.638 0 0 0 5.622-5.622V29.3a5.638 5.638 0 0 0-5.622-5.622H5.622A5.638 5.638 0 0 0 0 29.3v33.4a5.638 5.638 0 0 0 5.622 5.617zm94.785-29.659h8.815v2.648h-5.573v2.966h5.251V46.9h-5.254v3.39h5.869v2.65h-9.111zm-12.272.191a25.836 25.836 0 0 1 4.175-.3 7.883 7.883 0 0 1 4.216.806 3.111 3.111 0 0 1 1.717 2.8 3.226 3.226 0 0 1-2.352 3.051v.041a3.576 3.576 0 0 1 2.839 3.517 3.8 3.8 0 0 1-1.482 3.03c-1.04.825-2.775 1.291-5.614 1.291a25.15 25.15 0 0 1-3.5-.212V38.849zm-5.509-.191h3.242v14.281h-3.243zm-12.04.191a28.515 28.515 0 0 1 4.3-.3c2.118 0 3.6.317 4.619 1.122a3.628 3.628 0 0 1 1.312 2.987A3.786 3.786 0 0 1 78.3 46.18v.064a3.61 3.61 0 0 1 1.908 2.668c.444 1.61.89 3.474 1.164 4.025h-3.308a17.955 17.955 0 0 1-1-3.326c-.38-1.78-1-2.266-2.309-2.288h-.976v5.614h-3.2V38.849zm-4.942-.424a8.431 8.431 0 0 1 3.517.635l-.661 2.565a6.978 6.978 0 0 0-2.712-.53c-2.564 0-4.556 1.546-4.556 4.724 0 2.86 1.694 4.66 4.576 4.66a8.052 8.052 0 0 0 2.691-.467l.487 2.522a9.2 9.2 0 0 1-3.665.615c-4.936 0-7.479-3.073-7.479-7.142.004-4.87 3.48-7.581 7.801-7.581zm-14.5 8.517c-2.372-.826-3.92-2.14-3.92-4.216 0-2.436 2.035-4.3 5.4-4.3a8.76 8.76 0 0 1 3.643.72l-.72 2.607a6.8 6.8 0 0 0-2.989-.678c-1.4 0-2.076.635-2.076 1.377 0 .911.806 1.314 2.65 2.013 2.52.931 3.708 2.245 3.708 4.258 0 2.393-1.844 4.428-5.762 4.428a9.36 9.36 0 0 1-4.048-.869l.658-2.67a8.229 8.229 0 0 0 3.581.89c1.482 0 2.267-.615 2.267-1.546.004-.891-.675-1.399-2.391-2.013zm-15.83-8.093a25.836 25.836 0 0 1 4.175-.3 7.883 7.883 0 0 1 4.216.806 3.111 3.111 0 0 1 1.717 2.8 3.226 3.226 0 0 1-2.352 3.051v.041a3.576 3.576 0 0 1 2.839 3.517 3.8 3.8 0 0 1-1.482 3.03c-1.04.825-2.775 1.291-5.614 1.291a25.15 25.15 0 0 1-3.5-.212V38.849zm-13.948-.191h3.24v8.221c0 2.459.931 3.708 2.586 3.708 1.694 0 2.625-1.186 2.625-3.708v-8.221h3.221v8.009c0 4.407-2.226 6.5-5.953 6.5-3.6 0-5.721-1.99-5.721-6.547v-7.962zm-7.336 8.285c-2.371-.826-3.92-2.14-3.92-4.216 0-2.436 2.035-4.3 5.4-4.3a8.76 8.76 0 0 1 3.643.72l-.72 2.607a6.8 6.8 0 0 0-2.989-.678c-1.4 0-2.076.635-2.076 1.377 0 .911.806 1.314 2.65 2.013 2.52.931 3.708 2.245 3.708 4.258 0 2.393-1.842 4.428-5.762 4.428a9.36 9.36 0 0 1-4.048-.869l.658-2.67a8.229 8.229 0 0 0 3.581.89c1.482 0 2.267-.615 2.267-1.546.005-.892-.675-1.4-2.392-2.014z" class="prefix__cls-3" data-name="Path 25170" transform="translate(0 -23.68)"/>
                <path id="prefix__Path_25171" d="M168.081 98.861c0-1.081-.825-1.653-2.288-1.653a8.99 8.99 0 0 0-1.377.084v3.326h1.059c1.696.002 2.606-.697 2.606-1.757z" class="prefix__cls-3" data-name="Path 25171" transform="translate(-125.903 -79.985)"/>
                <path id="prefix__Path_25172" d="M318.828 99.39c0-1.314-.89-1.969-2.374-1.99a8.225 8.225 0 0 0-1.462.1v3.941h1.272c1.61.005 2.564-.801 2.564-2.051z" class="prefix__cls-3" data-name="Path 25172" transform="translate(-241.208 -80.132)"/>
                <path id="prefix__Path_25173" d="M168.414 123.645c0-1.441-1.293-2.013-2.9-2.013h-1.1v4.025a10.507 10.507 0 0 0 1.252.041c1.455.002 2.748-.549 2.748-2.053z" class="prefix__cls-3" data-name="Path 25173" transform="translate(-125.897 -98.688)"/>
            </g>
            <g id="prefix__Group_11643" data-name="Group 11643" transform="translate(9.921 38.428)">
                <path id="prefix__Path_25174" d="M46.591 98.722a8.229 8.229 0 0 1-3.581-.89l-.658 2.67a9.36 9.36 0 0 0 4.048.869c3.92 0 5.762-2.035 5.762-4.428 0-2.013-1.188-3.326-3.708-4.258-1.844-.7-2.65-1.1-2.65-2.013 0-.742.678-1.377 2.076-1.377a6.8 6.8 0 0 1 2.989.678l.72-2.607a8.73 8.73 0 0 0-3.643-.72c-3.369 0-5.4 1.865-5.4 4.3 0 2.076 1.548 3.39 3.92 4.216 1.717.615 2.395 1.122 2.395 2.013-.003.932-.788 1.547-2.27 1.547z" class="prefix__cls-4" data-name="Path 25174" transform="translate(-42.352 -86.646)"/>
                <path id="prefix__Path_25175" d="M96.943 102.138c3.727 0 5.953-2.1 5.953-6.5v-8.014h-3.221v8.221c0 2.522-.931 3.708-2.625 3.708-1.655 0-2.586-1.25-2.586-3.708v-8.221h-3.24v7.966c-.002 4.556 2.116 6.548 5.719 6.548z" class="prefix__cls-4" data-name="Path 25175" transform="translate(-79.776 -87.394)"/>
                <path id="prefix__Path_25176" d="M159.865 100.417a3.8 3.8 0 0 0 1.482-3.03 3.576 3.576 0 0 0-2.839-3.517v-.041a3.227 3.227 0 0 0 2.352-3.051 3.111 3.111 0 0 0-1.717-2.8 7.883 7.883 0 0 0-4.216-.806 25.871 25.871 0 0 0-4.175.3V101.5a24.878 24.878 0 0 0 3.5.212c2.836-.002 4.573-.468 5.613-1.295zm-5.912-10.805a8.99 8.99 0 0 1 1.377-.084c1.462 0 2.288.572 2.288 1.653 0 1.059-.909 1.758-2.607 1.758h-1.059zm0 5.635h1.1c1.608 0 2.9.573 2.9 2.013 0 1.5-1.293 2.056-2.755 2.056a10.507 10.507 0 0 1-1.252-.041v-4.028z" class="prefix__cls-4" data-name="Path 25176" transform="translate(-125.36 -87.05)"/>
                <path id="prefix__Path_25177" d="M205.031 98.722a8.228 8.228 0 0 1-3.581-.89l-.658 2.67a9.36 9.36 0 0 0 4.048.869c3.918 0 5.762-2.035 5.762-4.428 0-2.013-1.188-3.326-3.708-4.258-1.844-.7-2.65-1.1-2.65-2.013 0-.742.678-1.377 2.076-1.377a6.8 6.8 0 0 1 2.989.678l.72-2.607a8.73 8.73 0 0 0-3.643-.72c-3.369 0-5.4 1.865-5.4 4.3 0 2.076 1.548 3.39 3.92 4.216 1.717.615 2.395 1.122 2.395 2.013-.001.932-.788 1.547-2.27 1.547z" class="prefix__cls-4" data-name="Path 25177" transform="translate(-163.679 -86.646)"/>
                <path id="prefix__Path_25178" d="M254.431 101.363a9.2 9.2 0 0 0 3.665-.615l-.487-2.522a8.053 8.053 0 0 1-2.691.467c-2.882 0-4.576-1.8-4.576-4.66 0-3.178 1.99-4.724 4.555-4.724a6.97 6.97 0 0 1 2.712.53l.658-2.564a8.4 8.4 0 0 0-3.517-.635c-4.323 0-7.8 2.712-7.8 7.586.002 4.064 2.545 7.137 7.481 7.137z" class="prefix__cls-4" data-name="Path 25178" transform="translate(-199.026 -86.64)"/>
                <path id="prefix__Path_25179" d="M304.535 95.954h.976c1.314.021 1.928.508 2.309 2.288a18.062 18.062 0 0 0 1 3.326h3.306c-.274-.551-.72-2.415-1.164-4.025a3.6 3.6 0 0 0-1.908-2.668v-.064a3.789 3.789 0 0 0 2.52-3.517 3.625 3.625 0 0 0-1.312-2.987c-1.018-.806-2.5-1.122-4.619-1.122a28.515 28.515 0 0 0-4.3.3v14.09h3.2v-5.621zm0-6.272a8.225 8.225 0 0 1 1.462-.1c1.484.021 2.374.678 2.374 1.99 0 1.25-.954 2.056-2.564 2.056h-1.272v-3.946z" class="prefix__cls-4" data-name="Path 25179" transform="translate(-240.672 -87.057)"/>
                <path id="prefix__Rectangle_2051" d="M0 0H3.242V14.281H0z" class="prefix__cls-4" data-name="Rectangle 2051" transform="translate(72.71 .23)"/>
                <path id="prefix__Path_25180" d="M385.361 100.417a3.8 3.8 0 0 0 1.482-3.03A3.576 3.576 0 0 0 384 93.87v-.041a3.227 3.227 0 0 0 2.352-3.051 3.111 3.111 0 0 0-1.717-2.8 7.883 7.883 0 0 0-4.216-.806 25.871 25.871 0 0 0-4.175.3V101.5a24.879 24.879 0 0 0 3.5.212c2.842-.002 4.579-.468 5.617-1.295zm-5.912-10.805a8.99 8.99 0 0 1 1.377-.084c1.462 0 2.288.572 2.288 1.653 0 1.059-.909 1.758-2.607 1.758h-1.059v-3.327zm0 5.635h1.1c1.608 0 2.9.573 2.9 2.013 0 1.5-1.293 2.056-2.755 2.056a10.508 10.508 0 0 1-1.252-.041z" class="prefix__cls-4" data-name="Path 25180" transform="translate(-298.036 -87.05)"/>
                <path id="prefix__Path_25181" d="M437.759 99.255h-5.869v-3.39h5.254v-2.627h-5.254v-2.966h5.573v-2.648h-8.815v14.281h9.111z" class="prefix__cls-4" data-name="Path 25181" transform="translate(-338.162 -87.394)"/>
            </g>
        </g>
        <path id="prefix__Path_25140" d="M213.141 315.984a4.982 4.982 0 0 0-5.818 4.915 4.981 4.981 0 1 0-9.963 0 4.981 4.981 0 1 0-9.963 0v-19.66a5.169 5.169 0 0 0-4.145-5.181 4.982 4.982 0 0 0-5.818 4.915v34.871l-10.384-6.227a4.392 4.392 0 0 0-4.235-.164l-.39.2a4.4 4.4 0 0 0-.586 7.509l15.595 13.909a137.646 137.646 0 0 0 21.891-1.267 81.146 81.146 0 0 0 17.96-5.162v-23.477a5.169 5.169 0 0 0-4.144-5.181zm0 0" data-name="Path 25140" transform="translate(262.371 20.527)" style="fill:#fecbaa"/>
    </g>
</svg>
