<svg xmlns="http://www.w3.org/2000/svg" xmlns:xlink="http://www.w3.org/1999/xlink" width="36.844" height="35.876" viewBox="0 0 36.844 35.876">
  <defs>
    <filter id="Union_67" x="0" y="3.186" width="36.844" height="32.691" filterUnits="userSpaceOnUse">
      <feOffset dy="3" input="SourceAlpha"/>
      <feGaussianBlur stdDeviation="3" result="blur"/>
      <feFlood flood-opacity="0.161"/>
      <feComposite operator="in" in2="blur"/>
      <feComposite in="SourceGraphic"/>
    </filter>
  </defs>
  <g id="success-icon" transform="translate(2.223)">
    <ellipse id="Ellipse_1151" data-name="Ellipse 1151" cx="16" cy="16.205" rx="16" ry="16.205" fill="#32d7be"/>
    <g transform="matrix(1, 0, 0, 1, -2.22, 0)" filter="url(#Union_67)">
      <path id="Union_67-2" data-name="Union 67" d="M6.155,14.215.469,8.394a1.728,1.728,0,0,1,0-2.368l1.3-1.32a1.665,1.665,0,0,1,2.329,0L7.311,8,14.746.48a1.651,1.651,0,0,1,2.329,0l1.3,1.318a1.717,1.717,0,0,1,0,2.363l-8.417,8.52a1.468,1.468,0,0,1-.179.216L8.484,14.215a1.662,1.662,0,0,1-2.329,0Z" transform="translate(9 9.19)" fill="#fff"/>
    </g>
  </g>
</svg>
