<svg xmlns="http://www.w3.org/2000/svg" width="141.36" height="177.958" viewBox="0 0 141.36 177.958">
    <defs>
        <style>
            .cls-1{fill:#0081ec}.cls-2{fill:#fff}.cls-3{fill:#8b79d0}.cls-4{fill:#01cc9d}.cls-5{fill:#02c195}.cls-6{fill:#ddf0ff}.cls-7,.cls-8{stroke:none}.cls-8{fill:#01b188}
        </style>
    </defs>
    <g id="success-chekin" transform="translate(-1220.468 -459.456)">
        <g id="Group_4725" data-name="Group 4725" transform="translate(1220.468 459.456)">
            <g id="Group_1084" data-name="Group 1084" transform="translate(0 20.38)">
                <g id="Group_1081" data-name="Group 1081">
                    <g id="Group_1080" data-name="Group 1080">
                        <path id="Path_648" d="M106.822 18.209l8.4 2.43v32.506a79.658 79.658 0 0 1-51.247 74.416 79.658 79.658 0 0 1-51.25-74.416V20.639l8.4-2.43a154.028 154.028 0 0 1 85.697 0z" class="cls-1" data-name="Path 648" transform="translate(-12.725 -12.129)"/>
                    </g>
                </g>
                <g id="Group_1083" data-name="Group 1083" transform="translate(11.767 11.968)">
                    <g id="Group_1082" data-name="Group 1082">
                        <path id="Path_649" d="M88.375 20.022l6.467 1.871v25.04a61.365 61.365 0 0 1-39.48 57.33 61.365 61.365 0 0 1-39.48-57.33v-25.04l6.467-1.871a118.718 118.718 0 0 1 66.026 0z" class="cls-2" data-name="Path 649" transform="translate(-15.882 -15.34)"/>
                    </g>
                </g>
            </g>
            <g id="Group_1087" data-name="Group 1087" transform="translate(12.044)">
                <g id="Group_1086" data-name="Group 1086">
                    <g id="Group_1085" data-name="Group 1085">
                        <path id="Path_650" d="M52.821 110.019c-.1 0-.2 0-.3-.011a3.965 3.965 0 0 1-3.064-1.852l-31.93-51.017a3.97 3.97 0 0 1 5.267-5.591L52.486 67.77 131.61 8.516a3.968 3.968 0 0 1 5.308 5.852l-81.089 94.268a3.97 3.97 0 0 1-3.008 1.383z" class="cls-3" data-name="Path 650" transform="translate(-13.323 -3.756)"/>
                        <path id="Path_651" d="M136.62 14.6l-.015.015-81.151 94.339-31.932-51.016 31.932 17.444L136.62 14.6m0-7.935a7.91 7.91 0 0 0-4.756 1.584L54.783 65.97l-27.456-15a7.931 7.931 0 0 0-9.579 1.521c-2.479 2.628-2.2 6.225-.291 9.285l31.269 51.389a7.944 7.944 0 0 0 6.128 3.7c.2.019.4.026.6.026a7.949 7.949 0 0 0 6.02-2.762l81.058-94.238a7.937 7.937 0 0 0-5.915-13.232zm0 15.875z" class="cls-2" data-name="Path 651" transform="translate(-15.956 -6.661)"/>
                    </g>
                </g>
            </g>
            <g id="Group_1089" data-name="Group 1089" transform="translate(19.611 7.937)">
                <g id="Group_1088" data-name="Group 1088">
                    <path id="Path_652" d="M17.986 52.129l31.931 51.017L131.07 8.8l.013-.013-81.166 60.787z" class="cls-1" data-name="Path 652" transform="translate(-17.986 -8.79)"/>
                </g>
            </g>
        </g>
        <g id="checked" transform="translate(1274.722 550.308)">
            <g id="Path_19280" class="cls-4" data-name="Path 19280">
                <path d="M40.712 84.106a42.914 42.914 0 0 1-16.942-3.468A44.008 44.008 0 0 1 9.876 71.23 44.008 44.008 0 0 1 .468 57.337 42.915 42.915 0 0 1-3 40.395 42.575 42.575 0 0 1 .47 23.496a43.434 43.434 0 0 1 9.418-13.79A43.87 43.87 0 0 1 23.784.413 43.413 43.413 0 0 1 40.712-3 43.069 43.069 0 0 1 57.596.415a43.294 43.294 0 0 1 13.792 9.303 43.294 43.294 0 0 1 9.303 13.792 43.069 43.069 0 0 1 3.415 16.885 43.413 43.413 0 0 1-3.412 16.927A43.87 43.87 0 0 1 71.4 71.218a43.434 43.434 0 0 1-13.79 9.418 42.575 42.575 0 0 1-16.898 3.47z" class="cls-7"/>
                <path d="M40.712 0C18.423 0 0 18.106 0 40.395c0 22.288 18.423 40.711 40.712 40.711 22.288 0 40.394-18.423 40.394-40.711C81.106 18.106 63 0 40.712 0m0-6c25.582 0 46.394 20.813 46.394 46.395 0 25.757-20.812 46.711-46.394 46.711C14.955 87.106-6 66.152-6 40.395-6 14.813 14.955-6 40.712-6z" class="cls-8"/>
            </g>
            <path id="Path_19281" d="M297.395 40.395c0 22.288-18.106 40.712-40.395 40.712V0a40.422 40.422 0 0 1 40.395 40.395z" class="cls-5" data-name="Path 19281" transform="translate(-216.288)"/>
            <path id="Path_19282" d="M146.48 146.094l-23.524 23.572-1.663 1.663a4.79 4.79 0 0 1-6.748 0l-15.429-15.16a4.732 4.732 0 0 1 0-6.7 4.916 4.916 0 0 1 6.7 0l12.1 11.738 5.037-5.037 16.823-16.776a4.915 4.915 0 0 1 6.7 0 4.732 4.732 0 0 1 .004 6.7z" class="cls-2" data-name="Path 19282" transform="translate(-82.244 -116.202)"/>
            <path id="Path_19283" d="M280.524 146.094L257 169.666v-13.5l16.823-16.776a4.915 4.915 0 0 1 6.7 0 4.732 4.732 0 0 1 .001 6.704z" class="cls-6" data-name="Path 19283" transform="translate(-216.288 -116.202)"/>
        </g>
    </g>
</svg>
