<svg xmlns="http://www.w3.org/2000/svg" xmlns:xlink="http://www.w3.org/1999/xlink" width="21" height="21" viewBox="0 0 21 21"><defs><style>.a,.c{fill:#9696b9;}.a{opacity:0.005;}.b{clip-path:url(#a);}</style><clipPath id="a"><rect class="a" width="21" height="21" transform="translate(11.332 5)"/></clipPath></defs><g transform="translate(-11.332 -5)"><g class="b"><g transform="translate(11.332 5)"><path class="c" d="M20.82,16.428l-1.485-1.444,0-.052a8.98,8.98,0,0,0-2.065-5.438V10.5a1.848,1.848,0,0,1-1.846,1.846,2.443,2.443,0,0,1-1.23-.331v.126a3.049,3.049,0,0,1-.049,4.287l-1.018,1.02A10.31,10.31,0,0,1,11.8,18.562a8.965,8.965,0,0,0,3.066.654l1.563,1.6a.615.615,0,0,0,.87,0L20.82,17.3A.615.615,0,0,0,20.82,16.428Zm0,0"/><path class="c" d="M13.037,15.793a2.209,2.209,0,0,1-1,.244A2.147,2.147,0,0,1,10.5,15.39a2.152,2.152,0,0,1-3.691-1.506v-.515a2.153,2.153,0,0,1-3.076-1.946V9.531c0-.013,0-.026,0-.039a8.98,8.98,0,0,0-2.066,5.44L.18,16.428a.615.615,0,0,0,0,.87L3.7,20.82a.615.615,0,0,0,.87,0l1.563-1.6a8.958,8.958,0,0,0,6.118-2.637Zm0,0"/><path class="c" d="M5.886,12.346a.923.923,0,0,0,.923-.923V9.2A.606.606,0,0,1,7.414,8.6h.019a.606.606,0,0,1,.606.606v4.682a.923.923,0,0,0,1.846,0V9.212a.618.618,0,0,1,1.23,0v4.672a.923.923,0,0,0,.923.923c.544,0,.923-.331.923-1.23V7.981a.618.618,0,0,1,1.23,0v1.9a1.23,1.23,0,0,0,1.23,1.23.615.615,0,0,0,.615-.615V8.89a8.99,8.99,0,0,0-2.425-6.153L13.576.615A.615.615,0,0,0,12.961,0H8.039a.615.615,0,0,0-.615.615V2.867A9.1,9.1,0,0,0,4.963,9.531v1.892A.923.923,0,0,0,5.886,12.346Zm0,0"/></g></g></g></svg>