<svg xmlns="http://www.w3.org/2000/svg" width="26.957" height="37.485" viewBox="0 0 26.957 37.485"><defs><style>.a{fill:#f8c7be;}.b{fill:#ffdcd5;}.c{fill:#161643;}</style></defs><g transform="translate(-0.5)"><path class="a" d="M10.539,10.587l.4-8.862h5.748l1.059,8.862Z"/><path class="b" d="M-19315.434-16047.429s-1.465,3.013-1.092,8.976,3.539,15.441,3.539,15.441h14.934l4.318-9.083.783-15.334Z" transform="translate(19318.744 16058.743)"/><path class="c" d="M26.163,20.213a4.313,4.313,0,0,0-.933-2.683A4.333,4.333,0,0,0,23.124,9.41h-4.43V4.627a4.627,4.627,0,0,0-9.254,0V9.41H6.3a4.624,4.624,0,0,0-3.88,7.144,4.63,4.63,0,0,0,0,7.513A4.624,4.624,0,0,0,3.6,30.341a4.624,4.624,0,0,0,3.88,7.144H18.754a4.332,4.332,0,0,0,3.74-6.52,4.331,4.331,0,0,0,2.217-7.517A4.323,4.323,0,0,0,26.163,20.213ZM11.636,4.627a2.431,2.431,0,0,1,4.861,0V9.41H11.636ZM23.124,15.88H14.872a1.1,1.1,0,1,0,0,2.2H21.83a2.137,2.137,0,0,1,0,4.273H14.872a1.1,1.1,0,1,0,0,2.2H21.83a2.137,2.137,0,0,1,0,4.273H16.166a1.1,1.1,0,1,0,0,2.2h2.588a2.137,2.137,0,1,1,0,4.273H7.479a2.43,2.43,0,0,1-1.424-4.4,1.1,1.1,0,0,0-.368-1.952,2.431,2.431,0,0,1-.808-4.322,1.1,1.1,0,0,0-.368-1.952,2.432,2.432,0,0,1,0-4.7,1.1,1.1,0,0,0,.368-1.952,2.43,2.43,0,0,1,1.424-4.4H23.124a2.136,2.136,0,1,1,0,4.273Zm0,0"/></g></svg>