<svg xmlns="http://www.w3.org/2000/svg" xmlns:xlink="http://www.w3.org/1999/xlink" width="96.949" height="68.826" viewBox="0 0 96.949 68.826"><defs><style>.a{fill:#c1ccfd;}.b{fill:#b2c0ff;}.c{fill:#161643;}.d{fill:#f2eaea;}.e{fill:#ccd5ff;}.f{fill:#f5f5f5;}.g{fill:#385cf8;}.h{fill:#2148ff;}.i{fill:#35e5bc;}.j{fill:#24d8ae;}.k{fill:#53f5cf;}.l{filter:url(#a);}</style><filter id="a" x="0" y="0" width="96.949" height="68.826" filterUnits="userSpaceOnUse"><feOffset dy="4" input="SourceAlpha"/><feGaussianBlur stdDeviation="2.5" result="b"/><feFlood flood-opacity="0.161"/><feComposite operator="in" in2="b"/><feComposite in="SourceGraphic"/></filter></defs><g transform="translate(-431.188 -178.746)"><g transform="translate(438.688 97.061)"><g class="l" transform="matrix(1, 0, 0, 1, -7.5, 81.69)"><path class="a" d="M21932.662,21052.764a3.694,3.694,0,0,1-3.689-3.7v-1.9a.722.722,0,0,1,.723-.723h10.221a10.944,10.944,0,0,1-10.943-10.943v-5.822a1.48,1.48,0,0,1,1.48-1.48h5.822a10.944,10.944,0,0,1,10.943,10.943v7.3h62.979a.718.718,0,0,1,.719.723v1.9a3.694,3.694,0,0,1-3.689,3.7Zm26.676-6.324a3.7,3.7,0,0,1-2.873-1.363,7.664,7.664,0,0,1-4.375,1.363h-4.871v-6.01a7.658,7.658,0,0,1,1.484-4.545,16.618,16.618,0,0,1-6.164-12.934v-15.639a2.108,2.108,0,0,1,2.111-2.1h33.939v-2.277a3.993,3.993,0,1,1,7.986,0v2.277h8.508a2.111,2.111,0,0,1,2.109,2.1v3.98a9.3,9.3,0,1,1-.574,16.006,16.692,16.692,0,0,1-8.2,10.322h0l-.186.1-.02.01-.17.088-.033.016-.162.082a.254.254,0,0,0-.033.016l-.158.076-.043.02-.168.078-.025.012c-.2.09-.4.178-.6.26l-.043.018c-.053.021-.105.043-.158.063l-.057.023-.141.053-.07.027-.135.049c-.025.008-.049.018-.072.025l-.125.045-.086.029-.121.041-.082.027-.131.041-.074.023-.141.045-.068.02c-.049.016-.1.029-.148.043-.021.006-.041.014-.061.02-.068.018-.137.037-.205.057-.025.006-.051.012-.074.02l-.137.035-.088.021-.123.031-.094.021c-.039.01-.078.02-.117.027l-.006,0v3.555a3.691,3.691,0,0,1-1.516,2.984l0,0-.051.039a.177.177,0,0,0-.031.021l-.055.035-.045.029a.119.119,0,0,1-.02.014c-.02.012-.039.025-.061.037l-.006,0a3.679,3.679,0,0,1-1.355.492h0l-.086.012-.012,0-.08.01h-.01c-.029,0-.061.006-.09.008a.007.007,0,0,0-.006,0l-.078,0-.027,0-.062,0h-.025c-.029,0-.059,0-.086,0Zm37.945-26.975a4.344,4.344,0,1,0,4.346-4.342A4.346,4.346,0,0,0,21997.283,21019.465Zm-13.182-14.256v-2.277a1.519,1.519,0,0,0-3.037,0v2.277Z" transform="translate(-21921.47 -20995.44)"/></g></g><g transform="translate(438.688 97.061)"><path class="a" d="M190.138,295.891a3.7,3.7,0,0,1-3.7,3.7H165.216a3.7,3.7,0,0,1-3.7-3.7v-10.8h28.625Z" transform="translate(-134.853 -166.903)"/><path class="b" d="M171.473,297.187a3.7,3.7,0,0,1-3.7-3.7v-8.4h-6.255v10.8a3.7,3.7,0,0,0,3.7,3.7h21.218a3.708,3.708,0,0,0,3.471-2.409Z" transform="translate(-134.854 -166.903)"/><g transform="translate(0 85.187)"><path class="c" d="M78.254,379.295H3.692A3.692,3.692,0,0,1,0,375.6v-1.9a.723.723,0,0,1,.723-.723h80.5a.723.723,0,0,1,.723.723v1.9A3.691,3.691,0,0,1,78.254,379.295Z" transform="translate(0 -325.472)"/><path class="d" d="M336.087,107.377l-1.77.279-.362.943v9.361a1.238,1.238,0,1,0,2.476,0v-9.534Z" transform="translate(-278.831 -103.714)"/><g transform="translate(63.354 11.233)"><path class="a" d="M393.108,153.238a9.3,9.3,0,1,1-9.3,9.3A9.3,9.3,0,0,1,393.108,153.238Zm4.343,9.3a4.344,4.344,0,1,0-4.343,4.343A4.349,4.349,0,0,0,397.451,162.535Z" transform="translate(-383.812 -153.238)"/></g><g transform="translate(13.565 6.271)"><path class="e" d="M136.832,125.284v15.637a16.649,16.649,0,0,1-16.648,16.648H98.83a16.649,16.649,0,0,1-16.648-16.648V125.284a2.107,2.107,0,0,1,2.108-2.106h50.434A2.107,2.107,0,0,1,136.832,125.284Z" transform="translate(-82.182 -123.178)"/></g><path class="a" d="M127.843,152.5H106.49a16.649,16.649,0,0,1-16.648-16.648V123.178H84.29a2.107,2.107,0,0,0-2.108,2.106v15.637a16.649,16.649,0,0,0,16.648,16.648h21.353a16.606,16.606,0,0,0,12.659-5.837A16.627,16.627,0,0,1,127.843,152.5Z" transform="translate(-68.617 -116.907)"/><path class="f" d="M304.558,85.187a4,4,0,0,0-3.994,3.994V110.9a1.238,1.238,0,1,0,2.476,0V89.181a1.518,1.518,0,1,1,3.036,0v.892l2.476-.173v-.719a4,4,0,0,0-3.994-3.994Z" transform="translate(-250.951 -85.187)"/><path class="g" d="M278.289,198.9l-3.9-1.96a3.027,3.027,0,0,0-2.719,0l-3.9,1.96a3.027,3.027,0,0,0-1.667,2.7v8.111a3.027,3.027,0,0,0,3.027,3.026h7.8a3.026,3.026,0,0,0,3.026-3.026V201.6A3.027,3.027,0,0,0,278.289,198.9Z" transform="translate(-222.179 -178.22)"/><path class="h" d="M272.045,211.712a2.848,2.848,0,0,1-2.9-2.789v-7.474a2.779,2.779,0,0,1,1.6-2.492l3.741-1.806c.06-.029.122-.051.183-.076l-.276-.139a3.027,3.027,0,0,0-2.719,0l-3.9,1.96a3.027,3.027,0,0,0-1.667,2.7v8.111a3.027,3.027,0,0,0,3.027,3.026h7.8a3.016,3.016,0,0,0,2.267-1.027Z" transform="translate(-222.179 -178.221)"/><g transform="translate(49.613 23.305)"><path class="e" d="M301.8,230.022a1.238,1.238,0,0,1-1.238-1.238v-1.173a1.238,1.238,0,1,1,2.476,0v1.173A1.238,1.238,0,0,1,301.8,230.022Z" transform="translate(-300.564 -226.373)"/></g><path class="i" d="M18.243,280.7h-7.3A10.943,10.943,0,0,1,0,269.753v-5.821a1.479,1.479,0,0,1,1.479-1.479H7.3A10.943,10.943,0,0,1,18.244,273.4v7.3Z" transform="translate(0 -233.193)"/><path class="j" d="M15.387,279.653A10.943,10.943,0,0,1,4.444,268.71v-5.821a1.482,1.482,0,0,1,.066-.436H1.479A1.479,1.479,0,0,0,0,263.932v5.821A10.943,10.943,0,0,0,10.943,280.7h7.3v-1.043Z" transform="translate(0 -233.193)"/><path class="k" d="M115.394,303.641h-4.872v-6.013a7.694,7.694,0,0,1,7.695-7.695h3.924a.948.948,0,0,1,.948.948v5.065A7.694,7.694,0,0,1,115.394,303.641Z" transform="translate(-92.279 -256.137)"/><path class="i" d="M112.656,299.94a7.694,7.694,0,0,1,7.695-7.695h2.738V290.88a.948.948,0,0,0-.948-.948h-3.924a7.694,7.694,0,0,0-7.695,7.695v6.013h2.134Z" transform="translate(-92.279 -256.136)"/></g></g></g></svg>