<svg xmlns="http://www.w3.org/2000/svg" width="21.002" height="21.002" viewBox="0 0 21.002 21.002"><defs><style>.a,.b{fill:#9696b9;}.a{opacity:0.005;}</style></defs><g transform="translate(-11.332 -5)"><rect class="a" width="21" height="21" transform="translate(11.332 5)"/><path class="b" d="M24257.334,22934a10,10,0,1,1,7.07-2.928A9.943,9.943,0,0,1,24257.334,22934Zm-1.018-9.129a3.815,3.815,0,0,0-3.812,3.813v.262a2.286,2.286,0,0,0,2.283,2.285h5.262a2.284,2.284,0,0,0,2.279-2.285v-.262a3.815,3.815,0,0,0-3.812-3.812Zm4.609-.225h0a4.736,4.736,0,0,1,2.291,4.037l0,.111a4.289,4.289,0,0,1-.027.584,1.747,1.747,0,0,0,1.365-1.713v-.182a2.842,2.842,0,0,0-2.838-2.838Zm-7.758,0a2.842,2.842,0,0,0-2.838,2.838v.182a1.761,1.761,0,0,0,1.309,1.7,4.171,4.171,0,0,1-.025-.562l0-.119a4.731,4.731,0,0,1,2.295-4.037Zm4.166-6.65a3,3,0,1,0,3,3A3.006,3.006,0,0,0,24257.334,22918Zm3.033.777v0a2.051,2.051,0,0,0,.133.316l.018.039a4.8,4.8,0,0,1,.592,2.373,2.315,2.315,0,0,1-.816,1.912c-.1.107-.229.254-.377.426a3.414,3.414,0,0,0,1.029.129,2.224,2.224,0,0,0,1.449-.738,2.683,2.683,0,0,0,.8-1.729c.049-1.32-1.549-2.658-2.824-2.729Zm-6.207,0v0a3.255,3.255,0,0,0-1.918.895,2.5,2.5,0,0,0-.908,1.834,2.676,2.676,0,0,0,2.248,2.467,3.383,3.383,0,0,0,1.023-.129c-.117-.135-.223-.252-.314-.355l-.061-.07a2.29,2.29,0,0,1-.812-1.912,4.8,4.8,0,0,1,.592-2.373l.018-.039a2.353,2.353,0,0,0,.135-.316Z" transform="translate(-24235 -22908)"/></g></svg>