<svg xmlns="http://www.w3.org/2000/svg" width="21" height="21" viewBox="0 0 21 21"><defs><style>.a,.b{fill:#9696b9;}.a{opacity:0.005;}</style></defs><g transform="translate(-11.332 -5)"><rect class="a" width="21" height="21" transform="translate(11.332 5)"/><path class="b" d="M24261.145,22932.234h-7.1a3.083,3.083,0,0,1-3.076-3.082v-.354a5.15,5.15,0,0,1,5.146-5.141h2.959a5.15,5.15,0,0,1,5.146,5.141v.354A3.085,3.085,0,0,1,24261.145,22932.234Zm4.238-2.5v0a4.388,4.388,0,0,0,.037-.727l0-.01v-.2a6.331,6.331,0,0,0-3.086-5.445h1.064a3.836,3.836,0,0,1,3.832,3.832v.25a2.377,2.377,0,0,1-1.844,2.3Zm-15.574-.018,0,0a2.358,2.358,0,0,1-1.764-2.281v-.25a3.836,3.836,0,0,1,3.832-3.832h.992a6.338,6.338,0,0,0-3.094,5.445v.127a5.855,5.855,0,0,0,.035.791Zm7.521-6.717a4,4,0,1,1,4-4A4.006,4.006,0,0,1,24257.33,22923Zm5.025-.555a4.671,4.671,0,0,1-1.383-.172c.186-.215.346-.395.488-.553l.023-.025a3.119,3.119,0,0,0,1.09-2.576,6.492,6.492,0,0,0-.8-3.209l0-.008a3.053,3.053,0,0,1-.2-.461,4.352,4.352,0,0,1,2.584,1.205,3.337,3.337,0,0,1,1.223,2.473,3.614,3.614,0,0,1-1.076,2.332A2.978,2.978,0,0,1,24262.355,22922.447Zm-9.928,0a2.986,2.986,0,0,1-1.953-.994,3.614,3.614,0,0,1-1.08-2.332,3.35,3.35,0,0,1,1.227-2.471,4.39,4.39,0,0,1,2.586-1.207,3.2,3.2,0,0,1-.2.467l0,.01a6.539,6.539,0,0,0-.8,3.2,3.1,3.1,0,0,0,1.084,2.561l0,.006c.182.2.348.389.52.588A4.83,4.83,0,0,1,24252.428,22922.447Z" transform="translate(-24235 -22908)"/></g></svg>