<svg xmlns="http://www.w3.org/2000/svg" xmlns:xlink="http://www.w3.org/1999/xlink" width="42" height="36" viewBox="0 0 42 36"><defs><style>.a{fill:#fff;}.b{filter:url(#a);}</style><filter id="a" x="0" y="0" width="42" height="36" filterUnits="userSpaceOnUse"><feOffset dy="3" input="SourceAlpha"/><feGaussianBlur stdDeviation="3" result="b"/><feFlood flood-opacity="0.161"/><feComposite operator="in" in2="b"/><feComposite in="SourceGraphic"/></filter></defs><g transform="translate(9 6)"><g transform="translate(0 0)"><g class="b" transform="matrix(1, 0, 0, 1, -9, -6)"><path class="a" d="M7.839,17.415.6,10.282a2.054,2.054,0,0,1,0-2.9L2.252,5.768a2.169,2.169,0,0,1,2.964,0L9.311,9.8,18.783.585a2.171,2.171,0,0,1,2.964,0L23.4,2.2a2.052,2.052,0,0,1,0,2.9L12.689,15.523a1.952,1.952,0,0,1-.234.275L10.8,17.415a2.169,2.169,0,0,1-2.964,0Z" transform="translate(9 6)"/></g></g></g></svg>