<svg xmlns="http://www.w3.org/2000/svg" width="24.558" height="24.552" viewBox="0 0 24.558 24.552"><defs><style>.a{fill:#002cfa;stroke:#002cfa;stroke-width:0.3px;}</style></defs><g transform="translate(0.152 0.15)"><g transform="translate(0.004 0)"><path class="a" d="M20.471,13.774a4.066,4.066,0,0,0,.351-1.615,3.389,3.389,0,0,0-.618-1.95,2.97,2.97,0,0,0-.595-3.118h.384a1.516,1.516,0,1,0,0-3.031H18.578V3.14A2.494,2.494,0,0,0,16.087.649H12.543A2.494,2.494,0,0,0,10.052,3.14v.92H8.625a1.507,1.507,0,0,0-.578.115A.471.471,0,0,0,8,4.035L7.081,2.368,8,.7A.474.474,0,0,0,7.583,0H1.9a.474.474,0,0,0-.474.474V7.541c-.038.011-.075.023-.113.037A1.992,1.992,0,0,0,.125,10.129l0,.006L2.252,15.74A2.842,2.842,0,0,0,4.6,17.563l2.984.338v5.877a.474.474,0,0,0,.474.474H23.782a.474.474,0,0,0,.474-.474V19.186a5.771,5.771,0,0,0-3.785-5.412ZM9.04,13.425a3.13,3.13,0,0,1-.285-1.266,2.441,2.441,0,0,1,.581-1.579.474.474,0,0,0,.059-.526,2,2,0,0,1-.228-.935,2.03,2.03,0,0,1,1.069-1.787v1.2a4.077,4.077,0,0,0,2.185,3.608v1.283Zm8.395-6.334h0V8.534a3.126,3.126,0,0,1-6.252,0V7.091h6.252Zm-2.181,6.748-.944.944-.941-.941V12.5a4.048,4.048,0,0,0,1.886,0Zm-2.7.533,1.081,1.081L12.35,16.743l-1.53-2.37Zm3.5,0H17.8l-1.529,2.37-1.289-1.289Zm2.717.008a4.782,4.782,0,0,1,1.311.263V23.3H18.777Zm.767-.86a5.769,5.769,0,0,0-1.049-.1H16.2V12.14a4.077,4.077,0,0,0,2.182-3.606V7.327A2.03,2.03,0,0,1,19.463,9.12a2,2,0,0,1-.228.935.474.474,0,0,0,.059.526,2.441,2.441,0,0,1,.581,1.579,3.132,3.132,0,0,1-.331,1.362ZM11,3.14A1.545,1.545,0,0,1,12.543,1.6h3.545A1.545,1.545,0,0,1,17.631,3.14v.92H11ZM8.625,5.007H19.993a.568.568,0,1,1,0,1.137H8.625a.568.568,0,1,1,0-1.137ZM2.372.947H6.782L6.126,2.14a.474.474,0,0,0,0,.457l.656,1.193H2.372ZM7.363,4.737A1.515,1.515,0,0,0,8.625,7.091h.4a2.97,2.97,0,0,0-.595,3.118,3.389,3.389,0,0,0-.618,1.95,4.009,4.009,0,0,0,.214,1.265H5.562l-1.7-4.658A1.976,1.976,0,0,0,2.834,7.644a2,2,0,0,0-.461-.15V4.737ZM1.637,8.468a1.042,1.042,0,0,1,1.336.622l.2.545-1.917.8L1.014,9.8A1.043,1.043,0,0,1,1.637,8.468Zm1.5,6.936-1.547-4.08,1.906-.8L4.785,14.06a.474.474,0,0,0,.445.311H7.583v2.577l-2.878-.326A1.9,1.9,0,0,1,3.137,15.4ZM8.53,14.372H9.841v3.784a.474.474,0,1,0,.947,0V16.069l1.084,1.68a.474.474,0,0,0,.348.214l.05,0a.474.474,0,0,0,.335-.139l1.7-1.7,1.7,1.7a.474.474,0,0,0,.335.139l.05,0a.474.474,0,0,0,.348-.214l1.084-1.68V20.23H16.116a.474.474,0,0,0,0,.947H17.83V23.3H10.788V22.42a.474.474,0,0,0-.947,0V23.3H8.53ZM23.309,23.3H21.035V15.1a4.814,4.814,0,0,1,2.274,4.087Z" transform="translate(-0.004 0)"/><path class="a" d="M285.721,197.114a.946.946,0,0,0,.671-.277.75.75,0,1,0-1.341,0A.946.946,0,0,0,285.721,197.114Z" transform="translate(-271.416 -186.743)"/><path class="a" d="M208.141,419.266a.474.474,0,1,0-.335-.139A.477.477,0,0,0,208.141,419.266Z" transform="translate(-197.831 -398.504)"/></g></g></svg>