<svg xmlns="http://www.w3.org/2000/svg" width="29.28" height="18.625" viewBox="0 0 29.28 18.625"><defs><style>.a,.b{fill:#fff;}.c,.d{stroke:none;}.d{fill:#3599ff;}</style></defs><g transform="translate(-357 -930)"><g transform="translate(357 930)"><path class="a" d="M9.313,0a9.313,9.313,0,1,0,9.313,9.313A9.313,9.313,0,0,0,9.313,0Zm2.675,12.984a3,3,0,0,1-1.552,1,.432.432,0,0,0-.376.494c.011.276,0,.548,0,.824a.341.341,0,0,1-.368.383c-.157,0-.314.008-.471.008-.138,0-.276,0-.414,0a.356.356,0,0,1-.383-.406c0-.2,0-.4,0-.6,0-.445-.019-.46-.445-.529A5.649,5.649,0,0,1,6.392,13.7c-.391-.192-.433-.287-.322-.7.084-.307.169-.613.264-.916.069-.222.134-.322.253-.322a.672.672,0,0,1,.276.1,5.113,5.113,0,0,0,1.755.525,2.812,2.812,0,0,0,.31.019,2.071,2.071,0,0,0,.839-.172.893.893,0,0,0,.215-1.567,2.8,2.8,0,0,0-.655-.383,15.342,15.342,0,0,1-1.794-.8A2.536,2.536,0,0,1,6.1,7.044,2.672,2.672,0,0,1,8.056,4.568c.479-.172.483-.169.483-.667,0-.169,0-.337,0-.51.011-.376.073-.441.448-.452h.437c.713,0,.713.031.717.8,0,.567,0,.567.567.655a4.99,4.99,0,0,1,1.242.372.361.361,0,0,1,.234.483c-.1.345-.2.694-.3,1.035-.069.207-.134.3-.257.3a.615.615,0,0,1-.261-.08,3.918,3.918,0,0,0-1.736-.4c-.077,0-.157,0-.234.008a1.546,1.546,0,0,0-.525.107A.744.744,0,0,0,8.688,7.55a3.469,3.469,0,0,0,.855.479,15.409,15.409,0,0,1,1.56.705A2.8,2.8,0,0,1,11.987,12.984Z"/></g><g class="b" transform="translate(2771 6136)"><path class="c" d="M -2393.249267578125 -5189.63330078125 L -2393.249267578125 -5192 L -2393.249267578125 -5192.75 L -2393.999267578125 -5192.75 L -2398.25048828125 -5192.75 L -2398.25048828125 -5200.25 L -2393.999267578125 -5200.25 L -2393.249267578125 -5200.25 L -2393.249267578125 -5201 L -2393.249267578125 -5203.904296875 L -2385.8037109375 -5196.673828125 L -2393.249267578125 -5189.63330078125 Z"/><path class="d" d="M -2392.499267578125 -5191.375 L -2386.8876953125 -5196.68115234375 L -2392.499267578125 -5202.13037109375 L -2392.499267578125 -5201 L -2392.499267578125 -5199.5 L -2393.999267578125 -5199.5 L -2397.50048828125 -5199.5 L -2397.50048828125 -5193.5 L -2393.999267578125 -5193.5 L -2392.499267578125 -5193.5 L -2392.499267578125 -5192 L -2392.499267578125 -5191.375 M -2393.999267578125 -5187.89208984375 L -2393.999267578125 -5192 L -2399.00048828125 -5192 L -2399.00048828125 -5201 L -2393.999267578125 -5201 L -2393.999267578125 -5205.67822265625 L -2384.7197265625 -5196.66650390625 L -2393.999267578125 -5187.89208984375 Z"/></g></g></svg>