<svg xmlns="http://www.w3.org/2000/svg" xmlns:xlink="http://www.w3.org/1999/xlink" width="25" height="21" viewBox="0 0 25 21"><defs><style>.a{fill:#002cfa;}.b{filter:url(#a);}</style><filter id="a" x="0" y="0" width="25" height="21" filterUnits="userSpaceOnUse"><feOffset dy="3" input="SourceAlpha"/><feGaussianBlur stdDeviation="1.5" result="b"/><feFlood flood-opacity="0.161"/><feComposite operator="in" in2="b"/><feComposite in="SourceGraphic"/></filter></defs><g class="b" transform="matrix(1, 0, 0, 1, 0, 0)"><path class="a" d="M5.226,11.61.4,6.854a1.369,1.369,0,0,1,0-1.932L1.5,3.845a1.446,1.446,0,0,1,1.976,0l2.73,2.69L12.522.39A1.447,1.447,0,0,1,14.5.39l1.1,1.078a1.368,1.368,0,0,1,0,1.932L8.459,10.349a1.3,1.3,0,0,1-.156.183L7.2,11.61a1.446,1.446,0,0,1-1.976,0Z" transform="translate(4.5 1.5)"/></g></svg>