<svg xmlns="http://www.w3.org/2000/svg" width="51.893" height="29" viewBox="0 0 51.893 29">
  <g id="importing-properties-icon" transform="translate(0 -0.224)">
    <g id="properties-icon" transform="translate(22.893 0.224)">
      <ellipse id="Ellipse_778" data-name="Ellipse 778" cx="14.5" cy="14.461" rx="14.5" ry="14.461" fill="#c4e6ff"/>
      <g id="home_1_" data-name="home (1)" transform="translate(16.321 15.285)">
        <path id="Path_19733" data-name="Path 19733" d="M343.408,21.332H341.7a.366.366,0,0,0-.366.366v1.651a.365.365,0,0,0,.109.26l1.71,1.69a.366.366,0,0,0,.624-.26V21.7A.366.366,0,0,0,343.408,21.332Zm0,0" transform="translate(-333.517 -20.844)" fill="#1976d2"/>
        <path id="Path_19734" data-name="Path 19734" d="M11.1,5.794a5.555,5.555,0,0,1-.334.557h-.506l-4.4-4.274-4.4,4.274H.611a.611.611,0,0,1-.43-1.045L5.607.1a.366.366,0,0,1,.508,0l5.261,5.059A6.779,6.779,0,0,1,11.1,5.794Z" transform="translate(0 -0.001)" fill="#2196f3"/>
        <path id="Path_19735" data-name="Path 19735" d="M68.24,90.668l-4.4,4.274s-.039,3.794,0,3.877a5.064,5.064,0,0,0,1.041.683,4.289,4.289,0,0,0,.981.43,6.078,6.078,0,0,0,.921.24l2.855-1.04L71.7,97.08l.938-1.346v-.792Zm0,0" transform="translate(-62.379 -88.592)" fill="#eceff1"/>
        <path id="Path_19736" data-name="Path 19736" d="M192,341.332h2.931v2.636l-1.512,1-1-.448Zm0,0" transform="translate(-187.604 -333.517)" fill="#00429a"/>
        <path id="Path_19737" data-name="Path 19737" d="M192,341.332h1.465l-.014,3.617-1.41.79Zm0,0" transform="translate(-187.604 -333.517)" fill="#003a88"/>
      </g>
      <g id="home_1_2" data-name="home (1)" transform="translate(0.339 11.992)">
        <path id="Path_19733-2" data-name="Path 19733" d="M343.7,21.332h-1.95a.418.418,0,0,0-.418.418v1.883a.416.416,0,0,0,.124.3l1.95,1.928a.418.418,0,0,0,.711-.3V21.75A.418.418,0,0,0,343.7,21.332Zm0,0" transform="translate(-333.848 -20.775)" fill="#1976d2"/>
        <path id="Path_19734-2" data-name="Path 19734" d="M19.115,6.548a.7.7,0,0,1-.7.7h-.975L12.429,2.369,7.712,7,7.32,5.652l-.147-.873L12.139.118a.417.417,0,0,1,.58,0L18.9,6.047A.7.7,0,0,1,19.115,6.548Zm0,0" transform="translate(-7.174 -0.001)" fill="#2196f3"/>
        <path id="Path_19735-2" data-name="Path 19735" d="M70.2,90.668l-4.7,4.6a15.672,15.672,0,0,0,.781,2.013,10.07,10.07,0,0,0,1,1.6l.868,1.136.782.771,2.938,1.828h3.35V95.543Zm0,0" transform="translate(-64.949 -88.3)" fill="#eceff1"/>
        <path id="Path_19736-2" data-name="Path 19736" d="M192,341.332h3.343v5.388h-.8l-.873-.7-1.194-1.05Zm0,0" transform="translate(-188.417 -332.417)" fill="#00429a"/>
        <path id="Path_19737-2" data-name="Path 19737" d="M192,341.332h1.672v4.674l-1.579-1.393Zm0,0" transform="translate(-188.417 -332.417)" fill="#003a88"/>
      </g>
      <g id="home_1_3" data-name="home (1)" transform="translate(5.185 10.354)">
        <path id="Path_19733-3" data-name="Path 19733" d="M344.638,21.332h-2.723a.584.584,0,0,0-.583.583v2.629a.581.581,0,0,0,.173.415l2.723,2.691a.583.583,0,0,0,.993-.415V21.915A.584.584,0,0,0,344.638,21.332Zm0,0" transform="translate(-328.887 -20.554)" fill="#1976d2"/>
        <path id="Path_19734-3" data-name="Path 19734" d="M18.668,9.141a.973.973,0,0,1-.972.972H16.335l-7-6.806-7,6.806H.972A.973.973,0,0,1,.288,8.448L8.93.164a.583.583,0,0,1,.809,0L18.373,8.44A.972.972,0,0,1,18.668,9.141Zm0,0" transform="translate(0 -0.001)" fill="#2196f3"/>
        <path id="Path_19735-3" data-name="Path 19735" d="M70.964,90.668l-7,6.806v6.744s1.54.762,2.3,1.028,2.39.6,2.39.6l4.606,0s1.736-.38,2.426-.619a23.432,23.432,0,0,0,2.266-1.1l.017-6.654Zm0,0" transform="translate(-61.63 -87.362)" fill="#eceff1"/>
        <path id="Path_19736-3" data-name="Path 19736" d="M192,341.332h4.667l-.012,6.039a12.483,12.483,0,0,1-2.35.156h0a1.84,1.84,0,0,1-1.637-1.116Zm0,0" transform="translate(-184.999 -328.887)" fill="#00429a"/>
        <path id="Path_19737-3" data-name="Path 19737" d="M192,341.332h2.334l-.021,6.19s-.7.005-1.285-.049-1.027-.136-1.027-.136Zm0,0" transform="translate(-184.999 -328.887)" fill="#003a88"/>
      </g>
    </g>
    <g id="Group_12282" data-name="Group 12282" transform="translate(0 10.74)">
      <g id="Group_11730" data-name="Group 11730" transform="translate(0 0)">
        <path id="Path_25147" data-name="Path 25147" d="M17.066,163.7l-4.332-3.536a.735.735,0,0,0-.768-.1.706.706,0,0,0-.416.641v2.122H.722a.715.715,0,0,0-.722.707v1.414a.715.715,0,0,0,.722.707H11.551v2.122a.707.707,0,0,0,.416.641.746.746,0,0,0,.306.066.723.723,0,0,0,.462-.164l4.332-3.536a.7.7,0,0,0,0-1.086Z" transform="translate(0 -160.002)" fill="#f2f9ff"/>
      </g>
    </g>
  </g>
</svg>
