<svg xmlns="http://www.w3.org/2000/svg" width="19.007" height="19.807" viewBox="0 0 19.007 19.807">
  <g id="upselling-icon-inactive" transform="translate(-1022.368 -118.499)">
    <g id="discount" transform="translate(1022.368 118.499)">
      <path id="Subtraction_9" data-name="Subtraction 9" d="M9.505,19.807a1.735,1.735,0,0,1-1.2-.487L7.092,18.152a.555.555,0,0,0-.4-.165.581.581,0,0,0-.091.007l-1.666.234a1.861,1.861,0,0,1-.248.015A1.719,1.719,0,0,1,3,16.819l-.293-1.662a.581.581,0,0,0-.3-.41L.918,13.956a1.724,1.724,0,0,1-.739-2.285l.736-1.508a.573.573,0,0,0,0-.513L.179,8.138A1.714,1.714,0,0,1,.918,5.857l1.488-.791a.585.585,0,0,0,.3-.417L3,2.993A1.72,1.72,0,0,1,4.69,1.566a1.745,1.745,0,0,1,.248.018L6.6,1.818a.594.594,0,0,0,.083.006.576.576,0,0,0,.4-.163L8.3.489a1.719,1.719,0,0,1,2.4,0l1.209,1.172a.581.581,0,0,0,.487.157l1.669-.234a1.767,1.767,0,0,1,.249-.018,1.718,1.718,0,0,1,1.691,1.427L16.3,4.648a.57.57,0,0,0,.3.417l1.488.791a1.713,1.713,0,0,1,.739,2.281L18.092,9.65a.573.573,0,0,0,0,.513l.736,1.508a1.722,1.722,0,0,1-.739,2.285l-1.488.791a.568.568,0,0,0-.3.41l-.292,1.662a1.722,1.722,0,0,1-1.694,1.427,1.781,1.781,0,0,1-.248-.018L12.4,17.995a.559.559,0,0,0-.487.157L10.7,19.32A1.7,1.7,0,0,1,9.505,19.807Zm2.281-8.949a2.094,2.094,0,1,0,2.094,2.094A2.1,2.1,0,0,0,11.786,10.858ZM13.27,5.565a.562.562,0,0,0-.4.168l-7.54,7.539a.576.576,0,0,0,0,.809.582.582,0,0,0,.406.165.57.57,0,0,0,.4-.165l7.54-7.543a.57.57,0,0,0-.405-.973Zm-6.053-.8A2.094,2.094,0,1,0,9.311,6.86,2.1,2.1,0,0,0,7.217,4.766ZM11.786,13.9a.952.952,0,1,1,.951-.952A.953.953,0,0,1,11.786,13.9ZM7.217,7.812a.952.952,0,1,1,.952-.952A.953.953,0,0,1,7.217,7.812Z" transform="translate(0)" fill="#9696b9"/>
    </g>
  </g>
</svg>
