<svg xmlns="http://www.w3.org/2000/svg" width="197.033" height="58.254" viewBox="0 0 197.033 58.254">
    <defs>
        <style>
            .cls-1{fill:#698396}
        </style>
    </defs>
    <g id="vacasa-logo" transform="translate(-28.422)">
        <path id="Path_18945" d="M2314.454 1104.018l-1.361-.787-4.086-2.357a1.857 1.857 0 0 0-1.856 0l-4.086 2.357-1.351.779-4.086 2.358a1.857 1.857 0 0 0-.928 1.608v17.724h5.014v-14.828a1.855 1.855 0 0 1 .929-1.606l4.508-2.6a1.856 1.856 0 0 1 1.856 0l4.519 2.608a1.857 1.857 0 0 1 .928 1.606v14.82h5.015v-17.716a1.856 1.856 0 0 0-.929-1.606z" class="cls-1" data-name="Path 18945" transform="translate(-2248.229 -1077.471)"/>
        <path id="Path_18946" d="M1859.6 561.305l-11.388-6.574-4.086-2.357a1.856 1.856 0 0 0-1.855 0l-4.086 2.357-11.376 6.568-4.084 2.357a1.855 1.855 0 0 0-.928 1.606v23.511h5.015v-20.617a1.856 1.856 0 0 1 .928-1.606l14.533-8.391a1.856 1.856 0 0 1 1.855 0l14.543 8.4a1.855 1.855 0 0 1 .928 1.608v20.609h5.015v-23.5a1.855 1.855 0 0 0-.929-1.606z" class="cls-1" data-name="Path 18946" transform="translate(-1783.352 -540.547)"/>
        <path id="Path_18947" d="M1408.64 20.854l-29.583-17.08a1.855 1.855 0 0 0-1.855 0l-29.573 17.074a1.855 1.855 0 0 0-.929 1.606v37.47a1.855 1.855 0 0 0 1.855 1.855h23.209v-5.013h-20.052V25.349a1.861 1.861 0 0 1 .929-1.608L1377.2 9.563a1.855 1.855 0 0 1 1.855 0l24.573 14.185a1.855 1.855 0 0 1 .929 1.606v31.41H1384.5v5.012h23.207a1.855 1.855 0 0 0 1.855-1.855V22.46a1.849 1.849 0 0 0-.927-1.606" class="cls-1" data-name="Path 18947" transform="translate(-1318.279 -3.525)"/>
        <g id="Group_6647" data-name="Group 6647" transform="translate(106 24.72)">
            <path id="Path_18948" d="M911.96 3083.127c-.059 2.7-2 5.857-7.286 5.857-3.21 0-5.124-1.307-5.124-3.5 0-2.387 1.844-3.615 5.8-3.862l6.612-.2v1.708zm-5.316-12.927h-.1a9.722 9.722 0 0 0-7.022 2.455 6.222 6.222 0 0 0-1.695 3.2.228.228 0 0 0 .224.271h2.849c.6-2.077 2.575-3.223 5.6-3.223h.1c3.353 0 5.356 1.188 5.356 3.17v2.659a.127.127 0 0 1-.122.128l-6.908.3c-5.605.3-8.33 2.364-8.33 6.323 0 4.6 4.109 6.243 7.955 6.243a9.415 9.415 0 0 0 7.026-2.628l.422-.469v2.687h2.868v-14.837c0-3.989-3-6.279-8.227-6.283" class="cls-1" data-name="Path 18948" transform="translate(-877.678 -3070.198)"/>
            <path id="Path_18949" d="M1897.825 3070.2c-5.893 0-10.025 4.848-10.025 10.806 0 5.913 3.953 10.723 10.025 10.723a9.4 9.4 0 0 0 7.815-3.852 10.062 10.062 0 0 0 1.083-1.83.235.235 0 0 0-.215-.329h-2.965a7.592 7.592 0 0 1-1.372 1.631 6.268 6.268 0 0 1-4.346 1.635c-3.8 0-7.034-3.558-7.034-7.979 0-4.466 3.233-8.062 7.034-8.062a6.284 6.284 0 0 1 4.588 1.885 8.2 8.2 0 0 1 1.072 1.3h2.98a.236.236 0 0 0 .213-.334 10.131 10.131 0 0 0-1.581-2.38 9.46 9.46 0 0 0-7.273-3.214" class="cls-1" data-name="Path 18949" transform="translate(-1847.959 -3070.198)"/>
            <path id="Path_18950" d="M2894.458 3083.127c-.06 2.7-2 5.857-7.285 5.857-3.211 0-5.126-1.307-5.126-3.5 0-2.387 1.844-3.615 5.8-3.862l6.61-.2v1.708zm-5.314-12.927h-.1a9.727 9.727 0 0 0-7.022 2.455 6.206 6.206 0 0 0-1.69 3.185.245.245 0 0 0 .241.289h2.834c.6-2.076 2.575-3.222 5.6-3.222h.1c3.354 0 5.356 1.188 5.356 3.17v2.659a.128.128 0 0 1-.123.128l-6.908.3c-5.605.3-8.33 2.364-8.33 6.323 0 4.6 4.109 6.243 7.955 6.243a9.412 9.412 0 0 0 7.026-2.628l.422-.469v2.687h2.868v-14.837c0-3.989-3-6.279-8.227-6.283" class="cls-1" data-name="Path 18950" transform="translate(-2818.337 -3070.198)"/>
            <path id="Path_18951" d="M3881.349 3070.1c-5.483 0-7.98 3.1-7.98 5.986a4.584 4.584 0 0 0 .952 3.071c1.445 1.72 3.475 2.138 7.209 2.382 3.683.241 5.521 1.448 5.618 3.688a3.012 3.012 0 0 1-.821 2.273 5.983 5.983 0 0 1-4.385 1.385h-.191a6.578 6.578 0 0 1-5.259-2.252 4.036 4.036 0 0 1-.563-1.009h-2.8a.242.242 0 0 0-.233.3c1 3.518 4.279 5.643 8.86 5.7h.213c2.854 0 5.195-.783 6.589-2.208a5.606 5.606 0 0 0 1.537-4.2c-.076-3.841-2.7-5.924-8.024-6.368-3.433-.286-5.721-.888-5.721-2.889 0-1.8 2.146-3.164 4.993-3.164 2.262 0 3.976.838 4.825 2.358a4.48 4.48 0 0 1 .356.872h2.8a.229.229 0 0 0 .221-.271 7.26 7.26 0 0 0-.218-.855c-.993-3.054-3.9-4.805-7.98-4.805" class="cls-1" data-name="Path 18951" transform="translate(-3791.154 -3070.101)"/>
            <path id="Path_18952" d="M4809.663 3083.127c-.059 2.7-2 5.857-7.285 5.857-3.21 0-5.127-1.307-5.127-3.5 0-2.387 1.846-3.615 5.8-3.862l6.612-.2zm-5.316-12.927h-.1a9.723 9.723 0 0 0-7.021 2.455 6.209 6.209 0 0 0-1.7 3.208.225.225 0 0 0 .22.264h2.859c.6-2.077 2.576-3.223 5.6-3.223h.1c3.354 0 5.356 1.189 5.356 3.17v2.659a.129.129 0 0 1-.123.129l-6.908.3c-5.6.3-8.33 2.364-8.33 6.323 0 4.6 4.109 6.243 7.952 6.243a9.416 9.416 0 0 0 7.027-2.627l.421-.469v2.687h2.87v-14.837c0-3.987-3-6.277-8.224-6.281" class="cls-1" data-name="Path 18952" transform="translate(-4693.117 -3070.198)"/>
            <path id="Path_18953" d="M15.95 3093.2l-6.366 17.29-6.47-17.29H.262a.232.232 0 0 0-.217.311l7.755 20.321h3.522l7.695-20.32a.231.231 0 0 0-.217-.31h-2.851z" class="cls-1" data-name="Path 18953" transform="translate(-.031 -3092.713)"/>
        </g>
    </g>
</svg>
