<svg xmlns="http://www.w3.org/2000/svg" width="20" height="20" viewBox="0 0 20 20"><defs><style>.a{fill:#385cf8;}.b{fill:#fff;}</style></defs><rect class="a" width="20" height="20" rx="3"/><g transform="translate(2.127 4.993)"><path class="b" d="M7.772,98.725c-2.97,0-5.663,1.687-7.651,4.428a.659.659,0,0,0,0,.763c1.987,2.744,4.681,4.432,7.651,4.432s5.663-1.688,7.651-4.428a.659.659,0,0,0,0-.763C13.436,100.413,10.742,98.725,7.772,98.725Zm.213,8.2a3.4,3.4,0,0,1-.426-6.776,3.4,3.4,0,0,1,.426,6.776Zm-.1-1.565a1.829,1.829,0,1,1,1.644-1.707A1.792,1.792,0,0,1,7.887,105.359Z" transform="translate(0 -98.725)"/></g></svg>
