<svg xmlns="http://www.w3.org/2000/svg" width="35.345" height="14.217" viewBox="0 0 35.345 14.217"><defs><style>.a{fill:#9696b9;}.b{fill:none;}</style></defs><g transform="translate(-515 -41.891)"><g transform="translate(498.256 59.039)"><g transform="translate(16.744 -15.593)"><path class="a" d="M8.971,98.725c-3.428,0-6.537,1.948-8.831,5.111a.76.76,0,0,0,0,.88c2.294,3.167,5.4,5.115,8.831,5.115s6.537-1.948,8.831-5.111a.76.76,0,0,0,0-.88C15.508,100.673,12.4,98.725,8.971,98.725Zm.246,9.464a3.921,3.921,0,0,1-.492-7.821,3.921,3.921,0,0,1,.492,7.821ZM9.1,106.383a2.111,2.111,0,1,1,1.9-1.971A2.069,2.069,0,0,1,9.1,106.383Z" transform="translate(0 -98.725)"/></g></g><g transform="translate(534.115 38.891)"><rect class="b" width="15.201" height="14.217" transform="translate(1.029 3)"/><path class="a" d="M14.985,11.03A3.515,3.515,0,1,0,11.47,7.515,3.525,3.525,0,0,0,14.985,11.03Zm0,1.758c-2.373,0-7.03,1.142-7.03,3.515v1.758H22.015V16.3C22.015,13.93,17.358,12.788,14.985,12.788Z" transform="translate(-7.071 -1)"/></g></g></svg>