<svg xmlns="http://www.w3.org/2000/svg" width="30.486" height="35.073" viewBox="0 0 30.486 35.073"><defs><style>.a{fill:#012c69;}.b{fill:#002355;}.c{fill:#0e78f0;}.d{fill:#385cf8;}.e{fill:#46a1fd;}.f{fill:#033b88;}.g{fill:#003379;}.h{fill:#f470cb;}</style></defs><g transform="translate(-33.48 -0.001)"><path class="a" d="M61.12,117.422h.427a1.146,1.146,0,0,1,1.146,1.146v8.013H36.208a2.728,2.728,0,0,1-2.728-2.728v-3.7a2.728,2.728,0,0,1,2.728-2.728H61.12Z" transform="translate(0 -109.378)"/><path class="b" d="M61.12,167.722h.427a1.146,1.146,0,0,1,1.146,1.146v8.013H36.208a2.728,2.728,0,0,1-2.728-2.728v-3.7a2.728,2.728,0,0,1,2.728-2.728H61.12Z" transform="translate(0 -156.232)"/><path class="c" d="M73.908,10.048,59.279,24.677a1.715,1.715,0,0,1-2.425,0l-7.121-7.121a1.715,1.715,0,0,1,0-2.425L64.363.5a1.715,1.715,0,0,1,2.425,0l7.121,7.121A1.715,1.715,0,0,1,73.908,10.048Z" transform="translate(-14.673 0)"/><path class="d" d="M114.938,52.351a1.86,1.86,0,0,1-3.093-.77L100.813,62.613a1.86,1.86,0,0,1,0,3.556l3.524,3.524a1.86,1.86,0,0,1,3.556,0l11.032-11.032a1.86,1.86,0,0,1,0-3.556L115.4,51.581A1.85,1.85,0,0,1,114.938,52.351Z" transform="translate(-62.721 -48.047)"/><circle class="c" cx="3.4" cy="3.4" r="3.4" transform="translate(43.749 9.19)"/><circle class="e" cx="2.404" cy="2.404" r="2.404" transform="translate(44.744 10.186)"/><g transform="translate(40.569 6.011)"><path class="c" d="M275.259,88.48l-1.973,1.972a.436.436,0,1,1-.616-.616l1.973-1.973a.436.436,0,1,1,.616.616Z" transform="translate(-263.255 -87.736)"/><path class="c" d="M289.516,114.276l-1.233,1.233a.436.436,0,1,1-.616-.616l1.233-1.233a.436.436,0,1,1,.616.616Z" transform="translate(-277.225 -111.765)"/><path class="e" d="M139.685,224.055l-1.972,1.972a.436.436,0,1,1-.616-.616l1.973-1.972a.436.436,0,1,1,.616.616Z" transform="translate(-136.968 -214.024)"/><path class="e" d="M164.741,239.052l-1.233,1.233a.436.436,0,1,1-.616-.616l1.233-1.233a.436.436,0,1,1,.616.616Z" transform="translate(-160.997 -227.994)"/></g><g transform="translate(37.189 2.574)"><path class="d" d="M282.435,38.3a.436.436,0,1,1,.042-.568A.439.439,0,0,1,282.435,38.3Z" transform="translate(-268.397 -37.565)"/><path class="d" d="M367.32,123.185a.436.436,0,1,1,.048-.559A.44.44,0,0,1,367.32,123.185Z" transform="translate(-347.468 -116.632)"/><path class="d" d="M88.372,232.309a.436.436,0,1,1,.052-.554A.439.439,0,0,1,88.372,232.309Z" transform="translate(-87.628 -218.276)"/><path class="d" d="M173.257,317.25a.436.436,0,1,1,.048-.559A.44.44,0,0,1,173.257,317.25Z" transform="translate(-166.698 -297.403)"/></g><path class="c" d="M209.857,160.215l-.678-.678a.5.5,0,0,1,.561.056.291.291,0,0,0,.411-.411,1.114,1.114,0,0,0-1.4-.073l-.038-.038a.291.291,0,0,0-.411.411l.038.038a1.046,1.046,0,0,0,1.472,1.472l.678.678a.5.5,0,0,1-.561-.056.291.291,0,1,0-.411.411,1.114,1.114,0,0,0,1.4.073l.038.038a.291.291,0,0,0,.411-.411l-.038-.038a1.046,1.046,0,0,0-1.472-1.472Zm-1.033.294a.5.5,0,0,1-.056-.561l.617.617A.5.5,0,0,1,208.825,160.509Zm2.077.751-.617-.617a.445.445,0,0,1,.617.617Z" transform="translate(-162.687 -148.014)"/><path class="f" d="M62.693,161.619v18.287a1.643,1.643,0,0,1-1.643,1.643H36.208a2.729,2.729,0,0,1-2.728-2.729V157.248a2.729,2.729,0,0,0,2.728,2.729H61.05A1.643,1.643,0,0,1,62.693,161.619Z" transform="translate(0 -146.476)"/><path class="g" d="M36.851,159.977v21.572h-.643a2.729,2.729,0,0,1-2.728-2.729V157.248a2.729,2.729,0,0,0,2.728,2.729Z" transform="translate(0 -146.476)"/><path class="a" d="M345.207,304.421h4.8a1.19,1.19,0,0,0,1.19-1.19V298.87a1.19,1.19,0,0,0-1.19-1.19h-4.8a3.371,3.371,0,0,0-3.371,3.371h0A3.371,3.371,0,0,0,345.207,304.421Z" transform="translate(-287.233 -277.288)"/><circle class="h" cx="1.348" cy="1.348" r="1.348" transform="translate(56.55 22.415)"/></g></svg>
