<svg xmlns="http://www.w3.org/2000/svg" width="52" height="48.353" viewBox="0 0 52 48.353">
  <g id="warning-icon" transform="translate(0 -17.95)">
    <path id="Path_25386" data-name="Path 25386" d="M63.244,69.207,44.874,36.119a6.07,6.07,0,0,0-10.664,0L15.87,69.177l-.03.03a6.1,6.1,0,0,0,5.332,9.049H57.912a6.1,6.1,0,0,0,5.332-9.049Z" transform="translate(-13.542 -13.477)" fill="#f7eecf"/>
    <path id="Path_25387" data-name="Path 25387" d="M279.611,75.271a6.061,6.061,0,0,1-5.24,2.986H256V32.95a6.02,6.02,0,0,1,5.332,3.169L279.7,69.207A6.071,6.071,0,0,1,279.611,75.271Z" transform="translate(-230 -13.477)" fill="#f5e8bb"/>
    <path id="Path_25390" data-name="Path 25390" d="M51.043,55,32.672,21.88a7.629,7.629,0,0,0-13.345,0L.957,55A7.633,7.633,0,0,0,7.629,66.3H44.37A7.633,7.633,0,0,0,51.043,55ZM48.3,61a4.553,4.553,0,0,1-3.93,2.255H7.629a4.594,4.594,0,0,1-4.57-4.57,4.491,4.491,0,0,1,.579-2.224l18.37-33.089a4.54,4.54,0,0,1,7.983,0l18.37,33.089A4.557,4.557,0,0,1,48.3,61Z" transform="translate(0)" fill="#ffc400"/>
    <g id="Group_12186" data-name="Group 12186">
      <g id="Group_12184" data-name="Group 12184" transform="translate(22.953 26.694)">
        <path id="Path_25388" data-name="Path 25388" d="M232.094,362.1a3.047,3.047,0,1,1-3.047-3.047A3.056,3.056,0,0,1,232.094,362.1Z" transform="translate(-226 -333.152)" fill="#292969"/>
        <path id="Path_25389" data-name="Path 25389" d="M232.094,107.1v15.234a3.047,3.047,0,1,1-6.094,0V107.1a3.047,3.047,0,1,1,6.094,0Z" transform="translate(-226 -104.05)" fill="#292969"/>
      </g>
      <g id="Group_12185" data-name="Group 12185" transform="translate(26 26.694)">
        <path id="Path_25391" data-name="Path 25391" d="M259.047,362.1A3.056,3.056,0,0,1,256,365.144V359.05A3.056,3.056,0,0,1,259.047,362.1Z" transform="translate(-256 -333.152)" fill="#161643"/>
        <path id="Path_25392" data-name="Path 25392" d="M259.047,107.1v15.234A3.056,3.056,0,0,1,256,125.378V104.05A3.056,3.056,0,0,1,259.047,107.1Z" transform="translate(-256 -104.05)" fill="#161643"/>
      </g>
    </g>
    <path id="Path_25393" data-name="Path 25393" d="M280.921,62.556A7.532,7.532,0,0,1,274.37,66.3H256V63.257h18.37a4.578,4.578,0,0,0,3.991-6.795l-18.37-33.089A4.506,4.506,0,0,0,256,21V17.95a7.6,7.6,0,0,1,6.673,3.93L281.043,55A7.528,7.528,0,0,1,280.921,62.556Z" transform="translate(-230)" fill="#eab400"/>
  </g>
</svg>
