<svg xmlns="http://www.w3.org/2000/svg" xmlns:xlink="http://www.w3.org/1999/xlink" width="106" height="106" viewBox="0 0 106 106">
  <defs>
    <filter id="Path_25798" x="0" y="0" width="106" height="106" filterUnits="userSpaceOnUse">
      <feOffset dy="3" input="SourceAlpha"/>
      <feGaussianBlur stdDeviation="3" result="blur"/>
      <feFlood flood-opacity="0.161"/>
      <feComposite operator="in" in2="blur"/>
      <feComposite in="SourceGraphic"/>
    </filter>
    <filter id="Path_26195" x="5.09" y="5.09" width="94.966" height="94.966" filterUnits="userSpaceOnUse">
      <feOffset dy="3" input="SourceAlpha"/>
      <feGaussianBlur stdDeviation="3" result="blur-2"/>
      <feFlood flood-opacity="0.161"/>
      <feComposite operator="in" in2="blur-2"/>
      <feComposite in="SourceGraphic"/>
    </filter>
  </defs>
  <g id="property-icon" transform="translate(9 6)">
    <g transform="matrix(1, 0, 0, 1, -9, -6)" filter="url(#Path_25798)">
      <g id="Path_25798-2" data-name="Path 25798" transform="translate(9 6)" fill="#64caff">
        <path d="M 44 87.5 C 38.12731170654297 87.5 32.43056488037109 86.34992980957031 27.06798934936523 84.08175659179688 C 21.88809967041016 81.89085388183594 17.23597717285156 78.75426483154297 13.24085521697998 74.75914764404297 C 9.245733261108398 70.76402282714844 6.10914421081543 66.11190032958984 3.918244361877441 60.93201065063477 C 1.650066614151001 55.56943511962891 0.5 49.87268829345703 0.5 44 C 0.5 38.12731170654297 1.650066614151001 32.43056488037109 3.918244361877441 27.06798934936523 C 6.10914421081543 21.88809967041016 9.245733261108398 17.23597717285156 13.24085521697998 13.24085521697998 C 17.23597717285156 9.245733261108398 21.88809967041016 6.10914421081543 27.06798934936523 3.918244361877441 C 32.43056488037109 1.650066614151001 38.12731170654297 0.5 44 0.5 C 49.87268829345703 0.5 55.56943511962891 1.650066614151001 60.93201065063477 3.918244361877441 C 66.11190032958984 6.10914421081543 70.76402282714844 9.245733261108398 74.75914764404297 13.24085521697998 C 78.75426483154297 17.23597717285156 81.89085388183594 21.88809967041016 84.08175659179688 27.06798934936523 C 86.34992980957031 32.43056488037109 87.5 38.12731170654297 87.5 44 C 87.5 49.87268829345703 86.34992980957031 55.56943511962891 84.08175659179688 60.93201065063477 C 81.89085388183594 66.11190032958984 78.75426483154297 70.76402282714844 74.75914764404297 74.75914764404297 C 70.76402282714844 78.75426483154297 66.11190032958984 81.89085388183594 60.93201065063477 84.08175659179688 C 55.56943511962891 86.34992980957031 49.87268829345703 87.5 44 87.5 Z" stroke="none"/>
        <path d="M 44 1 C 38.19459915161133 1 32.56337738037109 2.13677978515625 27.26276397705078 4.378738403320312 C 22.14247131347656 6.544448852539062 17.54377746582031 9.645034790039062 13.59441375732422 13.59441375732422 C 9.645034790039062 17.54377746582031 6.544448852539062 22.14247131347656 4.378738403320312 27.26276397705078 C 2.13677978515625 32.56337738037109 1 38.19459915161133 1 44 C 1 49.80541229248047 2.13677978515625 55.43662261962891 4.378738403320312 60.73723602294922 C 6.544448852539062 65.85752868652344 9.645034790039062 70.45622253417969 13.59441375732422 74.40560150146484 C 17.54377746582031 78.35496520996094 22.14247131347656 81.45556640625 27.26276397705078 83.62126159667969 C 32.56337738037109 85.86322021484375 38.19459915161133 87 44 87 C 49.80541229248047 87 55.43662261962891 85.86322021484375 60.73723602294922 83.62126159667969 C 65.85752868652344 81.45556640625 70.45622253417969 78.35496520996094 74.40560150146484 74.40560150146484 C 78.35496520996094 70.45622253417969 81.45556640625 65.85752868652344 83.62126159667969 60.73723602294922 C 85.86322021484375 55.43662261962891 87 49.80541229248047 87 44 C 87 38.19459915161133 85.86322021484375 32.56337738037109 83.62126159667969 27.26276397705078 C 81.45556640625 22.14247131347656 78.35496520996094 17.54377746582031 74.40560150146484 13.59441375732422 C 70.45622253417969 9.645034790039062 65.85752868652344 6.544448852539062 60.73723602294922 4.378738403320312 C 55.43662261962891 2.13677978515625 49.80541229248047 1 44 1 M 44 0 C 68.300537109375 0 88 19.69947052001953 88 44 C 88 68.300537109375 68.300537109375 88 44 88 C 19.69947052001953 88 0 68.300537109375 0 44 C 0 19.69947052001953 19.69947052001953 0 44 0 Z" stroke="none" fill="#161643"/>
      </g>
    </g>
    <g transform="matrix(1, 0, 0, 1, -9, -6)" filter="url(#Path_26195)">
      <g id="Path_26195-2" data-name="Path 26195" transform="translate(14.09 11.09)" fill="#fff">
        <path d="M 38.4830322265625 76.466064453125 C 33.35513305664062 76.466064453125 28.38089179992676 75.46187591552734 23.69847297668457 73.48136901855469 C 19.1755428314209 71.56832885742188 15.11343193054199 68.82954406738281 11.62497234344482 65.34109497070312 C 8.13652229309082 61.85263061523438 5.397732257843018 57.79052352905273 3.484692335128784 53.26759338378906 C 1.504192233085632 48.58517074584961 0.5000022053718567 43.61093139648438 0.5000022053718567 38.4830322265625 C 0.5000022053718567 33.35513305664062 1.504192233085632 28.38089179992676 3.484692335128784 23.69847297668457 C 5.397732257843018 19.1755428314209 8.13652229309082 15.11343193054199 11.62497234344482 11.62497234344482 C 15.11343193054199 8.13652229309082 19.1755428314209 5.397732257843018 23.69847297668457 3.484692335128784 C 28.38089179992676 1.504192233085632 33.35513305664062 0.5000022053718567 38.4830322265625 0.5000022053718567 C 43.61093139648438 0.5000022053718567 48.58517074584961 1.504192233085632 53.26759338378906 3.484692335128784 C 57.79052352905273 5.397732257843018 61.85263061523438 8.13652229309082 65.34109497070312 11.62497234344482 C 68.82954406738281 15.11343193054199 71.56832885742188 19.1755428314209 73.48136901855469 23.69847297668457 C 75.46187591552734 28.38089179992676 76.466064453125 33.35513305664062 76.466064453125 38.4830322265625 C 76.466064453125 43.61093139648438 75.46187591552734 48.58517074584961 73.48136901855469 53.26759338378906 C 71.56832885742188 57.79052352905273 68.82954406738281 61.85263061523438 65.34109497070312 65.34109497070312 C 61.85263061523438 68.82954406738281 57.79052352905273 71.56832885742188 53.26759338378906 73.48136901855469 C 48.58517074584961 75.46187591552734 43.61093139648438 76.466064453125 38.4830322265625 76.466064453125 Z" stroke="none"/>
        <path d="M 38.4830322265625 1 C 33.42240905761719 1 28.51369857788086 1.990913391113281 23.89325332641602 3.9451904296875 C 19.4299201965332 5.833023071289062 15.42122268676758 8.535835266113281 11.97852325439453 11.97852325439453 C 8.535835266113281 15.42122268676758 5.833023071289062 19.4299201965332 3.9451904296875 23.89325332641602 C 1.990913391113281 28.51369857788086 1 33.42240905761719 1 38.4830322265625 C 1 43.54365539550781 1.990913391113281 48.45236587524414 3.9451904296875 53.07280731201172 C 5.833023071289062 57.5361442565918 8.535835266113281 61.54484558105469 11.97852325439453 64.98754119873047 C 15.42122268676758 68.43022918701172 19.4299201965332 71.13304138183594 23.89325332641602 73.0208740234375 C 28.51369857788086 74.97515106201172 33.42240905761719 75.966064453125 38.4830322265625 75.966064453125 C 43.54365539550781 75.966064453125 48.45236587524414 74.97515106201172 53.07280731201172 73.0208740234375 C 57.5361442565918 71.13304138183594 61.54484558105469 68.43022918701172 64.98754119873047 64.98754119873047 C 68.43022918701172 61.54484558105469 71.13304138183594 57.5361442565918 73.0208740234375 53.07280731201172 C 74.97515106201172 48.45236587524414 75.966064453125 43.54365539550781 75.966064453125 38.4830322265625 C 75.966064453125 33.42240905761719 74.97515106201172 28.51369857788086 73.0208740234375 23.89325332641602 C 71.13304138183594 19.4299201965332 68.43022918701172 15.42122268676758 64.98754119873047 11.97852325439453 C 61.54484558105469 8.535835266113281 57.5361442565918 5.833023071289062 53.07280731201172 3.9451904296875 C 48.45236587524414 1.990913391113281 43.54365539550781 1 38.4830322265625 1 M 38.4830322265625 0 C 59.73662185668945 0 76.966064453125 17.22944259643555 76.966064453125 38.4830322265625 C 76.966064453125 59.73662185668945 59.73662185668945 76.966064453125 38.4830322265625 76.966064453125 C 17.22944259643555 76.966064453125 0 59.73662185668945 0 38.4830322265625 C 0 17.22944259643555 17.22944259643555 0 38.4830322265625 0 Z" stroke="none" fill="#161643"/>
      </g>
    </g>
    <path id="settings-icon" d="M47.25,19.573l-3.917-.5a19.687,19.687,0,0,0-1.185-2.862l2.42-3.115a3.1,3.1,0,0,0-.25-4.122L41.04,5.693A3.105,3.105,0,0,0,36.9,5.428l-3.11,2.42A19.617,19.617,0,0,0,30.93,6.662l-.5-3.91A3.12,3.12,0,0,0,27.335,0H22.668a3.12,3.12,0,0,0-3.1,2.75l-.5,3.918a19.39,19.39,0,0,0-2.865,1.185L13.1,5.427a3.1,3.1,0,0,0-4.123.25L5.693,8.96A3.105,3.105,0,0,0,5.427,13.1l2.42,3.113a19.46,19.46,0,0,0-1.185,2.863l-3.91.5A3.12,3.12,0,0,0,0,22.668v4.667a3.12,3.12,0,0,0,2.75,3.1l3.917.5a19.688,19.688,0,0,0,1.185,2.863l-2.42,3.115a3.1,3.1,0,0,0,.25,4.123l3.283,3.282a3.108,3.108,0,0,0,4.135.263l3.113-2.42a19.235,19.235,0,0,0,2.863,1.185l.5,3.908A3.12,3.12,0,0,0,22.668,50h4.667a3.12,3.12,0,0,0,3.1-2.75l.5-3.917a19.687,19.687,0,0,0,2.863-1.185l3.115,2.42a3.1,3.1,0,0,0,4.123-.25l3.282-3.282a3.1,3.1,0,0,0,.265-4.135l-2.42-3.112a19.236,19.236,0,0,0,1.185-2.863l3.907-.5A3.12,3.12,0,0,0,50,27.335V22.668a3.117,3.117,0,0,0-2.75-3.095ZM25,35.417A10.417,10.417,0,1,1,35.417,25,10.418,10.418,0,0,1,25,35.417Z" transform="translate(19 19)" fill="#9696b9" stroke="#161643" stroke-width="1"/>
  </g>
</svg>
