<svg xmlns="http://www.w3.org/2000/svg" width="56.85" height="56.083" viewBox="0 0 56.85 56.083"><defs><style>.a{fill:#bce0fd;}.b{fill:#2699fb;}.c{fill:#2677ef;}.d{fill:#62b7ff;}.e{fill:#00429a;}.f{fill:#fc98dd;}.g{fill:#0063f6;}.h{fill:#7cd5ed;}.i{fill:#0081ec;}.j{fill:#ff5d8f;}</style></defs><g transform="translate(1.32 1.461)"><path class="a" d="M0,27.214A27.214,27.214,0,1,0,27.214,0,27.217,27.217,0,0,0,0,27.214Z" transform="translate(0 0)"/><g transform="translate(-1.32 -1.461)"><path class="b" d="M85.961,260.568a31.01,31.01,0,0,0,8.1,5.021,38.757,38.757,0,0,0,9.961,2.207l18.061-7.6V240.23l-18.061,7.6-18.061-7.6Zm0,0" transform="translate(-75.747 -211.714)"/><path class="c" d="M256.022,261.082V240.23l-18.061,7.6V267.8a37.626,37.626,0,0,0,9.689-1.947A34.6,34.6,0,0,0,256.022,261.082Zm0,0" transform="translate(-209.686 -211.714)"/><path class="d" d="M5.957,247.835l18.061,8.555,9.506-8.555-19.011-7.6Zm0,0" transform="translate(-5.249 -211.714)"/><path class="d" d="M247.463,256.39l18.061-8.555-8.555-7.6-19.011,7.6Zm0,0" transform="translate(-209.683 -211.714)"/><path class="e" d="M96.968,184.23l-19.011,6.654,19.011,7.6,19.011-7.6Zm0,0" transform="translate(-68.694 -162.368)"/><path class="f" d="M236.621,94.755l-1.778-.674a36.071,36.071,0,0,1,4.809-8.776,16.7,16.7,0,0,1,5.284-4.929,7.584,7.584,0,0,1,1.551-1.931,15.9,15.9,0,0,1,8.9-4.164l.23,1.887a14,14,0,0,0-7.219,3.125,4.691,4.691,0,0,1,1.577.155A3.486,3.486,0,0,1,252.5,82a3.4,3.4,0,0,1-.265,2.077,4.078,4.078,0,0,1-7.764-1.124,17.785,17.785,0,0,0-3.294,3.494A34.163,34.163,0,0,0,236.621,94.755Zm9.787-12.986c-.018.061-.033.122-.045.183a2.188,2.188,0,0,0,4.138,1.339,1.537,1.537,0,0,0,.136-.915,1.622,1.622,0,0,0-1.177-1.1,3.815,3.815,0,0,0-2.148.148A8.227,8.227,0,0,0,246.409,81.77Zm0,0" transform="translate(-206.94 -65.483)"/><path class="g" d="M28.533,154.744a19.674,19.674,0,0,0-5.011-6.739,12.252,12.252,0,0,0-7.5-2.985,6.472,6.472,0,0,0-5.453,2.3,4.044,4.044,0,0,0-.654,3,2.868,2.868,0,0,0,1.178,1.927l-1.052,1.584a4.747,4.747,0,0,1-2-3.173,5.924,5.924,0,0,1,.985-4.454,8.387,8.387,0,0,1,7.027-3.084,14.156,14.156,0,0,1,8.683,3.426,21.548,21.548,0,0,1,5.509,7.379Zm0,0" transform="translate(-7.007 -126.139)"/><path class="h" d="M102.691,32.135a4.241,4.241,0,0,1-.763-2.49c-.014-.173-.027-.344-.048-.512-.071-.6-.362-1.073-.564-1.083a1.186,1.186,0,0,0-.466.123c-.163.057-.327.113-.492.154a1.839,1.839,0,0,1-2.22-.951,1.985,1.985,0,0,1-.024-1.215l.732-3.178a9.15,9.15,0,0,0-1.467.247,10.158,10.158,0,0,1-2,.308,1.567,1.567,0,0,1-1.406-.582,1.642,1.642,0,0,1-.249-1.277,8.937,8.937,0,0,1,.456-1.565,3.621,3.621,0,0,0,.359-1.864s0,0,0,0l-.074,0a3.45,3.45,0,0,0-2.888,1.911l-1.715-.82a5.328,5.328,0,0,1,4.52-2.991,2.011,2.011,0,0,1,1.35.357,1.884,1.884,0,0,1,.669,1.137,5.173,5.173,0,0,1-.428,2.913c-.106.294-.208.577-.283.85a10.62,10.62,0,0,0,1.276-.233,8.963,8.963,0,0,1,2.275-.307,1.555,1.555,0,0,1,1.48.825,1.647,1.647,0,0,1,.071,1.131l-.79,3.43c.076-.023.151-.05.227-.077a3.065,3.065,0,0,1,1.188-.227c1.409.069,2.2,1.434,2.358,2.756.023.193.039.389.055.586a2.815,2.815,0,0,0,.343,1.444Zm0,0" transform="translate(-79.179 -14.434)"/><path class="g" d="M15.124,83.823a11.684,11.684,0,0,0-4.717-3.657,7.913,7.913,0,0,0-5.226-.512,4.621,4.621,0,0,0-3.312,3.353L0,82.655a6.471,6.471,0,0,1,4.648-4.828,9.809,9.809,0,0,1,6.5.587,13.584,13.584,0,0,1,5.486,4.254Zm0,0" transform="translate(0 -68.33)"/><g transform="translate(2.609 0)"><path class="i" d="M213.992,51.015l1.743-.757,2.3,5.282-1.743.757Zm0,0" transform="translate(-191.175 -44.314)"/><path class="i" d="M259.074,69.169l-1.711-.829a19.648,19.648,0,0,1,3.287-4.809l1.393,1.293A17.761,17.761,0,0,0,259.074,69.169Zm0,0" transform="translate(-229.393 -56.01)"/><path class="i" d="M248.378,18.878a8.955,8.955,0,0,1,1.511-5.514l1.575,1.064a7.052,7.052,0,0,0-1.189,4.338Zm0,0" transform="translate(-221.461 -11.803)"/><path class="j" d="M452.849,153.224l-.345-1.87a25.021,25.021,0,0,1,2.965-.37l.119,1.9A23.163,23.163,0,0,0,452.849,153.224Zm0,0" transform="translate(-401.347 -133.072)"/><path class="i" d="M298.212,171.712l-1.455-1.224a33.535,33.535,0,0,1,15.364-9.918l.552,1.819A31.553,31.553,0,0,0,298.212,171.712Zm0,0" transform="translate(-264.106 -141.519)"/><path class="j" d="M197.961.23h1.9v1.9h-1.9Zm0,0" transform="translate(-177.049 -0.23)"/><path class="j" d="M341.957,16.23h1.9v1.9h-1.9Zm0,0" transform="translate(-303.935 -14.329)"/><path class="j" d="M445.957,96.23h1.9v1.9h-1.9Zm0,0" transform="translate(-395.578 -84.824)"/><path class="j" d="M21.961,16.23h1.9v1.9h-1.9Zm0,0" transform="translate(-21.961 -14.329)"/><path class="j" d="M157.961,144.23h1.9v1.9h-1.9Zm0,0" transform="translate(-141.801 -127.12)"/><path class="j" d="M69.961,192.23h1.9v1.9h-1.9Zm0,0" transform="translate(-64.258 -169.417)"/></g></g></g></svg>