<svg xmlns="http://www.w3.org/2000/svg" width="13.678" height="15.099" viewBox="0 0 13.678 15.099"><defs><style>.a{fill:#385cf8;stroke:#385cf8;stroke-width:0.3px;}</style></defs><g transform="translate(-26.42 0.15)"><g transform="translate(26.57)"><path class="a" d="M113.569,200.578a.578.578,0,0,0-.578-.578h-5.954a.578.578,0,0,0,0,1.156h5.954A.578.578,0,0,0,113.569,200.578Z" transform="translate(-104.15 -194.219)"/><path class="a" d="M107.037,280a.578.578,0,1,0,0,1.156h3.616a.578.578,0,1,0,0-1.156Z" transform="translate(-104.15 -271.907)"/><path class="a" d="M30.816,13.642H28.882a1.157,1.157,0,0,1-1.156-1.156V2.312a1.157,1.157,0,0,1,1.156-1.156h7.107a1.157,1.157,0,0,1,1.156,1.156V5.867a.578.578,0,1,0,1.156,0V2.312A2.315,2.315,0,0,0,35.989,0H28.882A2.315,2.315,0,0,0,26.57,2.312V12.486A2.315,2.315,0,0,0,28.882,14.8h1.933a.578.578,0,1,0,0-1.156Z" transform="translate(-26.57)"/><path class="a" d="M249.944,272.531a1.736,1.736,0,0,0-2.452,0l-3.174,3.167a.578.578,0,0,0-.145.241l-.691,2.275a.578.578,0,0,0,.707.725l2.333-.646a.578.578,0,0,0,.254-.148l3.167-3.161A1.736,1.736,0,0,0,249.944,272.531Zm-3.876,4.688-1.174.325.344-1.131,2.141-2.137.818.818Zm3.059-3.053-.112.112-.818-.818.112-.111a.578.578,0,0,1,.818.817Z" transform="translate(-237.188 -264.162)"/><path class="a" d="M112.991,120h-5.954a.578.578,0,1,0,0,1.156h5.954a.578.578,0,0,0,0-1.156Z" transform="translate(-104.15 -116.532)"/></g></g></svg>
