<?xml version="1.0" encoding="UTF-8" standalone="no"?>
<svg
   xmlns:dc="http://purl.org/dc/elements/1.1/"
   xmlns:cc="http://creativecommons.org/ns#"
   xmlns:rdf="http://www.w3.org/1999/02/22-rdf-syntax-ns#"
   xmlns:svg="http://www.w3.org/2000/svg"
   xmlns="http://www.w3.org/2000/svg"
   xmlns:sodipodi="http://sodipodi.sourceforge.net/DTD/sodipodi-0.dtd"
   xmlns:inkscape="http://www.inkscape.org/namespaces/inkscape"
   version="1.1"
   id="svg2"
   xml:space="preserve"
   width="547.6507"
   height="387.47198"
   viewBox="0 0 547.6507 387.47198"
   sodipodi:docname="YACAN-SMART-VERTICAL.ai"><metadata
     id="metadata8"><rdf:RDF><cc:Work
         rdf:about=""><dc:format>image/svg+xml</dc:format><dc:type
           rdf:resource="http://purl.org/dc/dcmitype/StillImage" /></cc:Work></rdf:RDF></metadata><defs
     id="defs6"><radialGradient
       fx="0"
       fy="0"
       cx="0"
       cy="0"
       r="1"
       gradientUnits="userSpaceOnUse"
       gradientTransform="matrix(23.384771,0,0,-23.384771,141.50961,94.309082)"
       spreadMethod="pad"
       id="radialGradient34"><stop
         style="stop-opacity:1;stop-color:#74ccf4"
         offset="0"
         id="stop24" /><stop
         style="stop-opacity:1;stop-color:#00b1e2"
         offset="0.27670694"
         id="stop26" /><stop
         style="stop-opacity:1;stop-color:#00b1e2"
         offset="0.323404"
         id="stop28" /><stop
         style="stop-opacity:1;stop-color:#006cab"
         offset="0.92682872"
         id="stop30" /><stop
         style="stop-opacity:1;stop-color:#006cab"
         offset="1"
         id="stop32" /></radialGradient><radialGradient
       fx="0"
       fy="0"
       cx="0"
       cy="0"
       r="1"
       gradientUnits="userSpaceOnUse"
       gradientTransform="matrix(23.013168,0,0,-23.013168,131.42659,231.5598)"
       spreadMethod="pad"
       id="radialGradient60"><stop
         style="stop-opacity:1;stop-color:#74ccf4"
         offset="0"
         id="stop50" /><stop
         style="stop-opacity:1;stop-color:#00b1e2"
         offset="0.27670694"
         id="stop52" /><stop
         style="stop-opacity:1;stop-color:#00b1e2"
         offset="0.323404"
         id="stop54" /><stop
         style="stop-opacity:1;stop-color:#006cab"
         offset="0.92682872"
         id="stop56" /><stop
         style="stop-opacity:1;stop-color:#006cab"
         offset="1"
         id="stop58" /></radialGradient><radialGradient
       fx="0"
       fy="0"
       cx="0"
       cy="0"
       r="1"
       gradientUnits="userSpaceOnUse"
       gradientTransform="matrix(21.096559,0,0,-21.096559,243.25931,264.30991)"
       spreadMethod="pad"
       id="radialGradient86"><stop
         style="stop-opacity:1;stop-color:#74ccf4"
         offset="0"
         id="stop76" /><stop
         style="stop-opacity:1;stop-color:#00b1e2"
         offset="0.27670694"
         id="stop78" /><stop
         style="stop-opacity:1;stop-color:#00b1e2"
         offset="0.323404"
         id="stop80" /><stop
         style="stop-opacity:1;stop-color:#006cab"
         offset="0.92682872"
         id="stop82" /><stop
         style="stop-opacity:1;stop-color:#006cab"
         offset="1"
         id="stop84" /></radialGradient><radialGradient
       fx="0"
       fy="0"
       cx="0"
       cy="0"
       r="1"
       gradientUnits="userSpaceOnUse"
       gradientTransform="matrix(81.260307,0,0,-81.260307,247.75967,191.55983)"
       spreadMethod="pad"
       id="radialGradient112"><stop
         style="stop-opacity:1;stop-color:#c3c1c0"
         offset="0"
         id="stop102" /><stop
         style="stop-opacity:1;stop-color:#c3c1c0"
         offset="0.02790707"
         id="stop104" /><stop
         style="stop-opacity:1;stop-color:#808385"
         offset="0.346154"
         id="stop106" /><stop
         style="stop-opacity:1;stop-color:#252928"
         offset="0.92699936"
         id="stop108" /><stop
         style="stop-opacity:1;stop-color:#252928"
         offset="1"
         id="stop110" /></radialGradient><radialGradient
       fx="0"
       fy="0"
       cx="0"
       cy="0"
       r="1"
       gradientUnits="userSpaceOnUse"
       gradientTransform="matrix(92.174553,0,0,-92.174553,218.69757,232.80244)"
       spreadMethod="pad"
       id="radialGradient138"><stop
         style="stop-opacity:1;stop-color:#74ccf4"
         offset="0"
         id="stop128" /><stop
         style="stop-opacity:1;stop-color:#00b1e2"
         offset="0.30557428"
         id="stop130" /><stop
         style="stop-opacity:1;stop-color:#00b1e2"
         offset="0.357143"
         id="stop132" /><stop
         style="stop-opacity:1;stop-color:#006cab"
         offset="0.97055617"
         id="stop134" /><stop
         style="stop-opacity:1;stop-color:#006cab"
         offset="1"
         id="stop136" /></radialGradient><clipPath
       clipPathUnits="userSpaceOnUse"
       id="clipPath148"><path
         d="M 0,290.604 H 410.738 V 0 H 0 Z"
         id="path146" /></clipPath><clipPath
       clipPathUnits="userSpaceOnUse"
       id="clipPath156"><path
         d="M 131.386,249.123 H 241.85 V 107.869 H 131.386 Z"
         id="path154" /></clipPath><linearGradient
       x1="0"
       y1="0"
       x2="1"
       y2="0"
       gradientUnits="userSpaceOnUse"
       gradientTransform="matrix(-112.00045,-342.00067,-342.00067,112.00045,268.49313,459.14468)"
       spreadMethod="pad"
       id="linearGradient170"><stop
         style="stop-opacity:1;stop-color:#ffffff"
         offset="0"
         id="stop162" /><stop
         style="stop-opacity:1;stop-color:#ffffff"
         offset="0.0046729"
         id="stop164" /><stop
         style="stop-opacity:1;stop-color:#ffffff"
         offset="0.42472627"
         id="stop166" /><stop
         style="stop-opacity:1;stop-color:#000000"
         offset="1"
         id="stop168" /></linearGradient><clipPath
       clipPathUnits="userSpaceOnUse"
       id="clipPath192"><path
         d="M 139.55,247.8 H 241.637 V 119.517 H 139.55 Z"
         id="path190" /></clipPath><linearGradient
       x1="0"
       y1="0"
       x2="1"
       y2="0"
       gradientUnits="userSpaceOnUse"
       gradientTransform="matrix(-65.000198,-301.0015,-301.0015,65.000198,237.8788,430.92319)"
       spreadMethod="pad"
       id="linearGradient206"><stop
         style="stop-opacity:1;stop-color:#ffffff"
         offset="0"
         id="stop198" /><stop
         style="stop-opacity:1;stop-color:#ffffff"
         offset="0.0046729"
         id="stop200" /><stop
         style="stop-opacity:1;stop-color:#ffffff"
         offset="0.42472627"
         id="stop202" /><stop
         style="stop-opacity:1;stop-color:#000000"
         offset="1"
         id="stop204" /></linearGradient><clipPath
       clipPathUnits="userSpaceOnUse"
       id="clipPath228"><path
         d="m 150.541,245.208 h 90.883 v -67.987 h -90.883 z"
         id="path226" /></clipPath><linearGradient
       x1="0"
       y1="0"
       x2="1"
       y2="0"
       gradientUnits="userSpaceOnUse"
       gradientTransform="matrix(-159.99994,-75.50013,-75.50013,159.99994,327.31696,271.99939)"
       spreadMethod="pad"
       id="linearGradient242"><stop
         style="stop-opacity:1;stop-color:#ffffff"
         offset="0"
         id="stop234" /><stop
         style="stop-opacity:1;stop-color:#ffffff"
         offset="0.0046729"
         id="stop236" /><stop
         style="stop-opacity:1;stop-color:#ffffff"
         offset="0.42472627"
         id="stop238" /><stop
         style="stop-opacity:1;stop-color:#000000"
         offset="1"
         id="stop240" /></linearGradient><clipPath
       clipPathUnits="userSpaceOnUse"
       id="clipPath264"><path
         d="m 207.186,146.257 h 47.608 V 86.7444 h -47.608 z"
         id="path262" /></clipPath><radialGradient
       fx="0"
       fy="0"
       cx="0"
       cy="0"
       r="1"
       gradientUnits="userSpaceOnUse"
       gradientTransform="matrix(26.945131,0,0,-26.945131,230.98993,116.50075)"
       spreadMethod="pad"
       id="radialGradient280"><stop
         style="stop-opacity:1;stop-color:#201914"
         offset="0"
         id="stop270" /><stop
         style="stop-opacity:1;stop-color:#201914"
         offset="0.15611363"
         id="stop272" /><stop
         style="stop-opacity:1;stop-color:#070400"
         offset="0.928571"
         id="stop274" /><stop
         style="stop-opacity:1;stop-color:#070400"
         offset="0.98438275"
         id="stop276" /><stop
         style="stop-opacity:1;stop-color:#070400"
         offset="1"
         id="stop278" /></radialGradient><clipPath
       clipPathUnits="userSpaceOnUse"
       id="clipPath302"><path
         d="m 130.865,144.904 h 72.756 V 98.22 h -72.756 z"
         id="path300" /></clipPath><radialGradient
       fx="0"
       fy="0"
       cx="0"
       cy="0"
       r="1"
       gradientUnits="userSpaceOnUse"
       gradientTransform="matrix(30.563124,0,0,-30.563124,167.24309,121.5618)"
       spreadMethod="pad"
       id="radialGradient320"><stop
         style="stop-opacity:1;stop-color:#0b0700"
         offset="0"
         id="stop308" /><stop
         style="stop-opacity:1;stop-color:#0b0700"
         offset="0.00534759"
         id="stop310" /><stop
         style="stop-opacity:1;stop-color:#0b0700"
         offset="0.14485853"
         id="stop312" /><stop
         style="stop-opacity:1;stop-color:#1c1810"
         offset="0.835165"
         id="stop314" /><stop
         style="stop-opacity:1;stop-color:#1c1810"
         offset="0.96396046"
         id="stop316" /><stop
         style="stop-opacity:1;stop-color:#1c1810"
         offset="1"
         id="stop318" /></radialGradient><clipPath
       clipPathUnits="userSpaceOnUse"
       id="clipPath342"><path
         d="M 123.569,228.935 H 204.04 V 144.904 H 123.569 Z"
         id="path340" /></clipPath><radialGradient
       fx="0"
       fy="0"
       cx="0"
       cy="0"
       r="1"
       gradientUnits="userSpaceOnUse"
       gradientTransform="matrix(41.135479,0,0,-41.135479,163.80438,186.91945)"
       spreadMethod="pad"
       id="radialGradient358"><stop
         style="stop-opacity:1;stop-color:#302722"
         offset="0"
         id="stop348" /><stop
         style="stop-opacity:1;stop-color:#302722"
         offset="0.16442746"
         id="stop350" /><stop
         style="stop-opacity:1;stop-color:#1c1810"
         offset="0.978022"
         id="stop352" /><stop
         style="stop-opacity:1;stop-color:#1c1810"
         offset="0.99519473"
         id="stop354" /><stop
         style="stop-opacity:1;stop-color:#1c1810"
         offset="1"
         id="stop356" /></radialGradient><clipPath
       clipPathUnits="userSpaceOnUse"
       id="clipPath380"><path
         d="m 219.589,252.262 h 22.328 v -63.929 h -22.328 z"
         id="path378" /></clipPath><radialGradient
       fx="0"
       fy="0"
       cx="0"
       cy="0"
       r="1"
       gradientUnits="userSpaceOnUse"
       gradientTransform="matrix(23.941292,0,0,-23.941292,230.75305,220.29739)"
       spreadMethod="pad"
       id="radialGradient392"><stop
         style="stop-opacity:1;stop-color:#302722"
         offset="0"
         id="stop386" /><stop
         style="stop-opacity:1;stop-color:#302722"
         offset="0.16812245"
         id="stop388" /><stop
         style="stop-opacity:1;stop-color:#2e2822"
         offset="1"
         id="stop390" /></radialGradient><radialGradient
       fx="0"
       fy="0"
       cx="0"
       cy="0"
       r="1"
       gradientUnits="userSpaceOnUse"
       gradientTransform="matrix(82.196045,0,0,-82.196045,204.92667,142.06044)"
       spreadMethod="pad"
       id="radialGradient430"><stop
         style="stop-opacity:1;stop-color:#74ccf4"
         offset="0"
         id="stop420" /><stop
         style="stop-opacity:1;stop-color:#00b1e2"
         offset="0.27670694"
         id="stop422" /><stop
         style="stop-opacity:1;stop-color:#00b1e2"
         offset="0.323404"
         id="stop424" /><stop
         style="stop-opacity:1;stop-color:#006cab"
         offset="0.92682872"
         id="stop426" /><stop
         style="stop-opacity:1;stop-color:#006cab"
         offset="1"
         id="stop428" /></radialGradient><radialGradient
       fx="0"
       fy="0"
       cx="0"
       cy="0"
       r="1"
       gradientUnits="userSpaceOnUse"
       gradientTransform="matrix(63.158314,0,0,-63.158314,225.59406,198.72617)"
       spreadMethod="pad"
       id="radialGradient456"><stop
         style="stop-opacity:1;stop-color:#74ccf4"
         offset="0"
         id="stop446" /><stop
         style="stop-opacity:1;stop-color:#00b1e2"
         offset="0.27670694"
         id="stop448" /><stop
         style="stop-opacity:1;stop-color:#00b1e2"
         offset="0.323404"
         id="stop450" /><stop
         style="stop-opacity:1;stop-color:#006cab"
         offset="0.92682872"
         id="stop452" /><stop
         style="stop-opacity:1;stop-color:#006cab"
         offset="1"
         id="stop454" /></radialGradient></defs><sodipodi:namedview
     pagecolor="#ffffff"
     bordercolor="#666666"
     borderopacity="1"
     objecttolerance="10"
     gridtolerance="10"
     guidetolerance="10"
     inkscape:pageopacity="0"
     inkscape:pageshadow="2"
     inkscape:window-width="640"
     inkscape:window-height="480"
     id="namedview4" /><g
     id="g10"
     inkscape:groupmode="layer"
     inkscape:label="YACAN-SMART-VERTICAL"
     transform="matrix(1.3333333,0,0,-1.3333333,0,387.472)"><g
       id="g12"><g
         id="g14"><g
           id="g20"><g
             id="g22"><path
               d="m 149.672,94.209 c -4.723,2.397 -6.138,10.55 -5.544,17.9 v 0 l -11.706,14.49 c -3.343,-9.15 -0.79,-36.669 17.25,-32.39"
               style="fill:url(#radialGradient34);stroke:none"
               id="path36" /></g></g></g></g><g
       id="g38"><g
         id="g40"><g
           id="g46"><g
             id="g48"><path
               d="m 124.719,198.857 1.792,1.809 5.117,8.72 c -1.198,6.837 -1.757,18.577 5.518,20.096 v 0 c -0.873,0.197 -1.718,0.292 -2.53,0.292 v 0 c -10.065,0.001 -15.219,-14.623 -9.897,-30.917"
               style="fill:url(#radialGradient60);stroke:none"
               id="path62" /></g></g></g></g><g
       id="g64"><g
         id="g66"><g
           id="g72"><g
             id="g74"><path
               d="m 220.899,251.771 c 3.705,-0.817 7.393,-2.08 10.913,-3.376 v 0 c 3.658,4.43 8.115,7.565 10.991,4.554 v 0 c 1.656,7.519 -0.173,11.955 -4.389,11.955 v 0 c -4.001,10e-4 -10.151,-3.992 -17.515,-13.133"
               style="fill:url(#radialGradient86);stroke:none"
               id="path88" /></g></g></g></g><g
       id="g90"><g
         id="g92"><g
           id="g98"><g
             id="g100"><path
               d="m 183.374,78.116 c 10.104,0.532 18.757,5.954 23.812,8.629 v 0 c 1.744,0.083 3.494,0.213 5.254,0.407 v 0 c 30.475,3.358 55.709,22.754 67.482,48.815 v 0 c 10.372,22.959 9.677,54.212 -4.154,75.835 v 0 c 0.35,10.928 -0.235,22.042 -3.863,32.471 v 0 c 1.846,-46.7 -39.142,-139.349 -88.531,-166.157"
               style="fill:url(#radialGradient112);stroke:none"
               id="path114" /></g></g></g></g><g
       id="g116"><g
         id="g118"><g
           id="g124"><g
             id="g126"><path
               d="m 194.026,253.374 c -6.122,-0.675 -12.014,-1.997 -17.619,-3.887 v 0 c 24.027,-13.73 35.396,-21.782 49.163,-63.358 v 0 c 7.969,19.138 17.506,42.684 16.232,58.294 v 0 c -11.929,6.224 -25.135,9.457 -38.57,9.458 v 0 c -3.061,0 -6.133,-0.168 -9.206,-0.507 m -74.219,-88 c 1.664,-27.734 17.043,-53.049 40.961,-67.154 v 0 c 12.505,3.308 29.554,23.392 43.774,46.356 v 0 c -12.151,50.092 -39.655,81.813 -60.918,84.359 v 0 C 127.15,212.186 118.406,188.769 119.807,165.374"
               style="fill:url(#radialGradient138);stroke:none"
               id="path140" /></g></g></g></g><g
       id="g142"><g
         id="g144"
         clip-path="url(#clipPath148)"><g
           id="g150"><g
             id="g152" /><g
             id="g184"><g
               clip-path="url(#clipPath156)"
               opacity="0.470001"
               id="g182"><g
                 id="g180"><g
                   id="g178"><g
                     id="g176"><g
                       id="g174"><path
                         d="m 204.816,249.123 c -7.665,0 -15.053,-1.18 -21.999,-3.364 19.761,-11.797 30.271,-21.933 42.753,-59.63 7.105,17.063 15.456,37.634 16.28,52.956 -10.874,6.379 -23.527,10.038 -37.034,10.038 m -52.872,-22.532 c -12.728,-13.234 -20.558,-31.231 -20.558,-51.058 0,-30.352 18.345,-56.415 44.526,-67.664 9.425,8.701 19.599,22.121 28.63,36.707 -10.615,43.759 -32.946,73.497 -52.598,82.015"
                         style="fill:url(#linearGradient170);fill-rule:evenodd;stroke:none"
                         id="path172" /></g></g></g></g></g></g></g><g
           id="g186"><g
             id="g188" /><g
             id="g220"><g
               clip-path="url(#clipPath192)"
               opacity="0.350006"
               id="g218"><g
                 id="g216"><g
                   id="g214"><g
                     id="g212"><g
                       id="g210"><path
                         d="m 204.816,247.8 c -7.023,0 -13.783,-1.116 -20.123,-3.174 18.563,-11.344 28.796,-22.012 40.877,-58.497 6.698,16.085 14.503,35.285 16.067,50.269 -10.482,7.192 -23.161,11.402 -36.821,11.402 m -49.548,-22.839 c -9.797,-11.441 -15.718,-26.314 -15.718,-42.57 0,-29.847 19.957,-55.028 47.225,-62.874 6.06,7.327 12.136,15.966 17.767,25.059 -10.02,41.308 -30.482,70.121 -49.274,80.385"
                         style="fill:url(#linearGradient206);fill-rule:evenodd;stroke:none"
                         id="path208" /></g></g></g></g></g></g></g><g
           id="g222"><g
             id="g224" /><g
             id="g256"><g
               clip-path="url(#clipPath228)"
               opacity="0.509995"
               id="g254"><g
                 id="g252"><g
                   id="g250"><g
                     id="g248"><g
                       id="g246"><path
                         d="m 203.297,245.208 c -5.84,0 -11.456,-0.617 -16.707,-1.757 17.376,-10.936 27.317,-22.098 38.98,-57.322 6.435,15.454 13.892,33.784 15.854,48.486 -9.605,6.527 -23.137,10.593 -38.127,10.593 m -48.111,-20.201 c -2.984,-4.299 -4.645,-9.069 -4.645,-14.091 0,-16.754 18.497,-30.703 42.938,-33.695 -10.712,23.867 -24.929,40.522 -38.293,47.786"
                         style="fill:url(#linearGradient242);fill-rule:evenodd;stroke:none"
                         id="path244" /></g></g></g></g></g></g></g><g
           id="g258"><g
             id="g260" /><g
             id="g294"><g
               clip-path="url(#clipPath264)"
               id="g292"><g
                 id="g290"><g
                   id="g288"><g
                     id="g286"><g
                       id="g284"><path
                         d="m 254.794,146.257 c -12.215,-24.491 -26.946,-44.561 -47.608,-59.513 1.744,0.084 3.494,0.214 5.254,0.408 2.949,0.325 5.847,0.8 8.691,1.417 13.803,13.01 28.196,39.685 33.663,57.688"
                         style="fill:url(#radialGradient280);fill-rule:evenodd;stroke:none"
                         id="path282" /></g></g></g></g></g></g></g><g
           id="g296"><g
             id="g298" /><g
             id="g334"><g
               clip-path="url(#clipPath302)"
               id="g332"><g
                 id="g330"><g
                   id="g328"><g
                     id="g326"><g
                       id="g324"><path
                         d="m 203.621,143.102 -0.257,1.801 C 186.051,122.06 157.012,94.52 130.865,128.514 c 7.103,-12.346 17.319,-22.873 29.902,-30.294 12.238,3.237 28.824,22.538 42.854,44.882"
                         style="fill:url(#radialGradient320);fill-rule:evenodd;stroke:none"
                         id="path322" /></g></g></g></g></g></g></g><g
           id="g336"><g
             id="g338" /><g
             id="g372"><g
               clip-path="url(#clipPath342)"
               id="g370"><g
                 id="g368"><g
                   id="g366"><g
                     id="g364"><g
                       id="g362"><path
                         d="m 203.364,144.903 0.676,1.686 v 0.001 c -12.392,48.927 -39.44,79.833 -60.417,82.345 -9.285,-9.441 -16.113,-20.998 -20.054,-33.478 29.095,38.787 67.889,-16.59 79.795,-50.554"
                         style="fill:url(#radialGradient358);fill-rule:evenodd;stroke:none"
                         id="path360" /></g></g></g></g></g></g></g><g
           id="g374"><g
             id="g376" /><g
             id="g406"><g
               clip-path="url(#clipPath380)"
               id="g404"><g
                 id="g402"><g
                   id="g400"><g
                     id="g398"><g
                       id="g396"><path
                         d="m 226.486,188.333 c 7.764,18.715 16.541,41.074 15.316,56.09 -7.033,3.669 -14.508,6.298 -22.213,7.839 25.147,-7.621 11.792,-39.395 6.213,-62.317 z"
                         style="fill:url(#radialGradient392);fill-rule:evenodd;stroke:none"
                         id="path394" /></g></g></g></g></g></g></g></g></g><g
       id="g408"><g
         id="g410"><g
           id="g416"><g
             id="g418"><path
               d="m 123.569,195.458 c 0.36,1.141 0.743,2.273 1.15,3.399 v 0 c -12.62,55.795 57.312,33.986 78.645,-53.953 v 0 C 178.011,103.962 148.666,83.676 137.042,99.4 v 0 c -5.338,7.219 -5.654,17.383 -4.296,25.993 v 0 c -0.656,1.034 -1.288,2.079 -1.898,3.141 v 0 c -4.15,-17.606 -2.81,-40.234 13.104,-41.295 v 0 c 26.146,-1.743 51.636,38.161 63.312,57.016 v 0 c -2.18,21.007 -24.312,72.439 -52.526,88.164 v 0 c -6.408,3.571 -11.88,5.141 -16.437,5.141 v 0 c -16.771,0.002 -21.204,-21.237 -14.732,-42.102"
               style="fill:url(#radialGradient430);stroke:none"
               id="path432" /></g></g></g></g><g
       id="g434"><g
         id="g436"><g
           id="g442"><g
             id="g444"><path
               d="m 219.576,252.266 c 0.556,-0.111 1.11,-0.229 1.663,-0.351 v 0 c 18.605,19.566 22.903,12.865 21.295,-2.225 v 0 c -2.167,-20.382 -8.897,-40.931 -16.732,-59.744 v 0 c -11.702,36.975 -36.571,77.259 -82.615,61.648 v 0 c 45.1,8.134 71.751,-33.154 82.474,-69.873 v 0 c 9.469,22.734 18.136,42.34 21.732,66.89 v 0 c 1.678,11.46 0.849,20.996 -5.339,20.996 v 0 c -4.417,10e-4 -11.563,-4.857 -22.478,-17.341"
               style="fill:url(#radialGradient456);stroke:none"
               id="path458" /></g></g></g></g><text
       transform="matrix(1,0,0,-1,29.0845,31.9512)"
       style="font-variant:normal;font-weight:normal;font-stretch:normal;font-size:50px;font-family:Sansation;-inkscape-font-specification:Sansation-Regular;writing-mode:lr-tb;fill:#2d3031;fill-opacity:1;fill-rule:nonzero;stroke:none"
       id="text462"><tspan
         x="0 28.075001 64.025002 97.824997 133.77499 172.22501 184.425 215.925 260.82501 296.77499 328.625"
         y="0"
         sodipodi:role="line"
         id="tspan460">YACAN SMART</tspan></text></g></svg>
