<svg xmlns="http://www.w3.org/2000/svg" width="22.888" height="17.336" viewBox="0 0 22.888 17.336"><defs><style>.a{fill:#002cfa;}</style></defs><path class="a" d="M198.345,109.839l-5.818-3.183a1.069,1.069,0,0,0-1.582.937v6.312a1.067,1.067,0,0,0,1.575.941l5.818-3.129a1.069,1.069,0,0,0,.007-1.879Zm-5.856,3.272v-4.718l4.348,2.379Zm0,0" transform="translate(-182.7 -101.52)"/><path class="a" d="M22.72,4.092v-.01A5.234,5.234,0,0,0,21.71,1.425,3.724,3.724,0,0,0,19.243.268L19.129.255l-.04,0C16.064.03,11.494,0,11.448,0H11.44c-.046,0-4.615.03-7.669.25l-.04,0L3.624.268A3.631,3.631,0,0,0,1.172,1.46a5.486,5.486,0,0,0-1,2.608l0,.023C.162,4.168,0,5.993,0,7.825V9.538C0,11.37.162,13.2.168,13.272v.012a5.183,5.183,0,0,0,1.005,2.624,3.8,3.8,0,0,0,2.549,1.14c.093.011.173.02.228.029L4,17.084c1.747.166,7.225.248,7.457.251h.014c.046,0,4.615-.03,7.641-.25l.04,0,.128-.014A3.547,3.547,0,0,0,21.717,15.9a5.485,5.485,0,0,0,1-2.608l0-.023c.007-.077.169-1.9.169-3.734V7.825C22.888,5.993,22.727,4.168,22.72,4.092ZM21.547,9.538c0,1.7-.148,3.442-.162,3.6A4.258,4.258,0,0,1,20.727,15a2.206,2.206,0,0,1-1.583.734L19,15.749c-2.927.212-7.324.244-7.526.245-.227,0-5.625-.086-7.319-.243-.087-.014-.181-.025-.279-.036A2.508,2.508,0,0,1,2.161,15l-.012-.013A3.864,3.864,0,0,1,1.5,13.146c-.011-.121-.163-1.888-.163-3.608V7.825c0-1.694.148-3.438.162-3.6a4.172,4.172,0,0,1,.658-1.859A2.314,2.314,0,0,1,3.778,1.6l.109-.013c2.969-.213,7.4-.244,7.557-.246s4.586.033,7.529.246l.118.014a2.4,2.4,0,0,1,1.643.744l.005.006a3.926,3.926,0,0,1,.645,1.866c.01.114.163,1.885.163,3.608Zm0,0"/></svg>