<svg xmlns="http://www.w3.org/2000/svg" xmlns:xlink="http://www.w3.org/1999/xlink" viewBox="0 0 76.52 72.8"><defs><style>.cls-1{filter:url(#AI_FlouGaussien_4);}.cls-2{fill:#333;}.cls-3{fill:url(#linear-gradient);}.cls-4{fill:url(#linear-gradient-2);}.cls-5{fill:url(#linear-gradient-3);}.cls-6{fill:url(#linear-gradient-4);}.cls-7{fill:url(#linear-gradient-5);}.cls-8{fill:url(#linear-gradient-6);}.cls-9{fill:url(#linear-gradient-7);}.cls-10{fill:url(#linear-gradient-8);}.cls-11{fill:url(#linear-gradient-9);}.cls-12{fill:url(#linear-gradient-10);}.cls-13{fill:url(#linear-gradient-11);}.cls-14{mask:url(#mask);}.cls-15{fill:url(#Dégradé_sans_nom_20);}.cls-16{fill:url(#Dégradé_sans_nom_20-2);}.cls-17{fill:url(#Dégradé_sans_nom_20-3);}.cls-18{fill:url(#Dégradé_sans_nom_20-4);}.cls-19{fill:url(#Dégradé_sans_nom_20-5);}.cls-20{fill:url(#Dégradé_sans_nom_20-6);}.cls-21{fill:url(#Dégradé_sans_nom_20-7);}.cls-22{fill:url(#Dégradé_sans_nom_20-8);}.cls-23{fill:url(#Dégradé_sans_nom_20-9);}.cls-24{fill:url(#Dégradé_sans_nom_20-10);}.cls-25{filter:url(#luminosity-invert);}</style><filter id="AI_FlouGaussien_4" name="AI_FlouGaussien_4"><feGaussianBlur stdDeviation="4"/></filter><linearGradient id="linear-gradient" x1="66.96" y1="65.83" x2="5.05" y2="20.86" gradientUnits="userSpaceOnUse"><stop offset="0" stop-color="#b56101"/><stop offset="0.9" stop-color="#d79e13"/><stop offset="1" stop-color="#fee227"/></linearGradient><linearGradient id="linear-gradient-2" x1="53.04" y1="22.81" x2="57.38" y2="33.98" gradientUnits="userSpaceOnUse"><stop offset="0" stop-color="#d69b12"/><stop offset="1" stop-color="#fee227"/></linearGradient><linearGradient id="linear-gradient-3" x1="61.15" y1="45.19" x2="57.41" y2="34.09" xlink:href="#linear-gradient"/><linearGradient id="linear-gradient-4" x1="26.43" y1="20.12" x2="38.25" y2="20.12" gradientUnits="userSpaceOnUse"><stop offset="0" stop-color="#b56101"/><stop offset="1" stop-color="#fee227"/></linearGradient><linearGradient id="linear-gradient-5" x1="50.09" y1="20.12" x2="38.21" y2="20.12" gradientUnits="userSpaceOnUse"><stop offset="0" stop-color="#b56101"/><stop offset="0.92" stop-color="#e1ae18"/><stop offset="1" stop-color="#fee227"/></linearGradient><linearGradient id="linear-gradient-6" x1="59.7" y1="49.72" x2="50.02" y2="56.56" gradientUnits="userSpaceOnUse"><stop offset="0" stop-color="#b56101"/><stop offset="0.93" stop-color="#f9d924"/><stop offset="1" stop-color="#fee227"/></linearGradient><linearGradient id="linear-gradient-7" x1="23.04" y1="22.79" x2="19.23" y2="33.74" xlink:href="#linear-gradient-2"/><linearGradient id="linear-gradient-8" x1="15.55" y1="45.33" x2="19.15" y2="33.99" xlink:href="#linear-gradient"/><linearGradient id="linear-gradient-9" x1="16.86" y1="49.63" x2="26.51" y2="56.57" gradientUnits="userSpaceOnUse"><stop offset="0" stop-color="#b56101"/><stop offset="1" stop-color="#f5d323"/></linearGradient><linearGradient id="linear-gradient-10" x1="40.29" y1="63.3" x2="49.86" y2="56.67" gradientUnits="userSpaceOnUse"><stop offset="0" stop-color="#b56101"/><stop offset="0.91" stop-color="#dfab17"/><stop offset="1" stop-color="#f2cd21"/></linearGradient><linearGradient id="linear-gradient-11" x1="36" y1="63.46" x2="26.43" y2="56.52" xlink:href="#linear-gradient"/><filter id="luminosity-invert" filterUnits="userSpaceOnUse" color-interpolation-filters="sRGB"><feColorMatrix values="-1 0 0 0 1 0 -1 0 0 1 0 0 -1 0 1 0 0 0 1 0"/></filter><mask id="mask" x="0" y="-11.49" width="76.52" height="102" maskUnits="userSpaceOnUse"><g class="cls-25"><g transform="translate(-7.65 -7.28)"><rect x="65.11" y="-4.21" width="19.06" height="102"/></g></g></mask><linearGradient id="Dégradé_sans_nom_20" x1="53.04" y1="22.81" x2="57.38" y2="33.98" gradientUnits="userSpaceOnUse"><stop offset="0.02" stop-color="#0d4955"/><stop offset="1" stop-color="#1c7b8f"/></linearGradient><linearGradient id="Dégradé_sans_nom_20-2" x1="61.15" y1="45.19" x2="55.74" y2="29.11" xlink:href="#Dégradé_sans_nom_20"/><linearGradient id="Dégradé_sans_nom_20-3" x1="26.43" y1="20.12" x2="38.25" y2="20.12" xlink:href="#Dégradé_sans_nom_20"/><linearGradient id="Dégradé_sans_nom_20-4" x1="47.09" y1="20.12" x2="28.29" y2="20.12" xlink:href="#Dégradé_sans_nom_20"/><linearGradient id="Dégradé_sans_nom_20-5" x1="59.7" y1="49.72" x2="45.46" y2="59.78" xlink:href="#Dégradé_sans_nom_20"/><linearGradient id="Dégradé_sans_nom_20-6" x1="23.04" y1="22.79" x2="19.23" y2="33.74" xlink:href="#Dégradé_sans_nom_20"/><linearGradient id="Dégradé_sans_nom_20-7" x1="15.55" y1="45.33" x2="22.12" y2="24.64" xlink:href="#Dégradé_sans_nom_20"/><linearGradient id="Dégradé_sans_nom_20-8" x1="16.86" y1="49.63" x2="33.73" y2="61.76" xlink:href="#Dégradé_sans_nom_20"/><linearGradient id="Dégradé_sans_nom_20-9" x1="40.29" y1="63.3" x2="55.47" y2="52.78" xlink:href="#Dégradé_sans_nom_20"/><linearGradient id="Dégradé_sans_nom_20-10" x1="31.43" y1="60.71" x2="20.43" y2="51.46" xlink:href="#Dégradé_sans_nom_20"/></defs><title>GS-Etoiles-ombreFichier 14</title><g id="Calque_2" data-name="Calque 2"><g id="Calque_1-2" data-name="Calque 1"><g class="cls-1"><polygon class="cls-2" points="57.39 46.46 76.52 27.8 76.52 27.8 50.09 23.96 50.09 23.96 38.27 0 38.26 0.02 38.26 0 26.43 23.96 26.44 23.97 0 27.81 19.14 46.47 19.14 46.47 14.62 72.78 14.62 72.78 14.62 72.78 14.62 72.8 14.64 72.77 38.26 60.36 61.91 72.79 57.39 46.46 57.39 46.46"/></g><polygon class="cls-3" points="38.27 40.24 38.27 40.24 57.39 46.46 76.52 27.8 38.27 40.23 38.27 40.23 76.52 27.8 50.09 23.96 50.09 23.96 38.27 0 38.26 0.02 38.26 0 26.43 23.96 26.44 23.97 0 27.81 19.14 46.47 38.26 40.25 38.26 40.25 19.14 46.47 14.62 72.78 14.62 72.78 14.62 72.78 14.62 72.8 14.64 72.77 38.26 60.36 61.91 72.79 57.39 46.46 38.27 40.24"/><polygon class="cls-4" points="76.52 27.8 50.08 23.96 38.26 40.24 76.52 27.8"/><polygon class="cls-5" points="76.52 27.8 38.26 40.24 57.39 46.46 76.52 27.8"/><polygon class="cls-6" points="38.26 40.24 38.26 0 26.43 23.96 38.26 40.24 38.26 40.24"/><polygon class="cls-7" points="38.27 0 38.26 0.02 38.26 40.24 38.26 40.24 38.26 40.25 50.09 23.96 38.27 0"/><polygon class="cls-8" points="61.91 72.79 57.39 46.46 38.26 40.24 61.91 72.79"/><polygon class="cls-9" points="0 27.81 26.44 23.97 38.27 40.25 0 27.81"/><polygon class="cls-10" points="0 27.81 38.27 40.25 19.14 46.47 0 27.81"/><polygon class="cls-11" points="14.62 72.8 19.14 46.47 38.27 40.25 14.62 72.8"/><polygon class="cls-12" points="38.26 40.24 38.26 60.36 61.91 72.79 38.26 40.24"/><polygon class="cls-13" points="14.62 72.78 38.26 60.36 38.26 40.25 14.62 72.78"/><g class="cls-14"><polygon class="cls-15" points="76.52 27.8 50.08 23.96 38.26 40.24 76.52 27.8"/><polygon class="cls-16" points="76.52 27.8 38.26 40.24 57.39 46.46 76.52 27.8"/><polygon class="cls-17" points="38.26 40.24 38.26 0 26.43 23.96 38.26 40.24 38.26 40.24"/><polygon class="cls-18" points="38.27 0 38.26 0.02 38.26 40.24 38.26 40.24 38.26 40.25 50.09 23.96 38.27 0"/><polygon class="cls-19" points="61.91 72.79 57.39 46.46 38.26 40.24 61.91 72.79"/><polygon class="cls-20" points="0 27.81 26.44 23.97 38.27 40.25 0 27.81"/><polygon class="cls-21" points="0 27.81 38.27 40.25 19.14 46.47 0 27.81"/><polygon class="cls-22" points="14.62 72.8 19.14 46.47 38.27 40.25 14.62 72.8"/><polygon class="cls-23" points="38.26 40.24 38.26 60.36 61.91 72.79 38.26 40.24"/><polygon class="cls-24" points="14.62 72.78 38.26 60.36 38.26 40.25 14.62 72.78"/></g></g></g></svg>