<?xml version="1.0" encoding="utf-8"?>
<!-- Generator: Adobe Illustrator 16.0.0, SVG Export Plug-In . SVG Version: 6.00 Build 0)  -->
<!DOCTYPE svg PUBLIC "-//W3C//DTD SVG 1.1//EN" "http://www.w3.org/Graphics/SVG/1.1/DTD/svg11.dtd">
<svg version="1.1" id="Calque_1" xmlns="http://www.w3.org/2000/svg" xmlns:xlink="http://www.w3.org/1999/xlink" x="0px" y="0px"
	 width="16.001px" height="16px" viewBox="0 0 16.001 16" enable-background="new 0 0 16.001 16" xml:space="preserve">
<g>
	<g>
		<g>
			<polygon fill="#757575" points="16.001,4.5 15.001,4.5 15.001,1 11.501,1 11.501,0 16.001,0 			"/>
		</g>
		<g>
			
				<rect x="11.733" y="-0.854" transform="matrix(0.7071 0.7071 -0.7071 0.7071 6.247 -7.5465)" fill="#757575" width="1" height="9.243"/>
		</g>
		<g>
			<polygon fill="#757575" points="4.5,16 0,16 0,11.5 1,11.5 1,15 4.5,15 			"/>
		</g>
		<g>
			
				<rect x="3.268" y="7.611" transform="matrix(0.7071 0.7071 -0.7071 0.7071 9.7533 0.9184)" fill="#757575" width="1" height="9.243"/>
		</g>
	</g>
	<g>
		<g>
			<polygon fill="#757575" points="3,5.5 2,5.5 2,2 5.5,2 5.5,3 3,3 			"/>
		</g>
		<g>
			<rect x="2" y="6.5" fill="#757575" width="1" height="3"/>
		</g>
		<g>
			<rect x="6.501" y="2" fill="#757575" width="2.999" height="1"/>
		</g>
	</g>
	<g>
		<g>
			<polygon fill="#757575" points="14.001,14 10.501,14 10.501,13 13.001,13 13.001,10.5 14.001,10.5 			"/>
		</g>
		<g>
			<rect x="13.001" y="6.5" fill="#757575" width="1" height="2.998"/>
		</g>
		<g>
			<rect x="6.5" y="13" fill="#757575" width="3" height="1"/>
		</g>
	</g>
</g>
</svg>
