<?xml version="1.0" encoding="utf-8"?>
<!DOCTYPE svg PUBLIC "-//W3C//DTD SVG 1.1//EN" "http://www.w3.org/Graphics/SVG/1.1/DTD/svg11.dtd">
<svg
  version="1.1"
  id="Layer_1"
  xmlns="http://www.w3.org/2000/svg"
  xmlns:xlink="http://www.w3.org/1999/xlink"
  x="0px"
  y="0px"
  width="300px"
  height="100px"
  viewBox="0 0 300 100"
  enable-background="new 0 0 300 100"
  xml:space="preserve"
>
  <title>Custeed-Widget-Rectangle-Transparent</title>
  <style>
    .cls-1{isolation:isolate;}.cls-12,.cls-2{fill:#152543;}.cls-3{mask:url(#mask);}.cls-4{mix-blend-mode:multiply;}.cls-5{fill:url(#Dégradé_sans_nom_141);}.cls-6{fill:url(#Dégradé_sans_nom_152);}.cls-7{fill:url(#Dégradé_sans_nom_2);}.cls-8{fill:#999;}.cls-9{stroke:#999;stroke-miterlimit:10;stroke-width:1.01px;fill:url(#Dégradé_sans_nom_26);}.cls-10{fill:#FFFFFF; opacity: 0.5;}.cls-11{fill:#e6e6e6;}.cls-12{opacity:0.5;}.cls-13{filter:url(#luminosity-invert);}
    .cls-14{fill:#182542;}.cls-15{fill:#182641;}.cls-16{fill:#fff;fill-rule:evenodd;}.cls-17{fill:#e73951;}.cls-18{fill:#eb6435;}.cls-19{fill:#f39421;}.cls-20{fill:#f0b90f;}.cls-21{fill:#a7b94e;}.cls-22{fill:#7fb76f;}.cls-23{fill:#43b7ac;}
  </style>
  <path d="M152.109,6.777l-1.045,1.809c0.354,0.207,0.652,0.492,0.877,0.834l1.255-0.468l-1.05,0.853
    c0.271,0.619,0.292,1.32,0.057,1.954l1.956,0.731c0.806-2.149-0.063-4.566-2.054-5.709L152.109,6.777z"/>
  <path d="M149.565,10.307c-0.302,0.172-0.408,0.556-0.237,0.857c0.172,0.302,0.556,0.408,0.857,0.237l0,0l1.97-1.6
    c-0.059-0.133-0.129-0.261-0.209-0.382L149.565,10.307z"/>
  <g
    id="Calque_2"
    data-name="Calque 2"
    transform="translate(125,2) scale(0.3 0.3)"
  >
    <g id="Calque_1-2" data-name="Calque 1">

      <path class="cls-15" d="M84.3,3.5c32.82-.77,50.4,41.68,26.65,64.34a37.68,37.68,0,0,1-26.65,11c-8.6,0-29.89,2.75-29.89,2.75-.84-4-12.84-42.28-5-54.87A37.84,37.84,0,0,1,84.3,3.5Z"/>
      <path class="cls-16" d="M89.86,63.09c2.25-18.71-.77-14.17,10.84-29.54L98.12,22,86.33,23.17C75.22,39,78.61,34.67,61.49,42.6l8.57,6.21,4-5.53c.26.35,2.25,1.21,1.93,1.82L68.35,62.87,83,50.14c.5-.44,2,1.09,2.35,1.25l-4,5.53Zm.94-24.77C89,40.89,85,38.36,84.33,36c-.5-1.63,2.59-4.57,3.29-5.82a2.75,2.75,0,0,1,1.77-1.09c1.32-.33,2.64,1,3.61,1.66C96.06,32.83,92,36.43,90.8,38.32Z"/>
      <path class="cls-17" d="M102.67,72.69a36.68,36.68,0,0,1-35,1.55L55.25,80.9l2-14.36C46.58,55.29,44.33,37.55,52,24.28v0L47.62,21c-8.4,14-7.12,32.57,2.61,45.62L48.32,90.4l21.76-9.31a42,42,0,0,0,42.85-9.59L109,70.68Z"/>
      <path class="cls-18" d="M50.64,56.7a76,76,0,0,1-2.7-8.81L42,43.32a35.46,35.46,0,0,0,1.87,10.34l8.65,6.69A34.23,34.23,0,0,1,50.64,56.7Z"/>
      <path class="cls-19" d="M93.55,82.2a42.18,42.18,0,0,0,7.11-2.4L95.7,76a36.77,36.77,0,0,1-9,1.9l5.9,4.56Z"/>
      <path class="cls-20" d="M42.58,34.84l5,3.84A35.45,35.45,0,0,1,49.06,31l-4.52-3.5A40.87,40.87,0,0,0,42.58,34.84Z"/>
      <path class="cls-21" d="M112.94,71.51l-4.32-3.34a35.9,35.9,0,0,1-5.78,4.41l4.52,3.5A42.13,42.13,0,0,0,112.94,71.51Z"/>
      <path class="cls-21" d="M44.54,27.47,49.06,31a34.28,34.28,0,0,1,2.88-6.67L47.62,21A39.94,39.94,0,0,0,44.54,27.47Z"/>
      <path class="cls-20" d="M102.83,72.58A35.53,35.53,0,0,1,95.7,76l5,3.84a40.47,40.47,0,0,0,6.69-3.72Z"/>
      <path class="cls-19" d="M47.93,47.85a36.61,36.61,0,0,1-.39-9.17l-5-3.84A40.14,40.14,0,0,0,42,43.32l5.9,4.57S47.94,47.86,47.93,47.85Z"/>
      <path class="cls-18" d="M86.66,77.85a36.18,36.18,0,0,1-13.25-1.36l8.84,6.85a42,42,0,0,0,10.31-.92Z"/>
      <path class="cls-22" d="M113.26,62.87a35.39,35.39,0,0,1-4.64,5.3l4.32,3.34a41.7,41.7,0,0,0,4.6-5.33Z"/>
      <path class="cls-22" d="M50,17.35A39.26,39.26,0,0,0,47.62,21l4.32,3.34a36.22,36.22,0,0,1,4-5.8l-4.28-3.31Q50.79,16.23,50,17.35Z"/>
      <path class="cls-23" d="M51.66,15.19l4.28,3.31c30.64-34.43,83.22,6.09,57.32,44.37l4.28,3.31c30-44-30.66-91-65.83-51.06"/>

      <g
        id="Groupe_4"
        data-name="Groupe 4"
        transform="translate(20,-5) scale(0.70 0.70)"
      >
        <path
          id="Tracé_21"
          data-name="Tracé 21"
          class="cls-2"
          d="M10.3,148.48C1.72,148.48,0,154.73,0,164.8s1.72,16.32,10.3,16.32c3.78.31,10.27-2.35,9.33-10.47H15.06c.35,3.37-.46,6.47-4.76,6.31-5.64,0-6.1-5.51-6.1-12.16s.46-12.16,6.1-12.16c4.38-.18,5.32,2.9,5,6.37H19.4C20.43,150.88,14.24,148.17,10.3,148.48Z"
        />
        <path
          id="Tracé_22"
          data-name="Tracé 22"
          class="cls-2"
          d="M27.16,148.75v22.88c0,6.32,3.2,9.52,9.51,9.52s9.66-3.2,9.66-9.52V148.75H42v22.88A5.34,5.34,0,0,1,36.68,177c-3.59,0-5.19-1.65-5.19-5.36V148.75Z"
        />
        <path
          id="Tracé_23"
          data-name="Tracé 23"
          class="cls-2"
          d="M53.63,170c.09,3.9-.47,10.5,10.36,11.07,8.3,0,9.19-5.88,9.19-8.41,0-6.49-4.58-8.18-8.62-9.68-16.56-5.34,4.38-18.64,3.9-3.71H72.8c1.8-13.58-18.32-14.69-18.61-2.06,0,6.52,4.45,8.23,8.74,9.92,2.85,1.09,6.09,2.32,6.09,5.53,0,1-.35,4.25-4.92,4.25-4.94.1-6.57-3-6.13-6.91Z"
        />
        <path
          id="Tracé_24"
          data-name="Tracé 24"
          class="cls-2"
          d="M84.21,180.92h4.34V152.85h6.38v-4.1H77.82v4.1h6.39Z"
        />
        <path
          id="Tracé_25"
          data-name="Tracé 25"
          class="cls-2"
          d="M102.24,180.92h15.29v-4.11h-11v-9.12h8.9v-4.11h-9.12V152.85h10.72v-4.1H102.24Z"
        />
        <path
          id="Tracé_26"
          data-name="Tracé 26"
          class="cls-2"
          d="M125.06,180.92h15.29v-4.11h-11v-9.12h8.9v-4.11h-8.9V152.85h10.5v-4.1H125.06Z"
        />
        <path
          id="Tracé_27"
          data-name="Tracé 27"
          class="cls-2"
          d="M157.16,148.75h-9v32.17h9c8.67,0,10.44-6.43,10.44-16.09S165.83,148.75,157.16,148.75ZM157,176.81h-4.81v-24H157c5.74,0,6.21,5.66,6.21,12S162.77,176.61,157,176.81Z"
        />
      </g>
    </g>
  </g>

  <path fill="#152543" d="M133.938,47.512c0.22-0.327,0.335-0.712,0.333-1.105c-0.015-0.952-0.785-1.719-1.736-1.731h-1.194
    c0.206-0.404,0.317-0.849,0.326-1.302c0.02-0.434-0.06-0.866-0.234-1.263c-0.15-0.303-0.397-0.545-0.703-0.689
    c-0.32-0.15-0.67-0.226-1.024-0.22c-0.228,0.004-0.446,0.099-0.604,0.263c-0.202,0.203-0.348,0.456-0.421,0.733
    c-0.086,0.298-0.155,0.584-0.207,0.857c-0.022,0.212-0.104,0.413-0.234,0.581c-0.222,0.24-0.464,0.53-0.727,0.869
    c-0.27,0.386-0.584,0.739-0.937,1.052h-1.855c-0.48,0-0.869,0.389-0.869,0.869l0,0v4.34c0,0.48,0.389,0.869,0.869,0.869l0,0h1.954
    c0.32,0.061,0.634,0.151,0.937,0.271c0.556,0.195,1.045,0.344,1.469,0.445c0.421,0.102,0.853,0.153,1.286,0.152h0.876
    c0.565,0.026,1.117-0.17,1.539-0.545c0.399-0.39,0.61-0.934,0.576-1.491c0.27-0.343,0.414-0.769,0.408-1.206
    c0-0.098-0.007-0.196-0.021-0.293c0.17-0.297,0.259-0.634,0.258-0.977c0-0.158-0.02-0.315-0.061-0.468L133.938,47.512z
    M125.47,50.625c-0.168,0.164-0.438,0.161-0.603-0.008c-0.164-0.168-0.161-0.438,0.008-0.603c0.169-0.164,0.439-0.161,0.603,0.008
    c0.078,0.08,0.121,0.187,0.121,0.298C125.6,50.436,125.553,50.546,125.47,50.625z M133.266,46.961
    c-0.096,0.209-0.218,0.314-0.363,0.319c0.077,0.095,0.134,0.204,0.168,0.321c0.042,0.122,0.065,0.249,0.068,0.377
    c0.002,0.308-0.128,0.603-0.358,0.808c0.081,0.143,0.123,0.304,0.122,0.468c-0.001,0.173-0.042,0.344-0.12,0.499
    c-0.065,0.15-0.178,0.275-0.321,0.356c0.021,0.125,0.032,0.252,0.033,0.38c0,0.756-0.434,1.133-1.303,1.131h-0.82
    c-0.794-0.041-1.577-0.207-2.319-0.494l-0.197-0.072l-0.234-0.085l-0.234-0.077c-0.106-0.035-0.192-0.06-0.258-0.075
    c-0.065-0.017-0.14-0.03-0.234-0.044c-0.071-0.013-0.142-0.02-0.213-0.021h-0.215v-4.338h0.215c0.082-0.004,0.161-0.024,0.234-0.061
    c0.099-0.047,0.19-0.109,0.271-0.183c0.092-0.081,0.18-0.159,0.263-0.234c0.096-0.094,0.187-0.193,0.271-0.297
    c0.1-0.12,0.178-0.216,0.234-0.288l0.213-0.279l0.157-0.204c0.249-0.312,0.422-0.518,0.522-0.616
    c0.194-0.21,0.333-0.465,0.403-0.743c0.084-0.301,0.153-0.585,0.206-0.851c0.029-0.212,0.119-0.413,0.258-0.576
    c0.434,0,0.724,0.106,0.869,0.319c0.167,0.3,0.242,0.642,0.218,0.984c-0.032,0.381-0.143,0.752-0.326,1.089
    c-0.18,0.332-0.29,0.696-0.323,1.071h2.387c0.229,0,0.447,0.094,0.604,0.26c0.168,0.157,0.265,0.376,0.265,0.607
    C133.403,46.603,133.354,46.791,133.266,46.961z"
  />
</svg>