<?xml version="1.0" encoding="utf-8"?>
<!-- Generator: Adobe Illustrator 16.0.0, SVG Export Plug-In . SVG Version: 6.00 Build 0)  -->
<!DOCTYPE svg PUBLIC "-//W3C//DTD SVG 1.1//EN" "http://www.w3.org/Graphics/SVG/1.1/DTD/svg11.dtd">
<svg version="1.1" id="Calque_1" xmlns="http://www.w3.org/2000/svg" xmlns:xlink="http://www.w3.org/1999/xlink" x="0px" y="0px"
	 width="512px" height="112.442px" viewBox="0 0 512 112.442" enable-background="new 0 0 512 112.442" xml:space="preserve">
<g>
	<path fill="#43B9AD" d="M193.994,41.23v31.433h-3.121v-6.594c-2.684,4.521-7.579,7.262-12.837,7.188
		c-8.922,0-16.156-7.234-16.156-16.156c0-8.922,7.233-16.156,16.156-16.156c5.295-0.157,10.24,2.637,12.837,7.254v-6.967
		L193.994,41.23L193.994,41.23z M165.09,56.881c-0.317,6.961,5.069,12.86,12.029,13.178c0.269,0.012,0.538,0.016,0.807,0.01
		c17.586,0,17.586-26.267,0-26.267c-6.941-0.151-12.692,5.354-12.844,12.296C165.077,56.359,165.079,56.619,165.09,56.881z"/>
	<path fill="#43B9AD" d="M205.381,41.23l0.13,5.606c2-3.857,6.083-6.175,10.42-5.913c2.381-0.051,4.724,0.59,6.748,1.847
		l-1.408,2.55c-1.608-0.979-3.458-1.489-5.34-1.473c-5.757,0.037-10.399,4.727-10.375,10.485v18.309h-3.1V41.23L205.381,41.23
		L205.381,41.23z"/>
	<path fill="#43B9AD" d="M257.585,41.23v31.433h-3.121v-6.594c-2.685,4.521-7.581,7.262-12.837,7.188
		c-8.923,0-16.157-7.234-16.157-16.156c0-8.922,7.234-16.156,16.157-16.156c5.295-0.157,10.24,2.637,12.837,7.254v-6.967
		L257.585,41.23L257.585,41.23z M228.834,56.881c-0.317,6.961,5.069,12.86,12.03,13.178c0.269,0.012,0.538,0.016,0.807,0.01
		c17.584,0,17.584-26.267,0-26.267c-6.943-0.151-12.694,5.354-12.845,12.296C228.82,56.359,228.823,56.619,228.834,56.881z"/>
	<path fill="#43B9AD" d="M298.799,56.881c-0.231-8.726,6.654-15.986,15.381-16.217c0.192-0.006,0.385-0.006,0.577-0.005
		c8.793,0,16.728,5.408,15.519,17.584h-28.311c0.285,6.791,6.001,12.074,12.792,11.826c4.287,0.129,8.418-1.611,11.32-4.77
		l2.198,1.779c-3.376,3.947-8.348,6.168-13.541,6.045c-8.491,0.316-15.633-6.311-15.948-14.803
		C298.768,57.842,298.771,57.362,298.799,56.881z M327.374,55.606c0-7.759-5.145-12.089-12.727-12.089
		c-6.85-0.137-12.542,5.243-12.793,12.089H327.374z"/>
	<path fill="#43B9AD" d="M148.911,69.344c5.155-2.459,8.446-7.654,8.463-13.364c0-9.803-6.593-15.387-14.792-15.387l0,0
		c-8.132,0-14.749,5.54-14.749,15.387c0,8.397,5.648,15.21,14.749,15.21c5.848,0,11.892,2.66,11.892,9.408
		s-5.604,9.475-11.892,9.475c-6.286,0-11.759-3.055-11.759-9.475h-3.099c0,7.957,6.594,12.531,14.88,12.531
		c8.288,0,14.947-4.068,14.947-12.531C157.506,75.19,154.451,71.323,148.911,69.344z M130.91,56.001
		c0-8.199,5.209-12.199,11.628-12.199l0,0c6.418,0,11.738,4,11.738,12.199c0.026,6.56-5.203,11.935-11.76,12.089
		c-6.36,0.057-11.562-5.055-11.62-11.416C130.894,56.45,130.899,56.227,130.91,56.001z"/>
	<path fill="#43B9AD" d="M285.699,69.344c5.152-2.459,8.444-7.654,8.46-13.364c0-9.803-6.593-15.387-14.791-15.387l0,0
		c-8.133,0-14.751,5.54-14.751,15.387c0,8.397,5.648,15.21,14.751,15.21c5.847,0,11.891,2.66,11.891,9.408s-5.626,9.475-11.87,9.475
		c-6.242,0-11.76-3.055-11.76-9.475h-3.186c0,7.957,6.593,12.531,14.881,12.531c8.287,0,14.946-4.068,14.946-12.531
		C294.271,75.19,291.216,71.323,285.699,69.344z M267.696,55.98c0-8.199,5.209-12.199,11.628-12.199l0,0
		c6.418,0,11.737,4,11.737,12.199c0.026,6.56-5.202,11.935-11.759,12.089c-6.361,0.057-11.563-5.055-11.619-11.417
		c-0.002-0.217,0.002-0.435,0.014-0.651L267.696,55.98L267.696,55.98z"/>
	<path fill="#43B9AD" d="M511.989,40.725c-0.023,2.974-2.454,5.366-5.428,5.341s-5.366-2.456-5.341-5.43
		c0.024-2.957,2.428-5.341,5.385-5.341c2.837-0.138,5.249,2.05,5.389,4.887C512.003,40.364,512.001,40.544,511.989,40.725z
		 M506.604,45.495c2.635,0.085,4.836-1.98,4.921-4.613c0.085-2.632-1.979-4.836-4.611-4.921c-2.634-0.084-4.837,1.981-4.922,4.614
		c-0.002,0.049-0.002,0.101-0.002,0.151c-0.211,2.419,1.58,4.549,3.999,4.76C506.194,45.502,506.4,45.506,506.604,45.495
		L506.604,45.495z M507.155,37.802h-2.528v5.715h0.702v-2.198h1.231l1.868,2.198h0.771v-0.11l-1.78-2.022
		c0.988-0.073,1.731-0.933,1.66-1.923C509.006,38.472,508.145,37.729,507.155,37.802L507.155,37.802z M505.33,38.483h1.826
		c0.607-0.122,1.198,0.271,1.319,0.879c0.122,0.607-0.271,1.198-0.879,1.32c-0.146,0.03-0.296,0.03-0.441,0h-1.78L505.33,38.483z"/>
	<path fill="#43B9AD" d="M401.823,68.641c-3.15,3.285-7.539,5.092-12.09,4.969c-9.1,0-16.662-5.477-16.662-16.597
		c0-11.123,7.562-16.596,16.662-16.596c4.263-0.146,8.386,1.543,11.319,4.638l-4.88,5.231c-1.721-1.569-3.959-2.454-6.287-2.484
		c-4.854-0.141-8.903,3.68-9.045,8.533c-0.007,0.248-0.004,0.495,0.01,0.743c-0.34,4.708,3.199,8.804,7.91,9.148
		c0.294,0.02,0.588,0.027,0.883,0.018c2.605,0.08,5.128-0.924,6.968-2.77L401.823,68.641z"/>
	<path fill="#43B9AD" d="M437.059,57.013c0.006,9.007-7.29,16.316-16.298,16.32c-9.008,0.008-16.315-7.289-16.321-16.296
		c0-0.009,0-0.015,0-0.023c-0.006-9.007,7.29-16.314,16.298-16.321c9.008-0.006,16.314,7.291,16.321,16.298
		C437.059,56.997,437.059,57.005,437.059,57.013z M412.196,57.013c0,4.771,2.857,9.232,8.53,9.232c5.669,0,8.528-4.396,8.528-9.232
		c0.269-4.848-3.443-8.996-8.291-9.266c-0.079-0.004-0.156-0.007-0.235-0.009C415.12,47.715,412.196,52.31,412.196,57.013z"/>
	<path fill="#43B9AD" d="M449.588,41.296l0.571,3.628c1.846-3.03,5.261-4.738,8.792-4.396c2.968-0.046,5.846,1.021,8.067,2.989
		l-3.45,6.77c-1.52-1.403-3.539-2.139-5.604-2.044c-3.979-0.349-7.487,2.593-7.838,6.572c-0.04,0.461-0.037,0.925,0.012,1.386
		v16.531h-7.759V41.297L449.588,41.296L449.588,41.296z"/>
	<path fill="#43B9AD" d="M476.603,59.739c0.504,3.867,3.868,6.594,9.342,6.594c3.048,0.066,6.021-0.945,8.397-2.857l4.857,4.924
		c-3.665,3.371-8.496,5.191-13.475,5.078c-10.815,0-17.233-6.594-17.233-16.728c0-9.539,6.595-16.397,16.662-16.397
		s17.035,6.594,15.826,19.387H476.603L476.603,59.739L476.603,59.739z M493.638,53.319c-0.506-4.067-3.693-6.111-8.134-6.111
		c-4.012-0.319-7.693,2.238-8.792,6.111H493.638z"/>
	<path fill="#43B9AD" d="M359.29,21.91v-0.023V21.91z"/>
	<path fill="#43B9AD" d="M351.728,43.385h-0.284c-4.638-0.106-8.31-3.951-8.204-8.586c0.105-4.635,3.95-8.309,8.586-8.203
		c0.47,0.011,0.936,0.061,1.396,0.149h0.396c0.427,0.099,0.847,0.231,1.254,0.395l0.329,0.154l0.704,0.374l3.363-5.847l0,0l0,0
		c-1.041-0.591-2.147-1.057-3.298-1.385l-0.461-0.109l-1.341-0.264h-0.504c-8.293-0.889-15.735,5.112-16.625,13.404
		s5.112,15.735,13.405,16.624c0.457,0.049,0.914,0.078,1.373,0.085h0.11c4.636,0.105,8.309,3.95,8.203,8.585
		c-0.105,4.637-3.95,8.309-8.587,8.203c-0.469-0.012-0.935-0.061-1.396-0.148h-0.396c-0.427-0.1-0.847-0.232-1.254-0.395
		l-0.328-0.154c-4.012-1.814-5.933-6.424-4.396-10.551l-6.286-2.351c-2.579,6.908,0.21,14.666,6.593,18.353l0,0l0,0
		c1.041,0.59,2.148,1.055,3.297,1.385l0.461,0.109l1.342,0.264h0.505c8.291,0.891,15.735-5.111,16.624-13.402
		c0.89-8.293-5.112-15.736-13.404-16.625c-0.456-0.049-0.914-0.077-1.374-0.084L351.728,43.385z"/>
	<path fill="#43B9AD" d="M359.29,21.887L359.29,21.887L359.29,21.887z"/>
	<path opacity="0.5" fill="#43B9AD" enable-background="new    " d="M360.126,34.899c0.003,1.006-0.178,2.003-0.528,2.946
		l6.287,2.352c2.577-6.908-0.21-14.667-6.595-18.354l-3.362,5.847C358.512,29.172,360.112,31.92,360.126,34.899z"/>
	<path opacity="0.5" fill="#43B9AD" enable-background="new    " d="M66.528,22.326l-4.571,7.936c1.556,0.9,2.881,2.149,3.868,3.649
		l5.518-2.066l-4.594,3.737c1.188,2.718,1.274,5.792,0.243,8.572l8.572,3.209c3.516-9.433-0.293-20.025-9.013-25.058L66.528,22.326z
		"/>
	<path fill="#43B9AD" d="M56.219,51.628h-0.395c-6.319-0.215-11.27-5.513-11.055-11.834c0.213-6.321,5.512-11.271,11.832-11.057
		c1.875,0.064,3.708,0.588,5.334,1.526l4.571-7.936c-9.856-5.7-22.468-2.331-28.168,7.527c-5.702,9.857-2.331,22.469,7.526,28.169
		c3.147,1.82,6.721,2.775,10.356,2.771h0.396c6.308,0.225,11.241,5.518,11.019,11.828c-0.223,6.309-5.519,11.24-11.827,11.02
		c-6.31-0.225-11.242-5.52-11.02-11.828c0.043-1.221,0.283-2.424,0.706-3.566L36.92,65.04c-3.981,10.668,1.44,22.543,12.106,26.525
		c10.669,3.982,22.544-1.441,26.527-12.107c3.981-10.668-1.438-22.542-12.107-26.525c-2.304-0.861-4.745-1.301-7.204-1.302h-0.023
		L56.219,51.628L56.219,51.628z"/>
	<path fill="#43B9AD" d="M55.339,37.823c-1.322,0.752-1.786,2.435-1.033,3.759s2.435,1.786,3.758,1.033l8.64-7.012
		c-0.26-0.582-0.569-1.141-0.922-1.67L55.339,37.823z"/>
	<g>
		<path fill="#43B9AD" d="M56.219,112.442C25.22,112.442,0,87.221,0,56.219C0,25.22,25.22,0,56.219,0
			c31,0,56.219,25.22,56.219,56.219C112.438,87.221,87.218,112.442,56.219,112.442z M56.219,2.073
			c-29.856,0-54.146,24.29-54.146,54.146c0,29.858,24.29,54.151,54.146,54.151c29.856,0,54.146-24.291,54.146-54.151
			C110.365,26.363,86.075,2.073,56.219,2.073z"/>
	</g>
</g>
</svg>
