<?xml version="1.0" encoding="utf-8"?>
<!-- Generator: Adobe Illustrator 23.0.2, SVG Export Plug-In . SVG Version: 6.00 Build 0)  -->
<svg version="1.1" id="Calque_1" xmlns="http://www.w3.org/2000/svg" xmlns:xlink="http://www.w3.org/1999/xlink" x="0px" y="0px"
	 viewBox="0 0 164 36" style="enable-background:new 0 0 164 36;" xml:space="preserve">
<style type="text/css">
	.st0{fill:#FFFFFF;}
	.st1{opacity:0.5;fill:#FFFFFF;enable-background:new    ;}
</style>
<g transform="translate(-69.5 -7.457)">
	<g transform="translate(69.5 7.457)">
		<path class="st0" d="M62.3,13.3v10h-1v-2.1c-0.8,1.4-2.4,2.3-4.1,2.3c-2.8,0-5.1-2.2-5.2-5s2.2-5.1,5-5.2c0,0,0.1,0,0.1,0
			c1.7-0.1,3.2,0.8,4.1,2.3v-2.2H62.3z M53.2,18.2c-0.1,2.2,1.6,4.1,3.8,4.2c0.1,0,0.2,0,0.3,0c5.6,0,5.6-8.3,0-8.3
			c-2.2,0-4,1.7-4.1,3.9c0,0,0,0,0,0C53.2,18,53.2,18.1,53.2,18.2z"/>
		<path class="st0" d="M66,13.3l0,1.8c0.6-1.2,1.9-2,3.3-1.9c0.8,0,1.5,0.2,2.1,0.6l-0.4,0.8c-0.5-0.3-1.1-0.5-1.7-0.5
			c-1.8,0-3.3,1.5-3.3,3.3v5.8h-1v-9.9H66z"/>
		<path class="st0" d="M82.6,13.3v10h-1v-2.1c-0.8,1.4-2.4,2.3-4.1,2.3c-2.8,0-5.1-2.2-5.2-5s2.2-5.1,5-5.2c0,0,0.1,0,0.1,0
			c1.7-0.1,3.2,0.8,4.1,2.3v-2.2H82.6z M73.6,18.2c-0.1,2.2,1.6,4.1,3.8,4.2c0.1,0,0.2,0,0.3,0c5.6,0,5.6-8.3,0-8.3
			c-2.2,0-4,1.7-4.1,3.9c0,0,0,0,0,0C73.6,18,73.6,18.1,73.6,18.2z"/>
		<path class="st0" d="M95.9,18.2c-0.1-2.8,2.1-5.1,4.9-5.1c0,0,0,0,0,0c0.1,0,0.1,0,0.2,0c2.8,0,5.3,1.7,4.9,5.6h-8.9
			c0.1,2.2,1.9,3.8,4,3.7c1.4,0,2.7-0.5,3.6-1.5l0.7,0.6c-1.1,1.3-2.6,2-4.3,1.9c-2.7,0.1-4.9-2-5-4.7
			C95.9,18.5,95.9,18.4,95.9,18.2z M105,17.8c0-2.5-1.6-3.8-4-3.8c-2.2,0-4,1.7-4,3.8H105z"/>
		<path class="st0" d="M47.9,22.2c1.6-0.8,2.7-2.4,2.7-4.2c0.2-2.5-1.7-4.7-4.2-4.9c-0.2,0-0.3,0-0.5,0l0,0
			c-2.5-0.1-4.6,1.9-4.7,4.4c0,0.2,0,0.3,0,0.5c-0.1,2.5,1.8,4.7,4.3,4.8c0.1,0,0.2,0,0.4,0c1.8,0,3.8,0.8,3.8,3s-1.8,3-3.8,3
			c-2,0-3.7-1-3.7-3h-1c0,2.5,2.1,4,4.7,4s4.7-1.3,4.7-4C50.7,24.1,49.5,22.7,47.9,22.2z M42.2,18c-0.2-1.9,1.2-3.7,3.1-3.8
			c0.2,0,0.4,0,0.5,0l0,0c1.9-0.1,3.6,1.4,3.7,3.3c0,0.2,0,0.4,0,0.5c0,2.1-1.6,3.8-3.7,3.8c-2,0-3.7-1.6-3.7-3.6c0,0,0,0,0,0
			C42.2,18.1,42.2,18.1,42.2,18L42.2,18z"/>
		<path class="st0" d="M91.7,22.2c1.6-0.8,2.7-2.4,2.7-4.2c0.2-2.5-1.7-4.7-4.2-4.9c-0.2,0-0.3,0-0.5,0l0,0C87.2,13,85.1,15,85,17.5
			c0,0.2,0,0.3,0,0.5c-0.1,2.5,1.8,4.7,4.3,4.8c0.1,0,0.2,0,0.4,0c1.8,0,3.8,0.8,3.8,3s-1.8,3-3.7,3s-3.7-1-3.7-3h-1
			c0,2.5,2.1,4,4.7,4s4.7-1.3,4.7-4C94.4,24.1,93.3,22.7,91.7,22.2z M86,18c-0.2-1.9,1.2-3.7,3.1-3.9c0.2,0,0.4,0,0.5,0l0,0
			c1.9-0.1,3.6,1.4,3.7,3.3c0,0.2,0,0.4,0,0.5c0,2.1-1.6,3.8-3.7,3.8c-2,0-3.7-1.6-3.7-3.6C86,18.1,86,18.1,86,18L86,18L86,18z"/>
		<path class="st0" d="M164,13c0,0.9-0.8,1.7-1.7,1.7c-0.9,0-1.7-0.8-1.7-1.7c0-0.9,0.8-1.7,1.7-1.7c0.9,0,1.7,0.6,1.7,1.5
			C164,12.9,164,13,164,13z M162.3,14.5c0.8,0,1.5-0.6,1.5-1.5c0-0.8-0.6-1.5-1.5-1.6c-0.8,0-1.5,0.6-1.5,1.5v0
			c-0.1,0.8,0.5,1.4,1.3,1.5c0,0,0,0,0,0C162.2,14.5,162.2,14.5,162.3,14.5L162.3,14.5z M162.5,12.1h-0.8v1.8h0.2v-0.7h0.4l0.6,0.7
			h0.2v0l-0.6-0.6c0.3,0,0.5-0.3,0.5-0.6C163.1,12.3,162.8,12.1,162.5,12.1C162.5,12.1,162.5,12.1,162.5,12.1L162.5,12.1z
			 M161.9,12.3h0.6c0.2,0,0.4,0.1,0.4,0.3c0,0.2-0.1,0.4-0.3,0.4c0,0-0.1,0-0.1,0h-0.6L161.9,12.3z"/>
		<path class="st0" d="M128.8,21.9c-1,1-2.4,1.6-3.8,1.6c-2.7,0.2-5.1-1.8-5.3-4.6c0-0.2,0-0.5,0-0.7c-0.2-2.7,1.9-5.1,4.6-5.3
			c0.2,0,0.5,0,0.7,0c1.3,0,2.6,0.5,3.6,1.5l-1.5,1.7c-0.5-0.5-1.3-0.8-2-0.8c-1.5,0-2.8,1.2-2.9,2.7c0,0.1,0,0.2,0,0.2
			c-0.1,1.5,1,2.8,2.5,2.9c0.1,0,0.2,0,0.3,0c0.8,0,1.6-0.3,2.2-0.9L128.8,21.9z"/>
		<path class="st0" d="M140.3,18.3c0,2.9-2.4,5.1-5.2,5.1c-2.8,0-5-2.3-5.1-5.1v0c0-2.9,2.2-5.2,5.1-5.2c2.8,0,5.2,2.2,5.2,5.1
			C140.3,18.2,140.3,18.2,140.3,18.3L140.3,18.3z M132.5,18.3c-0.1,1.5,1,2.8,2.5,2.9c1.5,0.1,2.8-1,2.9-2.5c0-0.1,0-0.3,0-0.4
			c0.1-1.5-1.1-2.8-2.6-2.9h-0.1c-1.5,0-2.7,1.2-2.7,2.7C132.5,18.1,132.5,18.2,132.5,18.3L132.5,18.3z"/>
		<path class="st0" d="M144.3,13.3l0.2,1.1c0.6-1,1.7-1.5,2.8-1.4c0.9,0,1.8,0.3,2.5,0.9l-1.1,2.1c-0.5-0.4-1.1-0.7-1.8-0.6
			c-1.3-0.1-2.4,0.8-2.5,2.1c0,0.1,0,0.3,0,0.4v5.2H142v-9.9H144.3z"/>
		<path class="st0" d="M152.8,19.1c0.2,1.2,1.2,2.1,2.9,2.1c1,0,1.9-0.3,2.7-0.9l1.5,1.6c-1.2,1.1-2.7,1.6-4.3,1.6
			c-3.4,0-5.4-2.1-5.4-5.3c-0.1-2.7,2-5.1,4.7-5.2c0.2,0,0.3,0,0.5,0c3.2,0,5.4,2.1,5,6.1L152.8,19.1z M158.2,17.1
			c-0.2-1.3-1.2-1.9-2.6-1.9c-1.3-0.1-2.4,0.7-2.8,1.9H158.2z"/>
		<path class="st0" d="M115.2,6.9L115.2,6.9z"/>
		<path class="st0" d="M112.8,13.9L112.8,13.9c-1.6,0-2.7-1.2-2.7-2.7c0-1.5,1.2-2.6,2.7-2.6c0,0,0.1,0,0.1,0c0.1,0,0.3,0,0.4,0h0.1
			c0.1,0,0.3,0.1,0.4,0.1l0.1,0l0.2,0.1l1.1-1.9l0,0c-0.3-0.2-0.7-0.3-1-0.4l-0.1,0l-0.4-0.1h-0.2c-2.6-0.3-5,1.6-5.3,4.2
			s1.6,5,4.2,5.3c0,0,0.1,0,0.1,0c0.1,0,0.3,0,0.4,0h0c1.5,0,2.6,1.3,2.6,2.7c0,1.5-1.3,2.6-2.7,2.6c-0.1,0-0.3,0-0.4,0h-0.1
			c-0.1,0-0.3-0.1-0.4-0.1l-0.1,0c-1.3-0.6-1.9-2-1.4-3.3l-2-0.7c-0.8,2.2,0.1,4.6,2.1,5.8l0,0c0.3,0.2,0.7,0.3,1,0.4l0.1,0l0.4,0.1
			h0.2c2.6,0.3,5-1.6,5.2-4.2s-1.6-5-4.2-5.3C113,13.9,112.9,13.9,112.8,13.9L112.8,13.9z"/>
		<path class="st0" d="M115.2,6.9"/>
		<path class="st1" d="M115.5,11.1c0,0.3-0.1,0.6-0.2,0.9l2,0.7c0.8-2.2-0.1-4.6-2.1-5.8l-1.1,1.9C115,9.3,115.5,10.2,115.5,11.1z"
			/>
		<path class="st1" d="M21.4,7.2L20,9.7c0.5,0.3,0.9,0.7,1.2,1.2l1.7-0.7l-1.5,1.2c0.4,0.9,0.4,1.8,0.1,2.7l2.7,1
			C25.4,12.1,24.2,8.8,21.4,7.2L21.4,7.2z"/>
		<path class="st0" d="M18.2,16.5H18c-2-0.1-3.6-1.9-3.5-3.9c0.1-2,1.7-3.5,3.7-3.5c0.6,0,1.2,0.2,1.7,0.5l1.4-2.6
			c-3.1-1.8-7-0.8-8.8,2.3c0,0,0,0.1-0.1,0.1c-1.8,3.2-0.7,7.2,2.4,9.1c1,0.6,2.1,0.9,3.3,0.9h0.1c2,0,3.6,1.7,3.6,3.7
			c0,2-1.7,3.7-3.7,3.6c-2,0-3.6-1.7-3.6-3.7c0,0,0,0,0-0.1c0-0.4,0.1-0.8,0.2-1.1l-2.7-1c-1.3,3.4,0.4,7.2,3.8,8.5
			c3.4,1.3,7.1-0.4,8.3-3.8c0,0,0-0.1,0-0.1c1.3-3.4-0.4-7.2-3.8-8.5C19.7,16.7,18.9,16.5,18.2,16.5L18.2,16.5z"/>
		<path class="st0" d="M17.9,12.1c-0.4,0.2-0.6,0.8-0.3,1.2c0.2,0.4,0.8,0.6,1.2,0.3l0,0l2.7-2.2c-0.1-0.2-0.2-0.4-0.3-0.5
			L17.9,12.1z"/>
		<path class="st0" d="M18.2,36C8.2,36.1,0.1,28.1,0,18.2C-0.1,8.3,7.8,0.1,17.8,0c9.9-0.1,18,7.9,18.2,17.8c0,0.1,0,0.1,0,0.2
			C36,27.9,28,35.9,18.2,36z M18.2,0.7C8.6,0.6,0.8,8.2,0.7,17.8c-0.1,9.6,7.5,17.4,17.1,17.5c9.6,0.1,17.4-7.6,17.5-17.1
			c0-0.1,0-0.1,0-0.2C35.3,8.5,27.6,0.7,18.2,0.7z"/>
	</g>
</g>
</svg>
