<?xml version="1.0" encoding="utf-8"?>
<!-- Generator: Adobe Illustrator 16.0.0, SVG Export Plug-In . SVG Version: 6.00 Build 0)  -->
<!DOCTYPE svg PUBLIC "-//W3C//DTD SVG 1.1//EN" "http://www.w3.org/Graphics/SVG/1.1/DTD/svg11.dtd">
<svg version="1.1" id="Calque_1" xmlns="http://www.w3.org/2000/svg" xmlns:xlink="http://www.w3.org/1999/xlink" x="0px" y="0px"
	 width="30px" height="30px" viewBox="0 0 30 30" enable-background="new 0 0 30 30" xml:space="preserve">
<g>
	<path fill="#43b9ad" d="M14.999,30C6.73,30,0.001,23.271,0.001,15c0-8.269,6.729-15,14.998-15c8.27,0,15,6.731,15,15
		C29.999,23.271,23.271,30,14.999,30z"/>
	<path opacity="0.5" fill="#FFFFFF" d="M17.75,5.96l-1.221,2.116c0.414,0.238,0.768,0.571,1.032,0.975l1.473-0.552l-1.227,0.998
		c0.317,0.723,0.34,1.543,0.065,2.288l2.285,0.854c0.94-2.519-0.077-5.345-2.404-6.688L17.75,5.96z"/>
	<path fill="#FFFFFF" d="M14.999,13.778h-0.105c-1.684-0.059-3.005-1.475-2.949-3.161c0.056-1.688,1.47-3.006,3.157-2.949
		c0.5,0.019,0.988,0.157,1.423,0.408l1.221-2.116c-2.632-1.521-5.997-0.623-7.517,2.007c-1.522,2.632-0.621,5.994,2.009,7.518
		c0.839,0.488,1.793,0.739,2.762,0.736h0.107c1.68,0.061,2.999,1.475,2.94,3.155c-0.063,1.688-1.474,3-3.157,2.941
		c-1.683-0.059-2.999-1.473-2.94-3.153c0.012-0.328,0.075-0.648,0.188-0.953l-2.287-0.855c-1.062,2.848,0.385,6.016,3.229,7.076
		c2.848,1.063,6.017-0.383,7.079-3.23c1.062-2.845-0.384-6.016-3.229-7.076c-0.616-0.229-1.266-0.347-1.922-0.347H14.999
		L14.999,13.778z"/>
	<path fill="#FFFFFF" d="M14.766,10.093c-0.352,0.2-0.478,0.651-0.276,1.003c0.203,0.354,0.65,0.476,1.003,0.276l2.305-1.873
		c-0.068-0.157-0.152-0.304-0.247-0.445L14.766,10.093z"/>
</g>
</svg>
