<svg xmlns="http://www.w3.org/2000/svg" width="200.523" height="58.843" viewBox="0 0 200.523 58.843">
  <g id="Logo-Long-Custeed-E-Reputation" transform="translate(-207.478 -380.488)">
    <g id="Groupe_4" data-name="Groupe 4" transform="translate(258.813 387.097)">
      <path id="Tracé_21" data-name="Tracé 21" d="M615.279,703.5c-7.643,0-9.178,5.561-9.178,14.533s1.535,14.533,9.178,14.533c2.448,0,8.14-.745,8.14-7.642v-1.665h-3.745v1.665c0,2.54-1.561,3.939-4.4,3.939-5.025,0-5.434-4.9-5.434-10.829s.409-10.83,5.434-10.83c2.944,0,4.437,1.325,4.437,3.939v1.664h3.7v-1.664C623.419,704.245,617.726,703.5,615.279,703.5Z" transform="translate(-606.101 -703.5)" fill="#152543"/>
      <path id="Tracé_22" data-name="Tracé 22" d="M724.957,704.521v20.385c0,5.622,2.836,8.472,8.431,8.472,5.677,0,8.555-2.85,8.555-8.472V704.521h-3.786v20.385c0,3.254-1.515,4.769-4.769,4.769-3.212,0-4.645-1.471-4.645-4.769V704.521Z" transform="translate(-700.8 -704.313)" fill="#152543"/>
      <path id="Tracé_23" data-name="Tracé 23" d="M841.158,722.719v1.665c0,1.919.665,8.182,9.219,8.182,7.384,0,8.182-5.228,8.182-7.476,0-5.774-4.075-7.281-7.671-8.61-2.611-.974-5.57-2.078-5.57-5.13,0-2.48,1.883-4.147,4.686-4.147a4.021,4.021,0,0,1,4.354,4.313v1.665h3.786v-1.665c0-.327-.093-8.016-8.14-8.016-8.376,0-8.472,7.529-8.472,7.849,0,5.767,3.935,7.306,7.74,8.8l.059.023c2.55.966,5.442,2.061,5.442,4.921,0,.885-.317,3.773-4.4,3.773-3.479,0-5.475-1.632-5.475-4.479v-1.665Z" transform="translate(-793.383 -703.5)" fill="#152543"/>
      <path id="Tracé_24" data-name="Tracé 24" d="M952.918,733.171H956.7V708.224h5.77v-3.7H947.148v3.7h5.77Z" transform="translate(-877.831 -704.313)" fill="#152543"/>
      <path id="Tracé_25" data-name="Tracé 25" d="M1054.162,733.171H1067.7v-3.7h-9.755V721.34h7.887v-3.7h-7.887v-9.414h9.464v-3.7h-13.25Z" transform="translate(-963.095 -704.313)" fill="#152543"/>
      <path id="Tracé_26" data-name="Tracé 26" d="M1154.435,733.171h13.541v-3.7h-9.755V721.34h7.886v-3.7h-7.886v-9.414h9.464v-3.7h-13.25Z" transform="translate(-1042.987 -704.313)" fill="#152543"/>
      <path id="Tracé_27" data-name="Tracé 27" d="M1262.763,704.521h-8.057v28.65h8.057c7.72,0,9.3-5.727,9.3-14.325S1270.484,704.521,1262.763,704.521Zm.007,24.988h-4.278V708.224h4.271c5.094,0,5.516,5.025,5.516,10.622C1268.28,724.572,1267.865,729.326,1262.77,729.509Z" transform="translate(-1122.878 -704.313)" fill="#152543"/>
    </g>
    <g id="Groupe_47" data-name="Groupe 47" transform="translate(208 381)">
      <path id="Tracé_40" data-name="Tracé 40" d="M125.986,37.91a20.2,20.2,0,1,1,0,40.409c-4.612,0-16.021,1.475-16.021,1.475s-4.207-15.134-4.207-21.679A20.21,20.21,0,0,1,125.986,37.91Z" transform="translate(-103.312 -36.121)" fill="#152543"/>
      <path id="Tracé_29" data-name="Tracé 29" d="M128.581,69.391l1-9.218,4.818-6.619-1.382-6.172-6.322.608-4.817,6.619-8.5,3.8,4.594,3.33,2.155-2.965.935.67a.251.251,0,0,1,.1.3l-4.106,9.523,7.826-6.823a.313.313,0,0,1,.326,0l.935.67-2.154,2.964Zm.508-13.279a1.461,1.461,0,0,1-2.032.325l-.854-.629a1.433,1.433,0,0,1-.326-2.01h0l1.5-2.051a1.461,1.461,0,0,1,2.033-.324l.853.629a1.432,1.432,0,0,1,.326,2.01h0Z" transform="translate(-102.928 -35.655)" fill="#fff" fill-rule="evenodd"/>
      <g id="Groupe_19" data-name="Groupe 19" transform="translate(0 0)">
        <g id="Groupe_15" data-name="Groupe 15" transform="translate(0 11.146)">
          <path id="Tracé_48" data-name="Tracé 48" d="M937.522,580.04a19.587,19.587,0,0,1-18.766.842l-.023-.011-6.632,3.572,1.066-7.695-.008-.009a19.328,19.328,0,0,1-3.528-5.265c-.086-.191-.213-.541-.357-.97-.428-1.28-1.005-3.256-1.094-3.778q-.159-.938-.228-1.872a19.16,19.16,0,0,1,2.254-10.535c.041-.076.085-.15.126-.225l0,.008-2.314-1.791c-.083.142-.167.284-.246.429A22,22,0,0,0,905,563.163a22.517,22.517,0,0,0,.32,4.046c.058.339.236,1.024.46,1.807a36.937,36.937,0,0,0,1.207,3.646,22.129,22.129,0,0,0,2.413,4.093l.008.01-1.02,12.771,11.663-4.989.032.011a22.553,22.553,0,0,0,16.86-.933,22.2,22.2,0,0,0,6.076-4.22l-2.106-.44Z" transform="translate(-905 -552.309)" fill="#f1ba0b"/>
          <path id="Tracé_49" data-name="Tracé 49" d="M919.824,552.3" transform="translate(-916.81 -552.302)" fill="#f1ba0b"/>
        </g>
        <path id="Union_1" data-name="Union 1" d="M21.578,44.589l-4.741-3.67a19.493,19.493,0,0,0,5.954.791q.574-.014,1.148-.06L27.1,44.1q-.919.2-1.849.318a22.572,22.572,0,0,1-2.9.187Q21.967,44.6,21.578,44.589Zm2.361-2.94q.671-.055,1.335-.154a19.658,19.658,0,0,0,3.51-.865q.643-.221,1.269-.488a19.365,19.365,0,0,0,2.469-1.266l.086-.054L35.031,40.7c-.056.039-.113.079-.17.117a22.306,22.306,0,0,1-2.915,1.649c-.166.077-.333.152-.5.227l-2.661-2.06,2.661,2.06a22.651,22.651,0,0,1-3.815,1.287q-.264.062-.528.12Zm8.67-2.827a19.326,19.326,0,0,0,3.1-2.368h0c.131-.123.263-.249.391-.378a19.339,19.339,0,0,0,1.644-1.854c.129-.166.256-.335.381-.506l.073-.1A19.388,19.388,0,0,0,33.826,6.621l-.013-.009A19.539,19.539,0,0,0,7.553,9.731c-.028.033-.054.067-.082.1h0c-.293.349-.577.708-.849,1.081a19.819,19.819,0,0,0-1.294,2.027h0c-.042.072-.083.144-.123.217A19.12,19.12,0,0,0,3.869,16.25c-.029.088-.055.176-.083.263L1.363,14.638c.041-.109.081-.221.124-.33a22.177,22.177,0,0,1,1.281-2.731c.08-.143.163-.286.246-.428h0A22.73,22.73,0,0,1,4.275,9.213q.436-.6.9-1.158h0l.028-.036A22.342,22.342,0,0,1,40.492,35.39l-.019.027q-.18.245-.362.484a22.638,22.638,0,0,1-1.665,1.926q-.208.214-.421.422a22.224,22.224,0,0,1-2.993,2.45ZM1.024,28.68c-.085-.28-.167-.559-.243-.826-.225-.783-.4-1.469-.459-1.807a22.838,22.838,0,0,1-.3-2.912l3.165,2.449L.019,23.134C0,22.756,0,22.376,0,22A22.075,22.075,0,0,1,.25,18.935c.017-.115.038-.229.057-.345h0a21.921,21.921,0,0,1,1.054-3.951l2.422,1.875a19.058,19.058,0,0,0-.815,4.137h0c0,.053-.01.107-.014.16a19.44,19.44,0,0,0,0,2.881q.068.935.228,1.872c0,.006,0,.014,0,.021.1.549.667,2.493,1.091,3.756.143.43.27.78.356.971A19.192,19.192,0,0,0,5.66,32.268Z" transform="translate(0 0)" fill="#f1ba0b" stroke="rgba(0,0,0,0)" stroke-miterlimit="10" stroke-width="1"/>
      </g>
    </g>
    <path id="Tracé_2198" data-name="Tracé 2198" d="M-511.476-52.2h5.566v-1.28h-4.183v-3.773h3.381v-1.28h-3.381v-4.337h4.063v-1.28h-5.446Zm8.724-4.593h5.993v-1.28h-5.993Zm9.92,4.593h1.383v-3.944h1.639l2.134,3.944h1.52l-2.271-4.217c1.793-.666,2.117-2.339,2.117-3.722,0-1.776-.512-4.012-3.859-4.012h-2.663Zm1.383-10.671h1.28c2.168,0,2.476,1.212,2.476,2.732s-.307,2.629-2.476,2.7h-1.28Zm13.659,7.461a1.845,1.845,0,0,1-1.929,2.1c-1.554,0-2.032-1.11-2.049-3.3h5.327v-.956c0-2.066-.768-4.115-3.278-4.115s-3.329,2.032-3.329,4.78c0,2.663.649,4.78,3.329,4.78a3.011,3.011,0,0,0,3.193-3.3Zm-1.929-5.071c1.4,0,1.98,1.041,2.032,2.7h-4.063C-481.717-59.408-481.154-60.483-479.72-60.483Zm.888-2.3,1.485-2.732h-1.52l-1.5,2.732Zm5.72,14.649h1.3v-4.832a2.624,2.624,0,0,0,2,.854c3.056,0,3.329-3.415,3.329-4.78s-.256-4.78-3.329-4.78a2.732,2.732,0,0,0-1.963.82l-.051-.734H-473.2c.017.359.085.939.085,1.3Zm1.246-8.759c0-.922-.1-3.585,2-3.585,1.98,0,2.049,2.578,2.049,3.585,0,.82-.068,3.585-2.049,3.585C-471.969-53.313-471.866-55.976-471.866-56.9Zm14.973-4.7h-1.28v5.19c0,2.441-.922,3.09-2.151,3.09-1.571,0-1.9-1.007-1.9-3.09v-5.19h-1.28v5.344c0,2.834.751,4.132,3.176,4.132a2.655,2.655,0,0,0,2.22-1.007l.154.922h1.161c-.017-.444-.085-1.161-.1-1.588Zm2.749,1.178h1.3v4.985c0,1.741,0,3.312,1.827,3.312a2.207,2.207,0,0,0,1.554-.649l-.734-.922a.926.926,0,0,1-.82.376c-.546-.017-.546-.7-.546-2.117v-4.985h1.9v-1.178h-1.9V-63.54h-1.281v1.946h-1.3Zm13.437,2.049c0-2.834-2-3.312-3.124-3.312a3.291,3.291,0,0,0-2.7,1.451l1.024.7a2.021,2.021,0,0,1,1.673-.956c.58,0,1.844.256,1.844,2.117v.837a3.89,3.89,0,0,0-1.673-.41,2.992,2.992,0,0,0-3.176,2.988,2.677,2.677,0,0,0,3,2.834,2.631,2.631,0,0,0,1.878-.683l.051.6h1.281c-.017-.324-.068-.939-.085-1.28Zm-2.954,1.622a3.981,3.981,0,0,1,1.673.341v2.271a2.241,2.241,0,0,1-1.844.82,1.505,1.505,0,0,1-1.724-1.639A1.8,1.8,0,0,1-443.661-56.744Zm5.856-3.671h1.3v4.985c0,1.741,0,3.312,1.827,3.312a2.207,2.207,0,0,0,1.554-.649l-.734-.922a.926.926,0,0,1-.819.376c-.546-.017-.546-.7-.546-2.117v-4.985h1.9v-1.178h-1.9V-63.54h-1.28v1.946h-1.3Zm7.632,8.212v-9.39h1.3v9.39Zm1.451-11.985a.8.8,0,0,0-.8-.82.8.8,0,0,0-.8.82.8.8,0,0,0,.8.82A.8.8,0,0,0-428.722-64.188Zm8.4,7.29c0,.922.1,3.585-2,3.585s-2.049-2.663-2.049-3.585-.051-3.585,2.049-3.585S-420.322-57.82-420.322-56.9Zm1.3,0c0-1.366.017-4.78-3.3-4.78s-3.329,3.415-3.329,4.78.017,4.78,3.329,4.78S-419.025-55.532-419.025-56.9Zm3.107,4.7h1.28v-5.19c0-2.441.922-3.09,2.151-3.09,1.571,0,1.9,1.007,1.9,3.09v5.19h1.28v-5.344c0-2.834-.751-4.132-3.176-4.132a2.655,2.655,0,0,0-2.219,1.007l-.154-.922h-1.161c.017.444.085,1.161.1,1.588Z" transform="translate(815.314 487.471)" fill="#f1ba0b"/>
  </g>
</svg>
