<svg xmlns="http://www.w3.org/2000/svg" width="313.277" height="85.518" viewBox="0 0 313.277 85.518">
  <g id="Groupe_53" data-name="Groupe 53" transform="translate(-207.488 -380.482)">
    <g id="Groupe_4" data-name="Groupe 4" transform="translate(287.463 390.535)">
      <path id="Tracé_21" data-name="Tracé 21" d="M620.454,703.5c-11.952,0-14.352,8.7-14.352,22.726s2.4,22.726,14.352,22.726c3.828,0,12.73-1.165,12.73-11.951v-2.6h-5.856V737c0,3.972-2.441,6.16-6.874,6.16-7.858,0-8.5-7.67-8.5-16.935s.639-16.936,8.5-16.936c4.6,0,6.939,2.072,6.939,6.16v2.6h5.791v-2.6C633.183,704.665,624.281,703.5,620.454,703.5Z" transform="translate(-606.101 -703.5)" fill="#152543"/>
      <path id="Tracé_22" data-name="Tracé 22" d="M724.957,704.521V736.4c0,8.792,4.436,13.249,13.184,13.249,8.877,0,13.379-4.458,13.379-13.249V704.521H745.6V736.4c0,5.089-2.37,7.458-7.458,7.458-5.023,0-7.263-2.3-7.263-7.458V704.521Z" transform="translate(-687.179 -704.196)" fill="#152543"/>
      <path id="Tracé_23" data-name="Tracé 23" d="M841.158,733.555v2.6c0,3,1.04,12.795,14.417,12.795,11.548,0,12.795-8.176,12.795-11.691,0-9.03-6.373-11.386-12-13.464-4.083-1.523-8.711-3.25-8.711-8.023,0-3.879,2.945-6.484,7.329-6.484,4.2,0,6.809,2.584,6.809,6.744v2.6h5.921v-2.6c0-.512-.145-12.535-12.73-12.535-13.1,0-13.249,11.774-13.249,12.275,0,9.018,6.153,11.426,12.1,13.754l.092.036c3.988,1.51,8.511,3.223,8.511,7.7,0,1.384-.5,5.9-6.874,5.9-5.441,0-8.562-2.553-8.562-7v-2.6Z" transform="translate(-766.446 -703.5)" fill="#152543"/>
      <path id="Tracé_24" data-name="Tracé 24" d="M956.172,749.324h5.921V710.311h9.023v-5.791H947.148v5.791h9.023Z" transform="translate(-838.748 -704.196)" fill="#152543"/>
      <path id="Tracé_25" data-name="Tracé 25" d="M1054.162,749.324h21.175v-5.791h-15.255v-12.71h12.333v-5.791h-12.333V710.311h14.8v-5.791h-20.721Z" transform="translate(-911.748 -704.196)" fill="#152543"/>
      <path id="Tracé_26" data-name="Tracé 26" d="M1154.435,749.324h21.175v-5.791h-15.255v-12.71h12.333v-5.791h-12.333V710.311h14.8v-5.791h-20.721Z" transform="translate(-980.149 -704.196)" fill="#152543"/>
      <path id="Tracé_27" data-name="Tracé 27" d="M1267.306,704.521h-12.6v44.8h12.6c12.073,0,14.547-8.955,14.547-22.4S1279.379,704.521,1267.306,704.521Zm.011,39.078h-6.691V710.312h6.679c7.967,0,8.627,7.858,8.627,16.611C1275.933,735.877,1275.284,743.312,1267.318,743.6Z" transform="translate(-1048.55 -704.196)" fill="#152543"/>
    </g>
    <g id="Groupe_47" data-name="Groupe 47" transform="translate(208 381)">
      <path id="Tracé_40" data-name="Tracé 40" d="M137.391,37.91a31.6,31.6,0,1,1,0,63.192c-7.212,0-25.054,2.307-25.054,2.307s-6.578-23.667-6.578-33.9A31.6,31.6,0,0,1,137.391,37.91Z" transform="translate(-101.932 -35.112)" fill="#152543"/>
      <path id="Tracé_29" data-name="Tracé 29" d="M137.153,81.8l1.557-14.415,7.534-10.351-2.162-9.652-9.886.952-7.533,10.351-13.288,5.938,7.184,5.207,3.37-4.637,1.462,1.048a.393.393,0,0,1,.158.476L119.13,81.61,131.368,70.94a.49.49,0,0,1,.509,0l1.462,1.048-3.369,4.635Zm.8-20.766a2.284,2.284,0,0,1-3.178.509l-1.335-.984a2.241,2.241,0,0,1-.509-3.144h0l2.352-3.208a2.285,2.285,0,0,1,3.18-.507l1.334.984a2.239,2.239,0,0,1,.509,3.144h0Z" transform="translate(-97.038 -29.044)" fill="#fff" fill-rule="evenodd"/>
      <g id="Groupe_19" data-name="Groupe 19" transform="translate(0 0)">
        <g id="Groupe_15" data-name="Groupe 15" transform="translate(0 17.43)">
          <path id="Tracé_48" data-name="Tracé 48" d="M955.858,595.675a30.629,30.629,0,0,1-29.347,1.316l-.035-.017L916.1,602.56l1.668-12.033-.013-.014a30.224,30.224,0,0,1-5.516-8.233c-.135-.3-.333-.846-.558-1.517-.67-2-1.572-5.092-1.711-5.909q-.249-1.467-.356-2.928a29.964,29.964,0,0,1,3.524-16.475c.064-.118.132-.234.2-.351l-.007.013-3.619-2.8c-.13.222-.26.445-.385.67a34.4,34.4,0,0,0-4.325,16.3,35.228,35.228,0,0,0,.5,6.328c.09.53.369,1.6.719,2.825a57.722,57.722,0,0,0,1.887,5.7,34.6,34.6,0,0,0,3.774,6.4l.012.016-1.6,19.972,18.24-7.8.05.017a35.268,35.268,0,0,0,26.367-1.459,34.714,34.714,0,0,0,9.5-6.6L961.164,594Z" transform="translate(-905 -552.308)" fill="#f1334e"/>
          <path id="Tracé_49" data-name="Tracé 49" d="M919.824,552.3" transform="translate(-915.11 -552.302)" fill="#f1334e"/>
        </g>
        <path id="Union_1" data-name="Union 1" d="M33.744,69.729l-7.414-5.74a30.464,30.464,0,0,0,9.311,1.237q.9-.021,1.8-.094l4.946,3.828q-1.437.308-2.891.5a35.345,35.345,0,0,1-4.531.292Q34.353,69.75,33.744,69.729Zm3.692-4.6c.7-.058,1.394-.136,2.088-.24a30.74,30.74,0,0,0,5.489-1.353q1.005-.346,1.984-.763A30.342,30.342,0,0,0,50.859,60.8c.045-.028.088-.057.135-.085l3.788,2.933c-.088.06-.176.124-.266.183a34.894,34.894,0,0,1-4.559,2.578c-.26.121-.52.238-.782.354l-4.161-3.221,4.161,3.222a35.4,35.4,0,0,1-5.966,2.012q-.413.1-.826.187Zm13.558-4.42a30.218,30.218,0,0,0,4.85-3.7h0c.205-.193.411-.389.612-.59a30.255,30.255,0,0,0,2.57-2.9c.2-.26.4-.523.6-.791l.114-.161A30.319,30.319,0,0,0,52.9,10.355l-.02-.014a30.555,30.555,0,0,0-41.067,4.876c-.043.051-.085.1-.128.156h0c-.458.546-.9,1.108-1.327,1.69a30.959,30.959,0,0,0-2.024,3.17h0c-.065.113-.13.225-.192.339a29.888,29.888,0,0,0-2.089,4.839c-.045.138-.087.276-.13.412l-3.79-2.933c.063-.171.127-.345.193-.517a34.69,34.69,0,0,1,2-4.271c.125-.224.255-.447.385-.669h0a35.544,35.544,0,0,1,1.975-3.025Q7.368,13.475,8.1,12.6h0l.044-.057a34.939,34.939,0,0,1,55.179,42.8c-.009.014-.02.027-.029.042q-.281.383-.566.757a35.471,35.471,0,0,1-2.6,3.012q-.325.334-.658.659a34.741,34.741,0,0,1-4.68,3.831ZM1.6,44.851c-.133-.438-.262-.874-.381-1.292C.87,42.335.593,41.262.5,40.733A35.712,35.712,0,0,1,.03,36.179l4.949,3.83L.03,36.177C.006,35.586,0,34.993,0,34.4a34.519,34.519,0,0,1,.39-4.793c.026-.179.059-.359.09-.54h0a34.286,34.286,0,0,1,1.648-6.179L5.92,25.826a29.8,29.8,0,0,0-1.275,6.469h0c-.006.083-.016.167-.022.25a30.4,30.4,0,0,0,0,4.505q.107,1.462.356,2.928c0,.009,0,.022.006.032.155.859,1.043,3.9,1.705,5.875.224.672.422,1.219.557,1.518a30.012,30.012,0,0,0,1.609,3.06Z" transform="translate(0.001 0)" fill="#f1334e" stroke="rgba(0,0,0,0)" stroke-miterlimit="10" stroke-width="1"/>
      </g>
    </g>
    <path id="Tracé_2199" data-name="Tracé 2199" d="M-265.585-42.4h2.35c1.175-2.323,2.483-4.753,3.685-7.075l3.631,7.075h2.376l-4.726-9.345,4.833-9.318h-2.376l-3.765,7.316-3.765-7.316h-2.35l4.806,9.585Zm16.046,0h8.3v-2.109H-247.4v-16.58h-2.136Zm20.532-5.02c0,1.709-.774,3.284-3.017,3.284-2.43,0-3.177-1.735-3.2-5.153h8.33v-1.5c0-3.231-1.2-6.435-5.126-6.435s-5.206,3.177-5.206,7.476c0,4.165,1.015,7.476,5.206,7.476,3.311,0,4.993-2.216,4.993-5.153Zm-3.017-7.93c2.189,0,3.1,1.629,3.177,4.219H-235.2C-235.148-53.67-234.267-55.352-232.024-55.352Zm18.877,3.311c0-4.432-3.124-5.18-4.886-5.18a5.146,5.146,0,0,0-4.219,2.269l1.6,1.095a3.161,3.161,0,0,1,2.617-1.5c.908,0,2.884.4,2.884,3.311v1.308a6.083,6.083,0,0,0-2.617-.641,4.679,4.679,0,0,0-4.966,4.672c0,2,1.015,4.432,4.7,4.432a4.115,4.115,0,0,0,2.937-1.068l.08.934h2c-.027-.507-.107-1.468-.133-2Zm-4.619,2.536a6.226,6.226,0,0,1,2.617.534v3.551a3.5,3.5,0,0,1-2.884,1.282c-2.083,0-2.7-1.228-2.7-2.563A2.81,2.81,0,0,1-217.766-49.5Zm19.784-12.656h-2.029v6.274a4.1,4.1,0,0,0-3.124-1.335c-4.779,0-5.206,5.34-5.206,7.476s.4,7.476,5.206,7.476a3.745,3.745,0,0,0,3.07-1.308l.08,1.175h2.136c-.027-.534-.107-1.468-.133-2.029Zm-1.949,12.415c0,1.442.16,5.607-3.124,5.607-3.1,0-3.2-4.032-3.2-5.607,0-1.282.107-5.607,3.2-5.607C-199.771-55.352-199.931-51.187-199.931-49.745Zm7.022,2.937a4.572,4.572,0,0,0,4.966,4.539c3.257,0,4.459-2.3,4.459-4.058,0-2.8-2.216-3.685-4.138-4.272-1.549-.481-3.07-.988-3.07-2.617a2.3,2.3,0,0,1,2.563-2.136,2.369,2.369,0,0,1,2.456,2.563h2a4.293,4.293,0,0,0-4.459-4.432,4.189,4.189,0,0,0-4.566,4c0,2.937,2.243,3.738,4.165,4.325,1.549.507,3.017.988,3.017,2.563,0,.721-.294,2.189-2.43,2.189-2.056,0-2.964-1.175-2.964-2.67Z" transform="translate(703.689 508.268)" fill="#f1334e"/>
  </g>
</svg>
