<?xml version="1.0" encoding="utf-8"?>
<!-- Generator: Adobe Illustrator 16.0.0, SVG Export Plug-In . SVG Version: 6.00 Build 0)  -->
<!DOCTYPE svg PUBLIC "-//W3C//DTD SVG 1.1//EN" "http://www.w3.org/Graphics/SVG/1.1/DTD/svg11.dtd">
<svg version="1.1" id="Calque_1" xmlns="http://www.w3.org/2000/svg" xmlns:xlink="http://www.w3.org/1999/xlink" x="0px" y="0px"
	 width="1632px" height="1500px" viewBox="0 0 1632 1500" enable-background="new 0 0 1632 1500" xml:space="preserve">
<g>
	<g>
		<path fill="#FFFFFF" d="M1461.364,147.247c-0.197,23.952-19.773,43.207-43.727,43.017c-23.953-0.198-43.213-19.774-43.016-43.724
			c0.197-23.814,19.555-43.018,43.371-43.018c22.852-1.116,42.275,16.51,43.389,39.361
			C1461.449,144.337,1461.446,145.791,1461.364,147.247z M1417.992,185.659c19.521,1.149,36.273-13.744,37.422-33.263
			c0.102-1.714,0.08-3.437-0.072-5.15c1.424-20.582-14.113-38.412-34.693-39.835c-20.58-1.417-38.412,14.116-39.83,34.695
			c-0.121,1.713-0.121,3.427,0,5.14c-1.693,19.482,12.729,36.643,32.211,38.333C1414.682,185.72,1416.334,185.75,1417.992,185.659z
			 M1422.416,123.702h-20.354v46.026h5.66v-17.7h9.914l15.049,17.7h6.195v-0.885l-14.336-16.286
			c8.018-0.588,14.039-7.56,13.453-15.581c-0.59-8.015-7.563-14.042-15.578-13.453v0.178L1422.416,123.702L1422.416,123.702z
			 M1407.723,129.19h14.693c4.891-0.985,9.648,2.183,10.631,7.072c0.98,4.887-2.182,9.648-7.072,10.63
			c-1.174,0.233-2.385,0.233-3.559,0h-14.342L1407.723,129.19z"/>
	</g>
	<g>
		<path opacity="0.5" fill="#FFFFFF" enable-background="new    " d="M937.977,348.956l-54.092,93.89
			c18.412,10.65,34.086,25.43,45.773,43.177l65.277-24.445l-54.355,44.215c14.055,32.161,15.074,68.528,2.867,101.428
			l101.426,37.968c41.6-111.605-3.471-236.933-106.635-296.479L937.977,348.956z"/>
		<path fill="#FFFFFF" d="M816.001,695.646h-4.68c-74.77-2.544-133.348-65.229-130.805-140.017
			c2.525-74.787,65.214-133.355,140.001-130.822c22.188,0.758,43.861,6.956,63.105,18.056l54.092-93.892
			c-116.627-67.439-265.849-27.575-333.288,89.064c-67.454,116.629-27.574,265.855,89.049,333.302
			c37.235,21.534,79.518,32.831,122.532,32.771h4.687c74.637,2.656,133,65.288,130.367,139.952
			c-2.635,74.638-65.291,132.991-139.935,130.387c-74.661-2.646-133.013-65.311-130.386-139.956
			c0.515-14.427,3.338-28.658,8.341-42.199l-101.429-37.968c-47.11,126.228,17.035,266.732,143.244,313.845
			c126.237,47.125,266.743-17.029,313.86-143.235c47.109-126.237-17.016-266.732-143.246-313.853
			c-27.266-10.184-56.139-15.398-85.242-15.404H816L816.001,695.646L816.001,695.646z"/>
		<path fill="#FFFFFF" d="M805.593,532.316c-15.645,8.899-21.128,28.808-12.226,44.469c8.903,15.665,28.811,21.134,44.469,12.229
			l102.225-82.966c-3.082-6.881-6.732-13.493-10.916-19.761L805.593,532.316z"/>
		<g>
			<path fill="#FFFFFF" d="M816.001,1415.204c-366.779,0-665.179-298.418-665.179-665.234
				c0-366.783,298.398-665.174,665.179-665.174c366.779,0,665.177,298.392,665.177,665.174
				C1481.18,1116.786,1182.781,1415.204,816.001,1415.204z M816.001,109.322c-353.262,0-640.648,287.396-640.648,640.648
				c0,353.281,287.4,640.711,640.648,640.711c353.253,0,640.648-287.425,640.648-640.711
				C1456.649,396.713,1169.25,109.322,816.001,109.322z"/>
		</g>
	</g>
</g>
</svg>
