<svg xmlns="http://www.w3.org/2000/svg" width="984.498" height="267.933" viewBox="0 0 984.498 267.933">
  <g id="Custeed_-_Automation" data-name="Custeed - Automation" transform="translate(-207.502 -380.487)">
    <g id="Groupe_4" data-name="Groupe 4" transform="translate(-148.101 -292.5)">
      <path id="Tracé_21" data-name="Tracé 21" d="M651.256,703.5c-37.6,0-45.155,27.358-45.155,71.5s7.553,71.5,45.155,71.5c12.042,0,40.049-3.664,40.049-37.6v-8.19H672.882v8.19c0,12.5-7.681,19.38-21.626,19.38-24.721,0-26.733-24.13-26.733-53.281s2.012-53.282,26.733-53.282c14.485,0,21.83,6.52,21.83,19.381v8.189H691.3V741.1C691.3,707.164,663.3,703.5,651.256,703.5Z" fill="#152543"/>
      <path id="Tracé_22" data-name="Tracé 22" d="M724.957,704.521V804.816c0,27.66,13.955,41.684,41.479,41.684,27.929,0,42.091-14.024,42.091-41.684V704.521H789.9V804.816c0,16.009-7.456,23.465-23.464,23.465-15.8,0-22.852-7.237-22.852-23.465V704.521Z" transform="translate(-0.002)" fill="#152543"/>
      <path id="Tracé_23" data-name="Tracé 23" d="M841.158,798.056v8.19c0,9.443,3.271,40.254,45.359,40.254,36.331,0,40.254-25.723,40.254-36.782,0-28.409-20.051-35.82-37.742-42.359-12.847-4.793-27.406-10.225-27.406-25.24,0-12.2,9.266-20.4,23.057-20.4,13.214,0,21.422,8.131,21.422,21.219v8.19h18.627v-8.19c0-1.611-.456-39.437-40.049-39.437C843.47,703.5,843,740.542,843,742.119c0,28.372,19.359,35.947,38.081,43.273l.29.113c12.546,4.752,26.777,10.141,26.777,24.213,0,4.354-1.56,18.563-21.627,18.563-17.119,0-26.936-8.031-26.936-22.035v-8.19Z" transform="translate(-0.005)" fill="#152543"/>
      <path id="Tracé_24" data-name="Tracé 24" d="M975.536,845.479h18.627V722.739h28.388V704.521h-75.4v18.219h28.388Z" transform="translate(-0.007)" fill="#152543"/>
      <path id="Tracé_25" data-name="Tracé 25" d="M1054.162,845.479h66.62V827.261h-47.993V787.274h38.8V769.056h-38.8V722.739h46.564V704.521h-65.191Z" transform="translate(-0.009)" fill="#152543"/>
      <path id="Tracé_26" data-name="Tracé 26" d="M1154.435,845.479h66.62V827.261h-47.993V787.274h38.8V769.056h-38.8V722.739h46.563V704.521h-65.19Z" transform="translate(-0.011)" fill="#152543"/>
      <path id="Tracé_27" data-name="Tracé 27" d="M1294.347,704.521h-39.641V845.479h39.641c37.984,0,45.767-28.175,45.767-70.479S1332.331,704.521,1294.347,704.521Zm.036,122.943h-21.05V722.739h21.014c25.065,0,27.141,24.721,27.141,52.261C1321.488,803.17,1319.448,826.562,1294.383,827.464Z" transform="translate(-0.013)" fill="#152543"/>
    </g>
    <g id="Groupe_47" data-name="Groupe 47" transform="translate(104.571 344.795)">
      <path id="Tracé_40" data-name="Tracé 40" d="M205.277,37.91a99.405,99.405,0,1,1,0,198.81c-22.691,0-78.822,7.257-78.822,7.257s-20.7-74.458-20.7-106.663A99.431,99.431,0,0,1,205.277,37.91Z" transform="translate(9.711 7.097)" fill="#152543"/>
      <path id="Tracé_29" data-name="Tracé 29" d="M188.183,155.665l4.9-45.351,23.7-32.566-6.8-30.367-31.1,2.994-23.7,32.566-41.806,18.68,22.6,16.383,10.6-14.587,4.6,3.3a1.237,1.237,0,0,1,.5,1.5l-20.2,46.853,38.5-33.567a1.541,1.541,0,0,1,1.6,0l4.6,3.3-10.6,14.582Zm2.5-65.332a7.186,7.186,0,0,1-10,1.6l-4.2-3.1a7.05,7.05,0,0,1-1.6-9.89h0l7.4-10.091a7.19,7.19,0,0,1,10-1.595l4.2,3.1a7.045,7.045,0,0,1,1.6,9.89h0Z" transform="translate(41.455 46.517)" fill="#fff" fill-rule="evenodd"/>
      <g id="Groupe_19" data-name="Groupe 19" transform="translate(-801.571 -461.23)">
        <g id="Groupe_15" data-name="Groupe 15" transform="translate(905 552.272)">
          <path id="Tracé_48" data-name="Tracé 48" d="M1065.007,688.739a96.364,96.364,0,0,1-92.33,4.142l-.111-.055L939.934,710.4l5.246-37.858-.041-.044a95.09,95.09,0,0,1-17.355-25.9c-.424-.938-1.048-2.662-1.756-4.773-2.107-6.3-4.945-16.02-5.382-18.59q-.782-4.616-1.12-9.213a94.268,94.268,0,0,1,11.088-51.832c.2-.372.416-.737.621-1.105l-.023.041-11.387-8.813c-.408.7-.819,1.4-1.212,2.109A108.218,108.218,0,0,0,905.007,605.7a110.8,110.8,0,0,0,1.576,19.908c.284,1.666,1.161,5.039,2.261,8.888a181.616,181.616,0,0,0,5.937,17.938,108.86,108.86,0,0,0,11.874,20.14l.038.051-5.019,62.836,57.384-24.544.156.054a110.96,110.96,0,0,0,82.953-4.591,109.22,109.22,0,0,0,29.9-20.762L1081.7,683.46Z" transform="translate(-905 -552.302)" fill="#f36233"/>
          <path id="Tracé_49" data-name="Tracé 49" d="M919.824,552.3" transform="translate(-904.994 -552.302)" fill="#f36233"/>
        </g>
        <path id="Union_1" data-name="Union 1" d="M1855.165,8341.812l-23.326-18.059a95.888,95.888,0,0,0,29.3,3.891q2.826-.067,5.648-.3l15.561,12.045q-4.521.97-9.095,1.566a111.143,111.143,0,0,1-14.254.92Q1857.08,8341.878,1855.165,8341.812Zm11.617-14.465q3.3-.272,6.568-.756a96.649,96.649,0,0,0,17.27-4.256q3.162-1.087,6.242-2.4a95.437,95.437,0,0,0,12.147-6.227c.141-.088.278-.18.424-.268l11.919,9.227c-.278.189-.555.389-.838.574a109.681,109.681,0,0,1-14.343,8.111c-.818.381-1.636.75-2.459,1.115l-13.092-10.133,13.092,10.137a111.374,111.374,0,0,1-18.769,6.33q-1.3.308-2.6.59Zm42.655-13.906a95.093,95.093,0,0,0,15.259-11.65l0,0c.646-.607,1.293-1.225,1.925-1.857a95.2,95.2,0,0,0,8.087-9.119c.633-.818,1.261-1.646,1.875-2.488l.36-.506a95.387,95.387,0,0,0-21.52-132.811l-.063-.043a96.129,96.129,0,0,0-129.2,15.342c-.136.16-.268.33-.4.49l0,0c-1.44,1.719-2.837,3.484-4.175,5.318a97.476,97.476,0,0,0-6.367,9.975l0,0c-.2.355-.409.707-.6,1.066a94.037,94.037,0,0,0-6.573,15.225c-.141.434-.273.867-.409,1.295l-11.924-9.227c.2-.539.4-1.086.609-1.625a109.092,109.092,0,0,1,6.3-13.437c.394-.705.8-1.406,1.211-2.105l0,0a111.8,111.8,0,0,1,6.213-9.518q2.147-2.936,4.445-5.7l0,0,.139-.178a109.923,109.923,0,0,1,173.6,134.662c-.029.043-.063.086-.093.131q-.884,1.2-1.782,2.381a111.5,111.5,0,0,1-8.194,9.475q-1.022,1.052-2.069,2.074a109.325,109.325,0,0,1-14.723,12.055Zm-155.4-49.9c-.419-1.377-.823-2.75-1.2-4.064-1.105-3.852-1.977-7.227-2.259-8.891a112.354,112.354,0,0,1-1.49-14.328l15.57,12.049-15.57-12.055c-.073-1.859-.107-3.725-.088-5.58a108.588,108.588,0,0,1,1.227-15.078c.083-.564.185-1.129.282-1.7l0,0a107.852,107.852,0,0,1,5.185-19.439l11.919,9.227a93.753,93.753,0,0,0-4.012,20.352l0,0c-.02.262-.049.525-.068.787a95.637,95.637,0,0,0-.015,14.174q.336,4.6,1.12,9.211c0,.029.014.068.019.1.487,2.7,3.282,12.266,5.365,18.482.706,2.113,1.329,3.836,1.753,4.775a94.417,94.417,0,0,0,5.063,9.627Z" transform="translate(-843.999 -7625)" fill="#f36233" stroke="rgba(0,0,0,0)" stroke-miterlimit="10" stroke-width="1"/>
      </g>
    </g>
    <path id="Tracé_2204" data-name="Tracé 2204" d="M-447.552,0h6.888l3.024-11.34h21.168L-413.364,0h6.888l-16.8-58.8h-7.476Zm20.5-48.468c3.276,11.424,5.8,19.74,8.9,30.828H-435.96Zm63.588,2.268h-6.3v25.536c0,12.012-4.536,15.2-10.584,15.2-7.728,0-9.324-4.956-9.324-15.2V-46.2h-6.3v26.292c0,13.944,3.7,20.328,15.624,20.328,5.292,0,8.652-2.1,10.92-4.956L-368.676,0h5.712c-.084-2.184-.42-5.712-.5-7.812Zm13.524,5.8h6.384v24.528c0,8.568,0,16.3,8.988,16.3,2.688,0,4.284-.588,7.644-3.192l-3.612-4.536c-1.764,1.764-2.52,1.848-4.032,1.848-2.688-.084-2.688-3.444-2.688-10.416V-40.4h9.324v-5.8h-9.324v-9.576h-6.3V-46.2h-6.384Zm61.74,17.3c0,4.536.5,17.64-9.828,17.64s-10.08-13.1-10.08-17.64-.252-17.64,10.08-17.64S-288.2-27.636-288.2-23.1Zm6.384,0c0-6.72.084-23.52-16.212-23.52s-16.38,16.8-16.38,23.52S-314.328.42-298.032.42-281.82-16.38-281.82-23.1ZM-266.532,0h6.3V-25.536c0-12.012,4.2-15.2,10.248-15.2,7.224,0,8.736,4.452,8.9,13.608V0h6.3V-26.46c.252-11.256,4.284-14.28,10.248-14.28,7.644,0,8.82,4.956,8.82,15.2V0h6.3V-26.292c0-13.944-3.276-20.328-15.12-20.328-4.956,0-9.324,2.6-12.264,7.224-2.184-4.788-6.216-7.224-13.188-7.224a12.906,12.906,0,0,0-10.584,4.872l-.672-4.452h-5.8c.084,2.184.42,5.628.5,7.728ZM-163.3-30.324c0-13.944-9.828-16.3-15.372-16.3s-10.08,2.772-13.272,7.14l5.04,3.444a9.945,9.945,0,0,1,8.232-4.7c2.856,0,9.072,1.26,9.072,10.416v4.116a19.139,19.139,0,0,0-8.232-2.016c-10.332,0-15.624,7.56-15.624,14.7,0,6.3,3.192,13.944,14.784,13.944a12.945,12.945,0,0,0,9.24-3.36l.252,2.94h6.3c-.084-1.6-.336-4.62-.42-6.3Zm-14.532,7.98a19.589,19.589,0,0,1,8.232,1.68V-9.492c-2.1,2.772-5.46,4.032-9.072,4.032-6.552,0-8.484-3.864-8.484-8.064C-187.152-18.228-183.54-22.344-177.828-22.344Zm28.812-18.06h6.384v24.528c0,8.568,0,16.3,8.988,16.3,2.688,0,4.284-.588,7.644-3.192l-3.612-4.536c-1.764,1.764-2.52,1.848-4.032,1.848-2.688-.084-2.688-3.444-2.688-10.416V-40.4h9.324v-5.8h-9.324v-9.576h-6.3V-46.2h-6.384ZM-111.468,0V-46.2h6.384V0Zm7.14-58.968A3.911,3.911,0,0,0-108.276-63a3.911,3.911,0,0,0-3.948,4.032,3.911,3.911,0,0,0,3.948,4.032A3.911,3.911,0,0,0-104.328-58.968ZM-63-23.1c0,4.536.5,17.64-9.828,17.64s-10.08-13.1-10.08-17.64-.252-17.64,10.08-17.64S-63-27.636-63-23.1Zm6.384,0c0-6.72.084-23.52-16.212-23.52s-16.38,16.8-16.38,23.52S-89.124.42-72.828.42-56.616-16.38-56.616-23.1ZM-41.328,0h6.3V-25.536c0-12.012,4.536-15.2,10.584-15.2,7.728,0,9.324,4.956,9.324,15.2V0h6.3V-26.292c0-13.944-3.7-20.328-15.624-20.328-5.292,0-8.652,2.1-10.92,4.956L-36.12-46.2h-5.712c.084,2.184.42,5.712.5,7.812Z" transform="translate(1200.552 648)" fill="#f36233"/>
  </g>
</svg>
