<svg xmlns="http://www.w3.org/2000/svg" width="159.444" height="42" viewBox="0 0 159.444 42">
  <g id="Groupe_5566" data-name="Groupe 5566" transform="translate(-545.001 -455)">
    <g id="Logo_-_GS" data-name="Logo - GS" transform="translate(529.809 447.803)">
      <path id="Tracé_90" data-name="Tracé 90" d="M0,0V-.006Z" transform="translate(127.08 13.942)" fill="#fff"/>
      <path id="Tracé_91" data-name="Tracé 91" d="M0,0Z" transform="translate(127.08 13.936)" fill="#fff"/>
      <path id="Tracé_92" data-name="Tracé 92" d="M-.028-.14a3.884,3.884,0,0,0,3.7,4.058c.086.006.168.006.25.006,5.414,0,5.414-8.088,0-8.088A3.871,3.871,0,0,0-.03-.379c0,.078,0,.159,0,.239m8.9-4.815V4.721H7.909V2.689A4.508,4.508,0,0,1,3.956,4.9,4.972,4.972,0,0,1-1.016-.072,4.971,4.971,0,0,1,3.956-5.043,4.38,4.38,0,0,1,7.909-2.814V-4.956Z" transform="translate(66.659 25.043)" fill="#fff"/>
      <path id="Tracé_93" data-name="Tracé 93" d="M-.026,0l.04,1.724A3.388,3.388,0,0,1,3.221-.1,3.742,3.742,0,0,1,5.3.472l-.432.785A3.062,3.062,0,0,0,3.221.8,3.214,3.214,0,0,0,.028,4.028V9.664H-.926V0Z" transform="translate(79.196 20.089)" fill="#fff"/>
      <path id="Tracé_94" data-name="Tracé 94" d="M-.03-.14A3.889,3.889,0,0,0,3.676,3.918c.083.006.164.006.248.006,5.414,0,5.414-8.088,0-8.088A3.87,3.87,0,0,0-.03-.379c0,.078,0,.159,0,.239M8.824-4.956V4.721H7.862V2.689A4.506,4.506,0,0,1,3.911,4.9,4.972,4.972,0,0,1-1.064-.072,4.972,4.972,0,0,1,3.911-5.043,4.38,4.38,0,0,1,7.862-2.814V-4.956Z" transform="translate(86.524 25.043)" fill="#fff"/>
      <path id="Tracé_95" data-name="Tracé 95" d="M-.252-.131c0-2.389-1.584-3.718-3.917-3.718A3.86,3.86,0,0,0-8.107-.131Zm-8.8.391A4.865,4.865,0,0,1-4.313-4.73h.179c2.706,0,5.15,1.664,4.777,5.409H-8.073A3.805,3.805,0,0,0-4.135,4.323,4.554,4.554,0,0,0-.652,2.855L.026,3.4A5.306,5.306,0,0,1-4.142,5.262,4.734,4.734,0,0,1-9.051.7a4.238,4.238,0,0,1,0-.444" transform="translate(117.361 24.642)" fill="#fff"/>
      <path id="Tracé_96" data-name="Tracé 96" d="M-.028-.136a3.415,3.415,0,0,1,3.58-3.756A3.439,3.439,0,0,1,7.164-.136a3.707,3.707,0,0,1-3.619,3.72A3.544,3.544,0,0,1-.032.068c0-.064,0-.135,0-.2M5.513,3.972A4.576,4.576,0,0,0,8.118-.145a4.41,4.41,0,0,0-4.554-4.74A4.4,4.4,0,0,0-.976-.145a4.438,4.438,0,0,0,4.54,4.687c1.8,0,3.661.818,3.661,2.893S5.5,10.352,3.564,10.352-.054,9.41-.054,7.435H-1.01c0,2.45,2.03,3.859,4.582,3.859s4.6-1.255,4.6-3.859A3.577,3.577,0,0,0,5.513,3.972" transform="translate(56.004 24.835)" fill="#fff"/>
      <path id="Tracé_97" data-name="Tracé 97" d="M-.029-.135a3.417,3.417,0,0,1,3.58-3.756A3.44,3.44,0,0,1,7.164-.135,3.71,3.71,0,0,1,3.545,3.59,3.552,3.552,0,0,1-.032.072c0-.065,0-.135.006-.2ZM5.514,3.981A4.58,4.58,0,0,0,8.12-.135a4.411,4.411,0,0,0-4.556-4.74A4.4,4.4,0,0,0-.977-.135a4.437,4.437,0,0,0,4.54,4.686c1.8,0,3.661.819,3.661,2.894s-1.732,2.917-3.654,2.917S-.049,9.42-.049,7.445h-.98c0,2.449,2.03,3.859,4.58,3.859s4.6-1.255,4.6-3.859a3.547,3.547,0,0,0-2.64-3.464" transform="translate(98.632 24.825)" fill="#fff"/>
      <path id="Tracé_98" data-name="Tracé 98" d="M-.036-.028h.56A.347.347,0,0,1,.932.239.35.35,0,0,1,.661.647a.406.406,0,0,1-.137,0H-.023Zm.56-.209H-.253V1.523h.217V.843H.342l.575.681h.238V1.486L.6.864A.555.555,0,0,0,1.118.27.548.548,0,0,0,.524-.237M.357,2.129A1.467,1.467,0,1,0,.45-.8,1.463,1.463,0,0,0-1.064.615V.661A1.35,1.35,0,0,0,.167,2.125a1.026,1.026,0,0,0,.19,0M2.012.661A1.659,1.659,0,0,1,.342,2.307,1.661,1.661,0,0,1,.357-1.014,1.586,1.586,0,0,1,2.014.492a1.649,1.649,0,0,1,0,.169" transform="translate(172.621 19.208)" fill="#fff"/>
      <path id="Tracé_99" data-name="Tracé 99" d="M-.253-.248A4.974,4.974,0,0,1-3.973,1.28,4.789,4.789,0,0,1-9.1-3.83,4.79,4.79,0,0,1-3.973-8.938,4.594,4.594,0,0,1-.488-7.512L-1.99-5.9a2.932,2.932,0,0,0-1.937-.764A2.708,2.708,0,0,0-6.711-4.038c0,.078,0,.152,0,.231A2.634,2.634,0,0,0-4.273-.993c.091,0,.181.008.27,0a2.9,2.9,0,0,0,2.146-.849Z" transform="translate(140.555 28.774)" fill="#fff"/>
      <path id="Tracé_100" data-name="Tracé 100" d="M-.068-.144A2.614,2.614,0,0,0,2.556,2.7,2.6,2.6,0,0,0,5.182-.144,2.711,2.711,0,0,0,2.63-3a.393.393,0,0,1-.074,0A2.651,2.651,0,0,0-.068-.144m7.652,0A5.019,5.019,0,0,1,2.566,4.881,5.023,5.023,0,0,1-2.457-.136V-.144A5.024,5.024,0,0,1,2.56-5.17,5.024,5.024,0,0,1,7.584-.149Z" transform="translate(143.984 25.088)" fill="#fff"/>
      <path id="Tracé_101" data-name="Tracé 101" d="M-.063-.007.114,1.109A2.85,2.85,0,0,1,2.819-.246,3.663,3.663,0,0,1,5.3.678l-1.06,2.08a2.411,2.411,0,0,0-1.727-.631A2.229,2.229,0,0,0,.1,4.155a2.185,2.185,0,0,0,0,.422V9.663H-2.283V-.007Z" transform="translate(155.488 20.113)" fill="#fff"/>
      <path id="Tracé_102" data-name="Tracé 102" d="M-.221-.114a2.209,2.209,0,0,0-2.5-1.88A2.6,2.6,0,0,0-5.431-.114ZM-5.464,1.862c.155,1.193,1.189,2.028,2.875,2.028A3.986,3.986,0,0,0,0,3.016L1.492,4.53A5.915,5.915,0,0,1-2.656,6.09c-3.331,0-5.305-2.026-5.305-5.148A4.845,4.845,0,0,1-2.833-4.107c3.1,0,5.245,2.031,4.873,5.969Z" transform="translate(169.206 23.921)" fill="#fff"/>
      <path id="Tracé_103" data-name="Tracé 103" d="M-.134-.206H-.221a2.581,2.581,0,0,1-2.526-2.64A2.585,2.585,0,0,1-.1-5.37a2.228,2.228,0,0,1,.432.045H.45a2.869,2.869,0,0,1,.383.12l.1.048.216.118,1.037-1.8A4.6,4.6,0,0,0,1.173-7.27L1.03-7.306.618-7.384H.462A4.647,4.647,0,0,0-4.654-3.259,4.645,4.645,0,0,0-.528,1.858c.14.018.281.022.423.028h.034A2.588,2.588,0,0,1,2.454,4.528,2.586,2.586,0,0,1-.191,7.054,2.784,2.784,0,0,1-.62,7.012H-.741a2.547,2.547,0,0,1-.385-.126l-.1-.045A2.577,2.577,0,0,1-2.582,3.592l-1.935-.725a4.651,4.651,0,0,0,2.03,5.652,4.811,4.811,0,0,0,1.014.427l.143.032.411.08h.158A4.646,4.646,0,0,0,4.355,4.934,4.649,4.649,0,0,0,.229-.185C.089-.2-.052-.208-.194-.212Z" transform="translate(124.879 20.888)" fill="#fff"/>
      <path id="Tracé_104" data-name="Tracé 104" d="M-.037-.115A2.624,2.624,0,0,1-.2.8l1.937.722A4.648,4.648,0,0,0-.3-4.131L-1.33-2.33A2.571,2.571,0,0,1-.037-.115" transform="translate(127.391 18.143)" fill="#fff" opacity="0.5"/>
      <rect id="Rectangle_5" data-name="Rectangle 5" width="3.359" height="5.65" transform="translate(126.062 14.012)" fill="none"/>
      <path id="Tracé_105" data-name="Tracé 105" d="M-.04,0-1.449,2.444a3.547,3.547,0,0,1,1.19,1.12l1.7-.634L.026,4.082A3.518,3.518,0,0,1,.1,6.72l2.638.986A6.344,6.344,0,0,0-.034-.006Z" transform="translate(35.712 14.169)" fill="#fff" opacity="0.5"/>
      <rect id="Rectangle_6" data-name="Rectangle 6" width="4.589" height="7.711" transform="translate(34.263 14.164)" fill="none"/>
      <path id="Tracé_106" data-name="Tracé 106" d="M-.182-.114H-.305a3.561,3.561,0,0,1-3.4-3.706A3.552,3.552,0,0,1-.066-7.281,3.473,3.473,0,0,1,1.577-6.8L2.984-9.287A6.285,6.285,0,0,0-5.686-6.93,6.513,6.513,0,0,0-3.37,1.888a6.256,6.256,0,0,0,3.188.869h.12a3.55,3.55,0,0,1,3.391,3.7A3.545,3.545,0,0,1-.309,9.911,3.56,3.56,0,0,1-3.7,6.2a3.683,3.683,0,0,1,.217-1.114l-2.638-1a6.487,6.487,0,0,0,3.726,8.3A6.318,6.318,0,0,0,5.769,8.6,6.485,6.485,0,0,0,2.042.3,6.227,6.227,0,0,0-.174-.114Z" transform="translate(32.68 23.373)" fill="#fff"/>
      <path id="Tracé_107" data-name="Tracé 107" d="M-.012-.034A.849.849,0,1,0,.827,1.442L3.486-.716A3.245,3.245,0,0,0,3.2-1.232Z" transform="translate(32.239 19.001)" fill="#fff"/>
      <path id="Tracé_108" data-name="Tracé 108" d="M-.494-.011a16.781,16.781,0,0,0-16.67,16.855A16.781,16.781,0,0,0-.494,33.7,16.781,16.781,0,0,0,16.172,16.844,16.781,16.781,0,0,0-.494-.011m0,34.355A17.425,17.425,0,0,1-17.8,16.844,17.423,17.423,0,0,1-.494-.656a17.423,17.423,0,0,1,17.3,17.5,17.424,17.424,0,0,1-17.3,17.5" transform="translate(32.993 7.854)" fill="#fff"/>
    </g>
    <g id="Groupe_5565" data-name="Groupe 5565" transform="translate(28 290)">
      <g id="Groupe_5563" data-name="Groupe 5563" transform="translate(626.584 195)">
        <g id="Groupe_4" data-name="Groupe 4" transform="translate(12.605 1.513)">
          <path id="Tracé_21" data-name="Tracé 21" d="M608.378,703.5c-1.9,0-2.277,1.379-2.277,3.605s.381,3.605,2.277,3.605a1.81,1.81,0,0,0,2.019-1.9V708.4h-.929v.413c0,.63-.387.977-1.09.977-1.246,0-1.348-1.217-1.348-2.686s.1-2.687,1.348-2.687c.73,0,1.1.329,1.1.977v.413h.919V705.4A1.81,1.81,0,0,0,608.378,703.5Z" transform="translate(-606.101 -703.5)" fill="#fff" stroke="#fff" stroke-width="0.3"/>
          <path id="Tracé_22" data-name="Tracé 22" d="M724.957,704.521v5.057a2.107,2.107,0,0,0,4.214,0v-5.057h-.939v5.057a1.031,1.031,0,0,1-1.183,1.183c-.8,0-1.152-.365-1.152-1.183v-5.057Z" transform="translate(-718.964 -704.469)" fill="#fff" stroke="#fff" stroke-width="0.3"/>
          <path id="Tracé_23" data-name="Tracé 23" d="M841.158,708.268v.413c0,.476.165,2.03,2.287,2.03a1.768,1.768,0,0,0,2.03-1.855c0-1.432-1.011-1.806-1.9-2.136-.648-.242-1.382-.516-1.382-1.273a1.043,1.043,0,0,1,1.163-1.029,1,1,0,0,1,1.08,1.07v.413h.939v-.413a2.063,2.063,0,0,0-4.121-.041c0,1.43.976,1.812,1.92,2.182l.015.006c.633.24,1.35.511,1.35,1.221,0,.22-.079.936-1.09.936-.863,0-1.358-.4-1.358-1.111v-.413Z" transform="translate(-829.306 -703.5)" fill="#fff" stroke="#fff" stroke-width="0.3"/>
          <path id="Tracé_24" data-name="Tracé 24" d="M948.58,711.628h.939v-6.189h1.431v-.919h-3.8v.919h1.431Z" transform="translate(-929.953 -704.469)" fill="#fff" stroke="#fff" stroke-width="0.3"/>
          <path id="Tracé_25" data-name="Tracé 25" d="M1054.162,711.628h3.359v-.919h-2.42v-2.016h1.956v-.919H1055.1v-2.335h2.348v-.919h-3.287Z" transform="translate(-1031.571 -704.469)" fill="#fff" stroke="#fff" stroke-width="0.3"/>
          <path id="Tracé_26" data-name="Tracé 26" d="M1154.435,711.628h3.359v-.919h-2.42v-2.016h1.956v-.919h-1.956v-2.335h2.348v-.919h-3.287Z" transform="translate(-1126.788 -704.469)" fill="#fff" stroke="#fff" stroke-width="0.3"/>
          <path id="Tracé_27" data-name="Tracé 27" d="M1256.7,704.521h-2v7.107h2c1.915,0,2.308-1.421,2.308-3.554S1258.62,704.521,1256.7,704.521Zm0,6.2h-1.061v-5.28h1.059c1.264,0,1.369,1.246,1.369,2.635C1258.073,709.495,1257.97,710.674,1256.707,710.72Z" transform="translate(-1222.004 -704.469)" fill="#fff" stroke="#fff" stroke-width="0.3"/>
        </g>
        <g id="Groupe_17" data-name="Groupe 17" transform="translate(-1 0)">
          <path id="Tracé_40" data-name="Tracé 40" d="M110.777,37.91a5.012,5.012,0,1,1,0,10.024c-1.144,0-3.974.366-3.974.366a30.867,30.867,0,0,1-1.044-5.378A5.013,5.013,0,0,1,110.777,37.91Z" transform="translate(-105.152 -37.466)" fill="#152543"/>
          <path id="Tracé_29" data-name="Tracé 29" d="M117.148,52.842l.247-2.287,1.2-1.642-.343-1.531-1.568.151-1.195,1.642-2.108.942,1.14.826.535-.735.232.166a.062.062,0,0,1,.025.075l-1.019,2.362,1.941-1.692a.078.078,0,0,1,.081,0l.232.166-.534.735Zm.126-3.294a.362.362,0,0,1-.5.081l-.212-.156a.355.355,0,0,1-.081-.5h0l.373-.509a.363.363,0,0,1,.5-.08l.212.156a.355.355,0,0,1,.081.5h0Z" transform="translate(-110.784 -44.473)" fill="#fff" fill-rule="evenodd"/>
          <g id="Groupe_19" data-name="Groupe 19" transform="translate(0 0)">
            <g id="Groupe_15" data-name="Groupe 15" transform="translate(0 2.765)">
              <path id="Tracé_48" data-name="Tracé 48" d="M913.067,559.19a4.858,4.858,0,0,1-4.655.209l-.006,0-1.645.886.265-1.909,0,0a4.792,4.792,0,0,1-.875-1.306c-.021-.047-.053-.134-.089-.241-.106-.318-.249-.808-.271-.937q-.039-.233-.057-.464a4.753,4.753,0,0,1,.559-2.613l.031-.056v0l-.574-.444c-.021.035-.041.071-.061.106A5.454,5.454,0,0,0,905,555a5.587,5.587,0,0,0,.079,1c.014.084.059.254.114.448a9.152,9.152,0,0,0,.3.9,5.5,5.5,0,0,0,.6,1.016l0,0-.253,3.168,2.893-1.238.008,0a5.594,5.594,0,0,0,4.182-.231,5.508,5.508,0,0,0,1.507-1.047l-.522-.109Z" transform="translate(-905 -552.31)" fill="#f1334e"/>
              <path id="Tracé_49" data-name="Tracé 49" d="M919.824,552.3" transform="translate(-919.076 -552.302)" fill="#f1334e"/>
            </g>
            <path id="Tracé_30" data-name="Tracé 30" d="M906.241,613.1c-.021-.047-.053-.134-.089-.241-.1-.313-.246-.8-.27-.932l-.785-.608a5.6,5.6,0,0,0,.075.722c.014.084.058.254.114.448.019.067.039.136.061.205l1.15.89A4.756,4.756,0,0,1,906.241,613.1Z" transform="translate(-905.092 -605.578)" fill="#f36233"/>
            <path id="Tracé_31" data-name="Tracé 31" d="M1023.65,698.276a5.6,5.6,0,0,0,.946-.319l-.66-.511a4.884,4.884,0,0,1-.871.214q-.165.025-.331.038l.785.607Z" transform="translate(-1016.796 -687.367)" fill="#f79516"/>
            <path id="Tracé_32" data-name="Tracé 32" d="M906.519,570.475l.66.511a4.725,4.725,0,0,1,.2-1.026l-.6-.465A5.441,5.441,0,0,0,906.519,570.475Z" transform="translate(-906.442 -565.864)" fill="#f1ba0b"/>
            <path id="Tracé_33" data-name="Tracé 33" d="M1066.714,677.334l-.574-.445a4.787,4.787,0,0,1-.769.587l.6.465A5.509,5.509,0,0,0,1066.714,677.334Z" transform="translate(-1057.281 -667.846)" fill="#a8ba4d"/>
            <path id="Tracé_35" data-name="Tracé 35" d="M911.7,553.177l.6.465.021-.066a4.767,4.767,0,0,1,.332-.768l.03-.054-.574-.444c-.021.035-.042.071-.061.106a5.526,5.526,0,0,0-.318.677Z" transform="translate(-911.366 -549.545)" fill="#a8ba4d"/>
            <path id="Tracé_36" data-name="Tracé 36" d="M1047.508,688.545l-.021.013a4.809,4.809,0,0,1-.612.314q-.155.066-.315.121l.66.511.124-.056a5.546,5.546,0,0,0,.723-.409l.042-.029Z" transform="translate(-1039.419 -678.914)" fill="#f1ba0b"/>
            <path id="Tracé_37" data-name="Tracé 37" d="M905.79,590.676q-.04-.232-.057-.464a4.8,4.8,0,0,1,0-.715c0-.013,0-.026,0-.04l-.66-.511c-.005.029-.01.057-.014.086a5.449,5.449,0,0,0-.062.76c0,.094,0,.187,0,.281l.785.608Z" transform="translate(-905.001 -584.334)" fill="#f79516"/>
            <path id="Tracé_38" data-name="Tracé 38" d="M989.564,699.045c-.095.008-.19.013-.285.015a4.839,4.839,0,0,1-1.477-.2l1.176.91a5.608,5.608,0,0,0,.912-.043q.231-.03.458-.079Z" transform="translate(-983.626 -688.713)" fill="#f36233"/>
            <path id="Tracé_39" data-name="Tracé 39" d="M1081.239,662.91l-.018.026q-.046.064-.094.125a4.833,4.833,0,0,1-.408.46l-.1.094.574.444.1-.1a5.591,5.591,0,0,0,.413-.478l.09-.12,0-.007Z" transform="translate(-1071.762 -654.571)" fill="#80b870"/>
            <path id="Tracé_34" data-name="Tracé 34" d="M920.132,537.378a5.6,5.6,0,0,0-.313.48l.574.444a4.9,4.9,0,0,1,.321-.5c.067-.093.138-.182.211-.268l-.569-.44Q920.24,537.23,920.132,537.378Z" transform="translate(-919.071 -535.092)" fill="#80b870"/>
            <path id="Tracé_50" data-name="Tracé 50" d="M930.471,499.433l.568.44.02-.025a4.847,4.847,0,0,1,6.515-.773l0,0a4.809,4.809,0,0,1,1.085,6.7l.569.44a5.542,5.542,0,0,0-8.753-6.79" transform="translate(-929.186 -497.434)" fill="#43b9ad"/>
          </g>
        </g>
      </g>
      <text id="powered_by" data-name="powered by" transform="translate(623 203.316)" fill="#fff" font-size="8" font-family="Lato-Regular, Lato"><tspan x="-41.08" y="0">powered by</tspan></text>
    </g>
  </g>
</svg>
