<svg xmlns="http://www.w3.org/2000/svg" width="23.226" height="24.506" viewBox="0 0 23.226 24.506">
  <g id="Groupe_6061" data-name="Groupe 6061" transform="translate(0.532 0.506)">
    <path id="Tracé_40" data-name="Tracé 40" d="M115.794,37.91a10.024,10.024,0,1,1,0,20.048c-2.288,0-7.948.732-7.948.732s-2.087-7.508-2.087-10.756A10.027,10.027,0,0,1,115.794,37.91Z" transform="translate(-104.545 -37.022)" fill="#152543"/>
    <path id="Tracé_29" data-name="Tracé 29" d="M120.92,58.3l.494-4.573,2.39-3.284-.686-3.062-3.137.3-2.39,3.284-4.216,1.884,2.279,1.652,1.069-1.471.464.333a.125.125,0,0,1,.05.151L115.2,58.241l3.883-3.385a.155.155,0,0,1,.162,0l.464.333-1.069,1.47Zm.252-6.588a.725.725,0,0,1-1.008.161l-.424-.312a.711.711,0,0,1-.162-1h0l.746-1.018a.725.725,0,0,1,1.009-.161l.423.312a.71.71,0,0,1,.162,1h0Z" transform="translate(-108.193 -41.564)" fill="#fff" fill-rule="evenodd"/>
    <g id="Groupe_19" data-name="Groupe 19" transform="translate(0 0)">
      <g id="Groupe_15" data-name="Groupe 15" transform="translate(0 5.53)">
        <path id="Tracé_48" data-name="Tracé 48" d="M921.135,566.068a9.717,9.717,0,0,1-9.311.418l-.011-.005-3.291,1.772.529-3.818,0,0a9.591,9.591,0,0,1-1.75-2.612c-.043-.095-.106-.268-.177-.481-.212-.635-.5-1.615-.543-1.875q-.079-.465-.113-.929a9.507,9.507,0,0,1,1.118-5.227c.02-.037.042-.074.063-.111l0,0-1.148-.889c-.041.071-.083.141-.122.213A10.913,10.913,0,0,0,905,557.695a11.175,11.175,0,0,0,.159,2.008c.029.168.117.508.228.9a18.315,18.315,0,0,0,.6,1.809,10.976,10.976,0,0,0,1.2,2.031l0,.005-.506,6.336,5.787-2.475.016.005a11.189,11.189,0,0,0,8.365-.463,11.012,11.012,0,0,0,3.015-2.094l-1.045-.218Z" transform="translate(-905 -552.31)" fill="#f1334e"/>
        <path id="Tracé_49" data-name="Tracé 49" d="M919.824,552.3" transform="translate(-918.328 -552.302)" fill="#f1334e"/>
      </g>
      <path id="Union_1" data-name="Union 1" d="M10.706,22.122,8.353,20.3a9.665,9.665,0,0,0,2.954.392q.285-.007.57-.03l1.569,1.215q-.456.1-.917.158a11.213,11.213,0,0,1-1.437.093Q10.9,22.129,10.706,22.122Zm1.171-1.459c.222-.018.442-.043.662-.076a9.753,9.753,0,0,0,1.741-.429q.319-.11.629-.242a9.626,9.626,0,0,0,1.225-.628l.043-.027,1.2.93-.084.058a11.07,11.07,0,0,1-1.446.818l-.248.112-1.32-1.022L15.6,21.18a11.231,11.231,0,0,1-1.893.638l-.262.059Zm4.3-1.4a9.587,9.587,0,0,0,1.539-1.175h0c.065-.061.13-.124.194-.187a9.6,9.6,0,0,0,.816-.92c.064-.082.127-.166.189-.251l.036-.051a9.619,9.619,0,0,0-2.17-13.393l-.006,0A9.694,9.694,0,0,0,3.747,4.828l-.041.049h0c-.145.173-.286.351-.421.536a9.822,9.822,0,0,0-.642,1.006h0c-.021.036-.041.071-.061.108A9.482,9.482,0,0,0,1.92,8.062c-.014.044-.028.087-.041.131l-1.2-.93c.02-.054.04-.11.061-.164a11.005,11.005,0,0,1,.635-1.355c.04-.071.081-.142.122-.212h0a11.276,11.276,0,0,1,.626-.96q.217-.3.448-.575h0l.014-.018A11.085,11.085,0,0,1,20.089,17.558l-.009.013q-.089.122-.18.24a11.254,11.254,0,0,1-.826.955q-.1.106-.209.209a11.022,11.022,0,0,1-1.485,1.216ZM.508,14.229c-.042-.139-.083-.277-.121-.41-.111-.388-.2-.729-.228-.9a11.33,11.33,0,0,1-.15-1.445l1.57,1.215L.009,11.477C0,11.29,0,11.1,0,10.915a10.951,10.951,0,0,1,.124-1.52c.008-.057.019-.114.028-.171h0a10.877,10.877,0,0,1,.523-1.96l1.2.93a9.453,9.453,0,0,0-.4,2.052h0c0,.026,0,.053-.007.079a9.645,9.645,0,0,0,0,1.429q.034.464.113.929l0,.01c.049.273.331,1.237.541,1.864.071.213.134.387.177.482a9.522,9.522,0,0,0,.511.971Z" transform="translate(0 0)" fill="#f1334e" stroke="rgba(0,0,0,0)" stroke-miterlimit="10" stroke-width="1"/>
    </g>
  </g>
</svg>
