<?xml version="1.0" encoding="utf-8"?>
<!-- Generator: Adobe Illustrator 16.0.0, SVG Export Plug-In . SVG Version: 6.00 Build 0)  -->
<!DOCTYPE svg PUBLIC "-//W3C//DTD SVG 1.1//EN" "http://www.w3.org/Graphics/SVG/1.1/DTD/svg11.dtd">
<svg version="1.1" id="Calque_1" xmlns="http://www.w3.org/2000/svg" xmlns:xlink="http://www.w3.org/1999/xlink" x="0px" y="0px"
	 width="2097.209px" height="582.059px" viewBox="0 0 2097.209 582.059" enable-background="new 0 0 2097.209 582.059"
	 xml:space="preserve">
<title>GS-Logo longPlan de travail 1 copie 2</title>
<g>
	<path fill="#FFFFFF" d="M809.125,233.13v121.399h-12.053v-25.469c-10.365,17.467-29.271,28.049-49.578,27.76
		c-34.459,0-62.396-27.938-62.396-62.397c0-34.459,27.937-62.397,62.396-62.397c20.45-0.606,39.547,10.185,49.578,28.017v-26.91
		h12.053V233.13z M697.493,293.574c-1.225,26.885,19.579,49.671,46.459,50.896c1.038,0.049,2.076,0.059,3.116,0.043
		c67.92,0,67.92-101.449,0-101.449c-26.808-0.584-49.021,20.678-49.606,47.489C697.443,291.561,697.451,292.566,697.493,293.574z"/>
	<path fill="#FFFFFF" d="M853.106,233.13l0.504,21.65c7.723-14.895,23.493-23.85,40.244-22.837
		c9.194-0.196,18.245,2.278,26.059,7.133l-5.436,9.849c-6.212-3.779-13.354-5.75-20.626-5.689
		c-22.236,0.143-40.163,18.256-40.069,40.495v70.717H841.81V233.132L853.106,233.13L853.106,233.13z"/>
	<path fill="#FFFFFF" d="M1054.729,233.13v121.399h-12.056v-25.469c-10.367,17.467-29.277,28.049-49.578,27.76
		c-34.462,0-62.402-27.938-62.402-62.397c0-34.459,27.94-62.397,62.402-62.397c20.45-0.606,39.549,10.185,49.578,28.017v-26.91
		h12.056V233.13z M943.686,293.574c-1.224,26.885,19.578,49.671,46.464,50.896c1.038,0.049,2.076,0.059,3.116,0.043
		c67.916,0,67.916-101.449,0-101.449c-26.814-0.584-49.027,20.678-49.607,47.489C943.632,291.561,943.642,292.566,943.686,293.574z"
		/>
	<path fill="#FFFFFF" d="M1213.904,293.574c-0.894-33.698,25.701-61.739,59.401-62.633c0.744-0.021,1.488-0.024,2.232-0.019
		c33.957,0,64.604,20.885,59.936,67.916H1226.13c1.104,26.223,23.179,46.628,49.407,45.674c16.557,0.498,32.512-6.224,43.721-18.424
		l8.488,6.876c-13.037,15.246-32.24,23.82-52.295,23.347c-32.798,1.22-60.378-24.375-61.598-57.174
		C1213.781,297.287,1213.799,295.432,1213.904,293.574z M1324.267,288.652c0-29.966-19.87-46.69-49.154-46.69
		c-26.452-0.527-48.438,20.25-49.409,46.69H1324.267z"/>
	<path fill="#FFFFFF" d="M635.008,341.712c19.908-9.495,32.619-29.562,32.685-51.615c0-37.862-25.463-59.426-57.132-59.426l0,0
		c-31.406,0-56.963,21.394-56.963,59.426c0,32.43,21.817,58.746,56.963,58.746c22.587,0,45.929,10.274,45.929,36.337
		c0,26.061-21.646,36.588-45.929,36.588c-24.277,0-45.414-11.8-45.414-36.588h-11.97c0,30.729,25.468,48.391,57.472,48.391
		c32.01,0,57.729-15.706,57.729-48.391C668.203,364.292,656.404,349.35,635.008,341.712z M565.485,290.179
		c0-31.664,20.12-47.115,44.91-47.115l0,0c24.788,0,45.333,15.451,45.333,47.115c0.102,25.336-20.095,46.094-45.418,46.69
		c-24.566,0.221-44.654-19.521-44.878-44.09C565.421,291.914,565.441,291.048,565.485,290.179z"/>
	<path fill="#FFFFFF" d="M1163.309,341.712c19.9-9.495,32.613-29.562,32.677-51.615c0-37.862-25.463-59.426-57.129-59.426l0,0
		c-31.409,0-56.969,21.394-56.969,59.426c0,32.43,21.816,58.746,56.969,58.746c22.584,0,45.925,10.274,45.925,36.337
		c0,26.061-21.73,36.588-45.845,36.588c-24.109,0-45.416-11.8-45.416-36.588h-12.306c0,30.729,25.464,48.391,57.473,48.391
		c32.007,0,57.727-15.706,57.727-48.391C1196.416,364.292,1184.615,349.35,1163.309,341.712z M1093.78,290.097
		c0-31.666,20.119-47.117,44.907-47.117l0,0c24.79,0,45.333,15.451,45.333,47.117c0.102,25.333-20.09,46.09-45.416,46.689
		c-24.566,0.216-44.653-19.522-44.873-44.093c-0.008-0.838,0.007-1.679,0.054-2.516L1093.78,290.097L1093.78,290.097z"/>
	<path fill="#FFFFFF" d="M2037.284,231.179c-0.09,11.486-9.478,20.725-20.963,20.629c-11.487-0.096-20.727-9.483-20.629-20.969
		c0.094-11.421,9.376-20.629,20.798-20.629c10.957-0.533,20.273,7.918,20.813,18.877
		C2037.334,229.783,2037.329,230.482,2037.284,231.179z M2016.487,249.601c10.174,0.328,18.678-7.649,19.006-17.817
		c0.328-10.166-7.648-18.676-17.813-19.006c-10.171-0.327-18.678,7.651-19.006,17.819c-0.008,0.19-0.01,0.388-0.01,0.582
		c-0.813,9.344,6.104,17.571,15.447,18.383C2014.902,249.63,2015.698,249.644,2016.487,249.601L2016.487,249.601z M2018.614,219.888
		h-9.767v22.072h2.715v-8.488h4.756l7.214,8.488h2.974v-0.424l-6.876-7.811c3.82-0.281,6.688-3.604,6.414-7.428
		C2025.76,222.476,2022.434,219.606,2018.614,219.888L2018.614,219.888z M2011.565,222.519h7.053
		c2.344-0.471,4.626,1.049,5.094,3.395c0.472,2.344-1.047,4.628-3.393,5.098c-0.563,0.114-1.144,0.114-1.706,0h-6.876
		L2011.565,222.519z"/>
	<path fill="#FFFFFF" d="M1611.802,338.995c-12.166,12.69-29.118,19.664-46.691,19.188c-35.146,0-64.354-21.146-64.354-64.097
		c0-42.959,29.204-64.096,64.354-64.096c16.46-0.563,32.384,5.961,43.716,17.913l-18.848,20.204
		c-6.646-6.059-15.29-9.475-24.283-9.592c-18.746-0.545-34.386,14.211-34.93,32.955c-0.029,0.959-0.016,1.914,0.037,2.871
		c-1.314,18.189,12.354,34.004,30.55,35.33c1.134,0.08,2.271,0.107,3.407,0.068c10.067,0.309,19.807-3.564,26.912-10.697
		L1611.802,338.995z"/>
	<path fill="#FFFFFF" d="M1747.887,294.087c0.022,34.788-28.156,63.013-62.946,63.03c-34.789,0.025-63.012-28.153-63.036-62.942
		c0-0.032,0-0.058,0-0.088c-0.022-34.789,28.158-63.012,62.948-63.035c34.787-0.023,63.01,28.158,63.034,62.945
		C1747.887,294.023,1747.887,294.057,1747.887,294.087z M1651.865,294.087c0,18.422,11.037,35.655,32.944,35.655
		c21.897,0,32.938-16.979,32.938-35.655c1.038-18.727-13.299-34.746-32.021-35.787c-0.306-0.018-0.604-0.029-0.91-0.037
		C1663.157,258.175,1651.865,275.921,1651.865,294.087z"/>
	<path fill="#FFFFFF" d="M1796.277,233.386l2.208,14.011c7.128-11.701,20.317-18.3,33.957-16.978
		c11.462-0.177,22.575,3.942,31.155,11.543l-13.324,26.146c-5.87-5.42-13.667-8.262-21.646-7.895
		c-15.371-1.349-28.918,10.014-30.269,25.381c-0.157,1.781-0.145,3.574,0.044,5.352v63.843h-29.968V233.388L1796.277,233.386
		L1796.277,233.386z"/>
	<path fill="#FFFFFF" d="M1900.612,304.611c1.946,14.941,14.939,25.469,36.08,25.469c11.772,0.259,23.255-3.65,32.434-11.034
		l18.76,19.015c-14.154,13.022-32.813,20.049-52.041,19.612c-41.771,0-66.559-25.469-66.559-64.604
		c0-36.843,25.471-63.331,64.351-63.331c38.883,0,65.793,25.468,61.125,74.878h-94.147L1900.612,304.611L1900.612,304.611z
		 M1966.405,279.821c-1.953-15.707-14.264-23.602-31.412-23.602c-15.496-1.233-29.715,8.645-33.957,23.602H1966.405z"/>
	<path fill="#FFFFFF" d="M1447.531,158.512v-0.087V158.512z"/>
	<path fill="#FFFFFF" d="M1418.323,241.453h-1.097c-17.911-0.409-32.095-15.257-31.687-33.162
		c0.409-17.903,15.257-32.09,33.162-31.682c1.813,0.043,3.612,0.235,5.394,0.577h1.526c1.649,0.381,3.27,0.892,4.843,1.526
		l1.273,0.594l2.719,1.442l12.987-22.582l0,0l0,0c-4.02-2.283-8.293-4.081-12.733-5.35l-1.783-0.423l-5.178-1.021h-1.948
		c-32.026-3.432-60.771,19.745-64.206,51.771c-3.436,32.025,19.744,60.772,51.771,64.205c1.765,0.188,3.53,0.3,5.304,0.328h0.427
		c17.905,0.408,32.09,15.256,31.681,33.162c-0.407,17.903-15.255,32.086-33.162,31.682c-1.812-0.047-3.611-0.234-5.393-0.578h-1.527
		c-1.647-0.381-3.268-0.893-4.84-1.526l-1.271-0.591c-15.494-7.012-22.912-24.811-16.979-40.751l-24.278-9.081
		c-9.958,26.679,0.81,56.643,25.464,70.882l0,0l0,0c4.021,2.282,8.297,4.078,12.733,5.349l1.781,0.426l5.181,1.019h1.95
		c32.021,3.438,60.772-19.745,64.204-51.767c3.436-32.028-19.744-60.774-51.77-64.209c-1.761-0.188-3.531-0.297-5.306-0.325
		L1418.323,241.453z"/>
	<path fill="#FFFFFF" d="M1447.531,158.425L1447.531,158.425L1447.531,158.425z"/>
	<path opacity="0.5" fill="#FFFFFF" enable-background="new    " d="M1450.758,208.679c0.013,3.886-0.683,7.738-2.039,11.379
		l24.283,9.082c9.953-26.68-0.813-56.645-25.47-70.884l-12.986,22.581C1444.526,186.561,1450.707,197.173,1450.758,208.679z"/>
	<path opacity="0.5" fill="#FFFFFF" enable-background="new    " d="M316.829,160.12l-17.656,30.648
		c6.01,3.476,11.126,8.301,14.941,14.094l21.308-7.98l-17.742,14.433c4.587,10.497,4.92,22.368,0.936,33.108l33.107,12.394
		c13.579-36.431-1.133-77.341-34.808-96.778L316.829,160.12z"/>
	<path fill="#FFFFFF" d="M277.014,273.287h-1.527c-24.406-0.83-43.527-21.292-42.697-45.704
		c0.824-24.412,21.287-43.53,45.699-42.703c7.243,0.247,14.317,2.27,20.6,5.894l17.656-30.649
		c-38.069-22.013-86.778-9.001-108.792,29.072c-22.019,38.07-9.001,86.781,29.067,108.797c12.154,7.029,25.956,10.717,39.997,10.697
		h1.53c24.363,0.867,43.414,21.312,42.555,45.684c-0.86,24.363-21.313,43.411-45.678,42.561
		c-24.371-0.863-43.418-21.318-42.561-45.685c0.168-4.709,1.09-9.354,2.723-13.774l-33.108-12.394
		c-15.378,41.203,5.561,87.067,46.758,102.445c41.206,15.383,87.07-5.559,102.45-46.755c15.378-41.207-5.554-87.067-46.758-102.448
		c-8.9-3.324-18.325-5.026-27.825-5.028h-0.088L277.014,273.287L277.014,273.287z"/>
	<path fill="#FFFFFF" d="M273.616,219.972c-5.106,2.906-6.896,9.404-3.99,14.517c2.906,5.113,9.404,6.897,14.516,3.991
		l33.368-27.082c-1.006-2.246-2.198-4.404-3.563-6.45L273.616,219.972z"/>
	<g>
		<path fill="#FFFFFF" d="M277.014,508.166c-119.725,0-217.128-97.41-217.128-217.146c0-119.726,97.403-217.128,217.128-217.128
			s217.128,97.402,217.128,217.128C494.143,410.756,396.74,508.166,277.014,508.166z M277.014,81.898
			c-115.312,0-209.121,93.813-209.121,209.122c0,115.318,93.813,209.141,209.121,209.141c115.31,0,209.121-93.821,209.121-209.141
			C486.135,175.709,392.323,81.898,277.014,81.898z"/>
	</g>
</g>
</svg>
