<svg xmlns="http://www.w3.org/2000/svg" viewBox="0 0 35.041 35.042">
  <defs>
    <style>
      .cls-1, .cls-2 {
        fill: #219ab5;
      }

      .cls-2 {
        opacity: 0.5;
      }
    </style>
  </defs>
  <g id="Groupe_876" data-name="Groupe 876" transform="translate(-26 -788)">
    <g id="Groupe_875" data-name="Groupe 875" transform="translate(26 788)">
      <g id="Groupe_872" data-name="Groupe 872" transform="translate(32.234 0.492)">
        <path id="Tracé_3121" data-name="Tracé 3121" class="cls-1" d="M1226.074,19.832a1.142,1.142,0,1,1-1.143-1.152,1.091,1.091,0,0,1,1.143,1.037A1.06,1.06,0,0,1,1226.074,19.832Zm-1.142,1.012a.932.932,0,0,0,.984-1.012.984.984,0,1,0-1.963-.135.964.964,0,0,0,0,.135.932.932,0,0,0,.848,1.01A.944.944,0,0,0,1224.931,20.844Zm.116-1.632h-.536v1.212h.149v-.466h.261l.4.466h.163V20.4l-.378-.429a.383.383,0,0,0-.056-.765v0Zm-.387.144h.387a.238.238,0,1,1,.094.466.245.245,0,0,1-.094,0h-.377Z" transform="translate(-1223.789 -18.679)"/>
      </g>
      <g id="Groupe_874" data-name="Groupe 874" transform="translate(0 0)">
        <path id="Tracé_3122" data-name="Tracé 3122" class="cls-2" d="M734.495,263.926,733.07,266.4a3.6,3.6,0,0,1,1.206,1.137l1.719-.644-1.432,1.165a3.573,3.573,0,0,1,.076,2.672l2.672,1a6.425,6.425,0,0,0-2.809-7.809Z" transform="translate(-713.761 -256.969)"/>
        <path id="Tracé_3123" data-name="Tracé 3123" class="cls-1" d="M427.227,241.368H427.1a3.569,3.569,0,1,1,1.9-6.658l1.425-2.473a6.425,6.425,0,1,0-3.206,11.988h.124a3.562,3.562,0,1,1-3.466,2.323l-2.672-1a6.426,6.426,0,1,0,6.021-4.178h-.007Z" transform="translate(-409.706 -225.278)"/>
        <path id="Tracé_3124" data-name="Tracé 3124" class="cls-1" d="M638.709,402.7a.859.859,0,1,0,.849,1.493l2.692-2.185a3.539,3.539,0,0,0-.288-.52Z" transform="translate(-621.463 -390.915)"/>
        <g id="Groupe_873" data-name="Groupe 873">
          <path id="Tracé_3125" data-name="Tracé 3125" class="cls-1" d="M17.52,35.042A17.521,17.521,0,1,1,35.041,17.52,17.541,17.541,0,0,1,17.52,35.042Zm0-34.4A16.875,16.875,0,1,0,34.395,17.52,16.893,16.893,0,0,0,17.52.646Z" transform="translate(0 0)"/>
        </g>
      </g>
    </g>
  </g>
</svg>
