<svg xmlns="http://www.w3.org/2000/svg" width="165.344" height="40" viewBox="0 0 165.344 40"><g transform="translate(-30 -29.947)"><g transform="translate(72.008 38.021)"><path d="M613.688,703.5c-6.318,0-7.587,4.6-7.587,12.014s1.269,12.014,7.587,12.014c2.023,0,6.73-.616,6.73-6.318v-1.376h-3.1v1.376c0,2.1-1.291,3.256-3.634,3.256-4.154,0-4.492-4.055-4.492-8.953s.338-8.953,4.492-8.953c2.434,0,3.668,1.1,3.668,3.257v1.376h3.06v-1.376C620.417,704.116,615.712,703.5,613.688,703.5Z" transform="translate(-606.101 -703.5)" fill="#fff"/><path d="M724.957,704.521v16.853c0,4.648,2.345,7,6.97,7,4.693,0,7.073-2.356,7.073-7V704.521h-3.13v16.853c0,2.69-1.253,3.943-3.943,3.943-2.655,0-3.84-1.216-3.84-3.943V704.521Z" transform="translate(-704.986 -704.349)" fill="#fff"/><path d="M841.158,719.389v1.376c0,1.587.55,6.764,7.622,6.764,6.1,0,6.764-4.322,6.764-6.181,0-4.774-3.369-6.019-6.342-7.118-2.159-.805-4.605-1.718-4.605-4.241,0-2.05,1.557-3.428,3.874-3.428a3.324,3.324,0,0,1,3.6,3.565V711.5h3.13v-1.376c0-.271-.077-6.627-6.73-6.627-6.925,0-7,6.224-7,6.489,0,4.767,3.253,6.04,6.4,7.271l.049.019c2.108.8,4.5,1.7,4.5,4.068,0,.732-.262,3.119-3.634,3.119-2.877,0-4.526-1.349-4.526-3.7v-1.376Z" transform="translate(-801.662 -703.501)" fill="#fff"/><path d="M951.921,728.207h3.13V707.582h4.77v-3.061h-12.67v3.061h4.77Z" transform="translate(-889.845 -704.349)" fill="#fff"/><path d="M1054.16,728.207h11.194v-3.061h-8.064v-6.719h6.52v-3.061h-6.52v-7.783h7.824v-3.061H1054.16Z" transform="translate(-978.873 -704.349)" fill="#fff"/><path d="M1154.44,728.207h11.194v-3.061h-8.064v-6.719h6.519v-3.061h-6.519v-7.783h7.824v-3.061H1154.44Z" transform="translate(-1062.303 -704.349)" fill="#fff"/><path d="M1261.37,704.521h-6.661v23.686h6.661c6.382,0,7.69-4.734,7.69-11.843S1267.752,704.521,1261.37,704.521Zm.006,20.658h-3.537v-17.6h3.531c4.212,0,4.561,4.154,4.561,8.782,0,4.733-.343,8.664-4.556,8.816Z" transform="translate(-1145.724 -704.349)" fill="#fff"/></g><g transform="translate(30 29.947)"><path d="M122.478,37.91a16.7,16.7,0,0,1,0,33.407c-3.813,0-13.245,1.219-13.245,1.219s-3.478-12.511-3.478-17.923A16.708,16.708,0,0,1,122.478,37.91Z" transform="translate(-103.732 -36.422)" fill="#152543"/><path d="M125.947,65.576l.823-7.62,3.982-5.472-1.143-5.1-5.226.5L120.4,53.356,113.377,56.5l3.8,2.753,1.781-2.451.773.555a.208.208,0,0,1,.084.252l-3.394,7.873,6.469-5.64a.259.259,0,0,1,.269,0l.773.555-1.781,2.45Zm.42-10.978a1.207,1.207,0,0,1-1.68.269l-.706-.521a1.185,1.185,0,0,1-.269-1.662h0l1.243-1.7a1.208,1.208,0,0,1,1.68-.268l.706.521a1.184,1.184,0,0,1,.269,1.662h0Z" transform="translate(-104.74 -37.678)" fill="#fff" fill-rule="evenodd"/><g transform="translate(0)"><g transform="translate(0 9.223)"><path d="M931.887,575.237a16.192,16.192,0,0,1-15.514.7l-.019-.009-5.484,2.953.881-6.361-.007-.007a15.979,15.979,0,0,1-2.916-4.352c-.071-.157-.176-.447-.295-.8-.354-1.059-.831-2.692-.9-3.124q-.131-.776-.188-1.548a15.839,15.839,0,0,1,1.863-8.709c.034-.063.07-.124.1-.186l0,.007-1.913-1.481c-.069.118-.138.235-.2.354A18.184,18.184,0,0,0,905,561.284a18.616,18.616,0,0,0,.265,3.345c.048.28.2.847.38,1.493a30.528,30.528,0,0,0,1,3.014,18.287,18.287,0,0,0,2,3.384l.006.009-.843,10.558,9.642-4.124.026.009a18.645,18.645,0,0,0,13.939-.771,18.355,18.355,0,0,0,5.024-3.489l-1.742-.363Z" transform="translate(-905 -552.311)" fill="#f1334e"/><path d="M919.824,552.3" transform="translate(-917.332 -552.3)" fill="#f1334e"/></g><path d="M908.912,617.25c-.071-.158-.176-.448-.3-.8-.35-1.045-.819-2.652-.9-3.106l-2.616-2.025a18.739,18.739,0,0,0,.25,2.408c.048.28.195.847.38,1.494.063.221.131.452.2.684l3.831,2.966A15.862,15.862,0,0,1,908.912,617.25Z" transform="translate(-905.083 -592.183)" fill="#f36233"/><path d="M1025.786,700.212a18.642,18.642,0,0,0,3.154-1.064l-2.2-1.7a16.272,16.272,0,0,1-2.9.715q-.549.082-1.1.127l2.615,2.024C1025.5,700.28,1025.641,700.247,1025.786,700.212Z" transform="translate(-1002.944 -663.847)" fill="#f79516"/><path d="M906.519,572.761l2.2,1.7a15.766,15.766,0,0,1,.675-3.419l-2-1.55A18.1,18.1,0,0,0,906.519,572.761Z" transform="translate(-906.264 -557.383)" fill="#f1ba0b"/><path d="M1069.852,678.371l-1.913-1.482a15.962,15.962,0,0,1-2.564,1.957l2,1.551A18.313,18.313,0,0,0,1069.852,678.371Z" transform="translate(-1038.415 -646.742)" fill="#a8ba4d"/><path d="M911.7,555.2l2,1.55c.023-.073.045-.146.068-.218a15.9,15.9,0,0,1,1.1-2.558c.033-.06.067-.119.1-.179l-1.913-1.481c-.069.118-.138.235-.2.354a18.351,18.351,0,0,0-1.059,2.258C911.767,555.015,911.735,555.106,911.7,555.2Z" transform="translate(-910.574 -543.086)" fill="#a8ba4d"/><path d="M1049.719,688.545l-.071.045a16.088,16.088,0,0,1-2.041,1.047q-.518.221-1.049.4l2.2,1.7q.207-.091.413-.187a18.44,18.44,0,0,0,2.411-1.362l.141-.1Z" transform="translate(-1022.762 -656.441)" fill="#f1ba0b"/><path d="M907.632,594.711q-.132-.774-.188-1.548a15.994,15.994,0,0,1,0-2.381c0-.044.008-.088.012-.132l-2.2-1.7c-.017.1-.034.19-.048.286a18.223,18.223,0,0,0-.206,2.533c0,.312,0,.625.015.938l2.616,2.025C907.634,594.723,907.633,594.715,907.632,594.711Z" transform="translate(-905.003 -573.569)" fill="#f79516"/><path d="M993.675,699.467c-.316.025-.632.043-.949.05a16.131,16.131,0,0,1-4.923-.653l3.92,3.034a18.68,18.68,0,0,0,3.039-.143q.769-.1,1.528-.264Z" transform="translate(-973.884 -665.027)" fill="#f36233"/><path d="M1082.678,662.91l-.06.085q-.155.212-.315.418a16.076,16.076,0,0,1-1.359,1.532q-.16.159-.324.313l1.914,1.481q.176-.172.348-.349a18.538,18.538,0,0,0,1.377-1.592q.151-.2.3-.4l.016-.022Z" transform="translate(-1051.098 -635.111)" fill="#80b870"/><path d="M920.861,538.048a18.769,18.769,0,0,0-1.043,1.6l1.913,1.481a16.367,16.367,0,0,1,1.07-1.676c.225-.309.46-.6.7-.894l-1.895-1.467Q921.222,537.554,920.861,538.048Z" transform="translate(-917.327 -530.422)" fill="#80b870"/><path d="M930.471,504.05l1.895,1.467.067-.083a16.153,16.153,0,0,1,21.71-2.578l.01.007a16.028,16.028,0,0,1,3.616,22.316l1.9,1.467a18.47,18.47,0,0,0-29.17-22.627" transform="translate(-926.189 -497.382)" fill="#43b9ad"/></g></g></g></svg>