<?xml version="1.0" encoding="utf-8"?>
<!-- Generator: Adobe Illustrator 16.0.0, SVG Export Plug-In . SVG Version: 6.00 Build 0)  -->
<!DOCTYPE svg PUBLIC "-//W3C//DTD SVG 1.1//EN" "http://www.w3.org/Graphics/SVG/1.1/DTD/svg11.dtd">
<svg version="1.1" id="Calque_1" xmlns="http://www.w3.org/2000/svg" xmlns:xlink="http://www.w3.org/1999/xlink" x="0px" y="0px"
	 width="112.438px" height="112.441px" viewBox="0 0 112.438 112.441" enable-background="new 0 0 112.438 112.441"
	 xml:space="preserve">
<g>
	<path opacity="0.5" fill="#43B9AD" enable-background="new    " d="M66.528,22.326l-4.571,7.936c1.556,0.9,2.881,2.149,3.868,3.649
		l5.518-2.066l-4.594,3.737c1.188,2.718,1.274,5.792,0.243,8.571l8.572,3.209c3.516-9.433-0.293-20.024-9.013-25.058L66.528,22.326z
		"/>
	<path fill="#43B9AD" d="M56.219,51.628h-0.395c-6.319-0.215-11.27-5.514-11.055-11.834c0.213-6.321,5.512-11.271,11.832-11.058
		c1.875,0.064,3.708,0.589,5.334,1.526l4.571-7.936c-9.856-5.7-22.468-2.331-28.168,7.526c-5.702,9.857-2.331,22.469,7.526,28.169
		c3.147,1.82,6.721,2.775,10.356,2.771h0.396c6.308,0.225,11.241,5.518,11.019,11.828c-0.223,6.309-5.519,11.239-11.827,11.02
		c-6.31-0.225-11.242-5.52-11.02-11.828c0.043-1.221,0.283-2.424,0.706-3.565L36.92,65.04c-3.981,10.668,1.44,22.543,12.106,26.524
		c10.669,3.982,22.544-1.44,26.527-12.106c3.981-10.668-1.438-22.542-12.107-26.525c-2.304-0.861-4.745-1.301-7.204-1.302h-0.023
		V51.628L56.219,51.628z"/>
	<path fill="#43B9AD" d="M55.339,37.823c-1.322,0.753-1.786,2.436-1.033,3.76c0.753,1.323,2.435,1.786,3.758,1.032l8.64-7.012
		c-0.26-0.582-0.569-1.141-0.922-1.67L55.339,37.823z"/>
	<g>
		<path fill="#43B9AD" d="M56.219,112.442C25.22,112.442,0,87.221,0,56.219C0,25.22,25.22,0,56.219,0
			c31,0,56.219,25.22,56.219,56.219C112.438,87.221,87.218,112.442,56.219,112.442z M56.219,2.073
			c-29.856,0-54.146,24.29-54.146,54.146c0,29.858,24.29,54.151,54.146,54.151c29.856,0,54.146-24.291,54.146-54.151
			C110.365,26.363,86.075,2.073,56.219,2.073z"/>
	</g>
</g>
</svg>
