<svg xmlns="http://www.w3.org/2000/svg" width="221.01" height="238.513" viewBox="0 0 221.01 238.513">
  <g id="Groupe_115" data-name="Groupe 115" transform="translate(-102.931 -35.692)">
    <path id="Tracé_40" data-name="Tracé 40" d="M205.277,37.91a99.405,99.405,0,1,1,0,198.81c-22.691,0-78.822,7.257-78.822,7.257s-20.7-74.458-20.7-106.663A99.431,99.431,0,0,1,205.277,37.91Z" transform="translate(9.711 7.097)" fill="#152543"/>
    <path id="Tracé_29" data-name="Tracé 29" d="M188.183,155.665l4.9-45.351,23.7-32.566-6.8-30.367-31.1,2.994-23.7,32.566-41.806,18.68,22.6,16.383,10.6-14.587,4.6,3.3a1.237,1.237,0,0,1,.5,1.5l-20.2,46.853,38.5-33.567a1.541,1.541,0,0,1,1.6,0l4.6,3.3-10.6,14.582Zm2.5-65.332a7.186,7.186,0,0,1-10,1.6l-4.2-3.1a7.05,7.05,0,0,1-1.6-9.89h0l7.4-10.091a7.19,7.19,0,0,1,10-1.595l4.2,3.1a7.045,7.045,0,0,1,1.6,9.89h0Z" transform="translate(41.455 46.517)" fill="#fff" fill-rule="evenodd"/>
    <g id="Groupe_19" data-name="Groupe 19" transform="translate(-801.571 -461.23)">
      <g id="Groupe_15" data-name="Groupe 15" transform="translate(905 552.272)">
        <path id="Tracé_48" data-name="Tracé 48" d="M1065.007,688.739a96.364,96.364,0,0,1-92.33,4.142l-.111-.055L939.934,710.4l5.246-37.858-.041-.044a95.09,95.09,0,0,1-17.355-25.9c-.424-.938-1.048-2.662-1.756-4.773-2.107-6.3-4.945-16.02-5.382-18.59q-.782-4.616-1.12-9.213a94.268,94.268,0,0,1,11.088-51.832c.2-.372.416-.737.621-1.105l-.023.041-11.387-8.813c-.408.7-.819,1.4-1.212,2.109A108.218,108.218,0,0,0,905.007,605.7a110.8,110.8,0,0,0,1.576,19.908c.284,1.666,1.161,5.039,2.261,8.888a181.616,181.616,0,0,0,5.937,17.938,108.86,108.86,0,0,0,11.874,20.14l.038.051-5.019,62.836,57.384-24.544.156.054a110.96,110.96,0,0,0,82.953-4.591,109.22,109.22,0,0,0,29.9-20.762L1081.7,683.46Z" transform="translate(-905 -552.302)" fill="#43b9ad"/>
        <path id="Tracé_49" data-name="Tracé 49" d="M919.824,552.3" transform="translate(-904.994 -552.302)" fill="#43b9ad"/>
      </g>
      <path id="Union_1" data-name="Union 1" d="M1855.165,8341.812l-23.326-18.059a95.888,95.888,0,0,0,29.3,3.891q2.826-.067,5.648-.3l15.561,12.045q-4.521.97-9.095,1.566a111.143,111.143,0,0,1-14.254.92Q1857.08,8341.878,1855.165,8341.812Zm11.617-14.465q3.3-.272,6.568-.756a96.649,96.649,0,0,0,17.27-4.256q3.162-1.087,6.242-2.4a95.437,95.437,0,0,0,12.147-6.227c.141-.088.278-.18.424-.268l11.919,9.227c-.278.189-.555.389-.838.574a109.681,109.681,0,0,1-14.343,8.111c-.818.381-1.636.75-2.459,1.115l-13.092-10.133,13.092,10.137a111.374,111.374,0,0,1-18.769,6.33q-1.3.308-2.6.59Zm42.655-13.906a95.093,95.093,0,0,0,15.259-11.65l0,0c.646-.607,1.293-1.225,1.925-1.857a95.2,95.2,0,0,0,8.087-9.119c.633-.818,1.261-1.646,1.875-2.488l.36-.506a95.387,95.387,0,0,0-21.52-132.811l-.063-.043a96.129,96.129,0,0,0-129.2,15.342c-.136.16-.268.33-.4.49l0,0c-1.44,1.719-2.837,3.484-4.175,5.318a97.476,97.476,0,0,0-6.367,9.975l0,0c-.2.355-.409.707-.6,1.066a94.037,94.037,0,0,0-6.573,15.225c-.141.434-.273.867-.409,1.295l-11.924-9.227c.2-.539.4-1.086.609-1.625a109.092,109.092,0,0,1,6.3-13.437c.394-.705.8-1.406,1.211-2.105l0,0a111.8,111.8,0,0,1,6.213-9.518q2.147-2.936,4.445-5.7l0,0,.139-.178a109.923,109.923,0,0,1,173.6,134.662c-.029.043-.063.086-.093.131q-.884,1.2-1.782,2.381a111.5,111.5,0,0,1-8.194,9.475q-1.022,1.052-2.069,2.074a109.325,109.325,0,0,1-14.723,12.055Zm-155.4-49.9c-.419-1.377-.823-2.75-1.2-4.064-1.105-3.852-1.977-7.227-2.259-8.891a112.354,112.354,0,0,1-1.49-14.328l15.57,12.049-15.57-12.055c-.073-1.859-.107-3.725-.088-5.58a108.588,108.588,0,0,1,1.227-15.078c.083-.564.185-1.129.282-1.7l0,0a107.852,107.852,0,0,1,5.185-19.439l11.919,9.227a93.753,93.753,0,0,0-4.012,20.352l0,0c-.02.262-.049.525-.068.787a95.637,95.637,0,0,0-.015,14.174q.336,4.6,1.12,9.211c0,.029.014.068.019.1.487,2.7,3.282,12.266,5.365,18.482.706,2.113,1.329,3.836,1.753,4.775a94.417,94.417,0,0,0,5.063,9.627Z" transform="translate(-843.999 -7625)" fill="#43b9ad" stroke="rgba(0,0,0,0)" stroke-miterlimit="10" stroke-width="1"/>
    </g>
  </g>
</svg>
