<svg xmlns="http://www.w3.org/2000/svg" width="50" height="50" viewBox="0 0 50 50">
  <path id="Union_38" data-name="Union 38" d="M15141.03,466.741a7.259,7.259,0,0,1,3.28-6.062l-4.863-4.867a8.841,8.841,0,0,1-12.127-.742v15.7a59.041,59.041,0,0,0-8.062,3.227,3.234,3.234,0,0,1-3.228-3.227V456.258h-.807a3.228,3.228,0,0,1-3.223-3.227v-8.063a9.686,9.686,0,0,1,6.271-9.049,6.449,6.449,0,1,1,6.811,0,9.713,9.713,0,0,1,5.323,4.878,8.831,8.831,0,0,1,9.041,1.389l4.863-4.863a7.255,7.255,0,1,1,3.98,1.191,7.187,7.187,0,0,1-2.454-.434l-5.251,5.247a8.832,8.832,0,0,1,2.021,4.867h4.924a7.256,7.256,0,1,1,0,1.613h-4.924a8.831,8.831,0,0,1-2.021,4.863l5.251,5.251a7.189,7.189,0,0,1,2.454-.438,7.258,7.258,0,1,1-7.261,7.256Zm3.775,4.433a5.611,5.611,0,0,0,6.971,0,4.024,4.024,0,0,0-6.971,0Zm-20.944-17.572-.905.906a1.6,1.6,0,0,0-.472,1.142v15.126a1.613,1.613,0,1,0,3.227,0v-18.1a8.77,8.77,0,0,1,0-7.348v-4.391h1.609v2a9.2,9.2,0,0,1,1.659-1.385,8.1,8.1,0,0,0-3.024-3.4,20.4,20.4,0,0,1-2.973,7.127l-1.3,1.956-1.274-1.91a20.3,20.3,0,0,1-2.983-7.184,8.044,8.044,0,0,0-3.806,6.834v8.063a1.614,1.614,0,0,0,1.609,1.613h.807v-13.71h1.614v29.84a1.613,1.613,0,1,0,3.227,0V455.649a3.207,3.207,0,0,1,.943-2.283l.906-.906Zm27.656,12.333a3.211,3.211,0,0,1-.833,2.146,5.6,5.6,0,0,1,2.226,1.895,5.646,5.646,0,1,0-9.238,0,5.573,5.573,0,0,1,2.226-1.895,3.221,3.221,0,1,1,5.62-2.146Zm-4.84,0a1.613,1.613,0,1,0,1.613-1.613A1.614,1.614,0,0,0,15146.678,465.934ZM15126.518,449a7.256,7.256,0,1,0,7.257-7.26A7.265,7.265,0,0,0,15126.518,449Zm24.737,4.429a5.612,5.612,0,0,0,6.972,0,4.025,4.025,0,0,0-6.972,0Zm6.713-5.236a3.21,3.21,0,0,1-.834,2.142,5.65,5.65,0,0,1,2.23,1.895,5.645,5.645,0,1,0-9.243,0,5.627,5.627,0,0,1,2.229-1.895,3.19,3.19,0,0,1-.833-2.142,3.225,3.225,0,1,1,6.45,0Zm-4.841,0a1.614,1.614,0,1,0,1.613-1.613A1.62,1.62,0,0,0,15153.127,448.195Zm-31.62-11.282-.457,6.374c.2.35.407.7.628,1.035.221-.335.426-.681.628-1.031l-.457-6.381c-.057,0-.114,0-.171,0S15121.563,436.909,15121.507,436.912Zm2.2,3.307a18.452,18.452,0,0,0,.749-2.812,7.693,7.693,0,0,0-.97-.3Zm-4.779-2.823a18.464,18.464,0,0,0,.734,2.789l.217-3.071A9.078,9.078,0,0,0,15118.923,437.4Zm25.883-1.7a5.611,5.611,0,0,0,6.971,0,4.024,4.024,0,0,0-6.971,0Zm-27.968-5.24a4.84,4.84,0,1,0,4.84-4.84A4.847,4.847,0,0,0,15116.838,430.451Zm34.68,0a3.219,3.219,0,0,1-.833,2.146,5.568,5.568,0,0,1,2.226,1.895,5.646,5.646,0,1,0-9.238,0,5.542,5.542,0,0,1,2.226-1.895,3.222,3.222,0,1,1,5.62-2.146Zm-4.84,0a1.613,1.613,0,1,0,1.613-1.613A1.614,1.614,0,0,0,15146.678,430.451Zm-15.331,22.264a5.036,5.036,0,0,1-1.161-1.9H15129v-1.271h.936c-.011-.145-.015-.289-.015-.438,0-.183.007-.365.022-.54H15129V447.3h1.225a5.546,5.546,0,0,1,.891-1.568,4.442,4.442,0,0,1,3.726-1.728,3.848,3.848,0,0,1,1.625.365l-.575,1.256a3.257,3.257,0,0,0-1.148-.209,2.938,2.938,0,0,0-2.375,1.012,3.637,3.637,0,0,0-.6.871h2.61v1.271h-2.983a4.629,4.629,0,0,0-.03.525,4.289,4.289,0,0,0,.022.453h2.991v1.271h-2.638a3.656,3.656,0,0,0,.632.909,2.993,2.993,0,0,0,2.378.986,2.922,2.922,0,0,0,1.286-.255c.092-.042.183-.088.278-.141l.3,1.419a4.9,4.9,0,0,1-1.884.377A4.39,4.39,0,0,1,15131.347,452.715Z" transform="translate(-15112.001 -424.002)" fill="#f36233"/>
</svg>
