<svg xmlns="http://www.w3.org/2000/svg" width="50" height="50" viewBox="0 0 50 50">
  <path id="focus_1_" data-name="focus (1)" d="M51,26a14.509,14.509,0,0,0-25.694-9.249L16.53,12.1a8.072,8.072,0,1,0-.755,1.425l8.569,4.536a14.414,14.414,0,0,0-2.335,7.128h-4.92a8.069,8.069,0,1,0,0,1.613h4.92a14.414,14.414,0,0,0,2.335,7.128l-8.569,4.536A8.078,8.078,0,1,0,16.53,39.9l8.777-4.647a14.615,14.615,0,0,0,4.327,3.542l-3.427,8.323A2.7,2.7,0,0,0,26,48.154v.116a2.73,2.73,0,0,0,5.265,1.014l.926-2.316h8.585l.927,2.316a2.73,2.73,0,0,0,5.265-1.014v-.116a2.709,2.709,0,0,0-.206-1.04l-3.427-8.323A14.525,14.525,0,0,0,51,26ZM5.2,14.219a4.837,4.837,0,0,1,7.729,0,6.4,6.4,0,0,1-7.729,0Zm1.445-5.96a2.419,2.419,0,1,1,2.419,2.419A2.422,2.422,0,0,1,6.645,8.258ZM14.09,13.1a6.449,6.449,0,0,0-2.364-1.837,4.032,4.032,0,1,0-5.324,0A6.457,6.457,0,0,0,4.039,13.1a6.452,6.452,0,1,1,10.052,0ZM5.2,48.09a4.837,4.837,0,0,1,7.729,0,6.4,6.4,0,0,1-7.729,0Zm1.445-5.96a2.419,2.419,0,1,1,2.419,2.419A2.422,2.422,0,0,1,6.645,42.129Zm7.445,4.842a6.449,6.449,0,0,0-2.364-1.837,4.032,4.032,0,1,0-5.324,0,6.457,6.457,0,0,0-2.364,1.837,6.452,6.452,0,1,1,10.052,0Zm11.679-28.15,1.438.761a11.21,11.21,0,0,0-1.973,5.612H23.622a12.813,12.813,0,0,1,2.148-6.373Zm4.319,7.985a6.421,6.421,0,0,0,1.444,3.322l-2.885,1.527a9.614,9.614,0,0,1-1.8-4.849Zm1.63-1.613A4.823,4.823,0,0,1,33,22.649l3.106,1.644.755-1.426L34.474,21.6a4.839,4.839,0,1,1,0,8.792l2.387-1.264-.755-1.426L33,29.351a4.823,4.823,0,0,1-1.283-2.544h4.766V25.194Zm1.077,6.091a6.452,6.452,0,1,0,0-10.569l-3.072-1.627a9.677,9.677,0,1,1,0,13.823Zm-1.262-9.413a6.423,6.423,0,0,0-1.444,3.322H26.848a9.614,9.614,0,0,1,1.8-4.849ZM5.2,31.154a4.837,4.837,0,0,1,7.729,0,6.4,6.4,0,0,1-7.729,0Zm1.445-5.96a2.419,2.419,0,1,1,2.419,2.419A2.422,2.422,0,0,1,6.645,25.194Zm7.445,4.842A6.449,6.449,0,0,0,11.727,28.2a4.032,4.032,0,1,0-5.324,0,6.457,6.457,0,0,0-2.364,1.837,6.452,6.452,0,1,1,10.052,0Zm9.531-3.229h1.613a11.21,11.21,0,0,0,1.973,5.612l-1.438.761A12.818,12.818,0,0,1,23.622,26.806Zm6.145,21.879a1.117,1.117,0,0,1-2.154-.415v-.116a1.109,1.109,0,0,1,.084-.425l3.4-8.26a14.456,14.456,0,0,0,2.092.656Zm3.069-3.331,1.977-4.943a13.465,13.465,0,0,0,3.341,0l1.977,4.943ZM45.271,47.73a1.106,1.106,0,0,1,.084.425v.116a1.117,1.117,0,0,1-2.154.415l-3.424-8.56a14.3,14.3,0,0,0,2.092-.656ZM36.484,38.9a12.868,12.868,0,0,1-9.709-4.431l1.469-.777a11.291,11.291,0,1,0,0-15.388l-1.469-.777A12.9,12.9,0,1,1,36.484,38.9Z" transform="translate(-1 -1)" fill="#f36233"/>
</svg>
