<svg xmlns="http://www.w3.org/2000/svg" width="50" height="50" viewBox="0 0 50 50">
  <path id="marketing" d="M5.839,36.484H7.452V38.1H5.839ZM12.29,38.1H13.9V36.484H12.29Zm-3.226,0h1.613V36.484H9.065ZM51,11.484V37.29a4.037,4.037,0,0,1-4.032,4.032H32.481a4.6,4.6,0,0,0,1.852,3.226h2.151a4.037,4.037,0,0,1,4.032,4.032A2.422,2.422,0,0,1,38.1,51H13.9a2.422,2.422,0,0,1-2.419-2.419,4.037,4.037,0,0,1,4.032-4.032h2.15a4.6,4.6,0,0,0,1.852-3.226H5.032A4.037,4.037,0,0,1,1,37.29V11.484A4.037,4.037,0,0,1,5.032,7.452H7.452V1H31.645V7.452H46.968A4.037,4.037,0,0,1,51,11.484ZM7.452,17.129V12.29H5.839V33.258h5.645V27.613a2.414,2.414,0,0,1,1.656-2.284l-.872-1.09a7.289,7.289,0,0,1-1.59-4.535V17.129Zm1.613-1.613h1.613V9.871A1.615,1.615,0,0,1,12.29,8.258a3.228,3.228,0,0,1,2.96,1.951l1.672-1.223L9.065,3.373Zm16.5,7.715A5.667,5.667,0,0,0,26.806,19.7V17.129H15.516V17.5l.048.031a5.318,5.318,0,0,1,2.372,4.432H16.323a3.707,3.707,0,0,0-1.654-3.09l-.765-.51V11.484A1.615,1.615,0,0,0,12.29,9.871V19.7a5.667,5.667,0,0,0,1.237,3.527l1.57,1.963H24Zm2.8-7.715L20.791,9.974l-1.243.888-1.243-.888-2.79,2.04v3.5Zm1.663-.783V3.373L22.174,8.986Zm-1.71-12.12H10.774L19.548,8.88ZM13.1,33.258H26V27.613a.807.807,0,0,0-.806-.806H13.9a.807.807,0,0,0-.806.806Zm14.516-5.645v5.645H46.161V12.29H31.645v4.839H28.419V19.7a7.287,7.287,0,0,1-1.59,4.535l-.872,1.09A2.415,2.415,0,0,1,27.613,27.613Zm8.871,18.548H15.516A2.422,2.422,0,0,0,13.1,48.581a.807.807,0,0,0,.806.806H38.1a.807.807,0,0,0,.806-.806A2.422,2.422,0,0,0,36.484,46.161Zm-5.615-4.839H21.131a6.207,6.207,0,0,1-1.2,3.226H32.073A6.215,6.215,0,0,1,30.869,41.323ZM49.387,11.484a2.422,2.422,0,0,0-2.419-2.419H31.645v1.613H46.161a1.615,1.615,0,0,1,1.613,1.613V33.258a1.615,1.615,0,0,1-1.613,1.613H5.839a1.615,1.615,0,0,1-1.613-1.613V12.29a1.615,1.615,0,0,1,1.613-1.613H7.452V9.065H5.032a2.422,2.422,0,0,0-2.419,2.419V37.29A2.422,2.422,0,0,0,5.032,39.71H46.968a2.422,2.422,0,0,0,2.419-2.419ZM44.548,21.968H33.258V13.9h11.29Zm-1.613-6.452H34.871v4.839h8.065Zm-12.1,14.516H29.226v1.613h1.613Zm1.613,1.613h12.1V30.032h-12.1Zm12.1-4.839H29.226v1.613H44.548Zm0-3.226H29.226v1.613H44.548Z" transform="translate(-1 -1)" fill="#f36233"/>
</svg>
