<svg xmlns="http://www.w3.org/2000/svg" width="50" height="50" viewBox="0 0 50 50">
  <g id="Groupe_6797" data-name="Groupe 6797" transform="translate(13325 -707)">
    <path id="Union_37" data-name="Union 37" d="M4.032,50A4.037,4.037,0,0,1,0,45.968V41.935H1.613V15.323A4.037,4.037,0,0,1,5.645,11.29h8.912c-.021-.267-.041-.534-.041-.806a10.484,10.484,0,1,1,20.968,0c0,.272-.02.539-.041.806h8.912a4.037,4.037,0,0,1,4.032,4.032V41.935H50v4.032A4.037,4.037,0,0,1,45.968,50ZM1.613,45.968a2.422,2.422,0,0,0,2.419,2.419H45.968a2.422,2.422,0,0,0,2.419-2.419V43.548H33.871v.806a2.423,2.423,0,0,1-2.419,2.419h-12.9a2.423,2.423,0,0,1-2.419-2.419v-.806H1.613Zm16.129-1.613a.807.807,0,0,0,.806.806h12.9a.807.807,0,0,0,.806-.806v-.806H17.742ZM6.452,41.936h37.1V16.129H33.82a10.5,10.5,0,0,1-1.1,1.427l2.421,2.42-1.228,2.07.049.118,2.332.6v6.091l-2.333.6c-.016.039-.032.079-.049.118l1.228,2.07-4.307,4.307-2.07-1.228-.118.049-.6,2.332H21.954l-.6-2.333-.118-.049-2.07,1.228-4.307-4.307,1.228-2.07-.049-.118-2.332-.6V22.761l2.333-.6c.016-.039.032-.079.049-.118l-1.228-2.07,2.421-2.42a10.543,10.543,0,0,1-1.1-1.427H6.452Zm28.224-27.42h8.873a1.614,1.614,0,0,1,1.613,1.613V41.935h1.613V15.323A2.422,2.422,0,0,0,44.355,12.9H35.191A10.313,10.313,0,0,1,34.675,14.516Zm-31.449.806V41.935H4.839V16.129a1.614,1.614,0,0,1,1.613-1.613h8.873a10.47,10.47,0,0,1-.516-1.613H5.645A2.422,2.422,0,0,0,3.226,15.323ZM21.536,33.079a8.063,8.063,0,0,0,.769.319l.406.144.5,1.942h3.586l.5-1.941.406-.144a7.611,7.611,0,0,0,.769-.319l.388-.186,1.724,1.023,2.536-2.536-1.023-1.724.185-.388a8.039,8.039,0,0,0,.319-.769l.144-.406,1.942-.5V24.014l-1.941-.495-.144-.406a7.611,7.611,0,0,0-.319-.769l-.185-.388,1.023-1.724-1.569-1.568a10.459,10.459,0,0,1-3.084,1.706,6.451,6.451,0,1,1-6.917,0,10.483,10.483,0,0,1-3.084-1.706l-1.569,1.568,1.023,1.724-.185.388a8.065,8.065,0,0,0-.319.769l-.145.406-1.94.5V27.6l1.941.495.144.406a7.62,7.62,0,0,0,.319.769l.186.388-1.023,1.724,2.536,2.536,1.724-1.023Zm-1.375-7.273A4.839,4.839,0,1,0,25,20.968,4.843,4.843,0,0,0,20.161,25.806ZM16.129,10.484A8.871,8.871,0,1,0,25,1.613,8.881,8.881,0,0,0,16.129,10.484ZM11.29,46.774V45.161H12.9v1.613Zm-3.226,0V45.161H9.677v1.613Zm-3.226,0V45.161H6.452v1.613ZM21.774,25.806A3.226,3.226,0,1,1,25,29.032,3.229,3.229,0,0,1,21.774,25.806Zm1.613,0A1.613,1.613,0,1,0,25,24.194,1.614,1.614,0,0,0,23.387,25.806ZM22.378,15.083A6.279,6.279,0,0,1,20.93,12.72H19.456V11.137h1.162q-.02-.269-.02-.546,0-.342.031-.674H19.456V8.335H20.98a6.7,6.7,0,0,1,1.108-1.947,5.53,5.53,0,0,1,4.637-2.154,4.756,4.756,0,0,1,2.023.458l-.713,1.563A4.084,4.084,0,0,0,26.6,5.992a3.668,3.668,0,0,0-2.956,1.259,4.685,4.685,0,0,0-.753,1.084h3.252V9.918H22.43a5.717,5.717,0,0,0-.037.658q0,.287.027.562h3.724V12.72H22.86a4.577,4.577,0,0,0,.786,1.132,3.73,3.73,0,0,0,2.963,1.227,3.625,3.625,0,0,0,1.6-.32q.171-.074.347-.174l.378,1.765a6.065,6.065,0,0,1-2.345.47A5.46,5.46,0,0,1,22.378,15.083Z" transform="translate(-13325 707)" fill="#f36233"/>
  </g>
</svg>
