<svg xmlns="http://www.w3.org/2000/svg" width="50" height="50" viewBox="0 0 50 50">
  <path id="activation" d="M34.871,18.742a16.245,16.245,0,0,0-1.713.094A16.045,16.045,0,0,0,17.129,1a16.129,16.129,0,1,0,1.706,32.159A16.128,16.128,0,1,0,34.871,18.742Zm-17.742,12.9A14.611,14.611,0,1,1,31.5,19.1a15.921,15.921,0,0,0-1.707.472A12.945,12.945,0,1,0,19.574,29.791,16.15,16.15,0,0,0,19.1,31.5,14.653,14.653,0,0,1,17.129,31.645Zm3.193-3.69A11.252,11.252,0,0,1,9.1,25.058,2.4,2.4,0,0,1,11,23.042l2.978-.6a3.269,3.269,0,0,0,.531-.21l2.615,3.51,2.62-3.517a3.446,3.446,0,0,0,.588.233l2.916.589a2.388,2.388,0,0,1,.506.169,16.191,16.191,0,0,0-3.437,4.745ZM13.1,17.129a.806.806,0,0,1,0-1.613Zm.629-3.226H13.1a2.385,2.385,0,0,0-.61.088,3.733,3.733,0,0,1,3.56-4.927h2.167a3.733,3.733,0,0,1,3.559,4.927,2.385,2.385,0,0,0-.61-.088H18.932a6.862,6.862,0,0,1-3.056-.722l-.17-.085h-.19A2.407,2.407,0,0,0,13.726,13.9Zm7.435,1.613a.806.806,0,0,1,0,1.613Zm-1.613,1.613a2.419,2.419,0,1,1-4.839,0V15.516a.808.808,0,0,1,.652-.792,8.494,8.494,0,0,0,3.57.792h.616Zm-3.66,3.816a3.674,3.674,0,0,0,2.483,0c.045.078.094.155.146.229l-1.388,1.863-1.387-1.861C15.794,21.1,15.842,21.024,15.888,20.945ZM25.057,22.1a3.985,3.985,0,0,0-1.485-.639l-2.855-.574a1.605,1.605,0,0,1-.944-.74,4.039,4.039,0,0,0,1.045-1.406h.343a2.414,2.414,0,0,0,1.978-3.8,5.357,5.357,0,0,0-4.927-7.485H16.045a5.357,5.357,0,0,0-4.927,7.486,2.413,2.413,0,0,0,1.978,3.8h.342a4.037,4.037,0,0,0,1.046,1.406,1.546,1.546,0,0,1-.883.723l-2.916.589A3.99,3.99,0,0,0,7.894,23.6a11.289,11.289,0,1,1,20.059-3.281A16.183,16.183,0,0,0,25.057,22.1Zm9.814,27.287A14.516,14.516,0,1,1,49.387,34.871,14.533,14.533,0,0,1,34.871,49.387ZM46.256,20.564l1.558-.418c.151.561.281,1.135.386,1.708l-1.586.294C46.516,21.617,46.4,21.084,46.256,20.564ZM34.065,8.258a2.4,2.4,0,0,0,1.766-.777,21.16,21.16,0,0,1,9.944,11.53l1.521-.537A22.784,22.784,0,0,0,36.469,6c0-.052.015-.1.015-.156a2.419,2.419,0,1,0-2.419,2.419Zm0-3.226a.806.806,0,1,1-.806.806A.808.808,0,0,1,34.065,5.032ZM5.385,29.852c.1.531.219,1.064.358,1.584l-1.558.418c-.151-.561-.281-1.135-.386-1.708Zm12.55,18.728a2.419,2.419,0,1,0-1.766-4.061A21.166,21.166,0,0,1,6.225,32.99L4.7,33.527A22.784,22.784,0,0,0,15.531,46c0,.052-.015.1-.015.156A2.422,2.422,0,0,0,17.935,48.581Zm0-3.226a.806.806,0,1,1-.806.806A.808.808,0,0,1,17.935,45.355Zm26.474-17.6a3.209,3.209,0,0,0-2.876-.891,3.325,3.325,0,0,0-1.748.954L30.839,36.76l-2.5-2.5a3.329,3.329,0,0,0-1.747-.952,3.229,3.229,0,0,0-3.768,3.767,3.325,3.325,0,0,0,.954,1.748L28.558,43.6a3.223,3.223,0,0,0,4.561,0L44.348,32.375a3.325,3.325,0,0,0,.954-1.748,3.208,3.208,0,0,0-.892-2.876h0Zm-.7,2.59a1.753,1.753,0,0,1-.506.893L31.979,42.463a1.651,1.651,0,0,1-2.281,0l-4.777-4.777a1.76,1.76,0,0,1-.506-.894A1.616,1.616,0,0,1,26,34.871a1.586,1.586,0,0,1,1.2.534l3.636,3.636L40.927,28.954a1.76,1.76,0,0,1,.894-.506,1.617,1.617,0,0,1,1.894,1.894Z" transform="translate(-1 -1)" fill="#f36233"/>
</svg>
