<svg xmlns="http://www.w3.org/2000/svg" width="50" height="50" viewBox="0 0 50 50">
  <path id="work_1_" data-name="work (1)" d="M16.937,28.785a4.834,4.834,0,0,1-6.7,6.7l.89-1.345a3.221,3.221,0,0,0,4.465-4.465ZM12.9,28.227a3.2,3.2,0,0,1,1.775.536l.891-1.344a4.834,4.834,0,0,0-6.7,6.7l1.345-.89a3.221,3.221,0,0,1,2.689-5Zm16.129,5.645v4.839h3.226V37.1H30.645V33.872Zm.806-4.839a8.888,8.888,0,0,0-5.614,2l1.023,1.249A7.262,7.262,0,0,1,29.032,30.7v1.562h1.613V30.694a7.268,7.268,0,0,1,6.4,6.4H35.484v1.613h1.562A7.265,7.265,0,0,1,35.458,42.5l1.248,1.022a8.869,8.869,0,0,0-6.867-14.485Zm.806,16.078V43.549H29.032v1.565a7.268,7.268,0,0,1-6.4-6.4h1.565V37.1H22.631a7.265,7.265,0,0,1,1.588-3.785L22.971,32.29A8.87,8.87,0,0,0,35.452,44.772l-1.023-1.249A7.259,7.259,0,0,1,30.645,45.111ZM45.161,8.065H50V38.711H41.894A12.083,12.083,0,0,1,18.37,41.726l-.323-.23a11.23,11.23,0,0,1-1.681.693l-.36,2.167H9.8l-.36-2.167A11.231,11.231,0,0,1,7.759,41.5L5.973,42.771,1.586,38.383,2.862,36.6a11.151,11.151,0,0,1-.694-1.681L0,34.555V28.35l2.167-.361a11.165,11.165,0,0,1,.694-1.681L1.586,24.523l4.386-4.388L7.759,21.41a11.23,11.23,0,0,1,1.681-.693l.36-2.168h6.206l.36,2.167a11.23,11.23,0,0,1,1.681.693l1.786-1.276,4.387,4.388-1.275,1.786a11.151,11.151,0,0,1,.557,1.311,12.014,12.014,0,0,1,2.3-1.106V22.582h4.839v3.267a12.076,12.076,0,0,1,1.613.2v-7.5H37.1v9.7a12.161,12.161,0,0,1,1.613,1.458V14.517h4.839V37.1H45.16V8.065ZM40.322,31.9a12,12,0,0,1,1.572,5.2h.041V16.13H40.322Zm-6.452-5.382a12,12,0,0,1,1.613.7V20.162H33.871Zm-6.452-.462a12.132,12.132,0,0,1,1.613-.2V24.194H27.419ZM17.9,39.737a12.071,12.071,0,0,1-.154-1.833c0-.007,0-.015,0-.022a8.052,8.052,0,1,1,3.069-8A12.093,12.093,0,0,1,22.123,28.6a9.574,9.574,0,0,0-.827-1.944l-.258-.449L22.114,24.7l-2.456-2.455-1.5,1.075-.449-.258a9.6,9.6,0,0,0-2.263-.934l-.5-.135-.3-1.828H11.167l-.3,1.827-.5.135a9.61,9.61,0,0,0-2.263.934l-.449.258-1.5-1.075L3.691,24.7,4.766,26.2l-.258.449a9.588,9.588,0,0,0-.934,2.262l-.135.5-1.827.3v3.472l1.827.3.135.5a9.6,9.6,0,0,0,.934,2.262l.258.449L3.692,38.209l2.456,2.455,1.5-1.075.449.258a9.6,9.6,0,0,0,2.263.934l.5.135.3,1.827h3.472l.3-1.827.5-.135a9.61,9.61,0,0,0,2.263-.934Zm1.459-8.285a6.468,6.468,0,1,0-1.344,3.931,12.012,12.012,0,0,1,1.325-3.457c.01-.157.019-.314.019-.475ZM40.322,37.9A10.484,10.484,0,1,0,29.838,48.388,10.5,10.5,0,0,0,40.322,37.9Zm6.452-.806h1.613V9.678H46.774ZM45.161,0H50V4.84H48.387V2.486L41.069,8.34l-2.36-2.36L36.047,8.642a2.381,2.381,0,0,1,.243,1.036,2.416,2.416,0,0,1-3.344,2.234L28.73,16.6a2.391,2.391,0,0,1,.3,1.147A2.419,2.419,0,1,1,25.061,15.9L21.818,7.254c-.015,0-.029,0-.044,0a2.394,2.394,0,0,1-1.509-.543l-6.611,4.068A2.413,2.413,0,0,1,9.019,12.1H4.69a2.419,2.419,0,1,1,0-1.613H9.02A2.392,2.392,0,0,1,12.8,9.415l6.611-4.068a2.357,2.357,0,0,1-.056-.508A2.419,2.419,0,1,1,23.325,6.68l3.243,8.647c.015,0,.029,0,.044,0a2.407,2.407,0,0,1,.926.185l4.215-4.684a2.392,2.392,0,0,1-.3-1.147,2.423,2.423,0,0,1,2.419-2.419,2.381,2.381,0,0,1,1.036.243l3.8-3.8,2.479,2.479,5.705-4.565H45.161ZM3.225,11.291a.806.806,0,1,0-.806.806A.808.808,0,0,0,3.225,11.291Zm8.871,0a.806.806,0,1,0-.806.806A.808.808,0,0,0,12.1,11.291Zm9.677-5.645a.806.806,0,1,0-.806-.806A.808.808,0,0,0,21.774,5.646Zm5.645,12.1a.806.806,0,1,0-.806.806A.808.808,0,0,0,27.419,17.743Zm7.258-8.065a.806.806,0,1,0-.806.806A.808.808,0,0,0,34.677,9.678Zm0,0" transform="translate(0 -0.001)" fill="#f36233"/>
</svg>
