<svg xmlns="http://www.w3.org/2000/svg" xmlns:xlink="http://www.w3.org/1999/xlink" width="22" height="18.355" viewBox="0 0 22 18.355"><defs><style>.a{fill:#2148ff;}.b{filter:url(#a);}</style><filter id="a" x="0" y="0" width="22" height="18.355" filterUnits="userSpaceOnUse"><feOffset dy="1" input="SourceAlpha"/><feGaussianBlur stdDeviation="1" result="b"/><feFlood flood-opacity="0.161"/><feComposite operator="in" in2="b"/><feComposite in="SourceGraphic"/></filter></defs><g class="b" transform="matrix(1, 0, 0, 1, 0, 0)"><path class="a" d="M5.226,11.955.4,7.06a1.443,1.443,0,0,1,0-1.992l1.1-1.11a1.423,1.423,0,0,1,1.977,0L6.207,6.731,12.52.4A1.412,1.412,0,0,1,14.5.4l1.1,1.108a1.434,1.434,0,0,1,0,1.987L8.453,10.665a1.237,1.237,0,0,1-.152.182L7.2,11.955a1.421,1.421,0,0,1-1.977,0Z" transform="translate(3 2)"/></g></svg>
