<svg xmlns="http://www.w3.org/2000/svg" width="56.14" height="58.145" viewBox="0 0 56.14 58.145"><defs><style>.a{fill:#178aed;}.b{fill:#00306f;}.c{fill:#013b88;}.d{fill:#2699fb;}.e{fill:#52afff;}.f{fill:#d5d5d5;}.g{fill:#fff;}</style></defs><g transform="translate(-32 -24)"><path class="a" d="M41.022,240l-3.316,1.105A8.346,8.346,0,0,0,32,249.022V260.8a7,7,0,0,0,6.231,6.962l2.792.31,1-2.005Z" transform="translate(0 -188.933)"/><path class="a" d="M401,240l3.316,1.105a8.346,8.346,0,0,1,5.706,7.917V260.8a7,7,0,0,1-6.231,6.962l-2.792.31-1-4.01Z" transform="translate(-321.885 -188.933)"/><path class="b" d="M153.022,32.02v2H144v-2L145.48,24h6.015Z" transform="translate(-97.965)"/><path class="b" d="M296,32.02v2h9.022v-2L303.542,24h-6.015Z" transform="translate(-230.918)"/><path class="c" d="M237.012,54.015a1,1,0,0,1-1-1v-2a1,1,0,0,0-2.005,0v2a1,1,0,0,1-2,0v-2a3.007,3.007,0,1,1,6.015,0v2A1,1,0,0,1,237.012,54.015Z" transform="translate(-174.938 -20.993)"/><path class="d" d="M142.095,107.047v28.07a3.008,3.008,0,0,1-3.007,3.007h-32.08A3.008,3.008,0,0,1,104,135.117v-28.07l1.852-12.041.153-.991V91.509A3.509,3.509,0,0,1,109.513,88h27.068a3.509,3.509,0,0,1,3.509,3.508v2.507l.153.991Z" transform="translate(-62.978 -55.98)"/><path class="e" d="M417.022,249.022a8.346,8.346,0,0,0-5.706-7.917L408,240v11.027h.529a18.991,18.991,0,0,0,8.493-2.005Z" transform="translate(-328.883 -188.933)"/><path class="e" d="M32,249.022a8.346,8.346,0,0,1,5.706-7.917L41.022,240v11.027h-.529A18.991,18.991,0,0,1,32,249.022Z" transform="translate(0 -188.933)"/><rect class="a" width="28" height="20" rx="10" transform="translate(45.797 57.352)"/><path class="e" d="M146.256,296h23.559a2.256,2.256,0,0,1,2.256,2.256v3.509a4.261,4.261,0,0,1-4.261,4.261H148.261A4.261,4.261,0,0,1,144,301.764v-3.509A2.256,2.256,0,0,1,146.256,296Z" transform="translate(-97.965 -237.915)"/><path class="e" d="M168.812,176.02H147.258A3.258,3.258,0,0,1,144,172.762V168h28.07v4.762A3.258,3.258,0,0,1,168.812,176.02Z" transform="translate(-97.965 -125.955)"/><path class="c" d="M178.506,171.087A2.506,2.506,0,0,1,176,168.581V136h5.012v32.581A2.506,2.506,0,0,1,178.506,171.087Z" transform="translate(-125.955 -97.965)"/><path class="c" d="M298.506,171.087A2.506,2.506,0,0,1,296,168.581V136h5.012v32.581A2.506,2.506,0,0,1,298.506,171.087Z" transform="translate(-230.918 -97.965)"/><path class="a" d="M153.171,129.994a1.03,1.03,0,0,1-.153.011H118.933a1.029,1.029,0,0,1-.153-.011l.153-.991v-1h34.085v1Z" transform="translate(-75.905 -90.968)"/><path class="f" d="M184,304h3.007v1H184Z" transform="translate(-132.953 -244.913)"/><path class="f" d="M304,304h3.007v1H304Z" transform="translate(-237.915 -244.913)"/><path class="g" d="M174.015,295.017H169a1,1,0,0,1-1-1V289a1,1,0,0,1,1-1h5.012a1,1,0,0,1,1,1v5.012A1,1,0,0,1,174.015,295.017ZM170,293.012h3.008V290H170Z" transform="translate(-118.958 -230.918)"/><path class="g" d="M294.015,295.017H289a1,1,0,0,1-1-1V289a1,1,0,0,1,1-1h5.012a1,1,0,0,1,1,1v5.012A1,1,0,0,1,294.015,295.017ZM290,293.012h3.008V290H290Z" transform="translate(-223.92 -230.918)"/><g transform="translate(50.045 39.037)"><path class="b" d="M176,144h5.012v2H176Z" transform="translate(-176 -144)"/><path class="b" d="M296,144h5.012v2H296Z" transform="translate(-280.963 -144)"/></g></g></svg>