<svg xmlns="http://www.w3.org/2000/svg" xmlns:xlink="http://www.w3.org/1999/xlink" width="37.847" height="37.848" viewBox="0 0 37.847 37.848"><defs><style>.a{fill:#f0f0f0;}.b{fill:#0b34ef;}.c{fill:#fa0b54;}.d{filter:url(#a);}</style><filter id="a" x="0" y="0" width="37.847" height="37.848" filterUnits="userSpaceOnUse"><feOffset dy="3" input="SourceAlpha"/><feGaussianBlur stdDeviation="3" result="b"/><feFlood flood-opacity="0.161"/><feComposite operator="in" in2="b"/><feComposite in="SourceGraphic"/></filter></defs><g transform="translate(9 -3.152)"><g class="d" transform="matrix(1, 0, 0, 1, -9, 3.15)"><ellipse class="a" cx="9.923" cy="9.924" rx="9.923" ry="9.924" transform="translate(9 6)"/></g><g transform="translate(-0.214 9)"><ellipse class="a" cx="9.51" cy="9.424" rx="9.51" ry="9.424" transform="translate(0.214 1.152)"/><g transform="translate(0.26 0.344)"><path class="b" d="M10.54,100.142a9.953,9.953,0,0,0-1.721,3.476h5.2Z" transform="translate(-8.819 -96.613)"/><path class="b" d="M375.2,103.619a9.954,9.954,0,0,0-1.721-3.476l-3.476,3.476Z" transform="translate(-355.89 -96.614)"/><path class="b" d="M8.819,322.784a9.955,9.955,0,0,0,1.721,3.476l3.476-3.476Z" transform="translate(-8.819 -310.65)"/><path class="b" d="M326.258,10.54a9.954,9.954,0,0,0-3.476-1.721v5.2Z" transform="translate(-310.515 -8.819)"/><path class="b" d="M100.142,373.481a9.955,9.955,0,0,0,3.476,1.721v-5.2Z" transform="translate(-96.574 -356.063)"/><path class="b" d="M103.618,8.819a9.954,9.954,0,0,0-3.476,1.721l3.476,3.476Z" transform="translate(-96.574 -8.819)"/><path class="b" d="M322.783,375.2a9.954,9.954,0,0,0,3.476-1.721l-3.476-3.476Z" transform="translate(-310.516 -356.063)"/><path class="b" d="M370.005,322.784l3.476,3.476a9.954,9.954,0,0,0,1.721-3.476Z" transform="translate(-355.89 -310.65)"/></g><g transform="translate(-0.084 0)"><path class="c" d="M19.915,8.621H11.3V.084A10.179,10.179,0,0,0,8.7.084V8.621H.085a9.919,9.919,0,0,0,0,2.586H8.7v8.537a10.179,10.179,0,0,0,2.609,0V11.207h8.611a9.919,9.919,0,0,0,0-2.586Z" transform="translate(0 0)"/><path class="c" d="M322.783,322.783h0l4.458,4.458q.308-.307.587-.641l-3.817-3.817h-1.229Z" transform="translate(-310.167 -310.339)"/><path class="c" d="M79.438,322.784h0l-4.458,4.458q.307.308.641.587l3.817-3.817Z" transform="translate(-72.054 -310.34)"/><path class="c" d="M64.978,79.438h0L60.52,74.98q-.308.307-.587.641l3.817,3.817h1.229Z" transform="translate(-57.594 -72.054)"/><path class="c" d="M322.783,64.979h0l4.458-4.458q-.307-.308-.641-.587l-3.817,3.817Z" transform="translate(-310.167 -57.595)"/></g></g></g></svg>