<svg xmlns="http://www.w3.org/2000/svg" width="23.332" height="20.999" viewBox="0 0 23.332 20.999"><defs><style>.a{fill:#fff;fill-rule:evenodd;}</style></defs><path class="a" d="M11.666,14a2.868,2.868,0,0,0,2.917-2.8,2.919,2.919,0,0,0-5.833,0A2.868,2.868,0,0,0,11.666,14Zm0-8.4A5.737,5.737,0,0,1,17.5,11.2a5.737,5.737,0,0,1-5.833,5.6,5.737,5.737,0,0,1-5.833-5.6A5.737,5.737,0,0,1,11.666,5.6ZM20.416,21H2.917a2.939,2.939,0,0,1-2.042-.84A2.711,2.711,0,0,1,0,18.2V5.6A2.868,2.868,0,0,1,2.917,2.8H5.25L7.437.7A2.465,2.465,0,0,1,9.187,0h5.1a2.386,2.386,0,0,1,1.6.7l2.187,2.1h2.333a2.868,2.868,0,0,1,2.917,2.8V18.2A2.868,2.868,0,0,1,20.416,21Z"/></svg>