<svg xmlns="http://www.w3.org/2000/svg" width="24" height="23.762" viewBox="0 0 24 23.762"><defs><style>.a{fill:#fff;}</style></defs><g transform="translate(-1.464 -3.702)"><path class="a" d="M238.526,10.644h.841a11.129,11.129,0,0,0-7.787-5.867.589.589,0,0,1-.089.248l-.257.445-2.988,5.175h10.28Zm0,0" transform="translate(-215.563 -1.076)"/><path class="a" d="M1.1,127.4H8.145l-2.039-3.552-3.651-6.314-.471-.8A12.328,12.328,0,0,0,0,123.443a12.185,12.185,0,0,0,.691,4.066A.863.863,0,0,1,1.1,127.4Zm0,0" transform="translate(1.464 -108.064)"/><path class="a" d="M28.859,372.267h-.871a11.633,11.633,0,0,0,8.114,6.479.841.841,0,0,1,.1-.4l.2-.371h.011l3.084-5.705H28.859Zm0,0" transform="translate(-25.405 -351.508)"/><path class="a" d="M62.865,5.012l3.349,5.8,2.018-3.493.078-.144L71.969.832l.466-.82C72.224,0,72,0,71.791,0a12.378,12.378,0,0,0-9.436,4.336,1.056,1.056,0,0,1,.288.3Zm0,0" transform="translate(-57.786 3.703)"/><path class="a" d="M252.884,296.54a.694.694,0,0,1-.306-.294l-.226-.386-3.422-5.938-2.062,3.582-.1.192-3.719,6.437-.488.838c.227,0,.443.012.669.012A12.687,12.687,0,0,0,252.884,296.54Zm0,0" transform="translate(-230.514 -273.519)"/><path class="a" d="M350.2,171.7H342.91l2.108,3.672,3.774,6.528.488.828a12.746,12.746,0,0,0,2.052-6.936,12.6,12.6,0,0,0-.714-4.2A.892.892,0,0,1,350.2,171.7Zm0,0" transform="translate(-325.868 -160.469)"/></g></svg>