<svg xmlns="http://www.w3.org/2000/svg" width="22.451" height="22.452" viewBox="0 0 22.451 22.452"><defs><style>.a{fill:#fff;}.b{fill:#9696b9;}</style></defs><g transform="translate(0 0)"><path class="a" d="M13.324,22.214l-3.35,1.827a3.01,3.01,0,0,0-.538.383,11.219,11.219,0,0,0,14.415.037,2.972,2.972,0,0,0-.591-.4l-3.587-1.793a1.368,1.368,0,0,1-.756-1.223V19.641a5.417,5.417,0,0,0,.339-.436,8.253,8.253,0,0,0,1.115-2.247,1.127,1.127,0,0,0,.8-1.072v-1.5a1.121,1.121,0,0,0-.375-.832V11.38S21.242,8,16.666,8s-4.13,3.379-4.13,3.379v2.172a1.12,1.12,0,0,0-.375.832v1.5a1.126,1.126,0,0,0,.519.945,7.454,7.454,0,0,0,1.358,2.81v1.373A1.369,1.369,0,0,1,13.324,22.214Z" transform="translate(-5.439 -4.612)"/><g transform="translate(0 0)"><path class="b" d="M11.418,0A11.219,11.219,0,0,0,4,19.809a2.983,2.983,0,0,1,.532-.379L7.885,17.6A1.368,1.368,0,0,0,8.6,16.4V15.029a7.447,7.447,0,0,1-1.358-2.81,1.127,1.127,0,0,1-.519-.945v-1.5A1.121,1.121,0,0,1,7.1,8.94V6.768s-.446-3.379,4.13-3.379,4.13,3.379,4.13,3.379V8.94a1.12,1.12,0,0,1,.375.832v1.5a1.127,1.127,0,0,1-.8,1.072,8.253,8.253,0,0,1-1.115,2.247,5.417,5.417,0,0,1-.339.436v1.407a1.367,1.367,0,0,0,.756,1.223l3.587,1.793a2.987,2.987,0,0,1,.589.395A11.223,11.223,0,0,0,11.418,0Z" transform="translate(0 0)"/></g></g></svg>