<svg xmlns="http://www.w3.org/2000/svg" width="30.77" height="26.003" viewBox="0 0 30.77 26.003"><defs><style>.a,.c{fill:#fff;}.a{stroke-linejoin:round;}.b,.c{stroke:none;}</style></defs><g class="a" transform="translate(-108.591 -368.85)"><path class="b" d="M 117.6501693725586 394.6932678222656 L 117.2900009155273 394.1177978515625 L 109.1671981811523 381.1395263671875 L 108.1527709960938 379.5187072753906 L 109.8307571411133 380.4354858398438 L 117.6714401245117 384.7192077636719 L 138.0614318847656 369.4498291015625 L 138.5533294677734 370.0216369628906 L 138.7368011474609 370.179443359375 L 118.092887878418 394.1785888671875 L 117.6501693725586 394.6932678222656 Z"/><path class="c" d="M 138.3611450195312 369.8500366210938 L 117.7138366699219 385.3121337890625 L 109.5910339355469 380.874267578125 L 117.7138366699219 393.8525390625 L 138.3577423095703 369.8533935546875 L 138.3611450195312 369.8500366210938 M 138.3606262207031 368.8500061035156 C 138.6424865722656 368.8500061035156 138.9217529296875 368.9686584472656 139.1187744140625 369.1973571777344 C 139.4505004882812 369.5824279785156 139.4391937255859 370.1522521972656 139.1002502441406 370.5236511230469 L 118.4719543457031 394.5046691894531 C 118.2812194824219 394.7264099121094 118.0039215087891 394.8525390625 117.7139282226562 394.8525390625 C 117.6888122558594 394.8525390625 117.6636047363281 394.8515930175781 117.6383361816406 394.8497009277344 C 117.3214263916016 394.82568359375 117.0347900390625 394.6524658203125 116.8661804199219 394.383056640625 L 108.7433624267578 381.40478515625 C 108.5020446777344 381.0192260742188 108.5513458251953 380.5194091796875 108.8633117675781 380.1883850097656 C 109.0573120117188 379.9825439453125 109.3225860595703 379.8742370605469 109.5914001464844 379.8742370605469 C 109.7548370361328 379.8742065429688 109.9195556640625 379.9142456054688 110.0704956054688 379.9967041015625 L 117.6290740966797 384.1263122558594 L 137.76171875 369.0496215820312 C 137.9409637451172 368.9153747558594 138.1515197753906 368.8500061035156 138.3606262207031 368.8500061035156 Z"/></g></svg>