<svg xmlns="http://www.w3.org/2000/svg" width="26.35" height="22.315" viewBox="0 0 26.35 22.315"><defs><style>.a,.c{fill:#fff;}.a{stroke-linejoin:round;}.b,.c{stroke:none;}</style></defs><g class="a" transform="translate(-108.591 -368.85)"><path class="b" d="M 116.4021072387695 391.0053100585938 L 116.0419387817383 390.4298400878906 L 109.1671981811523 379.4457092285156 L 108.1527709960938 377.8248901367188 L 109.8307571411133 378.7416381835938 L 116.4233779907227 382.3434753417969 L 133.6409454345703 369.4498291015625 L 134.1171722412109 370.0072021484375 L 134.3168182373047 370.1789245605469 L 116.8448257446289 390.4906311035156 L 116.4021072387695 391.0053100585938 Z"/><path class="c" d="M 133.9406433105469 369.8500671386719 L 116.4657669067383 382.9364013671875 L 109.5910339355469 379.180419921875 L 116.4657669067383 390.1645812988281 L 133.9377593994141 369.8528747558594 L 133.9406433105469 369.8500671386719 M 133.9401245117188 368.8500366210938 C 134.2230072021484 368.8500366210938 134.5032958984375 368.9695739746094 134.7003479003906 369.1997985839844 C 135.0299682617188 369.5848999023438 135.0177001953125 370.1524963378906 134.6806030273438 370.5227355957031 L 117.223876953125 390.8167114257812 C 117.0331497192383 391.0384521484375 116.7558517456055 391.1645812988281 116.4658508300781 391.1645812988281 C 116.4407348632812 391.1645812988281 116.41552734375 391.1636352539062 116.390266418457 391.1617431640625 C 116.0733489990234 391.1377258300781 115.7867202758789 390.9645385742188 115.6181106567383 390.6951293945312 L 108.7433624267578 379.7109680175781 C 108.5020446777344 379.3254089355469 108.5513458251953 378.8255615234375 108.8633117675781 378.4945678710938 C 109.0573120117188 378.2886962890625 109.3225708007812 378.180419921875 109.5914001464844 378.1803894042969 C 109.7548370361328 378.1803894042969 109.9195556640625 378.2203979492188 110.0704803466797 378.3028564453125 L 116.380989074707 381.7505798339844 L 133.3412170410156 369.0496215820312 C 133.5204925537109 368.9153747558594 133.7310180664062 368.8500366210938 133.9401245117188 368.8500366210938 Z"/></g></svg>