<svg xmlns="http://www.w3.org/2000/svg" xmlns:xlink="http://www.w3.org/1999/xlink" width="39.413" height="40.131" viewBox="0 0 39.413 40.131"><defs><style>.a{fill:#32d7be;}.b{fill:#fff;}.c{filter:url(#a);}</style><filter id="a" x="1.097" y="6.685" width="37.813" height="33.446" filterUnits="userSpaceOnUse"><feOffset dy="3" input="SourceAlpha"/><feGaussianBlur stdDeviation="3" result="b"/><feFlood flood-opacity="0.161"/><feComposite operator="in" in2="b"/><feComposite in="SourceGraphic"/></filter></defs><g transform="translate(-0.206 0.156)"><ellipse class="a" cx="19.706" cy="19.959" rx="19.706" ry="19.959" transform="translate(0.206 -0.156)"/><g class="c" transform="matrix(1, 0, 0, 1, 0.21, -0.16)"><path class="b" d="M6.472,14.946.493,8.826a1.817,1.817,0,0,1,0-2.49L1.858,4.948a1.751,1.751,0,0,1,2.449,0l3.38,3.468L15.5.505a1.736,1.736,0,0,1,2.449,0l1.365,1.386a1.805,1.805,0,0,1,0,2.485l-8.85,8.958a1.543,1.543,0,0,1-.188.227L8.92,14.946a1.747,1.747,0,0,1-2.449,0Z" transform="translate(10.1 12.68)"/></g></g></svg>