<svg xmlns="http://www.w3.org/2000/svg" width="24" height="24" viewBox="0 0 24 24"><defs><style>.a{fill:#fff;}</style></defs><path class="a" d="M14.25,0H2.75A2.748,2.748,0,0,0,0,2.75v15.5A2.748,2.748,0,0,0,2.75,21h7.38l.22-1.23a2.785,2.785,0,0,1,.76-1.47L17,12.42V2.75A2.748,2.748,0,0,0,14.25,0ZM4,4H8A1,1,0,0,1,8,6H4A1,1,0,0,1,4,4ZM9,14H4a1,1,0,0,1,0-2H9a1,1,0,0,1,0,2Zm4-4H4A1,1,0,0,1,4,8h9a1,1,0,0,1,0,2Z"/><path class="a" d="M12.528,24a.75.75,0,0,1-.738-.881l.53-3a.753.753,0,0,1,.208-.4l7.425-7.424a1.526,1.526,0,0,1,2.3-.177l1.237,1.237a1.751,1.751,0,0,1,0,2.475L16.063,23.25a.739.739,0,0,1-.4.208l-3.005.53a.715.715,0,0,1-.13.012Zm3.005-1.28h.01Z"/></svg>