<svg xmlns="http://www.w3.org/2000/svg" width="26.941" height="23.573" viewBox="0 0 26.941 23.573"><defs><style>.a{fill:#9696b9;}</style></defs><g transform="translate(0 -32.008)"><g transform="translate(0 37.059)"><g transform="translate(0 0)"><path class="a" d="M11.787,129.676v-1.684H1.684A1.687,1.687,0,0,0,0,129.676v3.368H12.142A15.076,15.076,0,0,1,11.787,129.676Z" transform="translate(0 -127.992)"/></g></g><g transform="translate(0 45.478)"><g transform="translate(0 0)"><path class="a" d="M26.872,287.992a15.144,15.144,0,0,1-5.408,4.716,2.53,2.53,0,0,1-2.511,0,15.22,15.22,0,0,1-5.41-4.72H0v8.419a1.685,1.685,0,0,0,1.684,1.684H25.257a1.684,1.684,0,0,0,1.684-1.684v-8.419ZM7.577,293.043H4.21a.842.842,0,1,1,0-1.684H7.577a.842.842,0,1,1,0,1.684Z" transform="translate(0 -287.992)"/></g></g><g transform="translate(13.47 32.008)"><path class="a" d="M268.96,34.6l-5.893-2.526a.845.845,0,0,0-.665,0L256.509,34.6a.84.84,0,0,0-.509.773v3.368c0,4.632,1.712,7.34,6.316,9.992a.846.846,0,0,0,.839,0c4.6-2.645,6.316-5.353,6.316-9.992V35.375A.839.839,0,0,0,268.96,34.6Zm-3.041,3.826-3.368,4.21a.851.851,0,0,1-.658.315h-.035a.845.845,0,0,1-.665-.374l-1.684-2.526a.842.842,0,1,1,1.4-.933l1.046,1.568,2.647-3.31a.842.842,0,0,1,1.317,1.051Z" transform="translate(-256 -32.008)"/></g></g></svg>