<svg xmlns="http://www.w3.org/2000/svg" width="83.698" height="83.83" viewBox="0 0 83.698 83.83"><defs><style>.a{fill:#bce0fd;}.b{fill:#1a8cff;}.c,.d{fill:#b9e1ff;}.d{stroke:#ff2467;stroke-width:3px;}.e{fill:#00429a;}</style></defs><path class="a" d="M0,41.849A41.849,41.849,0,1,0,41.849,0,41.854,41.854,0,0,0,0,41.849Z"/><g transform="translate(-17.525 -15.176)"><path class="b" d="M32.468-.207s9.921-.315,18.475,3.9S66.685,16.641,66.685,16.641l-.174,44.477c0,10.583.856,19.161-7.54,19.161H8.19C-.207,80.279,0,71.7,0,61.118L-.319,16.656s6.4-8.058,14.6-12.273S32.468-.207,32.468-.207Z" transform="translate(92.508 98.793) rotate(180)"/><path class="c" d="M160,176h32.66v4.83H160Z" transform="translate(-117.811 -127.704)"/><path class="c" d="M160,240h32.66v4.83H160Z" transform="translate(-117.811 -182.044)"/><path class="c" d="M160,240h32.66v4.83H160Z" transform="translate(-117.811 -201.044)"/><path class="c" d="M160,240h32.66v4.83H160Z" transform="translate(-117.811 -210.044)"/><path class="d" d="M160,304h29.753v7.344H160Z" transform="translate(-116.244 -236.383)"/><rect class="e" width="32.66" height="11.83" rx="1" transform="translate(42.189 80.107)"/></g></svg>