<svg xmlns="http://www.w3.org/2000/svg" width="48.861" height="60.938" viewBox="0 0 48.861 60.938"><defs><style>.a{fill:#0062f4;}.b{fill:#1a8cff;}.c{fill:#00429a;}.d{fill:#55b7ff;}.e{fill:#88c7f7;}.f{fill:#b9e1ff;}.g{fill:#013272;}.h{fill:#fc6fd0;}</style></defs><g transform="translate(-12.064 -12.617)"><g transform="translate(12.064 12.617)"><path class="a" d="M17,3.152A3.152,3.152,0,0,1,20.152,0H45.368A3.152,3.152,0,0,1,48.52,3.152V45.178a15.76,15.76,0,1,1-31.52,0Z" transform="translate(0.342 0)"/><path class="b" d="M19,3.152A2.963,2.963,0,0,1,21.732,0H43.586a2.963,2.963,0,0,1,2.732,3.152V45.178c0,8.7-6.115,15.76-13.658,15.76S19,53.877,19,45.178Z" transform="translate(0.443)"/><path class="c" d="M23.94,24.659a9.456,9.456,0,1,0,0-8.405Z" transform="translate(0.693 0.557)"/><rect class="d" width="37" height="8" rx="3" transform="translate(37 25) rotate(180)"/><g transform="translate(2.519 3.152)"><rect class="e" width="30" height="8" rx="3" transform="translate(30.481 21.848) rotate(180)"/><path class="f" d="M23.152,5.1h-2.1a1.051,1.051,0,1,1,0-2.1h2.1a1.051,1.051,0,0,1,0,2.1Z" transform="translate(-2.025 -3)"/><path class="f" d="M37.557,5.1H27.051a1.051,1.051,0,1,1,0-2.1H37.557a1.051,1.051,0,1,1,0,2.1Z" transform="translate(-1.721 -3)"/></g><path class="g" d="M34.253,42.5v2.91a2.1,2.1,0,0,1-4.2,0V42.5a3.152,3.152,0,1,1,4.2,0Z" transform="translate(0.95 1.874)"/><path class="h" d="M7.934,55.436a1.051,1.051,0,0,1-.63-.21,15.76,15.76,0,0,1,0-25.216,1.051,1.051,0,1,1,1.261,1.681,13.658,13.658,0,0,0,0,21.854,1.051,1.051,0,0,1-.63,1.891Z" transform="translate(-0.469 1.509)"/><path class="h" d="M10.253,51.912a1.051,1.051,0,0,1-.63-.21,11.557,11.557,0,0,1,0-18.491,1.051,1.051,0,1,1,1.261,1.681,9.456,9.456,0,0,0,0,15.129,1.051,1.051,0,0,1-.63,1.891Z" transform="translate(-0.266 1.671)"/><path class="h" d="M12.572,48.388a1.051,1.051,0,0,1-.63-.21,7.355,7.355,0,0,1,0-11.767A1.051,1.051,0,0,1,13.2,38.091a5.253,5.253,0,0,0,0,8.405,1.051,1.051,0,0,1-.63,1.891Z" transform="translate(-0.063 1.834)"/></g></g></svg>