<svg xmlns="http://www.w3.org/2000/svg" width="17.967" height="16.729" viewBox="0 0 17.967 16.729"><defs><style>.a{fill:none;stroke:#002cfa;stroke-width:1.5px;}</style></defs><g transform="translate(0.75 1.75)"><g transform="translate(0 -1)"><path class="a" d="M15.437,80H1.029A1.172,1.172,0,0,0,0,81.274V82l8.233,4.315L16.467,82v-.723A1.172,1.172,0,0,0,15.437,80Z" transform="translate(0 -80)"/></g><g transform="translate(0 3.381)"><g transform="translate(0 0)"><path class="a" d="M8.434,169.256a.413.413,0,0,1-.4,0L0,164.96v9.547a1.189,1.189,0,0,0,1.029,1.3H15.437a1.189,1.189,0,0,0,1.029-1.3V164.96Z" transform="translate(0 -164.96)"/></g></g></g></svg>