<svg xmlns="http://www.w3.org/2000/svg" width="28.531" height="22.417" viewBox="0 0 28.531 22.417"><defs><style>.a{fill:#fff;}</style></defs><g transform="translate(0 -54.82)"><g transform="translate(0 54.82)"><path class="a" d="M2.738,61.73Q3.28,62.112,6,64T10.174,66.9q.159.112.676.486t.86.605q.342.231.828.517a4.8,4.8,0,0,0,.916.429,2.523,2.523,0,0,0,.8.143h.032a2.525,2.525,0,0,0,.8-.143,4.809,4.809,0,0,0,.915-.429q.485-.287.828-.517t.86-.605q.517-.374.677-.486,1.465-1.019,7.451-5.174a7.563,7.563,0,0,0,1.942-1.958,4.2,4.2,0,0,0,.78-2.4,2.569,2.569,0,0,0-2.547-2.547H2.547a2.274,2.274,0,0,0-1.887.828A3.214,3.214,0,0,0,0,57.718a3.719,3.719,0,0,0,.876,2.173A7.9,7.9,0,0,0,2.738,61.73Z" transform="translate(0 -54.82)"/><path class="a" d="M26.939,185.822q-5.222,3.534-7.929,5.493-.908.668-1.473,1.043a9.087,9.087,0,0,1-1.5.764,4.581,4.581,0,0,1-1.751.39H14.25a4.583,4.583,0,0,1-1.751-.39,9.092,9.092,0,0,1-1.5-.764q-.565-.374-1.473-1.043-2.15-1.576-7.913-5.493A8.433,8.433,0,0,1,0,184.437v12.641a2.452,2.452,0,0,0,.748,1.8,2.453,2.453,0,0,0,1.8.748H25.984a2.555,2.555,0,0,0,2.547-2.548V184.437A8.78,8.78,0,0,1,26.939,185.822Z" transform="translate(0 -177.209)"/></g></g></svg>