<svg xmlns="http://www.w3.org/2000/svg" xmlns:xlink="http://www.w3.org/1999/xlink" width="37.846" height="37.848" viewBox="0 0 37.846 37.848">
  <defs>
    <filter id="Ellipse_1722" x="0" y="0" width="37.846" height="37.848" filterUnits="userSpaceOnUse">
      <feOffset dy="3" input="SourceAlpha"/>
      <feGaussianBlur stdDeviation="3" result="blur"/>
      <feFlood flood-opacity="0.161"/>
      <feComposite operator="in" in2="blur"/>
      <feComposite in="SourceGraphic"/>
    </filter>
  </defs>
  <g id="estonian-flag-icon" transform="translate(9 -3.15)">
    <g transform="matrix(1, 0, 0, 1, -9, 3.15)" filter="url(#Ellipse_1722)">
      <ellipse id="Ellipse_1722-2" data-name="Ellipse 1722" cx="9.923" cy="9.924" rx="9.923" ry="9.924" transform="translate(9 6)" fill="#f0f0f0"/>
    </g>
    <g id="estonia" transform="translate(-0.298 9.152)">
      <path id="Path_33198" data-name="Path 33198" d="M0,159.739a9.978,9.978,0,0,0,.622,3.478l9.378.435,9.378-.435a10.036,10.036,0,0,0,0-6.957L10,155.826l-9.378.435A9.979,9.979,0,0,0,0,159.739Z" transform="translate(0 -149.739)"/>
      <path id="Path_33199" data-name="Path 33199" d="M25.3,0a10,10,0,0,0-9.378,6.522H34.679A10,10,0,0,0,25.3,0Z" transform="translate(-15.301)" fill="#0052b4"/>
      <path id="Path_33200" data-name="Path 33200" d="M34.679,345.043H15.923a10,10,0,0,0,18.756,0Z" transform="translate(-15.301 -331.565)" fill="#f0f0f0"/>
    </g>
  </g>
</svg>
