<svg xmlns="http://www.w3.org/2000/svg" width="27.101" height="16.777" viewBox="0 0 27.101 16.777"><defs><style>.a{fill:#fff;}</style></defs><path class="a" d="M13.551,98.725c-5.178,0-9.874,2.942-13.338,7.721a1.149,1.149,0,0,0,0,1.33c3.465,4.784,8.161,7.726,13.338,7.726s9.874-2.942,13.338-7.721a1.149,1.149,0,0,0,0-1.33C23.424,101.667,18.728,98.725,13.551,98.725Zm.371,14.3a5.923,5.923,0,0,1-.743-11.814,5.923,5.923,0,0,1,.743,11.814Zm-.172-2.729a3.189,3.189,0,1,1,2.866-2.976A3.125,3.125,0,0,1,13.75,110.291Z" transform="translate(0 -98.725)"/></svg>