<svg xmlns="http://www.w3.org/2000/svg" width="20.763" height="12.853" viewBox="0 0 20.763 12.853"><defs><style>.a{fill:#1a8cff;}</style></defs><g transform="translate(0 0)"><path class="a" d="M10.381,98.725c-3.967,0-7.564,2.254-10.219,5.915a.88.88,0,0,0,0,1.019c2.655,3.665,6.252,5.919,10.219,5.919s7.564-2.254,10.219-5.915a.88.88,0,0,0,0-1.019C17.946,100.979,14.348,98.725,10.381,98.725Zm.285,10.952a4.538,4.538,0,0,1-.569-9.051,4.538,4.538,0,0,1,.569,9.051Zm-.132-2.091a2.443,2.443,0,1,1,2.2-2.28A2.394,2.394,0,0,1,10.534,107.586Z" transform="translate(0 -98.725)"/></g></svg>