<svg xmlns="http://www.w3.org/2000/svg" xmlns:xlink="http://www.w3.org/1999/xlink" width="37.847" height="37.848" viewBox="0 0 37.847 37.848"><defs><style>.a{fill:#ffd446;}.b{fill:#f0f0f0;}.c{fill:#fa0b54;}.d{fill:#0b34ef;}.e{filter:url(#a);}</style><filter id="a" x="0" y="0" width="37.847" height="37.848" filterUnits="userSpaceOnUse"><feOffset dy="3" input="SourceAlpha"/><feGaussianBlur stdDeviation="3" result="b"/><feFlood flood-opacity="0.161"/><feComposite operator="in" in2="b"/><feComposite in="SourceGraphic"/></filter></defs><g transform="translate(8.715 5.896)"><g class="e" transform="matrix(1, 0, 0, 1, -8.71, -5.9)"><ellipse class="a" cx="9.923" cy="9.924" rx="9.923" ry="9.924" transform="translate(9 6)"/></g><g transform="translate(-0.016 0.104)"><circle class="b" cx="10" cy="10" r="10" transform="translate(0.301)"/><path class="c" d="M351.546,25.273a9.974,9.974,0,0,0-6.5-9.35v18.7A9.974,9.974,0,0,0,351.546,25.273Z" transform="translate(-331.605 -15.303)"/><path class="d" d="M0,25.273a9.974,9.974,0,0,0,6.5,9.35v-18.7A9.974,9.974,0,0,0,0,25.273Z" transform="translate(0 -15.303)"/></g></g></svg>