<svg xmlns="http://www.w3.org/2000/svg" xmlns:xlink="http://www.w3.org/1999/xlink" width="36.849" height="36.864" viewBox="0 0 36.849 36.864"><defs><style>.a{fill:#f0f0f0;}.b{fill:#ffd446;}.c{fill:#fa0b54;}.d{filter:url(#a);}</style><filter id="a" x="0" y="0" width="36.849" height="36.864" filterUnits="userSpaceOnUse"><feOffset dy="3" input="SourceAlpha"/><feGaussianBlur stdDeviation="3" result="b"/><feFlood flood-opacity="0.161"/><feComposite operator="in" in2="b"/><feComposite in="SourceGraphic"/></filter></defs><g transform="translate(8.539 5.539)"><g class="d" transform="matrix(1, 0, 0, 1, -8.54, -5.54)"><ellipse class="a" cx="9.425" cy="9.432" rx="9.425" ry="9.432" transform="translate(9 6)"/></g><g transform="translate(-1 -0.001)"><path class="b" d="M15.923,323.7a10.01,10.01,0,0,0,9.348,6.848,10.01,10.01,0,0,0,9.348-6.848l-9.348-.913Z" transform="translate(-15.27 -310.527)"/><path d="M25.271,0a10.01,10.01,0,0,0-9.348,6.848l9.348.913,9.348-.913A10.01,10.01,0,0,0,25.271,0Z" transform="translate(-15.27)"/><path class="c" d="M.622,166.957a11.032,11.032,0,0,0,0,7.3H19.38a11.032,11.032,0,0,0,0-7.3Z" transform="translate(0 -160.601)"/></g></g></svg>