<svg xmlns="http://www.w3.org/2000/svg" width="20.882" height="20.867" viewBox="0 0 20.882 20.867"><defs><style>.a{fill:#fff;stroke-width:1.5px;}.a,.c{stroke:#002cfa;}.b{fill:#fdfdff;}.c{fill:#002cfa;stroke-width:0.5px;}.d{stroke:none;}.e{fill:none;}</style></defs><g transform="translate(-676 -262.633)"><g class="a" transform="translate(676 267.5)"><rect class="d" width="16" height="16" rx="3"/><rect class="e" x="0.75" y="0.75" width="14.5" height="14.5" rx="2.25"/></g><circle class="b" cx="5.101" cy="5.101" r="5.101" transform="matrix(-0.788, 0.616, -0.616, -0.788, 696.882, 270.673)"/><g transform="translate(679.993 268.383)"><g transform="translate(-0.993 -1)"><g transform="translate(0 0)"><path class="c" d="M4.859,182.839,3.2,184.5a1.764,1.764,0,0,1-2.5-2.5l3.327-3.327a1.764,1.764,0,0,1,2.5,0,.588.588,0,0,0,.832-.832,2.941,2.941,0,0,0-4.159,0l-3.327,3.327a2.941,2.941,0,1,0,4.159,4.159l1.663-1.663a.588.588,0,1,0-.832-.832Z" transform="translate(0.993 -172.079)"/><path class="c" d="M197.927-.139a2.941,2.941,0,0,0-4.159,0l-2,2a.588.588,0,0,0,.832.832l2-2a1.764,1.764,0,1,1,2.5,2.5l-3.66,3.66a1.764,1.764,0,0,1-2.5,0,.588.588,0,1,0-.832.832,2.941,2.941,0,0,0,4.159,0l3.66-3.66A2.941,2.941,0,0,0,197.927-.139Z" transform="translate(-184.671 1)"/></g></g></g></g></svg>