<svg xmlns="http://www.w3.org/2000/svg" xmlns:xlink="http://www.w3.org/1999/xlink" width="37.847" height="37.848" viewBox="0 0 37.847 37.848"><defs><style>.a{fill:#f0f0f0;}.b{fill:#fa0b54;}.c{fill:#84c654;}.d{filter:url(#a);}</style><filter id="a" x="0" y="0" width="37.847" height="37.848" filterUnits="userSpaceOnUse"><feOffset dy="3" input="SourceAlpha"/><feGaussianBlur stdDeviation="3" result="b"/><feFlood flood-opacity="0.161"/><feComposite operator="in" in2="b"/><feComposite in="SourceGraphic"/></filter></defs><g transform="translate(8.539 5.539)"><g class="d" transform="matrix(1, 0, 0, 1, -8.54, -5.54)"><ellipse class="a" cx="9.923" cy="9.924" rx="9.923" ry="9.924" transform="translate(9 6)"/></g><g transform="translate(0 10.359)"><path class="a" d="M.632,145.579a10.191,10.191,0,0,0,0,7.063l9.522.883,9.522-.883a10.191,10.191,0,0,0,0-7.063l-9.522-.883Z" transform="translate(0 -148.957)"/><path class="b" d="M25.446,0a10.157,10.157,0,0,0-9.522,6.622H34.969A10.158,10.158,0,0,0,25.446,0Z" transform="translate(-15.292 -10)"/><path class="c" d="M25.446,351.665a10.157,10.157,0,0,0,9.522-6.622H15.924A10.157,10.157,0,0,0,25.446,351.665Z" transform="translate(-15.292 -341.357)"/></g></g></svg>