<svg xmlns="http://www.w3.org/2000/svg" xmlns:xlink="http://www.w3.org/1999/xlink" width="37.847" height="37.848" viewBox="0 0 37.847 37.848"><defs><style>.a{fill:#f0f0f0;}.b{fill:#fa0b54;}.c{fill:#84c654;}.d{filter:url(#a);}</style><filter id="a" x="0" y="0" width="37.847" height="37.848" filterUnits="userSpaceOnUse"><feOffset dy="3" input="SourceAlpha"/><feGaussianBlur stdDeviation="3" result="b"/><feFlood flood-opacity="0.161"/><feComposite operator="in" in2="b"/><feComposite in="SourceGraphic"/></filter></defs><g transform="translate(8.539 5.539)"><g class="d" transform="matrix(1, 0, 0, 1, -8.54, -5.54)"><ellipse class="a" cx="9.923" cy="9.924" rx="9.923" ry="9.924" transform="translate(9 6)"/></g><ellipse class="a" cx="9.571" cy="10" rx="9.571" ry="10" transform="translate(0.462 0.462)"/><path class="b" d="M351.192,25.265a9.956,9.956,0,0,0-6.149-9.342V34.608A9.956,9.956,0,0,0,351.192,25.265Z" transform="translate(-331.192 -14.91)"/><path class="c" d="M0,25.265a9.956,9.956,0,0,0,6.149,9.342V15.923A9.956,9.956,0,0,0,0,25.265Z" transform="translate(0 -14.91)"/></g></svg>