<svg xmlns="http://www.w3.org/2000/svg" width="23.928" height="20.938" viewBox="0 0 23.928 20.938"><defs><style>.a{fill:#fff;}</style></defs><path class="a" d="M0,1.5v12A1.5,1.5,0,0,0,1.5,15H6V0H1.5A1.5,1.5,0,0,0,0,1.5Z" transform="translate(0 5.938)"/><path class="a" d="M13.67,7.507H9.258A.748.748,0,0,1,8.605,6.4l1.555-2.8A2.243,2.243,0,0,0,8.745.327L7.648.052a.745.745,0,0,0-.736.225L.957,6.9A3.74,3.74,0,0,0,0,9.4v7.825a3.741,3.741,0,0,0,3.734,3.739h7.429a3.743,3.743,0,0,0,3.6-2.75l1.594-7.326A2.762,2.762,0,0,0,13.67,7.507Z" transform="translate(7.5 -0.03)"/></svg>