<svg xmlns="http://www.w3.org/2000/svg" width="28.603" height="26.871" viewBox="0 0 28.603 26.871"><defs><style>.a{fill:#fff;}</style></defs><g transform="translate(0 -0.5)"><path class="a" d="M185.19.5A4.243,4.243,0,0,0,181,4.746a4.19,4.19,0,1,0,8.38,0A4.243,4.243,0,0,0,185.19.5Zm0,0" transform="translate(-170.888)"/><path class="a" d="M304.352,158.2A3.352,3.352,0,1,0,301,154.852,3.355,3.355,0,0,0,304.352,158.2Zm0,0" transform="translate(-284.185 -142.564)"/><path class="a" d="M.838,224.908h.838a1.676,1.676,0,0,0,1.676-1.676V213.176A1.676,1.676,0,0,0,1.676,211.5H.838a.838.838,0,0,0-.838.838V224.07A.838.838,0,0,0,.838,224.908Zm0,0" transform="translate(0 -199.212)"/><path class="a" d="M89.159,241.5v10.056a3.336,3.336,0,0,1-.05.493L94,254.466a4.216,4.216,0,0,0,1.873.442h7.569a3.351,3.351,0,0,0,1.762-.5l6.861-4.851a1.68,1.68,0,0,0,.335-2.348,1.649,1.649,0,0,0-2.346-.335l-5.158,2.909a.837.837,0,0,1-.39.1H94.913a.838.838,0,0,1,0-1.676h7.709a1.676,1.676,0,0,0,0-3.352H98.686L94.714,242.2a4.171,4.171,0,0,0-2.324-.7Zm0,0" transform="translate(-84.131 -227.537)"/></g></svg>