<svg xmlns="http://www.w3.org/2000/svg" xmlns:xlink="http://www.w3.org/1999/xlink" width="106" height="106" viewBox="0 0 106 106"><defs><style>.a{fill:#63c9fe;}.b{fill:#fff;}.c{fill:#64caff;}.c,.d,.e,.f{fill-rule:evenodd;}.d{fill:#e3f3ff;}.e{fill:#cfe8fc;}.f{fill:#ff2467;}.g{fill:#161643;}.h,.i{stroke:none;}.i{fill:#161643;}.j{filter:url(#c);}.k{filter:url(#a);}</style><filter id="a" x="0" y="0" width="106" height="106" filterUnits="userSpaceOnUse"><feOffset dy="3" input="SourceAlpha"/><feGaussianBlur stdDeviation="3" result="b"/><feFlood flood-opacity="0.161"/><feComposite operator="in" in2="b"/><feComposite in="SourceGraphic"/></filter><filter id="c" x="5.09" y="5.09" width="94.966" height="94.966" filterUnits="userSpaceOnUse"><feOffset dy="3" input="SourceAlpha"/><feGaussianBlur stdDeviation="3" result="d"/><feFlood flood-opacity="0.161"/><feComposite operator="in" in2="d"/><feComposite in="SourceGraphic"/></filter></defs><g transform="translate(-70.354 -143.631)"><g transform="translate(79.354 149.631)"><g class="k" transform="matrix(1, 0, 0, 1, -9, -6)"><g class="a" transform="translate(9 6)"><path class="h" d="M 44 87.5 C 38.12731170654297 87.5 32.43056488037109 86.34992980957031 27.06798934936523 84.08175659179688 C 21.88809967041016 81.89085388183594 17.23597717285156 78.75426483154297 13.24085521697998 74.75914764404297 C 9.245733261108398 70.76402282714844 6.10914421081543 66.11190032958984 3.918244361877441 60.93201065063477 C 1.650066614151001 55.56943511962891 0.5 49.87268829345703 0.5 44 C 0.5 38.12731170654297 1.650066614151001 32.43056488037109 3.918244361877441 27.06798934936523 C 6.10914421081543 21.88809967041016 9.245733261108398 17.23597717285156 13.24085521697998 13.24085521697998 C 17.23597717285156 9.245733261108398 21.88809967041016 6.10914421081543 27.06798934936523 3.918244361877441 C 32.43056488037109 1.650066614151001 38.12731170654297 0.5 44 0.5 C 49.87268829345703 0.5 55.56943511962891 1.650066614151001 60.93201065063477 3.918244361877441 C 66.11190032958984 6.10914421081543 70.76402282714844 9.245733261108398 74.75914764404297 13.24085521697998 C 78.75426483154297 17.23597717285156 81.89085388183594 21.88809967041016 84.08175659179688 27.06798934936523 C 86.34992980957031 32.43056488037109 87.5 38.12731170654297 87.5 44 C 87.5 49.87268829345703 86.34992980957031 55.56943511962891 84.08175659179688 60.93201065063477 C 81.89085388183594 66.11190032958984 78.75426483154297 70.76402282714844 74.75914764404297 74.75914764404297 C 70.76402282714844 78.75426483154297 66.11190032958984 81.89085388183594 60.93201065063477 84.08175659179688 C 55.56943511962891 86.34992980957031 49.87268829345703 87.5 44 87.5 Z"/><path class="i" d="M 44 1 C 38.19459915161133 1 32.56337738037109 2.13677978515625 27.26276397705078 4.378738403320312 C 22.14247131347656 6.544448852539062 17.54377746582031 9.645034790039062 13.59441375732422 13.59441375732422 C 9.645034790039062 17.54377746582031 6.544448852539062 22.14247131347656 4.378738403320312 27.26276397705078 C 2.13677978515625 32.56337738037109 1 38.19459915161133 1 44 C 1 49.80541229248047 2.13677978515625 55.43662261962891 4.378738403320312 60.73723602294922 C 6.544448852539062 65.85752868652344 9.645034790039062 70.45622253417969 13.59441375732422 74.40560150146484 C 17.54377746582031 78.35496520996094 22.14247131347656 81.45556640625 27.26276397705078 83.62126159667969 C 32.56337738037109 85.86322021484375 38.19459915161133 87 44 87 C 49.80541229248047 87 55.43662261962891 85.86322021484375 60.73723602294922 83.62126159667969 C 65.85752868652344 81.45556640625 70.45622253417969 78.35496520996094 74.40560150146484 74.40560150146484 C 78.35496520996094 70.45622253417969 81.45556640625 65.85752868652344 83.62126159667969 60.73723602294922 C 85.86322021484375 55.43662261962891 87 49.80541229248047 87 44 C 87 38.19459915161133 85.86322021484375 32.56337738037109 83.62126159667969 27.26276397705078 C 81.45556640625 22.14247131347656 78.35496520996094 17.54377746582031 74.40560150146484 13.59441375732422 C 70.45622253417969 9.645034790039062 65.85752868652344 6.544448852539062 60.73723602294922 4.378738403320312 C 55.43662261962891 2.13677978515625 49.80541229248047 1 44 1 M 44 0 C 68.300537109375 0 88 19.69947052001953 88 44 C 88 68.300537109375 68.300537109375 88 44 88 C 19.69947052001953 88 0 68.300537109375 0 44 C 0 19.69947052001953 19.69947052001953 0 44 0 Z"/></g></g><g class="j" transform="matrix(1, 0, 0, 1, -9, -6)"><g class="b" transform="translate(14.09 11.09)"><path class="h" d="M 38.4830322265625 76.466064453125 C 33.35513305664062 76.466064453125 28.38089179992676 75.46187591552734 23.69847297668457 73.48136901855469 C 19.1755428314209 71.56832885742188 15.11343193054199 68.82954406738281 11.62497234344482 65.34109497070312 C 8.13652229309082 61.85263061523438 5.397732257843018 57.79052352905273 3.484692335128784 53.26759338378906 C 1.504192233085632 48.58517074584961 0.5000022053718567 43.61093139648438 0.5000022053718567 38.4830322265625 C 0.5000022053718567 33.35513305664062 1.504192233085632 28.38089179992676 3.484692335128784 23.69847297668457 C 5.397732257843018 19.1755428314209 8.13652229309082 15.11343193054199 11.62497234344482 11.62497234344482 C 15.11343193054199 8.13652229309082 19.1755428314209 5.397732257843018 23.69847297668457 3.484692335128784 C 28.38089179992676 1.504192233085632 33.35513305664062 0.5000022053718567 38.4830322265625 0.5000022053718567 C 43.61093139648438 0.5000022053718567 48.58517074584961 1.504192233085632 53.26759338378906 3.484692335128784 C 57.79052352905273 5.397732257843018 61.85263061523438 8.13652229309082 65.34109497070312 11.62497234344482 C 68.82954406738281 15.11343193054199 71.56832885742188 19.1755428314209 73.48136901855469 23.69847297668457 C 75.46187591552734 28.38089179992676 76.466064453125 33.35513305664062 76.466064453125 38.4830322265625 C 76.466064453125 43.61093139648438 75.46187591552734 48.58517074584961 73.48136901855469 53.26759338378906 C 71.56832885742188 57.79052352905273 68.82954406738281 61.85263061523438 65.34109497070312 65.34109497070312 C 61.85263061523438 68.82954406738281 57.79052352905273 71.56832885742188 53.26759338378906 73.48136901855469 C 48.58517074584961 75.46187591552734 43.61093139648438 76.466064453125 38.4830322265625 76.466064453125 Z"/><path class="i" d="M 38.4830322265625 1 C 33.42240905761719 1 28.51369857788086 1.990913391113281 23.89325332641602 3.9451904296875 C 19.4299201965332 5.833023071289062 15.42122268676758 8.535835266113281 11.97852325439453 11.97852325439453 C 8.535835266113281 15.42122268676758 5.833023071289062 19.4299201965332 3.9451904296875 23.89325332641602 C 1.990913391113281 28.51369857788086 1 33.42240905761719 1 38.4830322265625 C 1 43.54365539550781 1.990913391113281 48.45236587524414 3.9451904296875 53.07280731201172 C 5.833023071289062 57.5361442565918 8.535835266113281 61.54484558105469 11.97852325439453 64.98754119873047 C 15.42122268676758 68.43022918701172 19.4299201965332 71.13304138183594 23.89325332641602 73.0208740234375 C 28.51369857788086 74.97515106201172 33.42240905761719 75.966064453125 38.4830322265625 75.966064453125 C 43.54365539550781 75.966064453125 48.45236587524414 74.97515106201172 53.07280731201172 73.0208740234375 C 57.5361442565918 71.13304138183594 61.54484558105469 68.43022918701172 64.98754119873047 64.98754119873047 C 68.43022918701172 61.54484558105469 71.13304138183594 57.5361442565918 73.0208740234375 53.07280731201172 C 74.97515106201172 48.45236587524414 75.966064453125 43.54365539550781 75.966064453125 38.4830322265625 C 75.966064453125 33.42240905761719 74.97515106201172 28.51369857788086 73.0208740234375 23.89325332641602 C 71.13304138183594 19.4299201965332 68.43022918701172 15.42122268676758 64.98754119873047 11.97852325439453 C 61.54484558105469 8.535835266113281 57.5361442565918 5.833023071289062 53.07280731201172 3.9451904296875 C 48.45236587524414 1.990913391113281 43.54365539550781 1 38.4830322265625 1 M 38.4830322265625 0 C 59.73662185668945 0 76.966064453125 17.22944259643555 76.966064453125 38.4830322265625 C 76.966064453125 59.73662185668945 59.73662185668945 76.966064453125 38.4830322265625 76.966064453125 C 17.22944259643555 76.966064453125 0 59.73662185668945 0 38.4830322265625 C 0 17.22944259643555 17.22944259643555 0 38.4830322265625 0 Z"/></g></g><g transform="translate(0.651 26.317)"><g transform="translate(26.229 6.829)"><path class="c" d="M121.157,71.215v1.406a2.476,2.476,0,0,0,2.656,2.222h28.513a2.478,2.478,0,0,0,2.656-2.222V71.215a2.476,2.476,0,0,0-2.656-2.222H123.813A2.474,2.474,0,0,0,121.157,71.215Z" transform="translate(-121.157 -68.993)"/></g><g transform="translate(32.349 1.99)"><path class="d" d="M180.2,11.528c-3.344-4.119-9.638,1.066-6.379,4.315h9.883Z" transform="translate(-172.915 -10.004)"/></g><g transform="translate(43.142 1.99)"><path class="d" d="M267.7,11.528l-3.5,4.315h9.88C277.337,12.594,271.045,7.409,267.7,11.528Z" transform="translate(-264.197 -10.004)"/></g><g transform="translate(29.371 12.679)"><path class="e" d="M166.4,137.371l-4.9,3.953-4.9-3.953a2.731,2.731,0,0,1,0-4.242,3.557,3.557,0,0,1,4.35.079c.563.44.53.44,1.09,0a3.562,3.562,0,0,1,4.353-.079A2.735,2.735,0,0,1,166.4,137.371Zm-18.667-9.279V143.5a2.682,2.682,0,0,0,2.877,2.407H172.4a2.681,2.681,0,0,0,2.874-2.407V128.092Z" transform="translate(-147.734 -128.092)"/></g><g transform="translate(37.234 17.01)"><path class="f" d="M215.246,172.549a2.731,2.731,0,0,0,0,4.242l4.9,3.953,4.9-3.953a2.735,2.735,0,0,0,0-4.242,3.562,3.562,0,0,0-4.353.079c-.56.44-.527.44-1.09,0A3.557,3.557,0,0,0,215.246,172.549Z" transform="translate(-214.234 -171.843)"/></g><g transform="translate(36.053 16.028)"><path class="g" d="M211.336,172.795a1.31,1.31,0,0,1-.821-.277l-4.9-3.953-.029-.024a3.612,3.612,0,0,1,0-5.619,4.914,4.914,0,0,1,5.745-.147,4.922,4.922,0,0,1,5.747.147,3.616,3.616,0,0,1,0,5.618l-.03.025-4.9,3.953A1.31,1.31,0,0,1,211.336,172.795Zm-4.059-5.643,4.059,3.277,4.058-3.277a1.866,1.866,0,0,0-.013-2.856,2.239,2.239,0,0,0-2.7.115l-.044.035a1.8,1.8,0,0,1-2.614,0l-.047-.037a2.233,2.233,0,0,0-2.692-.115A1.842,1.842,0,0,0,207.277,167.152Z" transform="translate(-204.248 -161.921)"/></g><g transform="translate(15.435 20.471)"><path class="g" d="M37.444,208.793h-6.4a1.006,1.006,0,1,1,0-1.98h6.4a1.006,1.006,0,1,1,0,1.98Z" transform="translate(-29.866 -206.813)"/></g><g transform="translate(16.287 13.894)"><path class="g" d="M43.8,144.617a1.371,1.371,0,0,1-.518-.1l-5.547-2.267a.924.924,0,0,1-.544-1.324,1.3,1.3,0,0,1,1.581-.455l5.547,2.267a.924.924,0,0,1,.544,1.324A1.223,1.223,0,0,1,43.8,144.617Z" transform="translate(-37.068 -140.37)"/></g><g transform="translate(16.287 24.781)"><path class="g" d="M38.252,254.6a1.222,1.222,0,0,1-1.063-.556.924.924,0,0,1,.544-1.324l5.547-2.267a1.3,1.3,0,0,1,1.581.455.924.924,0,0,1-.544,1.324L38.769,254.5A1.371,1.371,0,0,1,38.252,254.6Z" transform="translate(-37.068 -250.349)"/></g><g transform="translate(62.085 20.471)"><path class="g" d="M431.988,208.793h-6.4a1.006,1.006,0,1,1,0-1.98h6.4a1.006,1.006,0,1,1,0,1.98Z" transform="translate(-424.41 -206.813)"/></g><g transform="translate(62.084 13.894)"><path class="g" d="M425.592,144.617a1.222,1.222,0,0,1-1.063-.556.924.924,0,0,1,.543-1.324l5.544-2.267a1.3,1.3,0,0,1,1.581.455.924.924,0,0,1-.543,1.324l-5.544,2.267A1.371,1.371,0,0,1,425.592,144.617Z" transform="translate(-424.408 -140.37)"/></g><g transform="translate(62.084 24.781)"><path class="g" d="M431.133,254.6a1.37,1.37,0,0,1-.518-.1l-5.544-2.267a.924.924,0,0,1-.543-1.324,1.3,1.3,0,0,1,1.581-.455l5.544,2.267a.924.924,0,0,1,.543,1.324A1.223,1.223,0,0,1,431.133,254.6Z" transform="translate(-424.407 -250.349)"/></g><g transform="translate(25.047 -0.001)"><path class="g" d="M143.508,5.839h-2.449a3.66,3.66,0,0,0-.237-2.748A5.75,5.75,0,0,0,136.259.021a5.058,5.058,0,0,0-4.484,1.936l-2.524,3.11-2.526-3.111A5.053,5.053,0,0,0,122.244.021a5.752,5.752,0,0,0-4.565,3.069,3.659,3.659,0,0,0-.237,2.748H115c-2.117,0-3.838,1.441-3.838,3.212v1.406a3.436,3.436,0,0,0,3.142,3.158V28.091c0,1.873,1.821,3.4,4.06,3.4h21.785c2.237,0,4.057-1.524,4.057-3.4V13.615a3.436,3.436,0,0,0,3.146-3.159V9.051c0-1.771-1.722-3.212-3.838-3.212ZM133.731,3.07a2.557,2.557,0,0,1,2.275-1.08,3.4,3.4,0,0,1,2.623,1.839,1.957,1.957,0,0,1-.107,2.01h-7.037Zm-13.858.76A3.4,3.4,0,0,1,122.5,1.99a2.553,2.553,0,0,1,2.272,1.08l2.249,2.769h-7.04A1.956,1.956,0,0,1,119.873,3.83Zm25.11,6.627a1.371,1.371,0,0,1-1.474,1.232H129.252a1.1,1.1,0,0,0-1.182.99,1.1,1.1,0,0,0,1.182.99h12.585V28.091a1.575,1.575,0,0,1-1.692,1.418H118.359a1.577,1.577,0,0,1-1.7-1.418V13.669h1.789a1.1,1.1,0,0,0,1.182-.99,1.1,1.1,0,0,0-1.182-.99H115a1.371,1.371,0,0,1-1.474-1.232V9.051A1.371,1.371,0,0,1,115,7.819h28.513a1.371,1.371,0,0,1,1.474,1.232v1.406Z" transform="translate(-111.157 0.001)"/><path class="g" d="M208.963,118.092h0a1.006,1.006,0,1,0,1.186.99A1.1,1.1,0,0,0,208.96,118.092Z" transform="translate(-196.355 -106.402)"/></g></g></g></g></svg>