<svg xmlns="http://www.w3.org/2000/svg" width="12.81" height="20.64" viewBox="0 0 12.81 20.64"><defs><style>.a{fill:#1a8cff;}</style></defs><path class="a" d="M-1.5-6.12l3.27-.96a1.812,1.812,0,0,1-.54-1.26c0-2.52,5.01-2.85,5.01-7.23,0-2.79-2.37-4.74-6.24-4.74A8.582,8.582,0,0,0-6.57-17.4l2.43,2.73A4.8,4.8,0,0,1-.45-16.53c1.65,0,2.34.78,2.34,1.71,0,2.07-4.38,2.49-4.38,6.06A3.831,3.831,0,0,0-1.5-6.12ZM-.06.33A2.459,2.459,0,0,0,2.37-2.1,2.459,2.459,0,0,0-.06-4.53,2.459,2.459,0,0,0-2.49-2.1,2.459,2.459,0,0,0-.06.33Z" transform="translate(6.57 20.31)"/></svg>