<svg xmlns="http://www.w3.org/2000/svg" xmlns:xlink="http://www.w3.org/1999/xlink" width="37.847" height="37.848" viewBox="0 0 37.847 37.848"><defs><style>.a{fill:#f0f0f0;}.b{fill:#0b34ef;}.c{fill:#fa0b54;}.d{filter:url(#a);}</style><filter id="a" x="0" y="0" width="37.847" height="37.848" filterUnits="userSpaceOnUse"><feOffset dy="3" input="SourceAlpha"/><feGaussianBlur stdDeviation="3" result="b"/><feFlood flood-opacity="0.161"/><feComposite operator="in" in2="b"/><feComposite in="SourceGraphic"/></filter></defs><g transform="translate(8.539 5.539)"><g class="d" transform="matrix(1, 0, 0, 1, -8.54, -5.54)"><ellipse class="a" cx="9.923" cy="9.924" rx="9.923" ry="9.924" transform="translate(9 6)"/></g><g transform="translate(-1 -0.004)"><circle class="a" cx="10" cy="10" r="10" transform="translate(0.462 -0.533)"/><path class="b" d="M20.169,174.2a10.446,10.446,0,0,0,0-7.24H.647a10.446,10.446,0,0,0,0,7.24l9.761.905Z" transform="translate(0 -160.167)"/><path class="c" d="M25.684,351.831a10.412,10.412,0,0,0,9.761-6.788H15.923A10.412,10.412,0,0,0,25.684,351.831Z" transform="translate(-15.276 -331.013)"/></g></g></svg>