<svg xmlns="http://www.w3.org/2000/svg" width="20" height="20" viewBox="0 0 20 20"><defs><style>.a{fill:#fff;}.b{fill:none;}.c{fill:#1a8cff;stroke:#1a8cff;stroke-width:0.5px;}</style></defs><rect class="a" width="20" height="20" rx="3"/><g transform="translate(3 3)"><rect class="b" width="14" height="14"/><path class="c" d="M13.938,12.71,11.045,9.818a6,6,0,0,0,1.227-3.682A6.1,6.1,0,0,0,6.136,0,6.1,6.1,0,0,0,0,6.136a6.1,6.1,0,0,0,6.136,6.136,6,6,0,0,0,3.682-1.227l2.893,2.893ZM1.753,6.136A4.34,4.34,0,0,1,6.136,1.753a4.34,4.34,0,0,1,4.383,4.383,4.34,4.34,0,0,1-4.383,4.383A4.34,4.34,0,0,1,1.753,6.136Z"/></g></svg>