<svg xmlns="http://www.w3.org/2000/svg" width="26.114" height="26.113" viewBox="0 0 26.114 26.113"><defs><style>.a{fill:#fff;}</style></defs><g transform="translate(-0.001 -0.016)"><path class="a" d="M38.957,5.3a3.826,3.826,0,1,0-.29-1.523A11.476,11.476,0,0,0,31.016,14.6h1.53a10.007,10.007,0,0,1,6.411-9.3Z" transform="translate(-29.434)"/><path class="a" d="M13.058,324.5a9.9,9.9,0,0,1-6.266-2.222,3.828,3.828,0,1,0-1.212.981,11.485,11.485,0,0,0,12.4,1.667l-.657-1.382A9.855,9.855,0,0,1,13.058,324.5Z" transform="translate(0 -299.897)"/><path class="a" d="M367.853,112.9a11.486,11.486,0,0,0-4.72-11.543l-.875,1.255a9.953,9.953,0,0,1,4.138,9.74,3.824,3.824,0,1,0,1.458.548Z" transform="translate(-343.518 -96.171)"/></g></svg>