<svg xmlns="http://www.w3.org/2000/svg" width="20" height="20" viewBox="0 0 20 20"><defs><style>.a{fill:#002cfa;}.b{fill:none;}</style></defs><g transform="translate(-1617 -2529.633)"><g transform="translate(1618.784 2530.9)"><g transform="translate(0)"><path class="a" d="M29.046,11.106a3.008,3.008,0,0,0-2.421,1.223L21.9,9.914a3.01,3.01,0,0,0-.1-1.978L26.754,4.96a3,3,0,1,0-.515-.861L21.274,7.082a3.01,3.01,0,1,0,.185,3.734l4.712,2.408a3.011,3.011,0,1,0,2.875-2.118Zm0-10.1a2.007,2.007,0,1,1-2.007,2.007A2.009,2.009,0,0,1,29.046,1ZM19.011,11.072a2.007,2.007,0,1,1,2.007-2.007A2.009,2.009,0,0,1,19.011,11.072Zm10.035,5.051a2.007,2.007,0,1,1,2.007-2.007A2.009,2.009,0,0,1,29.046,16.123Z" transform="translate(-16)"/></g></g><rect class="b" width="20" height="20" transform="translate(1617 2529.633)"/></g></svg>