<svg xmlns="http://www.w3.org/2000/svg" xmlns:xlink="http://www.w3.org/1999/xlink" width="119.848" height="96.815" viewBox="0 0 119.848 96.815"><defs><style>.a{fill:#bce0fd;}.b{fill:url(#a);}.c{fill:#fff;}.d{fill:#0081ec;}.e{fill:#f7ded0;}.f{fill:#ffddcf;}.g{fill:#ffcbbe;}</style><linearGradient id="a" x1="-0.501" y1="0.5" x2="1.355" y2="0.5" gradientUnits="objectBoundingBox"><stop offset="0" stop-color="#ca6cec"/><stop offset="0.198" stop-color="#cc6bea"/><stop offset="0.527" stop-color="#f68be3"/><stop offset="0.945" stop-color="#ff9fdb"/><stop offset="1" stop-color="#eea2eb"/></linearGradient></defs><g transform="translate(0 12.722)"><path class="a" d="M0,41.849A41.849,41.849,0,1,0,41.849,0,41.854,41.854,0,0,0,0,41.849Z"/><g transform="translate(-145.658 -193.301)"><g transform="translate(178.853 180.579)"><path class="b" d="M70.7,15.875l5.174,1.5V37.4A49.078,49.078,0,0,1,44.3,83.248h0A49.078,49.078,0,0,1,12.725,37.4V17.372l5.174-1.5A94.9,94.9,0,0,1,70.7,15.875Z" transform="translate(-12.725 0.428)"/><path class="c" d="M60.546,18.225l3.984,1.153V34.805A37.808,37.808,0,0,1,40.206,70.127h0A37.808,37.808,0,0,1,15.882,34.805V19.378l3.984-1.153A73.143,73.143,0,0,1,60.546,18.225Z" transform="translate(-8.632 4.591)"/><path class="c" d="M90.3,11.55l-.009.009-50,58.126L20.617,38.253,40.291,49,90.3,11.55m0-4.889a4.873,4.873,0,0,0-2.93.976L39.878,43.2,22.962,33.961a4.886,4.886,0,0,0-5.9.937c-1.527,1.619-1.357,3.835-.179,5.72L36.146,72.28a4.894,4.894,0,0,0,3.775,2.28c.124.011.248.016.37.016A4.9,4.9,0,0,0,44,72.875L93.941,14.813A4.89,4.89,0,0,0,90.3,6.661Zm0,9.781Z" transform="translate(-8.536 -6.661)"/><path class="d" d="M17.986,35.492,37.66,66.924l50-58.125.008-.008L37.66,46.24Z" transform="translate(-5.904 -3.9)"/></g><path class="e" d="M28.706,232.138a17.4,17.4,0,0,0-12.485,5.114L0,253.221l19.072,17.108L24.1,265.27H54.6a12.4,12.4,0,0,0,8.236-3.13l20.655-23.171a2.638,2.638,0,0,0-.206-4.129c-2.634-1.787-5.741-1.281-8.491.307s-18.541,15.088-18.541,15.088l-15.592,0a1.7,1.7,0,0,1-1.506-1.533,1.538,1.538,0,0,1,1.506-1.506h9.559c3.328,0,7.055-2.168,7.055-6.026,0-4.1-3.727-6.026-7.055-6.026-5.774,0-6.9.023-6.9.023a13.979,13.979,0,0,1-6.466-1.107A17.943,17.943,0,0,0,28.706,232.138Z" transform="translate(164.264 7.04)"/><g transform="translate(159.096 239.178)"><path class="f" d="M29.628,232.138a17.4,17.4,0,0,0-12.485,5.114L-4.247,258.506a52.63,52.63,0,0,0,11.179,7.713,55.075,55.075,0,0,0,13.135,4.136l4.952-5.085h30.5a12.4,12.4,0,0,0,8.236-3.13l20.655-23.171a2.638,2.638,0,0,0-.206-4.129c-2.634-1.787-5.741-1.281-8.491.307s-18.541,15.088-18.541,15.088l-15.592,0A1.7,1.7,0,0,1,40.08,248.7a1.538,1.538,0,0,1,1.506-1.506h9.559c3.328,0,7.055-2.168,7.055-6.026,0-4.1-3.727-6.026-7.055-6.026-5.774,0-6.9.023-6.9.023a13.979,13.979,0,0,1-6.466-1.107A17.943,17.943,0,0,0,29.628,232.138Z" transform="translate(4.247 -232.138)"/><g transform="translate(17.981 2.702)"><path class="g" d="M191.129,289.195a1.7,1.7,0,0,1-1.506-1.533,1.538,1.538,0,0,1,1.506-1.506h9.51c3.328,0,7.055-2.168,7.055-6.026H189.831a4.528,4.528,0,0,0-.027,9.057Z" transform="translate(-163.228 -273.798)"/><path class="g" d="M143.066,246.493,120.34,269.219a5.738,5.738,0,0,1-4.057,1.68H86.03a11.188,11.188,0,0,0-7.91,3.276l-5.528,6.317,6.09,1.5,5.194-5.076h30.5a12.4,12.4,0,0,0,8.164-3.077l20.727-23.224A2.638,2.638,0,0,0,143.066,246.493Z" transform="translate(-72.592 -246.493)"/></g></g></g></g></svg>