<svg xmlns="http://www.w3.org/2000/svg" width="59.102" height="65.504" viewBox="0 0 59.102 65.504"><defs><style>.a{fill:#1a8cff;}</style></defs><g transform="translate(22632.648 24131.637)"><path class="a" d="M290.674,371.155a2.1,2.1,0,0,1-2-2.758,5.746,5.746,0,0,0,.268-1.436c-1.343,2.024-3.049,3.619-5.051,4.058-1.393.306-3.492.188-5.573-2.111-3.471-3.835-1.1-8.136.624-11.277,2.038-3.7,1.98-4.291.879-5.013-.847-.556-2.3-.2-3.361.188-6.712,2.474-15.876,12.642-16.645,15.279a2.1,2.1,0,1,1-4.038-1.178c1.253-4.3,11.625-15.246,19.229-18.048,2.87-1.058,5.267-.976,7.123.242a5.33,5.33,0,0,1,2.573,5.605,16.387,16.387,0,0,1-2.075,4.952c-2.388,4.34-2.182,5.331-1.191,6.427.881.973,1.387.862,1.552.826,1.263-.277,3.286-2.852,4.485-6.679a2.1,2.1,0,0,1,3.81-.454c.168.28,2.891,9.956.279,11.178A2.1,2.1,0,0,1,290.674,371.155Z" transform="translate(-22888.344 -24479.762)"/><g transform="translate(-22614.502 -24115.277)"><g transform="translate(0)"><path class="a" d="M81.341,23.529l-9.185-6.123a6.192,6.192,0,0,0-6.763,0l-.2.135V4.1A4.1,4.1,0,1,0,57,4.1V31.5a1.024,1.024,0,0,1-1.482.916l-6.575-3.288a4.337,4.337,0,0,0-6.277,3.879v.782a1.024,1.024,0,0,0,.326.749L54.81,45.565a13.257,13.257,0,0,0,9.081,3.58h9.491A10.251,10.251,0,0,0,83.62,38.906V27.788A5.108,5.108,0,0,0,81.341,23.529Z" transform="translate(-42.666)"/></g></g></g></svg>