<svg xmlns="http://www.w3.org/2000/svg" width="23.172" height="23.172" viewBox="0 0 23.172 23.172"><defs><style>.a{fill:#fff;}</style></defs><path class="a" d="M251.145,0l-.784.784a5.793,5.793,0,0,0-1.085,1.506l-.828,1.656,7.441,7.441,1.656-.828a5.8,5.8,0,0,0,1.505-1.085l.784-.784L251.145,0Z" transform="translate(-236.662 0)"/><path class="a" d="M9.65,124.473a7.845,7.845,0,0,1-5.305,1.337L0,141.74,15.931,137.4a7.845,7.845,0,0,1,1.337-5.305ZM7.965,135.947a2.172,2.172,0,1,1,2.172-2.172,2.172,2.172,0,0,1-2.172,2.172Z" transform="translate(0 -118.568)"/></svg>