<svg xmlns="http://www.w3.org/2000/svg" xmlns:xlink="http://www.w3.org/1999/xlink" width="37.847" height="37.848" viewBox="0 0 37.847 37.848"><defs><style>.a{fill:#f0f0f0;}.b{fill:#ffd446;}.c{fill:#fa0b54;}.d{filter:url(#a);}</style><filter id="a" x="0" y="0" width="37.847" height="37.848" filterUnits="userSpaceOnUse"><feOffset dy="3" input="SourceAlpha"/><feGaussianBlur stdDeviation="3" result="b"/><feFlood flood-opacity="0.161"/><feComposite operator="in" in2="b"/><feComposite in="SourceGraphic"/></filter></defs><g transform="translate(8.896 5.896)"><g class="d" transform="matrix(1, 0, 0, 1, -8.9, -5.9)"><ellipse class="a" cx="9.923" cy="9.924" rx="9.923" ry="9.924" transform="translate(9 6)"/></g><path class="b" d="M0,149.066a10.076,10.076,0,0,0,.622,3.5l9.378.874,9.378-.874a10.137,10.137,0,0,0,0-6.992L10,144.7l-9.378.874A10.076,10.076,0,0,0,0,149.066Z" transform="translate(0 -139.066)"/><g transform="translate(0.625)"><path class="c" d="M34.673,6.556a9.981,9.981,0,0,0-18.75,0Z" transform="translate(-15.923)"/><path class="c" d="M15.923,345.043a9.981,9.981,0,0,0,18.75,0Z" transform="translate(-15.923 -331.599)"/></g></g></svg>