<svg xmlns="http://www.w3.org/2000/svg" width="33.226" height="33.226" viewBox="0 0 33.226 33.226"><defs><style>.a{fill:#fff;}</style></defs><g transform="translate(0)"><path class="a" d="M28.358,4.869A16.612,16.612,0,0,0,2.209,24.894L.045,31.9A.974.974,0,0,0,1.28,33.113l6.8-2.245a16.612,16.612,0,0,0,20.282-26ZM8.826,11.814a.973.973,0,1,1-.973.973A.973.973,0,0,1,8.826,11.814Zm11.679,9.668H8.826a.973.973,0,1,1,0-1.947H20.505a.973.973,0,1,1,0,1.947Zm3.893,0a.973.973,0,1,1,.973-.973A.973.973,0,0,1,24.4,21.482Zm0-3.893H8.826a.973.973,0,0,1,0-1.947H24.4a.973.973,0,1,1,0,1.947Zm0-3.893H12.719a.973.973,0,0,1,0-1.947H24.4a.973.973,0,0,1,0,1.947Z" transform="translate(0 0)"/></g></svg>