<svg xmlns="http://www.w3.org/2000/svg" width="99.994" height="83.865" viewBox="0 0 99.994 83.865"><defs><style>.a{fill:#bce0fd;}.b{fill:#0063f6;}.c{fill:#1a8cff;}.d{fill:#4ba5ff;}.e{fill:#00429a;}.f{fill:#fc6fd0;}.g{fill:#e8f5ff;}.h{fill:#013272;}.i{fill:#ffddcf;}</style></defs><path class="a" d="M0,41.849A41.849,41.849,0,1,0,41.849,0,41.854,41.854,0,0,0,0,41.849Z"/><g transform="translate(7.945 20.16)"><g transform="translate(0 -3)"><path class="b" d="M4.173,0A4.172,4.172,0,0,0,0,4.173v7.313H8.346V4.173A4.173,4.173,0,0,0,4.173,0Zm0,0"/><path class="c" d="M80.289,0H33.664a4.173,4.173,0,0,1,4.173,4.173l.041,53.7a43.373,43.373,0,0,0,23.506,8.789,40.487,40.487,0,0,0,23.066-5.828l.011-56.661A4.174,4.174,0,0,0,80.289,0Zm0,0" transform="translate(-29.492 0)"/><path class="d" d="M80.289,0H33.664a4.173,4.173,0,0,1,3.814,2.479h42.81a4.174,4.174,0,0,1,4.173,4.173V4.173A4.174,4.174,0,0,0,80.289,0Zm0,0" transform="translate(-29.492 0)"/><g transform="translate(15.719 5.915)"><path class="e" d="M192.608,187.26h-24.64a1.14,1.14,0,1,1,0-2.28h24.639a1.14,1.14,0,1,1,0,2.28Zm0,0" transform="translate(-161.871 -167.969)"/><path class="e" d="M192.608,235.463h-24.64a1.14,1.14,0,1,1,0-2.28h24.639a1.14,1.14,0,1,1,0,2.28Zm0,0" transform="translate(-161.871 -210.198)"/><path class="e" d="M192.608,283.663h-24.64a1.14,1.14,0,1,1,0-2.28h24.639a1.14,1.14,0,0,1,0,2.28Zm0,0" transform="translate(-161.871 -252.423)"/><path class="e" d="M192.608,331.866h-24.64a1.14,1.14,0,1,1,0-2.28h24.639a1.14,1.14,0,1,1,0,2.28Zm0,0" transform="translate(-161.871 -294.652)"/><path class="e" d="M129.109,186.117a1.14,1.14,0,1,1-1.14-1.14A1.14,1.14,0,0,1,129.109,186.117Zm0,0" transform="translate(-126.828 -167.965)"/><path class="e" d="M129.109,234.32a1.14,1.14,0,1,1-1.14-1.14A1.141,1.141,0,0,1,129.109,234.32Zm0,0" transform="translate(-126.828 -210.194)"/><path class="e" d="M129.109,282.523a1.14,1.14,0,1,1-1.14-1.14A1.14,1.14,0,0,1,129.109,282.523Zm0,0" transform="translate(-126.828 -252.423)"/><path class="e" d="M129.109,330.726a1.14,1.14,0,1,1-1.14-1.14A1.141,1.141,0,0,1,129.109,330.726Zm0,0" transform="translate(-126.828 -294.652)"/><path class="e" d="M144.529,60.582V51.8h-2.281a1.073,1.073,0,1,1,0-2.146h6.823a1.073,1.073,0,1,1,0,2.146h-2.281v8.784a1.073,1.073,0,0,1-1.073,1.073H145.6A1.073,1.073,0,0,1,144.529,60.582Zm0,0" transform="translate(-141.175 -50.383)"/><path class="e" d="M224,57.531l.591.708a1,1,0,1,1-1.542,1.278l-.257-.311a4.164,4.164,0,0,1-2.866,1.058,4.868,4.868,0,0,1-1.752-.311,4.264,4.264,0,0,1-1.416-.872,4.054,4.054,0,0,1-.948-1.333,4.1,4.1,0,0,1-.344-1.693,3.929,3.929,0,0,1,.5-1.912,4.578,4.578,0,0,1,1.384-1.542,4.54,4.54,0,0,1-.52-.906,2.465,2.465,0,0,1-.2-.989,3.02,3.02,0,0,1,.227-1.165,2.79,2.79,0,0,1,.645-.947,3.175,3.175,0,0,1,.989-.637,3.3,3.3,0,0,1,1.258-.235,3.08,3.08,0,0,1,1.936.562,3.273,3.273,0,0,1,.37.331,1,1,0,0,1-.245,1.573l-.105.056a.894.894,0,0,1-1.069-.211,1.243,1.243,0,0,0-.854-.382,1.045,1.045,0,0,0-.771.285.982.982,0,0,0-.285.722,1.061,1.061,0,0,0,.118.494,2.883,2.883,0,0,0,.319.477l3.6,4.393.494-.8a.935.935,0,1,1,1.586.99Zm-3.973.754a2.2,2.2,0,0,0,1.542-.554l-3.034-3.672a2.384,2.384,0,0,0-.72.864,2.35,2.35,0,0,0-.253,1.048,2.231,2.231,0,0,0,.2.963,2.2,2.2,0,0,0,.544.73,2.441,2.441,0,0,0,.789.461A2.718,2.718,0,0,0,220.03,58.285Zm0,0" transform="translate(-205.104 -48.723)"/><path class="e" d="M303.962,57.284a1.113,1.113,0,0,1-.079,1.678,5.81,5.81,0,0,1-1.19.739,6.686,6.686,0,0,1-5.188.075,6.077,6.077,0,0,1-3.311-3.311,6.361,6.361,0,0,1,1.325-6.932A6.174,6.174,0,0,1,297.5,48.21a6.3,6.3,0,0,1,2.49-.487,6.032,6.032,0,0,1,2.539.5,5.718,5.718,0,0,1,1.095.659,1.036,1.036,0,0,1,.072,1.561l-.1.093a1.051,1.051,0,0,1-1.374.063,4.2,4.2,0,0,0-.569-.365,3.478,3.478,0,0,0-1.651-.368,4.229,4.229,0,0,0-1.576.293,3.839,3.839,0,0,0-1.283.829,3.943,3.943,0,0,0-.863,1.3,4.714,4.714,0,0,0,0,3.4,3.921,3.921,0,0,0,.863,1.3,3.81,3.81,0,0,0,1.283.831,4.229,4.229,0,0,0,1.576.293,3.767,3.767,0,0,0,1.786-.411,4.062,4.062,0,0,0,.693-.462A1.111,1.111,0,0,1,303.962,57.284Zm0,0" transform="translate(-272.428 -48.723)"/></g><path class="d" d="M133.792,398.715h-5.961a1,1,0,0,1-1-1v-5.961a1,1,0,0,1,1-1h5.961a1,1,0,0,1,1,1v5.961A1,1,0,0,1,133.792,398.715Zm0,0" transform="translate(-111.113 -342.324)"/><path class="f" d="M142.082,410.9a1.784,1.784,0,0,1-1.107-.385l-2.2-1.742a1.786,1.786,0,0,1,2.216-2.8l.821.649,3.4-4.167a1.787,1.787,0,1,1,2.77,2.258l-4.507,5.532A1.785,1.785,0,0,1,142.082,410.9Zm0,0" transform="translate(-121.979 -355.24)"/><path class="e" d="M240.121,415.952H222.2a1.14,1.14,0,1,1,0-2.28h17.918a1.14,1.14,0,1,1,0,2.28Zm0,0" transform="translate(-193.664 -362.402)"/></g><g transform="translate(47.431 105.562) rotate(-118)"><path class="f" d="M477.964,193.552H466.727V140.926h11.237Zm0,0" transform="translate(-408.881 -121.347)"/><path class="g" d="M477.964,456.847H466.727v-1.858h11.237Zm0,0" transform="translate(-408.881 -382.783)"/><path class="e" d="M466.727,466.648h11.237v3.619c0,1.992-2.515,3.607-5.619,3.607s-5.619-1.615-5.619-3.607Zm0,0" transform="translate(-408.881 -392.585)"/><path class="h" d="M472.345,472.97c-3.1,0-5.619-1.614-5.619-3.607v3.187c0,1.992,2.516,3.607,5.619,3.607s5.619-1.615,5.619-3.607v-3.187C477.964,471.356,475.449,472.97,472.345,472.97Zm0,0" transform="translate(-408.881 -394.867)"/><path class="i" d="M466.727,90.744l5.2-9.32a.553.553,0,0,1,.83,0l5.2,9.32Zm0,0" transform="translate(-408.881 -71.168)"/><path class="f" d="M478.043,85.712h4.385l-1.868-4.288a.374.374,0,0,0-.648,0Zm0,0" transform="translate(-416.831 -71.168)"/><path class="f" d="M479.694,83.017a.509.509,0,0,1,.79,0l1.364,2.569-1.492-4.162a.283.283,0,0,0-.533,0l-1.491,4.161Zm0,0" transform="translate(-416.625 -71.168)"/></g></g></svg>