<svg xmlns="http://www.w3.org/2000/svg" xmlns:xlink="http://www.w3.org/1999/xlink" width="42" height="42" viewBox="0 0 42 42"><defs><style>.a{fill:#fff;}.b{filter:url(#c);}.c{filter:url(#a);}</style><filter id="a" x="0" y="0" width="35" height="39" filterUnits="userSpaceOnUse"><feOffset dy="3" input="SourceAlpha"/><feGaussianBlur stdDeviation="3" result="b"/><feFlood flood-opacity="0.161"/><feComposite operator="in" in2="b"/><feComposite in="SourceGraphic"/></filter><filter id="c" x="11.778" y="11.675" width="30.222" height="30.325" filterUnits="userSpaceOnUse"><feOffset dy="3" input="SourceAlpha"/><feGaussianBlur stdDeviation="3" result="d"/><feFlood flood-opacity="0.161"/><feComposite operator="in" in2="d"/><feComposite in="SourceGraphic"/></filter></defs><g transform="translate(8.538 9.959)"><g transform="translate(2.462 -3.959)"><g class="c" transform="matrix(1, 0, 0, 1, -11, -6)"><path class="a" d="M14.25,0H2.75A2.748,2.748,0,0,0,0,2.75v15.5A2.748,2.748,0,0,0,2.75,21h7.38l.22-1.23a2.785,2.785,0,0,1,.76-1.47L17,12.42V2.75A2.748,2.748,0,0,0,14.25,0ZM4,4H8A1,1,0,0,1,8,6H4A1,1,0,0,1,4,4ZM9,14H4a1,1,0,0,1,0-2H9a1,1,0,0,1,0,2Zm4-4H4A1,1,0,0,1,4,8h9a1,1,0,0,1,0,2Z" transform="translate(9 6)"/></g><g class="b" transform="matrix(1, 0, 0, 1, -11, -6)"><path class="a" d="M12.528,24a.75.75,0,0,1-.738-.881l.53-3a.753.753,0,0,1,.208-.4l7.425-7.424a1.526,1.526,0,0,1,2.3-.177l1.237,1.237a1.751,1.751,0,0,1,0,2.475L16.063,23.25a.739.739,0,0,1-.4.208l-3.005.53a.715.715,0,0,1-.13.012Zm3.005-1.28h.01Z" transform="translate(9 6)"/></g></g></g></svg>