<svg xmlns="http://www.w3.org/2000/svg" width="32.524" height="32.559" viewBox="0 0 32.524 32.559"><defs><style>.a{fill:#fff;}</style></defs><path class="a" d="M68.494,100.88l2.278-8.09a16.234,16.234,0,1,1,6.065,5.942Zm8.769-5.1.5.3a13.483,13.483,0,1,0-4.34-4.243l.335.521-1.312,4.659Z" transform="translate(-68.494 -68.321)"/><path class="a" d="M151.247,152.885l-1.054-.057a1.274,1.274,0,0,0-.906.31,4.8,4.8,0,0,0-1.579,2.419c-.374,1.667.2,3.707,1.7,5.748a17.1,17.1,0,0,0,9.217,6.7,4.492,4.492,0,0,0,3.8-.471,3.4,3.4,0,0,0,1.48-2.16l.168-.786a.546.546,0,0,0-.305-.61l-3.562-1.642a.546.546,0,0,0-.661.162l-1.4,1.813a.4.4,0,0,1-.45.134,10.949,10.949,0,0,1-5.925-5.07.4.4,0,0,1,.051-.451l1.336-1.546a.546.546,0,0,0,.089-.572l-1.535-3.592A.546.546,0,0,0,151.247,152.885Z" transform="translate(-139.526 -144.203)"/></svg>