<svg xmlns="http://www.w3.org/2000/svg" width="22" height="22" viewBox="0 0 22 22"><defs><style>.a{fill:none;}.b{fill:#002cfa;}</style></defs><g transform="translate(0.2 -0.1)"><rect class="a" width="22" height="22" transform="translate(-0.2 0.1)"/><path class="b" d="M10.59,5.27a8.155,8.155,0,0,1,3.226-.67,8.3,8.3,0,0,1,3.226.67,8.364,8.364,0,0,1,5.075,7.644,8.334,8.334,0,0,1-.669,3.231,8.348,8.348,0,0,1-7.632,5.083A8.44,8.44,0,0,1,9.8,20.2L5.2,21.66l1.495-4.452a8.1,8.1,0,0,1-1.18-4.295,8.334,8.334,0,0,1,.669-3.231,8.191,8.191,0,0,1,1.77-2.64A8.386,8.386,0,0,1,10.59,5.27Zm3.187,14.539a6.916,6.916,0,0,0,2.675-.552,7.164,7.164,0,0,0,2.2-1.458,6.17,6.17,0,0,0,1.456-2.206,6.792,6.792,0,0,0,0-5.358,7.177,7.177,0,0,0-1.456-2.206,6.159,6.159,0,0,0-2.2-1.458,6.763,6.763,0,0,0-5.35,0A7.164,7.164,0,0,0,8.9,8.028a6.17,6.17,0,0,0-1.456,2.206,6.944,6.944,0,0,0-.551,2.679,6.832,6.832,0,0,0,1.3,4.058l-.866,2.561L10,18.705A6.814,6.814,0,0,0,13.776,19.808Zm1.652-5.28c.275-.355.472-.552.59-.552a5.891,5.891,0,0,1,1.062.473,3.629,3.629,0,0,1,.984.591c0,.039.039.079.039.158a2.493,2.493,0,0,1-.2.827,1.569,1.569,0,0,1-.787.709,2.515,2.515,0,0,1-1.1.276,6.266,6.266,0,0,1-2.085-.67,5.613,5.613,0,0,1-1.849-1.3,16.173,16.173,0,0,1-1.613-2.049,4.071,4.071,0,0,1-.787-2.128v-.079a2.352,2.352,0,0,1,.826-1.734.8.8,0,0,1,.59-.236h.393a.376.376,0,0,1,.275.079.755.755,0,0,1,.157.315c.039.158.2.473.354.985a5.491,5.491,0,0,1,.275.827c0,.158-.118.355-.393.63-.236.276-.393.433-.393.512a.237.237,0,0,0,.039.158,4.9,4.9,0,0,0,1.1,1.5,6.328,6.328,0,0,0,1.652,1.1A.559.559,0,0,0,14.8,15C14.957,15.041,15.153,14.883,15.429,14.529Z" transform="translate(-2.858 -2.382)"/></g></svg>