<?xml version="1.0" encoding="utf-8"?>
<!-- Generator: Adobe Illustrator 16.0.0, SVG Export Plug-In . SVG Version: 6.00 Build 0)  -->
<!DOCTYPE svg PUBLIC "-//W3C//DTD SVG 1.1//EN" "http://www.w3.org/Graphics/SVG/1.1/DTD/svg11.dtd">
<svg version="1.1" id="Layer_1" xmlns="http://www.w3.org/2000/svg" xmlns:xlink="http://www.w3.org/1999/xlink" x="0px" y="0px"
	 width="300px" height="100px" viewBox="0 0 300 100" enable-background="new 0 0 300 100" xml:space="preserve">
<title>GS-WidgetsFichier 15</title>
<path d="M152.109,6.777l-1.045,1.809c0.354,0.207,0.652,0.492,0.877,0.834l1.255-0.468l-1.05,0.853
	c0.271,0.619,0.292,1.32,0.057,1.954l1.956,0.731c0.806-2.149-0.063-4.566-2.054-5.709L152.109,6.777z"/>
<path d="M149.565,10.307c-0.302,0.172-0.408,0.556-0.237,0.857c0.172,0.302,0.556,0.408,0.857,0.237l0,0l1.97-1.6
	c-0.059-0.133-0.129-0.261-0.209-0.382L149.565,10.307z"/>
<path fill="#43B9AD" d="M133.938,47.512c0.22-0.327,0.335-0.712,0.333-1.105c-0.015-0.952-0.785-1.719-1.736-1.731h-1.194
	c0.206-0.404,0.317-0.849,0.326-1.302c0.02-0.434-0.06-0.866-0.234-1.263c-0.15-0.303-0.397-0.545-0.703-0.689
	c-0.32-0.15-0.67-0.226-1.024-0.22c-0.228,0.004-0.446,0.099-0.604,0.263c-0.202,0.203-0.348,0.456-0.421,0.733
	c-0.086,0.298-0.155,0.584-0.207,0.857c-0.022,0.212-0.104,0.413-0.234,0.581c-0.222,0.24-0.464,0.53-0.727,0.869
	c-0.27,0.386-0.584,0.739-0.937,1.052h-1.855c-0.48,0-0.869,0.389-0.869,0.869l0,0v4.34c0,0.48,0.389,0.869,0.869,0.869l0,0h1.954
	c0.32,0.061,0.634,0.151,0.937,0.271c0.556,0.195,1.045,0.344,1.469,0.445c0.421,0.102,0.853,0.153,1.286,0.152h0.876
	c0.565,0.026,1.117-0.17,1.539-0.545c0.399-0.39,0.61-0.934,0.576-1.491c0.27-0.343,0.414-0.769,0.408-1.206
	c0-0.098-0.007-0.196-0.021-0.293c0.17-0.297,0.259-0.634,0.258-0.977c0-0.158-0.02-0.315-0.061-0.468L133.938,47.512z
	 M125.47,50.625c-0.168,0.164-0.438,0.161-0.603-0.008c-0.164-0.168-0.161-0.438,0.008-0.603c0.169-0.164,0.439-0.161,0.603,0.008
	c0.078,0.08,0.121,0.187,0.121,0.298C125.6,50.436,125.553,50.546,125.47,50.625z M133.266,46.961
	c-0.096,0.209-0.218,0.314-0.363,0.319c0.077,0.095,0.134,0.204,0.168,0.321c0.042,0.122,0.065,0.249,0.068,0.377
	c0.002,0.308-0.128,0.603-0.358,0.808c0.081,0.143,0.123,0.304,0.122,0.468c-0.001,0.173-0.042,0.344-0.12,0.499
	c-0.065,0.15-0.178,0.275-0.321,0.356c0.021,0.125,0.032,0.252,0.033,0.38c0,0.756-0.434,1.133-1.303,1.131h-0.82
	c-0.794-0.041-1.577-0.207-2.319-0.494l-0.197-0.072l-0.234-0.085l-0.234-0.077c-0.106-0.035-0.192-0.06-0.258-0.075
	c-0.065-0.017-0.14-0.03-0.234-0.044c-0.071-0.013-0.142-0.02-0.213-0.021h-0.215v-4.338h0.215c0.082-0.004,0.161-0.024,0.234-0.061
	c0.099-0.047,0.19-0.109,0.271-0.183c0.092-0.081,0.18-0.159,0.263-0.234c0.096-0.094,0.187-0.193,0.271-0.297
	c0.1-0.12,0.178-0.216,0.234-0.288l0.213-0.279l0.157-0.204c0.249-0.312,0.422-0.518,0.522-0.616
	c0.194-0.21,0.333-0.465,0.403-0.743c0.084-0.301,0.153-0.585,0.206-0.851c0.029-0.212,0.119-0.413,0.258-0.576
	c0.434,0,0.724,0.106,0.869,0.319c0.167,0.3,0.242,0.642,0.218,0.984c-0.032,0.381-0.143,0.752-0.326,1.089
	c-0.18,0.332-0.29,0.696-0.323,1.071h2.387c0.229,0,0.447,0.094,0.604,0.26c0.168,0.157,0.265,0.376,0.265,0.607
	C133.403,46.603,133.354,46.791,133.266,46.961z"/>
<g>
	<path fill="#43B9AD" d="M135.694,32.867v3.572h-0.352v-0.75c-0.305,0.514-0.861,0.826-1.459,0.817
		c-1.016,0-1.836-0.824-1.836-1.839c0.001-1.014,0.822-1.835,1.836-1.836c0.602-0.018,1.165,0.3,1.459,0.826v-0.791H135.694
		L135.694,32.867z M132.42,34.652c-0.037,0.792,0.576,1.463,1.368,1.499c0.031,0.002,0.061,0.002,0.092,0.002c2,0,2-2.989,0-2.989
		c-0.79-0.017-1.443,0.609-1.46,1.399C132.419,34.592,132.419,34.622,132.42,34.652z"/>
	<path fill="#43B9AD" d="M136.99,32.867l0.015,0.637c0.228-0.438,0.691-0.701,1.185-0.672c0.271-0.006,0.537,0.067,0.767,0.211
		l-0.159,0.289c-0.183-0.111-0.394-0.169-0.607-0.168c-0.655,0.005-1.184,0.538-1.181,1.193v2.082h-0.353v-3.572H136.99z"/>
	<path fill="#43B9AD" d="M142.926,32.867v3.572h-0.352v-0.75c-0.305,0.514-0.862,0.826-1.459,0.817
		c-1.016,0-1.838-0.824-1.837-1.839c0.001-1.014,0.822-1.835,1.837-1.836c0.602-0.018,1.165,0.3,1.459,0.826v-0.791H142.926
		L142.926,32.867z M139.649,34.655c-0.037,0.791,0.577,1.462,1.368,1.499c0.031,0.001,0.061,0.001,0.091,0.001c2,0,2-2.987,0-2.987
		c-0.79-0.017-1.442,0.611-1.458,1.401c-0.001,0.028-0.001,0.056,0.001,0.083L139.649,34.655z"/>
	<path fill="#43B9AD" d="M147.613,34.652c-0.025-0.992,0.757-1.818,1.75-1.844c0.022-0.001,0.043-0.001,0.065-0.001
		c1,0,1.902,0.615,1.765,2h-3.219c0.044,0.763,0.691,1.35,1.454,1.322c0.488,0.014,0.957-0.183,1.288-0.542l0.25,0.203
		c-0.384,0.448-0.95,0.701-1.541,0.687c-0.965,0.036-1.776-0.718-1.812-1.684C147.61,34.746,147.611,34.699,147.613,34.652z
		 M150.863,34.507c0-0.882-0.585-1.375-1.448-1.375c-0.778-0.016-1.426,0.596-1.455,1.375H150.863z"/>
	<path fill="#43B9AD" d="M130.576,36.062c0.585-0.282,0.957-0.875,0.955-1.524c0-1.115-0.749-1.75-1.683-1.75l0,0
		c-0.924,0-1.677,0.629-1.677,1.75c0,0.955,0.643,1.73,1.677,1.73c0.665,0,1.353,0.301,1.353,1.069c0,0.767-0.638,1.078-1.353,1.078
		c-0.714,0-1.337-0.348-1.337-1.078h-0.357c0,0.905,0.75,1.424,1.691,1.424c0.943,0,1.7-0.461,1.7-1.424
		C131.545,36.729,131.199,36.287,130.576,36.062z M128.523,34.537c0-0.933,0.592-1.388,1.322-1.388l0,0
		c0.731,0,1.336,0.455,1.336,1.388c0.002,0.746-0.592,1.357-1.338,1.375c-0.723,0.006-1.314-0.575-1.321-1.299
		C128.521,34.589,128.522,34.563,128.523,34.537z"/>
	<path fill="#43B9AD" d="M146.124,36.062c0.583-0.284,0.952-0.876,0.949-1.524c0-1.115-0.75-1.75-1.682-1.75l0,0
		c-0.924,0-1.677,0.629-1.677,1.75c0,0.955,0.643,1.73,1.677,1.73c0.666,0,1.353,0.301,1.353,1.069c0,0.767-0.637,1.078-1.353,1.078
		c-0.714,0-1.317-0.34-1.317-1.072h-0.355c0,0.905,0.75,1.425,1.693,1.425c0.942,0,1.699-0.463,1.699-1.425
		C147.098,36.729,146.753,36.287,146.124,36.062z M144.074,34.537c0-0.933,0.592-1.388,1.322-1.388l0,0
		c0.73,0,1.335,0.455,1.335,1.388c0.002,0.746-0.592,1.357-1.338,1.375c-0.722,0.006-1.314-0.575-1.32-1.299
		C144.072,34.589,144.073,34.563,144.074,34.537z"/>
	<path fill="#43B9AD" d="M171.858,32.807c-0.003,0.338-0.281,0.61-0.618,0.607c-0.339-0.002-0.611-0.278-0.608-0.617
		c0.004-0.336,0.277-0.607,0.613-0.607c0.322-0.015,0.597,0.233,0.613,0.556C171.859,32.766,171.859,32.787,171.858,32.807z
		 M171.245,33.35c0.3,0.01,0.55-0.225,0.56-0.524s-0.226-0.55-0.524-0.559c-0.298-0.011-0.55,0.225-0.56,0.524
		c0,0.005,0,0.011,0,0.017c-0.024,0.275,0.179,0.518,0.454,0.541C171.198,33.351,171.223,33.351,171.245,33.35z M171.308,32.475
		h-0.287v0.649h0.079v-0.25h0.141l0.212,0.25h0.088v-0.013l-0.202-0.229c0.112-0.005,0.199-0.1,0.193-0.212
		c-0.004-0.113-0.1-0.199-0.211-0.195H171.308L171.308,32.475z M171.1,32.553h0.221c0.069-0.014,0.137,0.03,0.15,0.1
		c0.014,0.068-0.032,0.136-0.101,0.15c-0.016,0.003-0.033,0.003-0.05,0h-0.202L171.1,32.553z"/>
	<path fill="#43B9AD" d="M159.323,35.984c-0.359,0.373-0.859,0.579-1.376,0.565c-1.036,0-1.895-0.622-1.895-1.888
		c0-1.265,0.858-1.887,1.895-1.887c0.484-0.016,0.952,0.176,1.286,0.527l-0.557,0.584c-0.196-0.178-0.45-0.278-0.715-0.282
		c-0.553-0.016-1.013,0.418-1.027,0.97c-0.001,0.028-0.001,0.057,0,0.084c-0.038,0.536,0.363,1.001,0.899,1.041
		c0.033,0.002,0.067,0.003,0.101,0.001c0.29,0.011,0.573-0.096,0.782-0.297L159.323,35.984z"/>
	<path fill="#43B9AD" d="M163.336,34.659c-0.001,1.025-0.834,1.854-1.856,1.853c-1.025-0.001-1.854-0.833-1.853-1.857
		c0.002-1.02,0.825-1.846,1.844-1.852c0.995-0.035,1.83,0.742,1.865,1.737C163.338,34.58,163.338,34.62,163.336,34.659z
		 M160.509,34.659c0,0.542,0.326,1.05,0.971,1.05s0.971-0.499,0.971-1.05c0.03-0.552-0.394-1.023-0.944-1.053
		c-0.009-0.001-0.019-0.001-0.026-0.002C160.842,33.604,160.509,34.124,160.509,34.659z"/>
	<path fill="#43B9AD" d="M164.762,32.875l0.059,0.413c0.212-0.345,0.599-0.539,1-0.5c0.339-0.005,0.665,0.117,0.918,0.34
		l-0.398,0.767c-0.172-0.16-0.402-0.243-0.636-0.232c-0.454-0.035-0.849,0.303-0.885,0.755c-0.004,0.048-0.003,0.095,0.001,0.142
		v1.879h-0.882v-3.564H164.762L164.762,32.875z"/>
	<path fill="#43B9AD" d="M167.834,34.972c0.058,0.44,0.439,0.75,1.062,0.75c0.349,0.006,0.687-0.113,0.955-0.332l0.564,0.557
		c-0.414,0.388-0.964,0.599-1.532,0.59c-1.229,0-1.96-0.75-1.96-1.902c0-1.085,0.75-1.865,1.895-1.865s1.938,0.75,1.802,2.205
		L167.834,34.972z M169.771,34.242c-0.059-0.455-0.419-0.705-0.927-0.705c-0.455-0.037-0.874,0.255-0.999,0.695L169.771,34.242z"/>
	<path fill="#43B9AD" d="M153.635,33.11h-0.032c-0.527-0.012-0.944-0.45-0.933-0.976c0.011-0.528,0.448-0.945,0.977-0.934
		c0.053,0.002,0.105,0.008,0.159,0.018h0.045c0.048,0.011,0.096,0.025,0.142,0.045l0.037,0.017l0.081,0.042l0.382-0.665l0,0l0,0
		c-0.118-0.067-0.243-0.119-0.375-0.157l-0.053-0.013l-0.151-0.031h-0.059c-0.942-0.101-1.789,0.582-1.89,1.525
		c-0.102,0.943,0.58,1.79,1.523,1.891c0.053,0.005,0.104,0.009,0.158,0.009h0.03c0.528,0.013,0.946,0.449,0.934,0.978
		c-0.013,0.526-0.45,0.944-0.976,0.932c-0.054-0.001-0.108-0.007-0.16-0.017h-0.045c-0.049-0.011-0.096-0.026-0.142-0.045
		l-0.039-0.018c-0.455-0.206-0.674-0.731-0.499-1.2l-0.715-0.268c-0.294,0.786,0.024,1.668,0.75,2.088l0,0l0,0
		c0.118,0.068,0.244,0.12,0.374,0.157l0.053,0.013l0.153,0.03h0.058c0.941,0.101,1.789-0.581,1.89-1.524
		c0.103-0.944-0.582-1.791-1.524-1.891c-0.051-0.005-0.103-0.008-0.155-0.009L153.635,33.11z"/>
	<path opacity="0.5" fill="#43B9AD" enable-background="new    " d="M154.59,32.154c0,0.114-0.021,0.229-0.06,0.335l0.715,0.268
		c0.292-0.786-0.024-1.668-0.75-2.088l-0.382,0.666C154.406,31.503,154.588,31.816,154.59,32.154z"/>
</g>
<g>
	<circle fill="#43B9AD" cx="149.89" cy="14.371" r="12.629"/>
	<path opacity="0.5" fill="#FFFFFF" enable-background="new    " d="M152.285,6.534l-1.058,1.835
		c0.359,0.208,0.666,0.498,0.896,0.845l1.276-0.478L152.336,9.6c0.275,0.629,0.295,1.341,0.056,1.984l1.983,0.743
		c0.814-2.183-0.066-4.634-2.085-5.798L152.285,6.534z"/>
	<path fill="#FFFFFF" d="M149.89,13.313h-0.091c-1.464-0.049-2.608-1.275-2.56-2.738c0.05-1.463,1.275-2.608,2.738-2.558
		c0.435,0.015,0.858,0.136,1.234,0.353l1.073-1.835c-2.281-1.319-5.199-0.54-6.519,1.741c-1.318,2.282-0.539,5.2,1.742,6.519
		c0.728,0.421,1.555,0.642,2.396,0.641h0.091c1.46,0.052,2.602,1.277,2.55,2.737c-0.052,1.46-1.276,2.602-2.736,2.55
		s-2.602-1.277-2.55-2.736c0.01-0.283,0.065-0.561,0.163-0.826l-1.983-0.743c-0.922,2.469,0.333,5.217,2.802,6.138
		c2.468,0.921,5.216-0.333,6.138-2.802c0.921-2.468-0.333-5.216-2.802-6.138c-0.533-0.199-1.098-0.301-1.667-0.301H149.89
		L149.89,13.313z"/>
	<path fill="#FFFFFF" d="M149.686,10.119c-0.306,0.174-0.413,0.563-0.238,0.87c0.174,0.306,0.563,0.413,0.869,0.239l1.999-1.623
		c-0.06-0.135-0.132-0.264-0.213-0.387L149.686,10.119z"/>
</g>
</svg>
