<?xml version="1.0" encoding="utf-8"?>
<!-- Generator: Adobe Illustrator 16.0.0, SVG Export Plug-In . SVG Version: 6.00 Build 0)  -->
<!DOCTYPE svg PUBLIC "-//W3C//DTD SVG 1.1//EN" "http://www.w3.org/Graphics/SVG/1.1/DTD/svg11.dtd">
<svg version="1.1" id="Layer_1" xmlns="http://www.w3.org/2000/svg" xmlns:xlink="http://www.w3.org/1999/xlink" x="0px" y="0px"
	 width="300px" height="100px" viewBox="0 0 300 100" enable-background="new 0 0 300 100" xml:space="preserve">
<title>GS-Logo longPlan de travail 1</title>
<circle fill="#43B9AD" cx="18.655" cy="50.427" r="15.445"/>
<path opacity="0.5" fill="#FFFFFF" enable-background="new    " d="M21.573,40.835l-1.294,2.246c0.44,0.254,0.815,0.608,1.094,1.032
	l1.562-0.584l-1.3,1.057c0.335,0.77,0.36,1.639,0.068,2.426l2.425,0.909c0.996-2.669-0.082-5.667-2.55-7.091L21.573,40.835z"/>
<path fill="#FFFFFF" d="M18.655,49.127h-0.112c-1.789-0.061-3.189-1.56-3.13-3.35c0.062-1.788,1.561-3.189,3.349-3.128
	c0.531,0.018,1.049,0.166,1.51,0.432l1.294-2.246c-2.79-1.612-6.358-0.659-7.972,2.13c-1.613,2.79-0.659,6.359,2.13,7.972
	c0.891,0.515,1.901,0.785,2.931,0.784h0.112c1.785,0.063,3.182,1.561,3.118,3.347c-0.063,1.784-1.562,3.181-3.347,3.117
	s-3.182-1.563-3.118-3.348c0.012-0.345,0.08-0.686,0.199-1.008l-2.425-0.909c-1.127,3.018,0.408,6.38,3.426,7.507
	s6.379-0.408,7.505-3.427c1.128-3.019-0.406-6.379-3.425-7.506c-0.653-0.243-1.342-0.368-2.039-0.368H18.655L18.655,49.127z"/>
<path fill="#FFFFFF" d="M18.406,45.221c-0.374,0.213-0.506,0.689-0.293,1.063c0.214,0.374,0.69,0.506,1.065,0.293l2.444-1.985
	c-0.074-0.165-0.161-0.322-0.261-0.473L18.406,45.221z"/>
<path fill="#43B9AD" d="M104.418,40.717v-0.006V40.717z"/>
<path fill="#43B9AD" d="M104.418,40.711L104.418,40.711L104.418,40.711z"/>
<title>GS-WidgetsFichier 17</title>
<path fill="#43B9AD" d="M113.908,50.906c0.282-0.454,0.429-0.978,0.426-1.512c0.007-0.627-0.235-1.23-0.673-1.679
	c-0.406-0.456-0.987-0.716-1.598-0.713h-1.561c0.264-0.564,0.402-1.178,0.405-1.8c0.025-0.597-0.082-1.192-0.313-1.743
	c-0.187-0.409-0.505-0.745-0.904-0.953c-0.415-0.207-0.874-0.312-1.338-0.304c-0.307-0.004-0.601,0.121-0.811,0.344
	c-0.267,0.286-0.457,0.634-0.551,1.014c-0.111,0.414-0.202,0.808-0.272,1.184c-0.029,0.294-0.139,0.574-0.316,0.811
	c-0.29,0.333-0.605,0.738-0.949,1.216c-0.348,0.53-0.756,1.017-1.216,1.452h-2.433c-0.309-0.005-0.604,0.124-0.811,0.353
	c-0.219,0.228-0.338,0.532-0.333,0.848v5.976c-0.006,0.315,0.114,0.62,0.333,0.848c0.207,0.229,0.502,0.357,0.811,0.353h2.554
	c0.417,0.083,0.824,0.208,1.216,0.373c0.628,0.237,1.268,0.441,1.917,0.612c0.549,0.141,1.113,0.211,1.679,0.211h1.144
	c1.432,0.096,2.671-0.986,2.768-2.418c0.009-0.131,0.008-0.262-0.003-0.393c0.355-0.482,0.542-1.067,0.531-1.666
	c0-0.135-0.01-0.271-0.028-0.405c0.224-0.415,0.339-0.879,0.336-1.351c0-0.219-0.027-0.436-0.081-0.648L113.908,50.906z
	 M102.823,55.221c-0.193,0.223-0.531,0.248-0.755,0.055c-0.02-0.017-0.039-0.035-0.056-0.055c-0.224-0.236-0.224-0.607,0-0.844
	c0.193-0.225,0.531-0.25,0.755-0.057c0.02,0.018,0.039,0.036,0.056,0.057C103.048,54.613,103.048,54.984,102.823,55.221z
	 M113.016,50.16c-0.127,0.287-0.285,0.434-0.475,0.441c0.103,0.133,0.178,0.285,0.223,0.446c0.055,0.168,0.085,0.343,0.089,0.519
	c0.004,0.422-0.166,0.825-0.47,1.115c0.105,0.199,0.16,0.42,0.158,0.645c-0.001,0.238-0.054,0.474-0.154,0.689
	c-0.08,0.203-0.222,0.375-0.406,0.49c0.029,0.174,0.043,0.348,0.045,0.523c0,1.043-0.568,1.564-1.703,1.564h-1.07
	c-1.042-0.057-2.067-0.288-3.033-0.685l-0.255-0.097l-0.316-0.118l-0.312-0.109c-0.141-0.046-0.253-0.079-0.336-0.102
	c-0.085-0.021-0.183-0.04-0.292-0.061c-0.092-0.017-0.186-0.026-0.28-0.028h-0.284v-5.993h0.284c0.11-0.004,0.219-0.033,0.316-0.085
	c0.129-0.066,0.248-0.151,0.353-0.251c0.122-0.113,0.235-0.224,0.341-0.333c0.125-0.129,0.242-0.264,0.353-0.405l0.304-0.405
	l0.28-0.385l0.203-0.28c0.324-0.424,0.551-0.708,0.681-0.852c0.255-0.295,0.436-0.646,0.527-1.026
	c0.111-0.416,0.202-0.808,0.271-1.176c0.035-0.296,0.151-0.577,0.337-0.811c0.567,0,0.946,0.147,1.135,0.442
	c0.218,0.418,0.316,0.888,0.284,1.358c-0.035,0.523-0.173,1.035-0.405,1.504c-0.232,0.467-0.37,0.976-0.406,1.496h3.122
	c0.303,0.002,0.59,0.134,0.791,0.361c0.223,0.222,0.347,0.524,0.345,0.839c-0.011,0.263-0.076,0.521-0.19,0.758L113.016,50.16z"/>
<g>
	<path fill="#43B9AD" d="M49.326,48.956v4.902h-0.487v-1.027c-0.418,0.704-1.182,1.132-2.001,1.12c-1.392,0-2.52-1.128-2.52-2.52
		s1.128-2.52,2.52-2.52c0.826-0.025,1.597,0.411,2.001,1.131v-1.087H49.326L49.326,48.956z M44.818,51.397
		c-0.05,1.085,0.791,2.005,1.876,2.056c0.042,0.002,0.084,0.002,0.125,0.001c2.743,0,2.743-4.097,0-4.097
		c-1.083-0.024-1.979,0.836-2.003,1.918C44.815,51.316,44.815,51.357,44.818,51.397z"/>
	<path fill="#43B9AD" d="M51.102,48.956l0.02,0.874c0.312-0.601,0.949-0.962,1.625-0.921C53.118,48.9,53.484,49,53.8,49.196
		l-0.22,0.397c-0.25-0.152-0.54-0.232-0.833-0.229c-0.898,0.005-1.622,0.737-1.618,1.635v2.855h-0.484v-4.899H51.102z"/>
	<path fill="#43B9AD" d="M59.244,48.956v4.902h-0.487v-1.027c-0.419,0.704-1.183,1.132-2.003,1.12c-1.391,0-2.519-1.128-2.519-2.52
		s1.128-2.52,2.519-2.52c0.826-0.025,1.598,0.411,2.003,1.131v-1.087H59.244L59.244,48.956z M54.759,51.397
		c-0.049,1.085,0.791,2.005,1.877,2.056c0.042,0.002,0.083,0.002,0.125,0.001c2.742,0,2.742-4.097,0-4.097
		c-1.083-0.024-1.979,0.836-2.003,1.918C54.757,51.316,54.758,51.357,54.759,51.397z"/>
	<path fill="#43B9AD" d="M65.672,51.397c-0.037-1.361,1.038-2.494,2.398-2.529c0.03-0.001,0.06-0.001,0.09-0.001
		c1.371,0,2.609,0.844,2.42,2.743h-4.416c0.045,1.06,0.936,1.883,1.995,1.845c0.669,0.021,1.313-0.251,1.766-0.744l0.343,0.278
		c-0.526,0.615-1.301,0.961-2.112,0.943c-1.324,0.048-2.438-0.984-2.488-2.311C65.667,51.548,65.667,51.473,65.672,51.397z
		 M70.129,51.197c0-1.209-0.803-1.884-1.985-1.884c-1.068-0.021-1.956,0.818-1.996,1.884H70.129z"/>
	<path fill="#43B9AD" d="M42.294,53.341c0.804-0.384,1.317-1.193,1.32-2.084c0-1.529-1.028-2.4-2.308-2.4l0,0
		c-1.268,0-2.3,0.864-2.3,2.4c0,1.31,0.881,2.372,2.3,2.372c0.912,0,1.855,0.414,1.855,1.468c0,1.053-0.875,1.478-1.855,1.478
		c-0.98,0-1.834-0.477-1.834-1.478h-0.483c0,1.241,1.028,1.954,2.321,1.954c1.292,0,2.331-0.635,2.331-1.954
		C43.634,54.253,43.158,53.65,42.294,53.341z M39.486,51.26c0-1.278,0.813-1.902,1.813-1.902l0,0c1.001,0,1.831,0.624,1.831,1.902
		c0.004,1.023-0.812,1.862-1.834,1.886c-0.992,0.009-1.804-0.788-1.813-1.78C39.484,51.33,39.485,51.295,39.486,51.26z"/>
	<path fill="#43B9AD" d="M63.628,53.341c0.804-0.384,1.317-1.193,1.32-2.084c0-1.529-1.029-2.4-2.307-2.4l0,0
		c-1.269,0-2.3,0.864-2.3,2.4c0,1.31,0.88,2.372,2.3,2.372c0.912,0,1.854,0.414,1.854,1.468c0,1.053-0.878,1.478-1.852,1.478
		s-1.834-0.477-1.834-1.478h-0.497c0,1.241,1.028,1.954,2.321,1.954c1.292,0,2.331-0.635,2.331-1.954
		C64.965,54.253,64.489,53.65,63.628,53.341z M60.821,51.257c0-1.278,0.813-1.903,1.813-1.903l0,0c1.001,0,1.831,0.625,1.831,1.903
		c0.004,1.022-0.811,1.862-1.834,1.886c-0.992,0.008-1.803-0.789-1.812-1.781c0-0.033,0-0.067,0.002-0.102V51.257L60.821,51.257z"/>
	<path fill="#43B9AD" d="M98.923,48.877c-0.003,0.464-0.383,0.837-0.847,0.833c-0.463-0.004-0.836-0.383-0.833-0.847
		c0.003-0.461,0.379-0.833,0.84-0.833c0.442-0.021,0.818,0.32,0.84,0.762C98.925,48.821,98.925,48.849,98.923,48.877z
		 M98.083,49.621c0.41,0.014,0.754-0.309,0.767-0.719c0.014-0.411-0.309-0.755-0.719-0.768c-0.411-0.013-0.754,0.309-0.768,0.719
		c0,0.008,0,0.016,0,0.024c-0.033,0.377,0.246,0.71,0.624,0.742C98.02,49.623,98.051,49.623,98.083,49.621z M98.169,48.421h-0.394
		v0.892h0.109V48.97h0.192l0.292,0.343h0.12v-0.017L98.21,48.98c0.154-0.012,0.27-0.146,0.259-0.3S98.323,48.41,98.169,48.421z
		 M97.884,48.528h0.285c0.095-0.019,0.187,0.042,0.206,0.137c0.019,0.095-0.042,0.187-0.137,0.206c-0.022,0.004-0.046,0.004-0.069,0
		h-0.278L97.884,48.528z"/>
	<path fill="#43B9AD" d="M81.74,53.231c-0.491,0.513-1.176,0.794-1.886,0.775c-1.419,0-2.598-0.854-2.598-2.589
		s1.179-2.588,2.598-2.588c0.665-0.023,1.308,0.241,1.766,0.723l-0.761,0.816c-0.269-0.245-0.617-0.383-0.98-0.388
		c-0.757-0.022-1.389,0.574-1.411,1.331c-0.001,0.039-0.001,0.077,0.001,0.115c-0.054,0.734,0.499,1.374,1.233,1.427
		c0.046,0.003,0.092,0.005,0.138,0.003c0.406,0.012,0.8-0.145,1.087-0.432L81.74,53.231z"/>
	<path fill="#43B9AD" d="M87.236,51.418c0.001,1.404-1.137,2.545-2.542,2.545c-1.405,0.002-2.545-1.137-2.545-2.541
		c0-0.002,0-0.004,0-0.004c-0.002-1.404,1.136-2.545,2.542-2.545c1.405-0.001,2.544,1.137,2.545,2.542
		C87.236,51.415,87.236,51.416,87.236,51.418z M83.359,51.418c0,0.744,0.445,1.439,1.33,1.439c0.884,0,1.33-0.686,1.33-1.439
		c0.042-0.756-0.537-1.404-1.293-1.445c-0.012-0.001-0.024-0.001-0.036-0.002C83.814,49.968,83.359,50.684,83.359,51.418z"/>
	<path fill="#43B9AD" d="M89.19,48.967l0.088,0.566c0.289-0.474,0.821-0.74,1.372-0.687c0.463-0.007,0.912,0.159,1.258,0.466
		l-0.538,1.056c-0.237-0.219-0.552-0.334-0.874-0.318c-0.621-0.055-1.168,0.403-1.223,1.024c-0.006,0.072-0.005,0.145,0.002,0.216
		v2.578h-1.21v-4.902H89.19L89.19,48.967z"/>
	<path fill="#43B9AD" d="M93.404,51.843c0.079,0.603,0.603,1.028,1.457,1.028c0.476,0.01,0.939-0.147,1.31-0.445l0.757,0.769
		c-0.571,0.524-1.325,0.81-2.102,0.792c-1.686,0-2.688-1.029-2.688-2.609c0-1.488,1.028-2.558,2.599-2.558
		c1.57,0,2.657,1.029,2.469,3.023L93.404,51.843L93.404,51.843z M96.06,50.842c-0.079-0.635-0.576-0.953-1.268-0.953
		c-0.626-0.051-1.2,0.35-1.372,0.953H96.06z"/>
	<path fill="#43B9AD" d="M75.107,45.943v-0.003V45.943z"/>
	<path fill="#43B9AD" d="M73.927,49.292h-0.044c-0.723-0.017-1.296-0.616-1.28-1.339s0.616-1.296,1.339-1.28
		c0.073,0.002,0.146,0.01,0.218,0.024h0.062c0.067,0.015,0.132,0.036,0.195,0.062l0.052,0.024l0.11,0.059l0.524-0.912l0,0l0,0
		c-0.163-0.093-0.335-0.166-0.515-0.217l-0.072-0.017l-0.209-0.041h-0.079c-1.293-0.139-2.454,0.797-2.593,2.09
		c-0.139,1.294,0.797,2.454,2.091,2.592c0.071,0.008,0.143,0.013,0.214,0.014h0.017c0.723,0.017,1.296,0.616,1.28,1.34
		c-0.017,0.723-0.617,1.295-1.339,1.279c-0.073-0.002-0.146-0.01-0.218-0.023h-0.063c-0.066-0.016-0.131-0.035-0.195-0.063
		l-0.051-0.023c-0.625-0.283-0.925-1.002-0.686-1.646l-0.98-0.366c-0.402,1.076,0.033,2.287,1.029,2.861l0,0l0,0
		c0.162,0.092,0.334,0.166,0.514,0.217l0.072,0.017l0.209,0.042h0.079c1.293,0.139,2.454-0.798,2.593-2.092
		c0.139-1.293-0.797-2.454-2.091-2.592c-0.071-0.008-0.142-0.012-0.214-0.013L73.927,49.292z"/>
	<path fill="#43B9AD" d="M75.107,45.939L75.107,45.939L75.107,45.939z"/>
	<path opacity="0.5" fill="#43B9AD" enable-background="new    " d="M75.237,47.969c0,0.156-0.027,0.313-0.082,0.459l0.98,0.367
		c0.402-1.078-0.033-2.288-1.028-2.863l-0.525,0.912C74.985,47.076,75.235,47.504,75.237,47.969z"/>
</g>
</svg>
