<svg xmlns="http://www.w3.org/2000/svg" width="53.201" height="50" viewBox="0 0 53.201 50">
  <g id="Appels_manqués" data-name="Appels manqués" transform="translate(0 -15.401)">
    <g id="Groupe_6725" data-name="Groupe 6725" transform="translate(0 15.401)">
      <g id="Groupe_6724" data-name="Groupe 6724" transform="translate(0 0)">
        <g id="Groupe_6723" data-name="Groupe 6723">
          <g id="Groupe_6722" data-name="Groupe 6722">
            <path id="Tracé_6289" data-name="Tracé 6289" d="M49.812,15.4H3.388A3.392,3.392,0,0,0,0,18.789V55.35a3.392,3.392,0,0,0,3.388,3.388H20.894l-2.143,4.585H10.906a1.039,1.039,0,0,0,0,2.078H42.294a1.039,1.039,0,1,0,0-2.078H34.45l-2.143-4.585H49.812A3.392,3.392,0,0,0,53.2,55.35V18.789A3.392,3.392,0,0,0,49.812,15.4ZM2.078,18.789a1.312,1.312,0,0,1,1.31-1.31H49.812a1.312,1.312,0,0,1,1.31,1.31V51.674h-2.49V43.725a1.039,1.039,0,0,0-2.078,0v7.949H6.647V22.048H46.554V34.338a1.039,1.039,0,1,0,2.078,0V21.008a1.039,1.039,0,0,0-1.039-1.039H5.608a1.039,1.039,0,0,0-1.039,1.039V51.674H2.078ZM32.156,63.323H21.044l2.143-4.585h6.825ZM51.123,55.35a1.312,1.312,0,0,1-1.31,1.31H3.388a1.312,1.312,0,0,1-1.31-1.31v-1.6H51.123Z" transform="translate(0 -15.401)" fill="#f1334e"/>
            <path id="Tracé_6290" data-name="Tracé 6290" d="M450.045,233.646a1.039,1.039,0,1,0-.412,1.28,1.05,1.05,0,0,0,.412-1.28Z" transform="translate(-401.492 -210.394)" fill="#f1334e"/>
            <path id="Tracé_6291" data-name="Tracé 6291" d="M118.546,116.313,113.728,113a2.966,2.966,0,0,0-3.907.484l-.015.017-1.306,1.551-.029.036c-.128.167-.219.226-.359.235-.207.013-1.008-.071-2.651-1.72s-1.73-2.455-1.716-2.662a.464.464,0,0,1,.235-.36l.037-.03,1.547-1.31.016-.014a2.974,2.974,0,0,0,.483-3.908l-3.312-4.825a2.964,2.964,0,0,0-4.358-.587,28.491,28.491,0,0,0-2.2,2.061,3.784,3.784,0,0,0-1.06,2.3c-.014.153-.031.314-.05.486-.257,2.377-.736,6.8,5.836,13.383,5.122,5.129,8.934,5.971,11.491,5.971a16.681,16.681,0,0,0,1.873-.124c.171-.018.332-.036.484-.05a3.776,3.776,0,0,0,2.3-1.062,28.73,28.73,0,0,0,2.057-2.2,2.971,2.971,0,0,0-.586-4.36Zm-1,3.021a26.548,26.548,0,0,1-1.922,2.054,1.694,1.694,0,0,1-1.032.477c-.165.015-.34.033-.525.054-2.17.235-5.8.629-11.67-5.249s-5.475-9.517-5.24-11.691c.02-.186.039-.361.054-.527a1.7,1.7,0,0,1,.476-1.036,26.68,26.68,0,0,1,2.05-1.926.874.874,0,0,1,.569-.21.9.9,0,0,1,.121.008.877.877,0,0,1,.613.378l3.312,4.825a.893.893,0,0,1-.138,1.168l-1.521,1.287a2.5,2.5,0,0,0-1.02,1.855c-.08,1.225.679,2.62,2.318,4.264s3.03,2.405,4.256,2.326a2.494,2.494,0,0,0,1.858-1.023l1.284-1.525a.887.887,0,0,1,1.162-.138h0l4.818,3.317a.893.893,0,0,1,.176,1.31Z" transform="translate(-85.097 -90.496)" fill="#f1334e"/>
            <path id="Tracé_6292" data-name="Tracé 6292" d="M264.268,131.148,256.85,126.7a1.039,1.039,0,0,0-1.574.891v1.289H250.2a1.039,1.039,0,0,0-1.039,1.039v4.247A1.039,1.039,0,0,0,250.2,135.2h5.077v1.289a1.039,1.039,0,0,0,1.574.891l7.418-4.452a1.039,1.039,0,0,0,0-1.782Zm-6.914,3.507v-.493a1.039,1.039,0,0,0-1.039-1.039h-5.077v-2.169h5.077a1.039,1.039,0,0,0,1.039-1.039v-.493l4.36,2.616Z" transform="translate(-223.27 -114.999)" fill="#f1334e"/>
          </g>
        </g>
      </g>
    </g>
  </g>
</svg>
