<svg xmlns="http://www.w3.org/2000/svg" viewBox="0 0 21 21"><defs><style>.cls-1{fill:#ee751b;}.cls-2{fill:#1c3762;}.cls-3{fill:#fff;}</style></defs><title>Fichier 3</title><g id="Calque_2" data-name="Calque 2"><g id="Calque_1-2" data-name="Calque 1"><rect class="cls-1" y="10.69" width="21" height="10.31"/><rect class="cls-2" width="21" height="10.31"/><path class="cls-2" d="M2.57,15.94h0a1,1,0,0,1-1.07-1.07.31.31,0,1,1,.61,0,.43.43,0,0,0,.46.46h0a.45.45,0,0,0,.49-.42c0-.69-1.53-.73-1.53-1.73v-.11a1,1,0,0,1,1-.92h0a1,1,0,0,1,1,.84A.31.31,0,0,1,3,13c0-.15-.16-.27-.43-.27H2.53c-.23,0-.42.12-.42.35v.07c0,.42,1.53.62,1.53,1.73A1,1,0,0,1,2.57,15.94Zm2.68,0h0a1.06,1.06,0,0,1-1.07-1V13.22a1,1,0,0,1,1.07-1h0a1.08,1.08,0,0,1,1.07.88v0a.3.3,0,0,1-.31.31.29.29,0,0,1-.3-.27.45.45,0,0,0-.46-.38h0a.43.43,0,0,0-.46.42v1.73a.42.42,0,0,0,.46.42h0a.46.46,0,0,0,.46-.39.28.28,0,0,1,.3-.26.3.3,0,0,1,.31.3v.08A1.08,1.08,0,0,1,5.25,15.94Zm2.64,0h0a1.06,1.06,0,0,1-1.07-1V13.22a1,1,0,0,1,1.07-1h0a1.06,1.06,0,0,1,1.07,1v1.69A1.06,1.06,0,0,1,7.89,15.94Zm.42-2.72a.41.41,0,0,0-.46-.42h0a.43.43,0,0,0-.45.42v1.69a.41.41,0,0,0,.45.42h0a.43.43,0,0,0,.46-.42Zm2.38,2.72h0a1.09,1.09,0,0,1-1.07-1.07V12.49a.31.31,0,0,1,.61,0v2.38a.46.46,0,0,0,.46.46h0a.44.44,0,0,0,.46-.46V12.49a.31.31,0,0,1,.61,0v2.38A1,1,0,0,1,10.69,15.94Zm3.25-3.1h-.42v2.79a.31.31,0,1,1-.61,0V12.84h-.42a.31.31,0,0,1,0-.62h1.45a.3.3,0,0,1,.31.31A.29.29,0,0,1,13.94,12.84Zm2.88,3.06H15.44a.35.35,0,0,1-.31-.38.27.27,0,0,1,0-.19l1.23-2a.33.33,0,0,0,.07-.23v0a.32.32,0,0,0-.3-.3.3.3,0,0,0-.31.3v.08a.31.31,0,1,1-.61,0V13.1a.92.92,0,0,1,1.84,0v.08a1.16,1.16,0,0,1-.2.58l-1,1.53h.92a.29.29,0,0,1,.3.3.28.28,0,0,1-.3.31Zm2.45-.73h-.12v.46a.31.31,0,1,1-.61,0v-.46H17.7a.31.31,0,0,1-.35-.34s0-.12,0-.15l1-2.34a.27.27,0,0,1,.27-.19.29.29,0,0,1,.3.3.15.15,0,0,1,0,.12L18,14.52h.46v-.3a.31.31,0,1,1,.62,0v.3h.11a.31.31,0,0,1,.31.31A.27.27,0,0,1,19.27,15.17Z"/><path class="cls-3" d="M3.91,9.08a.27.27,0,0,1-.27-.23L3.45,8.2H2.38l-.2.65a.28.28,0,0,1-.3.23.3.3,0,0,1-.31-.3V8.66l1-3.1c.11-.23.23-.27.38-.27a.35.35,0,0,1,.35.27l1,3.1v.12A.29.29,0,0,1,3.91,9.08Zm-1-2.64L2.57,7.59h.69ZM5.78,9.08h0A1.1,1.1,0,0,1,4.67,8V5.6a.31.31,0,0,1,.62,0V8a.46.46,0,0,0,.46.46h0A.44.44,0,0,0,6.24,8V5.6a.31.31,0,1,1,.62,0V8A1.1,1.1,0,0,1,5.78,9.08Zm3.3-3.14H8.66V8.78a.31.31,0,0,1-.62,0V5.94H7.62a.31.31,0,0,1,0-.61H9.08a.31.31,0,1,1,0,.61Zm1.8,3.14h0a1.06,1.06,0,0,1-1.07-1V6.36a1,1,0,0,1,1.07-1h0a1.06,1.06,0,0,1,1.07,1V8A1.07,1.07,0,0,1,10.88,9.08Zm.46-2.72a.41.41,0,0,0-.46-.42h0a.43.43,0,0,0-.46.42V8a.41.41,0,0,0,.46.42h0A.43.43,0,0,0,11.34,8Z"/></g></g></svg>