<?xml version="1.0" encoding="utf-8"?>
<!-- Generator: Adobe Illustrator 25.4.2, SVG Export Plug-In . SVG Version: 6.00 Build 0)  -->
<svg version="1.1" id="Calque_1" xmlns="http://www.w3.org/2000/svg" xmlns:xlink="http://www.w3.org/1999/xlink" x="0px" y="0px"
	 viewBox="0 0 224.85 224.82" style="enable-background:new 0 0 224.85 224.82;" xml:space="preserve">
<style type="text/css">
	.st0{fill:#FEFEFE;}
	.st1{fill:#E20513;}
	.st2{fill:#E10000;}
	.st3{fill:#E20B0D;}
	.st4{fill:#E20308;}
	.st5{fill:#E20209;}
	.st6{fill:#E10001;}
</style>
<g>
	<path class="st0" d="M224.85,112.93c0,36.11-0.04,72.23,0.07,108.34c0.01,2.87-0.44,3.63-3.53,3.63
		c-72.58-0.12-145.15-0.12-217.73,0c-3.33,0.01-3.73-1.01-3.72-3.92C0.02,148.59,0.02,76.19-0.07,3.8c0-3.02,0.56-3.87,3.78-3.87
		c72.41,0.11,144.82,0.12,217.23-0.02c3.6-0.01,4.01,0.95,3.99,4.19C224.8,40.37,224.85,76.65,224.85,112.93z"/>
	<path class="st1" d="M40.99,167.78c-1.63-1.57-1.38-2.58,0.43-4.12c11.07-9.43,22.22-18.78,33.22-28.29
		c7.16-6.19,14.52-12.18,21.44-18.67c4.63-4.34,9.76-8.14,14.66-12.19c1.97-0.03,2.75-1.85,4.12-2.77
		c2.77-4.63,7.61-7.07,11.41-10.6c5.75-5.34,11.86-10.32,17.98-15.25c8.35-6.72,15.53-15.22,26.65-17.79
		c2.64-0.11,5.26-0.5,7.89-0.74c3.74-0.34,5.11,1.11,4.99,4.58c-2.62,13.78-5.38,27.54-8.82,41.15c-0.5,2.25-2.3,4.26-1.22,6.8
		c-3.13,15.08-5.81,30.25-9.77,45.15c-1.18,0.83-0.29,2.27-0.95,3.26c-0.03,1.32,0.04,2.64-0.11,3.95
		c-0.52,4.32-2.21,6.96-7.36,6.16c-3.41-0.53-6.97-0.09-10.46-0.1c-6.34-0.02-6.53-0.26-5.08-6.58c4.77-20.85,9.55-41.69,14.3-62.54
		c0.24-1.03,1.1-2.11-0.22-3.52c-7.23,6.23-14.22,12.75-21.75,18.58c-5.79,4.48-10.99,9.61-16.81,14.08
		c-5.66,4.34-10.89,9.32-16.32,14.01c-5.78,4.98-11.59,9.91-17.53,14.69c-3.92,3.16-7.59,6.63-11.37,9.96
		c-7.79,0.86-15.6,0.12-23.39,0.39C44.93,167.43,42.91,166.93,40.99,167.78z"/>
	<path class="st2" d="M40.99,167.78c3.22-1.87,6.72-0.77,10.08-0.86c6.4-0.16,12.81,0.01,19.22,0.05c-0.43,0.83-1.19,1.2-2.03,1.19
		C59.17,168.07,50.07,168.79,40.99,167.78z"/>
	<path class="st3" d="M183.78,61.94c-1.01-5.05-4.88-4.05-8.33-3.92c-1.51,0.06-3,1.77-4.54,0.07c2.89-1.63,6.06-1.32,9.19-1.46
		C184.3,56.46,185.66,58.02,183.78,61.94z"/>
	<path class="st4" d="M173.74,109.89c-1.94-2.81,0.42-5.29,0.61-7.94c0.12,0.07,0.3,0.12,0.34,0.23c0.12,0.29,0.18,0.61,0.27,0.92
		C175.3,105.49,174.19,107.63,173.74,109.89z"/>
	<path class="st5" d="M114.87,101.75c-1.05,1.4-1.34,3.95-4.12,2.77C111.82,103.16,112.91,101.81,114.87,101.75z"/>
	<path class="st6" d="M163.01,158.29c-0.04-1.25-0.09-2.5-0.11-3.75c-0.01-0.62,0.31-0.78,0.75-0.37c0.2,0.18,0.21,0.57,0.31,0.87
		C163.95,156.21,164.36,157.51,163.01,158.29z"/>
</g>
</svg>
