<svg width="21" height="21" viewBox="0 0 21 21" fill="none" xmlns="http://www.w3.org/2000/svg">
<path d="M10.3488 5.18018C9.6028 5.18018 8.8736 5.44301 8.25336 5.93544C7.63313 6.42787 7.14971 7.12778 6.86425 7.94666C6.57878 8.76554 6.50409 9.66661 6.64962 10.5359C6.79515 11.4052 7.15436 12.2038 7.68183 12.8305C8.20929 13.4573 8.88133 13.8841 9.61295 14.057C10.3446 14.2299 11.1029 14.1412 11.7921 13.802C12.4812 13.4628 13.0703 12.8884 13.4847 12.1514C13.8992 11.4144 14.1204 10.548 14.1204 9.66164C14.1204 9.07313 14.0228 8.49037 13.8333 7.94666C13.6437 7.40294 13.3659 6.90891 13.0157 6.49277C12.6654 6.07662 12.2497 5.74652 11.7921 5.52131C11.3345 5.29609 10.844 5.18018 10.3488 5.18018V5.18018Z" fill="#1A2A37"/>
<path d="M2.20925 10.6498C2.20169 9.0131 2.51777 7.39723 3.13203 5.9323C3.74628 4.46737 4.64153 3.19436 5.74565 2.21582C1.15925 5.35983 -1.14235 11.0989 0.562848 15.7001C1.94045 19.423 5.60285 21.3494 9.57605 20.9402C7.5092 20.5714 5.62454 19.3262 4.27037 17.4346C2.9162 15.543 2.18405 13.1329 2.20925 10.6498V10.6498Z" fill="#1A2A37"/>
<path d="M20.4371 5.29991C18.8915 1.13784 14.5571 -0.77851 10.0127 0.309417C10.2395 0.309417 10.4579 0.309417 10.6847 0.309417C11.8165 0.330226 12.9338 0.61576 13.9728 1.14971C15.0117 1.68366 15.9519 2.45557 16.7398 3.42135C17.5276 4.38713 18.1476 5.52786 18.5644 6.7784C18.9811 8.02893 19.1865 9.36476 19.1687 10.7096C19.1645 12.964 18.5522 15.1574 17.4215 16.9677C20.5211 13.6939 21.8399 9.10267 20.4371 5.29991Z" fill="#1A2A37"/>
</svg>
