<svg xmlns="http://www.w3.org/2000/svg" viewBox="0 0 25 21.04"><defs><style>.cls-1{fill:#1a2a37;}</style></defs><g id="Calque_2" data-name="Calque 2"><g id="Calque_1-2" data-name="Calque 1"><path class="cls-1" d="M12.32,5.19a4.49,4.49,0,1,0,4.49,4.49A4.49,4.49,0,0,0,12.32,5.19Z"/><path class="cls-1" d="M2.63,10.67A10.47,10.47,0,0,1,6.84,2.22C1.38,5.37-1.36,11.12.67,15.73c1.64,3.73,6,5.66,10.73,5.25A10.3,10.3,0,0,1,2.63,10.67Z"/><path class="cls-1" d="M24.33,5.31c-1.84-4.17-7-6.09-12.41-5,.27,0,.53,0,.8,0a10.26,10.26,0,0,1,10.1,10.42A10.56,10.56,0,0,1,20.74,17C24.43,13.72,26,9.12,24.33,5.31Z"/></g></g></svg>