<svg xmlns="http://www.w3.org/2000/svg" width="21" height="20.035" viewBox="0 0 21 20.035">
  <g id="Groupe_7646" data-name="Groupe 7646" transform="translate(-225.397 -351.088)">
    <path id="Tracé_5009" data-name="Tracé 5009" d="M236.082,351.089a10.6,10.6,0,0,1,9.684,6.578,9.849,9.849,0,0,1-6.959,12.972,10.335,10.335,0,0,1-6.847-.572,1.957,1.957,0,0,0-1.45-.061c-1.153.347-2.313.671-3.469,1.008a1.238,1.238,0,0,1-1.4-.232c-.442-.481-.178-.967.048-1.407.429-.836.947-1.629,1.354-2.475a1.184,1.184,0,0,0,0-.966c-3.427-5.65-.2-12.726,6.274-14.424A25.485,25.485,0,0,1,236.082,351.089Zm-3.833,9.932a4.617,4.617,0,0,0,1,3.224,3.3,3.3,0,0,0,4.791.645,5.186,5.186,0,0,0,.675-7.091,3.459,3.459,0,0,0-5.508.162A4.466,4.466,0,0,0,232.249,361.02Z" fill="#0d6efd"/>
  </g>
</svg>
