<svg xmlns="http://www.w3.org/2000/svg" width="50.506" height="50.5" viewBox="0 0 50.506 50.5">
  <g id="Exhaustivité" transform="translate(-13.741 -13.75)">
    <path id="Tracé_5931" data-name="Tracé 5931" d="M31.434,232.945l-.959.96a.62.62,0,1,0,.876.877l2.018-2.018a.62.62,0,0,0,0-.877L31.35,229.87a.62.62,0,1,0-.876.877l.96.96H19.374a2.727,2.727,0,1,0,0,1.24Zm-14.715.868a1.488,1.488,0,1,1,1.487-1.487A1.488,1.488,0,0,1,16.719,233.813Z" transform="translate(0 -193.326)" fill="#f1334e" stroke="#f1334e" stroke-width="0.5"/>
    <path id="Tracé_5932" data-name="Tracé 5932" d="M325.5,229.6a2.731,2.731,0,0,0-2.655,2.107H310.79l.959-.96a.62.62,0,1,0-.876-.877l-2.018,2.018a.62.62,0,0,0,0,.877l2.018,2.018a.62.62,0,1,0,.876-.877l-.96-.96h12.06a2.726,2.726,0,1,0,2.655-3.347Zm0,4.214a1.488,1.488,0,1,1,1.488-1.487,1.488,1.488,0,0,1-1.488,1.487Z" transform="translate(-264.242 -193.328)" fill="#f1334e" stroke="#f1334e" stroke-width="0.5"/>
    <path id="Tracé_5933" data-name="Tracé 5933" d="M232.312,14a2.726,2.726,0,0,0-.62,5.382v12.06l-.96-.96a.62.62,0,1,0-.876.877l2.018,2.018a.62.62,0,0,0,.876,0l2.018-2.018a.62.62,0,1,0-.876-.877l-.96.96V19.382a2.726,2.726,0,0,0-.62-5.382Zm0,4.214a1.488,1.488,0,1,1,1.488-1.487,1.488,1.488,0,0,1-1.488,1.487Z" transform="translate(-193.321)" fill="#f1334e" stroke="#f1334e" stroke-width="0.5"/>
    <path id="Tracé_5934" data-name="Tracé 5934" d="M232.945,322.851V310.79l.96.96a.62.62,0,1,0,.876-.877l-2.018-2.018a.62.62,0,0,0-.876,0l-2.018,2.018a.62.62,0,0,0,.876.877l.96-.96v12.06a2.727,2.727,0,1,0,1.24,0Zm-.62,4.142a1.488,1.488,0,1,1,1.488-1.488A1.488,1.488,0,0,1,232.326,326.993Z" transform="translate(-193.335 -264.234)" fill="#f1334e" stroke="#f1334e" stroke-width="0.5"/>
    <path id="Tracé_5935" data-name="Tracé 5935" d="M291.67,92.16h2.853a.62.62,0,0,0,0-1.24h-1.357l8.528-8.553a2.725,2.725,0,1,0-.9-.9l-8.553,8.527V88.636a.62.62,0,0,0-1.24,0V91.49A.709.709,0,0,0,291.67,92.16Zm10.412-13.185a1.483,1.483,0,1,1-.437,1.052,1.488,1.488,0,0,1,.437-1.052Z" transform="translate(-248.393 -56.776)" fill="#f1334e" stroke="#f1334e" stroke-width="0.5"/>
    <path id="Tracé_5936" data-name="Tracé 5936" d="M91.5,291H88.649a.62.62,0,0,0,0,1.24h1.357l-8.528,8.553a2.725,2.725,0,1,0,.9.9l8.553-8.527v1.357a.62.62,0,1,0,1.24,0V291.67A.709.709,0,0,0,91.5,291ZM81.091,304.185a1.486,1.486,0,1,1,0-2.1A1.486,1.486,0,0,1,81.091,304.185Z" transform="translate(-56.797 -248.385)" fill="#f1334e" stroke="#f1334e" stroke-width="0.5"/>
    <path id="Tracé_5937" data-name="Tracé 5937" d="M301.695,300.793l-8.528-8.553h1.357a.62.62,0,0,0,0-1.24H291.67a.71.71,0,0,0-.67.67v2.853a.62.62,0,0,0,1.24,0v-1.357l8.553,8.522a2.727,2.727,0,0,0,.4,3.361h.006a2.8,2.8,0,0,0,1.931.8,2.732,2.732,0,1,0-1.436-5.06Zm2.491,3.392a1.489,1.489,0,0,1-2.1,0h0a1.488,1.488,0,1,1,2.1,0Z" transform="translate(-248.393 -248.385)" fill="#f1334e" stroke="#f1334e" stroke-width="0.5"/>
    <path id="Tracé_5938" data-name="Tracé 5938" d="M91.61,88.055a.62.62,0,0,0-.62.62v1.357l-8.553-8.522a2.727,2.727,0,0,0-.4-3.361h-.006a2.715,2.715,0,1,0-.5,4.257l8.528,8.552H88.707a.62.62,0,0,0,0,1.24H91.56a.709.709,0,0,0,.67-.67V88.675A.62.62,0,0,0,91.61,88.055ZM79.045,81.117a1.488,1.488,0,1,1,2.1,0A1.488,1.488,0,0,1,79.045,81.117Z" transform="translate(-56.855 -56.815)" fill="#f1334e" stroke="#f1334e" stroke-width="0.5"/>
  </g>
</svg>
