<svg xmlns="http://www.w3.org/2000/svg" width="30" height="25.256" viewBox="0 0 30 25.256">
  <g id="GroupWebsite" transform="translate(0 -40.484)">
    <path id="Tracé_5012" data-name="Tracé 5012" d="M27.835,40.484H2.165A2.165,2.165,0,0,0,0,42.649V46.6H30V42.649A2.165,2.165,0,0,0,27.835,40.484ZM3.755,44.477a.94.94,0,1,1,.94-.94A.94.94,0,0,1,3.755,44.477Zm3.823,0a.94.94,0,1,1,.94-.94A.94.94,0,0,1,7.578,44.477Zm4,0a.94.94,0,1,1,.94-.94A.94.94,0,0,1,11.574,44.477Z" transform="translate(0)" fill="#152543"/>
    <path id="Tracé_5013" data-name="Tracé 5013" d="M0,176.808v15.1a2.165,2.165,0,0,0,2.165,2.165h25.67A2.165,2.165,0,0,0,30,191.911v-15.1Zm9.887,6.973-1.222,3.557a.934.934,0,0,1-.867.63H7.781a.934.934,0,0,1-.872-.6l-.442-1.154-.386,1.124a.934.934,0,0,1-.867.63H5.2a.934.934,0,0,1-.872-.6l-1.361-3.557a.934.934,0,1,1,1.744-.668l.442,1.154.386-1.124a.937.937,0,0,1,1.755-.03l.442,1.154.386-1.124a.934.934,0,0,1,1.767.607Zm8.579,0-1.222,3.557a.934.934,0,0,1-.867.63h-.016a.934.934,0,0,1-.872-.6l-.442-1.154-.386,1.124a.934.934,0,0,1-.867.63h-.016a.934.934,0,0,1-.872-.6l-1.361-3.557a.934.934,0,1,1,1.744-.668l.442,1.154.386-1.124a.943.943,0,0,1,1.755-.03l.442,1.154.386-1.124a.934.934,0,0,1,1.767.607Zm8.58,0-1.223,3.557a.934.934,0,0,1-.867.63H24.94a.934.934,0,0,1-.872-.6l-.442-1.154-.386,1.124a.934.934,0,0,1-.867.63h-.016a.934.934,0,0,1-.872-.6l-1.361-3.557a.934.934,0,0,1,1.745-.668l.442,1.154.386-1.124a.937.937,0,0,1,1.755-.03l.442,1.154.386-1.124a.934.934,0,1,1,1.766.607Z" transform="translate(0 -128.336)" fill="#152543"/>
  </g>
</svg>
