<svg xmlns="http://www.w3.org/2000/svg" xmlns:xlink="http://www.w3.org/1999/xlink" width="21" height="21" viewBox="0 0 21 21"><defs><linearGradient id="a" x1="-19.904" y1="-19.731" x2="-19.904" y2="-20.731" gradientUnits="objectBoundingBox"><stop offset="0" stop-color="#c81623"/><stop offset="0.5" stop-color="#aa1314"/><stop offset="1" stop-color="#901106"/></linearGradient></defs><g transform="translate(-805.029 -139.579)"><path d="M807.947,145.608a1.151,1.151,0,0,0-.042.183q0,4.441-.008,8.886c0,.307.154.331.394.331,1.826-.007,3.652,0,5.479-.007a3.649,3.649,0,0,0,.387-.041c0-.425-.016-.828,0-1.226.014-.3-.107-.385-.393-.382-1.169.013-2.336,0-3.5,0-.159,0-.316-.014-.522-.023v-7.725Zm15.405,3.119c-.063-.557-.1-1.062-.182-1.557a1.684,1.684,0,0,0-1.426-1.48,10.317,10.317,0,0,0-4.581.123,1.945,1.945,0,0,0-1.538,1.629,15.146,15.146,0,0,0,.2,6.226,1.42,1.42,0,0,0,1.063,1.063,9.482,9.482,0,0,0,5.265.009,1.528,1.528,0,0,0,.821-.632,4.335,4.335,0,0,0,.419-2.464H821.56c0,.263.01.489,0,.711-.04.724-.209.995-.908,1.056a13.238,13.238,0,0,1-2.409-.026c-.593-.058-.794-.293-.817-.889-.06-1.385-.1-2.779-.075-4.166.016-.826.266-1.094,1.06-1.181a12.118,12.118,0,0,1,2.2-.009c.591.045.8.343.855.962.017.2.023.409.036.626Zm-7.823,11.852h-8.452a1.878,1.878,0,0,1-2.049-2.03q0-8.468.008-16.94a1.889,1.889,0,0,1,2.061-2.027q8.43,0,16.859,0a1.9,1.9,0,0,1,2.064,2.072q.005,8.425.007,16.847a1.892,1.892,0,0,1-2.092,2.079Z" transform="translate(0 0)" fill-rule="evenodd" fill="url(#a)"/><path d="M830.247,152.666h-1.855c-.013-.217-.019-.422-.036-.626-.051-.619-.264-.917-.854-.961a12.062,12.062,0,0,0-2.2.008c-.794.086-1.044.355-1.061,1.181-.024,1.387.016,2.78.075,4.165.024.6.225.831.817.889a13.252,13.252,0,0,0,2.41.026c.7-.061.867-.333.907-1.057.011-.221,0-.448,0-.711h1.837a4.32,4.32,0,0,1-.42,2.464,1.522,1.522,0,0,1-.821.632,9.483,9.483,0,0,1-5.264-.008,1.425,1.425,0,0,1-1.064-1.063,15.165,15.165,0,0,1-.2-6.226,1.946,1.946,0,0,1,1.539-1.629,10.317,10.317,0,0,1,4.581-.124,1.686,1.686,0,0,1,1.425,1.481C830.146,151.6,830.184,152.108,830.247,152.666Z" transform="translate(-6.894 -3.939)" fill="#fff" fill-rule="evenodd"/><path d="M809.856,149.627h1.8v7.726c.205.008.363.023.521.023,1.167,0,2.336.008,3.5,0,.285,0,.406.08.393.382-.019.4,0,.8,0,1.226a3.85,3.85,0,0,1-.387.042c-1.826,0-3.653,0-5.479.006-.24,0-.4-.024-.395-.33.009-2.963.007-5.926.008-8.886A.991.991,0,0,1,809.856,149.627Z" transform="translate(-1.909 -4.019)" fill="#fff" fill-rule="evenodd"/></g></svg>