<svg xmlns="http://www.w3.org/2000/svg" viewBox="0 0 21 21"><defs><style>.cls-1{fill:#c52127;}.cls-2{fill:#fff;}</style></defs><g id="Calque_2" data-name="Calque 2"><g id="Calque_1-2" data-name="Calque 1"><g id="Groupe_5592" data-name="Groupe 5592"><rect id="Rectangle_1586-2" data-name="Rectangle 1586-2" class="cls-1" width="21" height="21" rx="2"/></g><path class="cls-2" d="M12.78,4.16l-6,10.36h5.18a1.09,1.09,0,0,1-.09.21c-.39.65-.79,1.3-1.2,1.94a.4.4,0,0,1-.29.18l-8.17,0-.18,0a1.91,1.91,0,0,1,.13-.25q3.54-6.1,7.1-12.2a.43.43,0,0,1,.42-.26c.95,0,1.89,0,2.83,0Z"/><path class="cls-2" d="M14,8.25l-.93-1,2.51-2.89L17,5.73Z"/><path class="cls-2" d="M16.5,14.16h-.34v-.39h.34v-.15c0-.52.08-.85.62-.85a1.27,1.27,0,0,1,.34,0v.38l-.2,0c-.2,0-.23.14-.23.37v.23h.43v.39H17v2.71H16.5Z"/><path class="cls-2" d="M15.76,16.19v.68h-.52v-.68Z"/><path class="cls-2" d="M17.76,14h.53v.41a.71.71,0,0,1,.63-.44H19v.58a.88.88,0,0,0-.29-.06.46.46,0,0,0-.42.27v2.08h-.53Z"/></g></g></svg>