<svg id="LArgusReprise" xmlns="http://www.w3.org/2000/svg" width="30" height="30" viewBox="0 0 30 30">
  <g id="Groupe_5592" data-name="Groupe 5592">
    <rect id="Rectangle_1586-2" data-name="Rectangle 1586-2" width="30" height="30" rx="2" fill="#c52127"/>
  </g>
  <path id="Tracé_4996" data-name="Tracé 4996" d="M17.387,4.169l-8.571,14.8h7.4a1.557,1.557,0,0,1-.129.3c-.557.929-1.129,1.857-1.714,2.771a.571.571,0,0,1-.414.257H2.03a2.729,2.729,0,0,1,.186-.357Q7.273,13.226,12.359,4.512a.614.614,0,0,1,.6-.371H17Z" transform="translate(0.87 1.774)" fill="#fff"/>
  <path id="Tracé_4997" data-name="Tracé 4997" d="M14.4,9.917,13.07,8.489,16.656,4.36l2.029,1.957Z" transform="translate(5.601 1.869)" fill="#fff"/>
  <path id="Tracé_4998" data-name="Tracé 4998" d="M16.646,14.761H16.16V14.2h.486v-.214c0-.743.114-1.214.886-1.214a1.814,1.814,0,0,1,.486,0v.543h-.286c-.286,0-.329.2-.329.529v.329h.614v.557H17.36V18.6h-.714Z" transform="translate(6.926 5.468)" fill="#fff"/>
  <path id="Tracé_4999" data-name="Tracé 4999" d="M15.983,16.19v.971H15.24V16.19Z" transform="translate(6.531 6.939)" fill="#fff"/>
  <path id="Tracé_5000" data-name="Tracé 5000" d="M17.76,14.013h.757V14.6a1.014,1.014,0,0,1,.9-.629h.114V14.8a1.257,1.257,0,0,0-.414-.086.657.657,0,0,0-.6.386V18.07H17.76Z" transform="translate(7.611 5.987)" fill="#fff"/>
</svg>
