<svg xmlns="http://www.w3.org/2000/svg" xmlns:xlink="http://www.w3.org/1999/xlink" width="21" height="21.2" viewBox="0 0 21 21.2"><defs><filter id="a" x="0" y="0" width="21" height="21.2" filterUnits="userSpaceOnUse"><feOffset dy="0.2" input="SourceAlpha"/><feGaussianBlur result="b"/><feFlood flood-opacity="0.51"/><feComposite operator="in" in2="b"/><feComposite in="SourceGraphic"/></filter></defs><g transform="translate(-480 -1074)"><g transform="matrix(1, 0, 0, 1, 480, 1074)" filter="url(#a)"><rect width="21" height="21" rx="2" fill="#fff"/></g><path d="M2,0H14a0,0,0,0,1,0,0V12a2,2,0,0,1-2,2H0a0,0,0,0,1,0,0V2A2,2,0,0,1,2,0Z" transform="translate(487 1081)" fill="#ff6e15"/><path d="M14,0V12.25A1.75,1.75,0,0,1,12.25,14H0Z" transform="translate(487 1081)" fill="#94410c"/></g></svg>