<svg xmlns="http://www.w3.org/2000/svg" width="30" height="29.336" viewBox="0 0 30 29.336">
  <g id="Manufacturer" transform="translate(0 -2.789)">
    <path id="Tracé_5014" data-name="Tracé 5014" d="M61.466,120.846a1.314,1.314,0,0,0-.349.049l-.442.122-.651-1.586a2.811,2.811,0,0,0-2.405-1.612H50.474a2.811,2.811,0,0,0-2.4,1.612l-.65,1.583-.431-.119a1.314,1.314,0,0,0-.349-.049.952.952,0,0,0-.989.978A1.235,1.235,0,0,0,46.611,123a9.974,9.974,0,0,0-.539,2.919v3.375a1.308,1.308,0,0,0,1.307,1.306h.479a1.308,1.308,0,0,0,1.307-1.306v-.631h9.766v.631a1.308,1.308,0,0,0,1.306,1.306h.479a1.308,1.308,0,0,0,1.307-1.306v-3.375A9.979,9.979,0,0,0,61.483,123a1.236,1.236,0,0,0,.972-1.174A.952.952,0,0,0,61.466,120.846Zm-13.235,1.317,1.062-2.587a1.69,1.69,0,0,1,1.442-.967h6.623a1.69,1.69,0,0,1,1.442.967l1.062,2.587a.652.652,0,0,1-.648.967H48.879A.652.652,0,0,1,48.231,122.162Zm2.816,4.207a.524.524,0,0,1-.523.523H48.357a.524.524,0,0,1-.523-.523v-.864a.524.524,0,0,1,.523-.523h2.168a.524.524,0,0,1,.523.523Zm9.188,0a.524.524,0,0,1-.523.523H57.545a.524.524,0,0,1-.523-.523v-.864a.524.524,0,0,1,.523-.523h2.167a.524.524,0,0,1,.523.523Z" transform="translate(-39.052 -99.569)" fill="#576e98"/>
    <path id="Tracé_5015" data-name="Tracé 5015" d="M29.34,10.97,15.664,2.954a1.418,1.418,0,0,0-1.328,0L.66,10.97A1.437,1.437,0,0,0,0,12.123v19.11a.894.894,0,0,0,.893.893H2.429a.894.894,0,0,0,.893-.893V15.062a.3.3,0,0,1,.3-.3H26.381a.3.3,0,0,1,.3.3V31.233a.894.894,0,0,0,.893.893h1.537A.894.894,0,0,0,30,31.233V12.123A1.437,1.437,0,0,0,29.34,10.97Z" fill="#152543"/>
  </g>
</svg>
