<svg xmlns="http://www.w3.org/2000/svg" width="29.996" height="30" viewBox="0 0 29.996 30">
  <g id="MotorShow" transform="translate(0 -0.05)">
    <path id="Tracé_5001" data-name="Tracé 5001" d="M147.688,128.05h-.937v7.373a5.728,5.728,0,0,1-5.7,5.749H128v2.813a2.814,2.814,0,0,0,2.813,2.813h13.734l4.43,3.546a.951.951,0,0,0,.586.205.907.907,0,0,0,.4-.094.948.948,0,0,0,.533-.844V130.863a2.813,2.813,0,0,0-2.808-2.813Z" transform="translate(-120.5 -120.499)" fill="#576e98"/>
    <path id="Tracé_5002" data-name="Tracé 5002" d="M20.625.05H3.75A3.754,3.754,0,0,0,0,3.8V22.554a.935.935,0,0,0,.938.938.905.905,0,0,0,.6-.217L6.9,18.8H20.625a3.754,3.754,0,0,0,3.75-3.751V3.8A3.754,3.754,0,0,0,20.625.05Z" fill="#152543"/>
    <g id="Groupe_7367" data-name="Groupe 7367" transform="translate(5.625 5.676)">
      <path id="Tracé_5003" data-name="Tracé 5003" d="M108.188,96.05H96.938a.938.938,0,0,0,0,1.875h11.25a.938.938,0,0,0,0-1.875Z" transform="translate(-96 -96.05)" fill="#fafafa"/>
      <path id="Tracé_5004" data-name="Tracé 5004" d="M104.438,160.05h-7.5a.938.938,0,0,0,0,1.875h7.5a.938.938,0,0,0,0-1.875Z" transform="translate(-96 -156.299)" fill="#fafafa"/>
    </g>
  </g>
</svg>
