<svg xmlns="http://www.w3.org/2000/svg" width="21" height="21" viewBox="0 0 21 21">
  <g id="MotorK" transform="translate(-952 -55)">
    <path id="Tracé_4156" data-name="Tracé 4156" d="M961.188,75.995q-4.487,0-8.973.005c-.18,0-.215-.035-.215-.215q.009-10.285,0-20.57c0-.18.035-.215.215-.215q10.285.009,20.57,0c.18,0,.215.035.215.215q-.01,5.09-.005,10.18c-.25-.1-.366-.341-.531-.523-.791-.872-1.565-1.758-2.343-2.641-.449-.51-.881-1.037-1.347-1.531a9.865,9.865,0,0,0-1.108-1.178.479.479,0,0,0-.469-.313c-.882,0-1.764-.005-2.645.011a.947.947,0,0,0-.812.453c-.132.205-.264.41-.4.61a13.19,13.19,0,0,1-.838,1.251A14.442,14.442,0,0,1,961.34,60.3c-.227-.224-.364-.536-.671-.681a.687.687,0,0,0-.731-.421c-.655.008-1.31,0-1.965,0s-.826.178-.826.822q0,5.423,0,10.846a.783.783,0,0,0,.423.816.15.15,0,0,0,.032.167c.388.437.77.878,1.159,1.313.615.69,1.243,1.367,1.843,2.07A2.529,2.529,0,0,1,961.188,75.995Z" fill="#c62128"/>
    <path id="Tracé_4157" data-name="Tracé 4157" d="M1061.417,157.588a2.529,2.529,0,0,0-.589-.757c-.6-.7-1.228-1.38-1.843-2.07-.388-.436-.771-.877-1.159-1.313a.15.15,0,0,1-.032-.167c.8,0,1.608.007,2.412,0,.487,0,.682-.2.711-.677.006-.1,0-.21,0-.315,0-1.163,0-2.325,0-3.488,0-.2.062-.266.269-.275a1.231,1.231,0,0,1,1.219.819q.791,1.606,1.581,3.213a1.034,1.034,0,0,0,.787.66,17.492,17.492,0,0,0,2.93.039.429.429,0,0,0,.349-.61,1.863,1.863,0,0,0-.139-.31c-.65-1.224-1.3-2.449-1.956-3.668a5.938,5.938,0,0,0-1.216-1.814.279.279,0,0,1-.059-.438c1.006-1.571,2-3.15,3-4.723a1.161,1.161,0,0,0,.207-.581,9.864,9.864,0,0,1,1.108,1.178c.467.494.9,1.021,1.347,1.531.778.883,1.552,1.77,2.343,2.641.165.182.281.424.531.523q0,5.189.005,10.378c0,.191-.042.227-.229.227Q1067.209,157.583,1061.417,157.588Z" transform="translate(-100.229 -81.593)" fill="#9c161a"/>
    <path id="Tracé_4158" data-name="Tracé 4158" d="M1060.476,135.324a1.163,1.163,0,0,1-.207.581c-1,1.573-2,3.152-3,4.723a.279.279,0,0,0,.059.438,5.935,5.935,0,0,1,1.216,1.815c.658,1.22,1.306,2.445,1.956,3.668a1.854,1.854,0,0,1,.139.31.429.429,0,0,1-.349.61,17.5,17.5,0,0,1-2.93-.039,1.034,1.034,0,0,1-.787-.66q-.789-1.607-1.581-3.213a1.231,1.231,0,0,0-1.219-.819c-.207.009-.27.071-.269.275.008,1.163,0,2.325,0,3.488,0,.1,0,.21,0,.315-.029.482-.225.674-.711.677-.8,0-1.608,0-2.412,0a.783.783,0,0,1-.423-.816q.01-5.423,0-10.846c0-.644.181-.821.826-.822s1.31.006,1.965,0a.687.687,0,0,1,.731.421c.008.383.021.765.023,1.148,0,.932,0,1.865,0,2.8,0,.1-.045.234.1.261a.3.3,0,0,0,.362-.126c.271-.446.56-.88.836-1.322a4.584,4.584,0,0,0,.5-.845,13.191,13.191,0,0,0,.838-1.251c.139-.2.271-.405.4-.61a.947.947,0,0,1,.812-.453c.882-.016,1.764-.012,2.645-.011A.479.479,0,0,1,1060.476,135.324Z" transform="translate(-92.811 -75.803)" fill="#fdfbfb"/>
    <path id="Tracé_4159" data-name="Tracé 4159" d="M1118.958,144.93a4.583,4.583,0,0,1-.5.845c-.276.443-.565.877-.836,1.322a.3.3,0,0,1-.363.126c-.146-.028-.1-.165-.1-.261,0-.933,0-1.865,0-2.8,0-.383-.015-.765-.023-1.148.306.145.444.457.671.681A14.443,14.443,0,0,0,1118.958,144.93Z" transform="translate(-156.461 -83.396)" fill="#9c161a"/>
  </g>
</svg>
