<svg xmlns="http://www.w3.org/2000/svg" width="16" height="21" viewBox="0 0 16 21"><g transform="translate(-904.029 -139.58)"><path d="M914.395,144.081H909.62v.715h5.563v-4.688c.442.225.794.377,1.116.574a7.245,7.245,0,0,1,2.939,8.831,7.415,7.415,0,0,1-8.255,4.483c-.458-.088-.674-.234-.652-.757.044-1.177.013-2.356.013-3.619h4.816v-.745H909.6v4.694a7.206,7.206,0,0,1-3.376-10.689,7.128,7.128,0,0,1,7.365-3.217c.814.1.812.124.812.964C914.395,141.747,914.395,142.865,914.395,144.081Z" transform="translate(-0.363 0)" fill="#f20706" fill-rule="evenodd"/><path d="M906.464,169.743c-.725-.017-1.417.14-1.417.748a.534.534,0,0,0,.584.575.828.828,0,0,0,.8-.551.66.66,0,0,0,.033-.221Zm.133,1.957-.064-.443h-.027a1.52,1.52,0,0,1-1.2.533,1.2,1.2,0,0,1-1.276-1.193c0-1.009.91-1.52,2.41-1.511v-.068c0-.263-.109-.7-.824-.7a2.174,2.174,0,0,0-1.095.3l-.2-.658a2.955,2.955,0,0,1,1.469-.352,1.506,1.506,0,0,1,1.674,1.685v1.447a6.315,6.315,0,0,0,.058.962Z" transform="translate(0 -11.21)" fill="#043a8b"/><path d="M915.086,170.56c0,.476.016.871.034,1.2h-.9l-.05-.609h-.018a1.467,1.467,0,0,1-1.3.7c-.742,0-1.417-.436-1.417-1.742v-2.353h1.024v2.18c0,.666.218,1.094.759,1.094a.864.864,0,0,0,.785-.543.941.941,0,0,0,.057-.313v-2.417h1.026v2.8Z" transform="translate(-2.903 -11.27)" fill="#043a8b"/><path d="M920.176,165.847v1.144h.978v.757h-.978v1.768c0,.485.134.74.529.74a1.523,1.523,0,0,0,.4-.049l.016.773a2.27,2.27,0,0,1-.742.1,1.194,1.194,0,0,1-.883-.329,1.579,1.579,0,0,1-.317-1.12v-1.882h-.584v-.757h.584v-.9Z" transform="translate(-5.709 -10.507)" fill="#043a8b"/><path d="M924.627,169.7c0,.772.385,1.356,1.009,1.356.584,0,.993-.567.993-1.374,0-.626-.284-1.341-.983-1.341C924.92,168.343,924.627,169.035,924.627,169.7Zm3.06-.041a2,2,0,0,1-2.083,2.129,1.95,1.95,0,0,1-2.036-2.064,1.99,1.99,0,0,1,2.1-2.12A1.932,1.932,0,0,1,927.687,169.661Z" transform="translate(-7.658 -11.21)" fill="#043a8b"/></g></svg>