<svg xmlns="http://www.w3.org/2000/svg" xmlns:xlink="http://www.w3.org/1999/xlink" width="21" height="21.2" viewBox="0 0 21 21.2"><defs><filter id="a" x="0" y="0" width="21" height="21.2" filterUnits="userSpaceOnUse"><feOffset dy="0.2" input="SourceAlpha"/><feGaussianBlur result="b"/><feFlood flood-opacity="0.51"/><feComposite operator="in" in2="b"/><feComposite in="SourceGraphic"/></filter></defs><g transform="translate(-469 -826)"><g transform="matrix(1, 0, 0, 1, 469, 826)" filter="url(#a)"><rect width="21" height="21" rx="2" fill="#fff"/></g><g transform="translate(446.459 819.046)"><path d="M34.871,21.208c-.394,0-.8.024-1.206-.014a.486.486,0,0,1-.35-.293c-.4-2.957-.779-5.917-1.163-8.876-.042-.325-.084-.65-.132-1.019h2.234l.634,6.087.082-.007c.2-1.855.413-3.709.587-5.568.042-.443.189-.592.631-.56.527.038,1.058.008,1.63.008l-1.04,7.83" transform="translate(0.28 0)"/><path d="M26.541,11.009c1.292,0,2.549-.006,3.806,0a1.291,1.291,0,0,1,1.252.909,6.584,6.584,0,0,1,.407,1.582,8.506,8.506,0,0,1-.283,3.727,4.076,4.076,0,0,1-.489.958,1.4,1.4,0,0,1-1.282.653c-.419-.017-.84,0-1.3,0v2.3H26.541Zm2.127,5.033c.411-.02.824.174,1.106-.245a1.917,1.917,0,0,0-.007-1.631c-.3-.382-.707-.182-1.1-.19Z" transform="translate(0 0.003)" fill="#ee1c24"/><circle cx="2.44" cy="2.44" r="2.44" transform="translate(35.238 18.748)" fill="#ee1c24"/><path d="M38.135,19.806l-1.366,1.366-.5-.5a.236.236,0,0,0-.333.334l.666.666a.235.235,0,0,0,.167.069.232.232,0,0,0,.166-.069l1.534-1.534a.236.236,0,0,0-.333-.333Z" transform="translate(0.477 0.449)" fill="#fff"/></g></g></svg>