<svg xmlns="http://www.w3.org/2000/svg" width="50" height="50" viewBox="0 0 50 50">
  <g id="Professionnalisme" transform="translate(-2 -2)">
    <path id="Tracé_5939" data-name="Tracé 5939" d="M12.833,50h-.022a4.123,4.123,0,0,0,.855-2.5V44.847A2.5,2.5,0,0,0,15.333,42.5V40.833A.833.833,0,0,0,14.5,40H7.833a2.5,2.5,0,0,0-2.5,2.5v5A4.123,4.123,0,0,0,6.188,50H6.167A4.172,4.172,0,0,0,2,54.167V57.5a.833.833,0,0,0,.833.833H16.167A.833.833,0,0,0,17,57.5V54.167A4.172,4.172,0,0,0,12.833,50ZM7,42.5a.833.833,0,0,1,.833-.833h5.833V42.5a.833.833,0,0,1-.833.833H7Zm0,5V45h5v2.5a2.5,2.5,0,1,1-5,0Zm8.333,9.167H13.667v-2.5H12v2.5H7v-2.5H5.333v2.5H3.667v-2.5a2.5,2.5,0,0,1,2.5-2.5h6.667a2.5,2.5,0,0,1,2.5,2.5Z" transform="translate(0 -6.333)" fill="#f1334e"/>
    <path id="Tracé_5940" data-name="Tracé 5940" d="M33.833,50h-.022a4.123,4.123,0,0,0,.855-2.5V44.847A2.5,2.5,0,0,0,36.333,42.5V40.833A.833.833,0,0,0,35.5,40H28.833a2.5,2.5,0,0,0-2.5,2.5v5a4.123,4.123,0,0,0,.855,2.5h-.022A4.172,4.172,0,0,0,23,54.167V57.5a.833.833,0,0,0,.833.833H37.167A.833.833,0,0,0,38,57.5V54.167A4.172,4.172,0,0,0,33.833,50ZM28,42.5a.833.833,0,0,1,.833-.833h5.833V42.5a.833.833,0,0,1-.833.833H28Zm0,5V45h5v2.5a2.5,2.5,0,0,1-5,0Zm8.333,9.167H34.667v-2.5H33v2.5H28v-2.5H26.333v2.5H24.667v-2.5a2.5,2.5,0,0,1,2.5-2.5h6.667a2.5,2.5,0,0,1,2.5,2.5Z" transform="translate(-3.5 -6.333)" fill="#f1334e"/>
    <path id="Tracé_5941" data-name="Tracé 5941" d="M23.833,20.333H37.167A.833.833,0,0,0,38,19.5V16.167A4.172,4.172,0,0,0,33.833,12h-.022a4.123,4.123,0,0,0,.855-2.5V6.847A2.5,2.5,0,0,0,36.333,4.5V2.833A.833.833,0,0,0,35.5,2H28.833a2.5,2.5,0,0,0-2.5,2.5v5a4.123,4.123,0,0,0,.855,2.5h-.022A4.172,4.172,0,0,0,23,16.167V19.5a.833.833,0,0,0,.833.833ZM28,4.5a.833.833,0,0,1,.833-.833h5.833V4.5a.833.833,0,0,1-.833.833H28Zm0,5V7h5V9.5a2.5,2.5,0,0,1-5,0Zm-3.333,6.667a2.5,2.5,0,0,1,2.5-2.5h6.667a2.5,2.5,0,0,1,2.5,2.5v2.5H34.667v-2.5H33v2.5H28v-2.5H26.333v2.5H24.667Z" transform="translate(-3.5)" fill="#f1334e"/>
    <path id="Tracé_5942" data-name="Tracé 5942" d="M54.833,50h-.022a4.123,4.123,0,0,0,.855-2.5V44.847A2.5,2.5,0,0,0,57.333,42.5V40.833A.833.833,0,0,0,56.5,40H49.833a2.5,2.5,0,0,0-2.5,2.5v5a4.123,4.123,0,0,0,.855,2.5h-.022A4.172,4.172,0,0,0,44,54.167V57.5a.833.833,0,0,0,.833.833H58.167A.833.833,0,0,0,59,57.5V54.167A4.172,4.172,0,0,0,54.833,50ZM49,42.5a.833.833,0,0,1,.833-.833h5.833V42.5a.833.833,0,0,1-.833.833H49Zm0,5V45h5v2.5a2.5,2.5,0,1,1-5,0Zm8.333,9.167H55.667v-2.5H54v2.5H49v-2.5H47.333v2.5H45.667v-2.5a2.5,2.5,0,0,1,2.5-2.5h6.667a2.5,2.5,0,0,1,2.5,2.5Z" transform="translate(-7 -6.333)" fill="#f1334e"/>
    <path id="Tracé_5943" data-name="Tracé 5943" d="M11.667,31.833h14.32A2.5,2.5,0,0,0,27.5,33.347V36h1.667V33.347a2.5,2.5,0,0,0,1.513-1.513H45V36h1.667V31a.833.833,0,0,0-.833-.833H30.68a2.5,2.5,0,0,0-1.513-1.513V26H27.5v2.653a2.5,2.5,0,0,0-1.513,1.513H10.833A.833.833,0,0,0,10,31v5h1.667Zm16.667-1.667A.833.833,0,1,1,27.5,31,.833.833,0,0,1,28.333,30.167Z" transform="translate(-1.333 -4)" fill="#f1334e"/>
  </g>
</svg>
