<svg xmlns="http://www.w3.org/2000/svg" width="21" height="21" viewBox="0 0 21 21">
  <g id="Promoneuve" transform="translate(-343.851 -1035)">
    <rect id="Rectangle_2189" data-name="Rectangle 2189" width="21" height="21" rx="2" transform="translate(343.851 1035)" fill="#0091ff"/>
    <g id="Groupe_7287" data-name="Groupe 7287" transform="translate(345.883 1039.065)">
      <path id="Path" d="M6.125,13.027A2.616,2.616,0,0,1,3.6,11.084H2.709a2.573,2.573,0,0,1-2.666-1.8c-.053-.207-.212-.838.743-3.19A2.783,2.783,0,0,1,2.174,4.578a15.656,15.656,0,0,1,6.277-1.25A20.837,20.837,0,0,1,12.683.773,8.743,8.743,0,0,1,16.269,0h.665V1.108H16.27a7.638,7.638,0,0,0-3.132.676A19.7,19.7,0,0,0,9.008,4.3l-.155.13h-.2A14.617,14.617,0,0,0,2.635,5.585a1.678,1.678,0,0,0-.82.924,6.279,6.279,0,0,0-.7,2.5,1.473,1.473,0,0,0,1.592.968H4.594l.029.523a1.5,1.5,0,0,0,3.005,0l.029-.523h9.278v1.108H8.655a2.616,2.616,0,0,1-2.531,1.943Z" transform="translate(0 0)" fill="#fff"/>
      <path id="Path-2" data-name="Path" d="M114.1,70.194H109A1.161,1.161,0,0,1,110.125,69H114.1Z" transform="translate(-97.167 -61.51)" fill="#fff"/>
      <path id="Path-3" data-name="Path" d="M135.5,25.194H133A1.151,1.151,0,0,1,134.1,24h1.4Z" transform="translate(-118.561 -21.395)" fill="#fff"/>
      <path id="Path-4" data-name="Path" d="M124.8,47.194H121A1.158,1.158,0,0,1,122.117,46H124.8Z" transform="translate(-107.864 -41.006)" fill="#fff"/>
    </g>
  </g>
</svg>
