<svg xmlns="http://www.w3.org/2000/svg" width="14.302" height="14.523" viewBox="0 0 14.302 14.523">
    <defs>
        <style>
            .cls-1{fill:#757575;stroke:#757575;stroke-width:.3px}
        </style>
    </defs>
    <g id="Groupe_5656" data-name="Groupe 5656" transform="translate(-598.207 -765.292)">
        <g id="Groupe_308" data-name="Groupe 308" transform="translate(598.358 768.19)">
            <path id="Tracé_2551" d="M-9.068-14.717a6.977 6.977 0 0 1-4.948-2.043 7 7 0 0 1-.438-9.432l.671.56a6.125 6.125 0 0 0 .383 8.252 6.114 6.114 0 0 0 7.581.845l.467.739a6.889 6.889 0 0 1-3.716 1.079" class="cls-1" data-name="Tracé 2551" transform="translate(16.072 26.193)"/>
        </g>
        <g id="Groupe_309" data-name="Groupe 309" transform="translate(598.385 767.846)">
            <path id="Tracé_2552" d="M-3.385-3.371h-.872v-1.753H-6V-6h2.615z" class="cls-1" data-name="Tracé 2552" transform="translate(6 6)"/>
        </g>
        <g id="Groupe_310" data-name="Groupe 310" transform="translate(601.638 765.665)">
            <path id="Tracé_2553" d="M-11.783-14.717l-.67-.56a6.125 6.125 0 0 0-.384-8.252 6.114 6.114 0 0 0-7.581-.845l-.468-.739a6.986 6.986 0 0 1 8.665.965 7 7 0 0 1 .437 9.432" class="cls-1" data-name="Tracé 2553" transform="translate(20.885 26.192)"/>
        </g>
        <g id="Groupe_311" data-name="Groupe 311" transform="translate(609.716 774.856)">
            <path id="Tracé_2554" d="M-3.385-3.371H-6V-6h.872v1.752h1.743z" class="cls-1" data-name="Tracé 2554" transform="translate(6 6)"/>
        </g>
    </g>
</svg>
