<svg xmlns="http://www.w3.org/2000/svg" width="50.109" height="50.209" viewBox="0 0 50.109 50.209">
  <g id="Simplicité" transform="translate(0.059 0.159)">
    <path id="Tracé_6195" data-name="Tracé 6195" d="M36.9,8.3a4.867,4.867,0,0,0-4.639-3.456V3.226a6.489,6.489,0,0,1,6.184,4.609ZM24.2,46.775h1.613V45.162H24.194Zm3.226,0h1.613V45.162h-1.62Zm-20.968,0H8.065V45.162H6.452Zm3.226,0H11.29V45.162H9.677ZM44.758,38.71H50V50H35.484V35.484H37.9V29.033H22.581v6.452H24.6l2.419,3.226h5.242V50H17.742V35.484h3.226V29.033H5.645v6.452h1.21L9.274,38.71h5.242V50H0V35.484H4.032V27.42H20.968V23.387H7.258A7.24,7.24,0,0,1,4.9,9.3,6.817,6.817,0,0,1,8.1,8.93,9.675,9.675,0,0,1,25.011,3.282,9.659,9.659,0,0,1,41.9,8.934a7.462,7.462,0,0,1,1.97.022,7.26,7.26,0,0,1-1.126,14.431H27.419V21.775H42.742A5.647,5.647,0,1,0,37.8,13.4l-1.41-.782A7.2,7.2,0,0,1,40.3,9.3,8.039,8.039,0,0,0,26,4.628a9.769,9.769,0,0,1,.762,1.531l-1.5.587A8.072,8.072,0,0,0,9.977,11.878l-1.551.439a9.717,9.717,0,0,1-.319-1.751,5.166,5.166,0,0,0-2.652.243,5.628,5.628,0,0,0,1.8,10.966H22.581V27.42H39.516v8.065h2.823ZM12.9,48.387V43.549H1.613v4.839Zm0-8.065H1.613v1.613H12.9ZM6.048,37.1H1.613v1.61H7.258Zm24.6,11.29V43.549H19.355v4.839Zm0-8.065H19.355v1.613h11.29ZM23.79,37.1H19.355v1.61H25ZM37.1,38.71h5.645L41.532,37.1H37.1Zm11.29,9.677V43.549H37.1v4.839Zm0-8.065H37.1v1.613H48.39Zm-6.452,6.452h1.613V45.162H41.935Zm3.226,0h1.613V45.162H45.161Zm0,0" fill="#f1334e" stroke="#f1334e" stroke-width="0.1"/>
  </g>
</svg>
