<svg xmlns="http://www.w3.org/2000/svg" xmlns:xlink="http://www.w3.org/1999/xlink" width="21" height="21" viewBox="0 0 21 21">
  <defs>
    <linearGradient id="linear-gradient" x1="0.96" y1="0.039" x2="0.038" y2="0.974" gradientUnits="objectBoundingBox">
      <stop offset="0" stop-color="#016db8"/>
      <stop offset="1" stop-color="#00266f"/>
    </linearGradient>
  </defs>
  <g id="SNDiffusion" transform="translate(-343.851 -1035)">
    <rect id="Rectangle_2189" data-name="Rectangle 2189" width="21" height="21" rx="2" transform="translate(343.851 1035)" fill="url(#linear-gradient)"/>
    <g id="Groupe_7638" data-name="Groupe 7638" transform="translate(249.99 121.401)">
      <path id="Tracé_5006" data-name="Tracé 5006" d="M95.86,1051.828a.7.7,0,0,1,.469-.365,2.708,2.708,0,0,1,.593-.086q7.427-.009,14.854-.008h.138a.789.789,0,0,1-.478.347,3.172,3.172,0,0,1-.745.114q-7.36.007-14.72,0Z" transform="translate(0 -124.796)" fill="#ffc700"/>
      <path id="Tracé_5007" data-name="Tracé 5007" d="M108.66,985.441a.523.523,0,0,1-.454.3,2.922,2.922,0,0,1-.312.011h-2.143c-.1,0-.193,0-.29.014a.384.384,0,0,0-.349.254c-.03.075-.064.149-.1.244h.158c.71,0,1.421-.009,2.131,0a2,2,0,0,1,.495.063.356.356,0,0,1,.277.485,1.011,1.011,0,0,1-.787.756,3.823,3.823,0,0,1-.893.108c-1.153.012-2.306.005-3.459,0-.011,0-.022,0-.047-.006a.333.333,0,0,1,.206-.23,1.514,1.514,0,0,1,.432-.085c.766-.008,1.533,0,2.3,0l.19,0a.448.448,0,0,0,.465-.311c.024-.065.053-.128.088-.211h-.136c-.751,0-1.5,0-2.254-.011a1.839,1.839,0,0,1-.419-.056.321.321,0,0,1-.275-.445,1.014,1.014,0,0,1,.791-.792,2.521,2.521,0,0,1,.628-.085c1.227-.009,2.455-.006,3.683-.007C108.6,985.433,108.622,985.437,108.66,985.441Z" transform="translate(-6.728 -61.63)" fill="#fff"/>
      <path id="Tracé_5008" data-name="Tracé 5008" d="M343.34,985.677l-.3.7c-.148.345-.3.689-.443,1.034a.247.247,0,0,1-.236.172c-.143,0-.286,0-.448,0,.09-.214.17-.408.253-.6q.3-.7.6-1.393c.093-.217.15-.255.389-.255.532,0,1.064,0,1.6,0a.288.288,0,0,1,.225.093q.867.868,1.739,1.73c.026.026.055.049.1.085.026-.056.05-.1.071-.153.223-.522.448-1.044.668-1.568a.267.267,0,0,1,.264-.184c.137,0,.274,0,.424,0a.968.968,0,0,1-.028.094c-.281.655-.566,1.309-.842,1.966a.283.283,0,0,1-.3.2c-.55-.008-1.1-.005-1.651,0a.279.279,0,0,1-.216-.089q-.871-.872-1.746-1.738C343.413,985.737,343.381,985.713,343.34,985.677Z" transform="translate(-235.714 -61.536)" fill="#fff"/>
      <path id="Tracé_5009" data-name="Tracé 5009" d="M232.99,958.475l.077,1.115h1.715a.7.7,0,0,1-.067.046c-.495.236-.989.473-1.486.705a.153.153,0,0,0-.11.174c.033.393.058.786.084,1.179,0,.055,0,.111,0,.183-.1-.071-.2-.135-.3-.2-.3-.21-.6-.418-.9-.634a.177.177,0,0,0-.209-.021q-1.231.592-2.465,1.178a.41.41,0,0,1-.056.013l1.794-1.822-1.1-.775,0-.021h.116c.554,0,1.109,0,1.663,0a.232.232,0,0,0,.185-.077c.317-.327.638-.65.956-.976a.728.728,0,0,0,.064-.088Z" transform="translate(-127.81 -35.784)" fill="#ffc700"/>
      <path id="Tracé_5010" data-name="Tracé 5010" d="M175.316,923a5.667,5.667,0,0,0,1.319-.124c-.14-.1-.263-.185-.388-.269a10.007,10.007,0,0,0-1.794-.963,2.874,2.874,0,0,0-1.046-.2c-1.078-.018-2.157-.019-3.236-.025-.365,0-.729.006-1.094,0a2.614,2.614,0,0,1-.943-.248c-.015-.006-.027-.022-.061-.052a1.054,1.054,0,0,1,.112-.015q2.444,0,4.888,0a4.86,4.86,0,0,1,2.416.652c.414.233.841.445,1.254.679a3.768,3.768,0,0,0,1.757.432c.587.023,1.174.048,1.76.093a3.856,3.856,0,0,1,1.352.3c.148.069.285.162.427.245l-.015.033a.332.332,0,0,1-.069-.006,6.734,6.734,0,0,0-1.819-.236c-1.067-.017-2.135,0-3.2-.007a4.191,4.191,0,0,1-1.521-.249C175.38,923.029,175.348,923.014,175.316,923Z" transform="translate(-69.179)" fill="#fff"/>
      <path id="Tracé_5011" data-name="Tracé 5011" d="M121.239,935.087a1.2,1.2,0,0,1,.493-.587,18.034,18.034,0,0,0,1.525-1.143,1.078,1.078,0,0,1,.71-.306l.055,0-1.238,1.234,2.7.421v.033h-.111c-.937,0-1.875-.008-2.812,0a2.279,2.279,0,0,0-1.213.281Z" transform="translate(-24.313 -11.448)" fill="#fff"/>
    </g>
  </g>
</svg>
