<?xml version="1.0" encoding="UTF-8" standalone="no"?>
<svg
   version="1.0"
   width="200.000000pt"
   height="200.000000pt"
   viewBox="0 0 200.000000 200.000000"
   preserveAspectRatio="xMidYMid meet"
   id="svg8"
   sodipodi:docname="media-exp1.licdn.svg"
   inkscape:version="1.1.1 (3bf5ae0d25, 2021-09-20)"
   xmlns:inkscape="http://www.inkscape.org/namespaces/inkscape"
   xmlns:sodipodi="http://sodipodi.sourceforge.net/DTD/sodipodi-0.dtd"
   xmlns="http://www.w3.org/2000/svg"
   xmlns:svg="http://www.w3.org/2000/svg">
  <defs
     id="defs12" />
  <sodipodi:namedview
     id="namedview10"
     pagecolor="#ffffff"
     bordercolor="#666666"
     borderopacity="1.0"
     inkscape:pageshadow="2"
     inkscape:pageopacity="0.0"
     inkscape:pagecheckerboard="0"
     inkscape:document-units="pt"
     showgrid="false"
     inkscape:zoom="1.95"
     inkscape:cx="133.33333"
     inkscape:cy="133.07692"
     inkscape:window-width="1080"
     inkscape:window-height="1857"
     inkscape:window-x="1912"
     inkscape:window-y="-1"
     inkscape:window-maximized="1"
     inkscape:current-layer="svg8" />
  <g
     transform="translate(0.000000,200.000000) scale(0.100000,-0.100000)"
     fill="#000000"
     stroke="none"
     id="g6"
     style="fill:#d62612;fill-opacity:1">
    <path
       d="M820 1040 l-440 -880 219 0 219 0 263 443 c144 243 301 507 349 587 281 469 421 711 415 720 -4 6 -111 10 -296 10 l-289 0 -440 -880z"
       id="path2"
       style="fill:#d62612;fill-opacity:1" />
    <path
       d="M42 1178 c22 -62 58 -162 80 -223 22 -60 62 -171 88 -245 27 -74 68 -187 90 -250 23 -63 44 -123 47 -132 3 -10 8 -18 12 -18 3 0 59 109 124 243 l119 242 -50 245 -49 245 -251 3 -251 2 41 -112z"
       id="path4"
       style="fill:#d62612;fill-opacity:1" />
  </g>
</svg>
