<svg xmlns="http://www.w3.org/2000/svg" width="281.659" height="223.689" viewBox="0 0 281.659 223.689">
  <g id="XLeads_-_visuel_1" data-name="XLeads - visuel 1" transform="translate(3448.157 1180.633)">
    <g id="Groupe_6549" data-name="Groupe 6549" transform="translate(-3448.157 -1180.633)">
      <g id="Groupe_6548" data-name="Groupe 6548" transform="translate(50.42 50.143)">
        <g id="Groupe_6547" data-name="Groupe 6547">
          <path id="Tracé_6103" data-name="Tracé 6103" d="M589.436,265.392l0,.013a80.737,80.737,0,0,1-11.047,28.041,81.793,81.793,0,0,1-69.17,38.075h-55.14a81.714,81.714,0,0,1-59.149-25.335q-1-1.043-1.957-2.126A82.594,82.594,0,0,1,374.9,270.551a81.1,81.1,0,0,1-2.322-12.616c-.01-.1-.02-.2-.031-.306a142.609,142.609,0,0,1-.61-22.317c.888-15.724,4.851-29.38,12.52-39.563,8.922-11.85,22.864-18.992,42.81-19.213.828-.008,1.663-.008,2.507.005,54.96.829,53.131,25.891,98.145,36.889,10.287,2.514,23.022,4.3,39.444,4.88.369.013.733.031,1.092.056C591.516,219.842,593.995,241.449,589.436,265.392Z" transform="translate(-371.747 -176.532)" fill="#f1d1d1" opacity="0.6"/>
          <path id="Tracé_6104" data-name="Tracé 6104" d="M568.492,221.522c-15.574,8.133-39.906,16.838-69.211,13.664-44.478-4.815-100.466-14.133-127.306,3.282.888-15.724,4.851-29.38,12.52-39.563,9.394-2.18,21.342-2.27,36.43,1.627,32.694,8.443,75.145,17.665,107.031,16.054,10.287,2.514,23.022,4.3,39.444,4.88C567.769,221.479,568.133,221.5,568.492,221.522Z" transform="translate(-371.781 -179.687)" fill="#fff" opacity="0.5" style="mix-blend-mode: screen;isolation: isolate"/>
          <path id="Tracé_6105" data-name="Tracé 6105" d="M590,279.917a80.738,80.738,0,0,1-11.047,28.041c-11.26,3.389-26.239,4.636-45.642.4C485.9,298,433.907,298.186,395.489,320.7q-1-1.043-1.957-2.126a82.594,82.594,0,0,1-18.066-33.508c13.424-6.36,47.048-18.713,90.389-8.82C511.562,286.675,563.958,294.966,590,279.917Z" transform="translate(-372.309 -191.044)" fill="#fff" opacity="0.5" style="mix-blend-mode: screen;isolation: isolate"/>
        </g>
      </g>
      <path id="Tracé_6106" data-name="Tracé 6106" d="M312.348,139.416a3.913,3.913,0,0,0,3.892,3.9h83.289a3.906,3.906,0,0,0,3.892-3.9,3.914,3.914,0,0,0-3.892-3.9h-3.936a10.154,10.154,0,0,0-16.524-3.146,14.1,14.1,0,0,0-16.249-6.349,16.12,16.12,0,0,0-29.776,3.254,10.156,10.156,0,0,0-14.3,6.242H316.24A3.906,3.906,0,0,0,312.348,139.416Z" transform="translate(-312.348 -117.459)" fill="#ebd8d8" opacity="0.6"/>
      <path id="Tracé_6107" data-name="Tracé 6107" d="M510.416,162.154a2.537,2.537,0,0,1-2.524,2.526h-54a2.522,2.522,0,0,1-1.781-4.31,2.5,2.5,0,0,1,1.781-.744h2.552a6.584,6.584,0,0,1,10.714-2.039,9.146,9.146,0,0,1,10.537-4.118A10.452,10.452,0,0,1,497,155.58a6.583,6.583,0,0,1,9.269,4.046h1.626A2.533,2.533,0,0,1,510.416,162.154Z" transform="translate(-333.361 -122.063)" fill="#ebd8d8" opacity="0.6"/>
      <path id="Tracé_6108" data-name="Tracé 6108" d="M589.656,195.623l.688-3.5-3.283-.644a8.023,8.023,0,0,0-.434-2.564l2.7-1.816-1.991-2.964-2.588,1.739a8,8,0,0,0-2.658-1.788l.644-3.283-3.5-.688-.664,3.383a7.975,7.975,0,0,0-2.132.416l-1.817-2.706-2.964,1.991,1.739,2.589a7.991,7.991,0,0,0-1.788,2.658l-2.87-.564-.688,3.5,2.97.583a7.968,7.968,0,0,0,.631,2.7l-2.59,1.739,1.991,2.963,2.705-1.817a7.982,7.982,0,0,0,2.61,1.517l-.649,3.3,3.5.687.7-3.58a7.966,7.966,0,0,0,2.268-.6l1.739,2.589,2.963-1.991-1.817-2.7a7.992,7.992,0,0,0,1.191-1.817Zm-8.8-1.4a3.272,3.272,0,1,1,.891-4.541A3.277,3.277,0,0,1,580.857,194.219Z" transform="translate(-351 -126.929)" fill="#f1d1d1"/>
      <path id="Tracé_6109" data-name="Tracé 6109" d="M370.809,200.593l.688-3.5-3.283-.644a8.016,8.016,0,0,0-.434-2.564l2.7-1.817-1.991-2.964-2.588,1.739a8.012,8.012,0,0,0-2.658-1.788l.644-3.283-3.5-.687-.664,3.383a7.94,7.94,0,0,0-2.132.415l-1.817-2.705-2.964,1.991,1.739,2.588a7.991,7.991,0,0,0-1.788,2.658l-2.87-.564-.688,3.5,2.97.583a7.962,7.962,0,0,0,.632,2.7l-2.59,1.739,1.991,2.963,2.705-1.817a7.978,7.978,0,0,0,2.61,1.516l-.649,3.3,3.5.688.7-3.58a7.938,7.938,0,0,0,2.268-.6l1.739,2.589,2.963-1.991-1.817-2.705a7.994,7.994,0,0,0,1.191-1.817Zm-8.8-1.4a3.272,3.272,0,1,1,.891-4.541A3.275,3.275,0,0,1,362.01,199.19Z" transform="translate(-317.919 -127.681)" fill="#f1d1d1"/>
      <path id="Tracé_6110" data-name="Tracé 6110" d="M613.585,201.777l.375-1.914-1.794-.352a4.382,4.382,0,0,0-.238-1.4l1.478-.993-1.088-1.62-1.414.951a4.363,4.363,0,0,0-1.452-.977l.352-1.794-1.915-.376-.362,1.85a4.368,4.368,0,0,0-1.165.227l-.993-1.479-1.62,1.088.951,1.415a4.367,4.367,0,0,0-.977,1.452l-1.568-.308-.377,1.915,1.624.318a4.353,4.353,0,0,0,.345,1.477l-1.415.951,1.088,1.62,1.479-.993a4.361,4.361,0,0,0,1.426.829l-.355,1.8,1.915.376.385-1.957a4.325,4.325,0,0,0,1.239-.327l.951,1.415,1.62-1.088-.993-1.478a4.354,4.354,0,0,0,.65-.993Zm-4.81-.767a1.788,1.788,0,1,1,.487-2.482A1.79,1.79,0,0,1,608.776,201.011Z" transform="translate(-356.098 -128.923)" fill="#f1d1d1"/>
      <path id="Tracé_6111" data-name="Tracé 6111" d="M541.676,147.171a3.737,3.737,0,0,0,3.716,3.72h79.53a3.714,3.714,0,0,0,2.622-6.347,3.677,3.677,0,0,0-2.622-1.094h-3.759a9.7,9.7,0,0,0-15.778-3,13.468,13.468,0,0,0-15.516-6.063,15.393,15.393,0,0,0-28.433,3.107,9.7,9.7,0,0,0-13.65,5.961h-2.394A3.729,3.729,0,0,0,541.676,147.171Z" transform="translate(-347.013 -118.781)" fill="#ebd8d8" opacity="0.6"/>
    </g>
    <path id="Tracé_6112" data-name="Tracé 6112" d="M597.557,370.874c0,4.116-58.59,7.454-130.863,7.454S335.83,374.99,335.83,370.874s58.59-7.454,130.863-7.454S597.557,366.758,597.557,370.874Z" transform="translate(-3764.054 -1335.271)" fill="#f1d1d1" opacity="0.6"/>
    <g id="Groupe_6557" data-name="Groupe 6557" transform="translate(-3397.078 -1047.668)">
      <path id="Tracé_6125" data-name="Tracé 6125" d="M589.558,277.087l-.026.05-17.039,32.33-6.482-11.8-80.358,44.126-12.964-23.611L400.4,357.875H372.523l105.468-57.916,12.967,23.611,68.6-37.667-6.479-11.8Z" transform="translate(-372.523 -274.102)" fill="#ffac00"/>
      <path id="Tracé_6126" data-name="Tracé 6126" d="M591.655,277.677l-17.039,32.33-6.482-11.8-80.358,44.125-12.964-23.611-72.287,39.694H386.57l90.185-49.524L489.721,332.5Z" transform="translate(-374.646 -274.643)" fill="#fa8a00"/>
    </g>
    <g id="Groupe_6590" data-name="Groupe 6590" transform="translate(-3375.503 -1160.183)">
      <g id="Groupe_6560" data-name="Groupe 6560" transform="translate(34.568 90.252)">
        <g id="Groupe_6559" data-name="Groupe 6559" transform="translate(0 50.105)">
          <path id="Tracé_6127" data-name="Tracé 6127" d="M451.191,306.9l-4.667,3.212a7.241,7.241,0,0,0,1.816,4.405l5.517-3.646Z" transform="translate(-439.851 -306.901)" fill="#fda893"/>
          <g id="Groupe_6558" data-name="Groupe 6558" transform="translate(0 2.061)">
            <path id="Tracé_6128" data-name="Tracé 6128" d="M447.795,313.185a1.805,1.805,0,0,1,.3,2.539c-.457.716-1.659,8.162-1.285,10.409s-1.323,2.412-2.255,2.32-5.892-16.859-5.892-16.859,4.705-2.249,6.392-2.266S446.835,311.674,447.795,313.185Z" transform="translate(-438.663 -309.329)" fill="#f1334e"/>
          </g>
        </g>
        <path id="Tracé_6129" data-name="Tracé 6129" d="M487.688,251.915s-.508,27.389-3.42,32.795-30.8,18.407-30.8,18.407a12.482,12.482,0,0,1-2.54-5.342s7.859-6.906,10.968-10.031A67.456,67.456,0,0,1,473.46,279l-.708-31.121Z" transform="translate(-440.517 -247.874)" fill="#370000"/>
        <path id="Tracé_6130" data-name="Tracé 6130" d="M451.615,304.932a16.813,16.813,0,0,0-2.6,1.906s1.578,5.242,4.278,5.87l2.019-1.281S452.429,307.866,451.615,304.932Z" transform="translate(-440.227 -256.499)" fill="#620404"/>
      </g>
      <g id="Groupe_6563" data-name="Groupe 6563" transform="translate(64.879 78.725)">
        <g id="Groupe_6562" data-name="Groupe 6562" transform="translate(62.188 49.374)">
          <path id="Tracé_6131" data-name="Tracé 6131" d="M547.634,294.879l2.923,4.855a7.253,7.253,0,0,0,4.508-1.545l-3.3-5.728Z" transform="translate(-547.634 -292.461)" fill="#fda893"/>
          <g id="Groupe_6561" data-name="Groupe 6561" transform="translate(2.509 3.645)">
            <path id="Tracé_6132" data-name="Tracé 6132" d="M554.013,297.866a1.806,1.806,0,0,1,2.466-.678c.776.344,8.317.415,10.484-.291s3.451,1.428,2.631,1.882c-4.421,2.449-15.784,8.354-15.784,8.354s-2.93-4.315-3.2-5.98S552.663,299.041,554.013,297.866Z" transform="translate(-550.59 -296.755)" fill="#f1334e"/>
          </g>
        </g>
        <path id="Tracé_6133" data-name="Tracé 6133" d="M489.81,234.295s30.707,11.844,34.712,16.535,17.423,33.746,17.423,33.746-2.252,4.1-5.431,3.286c0,0-6.845-10.083-9.268-13.962-2.533-4.056-8.471-8.909-11.347-17.651a279.614,279.614,0,0,1-28.911-2.624c-8.411-1.37-14.25-7.41-12.207-15.684.005-.019.011-.041.019-.065a1.454,1.454,0,0,1,1.123-.973Z" transform="translate(-474.371 -234.295)" fill="#620404"/>
        <path id="Tracé_6134" data-name="Tracé 6134" d="M545.718,295.069a13.962,13.962,0,0,0,1.673,2.373s4-1.077,5.978-4.125l-1.034-2.047A35.368,35.368,0,0,1,545.718,295.069Z" transform="translate(-485.156 -242.907)" fill="#820000"/>
      </g>
      <g id="Groupe_6569" data-name="Groupe 6569" transform="translate(92.75 22.818)">
        <g id="Groupe_6568" data-name="Groupe 6568" transform="translate(39.258)">
          <path id="Tracé_6135" data-name="Tracé 6135" d="M564.651,168.446c-.973-.216-4.986,2.213-5.16,2.254s-.989-.179-1.811-.233-1.294.235-1.895,1.373a16.665,16.665,0,0,0-1.064,3.086c-.383.183-.81.38-1.266.585q1.03,1.835,2.182,3.6c.689-.45,1.311-.862,1.833-1.214a2.016,2.016,0,0,0,1.191.055c.988-.289,1.827-.609,2.315-.806.291-.122.46-.2.46-.2a.1.1,0,0,1,.015.01,2.141,2.141,0,0,0,1.469-.1c1.018-.343,1.671-1.134,1.653-1.642s-.626-.763-.626-.763a1.247,1.247,0,0,0,.357-.934c-.058-.539-1.017-1-1.017-1a.939.939,0,0,0-.016-1.1c-.4-.5-1.631.047-1.734.091C561.708,171.392,565.6,168.657,564.651,168.446Z" transform="translate(-553.455 -168.432)" fill="#fda893"/>
          <g id="Groupe_6567" data-name="Groupe 6567" transform="translate(3.462 3.129)">
            <g id="Groupe_6564" data-name="Groupe 6564">
              <path id="Tracé_6136" data-name="Tracé 6136" d="M557.775,174.279a.227.227,0,0,1-.221-.322l.443-.965a.227.227,0,0,1,.318-.1,2.939,2.939,0,0,0,2.015.306.822.822,0,0,0,.54-.385.475.475,0,0,0-.01-.365.229.229,0,0,1,.1-.3.225.225,0,0,1,.3.1.929.929,0,0,1,.026.741,1.226,1.226,0,0,1-.823.647,3.16,3.16,0,0,1-2.157-.234l-.345.752A.226.226,0,0,1,557.775,174.279Z" transform="translate(-557.533 -172.118)" fill="#fd896b"/>
            </g>
            <g id="Groupe_6565" data-name="Groupe 6565" transform="translate(2.784 0.902)">
              <path id="Tracé_6137" data-name="Tracé 6137" d="M562.564,177.673l-.017-.009s-.166.075-.459.194a2.363,2.363,0,0,1-.55-1.471,1.677,1.677,0,0,0-.323-1.007,1.409,1.409,0,0,1-.385-.82,2.013,2.013,0,0,1,.05-.747c.019-.08.04-.154.061-.218a2.231,2.231,0,0,1,.118-.289.227.227,0,1,1,.4.205s-.009.02-.022.05a1.96,1.96,0,0,0-.167.858,1.009,1.009,0,0,0,.27.649,2.062,2.062,0,0,1,.446,1.266A1.734,1.734,0,0,0,562.564,177.673Z" transform="translate(-560.814 -173.18)" fill="#fd896b"/>
            </g>
            <g id="Groupe_6566" data-name="Groupe 6566" transform="translate(1.031 1.238)">
              <path id="Tracé_6138" data-name="Tracé 6138" d="M558.99,176.256a.227.227,0,0,1-.125-.425h0a2.767,2.767,0,0,0,1.367-2.036.227.227,0,0,1,.454.018,3.178,3.178,0,0,1-1.6,2.415A.216.216,0,0,1,558.99,176.256Z" transform="translate(-558.748 -173.577)" fill="#fd896b"/>
            </g>
          </g>
        </g>
        <path id="Tracé_6139" data-name="Tracé 6139" d="M549.233,180.064s-12.627,8.088-16.265,8.717-14.808-.98-14.808-.98a31.943,31.943,0,0,1-3.386-.416c-3.383-.619-5.366-1.74-6.527-3.209-1.94-2.445-.775-5.984.322-8.788,0,0,1.76,1.4,10.605,3.251,0,0,12.575,2.446,13.251,2.574,0,0,9.47-3.074,14.713-5.4C547.139,175.812,548.273,179.417,549.233,180.064Z" transform="translate(-507.206 -169.483)" fill="#f1334e"/>
        <path id="Tracé_6140" data-name="Tracé 6140" d="M554.047,175.385l-1.686.752,2.53,5.114,1.581-.877Z" transform="translate(-514.032 -169.483)" fill="#c11c1c"/>
        <path id="Tracé_6141" data-name="Tracé 6141" d="M514.828,187.631c-3.383-.619-5.366-1.74-6.527-3.209-.748-3.119-1.215-6.549.033-7.4A107.923,107.923,0,0,0,514.828,187.631Z" transform="translate(-507.26 -169.73)" fill="#c11c1c"/>
      </g>
      <g id="Groupe_6577" data-name="Groupe 6577" transform="translate(0 26.839)">
        <g id="Groupe_6576" data-name="Groupe 6576" transform="translate(0 35.978)">
          <g id="Groupe_6570" data-name="Groupe 6570" transform="translate(0 0)">
            <rect id="Rectangle_1496" data-name="Rectangle 1496" width="33.18" height="51.411" rx="2.44" transform="matrix(0.417, -0.909, 0.909, 0.417, 0, 30.155)" fill="#370000"/>
            <path id="Tracé_6142" data-name="Tracé 6142" d="M452.213,253.316,458.782,239a2.071,2.071,0,0,0-1.018-2.746l-42.959-19.719a2.069,2.069,0,0,0-2.746,1.018l-6.57,14.311Z" transform="translate(-399.081 -215.674)" fill="#620404"/>
          </g>
          <g id="Groupe_6572" data-name="Groupe 6572" transform="translate(30.574 2.207)">
            <g id="Groupe_6571" data-name="Groupe 6571">
              <path id="Tracé_6143" data-name="Tracé 6143" d="M449.139,225.526l-1.922,4.186-2.124-.972,1.867-4.069-2.063-.946-.1-.047-1.253-.576-.155-.07-5.436-2.5-1.869,4.069-2.124-.976,1.922-4.186a2.211,2.211,0,0,1,2.928-1.087l5.1,2.339.383.176.71.327.149.068,2.906,1.334A2.21,2.21,0,0,1,449.139,225.526Z" transform="translate(-433.958 -218.154)" fill="#ffac00"/>
            </g>
            <path id="Tracé_6144" data-name="Tracé 6144" d="M446.474,224.13l-1.253-.576-.155-.07a18.446,18.446,0,0,1,.52-2.337l.383.176.71.327A11.168,11.168,0,0,0,446.474,224.13Z" transform="translate(-435.637 -218.606)" fill="#fa8a00"/>
            <rect id="Rectangle_1497" data-name="Rectangle 1497" width="1.656" height="2.337" transform="matrix(0.417, -0.909, 0.909, 0.417, 0.001, 5.474)" fill="#fa8a00"/>
            <rect id="Rectangle_1498" data-name="Rectangle 1498" width="1.656" height="2.337" transform="matrix(0.417, -0.909, 0.909, 0.417, 11.135, 10.585)" fill="#fa8a00"/>
          </g>
          <g id="Groupe_6575" data-name="Groupe 6575" transform="translate(14.045 17.725)">
            <g id="Groupe_6573" data-name="Groupe 6573" transform="translate(0 0)">
              <path id="Rectangle_1499" data-name="Rectangle 1499" d="M.53,0H4.973A.53.53,0,0,1,5.5.53v2.2a.53.53,0,0,1-.53.53H.533A.533.533,0,0,1,0,2.727V.53A.53.53,0,0,1,.53,0Z" transform="translate(0 5.001) rotate(-65.342)" fill="#fa8a00"/>
              <path id="Tracé_6145" data-name="Tracé 6145" d="M419.759,238.233l-.959,2.09-2.963-1.361.959-2.089a.452.452,0,0,1,.6-.224l2.144.985A.451.451,0,0,1,419.759,238.233Z" transform="translate(-414.689 -236.461)" fill="#ffac00"/>
            </g>
            <g id="Groupe_6574" data-name="Groupe 6574" transform="translate(26.191 12.023)">
              <rect id="Rectangle_1500" data-name="Rectangle 1500" width="5.503" height="3.263" rx="0.53" transform="matrix(0.417, -0.909, 0.909, 0.417, 0, 5.001)" fill="#fa8a00"/>
              <path id="Tracé_6146" data-name="Tracé 6146" d="M450.617,252.4l-.959,2.089-2.965-1.361.959-2.09a.451.451,0,0,1,.6-.224l2.148.986A.45.45,0,0,1,450.617,252.4Z" transform="translate(-445.545 -250.626)" fill="#ffac00"/>
            </g>
          </g>
        </g>
        <path id="Tracé_6147" data-name="Tracé 6147" d="M447.913,220.817a14.06,14.06,0,0,1-1.367-.627.569.569,0,0,0-.087-.477.586.586,0,0,0-.951,0,4.758,4.758,0,0,0-.727,2.209l.616.312s-.562.7-1.056.576a.81.81,0,0,1-.583-.889s-.342.607-.853.4a.941.941,0,0,1-.517-.825.779.779,0,0,1-1.177-.441s-.844.329-1.008-.4.918-2.95.918-2.95a23.851,23.851,0,0,1,3.344-5.8c.289-.64.64-1.4,1.031-2.247.859.605,1.755,1.16,2.617,1.759q.78.539,1.56,1.075c-.783,1.037-1.437,1.884-1.858,2.425a10.186,10.186,0,0,1-.014,1.76C447.668,217.715,448.36,219.693,447.913,220.817Z" transform="translate(-404.325 -178.683)" fill="#fda893"/>
        <path id="Tracé_6148" data-name="Tracé 6148" d="M470.688,191.143l11.241-4.6s4.675-8.056,1.844-13.376c0,0-11.57,5.318-17.482,8.635,0,0-8.837,4.784-11.8,8.062l-9.2,15.584s2.759,3.168,4.649,2.963c3.408-4.63,8.174-11.279,9.1-13.489Z" transform="translate(-405.097 -173.169)" fill="#f1334e"/>
        <path id="Tracé_6149" data-name="Tracé 6149" d="M445.554,209.92a2.89,2.89,0,0,0-1.243,1.939l5.1,3.329a6.191,6.191,0,0,0,1.363-1.86Z" transform="translate(-404.949 -178.724)" fill="#c11c1c"/>
      </g>
      <g id="Groupe_6580" data-name="Groupe 6580" transform="translate(65.062 23.453)">
        <path id="Tracé_6150" data-name="Tracé 6150" d="M503.1,222.3a28.831,28.831,0,0,0,0,7.831c-4.585-1.82-11.423-5.245-17.956-2.373a17.637,17.637,0,0,1-10.469,1,41.047,41.047,0,0,1,1.012-12.065c1.526-6.052,3.037-13.626,3.569-16.61.45-2.52.889-4.905,1.312-7.125q.4-2.087.785-3.969h0c1.477-7.192,2.127-13.362,3.266-14.3,3.216-2.66,10.645-5.28,10.645-5.28l4.984,1.393s5.326,4.117,5.274,7.116c-.471,26.452-1.174,26.635-1.685,34.678A74.408,74.408,0,0,1,503.1,222.3Z" transform="translate(-474.588 -169.215)" fill="#f1334e"/>
        <g id="Groupe_6578" data-name="Groupe 6578" transform="translate(5.105 39.682)">
          <path id="Tracé_6151" data-name="Tracé 6151" d="M481.069,224.595l-.156-.011a.339.339,0,0,1,.051-.677l.087.006c.785.054,7.044.421,11.494-1.234a22.307,22.307,0,0,0,9.118-6.615.339.339,0,1,1,.542.407,22.571,22.571,0,0,1-9.425,6.843C488.253,225,482.145,224.669,481.069,224.595Z" transform="translate(-480.602 -215.928)" fill="#c11c1c"/>
        </g>
        <g id="Groupe_6579" data-name="Groupe 6579" transform="translate(7.195 48.359)">
          <path id="Tracé_6152" data-name="Tracé 6152" d="M497.11,226.49a.336.336,0,0,0-.5-.3c-2.735,1.5-7.747,3.615-13.159,2.811a.339.339,0,0,0-.1.671,16.9,16.9,0,0,0,2.036.176,23.593,23.593,0,0,0,11.548-3.067.334.334,0,0,0,.173-.3Z" transform="translate(-483.063 -226.152)" fill="#c11c1c"/>
        </g>
        <path id="Tracé_6153" data-name="Tracé 6153" d="M491.44,187.723a36.3,36.3,0,0,1-9.592,7.063c.267-1.392.56-2.829.817-4.082h0l.548-.2Z" transform="translate(-475.685 -171.983)" fill="#c11c1c"/>
        <path id="Tracé_6154" data-name="Tracé 6154" d="M506.409,210.662l-3.049,8.973-3.749-8.568,2.712-29.307.073-1.143,1.373-.145.135,1.549Z" transform="translate(-478.37 -170.887)" fill="#fff"/>
        <path id="Tracé_6155" data-name="Tracé 6155" d="M504.387,182.021l-.686.795-.9-1.056.073-1.143,1.373-.145Z" transform="translate(-478.853 -170.887)" fill="#ededed"/>
        <path id="Tracé_6156" data-name="Tracé 6156" d="M505.044,177.436l-1.642,3.553-2.564-3.8,2.564-3.121Z" transform="translate(-478.555 -169.919)" fill="#fff"/>
        <path id="Tracé_6157" data-name="Tracé 6157" d="M496.547,173.7a6.459,6.459,0,0,1-.068-3.151,2.551,2.551,0,0,1,.252-.709c.632-1.016,2.071-.556,2.071-.556.7,2.987,3.916,4.043,3.916,4.043l-3.069,4.939S497.6,177.6,496.547,173.7Z" transform="translate(-477.872 -169.181)" fill="#c11c1c"/>
        <path id="Tracé_6158" data-name="Tracé 6158" d="M505.786,170.889s1.912,1.81,1.351,3.969l-.872,3.667-2.406-4.939A10.577,10.577,0,0,0,505.786,170.889Z" transform="translate(-479.012 -169.439)" fill="#c11c1c"/>
      </g>
      <g id="Groupe_6589" data-name="Groupe 6589" transform="translate(79.945 0)">
        <g id="Groupe_6581" data-name="Groupe 6581" transform="translate(5.841 19.803)">
          <path id="Tracé_6159" data-name="Tracé 6159" d="M506.476,166.341l-1.022,3.173-.652,2.025c-.116.36-.655,1.226-1.033,1.21A6.305,6.305,0,0,1,499,170.09l.7-4.933a18.977,18.977,0,0,1,2.791-.278h0Z" transform="translate(-499.001 -164.88)" fill="#fda893"/>
          <path id="Tracé_6160" data-name="Tracé 6160" d="M507.024,166.341,506,169.514a7.594,7.594,0,0,1-3.373-4.619c.137-.006.274-.011.415-.014Z" transform="translate(-499.549 -164.88)" fill="#fd896b"/>
        </g>
        <path id="Tracé_6161" data-name="Tracé 6161" d="M511.02,152.258a41.3,41.3,0,0,1,.462,5.379.072.072,0,0,0,0,.02v0c0,.411-.015.8-.046,1.154-.018.207-.04.424-.069.648-.048.4-.08.858-.118,1.338,0,.025,0,.05-.005.077A19.074,19.074,0,0,1,510.99,163V163a8.718,8.718,0,0,1-.224.911c-.053.166-.109.328-.177.486-.858,2.086-1.488,3.751-6.763.227-2.426-1.621-5.165-1.1-6.315-4.054l-.02-.051,0-.009a30.419,30.419,0,0,1-1.5-5.637,4.439,4.439,0,0,1,1.508-4.13c3.24-2.752,7.219-2.712,9.928-2.222A4.422,4.422,0,0,1,511.02,152.258Z" transform="translate(-492.696 -142.566)" fill="#fda893"/>
        <g id="Groupe_6582" data-name="Groupe 6582" transform="translate(16.458 21.008)">
          <path id="Tracé_6162" data-name="Tracé 6162" d="M513.12,166.64c-.053.165-.109.328-.177.486a1.637,1.637,0,0,1-.242,0,2.446,2.446,0,0,1-1.1-.407.232.232,0,1,1,.272-.375,1.986,1.986,0,0,0,.864.321A1.473,1.473,0,0,0,513.12,166.64Z" transform="translate(-511.509 -166.299)" fill="#fd896b"/>
        </g>
        <path id="Tracé_6163" data-name="Tracé 6163" d="M502.338,161.309a2.678,2.678,0,0,0,1.519-1.123s-.2,2.382-2.1,2.365Z" transform="translate(-493.576 -144.368)" fill="#fd896b"/>
        <path id="Tracé_6164" data-name="Tracé 6164" d="M511.414,147.9c1.557-1.687,1.564-4.451-.816-4.826-4.035-.637-6.338-1.434-8.785-1.52s-3.664,2.681-6.182,3.38-4.107,5.093-3.3,7.59c.121.374.236.718.348,1.045a31.406,31.406,0,0,0,4.853,8.931q.121.157.227.3c.149.2,1.4.507,2.608-1.491a5.706,5.706,0,0,0,.97-2.962c-2.4-.318-4.2-3.3-3.137-4.866a1.9,1.9,0,0,1,1.108-.614,2.733,2.733,0,0,1,2.865,1.6c.294.893.5,1.539.5,1.539l1.388.112a21.34,21.34,0,0,1-.716-3.113c-.034-.829,1.224-.531,1.008-2.1s-1.579-1.77-.991-2.378,4.573-.125,5.731.524S511.414,147.9,511.414,147.9Z" transform="translate(-492.12 -141.551)" fill="#20363c"/>
        <g id="Groupe_6585" data-name="Groupe 6585" transform="translate(6.773 12.695)">
          <g id="Groupe_6584" data-name="Groupe 6584">
            <g id="Groupe_6583" data-name="Groupe 6583">
              <path id="Tracé_6165" data-name="Tracé 6165" d="M502.552,158.516a.2.2,0,0,1-.218-.109,3.122,3.122,0,0,0-2.069-1.5.2.2,0,0,1,.07-.4,3.479,3.479,0,0,1,2.36,1.718.2.2,0,0,1-.143.289Z" transform="translate(-500.099 -156.507)" fill="#fd896b"/>
            </g>
          </g>
        </g>
        <g id="Groupe_6588" data-name="Groupe 6588" transform="translate(7.507 13.257)">
          <g id="Groupe_6587" data-name="Groupe 6587">
            <g id="Groupe_6586" data-name="Groupe 6586">
              <path id="Tracé_6166" data-name="Tracé 6166" d="M501.2,158.222a.2.2,0,0,1-.225-.274,1.835,1.835,0,0,1,.631-.742.2.2,0,0,1,.231.331,1.452,1.452,0,0,0-.487.562A.2.2,0,0,1,501.2,158.222Z" transform="translate(-500.964 -157.169)" fill="#fd896b"/>
            </g>
          </g>
        </g>
        <path id="Tracé_6167" data-name="Tracé 6167" d="M512.342,156.135c.085.446-.076.851-.36.9s-.582-.264-.666-.71.076-.851.359-.9S512.257,155.689,512.342,156.135Z" transform="translate(-495.018 -143.647)" fill="#20363c"/>
        <path id="Tracé_6168" data-name="Tracé 6168" d="M508.6,153.858a5.855,5.855,0,0,1,3.756-.853l.009.946a10.717,10.717,0,0,0-3.576.98A1.621,1.621,0,0,1,508.6,153.858Z" transform="translate(-494.607 -143.27)" fill="#20363c"/>
        <path id="Tracé_6169" data-name="Tracé 6169" d="M513.91,155.991a14.822,14.822,0,0,1,1.558,3.818c.058.688-1.79,1.148-1.79,1.148Z" transform="translate(-495.379 -143.733)" fill="#fda893"/>
        <path id="Tracé_6170" data-name="Tracé 6170" d="M513.464,163.031c0,.025,0,.05-.005.077a19.059,19.059,0,0,1-.254,2.122c-.053,0-.105.007-.16.008a2.417,2.417,0,0,1-2.461-2.1Z" transform="translate(-494.911 -144.798)" fill="#fff"/>
      </g>
    </g>
    <g id="Groupe_6655" data-name="Groupe 6655" transform="translate(-3401.337 -1169.91)">
      <g id="Groupe_6612" data-name="Groupe 6612" transform="translate(155.721 65.16)">
        <g id="Groupe_6591" data-name="Groupe 6591" transform="translate(2.686)">
          <path id="Tracé_6171" data-name="Tracé 6171" d="M557.419,213.454a3.3,3.3,0,1,1,3.3-3.3A3.3,3.3,0,0,1,557.419,213.454Zm0-5.562a2.264,2.264,0,1,0,2.264,2.264A2.267,2.267,0,0,0,557.419,207.892Z" transform="translate(-554.12 -206.856)" fill="#f1334e"/>
        </g>
        <g id="Groupe_6592" data-name="Groupe 6592" transform="translate(14.562 11.574)">
          <path id="Tracé_6172" data-name="Tracé 6172" d="M571.41,227.089a3.3,3.3,0,1,1,3.3-3.3A3.3,3.3,0,0,1,571.41,227.089Zm0-5.563a2.264,2.264,0,1,0,2.264,2.264A2.266,2.266,0,0,0,571.41,221.526Z" transform="translate(-568.111 -220.491)" fill="#ffac00"/>
        </g>
        <g id="Groupe_6599" data-name="Groupe 6599" transform="translate(18.216 25.575)">
          <g id="Groupe_6595" data-name="Groupe 6595" transform="translate(3.203)">
            <g id="Groupe_6593" data-name="Groupe 6593">
              <path id="Tracé_6173" data-name="Tracé 6173" d="M576.707,240.3a.518.518,0,0,1-.518-.518V237.5a.517.517,0,1,1,1.035,0v2.282A.518.518,0,0,1,576.707,240.3Z" transform="translate(-576.189 -236.985)" fill="#f1334e"/>
            </g>
            <g id="Groupe_6594" data-name="Groupe 6594" transform="translate(0 3.994)">
              <path id="Tracé_6174" data-name="Tracé 6174" d="M576.707,245.006a.517.517,0,0,1-.518-.517v-2.283a.517.517,0,0,1,1.035,0v2.283A.517.517,0,0,1,576.707,245.006Z" transform="translate(-576.189 -241.69)" fill="#f1334e"/>
            </g>
          </g>
          <g id="Groupe_6598" data-name="Groupe 6598" transform="translate(0 3.138)">
            <g id="Groupe_6596" data-name="Groupe 6596" transform="translate(4.356)">
              <path id="Tracé_6175" data-name="Tracé 6175" d="M580.115,241.717h-2.05a.517.517,0,0,1,0-1.035h2.05a.517.517,0,1,1,0,1.035Z" transform="translate(-577.548 -240.682)" fill="#f1334e"/>
            </g>
            <g id="Groupe_6597" data-name="Groupe 6597">
              <path id="Tracé_6176" data-name="Tracé 6176" d="M574.983,241.717h-2.05a.517.517,0,0,1,0-1.035h2.05a.517.517,0,1,1,0,1.035Z" transform="translate(-572.416 -240.682)" fill="#f1334e"/>
            </g>
          </g>
        </g>
        <g id="Groupe_6611" data-name="Groupe 6611" transform="translate(0 12.788)">
          <g id="Groupe_6610" data-name="Groupe 6610">
            <g id="Groupe_6604" data-name="Groupe 6604" transform="translate(3.204)">
              <g id="Groupe_6601" data-name="Groupe 6601">
                <g id="Groupe_6600" data-name="Groupe 6600">
                  <path id="Tracé_6177" data-name="Tracé 6177" d="M555.247,225.237a.517.517,0,0,1-.517-.517v-2.283a.517.517,0,0,1,1.035,0v2.283A.517.517,0,0,1,555.247,225.237Z" transform="translate(-554.73 -221.921)" fill="#ffac00"/>
                </g>
              </g>
              <g id="Groupe_6603" data-name="Groupe 6603" transform="translate(0 3.994)">
                <g id="Groupe_6602" data-name="Groupe 6602">
                  <path id="Tracé_6178" data-name="Tracé 6178" d="M555.247,229.942a.518.518,0,0,1-.517-.518v-2.282a.517.517,0,0,1,1.035,0v2.282A.518.518,0,0,1,555.247,229.942Z" transform="translate(-554.73 -226.626)" fill="#ffac00"/>
                </g>
              </g>
            </g>
            <g id="Groupe_6609" data-name="Groupe 6609" transform="translate(0 3.137)">
              <g id="Groupe_6606" data-name="Groupe 6606" transform="translate(4.356)">
                <g id="Groupe_6605" data-name="Groupe 6605">
                  <path id="Tracé_6179" data-name="Tracé 6179" d="M558.656,226.653h-2.05a.518.518,0,1,1,0-1.036h2.05a.518.518,0,0,1,0,1.036Z" transform="translate(-556.088 -225.617)" fill="#ffac00"/>
                </g>
              </g>
              <g id="Groupe_6608" data-name="Groupe 6608">
                <g id="Groupe_6607" data-name="Groupe 6607">
                  <path id="Tracé_6180" data-name="Tracé 6180" d="M553.524,226.653h-2.05a.518.518,0,0,1,0-1.036h2.05a.518.518,0,0,1,0,1.036Z" transform="translate(-550.956 -225.617)" fill="#ffac00"/>
                </g>
              </g>
            </g>
          </g>
        </g>
      </g>
      <g id="Groupe_6641" data-name="Groupe 6641" transform="translate(28.587 13.264)">
        <g id="Groupe_6616" data-name="Groupe 6616" transform="translate(7.817 5.083)">
          <g id="Groupe_6615" data-name="Groupe 6615">
            <g id="Groupe_6614" data-name="Groupe 6614">
              <g id="Groupe_6613" data-name="Groupe 6613">
                <path id="Tracé_6181" data-name="Tracé 6181" d="M413.691,158.3a3.3,3.3,0,1,1,3.3-3.3A3.3,3.3,0,0,1,413.691,158.3Zm0-1.036A2.264,2.264,0,1,0,411.427,155,2.266,2.266,0,0,0,413.691,157.268Z" transform="translate(-410.392 -151.706)" fill="#f1334e"/>
              </g>
            </g>
          </g>
        </g>
        <g id="Groupe_6620" data-name="Groupe 6620" transform="translate(19.831 15.979)">
          <g id="Groupe_6619" data-name="Groupe 6619">
            <g id="Groupe_6618" data-name="Groupe 6618">
              <g id="Groupe_6617" data-name="Groupe 6617">
                <path id="Tracé_6182" data-name="Tracé 6182" d="M427.845,171.141a3.3,3.3,0,1,1,3.3-3.3A3.3,3.3,0,0,1,427.845,171.141Zm0-1.035a2.264,2.264,0,1,0-2.265-2.264A2.267,2.267,0,0,0,427.845,170.106Z" transform="translate(-424.546 -164.543)" fill="#ffac00"/>
              </g>
            </g>
          </g>
        </g>
        <g id="Groupe_6627" data-name="Groupe 6627" transform="translate(24.166)">
          <g id="Groupe_6623" data-name="Groupe 6623" transform="translate(0 3.204)">
            <g id="Groupe_6621" data-name="Groupe 6621">
              <path id="Tracé_6183" data-name="Tracé 6183" d="M432.969,150.009a.517.517,0,0,0-.518-.517H430.17a.517.517,0,1,0,0,1.035h2.282A.518.518,0,0,0,432.969,150.009Z" transform="translate(-429.652 -149.492)" fill="#f1334e"/>
            </g>
            <g id="Groupe_6622" data-name="Groupe 6622" transform="translate(3.994)">
              <path id="Tracé_6184" data-name="Tracé 6184" d="M437.673,150.009a.517.517,0,0,0-.517-.517h-2.283a.517.517,0,0,0,0,1.035h2.283A.518.518,0,0,0,437.673,150.009Z" transform="translate(-434.357 -149.492)" fill="#f1334e"/>
            </g>
          </g>
          <g id="Groupe_6626" data-name="Groupe 6626" transform="translate(3.138)">
            <g id="Groupe_6624" data-name="Groupe 6624" transform="translate(0 4.356)">
              <path id="Tracé_6185" data-name="Tracé 6185" d="M434.384,153.418v-2.05a.517.517,0,1,0-1.035,0v2.05a.517.517,0,0,0,1.035,0Z" transform="translate(-433.349 -150.85)" fill="#f1334e"/>
            </g>
            <g id="Groupe_6625" data-name="Groupe 6625">
              <path id="Tracé_6186" data-name="Tracé 6186" d="M434.384,148.286v-2.05a.517.517,0,1,0-1.035,0v2.05a.517.517,0,0,0,1.035,0Z" transform="translate(-433.349 -145.718)" fill="#f1334e"/>
            </g>
          </g>
        </g>
        <g id="Groupe_6640" data-name="Groupe 6640" transform="translate(0 17.822)">
          <g id="Groupe_6639" data-name="Groupe 6639">
            <g id="Groupe_6633" data-name="Groupe 6633" transform="translate(0 3.203)">
              <g id="Groupe_6629" data-name="Groupe 6629">
                <g id="Groupe_6628" data-name="Groupe 6628">
                  <path id="Tracé_6187" data-name="Tracé 6187" d="M404.5,171a.518.518,0,0,0-.518-.518H401.7a.518.518,0,0,0,0,1.036h2.282A.518.518,0,0,0,404.5,171Z" transform="translate(-401.183 -170.487)" fill="#ffac00"/>
                </g>
              </g>
              <g id="Groupe_6632" data-name="Groupe 6632" transform="translate(3.994)">
                <g id="Groupe_6631" data-name="Groupe 6631">
                  <g id="Groupe_6630" data-name="Groupe 6630">
                    <path id="Tracé_6188" data-name="Tracé 6188" d="M409.205,171a.518.518,0,0,0-.518-.518h-2.282a.518.518,0,0,0,0,1.036h2.282A.518.518,0,0,0,409.205,171Z" transform="translate(-405.888 -170.487)" fill="#ffac00"/>
                  </g>
                </g>
              </g>
            </g>
            <g id="Groupe_6638" data-name="Groupe 6638" transform="translate(3.138)">
              <g id="Groupe_6635" data-name="Groupe 6635" transform="translate(0 4.356)">
                <g id="Groupe_6634" data-name="Groupe 6634">
                  <path id="Tracé_6189" data-name="Tracé 6189" d="M405.915,174.414v-2.05a.517.517,0,1,0-1.035,0v2.05a.517.517,0,0,0,1.035,0Z" transform="translate(-404.88 -171.846)" fill="#ffac00"/>
                </g>
              </g>
              <g id="Groupe_6637" data-name="Groupe 6637">
                <g id="Groupe_6636" data-name="Groupe 6636">
                  <path id="Tracé_6190" data-name="Tracé 6190" d="M405.915,169.281v-2.05a.517.517,0,0,0-1.035,0v2.05a.517.517,0,1,0,1.035,0Z" transform="translate(-404.88 -166.714)" fill="#ffac00"/>
                </g>
              </g>
            </g>
          </g>
        </g>
      </g>
      <g id="Groupe_6647" data-name="Groupe 6647" transform="translate(142.605)">
        <g id="Groupe_6645" data-name="Groupe 6645">
          <g id="Groupe_6644" data-name="Groupe 6644">
            <g id="Groupe_6643" data-name="Groupe 6643">
              <g id="Groupe_6642" data-name="Groupe 6642">
                <rect id="Rectangle_1501" data-name="Rectangle 1501" width="18.887" height="18.887" rx="7.151" fill="#ffac00"/>
              </g>
            </g>
          </g>
        </g>
        <g id="Groupe_6657" data-name="Groupe 6657" transform="translate(5.093 4.244)">
          <g id="Groupe_6652" data-name="Groupe 6652" transform="translate(0 0)">
            <g id="euro_1_" data-name="euro (1)" transform="translate(0 0)">
              <path id="Tracé_6193" data-name="Tracé 6193" d="M43.622,8.953c-.113-.275-.227-.551-.352-.822a.389.389,0,0,0-.517-.252c-.336.077-.665.179-1,.248a3.777,3.777,0,0,1-1.94-.054,2.289,2.289,0,0,1-1.493-1.585H40.5A.308.308,0,0,0,40.8,6.18V5.493a.308.308,0,0,0-.309-.309H38.11c0-.192,0-.375,0-.559H40.5a.308.308,0,0,0,.309-.309V3.631a.308.308,0,0,0-.309-.309H38.41a.031.031,0,0,1,0-.021,2.219,2.219,0,0,1,1.214-1.264,3.643,3.643,0,0,1,2.125-.121c.34.069.674.173,1.014.25a.382.382,0,0,0,.5-.248c.123-.267.236-.538.348-.811a.41.41,0,0,0-.2-.58,1.289,1.289,0,0,0-.188-.09A5.88,5.88,0,0,0,40.116.071a4.443,4.443,0,0,0-2.063.851A4.52,4.52,0,0,0,36.5,3.216l-.035.106H35.4a.308.308,0,0,0-.309.309v.686a.308.308,0,0,0,.309.309h.845v.559H35.4a.308.308,0,0,0-.309.309V6.18a.308.308,0,0,0,.309.309h1.018c.077.25.142.5.24.745a4.224,4.224,0,0,0,2.678,2.549,5.53,5.53,0,0,0,3.239.04,5.384,5.384,0,0,0,.828-.3A.4.4,0,0,0,43.622,8.953Z" transform="translate(-35.088 0)" fill="#fff"/>
            </g>
          </g>
        </g>
      </g>
      <g id="Groupe_6654" data-name="Groupe 6654" transform="translate(0 77.245)">
        <g id="Groupe_6651" data-name="Groupe 6651">
          <g id="Groupe_6650" data-name="Groupe 6650">
            <g id="Groupe_6649" data-name="Groupe 6649">
              <g id="Groupe_6648" data-name="Groupe 6648">
                <rect id="Rectangle_1502" data-name="Rectangle 1502" width="18.887" height="18.887" rx="7.151" fill="#ffac00"/>
              </g>
            </g>
          </g>
        </g>
        <g id="sports-car" transform="translate(3.395 5.093)">
          <g id="Groupe_6658" data-name="Groupe 6658" transform="translate(0 0)">
            <path id="Tracé_6194" data-name="Tracé 6194" d="M11.753,8.3a.3.3,0,0,0-.235-.112h-1.15A3.922,3.922,0,0,0,9.294,6.425c-1.454-.957-5.312-.957-6.766,0A3.941,3.941,0,0,0,1.453,8.184H.3a.3.3,0,0,0-.3.364l.17.826a.3.3,0,0,0,.3.241H.814a2.044,2.044,0,0,0-.491,1.336,2,2,0,0,0,.632,1.5l.013.011v1.155a.454.454,0,0,0,.454.454H2.484a.454.454,0,0,0,.454-.454v-.464H8.883v.464a.454.454,0,0,0,.454.454H10.4a.455.455,0,0,0,.454-.454V12.487a2.077,2.077,0,0,0,.133-2.872h.364a.3.3,0,0,0,.3-.242l.171-.825A.305.305,0,0,0,11.753,8.3ZM3.026,7.183a7.553,7.553,0,0,1,5.768,0,3.743,3.743,0,0,1,.78,1.476H2.246A3.743,3.743,0,0,1,3.026,7.183ZM1.668,11.065a.893.893,0,1,1,.893.893A.893.893,0,0,1,1.668,11.065Zm7.6.893a.893.893,0,1,1,.893-.893A.893.893,0,0,1,9.271,11.958Z" transform="translate(0 -5.707)" fill="#fff"/>
          </g>
        </g>
      </g>
    </g>
  </g>
</svg>
