<?xml version="1.0" encoding="utf-8"?>
<!-- Generator: Adobe Illustrator 16.0.0, SVG Export Plug-In . SVG Version: 6.00 Build 0)  -->
<!DOCTYPE svg PUBLIC "-//W3C//DTD SVG 1.1//EN" "http://www.w3.org/Graphics/SVG/1.1/DTD/svg11.dtd">
<svg version="1.1" id="Calque_1" xmlns="http://www.w3.org/2000/svg" xmlns:xlink="http://www.w3.org/1999/xlink" x="0px" y="0px"
	 width="30px" height="30px" viewBox="0 0 30 30" enable-background="new 0 0 30 30" xml:space="preserve">
<g>
	<path fill-rule="evenodd" clip-rule="evenodd" fill="#464747" d="M29.981,14.802c0.033,2.768-0.618,5.131-1.793,7.367
		c-0.188,0.36-0.315,0.379-0.622,0.119c-1.114-0.944-2.247-1.865-3.386-2.78c-0.243-0.196-0.288-0.355-0.16-0.655
		c1.761-4.149,0.51-8.915-3.058-11.644C16.496,3.792,9.938,4.784,6.833,9.604c-3.623,5.623-1.034,12.773,5.364,14.779
		c3.083,0.966,6.012,0.392,8.646-1.507c0.286-0.206,0.446-0.199,0.704,0.017c1.119,0.938,2.25,1.865,3.39,2.775
		c0.284,0.228,0.261,0.349-0.004,0.574c-3.467,2.972-7.479,4.214-11.987,3.608C6.889,29.036,2.003,24.636,0.49,18.747
		C-1.68,10.303,3.701,1.858,12.251,0.261c7.742-1.444,15.107,3.222,17.226,10.804C29.838,12.357,30.04,13.677,29.981,14.802z"/>
	<path fill-rule="evenodd" clip-rule="evenodd" fill="#11AFE4" d="M15.238,13.79c-0.016,0.257-0.175,0.355-0.28,0.484
		c-0.564,0.703-1.148,1.393-1.696,2.109c-0.341,0.445-0.161,0.898,0.396,0.916c1.241,0.041,2.483,0.015,3.809,0.015
		c-0.194-0.232-0.382-0.382-0.463-0.574c-0.178-0.422-0.491-0.45-0.882-0.442c-0.453,0.014-0.915,0.065-1.412-0.043
		c0.688-0.813,1.343-1.575,1.993-2.348c0.189-0.224,0.298-0.479,0.167-0.767c-0.112-0.244-0.336-0.353-0.594-0.354
		c-0.905-0.005-1.809-0.005-2.711-0.005c-0.47,0-0.253,0.359-0.285,0.572c-0.03,0.218-0.066,0.459,0.309,0.442
		C14.125,13.773,14.665,13.79,15.238,13.79z M20.46,15.05c0,3.012-2.489,5.551-5.5,5.511c-3.064-0.045-5.455-2.353-5.514-5.513
		C9.392,12.052,11.959,9.54,14.96,9.54C17.974,9.541,20.46,12.031,20.46,15.05z"/>
	<path fill-rule="evenodd" clip-rule="evenodd" fill="#FDFEFF" d="M15.238,13.79c-0.573,0-1.112-0.017-1.649,0.007
		c-0.375,0.016-0.338-0.226-0.308-0.441c0.03-0.213-0.187-0.573,0.284-0.573c0.903,0,1.807-0.001,2.712,0.006
		c0.258,0.001,0.48,0.11,0.592,0.353c0.133,0.286,0.023,0.543-0.166,0.769c-0.65,0.771-1.305,1.535-1.993,2.348
		c0.498,0.106,0.958,0.055,1.413,0.043c0.39-0.008,0.703,0.021,0.881,0.442c0.08,0.19,0.269,0.34,0.463,0.574
		c-1.325,0-2.568,0.026-3.809-0.016c-0.556-0.019-0.736-0.47-0.396-0.915c0.548-0.719,1.131-1.408,1.696-2.111
		C15.063,14.146,15.222,14.047,15.238,13.79z"/>
</g>
</svg>
