<?xml version="1.0" standalone="no"?>
<!DOCTYPE svg PUBLIC "-//W3C//DTD SVG 1.1//EN" "http://www.w3.org/Graphics/SVG/1.1/DTD/svg11.dtd" >
<svg xmlns="http://www.w3.org/2000/svg">
<metadata>Generated by IcoMoon</metadata>
<defs>
<font id="icomoon" horiz-adv-x="1024">
<font-face units-per-em="1024" ascent="1024" descent="0" />
<missing-glyph horiz-adv-x="1024" />
<glyph unicode="&#x20;" d="" />
<glyph unicode="&#xe900;" d="M329.6 183.4l0.4-0.2c59.4-29.2 125-43.6 191-42.2 72.6 1.6 143.6 22.2 205.8 60 42.6 25.8 80 59.2 110.4 98.4 2.8 3.6 5.4 7 8 10.8 133.2 183.6 92.6 440.4-91 573.6 0 0-0.2 0.2-0.2 0.2-173.8 125.8-415.4 97.2-555-66-6.8-8-13.4-16.4-19.8-25-11-15.2-21-31-30-47.4-36.8-68.2-53.4-145.6-47.6-223 1-13.2 2.6-26.4 4.8-39.6 1.8-11 14-52.8 23.2-80 3-9 5.8-16.4 7.6-20.6 18.6-41 43.8-78.6 74.6-111.4l0.2-0.2-22.6-162.8 140.2 75.4z" />
<glyph unicode="&#xe901;" d="M110.8 0l21.6 270.4-0.2 0.2c-20 27-37.2 56-51 86.6-9.8 25.2-18.4 51-25.6 77.2-4.8 16.6-8.4 31-9.8 38.2-4.8 28.2-7 57-6.8 85.6 1 77.2 21 153 58.4 220.6 9.6 17.4 20.2 34 32 50 6.4 8.8 13 17.2 19.8 25.2 167.2 200.4 465.4 227.2 665.8 60 190.6-159.2 225.6-438.6 80-639.8-2.6-3.4-5-6.8-7.6-10.2-11-14.2-22.8-27.8-35.2-40.8-39.6-40.8-86-74-137.4-98.2-111.8-52.6-239.6-59.6-356.6-19.8l-0.6 0.2-246.8-105.4zM754.2 884c-174 125.8-415.6 97.2-555.2-66-6.8-8-13.4-16.4-19.8-25-11-15.2-21-31-30-47.4-36.8-68.2-53.4-145.6-47.6-223 1-13.2 2.6-26.4 4.8-39.6 1.8-11 14-52.8 23.2-80 3-9 5.8-16.4 7.6-20.6 18.6-41 43.8-78.6 74.6-111.4l0.2-0.2-22.6-162.8 140.2 75.6 0.4-0.2c59.4-29.2 125-43.6 191-42.2 72.6 1.6 143.6 22.2 205.8 60 42.6 25.8 80 59.2 110.4 98.4 2.8 3.6 5.4 7 8 10.8 133.2 183.6 92.6 440.4-91 573.6 0.2 0 0.2 0 0 0z" />
<glyph unicode="&#xe902;" d="M581.6 309.2l21 195.4 102 140.2-29.2 130.8-133.6-12.8-102-140.2-179.8-80.4 97.2-70.4 45.8 62.8 19.8-14.2c2-1.4 3-4 2.4-6.6l-86.8-201.6 165.4 144.6c2.2 1.4 4.8 1.4 7-0.2l19.8-14.2-45.8-62.8 96.8-70.4zM592.4 590.6c-10-13.6-29.2-16.8-42.8-6.8l-18.2 13.2c-13.6 9.8-16.8 29-6.8 42.6 0 0 0 0 0 0l31.6 43.6c10 13.6 29.2 16.8 42.8 6.8l18.2-13.2c13.6-9.8 16.8-29 6.8-42.6 0 0 0 0 0 0l-31.6-43.6z" />
<glyph unicode="&#xe903;" glyph-name="icon-gs-car-repair-pin" d="M810.398 919.6c-109.197 88-235.398 119.8-372.799 97.6-157.6-25.4-277.4-107-343.4-255.8-49.6-111.8-34-222.4 20.6-328.199 86.2-167 215.6-297.599 357.6-416.802 28.001-23.396 56.2-21.197 85.598 3.803 118.204 100.801 227.201 210.198 311.403 341.797 50.8 79.404 89.4 163.601 90.4 266.401-4.203 116.2-55.203 215.4-149.402 291.2zM326.799 882.6c55.2 54.2 145 41.2 181.198-27.6 9.601-18.4 21.002-25.8 41.604-24.2 22.796 1.6 45.997 0.6 68.798-0.2 19.602-0.6 32.602-10 32.602-31s-13.6-30.2-32.602-31.6c-14.399-1-28.999-0.2-43.398-0.2-8.602 0-17.203-1-25.4 0.2-20.802 3.2-31.403-5.8-40.799-24.4-36.402-72.2-140.802-82-190.202-18.8-12.6 16-12 32.2 2.2 45.4 13.6 12.6 29.8 11.8 43.6-1 11.4-10.6 22.2-20.8 38.8-22 25.4-2 45.4 9.6 54.8 32.6 9.2 22.6 1.6 48.8-18.4 63.4-18.8 13.6-45.8 13.4-64.2-0.6-2-1.6-3.8-3.4-5.6-5.2-23.2-21-38-23.6-52.4-9.2-15.4 15.2-12.2 33.2 9.4 54.4zM403.399 295.999c-5.2-21.197-23.4-34.197-44.6-31.798-20 2.199-34.8 18.998-35.4 39.999-0.8 26.2 1 28.199 26.6 28.199 4.8 0 9.8 0 14.6 0 3.8 0 7.6 0 11.4 0 27.2 0 34-9.201 27.4-36.401zM667.599 264.202c-30.803-2.804-51.2 24.001-44.802 56.198 2.004 10.601 10.801 12.4 20.402 11.8 7.002-0.4 14.199 0 21.202 0 1.599 0 3.199 0 4.798 0 31.798 0 33.602-1 34.402-17.198 1.2-28.804-12.6-48.601-36.001-50.8zM749.397 502.999c-4.398-3.998-9.796-6.997-14.799-9.996-21.602-12.6-21.402-13.2-10.801-35.001 11.001-23.001 10.801-47.601 4.803-71.602-4.403-17.198-21.002-27.199-39.999-27.199-58.802 0-117.404 0-176.201 0-57.201 0-114.201 0-171.401 0-27.8 0-44.8 15.999-45.8 43.603-0.8 21.197-0.8 42.398 12 61.196 6.4 9.201 2.6 16.404-5.6 22.001-8 5.398-17 9.801-24.4 15.799-12.8 10.401-14.6 23.401-6.6 36.001 7.6 11.6 21.6 15 35.8 8.2 5.4-2.6 10-6.4 15.4-9 10.8-5.198 19.6-0.8 21.6 11 1.6 8.6 2.4 17.2 3.2 25.8 3 28.8 24 49.8 52.4 50 76.2 0.6 152.201 0.4 228.401 0 27.999-0.2 49.001-20.2 52.599-48 0.8-7 1.999-14 2.799-21 2.399-21.399 11.001-25.202 28.399-13 15.604 11 32.002 9.6 41.404-3.6 8.597-11.401 7.397-25.6-3.204-35.202zM627.195 555.6c-1.2 10.2-7.197 15-17.598 15-64-0.2-128.199 0-192.199 0-10.4 0-16.4-4.6-17.6-15-1.6-13.4-2.8-27.002-4.2-40.402-1.6-14.199 4.8-19.797 18.6-19.597 33.2 0.4 66.2 0.2 99.402 0.2 33.197 0 66.199 0.2 99.396-0.2 13.8-0.2 20.402 5.398 18.803 19.597-1.799 13.4-2.999 27.001-4.603 40.402z" />
<glyph unicode="&#xe904;" glyph-name="icon-gs-eye" d="M537.112 147.574c-151.8 1.6-296.8 63.2-403.2 171.6-37.8 35.4-72.6 73.8-104.4 114.6-40.2 47.2-39 117 3 162.8 78.2 105.2 181.8 188.8 301 242.8 111 48.4 237 49.2 348.8 2.6 121.2-52.6 226.6-136 305.4-242.2 50-52.4 48.2-135.4-4.2-185.4-2.4-2.4-5-4.6-7.6-6.8-80.8-103.4-188-182.8-310.2-230.2-42.4-12-85.4-22-128.6-29.8zM511.912 732.374c-24.8-4.2-50.2-6.8-74.6-13-102.8-33.4-193.8-95.4-262.4-178.8-15.8-13.6-17.6-37.6-4-53.4 2.2-2.6 5-5 7.8-6.8 44.2-42.6 91-82.6 140-119.8 77.8-60.2 179.4-79.8 274-52.8 99.4 35.6 187.8 96.4 256.2 176.8 15.8 13.8 17.6 38 3.6 54-2.2 2.4-4.6 4.6-7.4 6.6-31.6 29.8-61.4 61.4-95.6 88.6-65.8 58.8-149.4 93.8-237.4 99.4v-0.8zM513.512 658.374c80-0.8 144.2-66.2 143.4-146.2 0 0 0 0 0-0.2 0.6-80.4-64-146-144.4-146.6s-146 64-146.6 144.4c0 2.2 0 4.4 0 6.4 2 79.8 67.8 143.4 147.6 142.2z" />
<glyph unicode="&#xe905;" glyph-name="icon-gs-pencil" d="M688.4 480.8c-69.2 69.2-138.2 138.4-207.2 208-2.4 3.4-5.2 6.4-8.4 8.8-18.4 14.4-45 11.2-59.4-7.2-103.2-103.4-206.8-206.6-308.6-311.2-40-33.2-53.2-88.8-32.4-136.4 33.4-62 4.6-94.2-37-128.6-6.6-5.6-12.6-12-18.2-18.6-0.2-0.2-0.4-0.4-0.6-0.6-21.2-20.6-21.8-54.6-1.2-76 1.4-1.6 2.8-3.2 4.4-4.6 21.4-20 55-18.8 75 2.6 21.4 18.6 41.8 38.6 60.8 59.8 0.2 0.4 0.6 0.8 0.8 1.2 11.8 16 34.4 19.4 50.4 7.6 26-11.4 35.2-16.4 60.6-29.2 43.6-21.8 86.2 31.2 115.8 52.8 104 99.4 204 202.4 305.4 304.2 3.4 2.6 6.4 5.6 9 9 13.8 18.6 9.6 44.8-9.2 58.4zM980.6 948.8c-49.6 67.2-138.4 92.4-215.8 61.2-41.6-21.2-79.4-49-112-82.6-25.4-24-41.4-25.2-62.8 1.4-12.6 17-27.8 31.8-45.2 43.8-26.4 14.8-51.4 37.4-81.8 40-28.4 2.4-57.2-13.8-78.6-32.6-92.2-81.2-177.6-172.8-264.4-261.2-1.2-1.2-2.4-2.4-3.6-3.8-17.6-21-15-52.4 6-70 0.4-0.6 0.8-1 1.4-1.6 19-21 51.4-22.6 72.4-3.8 8.8 7 16.8 14.6 24.6 22.8l202.6 202.8c36 36.6 36 36.6 72.6 0 94.8-94.6 189.4-189.2 283.8-284.2 19.4-19.4 41.2-33 64.4-10.4 50.2 46 97.6 95.2 141.8 147 52.4 68.8 50.2 164.8-5.4 231.2z" />
<glyph unicode="&#xe906;" glyph-name="icon-gs-share-hand" d="M398.4 0h-325.2c-48.4 0-74 19.8-73 56.4 0.8 34.8 26 54.2 71.6 54.4 200.8 0 401.6 0 602.4 0 10.2 0 24.4-5.8 30.2 4.8 6.8 12.2-5.2 22.6-12.4 31.8-19.4 24.2-49.4 37.4-80.4 35.2-108.4-0.4-216.6 0-325 0-42.6 0-67.4 20-68.2 54s25.8 56.6 69.6 57c31.6 0 63.4 0.4 95 0 20 0 21 7.4 10 21-24.6 32.8-63.2 51.8-104.2 51.2-74.2 0-148.4 0-222.6 0-42.2 0-66.2 20.6-66.2 55.2 0 33.2 23.2 53.6 64.2 54 75.4 0.6 151 1.6 226.4 0 100.8 2.6 191.6-60.8 224.2-156.4 3.8-16.6 19.6-27.4 36.6-25 40 3.2 80.4 0.8 119.8-7.4 89-23 151-104 150.2-196.2-0.4-49.8-40.8-90-90.6-89.8-110.8-0.6-221.4 0-332.2 0zM625.4 1024c221.6-1.6 400.2-183 398.6-405.2-0.8-122.8-57.8-238.6-154.4-314.2-12.4-14.2-34-15.6-48.2-3.2-1.8 1.4-3.2 3.2-4.6 5-55.2 49.8-56 49 0 99.2 119 108.4 127.6 293 19.2 412s-292.4 127.8-411.4 19.4c-57.8-52.6-92-126.4-95-204.6-0.6-12.2-0.4-24.4 0.6-36.6 2-22.6-8.4-29.2-30-30-83.4-2.2-88.2 2.4-81 87 17 211.4 194.4 373.6 406.2 371.2zM693.6 566.2c-23 0-46.2-0.4-69.2 0-28.6-3-54.2 17.8-57.4 46.4-0.2 2.2-0.4 4.2-0.2 6.4-2.2 49.8-2.2 99.8 0 149.6-0.6 29.4 22.6 53.8 52 54.4 1.6 0 3 0 4.6 0 30.4-1.4 54.2-27.2 52.8-57.8 0-0.2 0-0.4 0-0.8 2-27.6-11.4-63 5.8-81s53-4.2 80.4-6.2c31.2 1.6 58-22.4 59.6-53.8 0-0.6 0-1 0-1.6 0-33.2-23.4-54.8-62.6-55.8-22-0.4-44 0.2-65.8 0.2z" />
<glyph unicode="&#xe907;" glyph-name="icon-gs-add" d="M585.6 237.6c0-52.4 0-104.8 0-157.2 3.8-40.4-25.8-76.2-66-80-40.4-3.8-76.2 25.8-80 66-0.4 5.2-0.4 10.2 0.2 15.4 0 106-1 212 0 318 0 30.8-10.2 40.2-41 39.8-103.6-1.4-207.2-0.6-310.8 0-53.2 0-87.2 28.4-88 71.6-0.8 45.4 33.2 74 89 74 102.4 0 204.8 1.4 307-0.6 34.6-0.8 43.8 11.6 43.2 44.6-1.8 102.4-0.8 204.6-0.6 307 0 53.4 28 87 71.6 87.8 45.4 0.8 74.4-33.4 74.4-88.8 0-103.6 1-207.2 0-310.8 0-30.8 10.2-40.2 40.2-39.8 103.6 1.4 207.2 0.8 310.8 0 53.6 0 87.2-27.8 88.2-71.6 1-44-33.6-74.2-88.8-74.4-102.4 0-204.8-1.4-307 0.6-34.4 0.6-44.6-11.4-43.2-44.6 2.2-52.2 0.6-104.8 0.6-157.2z" />
<glyph unicode="&#xe908;" glyph-name="icon-gs-file-multiple" d="M530.4 821.8c80.2-0.6 127.8-36 138.6-92.8 32.8-176 65.2-352.2 96-528.6 13.4-77-28.8-126-112.6-138.6-121-18.6-242-37.6-362.8-56.8-63.6-18.8-130.4 17.6-149.2 81.2-1.2 4-2.2 7.8-2.8 11.8-34.4 180.8-67 362-98.8 543.2-7.2 54 28.4 104.2 81.6 115.6 142.4 25.4 285.8 45.6 410 65zM456.2 624.8c-64-10.4-139.4-21.2-214.2-35.4-26.6-2.4-46.4-26.2-43.8-52.8 0.2-2.6 0.6-5 1.2-7.4 4-28.6 30.6-48.4 59.2-44.4 1 0.2 2.2 0.4 3.2 0.6 75.6 9.4 150.8 21.6 225.6 35.2 26.6 2.4 46.4 26 44 52.8-0.2 2.6-0.6 5-1.2 7.6-5.6 30.2-28.6 45-74 43.8zM333.8 228.2c37 6 82.6 13 127.8 20.8 30 1 53.4 26.2 52.2 56.2 0 1.8-0.2 3.4-0.4 5.2-6.2 31.6-36.8 52.2-68.6 46-0.2 0-0.2 0-0.4 0-44.4-5.4-88.6-12.4-132.4-20.4-33.8-6-54.2-25-52.8-58.4 1.4-30 28.8-49.6 74.6-49.6zM979.8 607.8c0-90-16-180-16.4-270 0-13.4-2-26.6-5.4-39.6-8-28.8-37.2-46.2-66.4-39.8-26.8 0.8-48 23.2-47.2 50 0 0 0 0.2 0 0.2-1.2 36.4 0 73 1.8 109.4 6.4 144.6 12.4 289.2 20.6 433.8 1.8 31.6-8.2 43.2-43 44.2-139.8 4.4-279.6 11-419.4 16.8-13.2 0.6-26.6 0-39.6 1.8-29.8 1.2-53.2 26.4-52 56.2 0 0.8 0 1.4 0.2 2.2 0.6 28.8 24.4 51.6 53 51 1 0 2.2 0 3.2-0.2 54 0.6 108.2-3.2 162.2-5 105.6-3.6 211.2-5.8 316.8-10.8 100.2-4.8 142-49.2 137.8-141-2-43.8-4.8-87.6-5.8-131.4-1.2-42.6-0.2-85.2-0.4-127.8v0z" />
<glyph unicode="&#xe909;" glyph-name="icon-gs-phone-email" d="M673 456c-86.6 0-173.2 0-259.8 0-62.2 0-89.8 28-89.8 89 0 131.4 0 262.8 0 394-5.2 41.2 23.8 78.8 65 84 5.6 0.8 11.4 0.8 17 0.2 179 0.8 358.2 0.8 537.2 0 41.2 3.8 77.6-26.6 81.2-67.8 0.4-4.8 0.4-9.8-0.2-14.6 0-133.8 0-267.6 0-401.4 4.6-41.2-25.2-78.4-66.4-83-5.6-0.6-11.2-0.6-16.8 0-89.2-0.8-178.2 0-267.4 0zM669 678.8c19.8 2.6 39 7.4 57.6 14.6 73 41 145 84 216.8 127 16.6 9.4 22.4 30.4 13.2 47-0.4 0.8-1 1.6-1.4 2.4-10 16.6-31.2 22.4-48.2 13-6.8-3.2-13.2-7-19.6-10.8-56.4-33.2-113.6-65.2-169.2-100-26.8-19.6-63.2-19.6-90 0-59 37-119.4 71.8-179.6 106.6-16.2 13.4-40.2 11.2-53.8-5-1.2-1.4-2.2-2.8-3-4.2-10.6-17.6-4.8-40.6 12.8-51.2 1.6-1 3.4-1.8 5.2-2.6 64-38.4 127.8-77.2 192.8-113.6 21.4-9.8 43.6-17.8 66.2-24zM426.2 407.6c0-62.2 0.2-124.2 0.4-186.4 0-17.2-6.4-23.2-23.4-23-101 0.4-201.8 0.4-302.8 0-18.2 0-25 5.8-24.6 24.2 0.8 62.4 0 125 0 187.4 0 60.8 0.6 121.6 0 182.8 0 18.4 6.4 24.4 24.6 24.4 54.2-0.2 108.6-0.2 162.8 0 0 24.8 0 49.8 0 74.6h-161.6c-48.6 7-93.8-26.8-100.8-75.6-1.2-7.8-1.2-15.8-0.2-23.6 0-82.2 0-164.2 0-246.4 0-83.8 0-167.6 0-251.4-3.6-48.4 32.4-90.4 80.8-94.2 4.8-0.4 9.6-0.4 14.2 0 103.4 0 206.8 0 310.2 0 48.2-4.6 91 30.8 95.6 79 0.4 4.8 0.6 9.4 0.2 14.2 0 104.6 0 209.2 0 313.8l-75.4 0.2zM277 74h-51.2c-14-0.8-26 10-26.6 24-0.8 14 10 26 24 26.6 1 0 1.8 0 2.8 0h51.2c14 0.8 26-10 26.6-24 0.8-14-10-26-24-26.6-1 0-1.8 0-2.8 0z" />
<glyph unicode="&#xe90a;" glyph-name="icon-gs-setting-toggle" d="M515 986.6c96.2 0 192.4 2.4 288.6-0.6 120.2 1.4 218.6-95 220-215.2 0.4-39.8-10-79-30.2-113.2-37.2-68.2-109.4-110-187-108-196-1.6-392-2.6-588 0-119.4-1-217 94.8-218 214.2 0 1.4 0 2.8 0 4.4 0.4 120.6 98.4 218 219.2 218 49.6 1.8 99.6 0.6 149.4 0.6h146.2l-0.2-0.2zM768 658.4c60.2 0.6 108.8 49.4 109 109.8-0.2 60.4-49.4 109-109.8 108.8s-109-49.4-108.8-109.8c0.4-60.2 49.4-109 109.6-108.8zM510.4 37c-95 0-190.2-1.2-285.2 0-120.6-3.8-221.2 90.8-225 211.4-3.4 108 72.8 202.2 179 221.6 15.6 2.6 31.4 4.2 47.2 4.2 190.2 0 379.8 1.4 569.8 0 120.8 5 222.6-88.6 227.8-209.4 5-120.8-88.6-222.6-209.4-227.8-5.2-0.2-10.6-0.2-15.8 0-48.6-1.2-97.4 0-146.2 0h-142.2zM255 365.4c-60.6-0.4-109.4-49.8-109-110.4s49.8-109.4 110.4-109c60.6 0.4 109.4 49.8 109 110.4 0 0.2 0 0.2 0 0.4-1.2 60.2-50.2 108.2-110.4 108.6z" />
<glyph unicode="&#xe90b;" glyph-name="icon-gs-arrow-bend-down-right" d="M760 328.2c-129.8 0-259.6-0.8-389.4 0-161.4-3-305.2 101.6-352.4 256-9.6 29-15.2 59-16.6 89.4-2.6 55.8-1.8 112-0.8 168-0.8 38.8 30 70.8 68.8 71.6 1 0 2 0 3 0 38.6 1.8 71.6-27.8 73.4-66.6 0-1.2 0-2.4 0-3.6 1.6-46.2 0-92.6 0.8-139-7-118.4 83.4-220 201.8-227 2.2-0.2 4.4-0.2 6.6-0.2 134.4-6.6 269.4-1.4 414-1.4-29.6 27.4-57.4 56.8-83.4 87.8-16.2 20.2-25 45.4-25 71.2 4.6 37.6 38.8 64.2 76.4 59.4 14.2-1.8 27.6-8 38.2-17.8 79-73.8 154.8-151.2 229.8-229.4 25-25.4 24.6-66.2-0.8-91-0.6-0.6-1.4-1.2-2-1.8-73.2-76.2-147.8-151.2-223.8-225.2-29.8-26.6-75.6-23.8-102.2 6-24.8 27.8-24.2 70 1.2 97.4 28.2 29.8 60.8 55.2 91.4 82.8l-9 13.4z" />
<glyph unicode="&#xe90c;" glyph-name="icon-gs-trash" d="M511.068 582.812c90.8 0 181.6 0 272.4 0 45.8 0 59.6-14.2 54.8-59.6-17-161-35.2-321.8-53.2-482.8 0.6-21.8-16.4-39.8-38.2-40.4-2.4 0-4.6 0-6.8 0.4-151.4 0.8-302.6 0.8-453.8 0-22.4-3.2-43.2 12.2-46.4 34.4-0.4 2.6-0.6 5.2-0.4 7.8-12.2 111.8-24.4 223.4-36.8 335.2-5.4 49.2-12.6 98.4-16.6 147.6-3.6 44.4 9 57.2 53 57.4 90.4 0.4 180.8 0 272 0zM508.468 669.812c-123.6 0-247.2-1-370.8 0.8-26.2-1-52 5.4-74.8 18.2-30.2 26.6-33 72.8-6.4 103 14 15.8 34.2 24.8 55.2 24.6 52 0 104.2 1 156.2 0 32.6-0.8 46.6 11.4 43.8 44.8-9.8 62.2 23.6 123 81.2 148.4 1 0.6 1.8 2.2 2.8 2.2 86.6 20.8 177.6 14.6 260.4-18 40.6-26.8 62.6-74.4 56.6-122.8-1.2-54.2 0-54.4 54.6-54.6 47.2 0 94.4 0 141.8 0 38 3.6 71.8-24.2 75.4-62.2 0.2-2.6 0.4-5.2 0.4-7.8 5.4-35.2-18.8-68.2-54.2-73.4-5-0.8-10.2-1-15.4-0.4-135.6-1.8-271.4-0.6-407-0.6l0.2-2.2zM511.668 816.412v0c19.4 0 38.6 0 58 0 34.6-0.8 33.2 23 33.4 47s-0.6 46.8-34.8 46c-34.2-1-70.2-1.6-105 0-31.6 1.8-42.6-11-42-42.2 1.2-48.8 1.6-51.2 50.6-51.2 13.2 0.4 26.4 0.4 39.8 0.4v0z" />
<glyph unicode="&#xe90d;" glyph-name="icon-gs-edit" d="M840.462 1023.938c16.8-4.6 32.6-11.4 47.4-20.4 38.8-32.4 76-67 111.2-103.2 36.4-42 32.6-105.2-8.4-142.8-162.4-159.8-321.2-323-485.8-480.4-34.8-21-74-33.6-114.6-36.8-36.4-8.8-74-13.6-111.2-19.2-47.6-7.2-66 9-58.6 55.2 10.2 66.8 22.4 133.6 36.8 199.8 5.6 17.2 15.8 32.6 29.6 44.6 149.8 150.2 300.2 299.8 450.8 449 24.6 32.2 62.2 52 102.8 54.2zM455.662 0.338c-131.4 0-262.8 0-394.2 0-44.8 0-61.4 14-61.4 51.2-0.8 39.2 16.8 57.4 61.4 57.4 264 0.6 528 0.6 792 0 41 0 61.4-21.2 60-57-1.6-35.8-21.4-52-63-52-132 0.2-263.4 0.4-394.8 0.4z" />
<glyph unicode="&#xe90e;" glyph-name="icon-gs-others" d="M256 512c0-70.692-57.308-128-128-128s-128 57.308-128 128c0 70.692 57.308 128 128 128s128-57.308 128-128zM640 512c0-70.692-57.308-128-128-128s-128 57.308-128 128c0 70.692 57.308 128 128 128s128-57.308 128-128zM1024 512c0-70.692-57.308-128-128-128s-128 57.308-128 128c0 70.692 57.308 128 128 128s128-57.308 128-128z" />
<glyph unicode="&#xe90f;" glyph-name="icon-gs-group" d="M347.6 476.8c-183.2 2-342.8-153.6-347.6-336.6-1.8-66.6 24.6-101.6 93.8-100.8 82.2 1 164.4 0.2 246.6 0.2 87.8 0 175.6 0.2 263.6 0 59.4-0.2 89.2 30.6 90.2 88.4 3 181.2-162 346.8-346.6 348.8zM351 585.4c108.2 3 195.2 94.4 194.6 204-0.6 110.2-88.4 197.8-198.6 198.4-109.6 0.4-198.4-87.6-199.4-197.8-1-112.6 93.6-207.8 203.4-204.6zM1012.2 200c-37.6 143.4-126.6 236.4-274.2 269-22.2 4.8-49.2 18-64-1.2-18.4-24 12.4-39.6 24.6-55.4 66.2-85.6 108.6-181.4 100.4-289.8-5.6-74.8 19-97.8 80.4-83 134.2-0.2 165 38 132.8 160.4zM623.8 656.4c-29.6-59.8 3.4-69.6 48.6-71.4 106.4-4.4 198.2 88.2 199.6 198.8 1.6 120-95.4 213.6-210 204.2-42.8-3.6-64.4-15.4-40.6-63.2 43.8-88.4 46.2-180 2.4-268.4z" />
<glyph unicode="&#xe910;" glyph-name="icon-gs-leave" d="M570.4 326c-74.2 2.2-149.2-9.8-222.8 8.2-87.8 21.4-143.2 92.2-142.4 179.8 0.8 87 57.6 160 145.6 177 44.4 8.6 91.6 11.2 136.6 7 98.6-9.2 179.8 4.4 231 105.2 31.4 61.8 25.6 121.6 10.8 180.4-13.2 52.4-65.2 46-108.4 46-169.2-0.2-338.4-2-507.4 0.8-79.8 1.2-115.4-28.6-113.4-111.2 3.4-134.6 1-269.6 1-404.2 0-137.6 2-275.4-0.8-412.8-1.6-77.6 31.6-108.6 108-107.6 157.6 2.4 315.6 5 473-0.4 183.2-6.2 159 49.2 156.8 177.4-1 64.4-104.4 152.4-167.6 154.4zM881 690.8c-26.2 21.2-51.6 37.4-83 8.8-29.6-27-26-53-2.2-82.4 11-13.6 37-22.4 22.6-50.2-128.4 0-257.4 0.4-386.4-0.2-41.4-0.2-95.8 11.6-97.6-52.4-1.8-64.4 51.6-56.2 93.8-56.4 131-0.4 262-0.2 410.2-0.2-19.8-24-26.6-33-34.2-41.2-27.4-30-46.8-59.6-7-95 37.6-33.4 62-6 88 17 186 164.8 185.6 199.2-4.2 352.2z" />
<glyph unicode="&#xe911;" glyph-name="icon-gs-reset-password" d="M1005.2 570.2c-59.8 40-50 101-57.8 158-25 182.6-168.8 305.4-345.2 295.6-174.4-9.6-306-150.4-309.4-333.4-0.8-40.2-3.4-72.2-40.6-102.4-45.4-36.8-45.6-77 26.8-87.8 40-6 83.4-18.4 105.2-50.4 63.8-93.8 156.4-85.6 249.6-82.6 28.4 1 57 1.8 85.2-0.4 100.4-8.2 149.2-54.8 157.6-154.4 4.2-48 0.4-96.6 2.2-144.8 0.8-21.4-10.4-49.8 14.2-62.2 27.6-14 56-0.6 79.8 15.6 35.4 24.2 51.4 59 51 102-0.6 65.4-0.2 130.8-0.2 196.2 0 59.8-0.2 119.4 0.2 179.2 0.2 26 1.8 58-18.6 71.8zM805 650c-7.2-27.6-24.4-26.4-44.2-26.6-45.2-0.2-90.6 0-135.8-0.2-31.2 0-62.2 0-93.4 0-98.4 0.2-105.2 8.4-89.2 106.4 16.6 100.6 118 165.6 222.2 142.6 94.8-20.8 164-132.8 140.4-222.2zM767.6 124.2c0 132.4 0 132.4-129 132.6-48.2 0-96.8 2.6-144.8-0.6-59.6-3.8-107.6 2.6-137.2 67-19.2 41.6-64.2 62.4-110.2 73-101 23.2-195-26.8-233-124-36.6-93.6 3-199.2 92.6-247.2 92-49.4 201.6-22.8 262 67.6 19.6 29.2 31.4 60.4 75.2 52.8 50.6-9 27.6-48.2 30.4-74.8 3.8-37.6 11.6-69.2 56.8-68.8 46.4 0.4 52 33.2 52.8 70.6 0.6 26-13.2 60.6 26 71.6 15.4 4.4 37 5.6 42.6-15.6 5-18.8 3.2-39.2 5-59 3.2-36.2 11.6-69.6 58.2-67.6 46 1.8 53.4 34 52.6 71.6-0.2 16.8 0 33.8 0 50.8zM197 113.4c-55.6 2.4-87.8 38-84.4 94.8 3 52 34.4 83.2 87.8 82.4 57-0.8 85.2-34.8 90.2-87-5.2-60.8-38.2-92.6-93.6-90.2z" />
<glyph unicode="&#xe912;" glyph-name="icon-gs-add-user" d="M349.8 624c113.8 1.4 198.2 87.8 197.4 201.4-0.6 111-91 200.6-201.2 199.2-111-1.4-198.8-91-198.2-202.6s90.4-199.4 202-198zM979.8 281.4h-148.8v148c0 24.4-19.8 44.2-44.2 44.2s-44.2-19.8-44.2-44.2v-148h-148c-24.4 0-44.2-19.8-44.2-44.2s19.8-44.2 44.2-44.2h148v-148.8c0-24.4 19.8-44.2 44.2-44.2s44.2 19.8 44.2 44.2v148.8h148.8c24.4 0 44.2 19.8 44.2 44.2s-19.8 44.2-44.2 44.2zM427.2 236.8c0 78.2 45.8 145.6 112 177.4-106.4 68.4-219 84.2-337 27.4-129-62-194.4-168.8-201.4-310.8-5.4-110.8 14-130.6 123.2-130.8 141.8-0.4 283.6-1.4 425.4 1.2 25.2 0.4 64.2-3.2 74 26.8 1.4 4.4 0.6 8.4 0.4 12.2-108.6 0-196.6 88-196.6 196.6z" />
<glyph unicode="&#xe913;" glyph-name="icon-gs-add-outline-circle" d="M512 1024c-282.4 0-512-229.6-512-512s229.6-512 512-512 512 229.8 512 512c-0.4 282-230 511.6-512 512zM512 93.2c-231 0-419 187.8-419 418.8s188 419 419 419 418.8-188 418.8-419c-0.2-230.6-188.2-418.6-418.8-418.8zM715.2 558.6h-156.8v156c0 25.6-20.8 46.6-46.6 46.6-25.6 0-46.6-20.8-46.6-46.6v-156h-156c-25.6 0-46.6-20.8-46.6-46.6 0-25.6 20.8-46.6 46.6-46.6h156v-156.8c0-25.6 20.8-46.6 46.6-46.6 25.6 0 46.6 21 46.6 46.6v156.8h156.8c25.6 0 46.6 20.8 46.6 46.6 0 25.6-20.8 46.6-46.6 46.6z" />
<glyph unicode="&#xe914;" glyph-name="icon-gs-evols" d="M978.6 108c-6 2-26 2.2-39.4 2.2h-781.6c-47.4 0-47.4 0.2-47.4 48.8 0 259.8 0 519.6 0 779 0.8 12.2 0.4 24.4-0.8 36.4-1.8 28.2-25.4 50.2-53.8 49.6-27 1-50.4-18.6-53.8-45.4-1.8-10.8-2.2-21.8-1.4-32.8 0-143.8 0-287.8 0-431.6 0-145 0-289.8-0.2-434.4 0-62.6 17-79.2 80.8-79.2 287.4-0.4 574.8-0.4 862.2 0 16.8-2.2 33.8 0.6 48.8 8.4 14.6 12 28.8 23.2 28.8 51.2-0.2 18.4-12.4 37.6-42.2 47.8zM404 390.6c5-5.8 11-10.6 17.6-14.4 34.2-20 78-8.4 98 25.8 7 10.2 13.2 20.4 19.6 30.8 62.6 100.2 126 200.2 187.4 300.8 15.6 25.4 28.8 31.8 53.2 9.6 38-34.4 77.8-66.6 118-98.2 12.6-8.6 25.8-16.2 39.8-22.4 33-5.4 65.4 12.2 78.8 42.8 15.6 30.8 6.6 68.4-21.4 88.8-65.2 54.8-130.8 109.2-196.4 163.8-61.4 51.4-100.4 45.2-142.4-21.8-61.4-98.2-122.8-196.4-184.2-294.2-23.6-37.8-28.8-38.2-57.6-6-22 24.4-43 49.8-66.2 73.2-26.8 30-72.8 32.6-102.8 5.8s-32.6-72.8-5.8-102.8c53.6-61.6 108-122.4 164.4-181.6z" />
<glyph unicode="&#xe915;" glyph-name="icon-gs-stats" d="M456.6 640.4c0.2 25.2-5.8 37-34.4 37-128.6-1.2-257.4-1-386 0-26.6 0.2-35.8-8.2-35.8-35.8 0.8-163 0.2-325.8 0.8-488.8-0.4-6.4-0.4-13 0.2-19.4 5.8-79 74.6-138.2 153.4-132.4 87.4-1 174.8 1.4 262.2-1 33.6-1 40.2 11.6 40.2 42.2-1.6 98.4-0.6 197-0.6 295.4-0.2 101-0.8 202 0 302.8zM986.8 677.4c-127.4-1-255-1.2-382.4 0-28.2 0.4-37.6-8.8-37.6-37.4 1.4-99.8 0.6-199.4 0.6-299.2 0-102.2 0.4-204.2-0.4-306.2-0.4-24 6.8-34.2 33-34.2 91 1.4 182.2-0.2 273.2 0.8 4.6-0.2 9.2-0.2 13.8 0 78.4 3.8 139 70.2 135.2 148.8 0.8 164.2-0.4 328.6 0.8 492.4 0.4 28-10.4 35-36.2 35zM1023.2 830.2c-2.4 18 0.4 36.4-0.8 54.6-0.8 77-63.6 138.8-140.6 138.4-246.8 0.8-493.4 0.8-740 0-51.2 1.2-98.4-27.2-121.6-72.8-15.6-37-22.2-77-19.6-117-2.8-36.8 9.6-48.2 46.8-48.2 154.2 1.8 308.6 0.8 463 0.8 155.6 0 311.2 0.6 466.8-0.4 33-0.4 51 7.2 46 44.6z" />
<glyph unicode="&#xe916;" glyph-name="icon-gs-car-repair-pin-2" d="M810.398 919.6c-109.197 88-235.398 119.8-372.799 97.6-157.6-25.4-277.4-107-343.4-255.8-49.6-111.8-34-222.4 20.6-328.199 86.2-167 215.6-297.599 357.6-416.802 28.001-23.396 56.2-21.197 85.598 3.803 118.204 100.801 227.201 210.198 311.403 341.797 50.8 79.404 89.4 163.601 90.4 266.401-4.203 116.2-55.203 215.4-149.402 291.2zM468.799 449c-26.2-26.2-52-52.799-79.6-77.4-18-16.199-40.4-17.798-62.6-6.997-22 10.796-32.8 29.199-33.8 47.397-0.2 22.601 5.4 36.601 16.8 48.201 23.8 24.201 48.2 47.801 71.8 72.402 13 13.598 24.2 13.398 37-0.2 15.8-16.803 32.2-33.202 49-49.401 12-11.6 12.8-22.801 1.4-34.002zM757.999 416.602c-4.198-19.602-18.198-24.8-32.802-11.201-14.799 13.8-28.199 28.999-42.798 42.598-16.599 15.399-35.601 16.599-47.002 3.199-14.199-16.599-7.997-31.198 5.803-44.598 14-13.6 27.799-26.999 40.999-41.199 15.799-17.203 11.401-30.803-11.401-36.601-67.599-17.403-135.197 34.597-139.201 110.797-1.399 26.8-11.001 44.203-29.199 61.401-28.8 26.999-56.2 55.401-83.8 83.601-9.2 9.6-18.8 13.6-32.8 12-67.2-7.4-126 47-126 119.2 0.2 2.6 0.2 9.6 1.2 16.6 1.4 10.2 4.8 19.8 15.4 24 11.6 4.4 18.8-3 26-10.4 13-13.2 25.8-26.8 39.4-39.4 15.4-14.4 33.8-15.2 45.2-2.4 13.8 15.4 8.8 30-3.6 43.2-12.8 13.6-26.2 26.2-39.2 39.6-7 7-16 13.2-11.6 25.4 4.4 12.4 15 14.2 25.8 16 60.2 10.2 125-32 129.2-94 2.999-44.4 23.801-71.8 53.4-98.8 22.201-20.4 43.198-42.2 64.2-64 9.201-9.6 18.398-13.8 32.402-13 79.999 4.8 137.396-63.599 120.398-141.998zM757.399 755.4c-8.202-13-17.598-25.4-25.4-38.6-11.401-19.4-23.801-30.4-45.802-13.2-9.196 7.2-17.198 0.6-24.4-6-15.799-14.8-31.798-29.4-47.397-44.2-9.801-9.2-20.202-16.4-32.002-4.8-13.4 13-3.998 23.8 5.603 33.6 14.199 14.4 28.199 28.6 42.798 42.6 10.001 9.6 14.799 19.6 4.998 32.2-10.996 14.4-6.398 25.6 7.402 35 16.599 11.2 33.202 22.6 50.2 33.4 4.398 2.8 9.801 5.2 14.799 5.2 11.001 0 56.198-47.4 56.598-60.6-1.799-3.8-3.998-9.6-7.397-14.6z" />
<glyph unicode="&#xe917;" glyph-name="icon-gs-moto-old-checked" d="M840.207 656.2c101.001 0 183.598 82.4 183.798 183.4 0.2 101.4-82.598 184.4-183.798 184.4-100.401 0-183.598-82.4-183.798-182-0.4-103 81.598-185.8 183.798-185.8zM747.208 850.6c10.596 9.6 25.4 8.6 37.2-3 6.198-6 12.4-11.8 17.998-18.4 6.597-7.6 11.6-7.6 18.798-0.2 24.6 25.4 50 50.4 75.001 75.4 8.602 8.6 18.603 11.4 30.203 6.6 10.596-4.4 14.999-13 15.999-24-0.6-7.4-3.199-13.8-8.802-19.4-34.197-33.8-67.998-68-102.4-101.8-13.6-13.4-27.799-12.8-41.599 0.8-14.599 14.8-29.598 29.4-43.598 44.6-11.6 13.2-10.801 28.6 1.2 39.4zM555.398 387.599c10.401-3.599 21.002-3.199 31.603-3.199 45.997-0.2 91.999 0 137.801 0 0 0.2 0 0.4 0 0.6 51.2 0 102.6-0.8 153.8 0.2 28.599 0.6 50.4 20.002 57.198 46.802 7.002 27.799-4.198 55.598-28.599 70.597-11.201 6.802-23.401 9.801-36.201 9.801-97.202 0.2-194.599 0.6-291.801 0-36.601-0.2-62.8-23.401-67.199-55.998-3.599-30.003 14.599-58.602 43.398-68.803zM969.596 366.402c-9.401 6.797-18.798 6.797-27.399-0.2-27.799-22.201-59.802-25.6-93.998-25.2-78.004 1-155.804 0.4-233.804 0.2-29.199 0-35.201-7.002-31.198-35.401 4.198-30.198 7.997-60.401 12.2-92.399-35.001 0-68.803 0.2-102.6-0.2-7.402 0-10.201 3.199-12.801 9.601-30 72.197-60 144.399-90.4 216.396-3.4 8.002-2 15.204 0.6 23.201 8 23.201 14.6 46.802 23.6 69.603 4.2 10.598 1.4 15.598-7.6 20.598-17.4 9.8-34.4 20.2-51.4 30.4-12.6 7.6-18.2 18.4-9.6 31.6 8 12.2 19.4 11.6 31.4 4.4 31.8-19.2 63.8-38 95.6-57.2 13-7.8 26.199-13 36.2 3 10.001 16.2-0.6 25.8-13.8 33.6-3.399 2-6.602 4.6-10.201 6.2-25.8 11.4-43.4 23.4-29.8 58.6 10.2 26.2-11.6 57.6-38.2 69.399-26.8 11.8-59 5.2-77.4-18.4-8-10.2-13.2-10-24.8-6.2-24.6 7.6-50.2 12.4-75.8 16.6-16 2.6-27.4-10-24-25.8 6.2-27.8 13.8-55.4 20.6-83 3.2-12.8 11.2-19 24.4-18.8 7.8 0.2 15.6 0 25.2 0-25.2-58.6-48.6-115.398-74.2-171.402-11.8-25.4-32.6-40.399-62.8-41.799-39.6-1.799-77.2-12.4-110.6-35.001-5-3.399-10-6.797-14.2-10.796-13.4-12.6-26-26.4-21.2-46.402 4.6-18.798 21.4-23.801 37.8-27.999 2.6-0.6 5-1.799 9.2-3.599-23.4-24.8-39.6-52.599-46-85.801-15-77.6 41.2-158.398 120.8-172.398 80.2-14.004 160.6 41.399 173 119.598 0.4 1.999 0.2 3.998 0.6 5.998 3.2 13.2-2.2 28.804 2.8 39 4.4 9.001 23 3.803 34.8 9.001 34 14.799 49.2 52 33.8 86.201-7 15.799-16.8 29.998-26.4 44.398-23.8 34.801-18.2 67.998 16.4 96.802 28.8-69.203 58-138.001 85.8-207.199 7.6-18.603 17.8-26.8 38.6-26.2 46.002 1.2 92-0.6 137.802 0.8 16.998 0.6 20.197-4.003 19.997-20.402-1.2-72.802 52.4-136.202 122.802-147.997 71.797-12 142 28.999 166.4 97.397 6.398 17.598 10.601 36.201 8.602 54.599-1.604 13.8 2.199 16.204 14.999 16.404 36.801 0.4 60.197 18.198 68.598 49.196 10.401 40.204-18.798 122.602-52.4 147.003zM149.996 85.602c-34.2-0.2-63.6 28.399-64.2 63-0.8 34.801 29.4 65.2 64.4 64.8 34.6-0.4 62.6-28.999 62.6-64s-28.2-63.6-62.8-63.8zM852.197 151.401c-0.2-38-29.603-66.799-64.8-65.799-34.202 1-63 30.798-62.201 64.8 0.4 13.4 3.799 21.202 20.802 20.202 28.399-1.799 56.998-1.399 85.397-0.2 17.003 0.8 23.601-5.003 20.802-19.003z" />
<glyph unicode="&#xe918;" d="M822.209 656.2c100.996 0 183.598 82.4 183.798 183.4 0.2 101.4-82.603 184.4-183.798 184.4-100.401 0-183.603-82.4-183.803-182-0.4-103 81.603-185.8 183.803-185.8zM729.205 850.6c10.601 9.6 25.4 8.6 37.2-3 6.203-6 12.4-11.8 18.003-18.4 6.597-7.6 11.596-7.6 18.798-0.2 24.6 25.4 50 50.4 75.001 75.4 8.602 8.6 18.598 11.4 30.198 6.6 10.601-4.4 14.999-13 15.999-24-0.6-7.4-3.199-13.8-8.797-19.4-34.202-33.8-68.003-68-102.4-101.8-13.6-13.4-27.799-12.8-41.599 0.8-14.604 14.8-29.603 29.4-43.603 44.6-11.6 13.2-10.801 28.6 1.2 39.4z" />
<glyph unicode="&#xe919;" d="M386.807 173.602c-22.4 0.4-44-8.202-60.4-23.801-16.4-15.604-26-37.001-27.2-59.802-2.2-46.802 37.2-89 84-90 22.2 0.2 43.6 9.201 59.4 25s25 37.4 25.4 60.002c0.4 22.596-7.8 44.598-23 60.996-15 16.603-36 26.6-58.2 27.604z" />
<glyph unicode="&#xe91a;" d="M810.813 173.802c-22.396-0.6-43.598-9.801-59.197-26.205-15.604-16.199-24.4-37.995-24.4-60.596s8.597-44.603 24.201-60.801c15.599-16.199 36.801-25.8 58.997-26.2 22.201 0.6 43.603 9.801 59.202 26.2 15.599 16.199 24.4 38 24.4 60.601s-8.602 44.598-24.201 60.796c-15.399 16.204-36.601 25.605-59.002 26.205z" />
<glyph unicode="&#xe91b;" glyph-name="icon-gs-bike" d="M962.789 529.798c-21.402 20.802-46.802 37.202-74.601 47.602-27.799 10.6-57.602 15.4-87.401 13.8-17.198-0.6-26.2 4.8-31.798 21.4-13.6 40.2-28.404 80.2-43.803 119.8-5.798 15-5.998 23.6 12.6 27 21.801 4.2 43.203 9.6 64.4 16.4 24.201 7.6 36.801 29.8 31.203 51.2-6.602 24-28.604 37-53.804 31-34.597-8.2-69.398-16.8-103.799-26.4-43.598-12.2-60.596-42.2-48.396-85.4 3.599-12.8 3.399-20.2-11.201-25.2-64.8-22.8-129.401-46.2-193.801-70-12.8-4.8-18.8 0.6-23.2 11.8-5.2 13.2 4.8 13.8 12.8 16 24.2 6.4 35.6 22.2 33 47-2.2 21.6-19 36-44.8 36.6-27.2 0.8-54.6 0-81.8 0-25.6 0-51.2 0.4-76.8 0-30.6-0.6-50-17.4-49.8-43s19.6-41.6 50.4-42.4c60.8-1.4 60.8-1.4 83.2-58.4 1.6-4 2.8-8 4.6-11.8 6.8-14.8-6-21.4-12.4-30.8s-15-5.2-22.6-1.6c-32.2 13.6-67.4 19-102.4 15.4-107.4-9-195.8-106.199-193-214.002 3-114 95-208.399 205.2-211.198 94.8-2.399 177 54.799 208.6 145.798 5.4 15.799 11 27.399 31.4 25.6 18.6-1.799 31.4 9.201 42 24.201 31.8 44.403 64.202 88.201 96.399 132.198 25.2 34.402 50.2 68.802 75.6 103.002 5.398 7.4 11.201 17.6 21.402 4.8 15.999-20.2 13.4-43-6.203-60.2-90.6-79.2-99.201-216.601-19.198-304.202 82.798-90.4 216.001-94.598 305.601-11.396 83.797 77.4 84.797 227.596 2.399 305.396zM217.788 335.599c15.4-0.8 30.6 0 46 0 13.6 0 27.2 0 41 0 7.4 0 16.2 1.799 20.8-5.998 4.8-7.802-2.6-14.399-6.4-20.602-14.4-22.801-36-40.399-61-50.2-25.2-9.801-52.8-11.001-78.8-3.799-26.4 7.197-50 22.601-67 44.198-17 21.602-26.6 48.001-27.6 75.401-2.4 55.403 35.2 108.403 89.6 125.801 26.6 8.402 55 7.802 81.2-1.799 26.2-9.401 48.4-27.199 63.6-50.8 4-6.402 10.8-12.6 7-20.602-4-7.797-13-6.398-20.4-6.398-29 0-57.8 0.6-87 0s-47.4-17.198-47.8-42.199c-0.4-24.6 17.6-41.404 46.8-43.003zM537.19 571.4c-32.802-44.601-65.602-89.198-98.602-133.401-3.8-5.198-6.2-14.199-14.4-12.4s-6.2 11.201-8.2 17.203c-5.2 16.199-12.2 31.798-20.8 46.397-17.2 28.399-6.8 57.201 24.8 68.401 35.2 12.6 70.6 24.4 105.602 37.2 10.196 3.8 17.998 4.8 21.397-9.2-3.199-4-5.998-9.2-9.796-14v-0.2zM857.19 261.198c-52.604-23.396-111.401-7.397-147.802 40.604-16.798 22.796-25.6 50.4-24.8 78.799s10.801 55.598 28.799 77.4c11.6 14 17.003 10.201 22.201-3.803 9.201-25.6 18.398-51.2 27.599-77 12.6-34.397 34.801-47.996 60.601-37.396 25.8 10.596 32.597 33.397 19.997 66.599-11.995 31.598-24.196 63.4-36.996 97.397 28.599 0.4 56.398-9.196 78.999-26.8 22.401-17.798 38.2-42.598 44.598-70.597 6.203-28.804 2.399-59.002-11.001-85.402-13.2-26.4-35.196-47.401-61.996-59.602v-0.2h-0.2z" />
<glyph unicode="&#xe91c;" d="M384.606 241.201c-0.6 48.601 0 97.197 0 145.798s0.4 97.202 0 145.803c-0.4 37.198-14.8 51.998-51.2 52.798-37.6 0.6-75 0.8-112.601 0-122.8-2.6-212-84.001-218.4-204.399-4-77.8-2-156.204-0.6-234.004 0.6-21.597 9.2-41.999 24.4-57.198 15-15.199 35.2-23.801 56.4-24.001 52-1.2 104 0 156-0.6 14.4 0 18.2 4.398 18.6 19.397 2.4 71.002 39.8 116.804 108 130.804 16.8 2.999 19.6 10.601 19.4 25.6zM298.605 385.999c0.4-14-7-17.398-19.2-17.198-29 0.4-58 0-87 0-28 0-56.2 1-84.2-0.4-19.6-0.8-23.2 7.597-20.4 25.2 9 53.199 55.6 98.996 109.8 103.799 27.8 2.399 56.2 0.8 84.2 1.599 12 0.4 16.8-4.798 16.8-16.798-0.4-32.002-0.4-64.2 0-96.202z" />
<glyph unicode="&#xe91d;" d="M981.392 690.4c-38-49.8-98.002-82.2-165.2-82.2-69.803 0-131.199 34.2-168.799 86.8-42.203 0-84.402 0-126.601 0-46.601 0-72.001-24-72.201-71.4-0.8-135.401 0-270.398-0.4-405.8 0-11.001 1.6-20.402 11.6-26.999 29.798-19.602 45.402-48.601 50.6-83.402 2.399-16.399 10.201-20.797 25.6-20.797 40.999 0.8 81.798 1.399 122.802 0 18.798-0.6 24.995 6.797 27.199 24.6 8.597 66.999 62.601 116.4 125.796 116.4 63.4 0 117.204-49.401 125.601-116.4 2.399-18.003 8.602-26.999 27.399-24.201 6.003 0.4 12 0.4 17.803 0 38.2 0 41.199 2.999 41.199 40.799 0 81.398 0 163.001 0 244.4 0 82.603 0.2 165.001 0 247.2 0.2 37.8-14.199 61.6-42.398 71z" />
<glyph unicode="&#xe91e;" glyph-name="icon-gs-truck-old-checked" d="M820.204 656.2c101.001 0 183.603 82.4 183.803 183.4 0.2 101.4-82.603 184.4-183.803 184.4-100.396 0-183.598-82.4-183.798-182-0.4-103 81.598-185.8 183.798-185.8zM727.206 850.6c10.601 9.6 25.4 8.6 37.2-3 6.198-6 12.4-11.8 17.998-18.4 6.602-7.6 11.6-7.6 18.803-0.2 24.6 25.4 50 50.4 75.001 75.4 8.597 8.6 18.598 11.4 30.198 6.6 10.601-4.4 14.999-13 15.999-24-0.6-7.4-3.199-13.8-8.797-19.4-34.202-33.8-68.003-68-102.4-101.8-13.6-13.4-27.804-12.8-41.604 0.8-14.599 14.8-29.598 29.4-43.598 44.6-11.6 13.2-10.801 28.6 1.2 39.4zM788.997 186.802c-12.6 0-25-2.604-36.601-7.402s-22.201-11.6-30.998-20.402c-8.802-8.797-15.799-18.998-20.602-30.398-4.798-11.401-7.197-23.401-6.997-35.801 0-12.2 2.599-24.4 7.597-35.601 4.803-11.196 12-21.597 21.002-30.198s19.597-15.399 31.198-20.002c11.6-4.598 24.201-6.997 36.801-6.797 25.4 0.6 49.401 10.601 67.199 28.199 17.798 17.603 27.799 41.199 27.999 65.799-0.8 51-44.997 93.603-96.597 92.604zM320.19 187.602c-19 0.2-37.8-5.203-53.8-15.404-16-10.196-28.4-24.795-35.8-41.799-7.4-16.998-9.4-36.001-5.8-54.199s12.6-35.001 26-48.201c13.4-13.2 30.6-22.201 49.2-26s38.2-1.999 55.8 5.003c17.6 6.997 32.8 18.998 43.4 34.397s16.4 33.402 16.4 52c-0.2 24.6-10.2 48.201-28 65.799-17.8 17.803-42 28.004-67.4 28.404zM1023.995 626.4c0 33-15.199 55.2-42.199 64.2-38-50.2-98.202-82.6-165.6-82.6-70.003 0-131.404 34.2-169.004 87.2-54.599 0-109.197 0-163.598 0-36.4 0-65.2-11-75.6-48.8-3.6-13.2-13.6-14.6-25.6-14.4-40.999 0.4-81.999 0-122.8 0-59.6 0-88-22.4-99.2-78.6-9.4-46.998-19-94.199-27.2-141.401-3-17.198-9.8-26.999-28.2-32.197-23.6-6.602-46-17.403-68.4-26.8-10.6-3.803-19.6-10.601-26-19.602s-9.6-19.602-9.6-30.598c-0.8-57.203-1.2-114.4 0-171.603 0.8-34.397 28-57.797 63.2-58.197 24.8-0.2 49.4 0.8 74.2-0.4 16.2-0.6 21.4 3.799 22.2 20.597 3.6 69.003 36.8 119.403 104.4 145.003 89.8 33.797 208.2-20.002 214.4-142.204 1-21.597 9.399-23.796 27.402-23.196 31.398 1 63.195 1.799 94.598 0 22.401-1.399 28.199 5.398 29.199 27.199 1 26.4 9.001 52 23.001 74.601 14.199 22.596 34.002 41.199 57.598 53.999 23.601 13 50.4 19.597 77.605 19.597 27.199 0 53.799-6.797 77.6-19.797 50.8-27.199 77.6-70.003 81.598-126.401 2.199-30.798 16.199-37.6 43.598-21.402 23.201 13.8 32.602 34.801 32.402 60.801-0.2 81.198 0 162.402 0 243.8 0 80.399 0 160.8 0 241.2zM384.595 445.201c0.2-14.199-5.8-19.202-19.8-18.803-20.4 0.6-41 0-61.4 0s-41 0-61.4 0c-11.8 0-16.6 3.803-13.8 16.603 6.6 29.798 12.2 59.997 17 90.2 2.2 13.598 8.8 17.999 22.2 17.798 32.4-0.6 64.8-0.4 97.2 0 14 0 20.2-5 20-18.998-0.6-29.004-0.6-58.002 0-86.801z" />
<glyph unicode="&#xe91f;" glyph-name="icon-gs-file-text" d="M950.413 589.799c0.2 24.6-7.602 43.6-24.4 60.6-115.6 115.8-231.2 231.8-346.4 348.001-17.803 18-37.8 25.8-63.6 25.6-98.801-1.2-197.802-0.4-296.602-0.4-94.2 0-145-50.2-145.4-144-0.2-122.8 0-245.6 0-368.199 0-124.002-0.4-247.803 0.2-371.8 0.4-89 51-139.201 139.4-139.401 199-0.4 397.799-0.2 596.801 0 88.201 0.2 139.201 50.8 139.6 139.401 0.4 150.196-0.4 300.198 0.4 450.198zM807.609 108.798c-196.598 0.8-393.398 0.8-589.998 0-27.8-0.2-34.4 10.201-34.2 36.201 1 122.802 0.4 245.599 0.4 368.401 0 121.599 0.8 243.2-0.6 364.999-0.4 29 9.4 37.2 37.2 36.6 86.4-1.4 172.8-1 259.2-0.2 18.399 0.2 31.999-4.6 45.198-17.8 99.201-100.2 198.802-199.8 299.003-299.001 12.6-12.4 16.399-25.4 16.399-42.2-0.4-137.602-0.8-275.198 0.2-412.599 0-25-7.202-34.402-32.802-34.402zM666 538.998c-51 0.4-102 0-153 0s-101.999 0.2-152.998 0c-36-0.2-59.2-18.801-59-46.6 0.2-26.999 21.2-45.597 56.6-45.797 103.2-0.8 206.198-0.8 309.398 0 34.601 0.2 56.203 19.997 55.598 46.797-0.6 26.999-22.796 45.4-56.598 45.601zM668.209 320.6c-52.2 0.4-104.199 0.2-156.399 0.2s-104.2 0.4-156.4-0.2c-31.2-0.2-53-18.598-54.2-44.398-1.4-25.6 19.4-47.202 51.2-47.601 106.6-1 212.999-1 319.598 0 31.603 0.4 52.204 22.201 50.8 47.801-1.799 26-23.196 43.998-54.599 44.198zM344.823 668.198c44-1 88.2-1.2 132.199 0 26 0.8 41.999 15.4 42.599 42.8 0.4 28.2-14 45-42.399 46.8-21.4 1.4-43 0.2-64.4 0.2-22.6 0-45.4 1.2-67.8-0.2-27.8-1.8-44.2-19.2-43.4-46.4 1.2-25 16.6-42.6 43.2-43.2z" />
<glyph unicode="&#xe920;" glyph-name="icon-gs-web-mail-block" d="M844.8 643.2c20.602-5.6 33.802-2 33.802 22.4-0.2 84.2 1.999 168.4-1.599 252.4-3.004 66.2-50.4 105.8-117.604 106-106.998 0-213.797 0-320.598 0-104.6 0-209.2 0-314 0-81.8-0.2-124.8-43.6-124.8-126.4 0-135.4 0-270.6 0-406.002 0-82.598 42.4-125.996 125.2-126.8 72.8-0.8 145.6 1.004 218.4-0.8 27.8-0.6 40.6 10.201 48.8 35.401 18.8 58.002 50 109.802 95 150.801 102.2 93.6 220.598 129.8 357.4 93zM468.8 649.8c-8.4-5-17.4-11.6-27-8.2-16.4-2.4-28 5.2-39.6 12.2-85.6 51-171.2 101.8-256.6 153.2-35.2 21.2-45.2 51.8-27.6 79.2 17.8 28 49.4 33.6 83.4 13.6 70.2-41.4 140.6-82.6 209.8-125.4 20.4-12.6 35.6-12.2 55.6 0.2 69.2 43.2 139.198 84.6 209.401 126 38 22.4 67.399 17.6 85.602-12.6 16.798-28 7.397-58.6-27.804-80-88.001-53.2-176.596-105.8-265.198-158.2zM751.596 547.399c-153 1-274.399-119.401-274.999-272.601-0.6-150.401 120.799-273.198 271.001-274.598 149.402-1.399 275.997 124.197 276.197 273.798 0.4 149.801-121.598 272.401-272.199 273.401zM605.399 211.198c-17.003 7.202-15.999 25.6-18.003 40.999-1 7.802-0.2 15.804-0.2 23.801 0.4 102.4 96.402 180.799 195.404 159.203 10.996-2.399 26-1.799 30.798-17.003 4.798-15.399-7.202-22.396-15.799-30.998-52-52.2-103.999-104.399-156.399-156.199-10.001-9.801-18.003-27.399-35.801-19.802zM710.997 115.4c-29.399 7.797-33.202 19.397-11.6 41.199 54.999 55.798 110.602 111.202 166.4 166.4 8.402 8.202 15.599 21.602 30.803 15.999 14.399-5.398 12.6-20.397 15.799-31.798 2.599-9.601 1.999-20.202 2.399-25.6-3.599-115.4-101.8-193.2-203.8-166.2z" />
<glyph unicode="&#xe921;" glyph-name="icon-gs-phone-block" d="M691 330.001c-181.199-1.399-362.398-0.4-543.598-1-27.2-0.2-38.4 7.597-38.2 36.801 1.2 171.598 1 343.198 0 514.798-0.2 27.8 10.4 35 36.2 34.6 93.4-1 187.2 3.8 280.2-2 59.2-3.6 92.401 14.2 110.399 70.6 10.801 34.4 10.801 40-26 40-122.799 0.2-245.799 0.2-368.999 0.2-87-0.2-140.6-53-140.8-139.2-0.2-123.8 0-247.8 0-371.6 0-126.201-0.4-252.201 0.2-378.397 0.2-77.605 51.8-133.003 128.6-133.803 158.4-1.399 316.8-1.399 475.202 0 75.396 0.6 127.395 54.999 128.4 130.199 0.8 52.2-1.804 104.599 0.8 156.799 1.799 33.602-9.801 42.203-42.403 42.004zM426.602 111.601c-40.4-3.204-81.6-3.404-122 0.4-32.4 2.999-49 29.199-45.6 60.396 3.2 28.004 24.4 46.402 55.8 47.202 18.2 0.6 36.2 0 54.4 0 15.8 0 31.8 0.4 47.6 0 32.4-0.8 55.4-20.397 58-49.201 2.6-29.399-16.2-56.398-48.2-58.797zM769.004 933c-143.399 0.2-258.399-113.2-258.599-254.799-0.2-142.199 114.4-257 256.4-257.2 141.4-0.2 256.8 113.801 257 253.599 0.4 143.4-112.801 258.2-254.8 258.4zM610.007 627.4c-5.803 16-7.402 32.6-9.201 49.4-0.6 110.6 111.801 192.2 216.4 157.2 24.6-8.2 26.8-15.6 8.202-34.2-60.201-60.4-120.403-120.6-181.004-180.6-18.598-18.4-25.6-16.2-34.397 8.2zM722.403 518.203c-29.798 8.797-32.397 17.198-10.796 38.598 58.797 59 117.799 117.799 176.996 176.6 21.002 20.8 29.403 18.8 37.4-9.4 4.203-15.2 6.203-31 7.802-39.8-0.2-115.6-107.798-196.401-211.402-165.998z" />
<glyph unicode="&#xe922;" glyph-name="icon-gs-location-pin" d="M506.188 1023.6c-17.198 1.6-39.4-2.6-61.8-6.4-215.8-37.8-344-268-281.4-449.2 69.8-201.998 191-374.001 313.6-545.399 22.998-32.002 47.398-29.199 71.399 3.599 88.8 120.603 172.003 244.799 242 377.203 36.001 67.998 71.402 137.198 83.202 214.198 31.998 210.2-143.004 406-367.002 406zM513.59 547.601c-57.202-1-109.202 49.4-110.602 107-1.4 61 47 111.6 107.598 112.4 60.601 0.8 110.202-48.4 110.602-109.4 0.6-57.8-49.601-109-107.598-110z" />
<glyph unicode="&#xe923;" glyph-name="icon-gs-key" d="M993.807 791.199c-39.799 40.6-80.199 80.8-120.398 121-52.005 52-86.001 51.6-138.801-1.2-90-90.2-180.404-180-269.802-270.8-14.8-15-26.4-18.4-46.8-8.4-58 28.6-121.2 32.6-183 20.4-144.2-28.2-248-168.799-233.6-310.998 15.6-154.6 139.2-268.2 291.801-268 194.798 0.2 343.001 195.399 276.401 375.598-22.201 60.401-10.201 91.6 32.597 128 22.401 19 36.401 21 57.003 0.8 24.201-24 49.601-46.802 76-68.399 23.801-19.402 49.601-17.203 70.398 4.798 20.202 21.402 17.003 45.6-0.2 68-7.597 9.8-16.798 18.4-25.4 27.4-70.797 74.2-70.398 73.8 3.799 143 16.404 15.2 27.804 15 42.603-0.8 20.797-22.6 42.998-44 64.8-65.6 37.001-36.8 78.599-41.2 108.198-11.8 34.601 34.8 32.802 78-5.598 117zM290.806 218.6c-78.2 0.8-145.2 68.998-144 146.798 1.2 79.004 68 145.603 146 145.203 80.8-0.2 145.2-66.599 144.8-149.002-0.4-78.799-67.2-143.799-146.8-142.999z" />
<glyph unicode="&#xe924;" glyph-name="icon-gs-shopping-bag" d="M1019.792 218.999c-21.996 109.002-44.798 218-67.998 326.8-8.002 37.4-20.602 75.4-58.202 91.4-34.796 14.8-40.999 39.6-43.198 71.8-5.398 79.6-35.401 148.4-89.6 208.2-143.199 158.4-410.2 137.4-525.2-42.2-34.6-54-52.4-112.6-57-176.2-1.4-19.2 2.2-41.6-24.4-50.8-51.8-18-74.4-58.8-84.4-110-20.8-105.799-43-211.202-65.4-316.801-25-117.999 57.2-220.799 177.8-220.999 109.4-0.2 219 0 328.403 0 110.597 0 221.199-0.4 331.796 0.2 119.803 0.4 201.201 101.001 177.401 218.6zM614.795 404.202c-36.401-1.004-72.802-0.205-109.402-0.205-34.2 0-68.399-0.8-102.599 0.205-37 1-59.8 23.596-59.2 56.398 0.6 30.998 23.2 52.2 59.4 52.599 70.6 0.8 141.199 1 211.802 0 35.596-0.4 57.997-23.201 57.398-54.399-0.2-32.402-21.801-53.599-57.398-54.599zM661.592 661c-51.4 0-102.6 0-154 0-63.799 0-127.799 0.8-191.599-0.4-25.2-0.4-33.8 8.8-34 34-0.8 108 91.6 212.8 197.4 222 120.802 10.6 227.401-64.8 248.198-175.6 15.004-79.8 14.804-80-65.999-80z" />
<glyph unicode="&#xe925;" glyph-name="icon-gs-user-anonymous" d="M992.6 568.8c-19 2.8-38.2 7.2-57.2 7-17.6-0.2-20.6 9.8-24 22.6-21 81-41.6 162-63.6 242.8-22.6 83.6-97.6 124-180.4 98.4-46-14.2-92.2-28-138-42.8-11.6-3.8-21.6-3.4-33 0.2-48 15.2-96 30-144.4 44-77.2 22.4-151.6-19.2-172.6-96.6-22-81.4-43.2-163.2-64-244.8-3.6-14.2-7.2-23.8-25.2-23.6-17.6 0.2-35.2-4.6-52.8-6.8-25.8-3.2-40-17.8-37-39.2 2.8-20.8 21-32.2 46.8-28.8 18.4 2.4 36.6 5.4 55 7.4 114.8 12 229.6 21.4 345.2 23.2 123.4 1.8 246.4-1.2 369.4-13 56.6-5.4 113.2-11.6 169.8-17.4 20.6-1.4 35.2 10.4 37.4 29 2 20-10.4 35.4-31.4 38.4zM789.8 444c-78.2 5.4-154.6-46.8-181.8-125-3.8-11-6.6-15.4-20.2-13-46.6 8-93.8 7.8-140.4 0-17-2.8-23.8-0.8-30 17-31.6 90.2-128 139.4-220 114-92.4-25.4-150.2-117.6-132-210.4 16.4-83.8 90.2-147 174.2-149.2 87.8-2.4 163.4 55.6 184.4 141.2 1.8 7.8 2.6 15 13 16.8 48.8 8 97.6 9.6 146.8 2.4 12.2-1.8 17.4-6.4 20.2-19.2 19.8-88.2 106.8-150.6 194.8-140.6 96 11 165.8 88 165.8 188.4-0.6 6.6-0.6 18.8-3.2 30.6-18.2 83.2-85.8 141-171.6 147z" />
<glyph unicode="&#xe926;" glyph-name="icon-gs-ok-bubble" d="M512 1024c-282.328 0-512-229.672-512-512 0-282.292 229.672-512 512-512 282.292 0 512 229.708 512 512 0 282.328-229.706 512-512 512zM511.938 61.314c-248.954 0-450.688 201.766-450.688 450.686 0 248.952 201.734 450.686 450.688 450.686 248.982 0 450.686-201.734 450.686-450.686 0-248.92-201.704-450.686-450.686-450.686zM717.524 717.714l-265.244-309.494-156.974 117.84-43.47-57.904 211.436-161.87 308.892 360.398z" />
<glyph unicode="&#xe927;" glyph-name="icon-gs-loading" d="M299.2 460c-11 26.6-32 48-62.6 39-72-21.2-143-45.8-210.6-78.4-25-12-31.2-37-22.4-63 9-25.6 27.8-39.6 59.8-39.8 2.2 0.2 8.4-0.4 13.8 1.6 62.8 23 125.8 45 187.8 70 32.8 13.2 46 42.6 34.2 70.6zM983 431.6c-54.8 20.6-109.6 41-164.6 61-41.4 15-70.6 4.8-85-28.8-14-33.2 0.2-62.4 41.2-78.6 52.2-20.6 105-39.4 157.8-58.6 8.6-3.2 18-4 19.6-4.4 42.4 0.4 65 15.6 70.8 44.6 6 32.6-9.6 53.6-39.8 64.8zM420 282.2c-25.8 9.2-50.8 0.6-63.8-23.4-33-61-65.4-122.4-94.4-185.2-12-26 1.4-49.8 26.8-64.6 24.8-14.4 51.2-11.6 66.2 10.8 41.8 62.6 72.8 131 103 199.6 1.4 3 0.6 6.8 0.8 10.4 1 27-15.4 44.2-38.6 52.4zM238.6 614.4c28-24 62.2-22.8 82.6-0.6 23.8 26 20.6 58-9.4 85.2-43.2 39.2-87 77.8-130.2 117-11.6 10.4-24.2 18-40.6 17.8-24.2-0.8-42.6-10.2-53.6-32.6-11.2-22.8-6.8-43.8 10.8-60.2 46.2-43 92.6-85.4 140.4-126.6zM670.6 260.2c-14.6 26-41.8 32.6-70.4 17.8-27.6-14.2-38.4-42.2-26.4-70.6 9.4-22.2 21.4-43.4 32.6-65 19.6-38 37.8-76.8 59.6-113.6 13.2-22.4 35-34.4 63-24.4 26 9.2 40 27.2 41 55-0.6 4.2-0.2 9.2-2.2 13.2-32 62.6-62.6 126.2-97.2 187.6zM571.2 875c0 29 0.6 57.8-0.2 86.8-1 39-22 61.8-56.2 62.2s-56.8-22.2-57.4-60.8c-0.8-57.8-0.8-115.8 0-173.6 0.4-37.2 24.4-61.6 57.8-61 31.8 0.6 54.8 24.4 55.6 59.6 1 29 0.4 58 0.4 86.8zM798.2 621.4c42 37 83 75 124.6 112.6 13.6 12.4 21.2 27.2 22.8 45.6-3.6 21.2-12.2 39-34 48.6-21.4 9.4-41.6 8-59-7.2-44.6-39.2-89.4-78.2-132.8-118.8-28-26.2-29-59.4-6.2-82.8 22.6-23.2 55.8-23.2 84.6 2z" />
<glyph unicode="&#xe928;" glyph-name="icon-gs-geometric-square" d="M0.2 513.6c0 129.6-0.2 259.4 0 389 0.2 75.8 44.8 121.2 120.2 121.2 261.6 0.2 523.2 0.2 784.8 0 73 0 118.6-45.8 118.6-119.4 0.2-261.6 0.4-523.2 0-784.8-0.2-74.6-44.6-119.2-118.4-119.4-262.8-0.2-525.4-0.4-788.2 0-71.8 0-116.6 45.2-116.8 117.4-0.6 132-0.2 264-0.2 396z" />
<glyph unicode="&#xe929;" d="M226.944 405.184l-35.648-133.12-130.304-2.752c-38.415 70.177-61.008 153.747-61.008 242.594 0 86.047 21.192 167.145 58.642 238.358l-1.346-2.808 116.032-21.248 50.816-115.2c-10.396-29.463-16.402-63.438-16.402-98.815 0-38.389 7.072-75.126 19.985-108.979l-0.703 2.099z" />
<glyph unicode="&#xe92a;" d="M1015.040 607.68c5.751-28.792 9.042-61.892 9.042-95.761 0-160.985-74.354-304.604-190.593-398.388l-0.977-0.763-146.048 7.488-20.672 129.024c59.948 35.588 105.859 89.42 130.621 153.751l0.707 2.089h-273.728v202.56h491.776z" />
<glyph unicode="&#xe92b;" d="M832.512 112.704v0c-86.928-70.28-198.809-112.823-320.627-112.823-193.92 0-362.66 107.808-449.555 266.758l-1.338 2.673 165.952 135.872c44.581-116.404 155.391-197.553 285.154-197.553 56.617 0 109.625 15.448 155.041 42.359l-1.41-0.774 166.72-136.512z" />
<glyph unicode="&#xe92c;" d="M838.848 906.176l-165.888-135.872c-45.699 28.876-101.315 46.013-160.934 46.013-132.685 0-245.545-84.88-287.244-203.304l-0.654-2.132-166.784 136.576c87.055 165.622 257.911 276.64 454.697 276.64 124.652 0 238.899-44.545 327.692-118.585l-0.821 0.666z" />
<glyph unicode="&#xe92d;" horiz-adv-x="3137" d="M386.341 1024h27.892c101.778-1.99 193.462-43.622 260.567-110.038l-0.032 0.032c-25.259-25.795-51.054-50.517-75.776-76.312-50.869 48.117-119.705 77.7-195.45 77.7-144.749 0-264.265-108.034-282.315-247.869l-0.15-1.424c-1.789-12.165-2.811-26.207-2.811-40.489 0-70.789 25.103-135.716 66.893-186.362l-0.399 0.499c49.766-59.351 122.834-97.752 204.94-101.018l0.543-0.017c6.212-0.503 13.449-0.79 20.753-0.79 70.731 0 135.182 26.892 183.684 71.010l-0.222-0.199c38.573 37.134 63.781 87.913 67.835 144.546l0.041 0.716c-87.381 0-174.763-0.536-262.144 0v108.398h367.909c4.492-21.722 7.064-46.685 7.064-72.25 0-100.32-39.601-191.39-104.023-258.432l0.119 0.124c-58.425-56.734-136.195-93.829-222.494-100.471l-1.225-0.076c-12.512-1.352-27.026-2.124-41.72-2.124-70.861 0-137.532 17.939-195.72 49.522l2.165-1.075c-86.213 46.743-152.311 121.333-187.087 211.491l-0.939 2.768c-15.343 40.112-24.228 86.507-24.228 134.977 0 45.734 7.911 89.621 22.439 130.366l-0.843-2.711c28.586 79.114 78.818 144.634 143.542 191.31l1.183 0.812c61.271 44.587 136.943 72.926 218.973 77.34l1.041 0.045z" />
<glyph unicode="&#xe92e;" glyph-name="icon-gs-like" d="M865.782 703.814c-62.601 0-125.206 1.877-187.67-0.75-31.169-1.277-39.365 10.812-37.454 42.951 2.258 39.798 0.956 79.895 0.41 120.144-0.161 33.833-9.591 66.829-27.063 94.688-45.792 73.964-170.861 99.869-233.054-16.37-49.823-93.562-102.516-185.396-152.544-278.733-9.91-18.472-20.503-25.832-40.391-25.006-37.453 1.652-75.179 1.277-112.562 0-46.611-1.352-74.632-31.462-75.179-81.998-0.683-125.15-0.683-250.098 0-374.85 0-51.361 30.686-82.598 78.185-83.046 29.604-1.575 59.264-1.375 88.848 0.6 15.672 2.224 31.6 0.249 46.428-5.749 14.828-6.003 28.115-15.857 38.729-28.716 44.902-50.313 99.714-69.837 164.026-66.833s127.395 0.678 191.361 0.678c68.345 0 136.689 0 204.693 0 88.849 0 136.689 45.729 151.518 141.019 18.452 119.242 36.908 238.485 56.383 357.576 20.095 125.701-38.205 203.569-154.663 204.395zM911.575 523.074c-17.496-118.292-34.626-236.607-51.395-354.948-6.836-46.558-11.756-51.966-54.677-52.039-67.111 0-134.227 0-201.338 0-65.955 0-131.975 0-198.2 0-63.081 0.527-94.793 36.118-94.793 105.126 0 113.762 0 227.523-0.342 341.283-0.507 17.351 3.705 34.474 12.097 49.183 49.618 87.955 98.871 176.161 147.76 264.617 8.475 15.018 16.198 31.538 36.291 25.605 20.095-5.932 24.332-22.527 24.127-43.477-0.551-63.751 0-127.653 0-191.254 0-67.581 14.692-83.124 77.088-83.35 85.363 0 170.862 0 256.020 0 46.543-0.375 54.608-11.789 47.362-61.049v0.302z" />
<glyph unicode="&#xe92f;" glyph-name="icon-gs-edit-user" d="M1023.958 399.884c0-22.6-9.6-44-26.2-59.2-55.4-50.8-110.6-101.6-166-152.4-19.2-22-40.6-41.8-64-59.2-63.4-36.6-153.6-77.8-200.8-31.8-48.6 47.6-15.2 140.8 32.6 196.8 68.8 75.6 141.4 147.4 217.8 215.4 85.2 81 121.2-8.2 172.4-44.2 21.6-15 34.2-39.4 34.2-65.4v0zM567.758 409.884c-74.8-66.2-120.4-159-127-258.6-7.8-48 33.2-133-60-135.8-116-3.4-251.6-43.8-343 20.6-56.8 39.8-41.8 171.8-5 249.8 91.8 195.4 340.4 250 535 124zM365.358 1023.484c107.6 8.2 201.4-72.2 209.8-179.8 0.6-6.8 0.6-13.4 0.4-20.2 1.8-113.8-89-207.6-202.8-209.4s-207.6 88.8-209.6 202.6c0 2.6 0 5.2 0 7.6-3 107 81.4 196.4 188.6 199.2 4.6 0.2 9 0.2 13.6 0z" />
<glyph unicode="&#xe930;" horiz-adv-x="3137" d="M2497.048 996.645h112.64v-751.616c-37.352 0-75.288-0.536-112.64 0.536 0.536 250.002 0 500.541 0 751.080z" />
<glyph unicode="&#xe931;" horiz-adv-x="3137" d="M1018.539 736.061c15.1 3.061 32.457 4.812 50.223 4.812 56.888 0 109.581-17.96 152.718-48.52l-0.824 0.554c51.376-37.118 87.6-92.461 99.246-156.379l0.229-1.512c3.335-15.454 5.245-33.207 5.245-51.407 0-140.577-113.96-254.537-254.537-254.537-6.376 0-12.697 0.234-18.955 0.695l0.837-0.049c-78.468 4.284-147.033 43.269-191.115 101.749l-0.47 0.651c-30.716 42.519-49.128 95.69-49.128 153.162 0 30.717 5.26 60.206 14.928 87.615l-0.567-1.844c29.816 85.058 102.007 148.159 190.584 164.53l1.538 0.236zM1034.289 635.806c-29.795-7.858-54.996-24.359-73.492-46.628l-0.187-0.232c-22.541-28.212-36.171-64.404-36.171-103.778 0-43.929 16.965-83.895 44.701-113.704l-0.094 0.102c25.396-25.576 60.577-41.408 99.455-41.408 9.128 0 18.053 0.873 26.695 2.539l-0.88-0.141c42.645 8.477 77.774 35.135 97.543 71.377l0.371 0.742c12.905 23.1 20.503 50.682 20.503 80.038 0 46.056-18.703 87.744-48.927 117.883l-0.004 0.004c-25.196 23.211-58.976 37.442-96.080 37.442-11.866 0-23.392-1.455-34.409-4.198l0.977 0.206z" />
<glyph unicode="&#xe932;" horiz-adv-x="3137" d="M1576.472 736.207c15.665 3.409 33.661 5.362 52.112 5.362 141.331 0 255.902-114.571 255.902-255.902 0-61.493-21.69-117.92-57.836-162.048l0.36 0.453c-48.098-57.863-120.092-94.432-200.627-94.432-84.321 0-159.278 40.087-206.855 102.243l-0.459 0.625c-30.665 42.747-49.036 96.119-49.036 153.782 0 32.457 5.821 63.554 16.475 92.305l-0.597-1.839c31.060 82.475 102.168 143.296 188.977 159.266l1.535 0.235zM1592.222 636.245c-29.68-7.881-54.832-24.161-73.509-46.119l-0.17-0.205c-22.702-28.3-36.435-64.644-36.435-104.195 0-42.72 16.021-81.698 42.382-111.253l-0.145 0.165c25.733-27.146 62.051-44.038 102.314-44.038 9.239 0 18.27 0.889 27.013 2.587l-0.888-0.144c42.496 8.836 77.496 35.376 97.538 71.383l0.376 0.736c12.713 23.032 20.193 50.489 20.193 79.693 0 46.428-18.907 88.441-49.441 118.758l-0.010 0.010c-24.967 22.763-58.321 36.704-94.931 36.704-12.177 0-23.994-1.542-35.266-4.442l0.979 0.214z" />
<glyph unicode="&#xe933;" horiz-adv-x="3137" d="M2049.609 705.585c33.156 21.917 73.845 34.966 117.583 34.966 32.175 0 62.701-7.061 90.112-19.719l-1.334 0.552c20.734-10.52 38.451-23.722 53.578-39.435l0.060-0.062c0.536 14.19 0 28.965 0.536 43.886 35.255-0.536 70.51 0 106.35-0.536v-464.262c0.157-3.491 0.247-7.585 0.247-11.7 0-70.421-26.231-134.715-69.455-183.646l0.259 0.298c-44.563-41.175-104.369-66.428-170.073-66.428-16.367 0-32.368 1.567-47.861 4.559l1.577-0.254c-83.702 14.834-151.729 70.5-183.616 145.272l-0.606 1.599c31.598 15.262 64.756 27.355 97.524 41.594 17.635-44.3 55.256-77.307 101.418-88.21l0.982-0.196c8.997-2.113 19.328-3.324 29.942-3.324 40.348 0 76.608 17.502 101.603 45.328l0.111 0.126c20.841 32.108 33.233 71.375 33.233 113.536 0 10.643-0.79 21.101-2.313 31.319l0.141-1.154c-22.728-24.436-51.754-42.72-84.5-52.284l-1.321-0.331c-16.197-4.050-34.792-6.374-53.929-6.374-60.238 0-115.098 23.024-156.26 60.753l0.172-0.155c-53.763 47.702-87.475 116.972-87.475 194.117 0 92.829 48.814 174.257 122.173 220.016l1.094 0.636zM2158.494 638.683c-33.441-5.994-62.077-23.267-82.473-47.665l-0.178-0.219c-23.075-28.521-37.044-65.236-37.044-105.213 0-40.278 14.18-77.244 37.819-106.178l-0.239 0.301c25.436-30.074 63.195-49.041 105.385-49.041 4.598 0 9.143 0.225 13.626 0.665l-0.568-0.045c43.281 5.287 79.712 30.579 100.203 66.203l0.344 0.649c14.081 24.872 22.379 54.624 22.379 86.313 0 42.896-15.204 82.24-40.518 112.939l0.243-0.303c-23.813 26.485-58.189 43.066-96.438 43.066-7.931 0-15.695-0.713-23.233-2.078l0.79 0.119z" />
<glyph unicode="&#xe934;" horiz-adv-x="3137" d="M2745.003 678.717c42.094 38.58 98.43 62.221 160.287 62.221 29.167 0 57.106-5.256 82.921-14.873l-1.642 0.536c73.706-33.936 128.718-97.746 150.081-175.487l0.447-1.909c-114.249-47.348-227.913-94.208-342.162-141.41 14.915-31.144 40.418-55.224 71.746-67.941l0.909-0.326c15.166-5.768 32.704-9.108 51.021-9.108 33.133 0 63.713 10.928 88.334 29.375l-0.383-0.275c14.717 12.208 27.558 25.87 38.565 40.955l0.444 0.639c28.965-19.505 57.88-38.424 86.845-57.88-46.989-68.728-125.001-113.247-213.411-113.247-76.937 0-145.999 33.714-193.218 87.175l-0.24 0.277c-37.565 45.991-60.326 105.356-60.326 170.037 0 74.904 30.524 142.679 79.812 191.564l0.018 0.018zM2801.371 581.534c-15.587-23.307-24.875-51.975-24.875-82.813 0-1.967 0.038-3.925 0.113-5.874l-0.009 0.281q114.493 47.348 229.181 95.281c-14.234 28.356-41.53 48.324-73.774 52.085l-0.442 0.042c-5.407 0.77-11.652 1.21-17.999 1.21-46.69 0-87.824-23.793-111.936-59.917l-0.308-0.49z" />
<glyph unicode="&#xe935;" horiz-adv-x="1159" d="M731.208 1007.455l-666.443-422.321c-38.882-25.67-64.183-69.17-64.183-118.58 0-8.761 0.796-17.337 2.318-25.658l-0.132 0.868c7.874-34.602 28.891-63.273 57.399-81.059l0.541-0.315c11.652-7.725 23.241-11.652 34.893-19.313 9.083-4.166 19.639-6.931 30.743-7.709l0.288-0.016 344.874-38.627 19.313-3.863c27.263-3.050 52.171-9.864 75.318-19.962l-1.669 0.649c26.599-9.253 49.65-21.053 70.713-35.537l-0.991 0.644 15.515-11.652 290.732-194.165c8.914-6.356 19.196-11.622 30.212-15.28l0.818-0.235c15.515-3.863 27.103-7.725 42.618-11.652 4.717-0.655 10.168-1.029 15.705-1.029 29.525 0 56.566 10.634 77.502 28.281l-0.181-0.148c31.729 27.227 51.704 67.373 51.704 112.183 0 13.845-1.907 27.245-5.472 39.951l0.249-1.039-240.26 755.8c-11.733 35.856-38.578 63.882-72.81 76.972l-0.839 0.282c-11.391 4.181-24.563 6.948-38.27 7.71l-0.357 0.016c-4.245 0.613-9.147 0.963-14.13 0.963-20.671 0-39.936-6.021-56.136-16.406l0.416 0.249z" />
<glyph unicode="&#xe936;" horiz-adv-x="1159" d="M986.918 15.515c-11.836 3.855-22.122 9.125-31.373 15.748l0.343-0.233-278.951 259.637-15.515 15.515c-19.22 17.56-42.615 30.892-68.503 38.328l-1.218 0.299c-23.755 9.817-51.339 15.518-80.254 15.518-0.394 0-0.787-0.001-1.181-0.003h-19.253l-379.832-19.313c-12.745 0.776-24.63 3.543-35.652 7.996l0.759-0.271c-7.725 3.863-11.652 3.863-19.313 7.725 11.652-7.725 23.241-11.652 34.893-19.313 9.083-4.167 19.639-6.933 30.743-7.709l0.287-0.016 344.874-38.627 19.313-3.863c27.263-3.050 52.171-9.864 75.318-19.962l-1.669 0.649c26.599-9.253 49.65-21.053 70.713-35.537l-0.991 0.644 15.515-11.652 290.603-193.714c8.914-6.356 19.196-11.622 30.212-15.28l0.818-0.235c15.515-3.863 27.103-7.725 42.618-11.652-3.927 11.459-11.652 11.459-23.305 15.322z" />
<glyph unicode="&#xe937;" d="M1023.545 518.77c0.048-2.606 0.075-5.68 0.075-8.76 0-88.911-22.701-172.52-62.622-245.347l1.335 2.658c-6.428-12.288-10.752-12.914-21.22-4.039-38.059 32.199-76.743 63.659-115.655 94.891-4.898 2.766-8.151 7.937-8.151 13.867 0 3.15 0.917 6.085 2.5 8.554l-0.038-0.063c17.058 38.818 26.985 84.068 26.985 131.637 0 184.774-149.789 334.564-334.564 334.564s-334.564-149.789-334.564-334.564c0-150.418 99.265-277.651 235.86-319.765l2.371-0.629c29.607-9.946 63.701-15.684 99.135-15.684 74.201 0 142.524 25.165 196.9 67.427l-0.725-0.542c2.94 3.174 7.129 5.154 11.781 5.154 4.919 0 9.32-2.214 12.263-5.699l0.020-0.024q57.344-48.014 115.769-94.72c9.671-7.794 8.932-11.89 0-19.57-88.635-79.795-206.542-128.602-335.849-128.602-26.024 0-51.587 1.977-76.546 5.789l2.795-0.351c-250.572 36.082-440.991 249.329-440.991 507.052 0 282.77 229.23 512 512 512 234.987 0 433-158.304 493.211-374.085l0.858-3.602c10.903-35.253 17.182-75.78 17.182-117.773 0-3.436-0.042-6.862-0.126-10.278l0.010 0.506z" />
<glyph unicode="&#xe938;" d="M520.135 553.301c-0.569-8.761-5.973-12.117-9.557-16.498-19.285-24.007-39.196-47.559-57.913-71.964-11.378-15.189-5.689-30.663 13.54-31.289 42.382-1.422 84.821-0.512 130.105-0.512-5.98 5.716-11.209 12.139-15.574 19.155l-0.241 0.415c-6.087 14.393-16.782 15.36-30.151 15.076-5.509-0.57-11.903-0.895-18.373-0.895-10.546 0-20.89 0.863-30.966 2.523l1.097-0.149c23.495 27.762 45.852 53.76 68.267 80.156 4.598 4.309 7.463 10.42 7.463 17.2 0 3.235-0.652 6.318-1.832 9.124l0.058-0.155c-3.428 7.207-10.65 12.1-19.016 12.1-0.455 0-0.907-0.014-1.355-0.043l0.061 0.003c-30.891 0-61.781 0-92.615 0-16.043 0-8.647-12.231-9.728-19.513s-2.276-15.644 10.581-15.076c18.148 0.91 36.58 0.341 56.149 0.341zM698.482 510.293c0-103.871-84.204-188.074-188.075-188.074s-188.075 84.204-188.075 188.075c0 103.871 84.204 188.075 188.075 188.075 0.12 0 0.24 0 0.36 0h-0.019c103.659-0.355 187.572-84.389 187.733-188.059v-0.015z" />
<glyph unicode="&#xe939;" glyph-name="icon-gs-printer" d="M1023.191 642.399c-0.6 49.2-36.596 85.4-85.597 88-32.802 1.6-66.004 2.6-98.801 0.8-27.599-1.4-35.201 9.6-34.601 35.6 1.399 62.6 0.8 125 0.4 187.6-0.2 48.6-20.197 69.4-67.599 69.4-150.001 0.2-300.001 0.2-449.801 0-47.2 0-67.4-21-67.6-69.2-0.2-61.401-1.4-122.801 0.6-184.201 1-29.2-7.2-41.4-38-39.4-32.8 2.2-66 1-98.8-0.8-44.8-2.6-81.6-39.2-82.2-84-1.4-88.6-1.2-177.402 0-265.998 0.6-47.202 36.8-83.802 83.8-86.201 34-1.799 68.2-2.399 102.2-1 25.8 1 33.6-8.802 33-33.802-1.4-62.601-0.6-125.001-0.4-187.602 0.2-52 19.6-71.197 72.4-71.397 72.8-0.2 145.4 0 218.2 0 73.801 0 147.602-0.2 221.603 0 54.399 0.2 72.797 18.798 72.997 74.401 0.2 59.197 1.399 118.199-0.6 177.396-1 30.203 6.602 44.003 39.6 41.204 30.403-2.599 61.401-1 92.004 0.6 51.2 2.399 86.996 38.4 87.596 89.6 0.6 86.001 0.8 172.599-0.4 258.999zM361.991 915c50-1 99.8-0.4 149.799-0.4 51 0 102.2-0.6 153.2 0.2 22.001 0.4 30.403-8.4 30.203-30.2-0.6-78.4-0.6-156.6 0-235 0.2-20-7.402-28.8-28.004-28.8-103.2 0.4-206.398 0.4-309.799 0-20.2 0-28.6 8.2-28.4 28.4 0.4 78.4 0.8 156.6-0.2 235-0.4 24.8 11 31.2 33.2 30.8zM662.991 108.997c-51 1-102.2 0.4-153.4 0.4-48.799 0-97.8 0.8-146.6-0.4-24.4-0.6-35.4 7.202-34.4 33.002 1.4 39.799 1 79.599 0.2 119.398-0.4 21.002 5.6 31.603 28.8 31.403 103.4-0.6 206.798-0.6 310.203 0 20.997 0.2 27.799-9.401 27.399-29.204-0.8-40.999-1-81.798 0.2-122.797 0.6-24.001-9.001-32.402-32.402-31.803zM791.391 402.598c-94.398 0.4-188.601 0.2-282.999 0.2-92 0-184 0.2-276.201-0.2-25.6-0.2-46.4 6.203-47.6 35.601-1.2 30.198 21.8 38.2 46 38.2 187.4 0.6 375.002 0.6 562.399 0 24.201 0 47.002-8.202 46.002-38.2-0.8-29.598-22.001-35.801-47.601-35.601z" />
<glyph unicode="&#xe93a;" d="M520.078 553.301c-19.57 0-38.002 0.569-56.32 0-12.8-0.569-11.378 7.737-10.524 15.076s-6.372 19.57 9.671 19.57c30.834 0 61.724 0 92.615 0 0.364 0.023 0.79 0.035 1.218 0.035 8.354 0 15.565-4.893 18.923-11.969l0.054-0.127c1.126-2.659 1.781-5.75 1.781-8.995 0-6.791-2.867-12.912-7.457-17.219l-0.013-0.012c-22.187-26.34-44.544-52.395-68.267-80.156 9.040-1.479 19.459-2.324 30.076-2.324 6.396 0 12.721 0.307 18.96 0.906l-0.794-0.062c13.312 0 24.007-0.74 30.094-15.076 4.633-7.419 9.859-13.839 15.783-19.539l0.032-0.031c-45.511 0-87.723-0.91-130.105 0.569-19.001 0.626-25.145 16.043-13.54 31.232 18.716 24.519 38.628 48.071 57.913 72.078 3.925 3.925 9.387 7.282 9.899 16.043z" />
<glyph unicode="&#xe93b;" horiz-adv-x="796" d="M497.892 804.523h-237.568v-34.873h276.878v228.58c22.016-10.98 39.538-18.375 55.524-27.989 103.28-62.024 171.321-173.441 171.321-300.75 0-46.772-9.184-91.4-25.847-132.177l0.844 2.334c-58.020-133.566-188.789-225.28-340.978-225.28-24.735 0-48.905 2.423-72.284 7.044l2.354-0.388c-22.756 4.324-33.564 11.378-32.427 36.921 2.162 57.401 0.683 114.859 0.683 176.356h239.73v36.409h-277.106v-228.921c-69.501 25.831-126.617 71.474-166.027 130.026l-0.771 1.217c-40.096 54.106-64.182 122.177-64.182 195.873 0 72.95 23.6 140.387 63.583 195.094l-0.653-0.937c64.737 98.756 174.906 163.078 300.098 163.078 23.516 0 46.501-2.269 68.75-6.601l-2.256 0.366c40.562-5.063 40.448-6.030 40.448-46.99-0.114-54.613-0.114-109.17-0.114-168.391z" />
<glyph unicode="&#xe93c;" horiz-adv-x="796" d="M121.23 99.783c-36.068 0.853-70.542-6.77-70.542-36.466-0.042-0.555-0.065-1.203-0.065-1.855 0-14.547 11.793-26.34 26.34-26.34 0.985 0 1.957 0.054 2.914 0.159l-0.118-0.011c0.364-0.012 0.792-0.018 1.222-0.018 17.617 0 32.647 11.075 38.507 26.643l0.094 0.283c1.050 3.036 1.656 6.535 1.656 10.175 0 0.223-0.002 0.445-0.007 0.667l0.001-0.033zM127.886 4.324l-3.186 21.675h-1.365c-14.026-15.995-34.501-26.038-57.323-26.038-0.868 0-1.732 0.015-2.592 0.043l0.125-0.003c-1.33-0.106-2.879-0.167-4.443-0.167-32.363 0-58.651 26.009-59.102 58.265v0.042c0 49.209 45.511 73.956 119.979 73.671v3.3c0 12.857-5.404 34.133-41.017 34.133-0.007 0-0.016 0-0.024 0-20.039 0-38.826-5.363-55.003-14.732l0.528 0.282-9.842 32.028c20.149 10.779 44.074 17.111 69.479 17.111 1.274 0 2.544-0.016 3.811-0.048l-0.188 0.004c2.98 0.425 6.421 0.668 9.919 0.668 40.845 0 73.956-33.111 73.956-73.956 0-3.123-0.194-6.2-0.569-9.221l0.037 0.361v-70.542c-0.028-1.54-0.044-3.356-0.044-5.175 0-14.729 1.050-29.212 3.079-43.38l-0.19 1.622z" />
<glyph unicode="&#xe93d;" glyph-name="icon-gs-star" d="M511.97 251.87l315.762-230.39-119.552 375.354 315.82 221.68h-384.128l-127.902 384.008-127.84-384.070h-384.13l315.762-221.62-119.554-375.354 315.762 230.392z" />
<glyph unicode="&#xe93e;" d="M1024 641l-315.8-243 123.8-397-320 246-320-246 123.8 397-315.8 243h392l120 384 120-384h392z" />
<glyph unicode="&#xe93f;" glyph-name="icon-gs-map-flag" d="M163.405 511.8c0 145.6 0 291.2 0 436.6 0 56.2 19.4 75.2 75.8 75.2 184.4 0 368.598-0.2 552.801 0.4 26.999 0 50-3.8 62.8-30.4 13.2-27.4 3.199-49.8-15.404-71-41.599-48.2-80.599-98.4-123.797-145.2-21.801-23.6-16.803-38.2 1.999-59.6 44.198-50.4 86.001-102.8 128.8-154.2 14.599-17.4 16.998-36.201 6.797-56.798-9.996-20.602-25.6-31.003-48.596-30.203-10.201 0.4-20.402-0.2-30.603-0.2-150.196 0-300.198 0-450.398 0-50.4 0-50.4 0-50.4-51.2 0-121.598 0.4-243.4-0.2-364.997-0.2-38-22-60.401-54.8-60.002-31 0.4-52.2 22.801-54.4 58.002-0.6 7.997-0.2 15.999-0.2 23.796 0 83.003 0 166 0 249.003-0.2 60.201-0.2 120.398-0.2 180.799z" />
<glyph unicode="&#xe940;" horiz-adv-x="796" d="M405.902 62.862c0-23.211 0.796-42.439 1.707-58.539h-44.885l-2.446 29.753h-0.91c-13.215-20.674-36.049-34.183-62.038-34.183-0.95 0-1.896 0.018-2.838 0.054l0.136-0.004c-36.921 0-70.542 21.276-70.542 84.878v114.859h51.2v-106.268c0-32.484 10.866-53.362 37.774-53.362 17.529 0.276 32.484 11.012 38.92 26.228l0.106 0.282c1.748 4.505 2.786 9.717 2.844 15.165v117.899h51.2v-136.533z" />
<glyph unicode="&#xe941;" horiz-adv-x="796" d="M519.623 255.431v-55.979h48.697v-36.864h-48.697v-86.244c0-23.666 6.656-36.124 26.283-36.124 0.189-0.002 0.413-0.003 0.637-0.003 6.826 0 13.449 0.872 19.762 2.512l-0.545-0.12 0.796-37.717c-9.958-3.105-21.409-4.893-33.276-4.893-1.282 0-2.558 0.021-3.83 0.062l0.185-0.005c-0.748-0.033-1.626-0.052-2.508-0.052-15.961 0-30.466 6.236-41.21 16.406l0.028-0.026c-10.077 12.728-16.165 29.014-16.165 46.723 0 2.759 0.148 5.484 0.436 8.166l-0.029-0.333v91.819h-29.013v36.693h29.013v44.089z" />
<glyph unicode="&#xe942;" horiz-adv-x="796" d="M644.324 101.774c0-37.604 19.115-66.105 50.233-66.105 29.013 0 49.38 27.648 49.38 66.958 0 30.492-14.108 65.422-48.924 65.422-36.295 0.057-50.688-33.735-50.688-66.276zM796.672 103.765c0.098-1.643 0.154-3.564 0.154-5.498 0-54.355-44.063-98.418-98.418-98.418-1.915 0-3.818 0.055-5.706 0.163l0.261-0.012c-1.616-0.097-3.506-0.152-5.409-0.152-53.035 0-96.028 42.993-96.028 96.028 0 1.674 0.043 3.339 0.128 4.992l-0.009-0.232c-0.101 1.668-0.159 3.618-0.159 5.581 0 54.135 43.885 98.020 98.020 98.020 2.378 0 4.736-0.085 7.072-0.251l-0.314 0.018c1.556 0.091 3.376 0.143 5.209 0.143 52.532 0 95.118-42.586 95.118-95.118 0-1.851-0.053-3.69-0.157-5.515l0.012 0.253z" />
<glyph unicode="&#xe943;" d="M113.778 1024h796.444c62.838 0 113.778-50.94 113.778-113.778v-796.444c0-62.838-50.94-113.778-113.778-113.778h-796.444c-62.838 0-113.778 50.94-113.778 113.778v796.444c0 62.838 50.94 113.778 113.778 113.778z" />
<glyph unicode="&#xe944;" d="M397.767 190.578c-58.726 0.074-108.146 39.826-122.9 93.883l-0.208 0.894h-43.463c-3.062-0.266-6.626-0.417-10.225-0.417-55.963 0-103.366 36.647-119.521 87.252l-0.245 0.888c-2.56 10.069-10.354 40.846 36.238 155.534 12.64 32.678 36.572 58.639 66.903 73.601l0.795 0.355c88.182 38.537 190.937 60.961 298.929 60.961 2.508 0 5.013-0.012 7.516-0.036l-0.382 0.003c59.809 47.010 127.621 88.628 200.026 121.98l6.31 2.606c51.38 23.762 111.498 37.649 174.852 37.717h32.451v-54.044h-32.37c-55.358-0.060-107.868-12.188-155.062-33.893l2.316 0.955c-76.825-35.092-143.032-76.093-203.321-124.2l1.934 1.491-7.566-6.485h-9.728c-4.569 0.105-9.952 0.165-15.349 0.165-100.44 0-196.028-20.775-282.701-58.263l4.618 1.778c-18.442-9.524-32.532-25.312-39.638-44.49l-0.184-0.566c-18.853-35.361-31.135-76.895-34.084-120.983l-0.050-0.93c10.161-28.147 36.644-47.905 67.743-47.905 3.496 0 6.933 0.25 10.295 0.732l-0.385-0.045h91.819l1.365-25.316c0-40.467 32.805-73.273 73.273-73.273s73.273 32.805 73.273 73.273v0l1.422 25.486h452.437v-53.931h-403.911c-14.995-54.973-64.48-94.72-123.249-94.72-0.050 0-0.101 0-0.151 0h0.008z" />
<glyph unicode="&#xe945;" d="M924.729 402.375h-248.661c-0.010 0.4-0.016 0.872-0.016 1.345 0 30.704 24.325 55.727 54.754 56.85l0.102 0.003h193.82z" />
<glyph unicode="&#xe946;" d="M925.070 640.569h-121.913c-0.025 0.627-0.039 1.363-0.039 2.102 0 30.144 23.754 54.74 53.564 56.091l0.122 0.004h68.267z" />
<glyph unicode="&#xe947;" d="M924.9 524.060h-185.287c-0.017 0.519-0.027 1.13-0.027 1.743 0 30.488 24.152 55.335 54.368 56.452l0.102 0.003h130.844z" />
<glyph unicode="&#xe948;" d="M1024 512c0-282.77-229.23-512-512-512s-512 229.23-512 512c0 282.77 229.23 512 512 512s512-229.23 512-512z" />
<glyph unicode="&#xe949;" d="M522.524 250.425c-104.247 6.317-195.329 57.757-254.716 134.867l-0.602 0.813c-5.172 6.592-8.294 15.007-8.294 24.151 0 12.034 5.408 22.805 13.925 30.016l0.058 0.047c6.303 5.232 14.477 8.406 23.392 8.406 11.916 0 22.507-5.671 29.222-14.461l0.065-0.089c4.551-5.689 111.388-140.629 249.572-98.759 115.2 34.816 115.2 210.148 115.2 304.356-0.018 0.436-0.028 0.947-0.028 1.46 0 20.705 16.785 37.49 37.49 37.49s37.49-16.785 37.49-37.49c0-0.513-0.010-1.025-0.031-1.533l0.002 0.073c0-106.268 0-327.225-168.96-378.311-22.122-6.985-47.564-11.018-73.946-11.036h-0.010z" />
<glyph unicode="&#xe94a;" d="M300.373 567.125c-19.64 0.978-35.194 17.14-35.194 36.935 0 0.575 0.013 1.148 0.039 1.717l-0.003-0.081v38.457c-0.091 0.949-0.142 2.052-0.142 3.167 0 19.511 15.817 35.328 35.328 35.328s35.328-15.817 35.328-35.328c0-1.115-0.052-2.218-0.153-3.306l0.010 0.14v-38.457c0.023-0.488 0.036-1.061 0.036-1.636 0-19.795-15.554-35.957-35.106-36.931l-0.087-0.003z" />
<glyph unicode="&#xe94b;" d="M511.972 0c-282.754 0-511.972 229.217-511.972 511.972s229.217 511.972 511.972 511.972c282.754 0 511.972-229.217 511.972-511.972v0c-0.356-282.611-229.361-511.616-511.937-511.972h-0.034z" />
<glyph unicode="&#xe94c;" d="M605.833 820.577l-41.64-72.245c14.332-8.344 26.141-19.516 34.972-32.835l0.241-0.386 50.287 18.829-41.868-34.131c5.526-12.297 8.746-26.655 8.746-41.766 0-13.030-2.394-25.501-6.766-36.997l0.239 0.715 77.99-29.182c7.515 19.515 11.868 42.094 11.868 65.689 0 69.132-37.37 129.536-93.011 162.114l-0.887 0.48z" />
<glyph unicode="&#xe94d;" glyph-name="icon-gs-close-2" d="M692.234 757.122l-180.232-180.236-180.234 180.236-64.886-64.83 180.346-180.348-180.346-180.172 64.886-64.78 180.234 180.12 180.232-180.12 64.888 64.78-180.348 180.172 180.348 180.348zM512.002 1024c-282.316 0-511.998-229.658-511.998-511.946 0-282.346 229.682-512.054 511.998-512.054s511.996 229.708 511.996 512.054c-0.002 282.288-229.682 511.946-511.996 511.946zM512.002 80.918c-237.7 0-431.084 193.434-431.084 431.196 0.002 237.634 193.386 430.964 431.084 430.964s431.082-193.33 431.082-430.964c-0.002-237.762-193.384-431.196-431.082-431.196z" />
<glyph unicode="&#xe94e;" d="M511.972 554.010h-3.584c-56.139 1.886-100.931 47.849-100.931 104.273 0 57.619 46.709 104.328 104.328 104.328 19.259 0 37.299-5.218 52.784-14.318l-0.49 0.266 41.64 72.245c-26.969 15.878-59.412 25.257-94.046 25.257-103.676 0-187.723-84.046-187.723-187.723s84.046-187.723 187.723-187.723c0.125 0 0.25 0 0.375 0h3.622c55.922-2.035 100.484-47.86 100.484-104.093 0-57.525-46.633-104.158-104.158-104.158s-104.158 46.633-104.158 104.158c0 12.967 2.37 25.38 6.699 36.831l-0.238-0.717-78.047 29.239c-7.483-19.477-11.818-42.009-11.818-65.553 0-103.676 84.046-187.723 187.723-187.723s187.723 84.046 187.723 187.723c0 80.081-50.144 148.451-120.747 175.423l-1.287 0.432c-19.492 7.407-42.028 11.72-65.566 11.775h-0.024z" />
<glyph unicode="&#xe94f;" d="M503.951 679.557c-7.636-4.4-12.693-12.517-12.693-21.816 0-13.859 11.235-25.094 25.094-25.094 4.561 0 8.837 1.217 12.522 3.343l-0.121-0.065 78.673 63.883c-2.604 5.835-5.435 10.821-8.68 15.499l0.204-0.311z" />
<glyph unicode="&#xe950;" glyph-name="icon-gs-finger-clic" d="M597.4 314.4c-7.6 0.8-15.4 1.2-23.2 0.8-58 0.6-116 0.8-174 0-24.6-0.4-34.6 9-34 36.2 1.2 59.8 1.8 119.6 0 179.2 2.8 51.6-36.8 95.6-88.4 98.2-1.6 0-3.4 0.2-5.2 0.2-51-1.6-91-44-89.4-95 0-2.4 0.2-5 0.6-7.4-0.4-76.8 0-153.6 0-230.6 0-81.8 0-163.4 0-245.2 0-33.8 15.8-50.4 45.4-50.4 152.4-0.6 304.8-0.6 457.2 0 30 0 45.8 17.4 45 51.2-0.6 31.8 0 63.4 0 95l-0.6-0.4c9.8 83.4-50 158.6-133.4 168.2zM1024 915.6c0 82.6-24 108-102.4 108h-409.6c-142 0-284.2 0-426.4 0-41.8 4.8-79.6-25.2-84.6-67-0.4-3.8-0.6-7.6-0.4-11.2-1-133-0.6-266 0-399-1-25.8 12.4-49.8 34.8-62.4 26.8-15.8 37.2-10.2 38.8 22 0.8 14.6 0 29.2 0.8 43.8 4.6 112.6 99.6 200.4 212.4 195.8 10.6-0.4 21-1.6 31.4-3.8 100-28.2 165.6-123.4 156.6-226.8 0-34 9.4-42.4 40.2-41.8 142.2 1.8 284.2 0.8 426.4 0.8 54.4 0 81.8 28.8 81.8 86.8 0.2 118.2 0.2 236.6 0.2 354.8zM894.2 838.2v0c-60-76.2-119.6-152.8-179.6-228.8-40-50.4-63.4-51.2-106.6-6.6-25.2 26.2-51.2 52.2-75.4 79.2-24 22.4-25.6 60-3.4 84.4 20.4 21.6 54.6 22.6 76.2 2.2 1.2-1 2.2-2.2 3.2-3.4 52.2-48 52.4-48 96.6 9.6 36.2 46.8 71.6 94.4 108 140.8 12.8 21.6 38.8 31.4 62.6 23.6 21.6-9.8 36.2-30.4 38.2-54-1.6-17.2-8.6-33.6-19.8-47z" />
<glyph unicode="&#xe951;" d="M512 247l-320-246 123.8 397-315.8 243h392l120 384v-778z" />
<glyph unicode="&#xe952;" glyph-name="icon-gs-home" d="M1002 545.2v0l-436.6 430c-29.6 29-77 29-106.8 0l-436.6-430c-29-28.4-29.6-75-1-104.2 0.4-0.4 0.8-0.8 1-1 29.6-29 77-29 106.8 0l383.2 377.8 383.2-377.6c29.6-29 77-29 106.8 0 29 28.4 29.4 75 1 104.2-0.4 0.2-0.8 0.6-1 0.8zM511.884 737.152l-353.2-348.2v-313.8c1.6-27.8 25.2-49.4 53.2-48h600.4c27.8-1.2 51.6 20.2 53.2 48v313.8l-353.6 348.2z" />
<glyph unicode="&#xe953;" glyph-name="icon-gs-close-1" d="M602.578 512.044l402.628 402.628c25.050 24.918 25.050 65.46 0 90.544-24.984 25.018-65.43 25.018-90.48 0l-402.758-402.626-402.628 402.626c-25.050 25.018-65.626 25.018-90.544 0-25.050-25.084-25.050-65.626 0-90.544l402.756-402.626-402.756-402.628c-25.050-25.050-25.050-65.626 0-90.544 12.458-12.526 28.832-18.854 45.272-18.854 16.308 0 32.812 6.328 45.274 18.854l402.626 402.626 402.756-402.626c12.526-12.526 28.898-18.854 45.274-18.854 16.308 0 32.748 6.328 45.208 18.854 25.050 24.92 25.050 65.494 0 90.544l-402.628 402.626z" />
<glyph unicode="&#xe954;" glyph-name="icon-gs-right" d="M299.788 29.094l-58.356 58.362 424.596 424.508-424.596 424.586 58.356 58.188 482.776-482.776-482.776-482.868zM299.788 1024l512.044-512.038-512.044-511.962-87.62 87.456 424.59 424.508-424.59 424.586 87.62 87.45zM753.468 511.962l-453.68 453.682-29.258-29.094 424.592-424.588-424.592-424.508 29.258-29.094 453.68 453.602z" />
<glyph unicode="&#xe955;" glyph-name="icon-gs-left" d="M724.212 994.906l58.356-58.362-424.596-424.508 424.596-424.588-58.356-58.188-482.774 482.776 482.774 482.87zM724.212 0l-512.044 512.036 512.044 511.964 87.62-87.456-424.59-424.508 424.59-424.588-87.62-87.448zM270.532 512.036l453.682-453.682 29.258 29.094-424.594 424.588 424.592 424.508-29.258 29.094-453.68-453.602z" />
<glyph unicode="&#xe956;" glyph-name="icon-gs-arrow-up" d="M591.334 0.496v708.084l166.216-176.908 126.086 116.13-370.436 375.442-372.838-375.442 101.228-116.026 191.744 176.804v-708.084z" />
<glyph unicode="&#xe957;" glyph-name="icon-gs-user" d="M512.6 472.228c-208.2 3.4-383-155.8-398.8-363.4-2-72 28.4-109.6 107.6-108.8 94.2 1 188.6 0 282.8 0 100.6 0 201.4 0 302.4 0 68.2 0 102.4 33 103.4 95.4 3.6 195.8-185.6 374.6-397.4 376.8zM516.6 589.428c121.8 1 220.6 98.6 223.2 220.2-8 126-116.8 221.8-242.8 213.8-114.6-7.4-206-98.4-213.8-213.2 3-125 107-224 232-221 0.6 0.2 1 0.2 1.4 0.2z" />
<glyph unicode="&#xe958;" glyph-name="icon-gs-arrow-down" d="M432.666 1023.242v-708.084l-166.216 176.908-126.086-116.13 370.436-375.442 372.836 375.442-101.228 116.024-191.744-176.802v708.084z" />
<glyph unicode="&#xe959;" glyph-name="icon-gs-arrow-right" d="M0.626 432.534h708.084l-176.908-166.216 116.132-126.086 375.442 370.438-375.442 372.836-116.026-101.23 176.802-191.744h-708.084z" />
<glyph unicode="&#xe95a;" glyph-name="icon-gs-arrow-left" d="M1023.374 591.332h-708.084l176.91 166.218-116.134 126.086-375.44-370.438 375.44-372.836 116.028 101.23-176.804 191.744h708.084z" />
<glyph unicode="&#xe95b;" glyph-name="icon-gs-up" d="M994.906 299.788l-58.362-58.356-424.506 424.598-424.588-424.596-58.188 58.36 482.776 482.77 482.868-482.776zM0 299.788l512.038 512.042 511.962-512.042-87.456-87.622-424.506 424.592-424.588-424.586-87.45 87.616zM512.038 753.47l-453.682-453.686 29.094-29.258 424.588 424.594 424.508-424.59 29.094 29.258-453.602 453.682z" />
<glyph unicode="&#xe95c;" glyph-name="icon-gs-down" d="M29.094 724.212l58.362 58.358 424.508-424.596 424.588 424.598 58.188-58.358-482.778-482.776-482.868 482.774zM1024 724.212l-512.038-512.042-511.962 512.042 87.456 87.622 424.508-424.588 424.588 424.59 87.448-87.624zM511.962 270.532l453.682 453.684-29.094 29.258-424.588-424.596-424.506 424.592-29.094-29.258 453.6-453.68z" />
<glyph unicode="&#xe95d;" d="M142.279 730.055c-0.838-2.516-1.552-5.531-2.011-8.629l-0.037-0.303q0-216.576-0.398-433.323c0-14.905 7.509-16.1 19.228-16.1 88.974 0.341 178.062 0 267.378 0.341 7.004 0.363 13.482 1.074 19.843 2.13l-1.013-0.139c0 20.708-0.74 40.391 0 59.847 0.683 14.677-5.234 18.716-19.172 18.546-56.889-0.569-113.778 0-170.667 0-7.737 0-15.417 0.74-25.429 1.138v376.548zM893.497 577.991c-3.129 27.193-4.949 51.826-8.932 75.89-4.234 37.135-32.692 66.523-69.002 72.134l-0.46 0.058c-29.602 6.184-63.617 9.725-98.46 9.725-44.394 0-87.445-5.748-128.45-16.54l3.508 0.785c-39.224-8.184-69.209-39.725-74.975-79.13l-0.062-0.514c-7.132-38.557-11.211-82.922-11.211-128.24 0-62.255 7.698-122.713 22.193-180.472l-1.083 5.096c6.154-25.782 26.090-45.7 51.411-51.731l0.472-0.095c38.682-11.672 83.135-18.391 129.158-18.391 45.446 0 89.362 6.551 130.854 18.761l-3.272-0.826c16.761 5.555 30.517 16.382 39.645 30.485l0.177 0.292c13.909 27.399 22.056 59.742 22.056 93.988 0 9.242-0.593 18.345-1.744 27.274l0.111-1.056h-89.316c0-12.857 0.512-23.836 0-34.702-1.934-35.328-10.24-48.526-44.26-51.484-15.538-1.336-33.623-2.097-51.886-2.097-23.081 0-45.878 1.216-68.33 3.589l2.798-0.24c-28.9 2.788-38.798 14.279-39.822 43.292-2.901 67.527-4.836 135.509-3.641 203.15 0.74 40.277 12.971 53.362 51.655 57.572 16.821 1.705 36.351 2.678 56.107 2.678 17.999 0 35.81-0.807 53.397-2.387l-2.269 0.164c28.843-2.162 39.196-16.782 41.7-46.933 0.853-9.956 1.138-19.911 1.764-30.492 29.81 0.398 57.458 0.398 90.169 0.398zM512 0.057q-206.165 0-412.103 0c-2.59-0.26-5.597-0.408-8.639-0.408-50.584 0-91.591 41.007-91.591 91.591 0 2.747 0.121 5.466 0.358 8.152l-0.025-0.348q0 413.013 0.398 826.027c-0.184 2.183-0.289 4.725-0.289 7.291 0 50.867 41.236 92.103 92.103 92.103 3.046 0 6.058-0.148 9.029-0.437l-0.377 0.030q411.079 0 822.101 0c2.585 0.257 5.588 0.403 8.625 0.403 51.056 0 92.444-41.389 92.444-92.444 0-3.147-0.157-6.257-0.464-9.323l0.031 0.387q0.284-410.795 0.398-821.476c0.335-2.953 0.527-6.377 0.527-9.844 0-50.961-41.312-92.274-92.274-92.274-3.613 0-7.177 0.208-10.682 0.612l0.427-0.040z" />
<glyph unicode="&#xe95e;" d="M893.611 577.991h-90.396c-0.626 10.581-0.91 20.594-1.764 30.492-2.503 30.151-12.857 44.715-41.643 46.876-15.4 1.441-33.302 2.263-51.396 2.263-19.623 0-39.019-0.967-58.145-2.855l2.42 0.193c-38.684-4.21-50.859-17.067-51.655-57.628-1.138-67.641 0.74-135.566 3.641-203.15 1.195-29.070 10.98-40.505 39.822-43.292 19.645-2.132 42.431-3.349 65.501-3.349 18.254 0 36.33 0.761 54.198 2.254l-2.337-0.157c34.133 2.958 42.268 16.27 44.203 51.484 0.569 10.809 0 21.788 0 34.702h89.543c1.032-7.845 1.622-16.917 1.622-26.127 0-34.282-8.165-66.657-22.655-95.286l0.554 1.207c-9.264-14.433-23.035-25.275-39.3-30.628l-0.523-0.149c-38.205-11.408-82.106-17.974-127.539-17.974-45.937 0-90.307 6.712-132.182 19.209l3.266-0.837c-25.806 6.169-45.742 26.123-51.788 51.467l-0.095 0.473c-13.437 52.758-21.148 113.324-21.148 175.691 0 45.205 4.051 89.464 11.811 132.433l-0.675-4.507c5.82 39.905 35.78 71.439 74.362 79.536l0.618 0.108c37.461 10.004 80.47 15.75 124.821 15.75 34.805 0 68.784-3.539 101.597-10.276l-3.242 0.556c36.751-5.707 65.189-35.074 69.426-71.811l0.036-0.381c4.096-24.519 5.916-49.095 9.045-76.288z" />
<glyph unicode="&#xe95f;" d="M142.165 730.055h87.609v-376.718c10.012-0.398 17.692-1.138 25.372-1.138 56.889 0 113.778-0.341 170.667 0 13.881 0 19.797-3.868 19.172-18.546-0.967-19.399 0-39.14 0-59.847-7.794-0.853-13.255-2.105-18.83-2.105-88.974 0-178.005 0-266.923 0-11.662 0-19.228 1.195-19.228 16.1 0.455 144.498 0.284 288.939 0.398 433.323 0.352 3.335 0.973 6.366 1.855 9.284l-0.092-0.352z" />
<glyph unicode="&#xe960;" glyph-name="icon-gs-hyperlink" d="M952.8 810c-46.2 48.4-93 96.8-140.8 143.4-43.8 46.6-105.4 72-169.4 70-37.2 1.4-73.8-8.4-105-28.4-55-38.2-104.8-83.6-148-135-29.8-26.4-32.8-72-6.4-101.8 1.4-1.6 2.8-3 4.2-4.4 28.4-28.6 74.6-28.8 103.4-0.4 2 2 3.8 4 5.4 6 30 29.4 59 60 88.8 89.4 25.6 33.4 73.4 40 106.8 14.4 5.6-4.2 10.4-9.2 14.6-14.8 47.6-47.2 94.8-94.8 141.4-142.8 33.2-24.8 39.8-72 15-105-4.6-6-10-11.4-16-15.8-32-32.2-65.4-63.2-96.2-96.4-27-26.8-27.2-70.6-0.4-97.6 0.2-0.2 0.2-0.2 0.4-0.4 26.2-29.6 71.6-32.2 101.2-6 1.6 1.4 3.2 3 4.6 4.4 33.2 32.6 66 65.6 97.8 99.6 88.4 82.2 93.6 220.4 11.4 308.8-4 4.6-8.2 8.8-12.8 12.8zM630.2 277.6c-26.8 23.6-67.2 22.8-92.8-1.8-35.6-33.4-69.2-68.8-104.4-102.4-26.6-30.4-72.8-33.2-103-6.6-2.8 2.4-5.2 5-7.6 7.8-49.4 48.6-98.2 97.6-147 146.8-32.4 24.2-39.2 70-15 102.6 4.4 5.8 9.4 11 15.4 15.2 30.2 30.8 61.2 60.8 91.4 91.6 30.8 26 34.6 72 8.4 102.8-1 1.2-2 2.4-3 3.4-29 29.2-76.2 29.6-105.4 0.6-0.4-0.4-0.8-0.8-1.4-1.4-39-37.8-77-77-113.8-117-34-39-52.4-88.8-52-140.2 0.2-51.8 19.4-101.8 53.6-140.6 59.4-67.2 123.2-130.4 191-189.2 63.6-55.8 155.6-65.4 229.4-24.2 66.8 41.2 125 94.8 171.2 158 22 30.4 15.2 72.6-15 94.6zM651.6 663.6c-28.8 25-72 23.4-98.8-3.8-63.2-61.8-125.2-124.8-187.8-187.8-23.2-20-30.2-53.2-17-80.8 12.2-29.4 42.4-46.8 74-42.6 17.2-2.2 34.6 3.6 47.2 15.8 65.2 64.6 130.8 129 193.4 196 25.6 29.6 22.2 74.2-7.4 99.6-1.4 1.2-2.6 2.2-4 3.2z" />
<glyph unicode="&#xe965;" glyph-name="icon-gs-groupe-bubble" d="M456.168 484.186c-69.064 0-125.228 56.18-125.228 125.2 0 69.078 56.164 125.258 125.228 125.258 69.050 0 125.228-56.18 125.228-125.258 0-69.020-56.178-125.2-125.228-125.2zM456.168 706.814c-53.7 0-97.4-43.714-97.4-97.428 0-53.686 43.7-97.37 97.4-97.37s97.4 43.684 97.4 97.37c0 53.714-43.698 97.428-97.4 97.428zM609.226 484.186v27.83c38.336 0 69.57 31.19 69.57 69.542 0 38.38-31.234 69.6-69.57 69.6v27.83c53.7 0 97.398-43.714 97.398-97.428 0.002-53.688-43.698-97.374-97.398-97.374zM736.584 317.214h-85.616v27.828h53.526l-10.348 72.328-46.612 11.942 6.868 26.96 64.674-16.582zM624.878 289.386h-337.462l17.218 144.998 65.6 21.308 8.58-26.496-48.642-15.77-11.406-96.212h274.764l-11.394 96.212-48.612 15.77 8.58 26.496 65.6-21.308zM512 0c-282.314 0-512 229.702-512 512.014s229.686 511.986 512 511.986c109.168 0 213.322-33.858 301.242-97.922l-8.754-12c-85.34 62.208-186.494 95.080-292.488 95.080-274.138 0-497.158-223.004-497.158-497.144s223.020-497.172 497.158-497.172 497.158 223.034 497.158 497.172c0 110.14-35.28 214.482-102.038 301.75l11.796 9.016c68.748-89.878 105.084-197.336 105.084-310.766 0-282.312-229.686-512.014-512-512.014z" />
<glyph unicode="&#xe966;" glyph-name="icon-gs-cadnat-bubble" d="M512.004 0.012c-282.322 0-512.004 229.696-512.004 512.002s229.682 511.976 512.004 511.976c109.16 0 213.31-33.858 301.23-97.918l-8.756-12c-85.338 62.204-186.474 95.076-292.474 95.076-274.132 0-497.162-223-497.162-497.132s223.030-497.164 497.162-497.164c274.126 0 497.154 223.030 497.154 497.164 0 110.138-35.278 214.478-102.036 301.744l11.798 9.016c68.73-89.878 105.080-197.334 105.080-310.762 0-282.306-229.696-512.002-511.996-512.002zM512.004 289.39c-92.078 0-166.966 74.904-166.966 166.968v83.482h333.928v-83.482c-0.002-92.064-74.906-166.968-166.962-166.968zM372.866 512.014v-55.656c0-76.73 62.424-139.14 139.138-139.14 76.722 0 139.132 62.41 139.132 139.14v55.656h-278.27zM512.004 358.96c-22.884 0-41.552 18.524-41.742 41.394v28.176c0 23.016 18.726 41.742 41.742 41.742 23.008 0 41.734-18.726 41.734-41.742v-28.176c-0.202-22.87-18.812-41.394-41.734-41.394zM512.004 442.446c-7.666 0-13.914-6.232-13.914-13.914v-27.828c0-7.682 6.248-13.914 13.914-13.914 7.696 0 13.914 6.232 13.914 13.914v27.828c0 7.68-6.218 13.914-13.914 13.914zM623.308 567.67h-27.828v60.034c0 43.626-37.422 79.106-83.476 79.106-46.046 0-83.484-35.48-83.484-79.106v-60.034h-27.828v60.034c0 58.96 49.946 106.934 111.312 106.934 61.388 0 111.304-47.974 111.304-106.934v-60.034z" />
<glyph unicode="&#xe967;" glyph-name="icon-gs-avis-bubble" d="M512.004 0.012c-282.322 0-512.004 229.696-512.004 512.004 0 282.306 229.682 511.972 512.004 511.972 109.16 0 213.31-33.858 301.23-97.918l-8.756-12.002c-85.338 62.208-186.474 95.078-292.474 95.078-274.132 0-497.162-222.998-497.162-497.13 0-274.134 223.030-497.164 497.162-497.164 274.126 0 497.154 223.030 497.154 497.164 0 110.136-35.278 214.476-102.036 301.742l11.798 9.016c68.73-89.876 105.080-197.332 105.080-310.758 0-282.308-229.696-512.004-511.996-512.004zM775.84 470.766h-164.882v32.988h131.922v197.894h-263.82v-16.202h-33.018v49.19h329.798zM611.394 652.414h98.904v-32.972h-98.904v32.972zM610.958 586.148h99.34v-32.972h-99.34v32.972zM314.108 569.728h197.896v-32.988h-197.896v32.988zM314.108 503.45h138.544v-33.002h-138.544v33.002zM248.162 289.39v362.778h329.782v-263.842h-214.37v32.986h181.41v197.868h-263.85v-230.854l19.828 26.378 26.334-19.784z" />
<glyph unicode="&#xe968;" glyph-name="icon-gs-calenda-setting" d="M1023.122 791.616c-1.4 62.2-49 113.8-111 119.8-23.8 2-47.6 2.6-71.4 2.2-52.8 0-52.8 0-54.6 51.2 0 1.8 0 3.4 0 5.2-0.4 30.4-25.4 54.6-55.8 54-30.4-0.4-54.4-25.4-54-55.8-1-11-1-22.2 0-33.2 2.4-18.6-5.4-22.2-22.6-22-82.8 0.8-165.4 0-248.2 0.6-18.6 0-42-5.4-54.2 3.8-12.2 9-2.6 33.6-3.6 51.2-0.6 29.4-23.8 53.2-53.2 54.6-30 1.4-55.2-21.8-56.6-51.8 0-0.6 0-1 0-1.6-1-11.8-1-23.8 0-35.8 2-17.6-5.8-21.4-21.8-20.8-26.4 1.2-52.8 0.6-79.2 0-70.8 4.8-132-48.6-136.8-119.4-0.4-6-0.4-12 0-18.2 0-212.4 0-424.6 0-637-5.6-70.8 47.2-132.8 118-138.4 6.8-0.6 13.6-0.6 20.4 0 124.4 0 249 0 373.4 0 127 0 254-0.4 381.2 0 69.6-2.2 127.8 52.4 129.8 122 0 0.6 0 1 0 1.6 1.4 222.6 1.4 445.2 0.2 667.8zM676.322 327.216c0.4-1.6 0.6-3.4 0.4-5-9.8-32 6.4-66.2 37.4-78.8 17.6-11.2 22.6-34.4 11.6-51.8-1-1.4-2-2.8-3.2-4.2-10.4-20-35-28-55-17.6-0.8 0.4-1.8 1-2.6 1.4-27.8 20.8-46.4 11.6-73-3.2-25.2-14-37.2-25.6-35.4-56 2-23.6-15.8-44.4-39.4-46.4-2.2-0.2-4.6-0.2-6.8 0-25 1-44.8 21.6-44.8 46.6-0.2 2.6-0.2 5.2 0 7.6 3 21.4-1.4 38.4-26.2 42.4-1.6 0.2-3.2 1-4.6 2.2-19.6 23.6-54.4 26.8-78 7.2-0.4-0.4-1-0.8-1.4-1.2-20.6-10.4-45.8-2-56 18.6-0.2 0.2-0.2 0.4-0.4 0.6-10.6 19.4-5.6 43.6 11.8 57.2 6.4 5.6 13.6 10 21.4 13.4 11.8 2.8 19.2 14.8 16.2 26.6-0.2 1-0.6 2-1 3-1.8 4.8-2.2 10-1.4 15.2 10.4 29.2-5 61-34 71.4-0.4 0.2-1 0.4-1.4 0.4-19.2 14.8-22.6 42.2-8 61.4 12.6 16.2 34.6 21.6 53.2 13 22.4-17.4 54-16.2 75 3 23.2 15.2 38.4 25.6 35.4 56.2-2 24.2 16.2 45.4 40.4 47.4 1 0 2 0.2 3 0.2 26-0.4 47-21.4 47.2-47.4 0.6-7.6 0.6-15.4 0-23-1-11.6 1.4-20 15-21.8 4.2-0.6 8.2-2.4 11.6-5 22.4-26 61.6-29.2 88-7.2 22.6 15.6 57.6-12.8 58.6-42-1.8-21-15.6-38.8-35.2-46.2-15-4.2-24-19.8-19.8-34.8 0.8-1.4 1.2-2.4 1.4-3.4v0zM885.322 621.616c-95.4 0.8-190.8 0.4-286.4 0.4h-454.8c-32 0-33 1-33.2 32.8 0 40.8 0.8 81.8 0 122.6-0.6 20.2 7.4 27.4 27.2 26.6 27.2-1 54.6-0.8 81.8 0 13.8 0.4 20.2-2.6 18.8-18-1.2-13.6-1.2-27.2 0-40.8 1.4-28.6 25.2-50.8 53.8-50.2 29.4-0.8 54.2 22.2 55.8 51.6 1.6 18.4-8.2 45.2 3.8 53.2 14.2 9.6 39 3.8 59.4 3.8 80 0 160-0.4 240.2 0.6 18.8 0 28.6-3 25.2-24.2-1.2-11-1.2-22.2 0-33.2 1.2-29.6 26-52.6 55.4-51.8 28.6-0.4 52.4 21.6 54.2 50.2 0 2.6 0 5.2 0 7.6 1.6 51.2 1.6 51.2 51.6 51.2 16.2 0 32.4-0.8 48.6 0 19.6 1.2 27.6-6.4 27.2-26.4-1-42.6-1-85.2 0-128 0.4-21-7.6-27.8-28.4-27.6v-0.4zM512.922 384.816c-41 1.2-75-31.2-76.2-72.2 0-1 0-2 0-3.2 0.2-41.6 34.2-75.2 75.8-74.8 41.6 0.2 75.2 34.2 74.8 75.8v0c0.4 40.6-32 73.8-72.6 74.2-0.6 0.2-1.2 0.2-1.8 0.2z" />
<glyph unicode="&#xe96e;" glyph-name="icon-gs-user-full-body" d="M765.186 426.398c-9.596 102-64 173.402-156.799 212.202-90.6 38-177.599 23.2-255.399-37-78-60.4-99.4-144.599-97.6-238.397 1.4-62.8 5.2-68.803 66.4-69.803 30-0.6 45.4-12 48.8-43.598 7.2-67.604 17.4-135.002 25.6-202.601 3.6-29.598 14.2-49.601 49-46.802 21.4 1.599 43.201 0.4 64.803 0.4 22.796 0 45.597 1.604 68.198-0.4 32.197-2.799 45.397 14 49.401 42.603 8.997 62.8 18.398 125.596 26.999 188.596 7.797 57.403 9.201 60.201 66.999 61.001 31.398 0.6 46.602 15.399 46.802 45.402 0.2 29.399-0.4 58.997-3.204 88.396zM508.587 731.599c78.999-2 146.003 61.4 149.002 141 2.999 80.8-61.201 149.2-141.6 151.4-80.201 2.2-147.001-62.4-149.401-144.2-2.4-77.8 63.2-146 141.999-148.2z" />
<glyph unicode="&#xe96f;" glyph-name="icon-gs-profile" d="M511.405 1023.998c-281.399-0.68-512.838-232.54-511.398-512.501 1.46-282.678 231.2-511.98 512.5-511.498 281.298 0.478 512.561 232.238 511.498 512.658-1.058 281.82-231.819 512.020-512.6 511.34zM510.786 803.998c80.681 1.28 146.9-65.080 146.7-146.96-0.2-79.18-66.658-145.077-145.998-144.78-79.341 0.302-144.701 65.74-145.001 145.74s63.62 144.7 144.299 146zM730.205 222.998c-65-47.679-136.299-74.879-217.239-75.537-82.239 0.117-154.819 27.458-220.199 76.62-18.2 13.678-18.12 24.6-4.12 41.418 107.5 129.141 333.76 132.101 445.24 5.998 16.881-19.178 19.641-31.5-3.682-48.499z" />
<glyph unicode="&#xe971;" glyph-name="icon-gs-graph-bar" d="M73.607 286.998c0.2-49.201 18.6-66.999 68.2-67.799 25-0.4 50-0.2 75 0 57.6 0.4 76 18.198 76.2 75.001 0.2 68.198 0 136.402 0 204.6 0 152.399 0.2 304.6-0.2 457 0 48.6-19.8 68-67.8 68.2-27 0.2-54.2 0.2-81.6 0-52.8-0.2-69.6-16.2-69.8-68.6-0.4-111.4-0.2-222.8-0.2-334.2 0.2-111.399-0.2-222.8 0.2-334.202zM793.19 219.399c29.399-1.2 59.002-0.6 88.6-0.2 49.001 0.6 67.998 19.202 68.198 67.799 0.4 86.401 0.2 172.603 0.2 259.002 0 88.6 0.4 177.2-0.2 265.8-0.2 45.6-18.598 64.6-63 66-31.798 1-63.6 1.4-95.398-0.2-41.199-2.2-60.601-20.8-60.801-62.2-0.8-178.2-0.8-356.6 0-534.8 0.4-40.199 21.602-59.802 62.401-61.201zM1018.797 76.8c-11.8 24.201-32.002 32.802-58.402 32.602-149.002-0.405-297.799-0.2-446.8-0.2-151.199 0-302.398 0.2-453.598-0.205-35.8 0-58.8-20.997-60-51.595-1.2-32.602 22.4-57.198 58-57.198 302.4-0.405 604.8-0.2 907.397-0.2 19.402 0 35.201 5.998 46.602 22.396 12 17.198 16.399 34.801 6.802 54.399zM465.988 219.199c29.599-0.8 59.197-0.6 88.601 0 46.797 0.8 66.199 20.202 66.599 66.599 0.4 51.2 0 102.4 0 153.6 0 53.404 0.4 107.002-0.2 160.402-0.4 34-19.402 56-53.399 58-37.4 2.2-75.001 2.2-112.401 0-33.8-2-52.8-24.2-53-58.4-0.4-105.798-0.6-211.602 0-317.201 0.6-42.199 20.8-61.801 63.8-63z" />
<glyph unicode="&#xe976;" glyph-name="icon-gs-calendar" d="M1023.2 789c0.8 47.4-26.4 90.8-69.2 111-36.6 14-76.2 18.8-115 14-49.8 0.4-49.8 0-52.2 48.4-0.2 4.2-0.6 8.6-1.4 12.8-3.2 28.2-27.6 49.4-56 48.6-29.4-1.6-52.6-25.6-53.2-55-1-11-1-22.2 0-33.2 2.4-18.8-5.6-22-22.6-21.8-82.6 0.8-165.2 0-248 0.6-18.4 0-41.8-7.8-53.8 3.8-8.8 8.4-3 32-3.6 49 0 2.6-0.2 5.2-0.4 7.6-3.6 27.4-26.2 48-53.8 49.2s-51.4-19.2-54.4-46.8c-2.2-15.2-2.8-30.6-1.8-45.8 0.6-13.4-3.8-17.8-17.2-17.4-27.2 1-54.6 0.8-81.8 0-70.4 6-132.4-46.2-138.4-116.6-0.6-8.2-0.6-16.4 0.2-24.6 0-211.4 0-422.8 0-634.2-5.8-70.6 46.8-132.6 117.4-138.4 7-0.6 14-0.6 21 0 123.6 0 247.2 0 370.8 0 127.8 0 255.8-0.4 383.6 0 69.8-2 127.8 53 129.8 122.6 0 0.4 0 0.6 0 1 1 222 1 443.6 0 665.2zM884 622.8c-117.6 0-235 0-352.6 0h-385.8c-34.2 0-35.2 1-35.2 36.2 0 39.2 0.4 78.4 0 117.6-0.4 20.2 7 29.6 28.4 28.4 26.4-1.4 52.8-1.2 79.2 0 15 0.8 22-2.4 20-19.2-1.4-12.8-1.4-25.6 0-38.4 1.2-29.8 26.2-53 56-51.8 0.6 0 1 0 1.6 0 29.2 1.8 52.2 26 52.4 55.2 1.2 17.6-8.4 41.4 4.2 50.8 11.6 8.6 34.2 2.8 52 2.8 83.4 0 167-0.4 250.4 0.4 16.2 0 23.4-3.2 21.2-20.6-1-11-1-22.2 0-33.2-0.4-29.4 22.6-54 52-55.4 29.6-2.4 55.4 19.6 57.8 49.2 0 0.8 0.2 1.6 0.2 2.2 1.4 13.6 1.6 27.2 0.4 40.8-1 13.8 4.2 17.2 17.2 16.8 29-0.8 57.8-0.8 86.8 0 16.8 0.4 23.2-7.6 23.4-22.8 0-45.2 0-90.4 0-135.4 0.8-22.4-12.8-23.8-29.6-23.8v0.2z" />
<glyph unicode="&#xe977;" glyph-name="icon-gs-cloud-download" d="M861.4 577c-12.4 3.4-20.4 5.6-22 21.6-16.4 170.2-167.6 294.8-337.6 278.4-114.2-11-212.8-84.2-256.6-190.2-6.4-20.4-24.4-35.2-45.8-37.4-137-29.8-223.6-165.4-193.4-302.4 23.8-107.8 114.4-187.8 224.2-198.2 103-7.2 206.4-0.6 289.8-2.8 104.8 0 190.2-0.8 275.2 0 121-5.2 223.4 88.6 228.6 209.6 4.4 102.8-63.2 195-162.8 221.4h0.4zM653.2 435c-30.4-54-63.6-106.6-98.6-157.8-15.8-23.6-48-29.8-71.6-14-6.2 4.2-11.4 9.6-15.4 16.2-33.2 49.4-64.8 99.8-94.4 151.4-15.2 25.4-7 58.2 18.4 73.2 9 5.4 19.4 8 30 7.6 35.2 1.2 35.2 1.2 35.2 36.6 0 29-0.6 58 0 87-2.2 30.4 20.6 57 51.2 59.2 30.4 2.2 57-20.6 59.2-51.2 0.2-2.8 0.2-5.6 0-8.4 0.6-17.8 0-35.8 0-53.6 0-6.8 0-13.6 0-20.4 0-15.2-4.6-33.8 2.4-44.8s26.8-2.4 40.8-4.2c29.6-3.2 51-29.8 47.6-59.4-0.6-6.2-2.2-11.8-4.8-17.4v0z" />
<glyph unicode="&#xe97c;" glyph-name="icon-gs-customer" d="M1009.8 124.2c-98.2 182.6-284.6 293.8-489.2 293.8-3.4 0-6.8 0-10.2 0h-0.4c-3 0-6 0-8.8 0-96.4 0-191-25.8-274.2-75-98.8-52.8-177.4-137.8-221.8-239.8-7.4-19.2-6.8-38.6 1-56.2s22.2-31 40-37.8c39.4-18.6 84.6-6.6 108.6 28.4 5.8 8.6 11 17.4 16 26.4 4.6 8 9 15.8 14 23.6 55.4 87.4 146.2 146.6 248.8 161.8 28.4 6.6 56.8 9.6 85.2 9.6 140.2 0 273-77.8 340.2-206.8 1.4-3.2 2.4-5.2 3.6-7.4 22.2-41.4 73.6-56.8 115.2-34.6 5.6 2.6 10 5 14 8 16.6 11.8 27.6 29.2 30.8 49.2 3.8 20-1 40.2-12.8 56.8zM511.6 528.4c136.6 0 247.6 111.2 247.6 247.8s-111.2 247.8-247.6 247.8c-136.2 0-247.2-110.8-247.6-247.2-0.2-137.2 111-248.4 247.6-248.4z" />
<glyph unicode="&#xe97e;" glyph-name="icon-gs-arrows-data-transfer" d="M52.802 653.198h790l-85.8-86.2c-20.6-20.6-20.6-54.2 0-75 20.6-20.6 54.2-20.6 75 0l176.6 176.6c20.6 20.6 20.6 54.2 0 75 0 0 0 0 0 0l-176.6 176.6c-20.6 20.6-54.2 20.6-75 0-20.6-20.6-20.6-54.2 0-75l86.2-86.2h-790c-29.2 0-53-23.6-53-52.8-0.2-29.2 23.4-52.8 52.6-53 0.2 0 0.2 0 0.2 0h-0.2zM971.002 370.798h-790l86.2 86.2c20.6 20.6 20.6 54.2 0 75-20.6 20.6-54.2 20.6-75 0l-176.6-176.6c-20.6-20.6-20.6-54.2 0-75 0 0 0 0 0 0l176.6-176.6c20.6-20.6 54.2-20.6 75 0 20.6 20.6 20.6 54.2 0 75v0l-86.2 86.2h790c29.2 0 53 23.8 52.8 53 0 29-23.6 52.6-52.8 52.8v0z" />
<glyph unicode="&#xe97f;" glyph-name="icon-gs-play" d="M880 1023.2c-245.4 0-490.8 0-736.2 0-71.2 7.8-135.4-44-143-115.2-1-8.8-1-17.8-0.2-26.8 0-122.6 0-245.4 0-368 0-123.6 0-247 0-370.6-7.2-71.2 44.4-134.6 115.6-142 8.4-0.8 16.8-0.8 25-0.2 247 0 494.2 0 741.2 0 71.2-6.6 134.2 45.6 140.8 116.8 0.8 8.4 0.8 16.8-0.2 25.2 0 246.2 0 492.4 0 738.6 7 71.4-45 135.2-116.6 142.2-8.6 1-17.4 1-26.4 0zM375.4 763.8c27.4 45 56 89.4 83.4 134.2 6.2 10.4 17.8 16.4 29.8 15.4 46 0 92 0.4 138 0 27.8-0.4 34.4-12 20.4-35-26.6-43.4-54.4-86.2-80.8-129.8-6.4-12.2-19.8-19.4-33.6-17.8-22.8 1-46 0-69 0s-46-0.6-69 0c-24 1-31.4 13-19.2 33v0zM319.2 880c-27.4-45-55.6-89.4-83.6-134.2-1.8-3-3.8-5.6-6.2-8-36.8-8.8-75-9.8-112.2-2.6-6 6.2-8.8 15-7.2 23.4 0 42.6 0.4 85.2 0 127.8-0.2 19.8 8 27.8 27.6 27.4 27.2-0.6 54.6 0 81.8 0s54.6 0.8 81.8 0c23.4-1.4 30.4-13.8 18-33.8v0zM666.8 318.8c-72-43.4-144.6-85.8-217.8-127.2-25.4-16-58.8-8.4-74.8 17-5.8 9.4-8.8 20.2-8.4 31.2 0 1.8 0 3.4 0 5.2 0 41 0 81.8 0 122.6 0 30-0.2 60 0 90.2 0 10 0.2 20 0.4 30-3.8 29.8 17.2 57.2 47 61 13.8 1.8 27.8-1.8 39-10 72.6-40.4 144.6-82.4 216-125.6 26-13.6 35.8-45.6 22.2-71.6-5.4-9.8-13.4-17.8-23.6-22.8v0zM887.6 730.8c-13.6 0.2-27.2 0.4-40.8 0.4h-40.8c-20.4 0-40.8 0-61.2 0h-20.4c-25.2 0.6-32.2 12.8-19.4 34 26.8 44.2 54.4 88 81.8 131.6 3 5 7 12 11.4 12.8 35 6.4 71 6.6 106 0.8 9.8-1.6 9.6-13 9.6-21.4 0-44.2 0-88.4 0-132.4 0.4-18.8-8.2-26.2-26.2-25.8v0z" />
<glyph unicode="&#xe980;" glyph-name="icon-gs-full-screen" d="M237.956 863.98c-14.8 14.8-30 29.2-49.4 48 14.8 0.6 22.8 1.4 30.8 1.4 42.6 0 85.4-1 127.8 0.8 30-0.4 54.8 23.6 55.2 53.6 0 0.6 0 1 0 1.6-0.6 30.6-25.8 55-56.4 54.4-0.8 0-1.4 0-2.2 0-95.4 0.4-191 0.4-286.4 0-29.4 1.6-54.6-21-56.2-50.4 0-0.2 0-0.6 0-0.8-1-100.6-1-201 0-301.4 2.6-29.8 29-51.8 58.8-49.2 25 2.2 45.4 21.4 48.8 46.4 1.2 11.8 1.8 23.8 1.4 35.8 0 42.2 0 84.2 0 127.4 8.8-3.4 16.4-9.4 22-17 65.8-65.6 131.6-131.2 197.4-196.8 8.2-8.6 17.4-16.2 27.2-22.8 15.8-10.8 36.6-11 52.6-0.4 26.4 14.6 36 48 21.4 74.6-3.8 7-9.2 13-15.8 17.8-58.6 59.2-118 118-177 177zM612.756 595.78c18.4-14 44.2-12.6 61 3.2 26 23.2 50.6 48 75.4 72.6 53.8 53.2 107 107 165.6 165.4 0-58.8-1-109.8 0.4-160.8-0.8-29.2 22.2-53.6 51.4-54.4 1.2 0 2.6 0 3.8 0 29.8 0.2 53.8 24.4 53.6 54.2 0 0.8 0 1.8 0 2.6 0.4 96.2 0.4 192.6 0 288.8 1.4 29.8-21.8 54.8-51.4 56.2-1.6 0-3.4 0-5 0-96.4 0.4-192.6 0-289 0-30.6 0.6-55.6-23.8-56.2-54.2-0.2-7.6 1.4-15 4.2-22 9.6-21.8 31.8-35.2 55.6-33.8 43.4-0.6 87 0 130.4-0.4 5.6 0 13.8 4 18-6l-215.2-214.4c-12.2-9.4-21-22.4-25.8-37-7.2-23 2.4-47.8 23.2-60zM969.756 402.38c-28.8 1.2-53.2-21-54.6-49.8 0-0.8 0-1.4 0-2.2-1.6-46-0.6-92-1-138 0-6 3.6-13.4-4.8-19.6-63.2 63.2-126.4 126.4-189.6 189.4-15.6 15.6-31.6 31-48.4 45.4-15 12.2-35.8 14.2-52.6 5-18.6-8-30.6-26.2-31.2-46.2 0.2-20.8 9.8-40.2 26-53 72.4-72 144.8-144 223-221.8-17.8 0-27.8 0-37.8 0-41.8 0-83.6 0.8-125.2-1.4-29.4-1.2-52.6-25.6-52.2-55.2 1.4-30.2 26.6-54 56.8-53.6 96.4-0.4 192.6-0.4 289 0 29.8-1.2 55 22 56.2 52 0 1.6 0 3.4 0 5 0.4 96.2 0.4 192.6 0 288.8 1 29.4-22 54.2-51.4 55.2-0.6 0-1.4 0.2-2.2 0zM336.156 413.78c-68.2-67.8-136.2-136-204.4-204-5.6-5.6-9.8-13.8-21.6-16 0 49.8 0.6 98.8 0 147.8 3.4 29.8-18 57-47.8 60.4-2.2 0.2-4.2 0.4-6.4 0.4-34.2 0-55.2-23.4-55.2-62.2 0-79.2 1.6-158.4-0.4-237.6-2-80.4 5-105 101.4-102.4 81 2.6 162 0 242.8 0.6 30.4-1.4 56.2 22 57.8 52.4 1.2 30.2-22.4 55.6-52.6 56.8-0.2 0-0.2 0-0.4 0-14.4 1.4-29 0.8-43.4 0.8-36.8 0-74 0-110.6 0l-3 6.6c6.4 5.2 13 10.2 18.8 16 65.8 65.6 131.4 131.2 197 197 7.4 7 14 14.8 19.8 23.2 12.6 18 12.4 42-0.6 59.6-21.8 32.4-59 32.8-91.2 0.6z" />
<glyph unicode="&#xe981;" glyph-name="icon-gs-windowed" d="M284.020 211.52c-8.6-10.2-16.4-21-25.8-30.4-52.4-52.8-105-105.2-158-157.6-17-16.8-38-31.6-61.4-18.6-16.2 9.6-29 24.2-36.2 41.6-8.8 21.8 5.6 40.4 21.4 56.2 53 53 106.2 106.4 159.2 159.8 8.2 8.2 16 17 28.2 29.6-43.4 0-81.4 0-119.4 0-22-1-42.4 11.4-51.6 31.6-11.4 19.2-7.6 43.8 9 59 11.8 10.6 26.8 17 42.8 18.4 83.8 1.8 167.6 1.8 251.2 0.6 29.6 2.8 55.8-18.8 58.6-48.4 0.4-3.8 0.4-7.8-0.2-11.6 0.8-82 0.8-164 0-246.2 2.6-30.4-20-57-50.4-59.6-2-0.2-4-0.2-5.8-0.2-31 1-55.4 27-54.4 58 0 1.4 0.2 2.6 0.2 4-0.4 36.4 0 72.8 0 109.2l-7.4 4.6zM739.22 814.52c60.6 61.4 120.8 123.2 181.6 184.4 26.6 26.6 51.6 31.8 75 17 26.2-15.4 35-49 19.8-75.2-3.2-5.4-7.2-10.4-12.2-14.4-36-37.6-73-74.2-110.2-110.8-26-25.8-53-50.6-84.6-80.8 15-1.2 22.2-2.2 29.2-2.2 32.4-0.4 65 1 97.4-1 30-0.2 54.2-24.8 54-54.8-0.2-29-23-52.6-52-53.8-88-1-176-1-264 0-27.2-0.2-49.6 21.6-50.2 48.8-1.8 88.8-1.8 177.6 0 266.4 1 29 25.4 51.6 54.4 50.4 0.8 0 1.8 0 2.6-0.2 29.8-1.4 53-26.2 52.4-56 1-38.2 0-76.2 0-114.4l6.8-3.4zM291.22 812.52c0 42.2-0.2 78 0 113.8-3.4 30.8 19 58.6 49.8 61.8 1.4 0.2 2.8 0.2 4.4 0.4 30.6 0.6 56-23.6 56.6-54.2 0-1.8 0-3.8-0.2-5.6 1-82 1-164 0-246 2.8-30.8-20-57.8-50.8-60.6-4.4-0.4-8.6-0.2-13 0.4-80.4 0-160.6 0-241 0-30.2-4-57.8 17.4-61.8 47.6s17.4 57.8 47.6 61.8c4 0.6 8 0.6 12 0.2 36.6 1 73.4 0 116.4 0-9.4 10-15.2 16.4-21.4 22.8-56.6 56.8-113.4 113.8-170 170.6-17.8 14.6-24.6 38.6-17 60.2 6.6 20 24.2 34.6 45 37 21.6 1.4 42.6-8.2 55.8-25.4 55-55 110-110 165-165 6.2-5.2 12.4-10.4 22.6-19.8zM732.22 211.92c0-43.2 0.4-81.2 0-119.4 0.8-23.8-14-45.6-36.6-53.2-19.4-9-42.4-3.8-56 12.6-10.2 12.2-16.2 27.4-17 43.4-1.6 82.8-1.4 165.8-0.4 248.6-2.8 29 18.4 54.8 47.4 57.8 3.6 0.4 7 0.4 10.6 0 83.8 1.2 167.4 1.2 251.2 0 29.8 2 55.6-20.8 57.6-50.6 0.2-1.6 0.2-3.2 0-4.8-1.2-31-27.2-55.2-58.2-54.2-1.2 0-2.6 0.2-3.8 0.2-36.4 0-72.6 0-109 0l-3.6-6.6c35.8-34.8 72-69.6 107.6-104.6 28.4-28.4 56.8-56.4 84.8-85.4 17.4-14.2 22.4-38.4 12.2-58.4-10.4-15.8-25.6-28-43.4-34.6-22-7.4-39.8 9.2-55.4 24.6-55 54.8-110.2 109.8-165.2 164.6-6.8 5.6-12.8 10.8-22.8 20z" />
<glyph unicode="&#xe982;" glyph-name="icon-gs-tablet" d="M966.4 882.2c4.8 73.2-50.6 136.4-123.8 141.2-8 0.6-15.8 0.4-23.8-0.6h-608c-73.6 10.4-141.6-40.8-152-114.6-1.6-11.2-1.8-22.6-0.4-33.8 0-120.8 0-241.8 0-362.8 0-122.6 0-245.2 0-367.8-6-73.2 48.4-137.4 121.6-143.4 8.6-0.8 17.4-0.6 26 0.4h613.2c72.6-8.4 138.4 43.8 146.6 116.6 1 8 1 16 0.6 24 0.2 246.8 0.4 493.8 0 740.8zM851.6 566.2c0-104.6-0.6-209.4 0.4-314 0-24.4-7.8-32.6-33.2-32.6-204.4 0.8-408.8 0.8-613.2 0-25.6 0-33.2 8.4-33.2 32.6 0.8 209.4 0.8 418.6 0 628 0 24.2 7.6 33 33 32.8 204.4-0.6 408.8-0.6 613.2 0 25.2 0 33.6-8.4 33.2-32.8-0.8-104.8 0-209.4-0.2-314v0z" />
<glyph unicode="&#xe984;" glyph-name="icon-gs-mobile" d="M880.2 880.2c7.6 71.4-44 135.4-115.4 143.2-10 1-20 1-30-0.2-150.6 0-301 0-451.6 0-70.4 6.8-133-44.8-139.8-115.2-0.6-6.6-0.8-13.2-0.4-19.8-0.8-251-0.8-502 0-753-3.8-70.2 50.2-130.2 120.4-134 6.2-0.4 12.2-0.2 18.4 0.4 150.6 0 301 0 451.6 0 71.4-9.6 137.2 40.4 146.8 112 1.6 11.4 1.6 22.8 0.2 34.2 0 122.6 0 245 0 367.6 0 121.4 0.4 243-0.2 364.8zM584.2 144.4c0.2-17.2-13.4-31.2-30.6-31.4-14.4-1.2-29 0-43.6 0v0c-12.8 0-25.6-0.6-38.4 0-19.2 1.2-33.6 17.8-32.2 37 1 14.8 11.4 27.4 25.6 31.2 31 6.6 63 6.6 94 0 17-3.4 28.2-19.8 25.2-36.8v0zM738.8 293c-151.4 0.6-302.8 0.6-454.2 0-22.8 0-31.8 7-31.6 31 1.2 93.6 0.4 187.4 0.4 280.8 0 92.8 0.6 185.6-0.4 278.2 0 22.8 8 29.8 30 29.8 152.2-0.4 304.6-0.4 456.8 0 21.6 0 30.4-6.8 30.4-29.6-0.6-186.4-0.6-372.8 0-559.2 0-23.4-8.4-31.2-31.4-31v0z" />
<glyph unicode="&#xe985;" glyph-name="icon-gs-computer" d="M511.698 1023.202h368.2c71.4 7.8 135.4-43.8 143.2-115 1-9 1-18 0.2-27.2 0-173.8-1.6-347.8 0.8-521.6 3.2-74.6-54.6-137.6-129-140.8-3.8-0.2-7.6-0.2-11.4 0-69.8 2.8-139.8 0.8-209.6 0.6-33.6 0-39-8.6-26.2-39.8 13.2-32.2 26.8-64.2 39.4-96.6 15.4-26.2 6.4-60-19.8-75.4-10.6-6.2-23-8.6-35.4-7-80.2-0.2-160.2-0.2-240.4 0-30.2-4.2-58 16.8-62.2 46.8-1.8 12.2 0.8 24.8 7 35.4 13.8 34.8 28.4 69.2 42.2 103.8 9 22.8 2.4 32.4-23.8 32.8-39.8 0.6-80 0-120.2 0-36.6 0-73.4-0.6-110 0.6-69 1.4-124.2 57.8-124.2 126.8-0.4 181.6-0.4 363 0 544.6-2.4 70.2 52.6 129.2 122.8 131.8 3.2 0.2 6.6 0.2 9.8 0 126.2 0.2 252.4 0.2 378.6 0.2zM510.498 328.402c122.6 0 245.4 0 368 0 32.2 0 35.4 3 35.4 34.8 0 172 0 344.2 0 516.2 0 30.4-3.2 33.6-34.2 33.6-245.4 0-490.8 0-736 0-30.8 0-34.2-3.2-34.2-33.4 0-172 0-344.2 0-516.2 0-31.8 3.2-34.8 35.2-34.8 122-0.2 243.8-0.4 365.8-0.2v0z" />
<glyph unicode="&#xe986;" glyph-name="icon-gs-target" d="M1015 819.2l-127-126.4h-147.2l-213.4-211.4c-14-14-36.6-14-50.6-0.2-0.2 0.2-0.6 0.6-0.8 1-13 14.6-12.2 36.8 2 50.2l212.2 210v146.4l127.2 126c1.2 1 2.2 2 3.6 3l0.8 0.6c1.2 0.8 2.4 1.6 3.6 2.2v0c1.4 0.6 2.8 1.2 4.2 1.8h1c1.2 0.6 2.4 1.2 3.6 1.6h9.8l3-0.6h1c1.2-0.4 2.4-0.8 3.6-1.2h0.6l3.4-2 0.8-0.6c1.2-0.6 2.2-1.4 3.2-2.2v0c1-0.8 1.8-1.4 2.6-2.4l0.6-0.6c1-1 1.8-2 2.6-3v0c0.8-1 1.4-2 2-3.2l0.8-1.6c0.6-1.2 1.2-2.4 1.6-3.8v0c0.4-1.2 0.8-2.6 1-4v-1.2c0.2-1.4 0.4-3 0.4-4.4l2.6-118.4h2.6l116.8-2.4c8-0.2 15.6-3.2 21.4-8.6 2.2-2 4-4.4 5.4-7s2.6-5.6 3.2-8.6c2.6-10-0.4-21.2-8.2-29zM496 776.6c-155.4-0.4-280.8-126.2-280.4-280.8s126.6-279.6 282-279.2c155 0.4 280.4 125.6 280.4 279.8 0 37-7.4 73.4-21.8 107.4l-101.8-101.2c0-2.2 0-4.2 0-6.4 0.4-87.4-70.4-158.4-158.2-158.6s-159 70.2-159.4 157.4c-0.4 87.4 70.4 158.4 158.2 158.6 0 0 0 0 0 0l103.8 103.2c-32.6 13.2-67.6 19.8-102.8 19.8zM940.8 640.2c-14-13.8-33-21.6-52.8-21.6h-57c14.6-39.2 22.2-80.6 22.2-122.4 0.6-196.2-158.8-355.8-356-356.2-197.2-0.8-357.4 158-358 354.2s159 355.8 356 356.2c41 0.2 81.8-6.8 120.4-20.4v58.8c0 19.6 7.8 38.6 21.8 52.4l23.6 23c-259.8 89.6-543.4-47.4-633.4-306s47.6-541 307.6-630.6 543.4 47.4 633.4 306.2c18.2 52.2 27.4 107.2 27.4 162.6 0 57.8-10 115-30 169.2l-25.2-25.4z" />
<glyph unicode="&#xe987;" glyph-name="icon-gs-cog" d="M151.454 836.072c28.8-4.2 57.6-8.8 86.6-12.4 8.2-1.8 16.8-1.4 24.8 1.6 34.6 18.6 68.8 38.2 102.2 58.8 6.2 5.6 10.6 12.8 13 20.8 11.4 25.6 21 52 33.2 77.4 12 26.6 39.2 43.2 68.4 41.4 19 0 37.8-0.6 56.8 0 37.4 3.6 72-19.2 83.6-55 0.4-0.8 0.6-1.6 0.6-2.4 11.8-79.2 73-112.8 137.6-138.8 26.6-5.4 54.2-4.2 80.4 3.4 64.2 10 81.2 3 113.2-52.4 48.8-84.4 49.4-89.8-14-163.4-19.4-23.2-30-52.4-30.6-82.6-6.6-56.2 13-112.2 53-152 32-27 35.8-74.8 8.8-106.8 0 0 0-0.2-0.2-0.2-52.4-91-57.2-94-161.4-74.4-25.8 4.2-52.4-0.4-75.2-13.2-55.8-22.4-97.6-70-112.8-128-10-37.4-46-61.6-84.4-57-105.8 0-109.6 0-146.6 97.6-12.6 28.2-34.2 51.8-61.2 66.8-44.2 33.2-101.4 43.2-154.2 27.2-38.4-14.4-81.2 5-95.8 43.4 0 0.2-0.2 0.2-0.2 0.4-55 92.4-55.6 95 12.2 176.6 17.2 21.6 27 48.2 27.6 76 8.6 58.8-12.6 118-56.4 158-26 23.4-30.8 62.4-11.6 91.6 11.2 20 22 40.4 34.4 59.8 13.2 24.6 40 39.6 68.2 37.8zM677.054 511.872c1.2 91.2-71.6 166-162.8 167.4-91.2 1.2-166-71.6-167.4-162.8-1.2-91.2 71.6-166 162.8-167.4 0.6 0 1 0 1.6 0 90.6-0.8 164.8 72 165.8 162.8z" />
</font>
</defs>
</svg>
