<?xml version="1.0" encoding="utf-8"?>
<!-- Generator: Adobe Illustrator 16.0.0, SVG Export Plug-In . SVG Version: 6.00 Build 0)  -->
<!DOCTYPE svg PUBLIC "-//W3C//DTD SVG 1.1//EN" "http://www.w3.org/Graphics/SVG/1.1/DTD/svg11.dtd">
<svg version="1.1" id="Calque_1" xmlns="http://www.w3.org/2000/svg" xmlns:xlink="http://www.w3.org/1999/xlink" x="0px" y="0px"
	 width="114.787px" height="96.123px" viewBox="0 0 114.787 96.123" enable-background="new 0 0 114.787 96.123"
	 xml:space="preserve">
<g>
	<path fill="#F5F5F5" d="M36.738,43.444c-2.83-0.813-5.652-1.226-8.408-1.226c-4.244,0-7.791,0.97-10.533,2.155
		c2.644-9.697,9.012-26.431,21.69-28.311c1.173-0.177,2.132-1.024,2.454-2.17l2.77-9.91c0.234-0.839,0.092-1.734-0.382-2.459
		c-0.474-0.733-1.247-1.216-2.112-1.332C41.281,0.064,40.331,0,39.382,0C24.167,0,9.097,15.879,2.746,38.619
		c-3.734,13.343-4.828,33.534,4.359,46.156c5.154,7.071,12.654,11.349,22.313,11.349c0.039,0,0.082,0,0.117,0
		c11.918,0,22.489-8.152,25.705-19.648c1.918-6.867,1.055-14.145-2.444-20.355C49.333,49.973,43.626,45.43,36.738,43.444z"/>
	<path fill="#F5F5F5" d="M111.339,56.055c-3.462-6.143-9.162-10.625-16.057-12.611c-2.824-0.813-5.654-1.226-8.402-1.226
		c-4.25,0-7.785,0.97-10.541,2.155c2.653-9.697,9.019-26.431,21.691-28.311c1.177-0.177,2.141-1.024,2.457-2.17l2.768-9.91
		c0.236-0.839,0.104-1.734-0.381-2.459c-0.477-0.733-1.249-1.216-2.104-1.332C99.833,0.064,98.884,0,97.937,0
		C82.72,0,67.654,15.879,61.291,38.619c-3.734,13.343-4.828,33.534,4.367,46.156c5.145,7.071,12.652,11.349,22.314,11.349
		c0.041,0,0.076,0,0.117,0c11.916,0,22.489-8.152,25.698-19.643C115.71,69.607,114.838,62.265,111.339,56.055z"/>
</g>
</svg>
