<?xml version="1.0" encoding="utf-8"?>
<!-- Generator: Adobe Illustrator 16.0.0, SVG Export Plug-In . SVG Version: 6.00 Build 0)  -->
<!DOCTYPE svg PUBLIC "-//W3C//DTD SVG 1.1//EN" "http://www.w3.org/Graphics/SVG/1.1/DTD/svg11.dtd">
<svg version="1.1" id="Calque_1" xmlns="http://www.w3.org/2000/svg" xmlns:xlink="http://www.w3.org/1999/xlink" x="0px" y="0px"
	 width="30px" height="30px" viewBox="0 0 30 30" enable-background="new 0 0 30 30" xml:space="preserve">
<g>
	<defs>
		<rect id="SVGID_1_" y="0.582" width="30" height="28.836"/>
	</defs>
	<clipPath id="SVGID_2_">
		<use xlink:href="#SVGID_1_"  overflow="visible"/>
	</clipPath>
	<g clip-path="url(#SVGID_2_)" enable-background="new    ">
		<g>
			<defs>
				<rect id="SVGID_3_" y="0.582" width="30.483" height="28.836"/>
			</defs>
			<clipPath id="SVGID_4_">
				<use xlink:href="#SVGID_3_"  overflow="visible"/>
			</clipPath>
			<path clip-path="url(#SVGID_4_)" fill-rule="evenodd" clip-rule="evenodd" fill="#4AB8E9" d="M30,25.538
				c0,2.144-1.737,3.88-3.879,3.88H3.88c-2.143,0-3.88-1.736-3.88-3.88V4.461c0-2.142,1.737-3.879,3.88-3.879h22.241
				C28.263,0.582,30,2.319,30,4.461V25.538z"/>
			<path clip-path="url(#SVGID_4_)" fill-rule="evenodd" clip-rule="evenodd" fill="#C5E9FA" d="M30,8.082V4.461
				c0-2.142-1.737-3.879-3.879-3.879H3.88C1.737,0.582,0,2.319,0,4.461v3.621c0,0,11.313,1.811,15.084,1.811
				C18.813,9.893,30,8.082,30,8.082"/>
			<path clip-path="url(#SVGID_4_)" fill-rule="evenodd" clip-rule="evenodd" fill="#C5E9FA" d="M0,8.082
				c0,0,5.132,1.811,15.084,1.811C24.214,9.893,30,8.082,30,8.082"/>
			<path clip-path="url(#SVGID_4_)" fill-rule="evenodd" clip-rule="evenodd" fill="#FDFEFF" d="M8.532,9.857
				c0.623-0.583,1.359-0.795,2.209-0.789c2.922,0.021,5.844,0.025,8.765-0.004c0.701-0.007,1.262,0.176,1.705,0.712
				c0.75,1.33,1.222,2.777,1.746,4.2c0.134,0.358,0.283,0.611,0.679,0.724c0.39,0.109,0.731,0.347,0.998,0.66
				c0.246,0.291,0.478,0.582,0.475,1.013c-0.016,1.681-0.018,3.361-0.002,5.041c0.004,0.372-0.13,0.458-0.48,0.455
				c-1.123-0.008-1.123,0.007-1.123,1.135v0.484c0,0.676-0.412,1.26-1.036,1.466c-0.594,0.198-1.433-0.092-1.818-0.61
				c-0.106-0.145-0.106-0.299-0.108-0.458c-0.003-0.517-0.013-1.035,0.003-1.552c0.009-0.301-0.078-0.445-0.408-0.436
				c-0.646,0.018-1.292,0.008-1.938,0.01c-2.842-0.026-5.684-0.05-8.524-0.087c-0.28-0.004-0.375,0.08-0.364,0.354
				c0.018,0.437-0.025,0.877,0.023,1.307c0.088,0.771-0.416,1.105-0.976,1.388c-0.534,0.269-1.194,0.115-1.649-0.305
				c-0.229-0.212-0.333-0.447-0.331-0.765c0.003-0.547-0.048-1.096-0.049-1.645c0-0.267-0.075-0.4-0.356-0.361
				c-0.016,0.001-0.032,0.001-0.049,0c-0.399-0.022-0.924,0.172-1.17-0.072c-0.288-0.288-0.091-0.827-0.097-1.256
				c-0.015-1.26-0.005-2.52-0.005-3.779c0-0.969,0.516-1.724,1.45-2.021c0.329-0.103,0.499-0.269,0.627-0.579
				C7.315,12.671,7.929,11.266,8.532,9.857 M14.782,14.348c2.081,0,4.163-0.006,6.245,0.007c0.384,0.002,0.494-0.072,0.324-0.459
				c-0.357-0.811-0.737-1.62-1.001-2.463c-0.233-0.738-0.713-0.977-1.401-0.979c-2.841-0.005-5.68-0.011-8.52-0.001
				c-0.464,0.001-0.797,0.193-0.98,0.692c-0.347,0.937-0.752,1.853-1.167,2.762c-0.177,0.388-0.085,0.45,0.304,0.447
				C10.65,14.34,12.717,14.348,14.782,14.348 M7.716,18.706c0.819-0.01,1.479-0.647,1.476-1.421c-0.005-0.757-0.7-1.407-1.5-1.403
				c-0.842,0.003-1.505,0.651-1.486,1.453C6.223,18.112,6.887,18.716,7.716,18.706 M21.76,18.704
				c0.819-0.003,1.48-0.629,1.488-1.404c0.007-0.757-0.677-1.412-1.483-1.418c-0.843-0.007-1.505,0.628-1.496,1.437
				C20.274,18.103,20.927,18.707,21.76,18.704"/>
		</g>
	</g>
</g>
</svg>
