<svg xmlns="http://www.w3.org/2000/svg" width="50.2" height="50.2" viewBox="0 0 50.2 50.2">
  <path id="E-réputation" d="M49.119,23.581a1.892,1.892,0,0,0-1.506.752l-4.274,5.7H30.032V15.516A1.615,1.615,0,0,0,28.419,13.9H21.968V13.6l1.613-.806V9.065a8.065,8.065,0,1,0-16.129,0V13.9H2.613A1.615,1.615,0,0,0,1,15.516V39.441A1.882,1.882,0,0,0,4.387,40.57l4.274-5.7H23.581V49.387A1.615,1.615,0,0,0,25.194,51H49.387A1.615,1.615,0,0,0,51,49.387V25.462A1.884,1.884,0,0,0,49.119,23.581ZM21.968,11.792l-1.613.806v2.584a1.947,1.947,0,0,1-1.947,1.947H15.516v1.613h.913l.336,2.352a6.359,6.359,0,0,0-1.949-.616l-.029,0a4.035,4.035,0,0,0-.884-.9V14.237a1.6,1.6,0,0,0-.473-1.14l-.806-.806a1.129,1.129,0,0,1-.334-.806.807.807,0,0,1,.806-.806H13.9V9.065a1.615,1.615,0,0,1,1.613-1.613h6.24a6.413,6.413,0,0,1,.212,1.613ZM18.742,33.258H15.516V22.774a3.879,3.879,0,0,0-.049-.486,4.867,4.867,0,0,1,3.275,4.576ZM9.065,22.774a2.419,2.419,0,0,1,4.839,0V33.258H9.065ZM15.516,2.613A6.451,6.451,0,0,1,21.1,5.839H15.516A3.229,3.229,0,0,0,12.29,9.065V9.2a2.424,2.424,0,0,0-1.613,2.281,2.732,2.732,0,0,0,.806,1.947l.806.806v4.586a3.97,3.97,0,0,0-3.226.746V9.065a6.459,6.459,0,0,1,6.452-6.452ZM3.1,39.6a.28.28,0,0,1-.485-.16V15.516H7.452V33.8Zm20.483-7.956v1.613H20.355V26.864a6.442,6.442,0,0,0-1.765-4.41l-.531-3.711h.349a3.525,3.525,0,0,0,3.527-3.226h6.484V30.032H25.194A1.615,1.615,0,0,0,23.581,31.645ZM49.387,49.387H25.194V31.645H44.145L48.9,25.3a.28.28,0,0,1,.485.161ZM5.839,45.355a2.419,2.419,0,1,0-2.419,2.419A2.422,2.422,0,0,0,5.839,45.355Zm-3.226,0a.806.806,0,1,1,.806.806A.807.807,0,0,1,2.613,45.355Zm9.677,0a2.419,2.419,0,1,0-2.419,2.419A2.422,2.422,0,0,0,12.29,45.355Zm-3.226,0a.806.806,0,1,1,.806.806A.807.807,0,0,1,9.065,45.355Zm9.677,0a2.419,2.419,0,1,0-2.419,2.419A2.422,2.422,0,0,0,18.742,45.355Zm-3.226,0a.806.806,0,1,1,.806.806A.807.807,0,0,1,15.516,45.355ZM42.129,9.065A4.032,4.032,0,1,0,46.161,13.1,4.037,4.037,0,0,0,42.129,9.065Zm0,6.452A2.419,2.419,0,1,1,44.548,13.1,2.422,2.422,0,0,1,42.129,15.516Zm7.186-4.839a.539.539,0,0,1-.482-.365.529.529,0,0,1,.088-.585l1.194-1.194L46.694,5.109,45.5,6.3a.537.537,0,0,1-.6.081.524.524,0,0,1-.347-.475V4.226H39.71V5.91a.532.532,0,0,1-.365.482.527.527,0,0,1-.586-.088L37.565,5.11,34.142,8.533l1.194,1.194a.538.538,0,0,1,.081.6.529.529,0,0,1-.474.346H33.258v4.839h1.685a.539.539,0,0,1,.482.365.529.529,0,0,1-.088.585l-1.194,1.194,3.423,3.423,1.194-1.194a.54.54,0,0,1,.6-.081.523.523,0,0,1,.347.474v1.685h4.839V20.284a.532.532,0,0,1,.365-.482.526.526,0,0,1,.586.089l1.194,1.194,3.423-3.423-1.194-1.194a.519.519,0,0,1-.106-.538l.028-.072a.527.527,0,0,1,.471-.342H51V10.677Zm.072,3.226h-.072a2.133,2.133,0,0,0-1.965,1.344l-.052.132a2.124,2.124,0,0,0,.482,2.229l.054.053L46.694,18.8l-.053-.054a2.2,2.2,0,0,0-3.7,1.535v.071H41.323v-.071a2.195,2.195,0,0,0-3.7-1.534l-.053.053-1.142-1.142.054-.054a2.2,2.2,0,0,0-1.534-3.7h-.072V12.29h.072a2.2,2.2,0,0,0,1.534-3.7l-.054-.053L37.565,7.39l.053.054a2.2,2.2,0,0,0,3.7-1.535V5.839h1.613V5.91a2.195,2.195,0,0,0,3.7,1.534l.053-.053,1.142,1.142-.054.054a2.2,2.2,0,0,0,1.534,3.7h.072ZM41.323,46.161H39.71V36.484H34.871v9.677H33.258V38.1H28.419v9.677H46.161V33.258H41.323Zm-9.677,0H30.032V39.71h1.613ZM36.484,38.1H38.1v8.065H36.484Zm6.452-3.226h1.613v11.29H42.935Z" transform="translate(-0.9 -0.9)" fill="#f1ba0b" stroke="#f1ba0b" stroke-width="0.2"/>
</svg>
