<svg xmlns="http://www.w3.org/2000/svg" width="309.472" height="215.122" viewBox="0 0 309.472 215.122">
  <g id="Groupe_6727" data-name="Groupe 6727" transform="translate(-283.262 -193.257)">
    <path id="Tracé_6297" data-name="Tracé 6297" d="M452.737,368.182c0,2.629-26.17,4.761-58.453,4.761s-58.453-2.132-58.453-4.761,26.17-4.762,58.453-4.762S452.737,365.552,452.737,368.182Z" transform="translate(-52.568 35.436)" fill="#fcedbf" opacity="0.6"/>
    <path id="Tracé_6298" data-name="Tracé 6298" d="M422.555,368.182c0,2.629-19.414,4.761-43.363,4.761s-43.363-2.132-43.363-4.761,19.414-4.762,43.363-4.762S422.555,365.552,422.555,368.182Z" transform="translate(158.742 35.436)" fill="#fcedbf" opacity="0.6"/>
    <ellipse id="Ellipse_3" data-name="Ellipse 3" cx="67.058" cy="66.486" rx="67.058" ry="66.486" transform="translate(458.581 193.257)" fill="#fcedbf" opacity="0.6"/>
    <path id="Tracé_6" data-name="Tracé 6" d="M396.926,177.21a19.869,19.869,0,1,0,2.3,30.951l10.962,2.185-6.012-9.423A19.864,19.864,0,0,0,396.926,177.21Z" transform="translate(-60.179 22.42)" fill="#fcedbf" opacity="0.6"/>
    <g id="Groupe_11" data-name="Groupe 11" transform="translate(417.938 356.368)">
      <path id="Tracé_18" data-name="Tracé 18" d="M521.369,313.662H487.353c0,41.424-18.478,46.829-18.478,46.829h70.972S521.369,355.086,521.369,313.662Z" transform="translate(-468.875 -313.662)" fill="#152543"/>
      <path id="Tracé_19" data-name="Tracé 19" d="M519.106,313.662H485.09a116.814,116.814,0,0,1-.6,12.115l37.75,13.5C520.372,332.824,519.106,324.481,519.106,313.662Z" transform="translate(-466.612 -313.662)" fill="#152543" opacity="0.2"/>
    </g>
    <g id="Groupe_16" data-name="Groupe 16" transform="translate(369.083 247.721)">
      <rect id="Rectangle_9" data-name="Rectangle 9" width="168.683" height="113.309" rx="5.312" fill="#152543"/>
      <g id="Groupe_13" data-name="Groupe 13" transform="translate(8.661 8.407)">
        <rect id="Rectangle_10" data-name="Rectangle 10" width="151.361" height="96.495" rx="2.514" fill="#fff"/>
        <path id="Rectangle_11" data-name="Rectangle 11" d="M2.275,0H149.086a2.275,2.275,0,0,1,2.275,2.275v9.076a0,0,0,0,1,0,0H0a0,0,0,0,1,0,0V2.275A2.275,2.275,0,0,1,2.275,0Z" fill="#bcbcbc" opacity="0.3"/>
      </g>
      <g id="Groupe_14" data-name="Groupe 14" transform="translate(26.967 48.087)">
        <rect id="Rectangle_12" data-name="Rectangle 12" width="54.71" height="3.526" rx="1.763" transform="translate(0 0)" fill="#ccc"/>
        <rect id="Rectangle_13" data-name="Rectangle 13" width="54.71" height="3.526" rx="1.763" transform="translate(0 6.745)" fill="#ccc"/>
        <rect id="Rectangle_14" data-name="Rectangle 14" width="23.717" height="3.526" rx="1.763" transform="translate(0 13.49)" fill="#ccc"/>
      </g>
      <g id="Groupe_44" data-name="Groupe 44" transform="translate(26.977 34.815)">
        <path id="Tracé_184" data-name="Tracé 184" d="M522.387,297.292l1.091,3.357h3.529l-2.855,2.075,1.091,3.357-2.855-2.075-2.855,2.075,1.091-3.357-2.855-2.075H521.3Z" transform="translate(-517.767 -297.292)" fill="#ffb500"/>
        <path id="Tracé_185" data-name="Tracé 185" d="M547.387,297.292l1.091,3.357h3.529l-2.855,2.075,1.091,3.357-2.855-2.075-2.855,2.075,1.091-3.357-2.855-2.075H546.3Z" transform="translate(-531.402 -297.292)" fill="#ffb500"/>
        <path id="Tracé_186" data-name="Tracé 186" d="M572.387,297.292l1.091,3.357h3.529l-2.855,2.075,1.091,3.357-2.855-2.075-2.855,2.075,1.091-3.357-2.855-2.075H571.3Z" transform="translate(-545.037 -297.292)" fill="#ffb500"/>
        <path id="Tracé_187" data-name="Tracé 187" d="M597.387,297.292l1.091,3.357h3.529l-2.855,2.075,1.091,3.357-2.855-2.075-2.855,2.075,1.091-3.357-2.855-2.075H596.3Z" transform="translate(-558.672 -297.292)" fill="#f5b900"/>
        <path id="Tracé_188" data-name="Tracé 188" d="M622.387,297.292l1.091,3.357h3.529l-2.855,2.075,1.091,3.357-2.855-2.075-2.855,2.075,1.091-3.357-2.855-2.075H621.3Z" transform="translate(-572.308 -297.292)" fill="#f5b900"/>
      </g>
    </g>
    <g id="Groupe_17" data-name="Groupe 17" transform="translate(325.507 375.563)" opacity="0">
      <path id="Tracé_23" data-name="Tracé 23" d="M500.961,358.205c-7.531-5.807-25.14-17.568-40.168-13.811-8.625-11.4-21.408-10.627-28.185-8.009-7.068-9.785-44.855-14.332-49.435,21.82Z" transform="translate(-383.173 -329.427)" fill="#fcedbf"/>
      <path id="Tracé_24" data-name="Tracé 24" d="M513.689,358.205c7.529-5.807,25.14-17.568,40.167-13.811,8.625-11.4,21.409-10.627,28.186-8.009,7.068-9.785,44.854-14.332,49.435,21.82Z" transform="translate(-364.25 -329.427)" fill="#fcedbf"/>
    </g>
    <g id="Groupe_27" data-name="Groupe 27" transform="translate(504.153 217.761)">
      <path id="Tracé_39" data-name="Tracé 39" d="M553.5,328.939l1.949,18.654a3.005,3.005,0,0,1-1.519,2.94c-3.413,1.913-10.676,6.11-10.44,7.053.308,1.232,14.477.924,18.79-1.848s.153-4.775,0-9.7.153-17.1.153-17.1Z" transform="translate(-538.576 -172.84)" fill="#eec79f"/>
      <path id="Tracé_40" data-name="Tracé 40" d="M562.278,353.2c3.316-2.132,1.626-3.814.6-6.716l-5.449,2.25a7.736,7.736,0,0,0-2.613-1.538,2.965,2.965,0,0,1-.885.8c-3.413,1.913-10.676,6.11-10.44,7.053C543.8,356.276,557.965,355.967,562.278,353.2Z" transform="translate(-538.576 -170.297)" fill="#141c1f"/>
      <path id="Tracé_41" data-name="Tracé 41" d="M578.219,328.427l8.938,16.49a3.006,3.006,0,0,1-.279,3.3c-2.422,3.073-7.526,9.729-6.947,10.511.756,1.02,13.73-4.685,16.653-8.9s-1.684-4.47-3.712-8.964-6.4-15.855-6.4-15.855Z" transform="translate(-533.539 -173.409)" fill="#eec79f"/>
      <path id="Tracé_44" data-name="Tracé 44" d="M596.372,347.5c2.249-3.238.044-4.145-2.017-6.433l-4.173,4.163a7.744,7.744,0,0,0-3-.421,2.964,2.964,0,0,1-.512,1.077c-2.422,3.073-7.526,9.729-6.947,10.511C580.475,357.417,593.449,351.712,596.372,347.5Z" transform="translate(-533.329 -171.081)" fill="#141c1f"/>
      <path id="Tracé_45" data-name="Tracé 45" d="M563.452,254.417H583.6s4.96,5.391,4.036,15.4-.616,26.8,2.156,32.037,4.929,8.933,4.467,13.553,6.967,7.8,6.8,14.95a14.013,14.013,0,0,0,2.022,7.871,2.881,2.881,0,0,1-2.406,4.441h-49.23l-2.119-29.433a57.67,57.67,0,0,1,1.609-18.267C554.022,282.728,559.621,261.763,563.452,254.417Z" transform="translate(-537.751 -183.644)" fill="#141c1f"/>
      <path id="Tracé_46" data-name="Tracé 46" d="M586.222,291.883a130.753,130.753,0,0,1,0-22.065c.924-10.011-4.036-15.4-4.036-15.4H562.041a62.136,62.136,0,0,0-3.134,7.7C560.869,270.671,567.084,287,586.222,291.883Z" transform="translate(-536.339 -183.644)" opacity="0.2"/>
      <path id="Tracé_47" data-name="Tracé 47" d="M563.464,223.029c-2.58,1.938-16.891,15.3-16.891,15.3l3.235-14.786-3.84-.513s-11.715,20.074-4.323,23.077,21.332-12.552,21.332-12.552S566.955,227.675,563.464,223.029Z" transform="translate(-539.197 -188.195)" fill="#eec79f"/>
      <path id="Tracé_49" data-name="Tracé 49" d="M559.858,208.282l-.411,1.695,1.284.2s-1.18,9.036,7.136,8.266v7.034l7.856-.668-1.488-20.793-11.911-8.882S555.494,201.352,559.858,208.282Z" transform="translate(-536.413 -192.239)" fill="#eec79f"/>
      <path id="Tracé_51" data-name="Tracé 51" d="M584.224,236.757,582,222.663s-.752-.047-1.956-.116a2.089,2.089,0,0,1-1.972-2.083h0a1.471,1.471,0,0,0-1.471-1.47H565.885a1.471,1.471,0,0,0-1.471,1.47v.5a2.1,2.1,0,0,1-1.508,2.012l-2.188.64a21.353,21.353,0,0,1-1.232,6.674c-1.13,2.465-2.362,5.545,0,8.728s3.08,10.781,1.335,17.147-.206,5.75,5.339,5.75h14.067c3.286,0,4.518-1.232,3.8-6.469A79.845,79.845,0,0,1,584.224,236.757Z" transform="translate(-536.451 -188.78)" fill="#f1ba0b"/>
      <path id="Tracé_52" data-name="Tracé 52" d="M596.875,273.567H568.7a1.5,1.5,0,0,1-1.475-1.8l3.8-18.7a1.5,1.5,0,0,1,1.475-1.206h28.17a1.5,1.5,0,0,1,1.474,1.8l-3.794,18.7A1.505,1.505,0,0,1,596.875,273.567Z" transform="translate(-535.137 -184.016)" fill="#fff"/>
      <path id="Tracé_53" data-name="Tracé 53" d="M578.313,222.158c4.894-2.422,16.057,18.328,16.057,27.877s-9.549,24.336-9.549,24.336a5.793,5.793,0,0,1-1.179,3.623c-1.285,1.537-5.367,2.153-5.829,1a4.23,4.23,0,0,1,0-2.541s-2.309,2-2.772,1.54,1.232-4.005,6.315-6.315L588.26,250.9s-7.376-15.147-9.138-19.606C577.376,226.881,575.463,223.567,578.313,222.158Z" transform="translate(-534.011 -188.35)" fill="#eec79f"/>
      <path id="Tracé_54" data-name="Tracé 54" d="M545.348,218.17c1.483-2.5,4.057-1.54,5.34-1.026s2.053,3.9,1.54,4.723-.961,0-.961,0-.211,4-3.609,4S543.706,220.943,545.348,218.17Z" transform="translate(-538.435 -189.138)" fill="#eec79f"/>
      <path id="Tracé_60" data-name="Tracé 60" d="M561.845,199.408s.616,6.263,9.139,8.317l1.293,28.819a1.132,1.132,0,0,0,2.118.507,35.4,35.4,0,0,0,1.928-4.067c2.259-5.545,6.263-2.464,6.263-8.933s1.13-31.446-13.733-31.446c-14.915,0-15.428,15.12-8.65,16.044A23.919,23.919,0,0,1,561.845,199.408Z" transform="translate(-536.758 -192.606)" fill="#141c1f"/>
    </g>
    <g id="Groupe_30" data-name="Groupe 30" transform="translate(307.408 221.938)">
      <path id="Tracé_62" data-name="Tracé 62" d="M405.564,254.573,421.5,294.984a45.282,45.282,0,0,1,2.4,24.858l-6.68,36.051H405.769s-.369-37.541,4.467-49.106l-23.616-29.778s-7.235-11.091.668-22.436Z" transform="translate(-365.013 -187.799)" fill="#141c1f"/>
      <path id="Tracé_63" data-name="Tracé 63" d="M408.309,214.465l6.726,6.418-18.155,33.49S399.009,229.962,408.309,214.465Z" transform="translate(-363.087 -193.614)" fill="#fff"/>
      <path id="Tracé_64" data-name="Tracé 64" d="M438.567,239.077a3.694,3.694,0,0,1,1.374,3.336c-.22,2.232-1.31,5.722-3.606,5.624S436.75,237.69,438.567,239.077Z" transform="translate(-357.494 -190.064)" fill="#ff927d"/>
      <g id="Groupe_29" data-name="Groupe 29" transform="translate(70.762 18.537)">
        <path id="Tracé_65" data-name="Tracé 65" d="M444.98,213.5a12.341,12.341,0,0,0-9.1,22.6,2.907,2.907,0,0,1,1.276,3.237l-4.306,16.3a1.371,1.371,0,0,0,.971,1.675h0a1.371,1.371,0,0,0,1.681-.974l4.3-16.281a2.924,2.924,0,0,1,2.748-2.186A12.341,12.341,0,0,0,444.98,213.5Z" transform="translate(-429.059 -212.334)" fill="#141c1f"/>
        <circle id="Ellipse_11" data-name="Ellipse 11" cx="9.477" cy="9.477" r="9.477" transform="matrix(0.574, -0.819, 0.819, 0.574, 0, 15.523)" fill="#c3d4fb"/>
        <g id="Groupe_28" data-name="Groupe 28" transform="translate(4.024 4.024)">
          <path id="Tracé_66" data-name="Tracé 66" d="M447.705,217.641l-13.342,13.343a9.416,9.416,0,0,0,4.265,2.888L450.6,221.9A9.5,9.5,0,0,0,447.705,217.641Z" transform="translate(-432.438 -215.714)" fill="#fff"/>
          <path id="Tracé_67" data-name="Tracé 67" d="M433.77,230.059l13.015-13.015a9.464,9.464,0,0,0-2.478-1.065c-.031-.008-.063-.011-.1-.021l-11.53,11.53A9.529,9.529,0,0,0,433.77,230.059Z" transform="translate(-432.682 -215.958)" fill="#fff"/>
        </g>
      </g>
      <path id="Tracé_68" data-name="Tracé 68" d="M427.968,245.663l4.491-2.543s1.214-4.258,3.942-4.27c2.206-.01,2.362,3.649,1.933,3.849-.884.412-1.676-1.864-1.676-1.864s-1.029,6.246-3.259,6.923l-3.473,2.145Z" transform="translate(-358.579 -190.078)" fill="#ff927d"/>
      <path id="Tracé_69" data-name="Tracé 69" d="M421.607,226.56c2.208,2.054-5.622,26.826-5.622,26.826l16.736-8.112,1.746,6.366s-14.889,11.5-22.487,12.938-6.879-7.393-2.156-22.671C409.824,241.908,417.781,223,421.607,226.56Z" transform="translate(-361.726 -191.925)" fill="#f1ba0b"/>
      <path id="Tracé_70" data-name="Tracé 70" d="M420.739,235.356c.966-4.393,1.469-8.058.678-8.8-3.825-3.557-11.783,15.347-11.783,15.347q-1.228,3.969-2.062,7.326Z" transform="translate(-361.537 -191.925)" opacity="0.2"/>
      <path id="Tracé_71" data-name="Tracé 71" d="M397.34,252.713l3.933,41.5a45.283,45.283,0,0,1-2.754,20.365l-15.811,41.581H371.26s4.107-41.739,14.3-51.725l-7.162-29.29s-7.235-11.091.668-22.435Z" transform="translate(-366.801 -188.068)" fill="#141c1f"/>
      <path id="Tracé_72" data-name="Tracé 72" d="M382.437,341.651l-2.234,7.778s13.786,4.621,14.094,6.391-25.414,0-25.414,0a9.943,9.943,0,0,1,3.235-6.69l1.387-7.479Z" transform="translate(-367.146 -175.174)" fill="#eec79f"/>
      <path id="Tracé_73" data-name="Tracé 73" d="M394.3,355.2c-.308-1.77-14.094-6.391-14.094-6.391l.823-2.865a3.771,3.771,0,0,0-3.312,2.566h-5.6a9.943,9.943,0,0,0-3.235,6.69S394.605,356.971,394.3,355.2Z" transform="translate(-367.146 -174.551)" fill="#141c1f"/>
      <path id="Tracé_74" data-name="Tracé 74" d="M413.386,341.651l-.542,7.778s13.784,4.621,14.092,6.391-25.413,0-25.413,0a9.943,9.943,0,0,1,3.235-6.69l-.306-7.479Z" transform="translate(-362.414 -175.174)" fill="#eec79f"/>
      <path id="Tracé_75" data-name="Tracé 75" d="M426.937,355.2c-.308-1.77-14.092-6.391-14.092-6.391l.2-2.865a2.714,2.714,0,0,0-2.69,2.566h-5.6a9.943,9.943,0,0,0-3.235,6.69S427.245,356.971,426.937,355.2Z" transform="translate(-362.414 -174.551)" fill="#141c1f"/>
      <path id="Tracé_76" data-name="Tracé 76" d="M431.4,209.3l-3.338,6.213-1.642-1.079s-2.516,5.545-5.545,5.237-3.388-1.182-3.388-1.182l-3.9,4.365s-6.161-1.9-6.726-6.418l3.647-5.89,9.445-9.666Z" transform="translate(-361.64 -195.583)" fill="#eec79f"/>
      <path id="Tracé_77" data-name="Tracé 77" d="M424.03,206.322s5.035,4.2,8.251,6.293,7.568-.918,7.568-6.092-6.45-7.052-8.617-5.794c0,0-5.521-4.472-9.159-4.475-3.5,0-3.5,2.936-3.5,2.936a4.865,4.865,0,0,0-6.012.979c-2.8,2.937-2.517,11.047-2.517,11.047l3.216,1.938,1.957-1.938s-1-6.319,3.356-5.593c1.679.281.42,3.776.42,3.776A6.508,6.508,0,0,0,424.03,206.322Z" transform="translate(-361.179 -196.254)" fill="#141c1f"/>
      <path id="Tracé_78" data-name="Tracé 78" d="M415.447,220.07l-21.409,37.376,1.027,13.348h13.656l-4.929-13.862,19.586-29.495Z" transform="translate(-363.499 -192.801)" fill="#f1ba0b"/>
      <path id="Tracé_79" data-name="Tracé 79" d="M397.777,249.97l17.127-29.9,3.311,8.985-11.474,7.932,2.233,5.8Z" transform="translate(-362.957 -192.801)" fill="#eee"/>
      <path id="Tracé_80" data-name="Tracé 80" d="M412.167,215.043l-12.219,42.664-6.982,14.478H370.273l11.295-21.974,9.652-34.5,11.6-5.237Z" transform="translate(-366.944 -194.192)" fill="#f1ba0b"/>
      <path id="Tracé_81" data-name="Tracé 81" d="M383.634,234.981l14.953-18.154-10.247,1.332Z" transform="translate(-365.007 -193.271)" opacity="0.2"/>
      <path id="Tracé_82" data-name="Tracé 82" d="M408.63,214.465l-12.219,42.664L394.666,235.8l5.545-.539-1.027-18.79Z" transform="translate(-363.408 -193.614)" fill="#eee"/>
      <path id="Tracé_83" data-name="Tracé 83" d="M379.759,243.954l1.281,3.617,4.96,2.481a3.718,3.718,0,0,1,1.846,2.1l1.359,3.877-1.4.616a2.436,2.436,0,0,1-3.073-.985l-.472-.793-4.978-2.148a3.136,3.136,0,0,1-1.882-2.606l-.1-1.178-1.63-3.31Z" transform="translate(-366.163 -189.338)" fill="#ff927d"/>
      <path id="Tracé_84" data-name="Tracé 84" d="M403.244,210.505c-4.29-2.1-33.577,9.7-35.63,16.915s9.3,25.641,9.3,25.641l5.072-2.818-5.031-18.19s13.477-7.429,19.1-10.56C401.741,218.325,406.39,212.044,403.244,210.505Z" transform="translate(-367.366 -194.223)" fill="#f1ba0b"/>
      <path id="Tracé_85" data-name="Tracé 85" d="M414.41,347.664l3.609-18.838-10.591-28.651c-4.835,11.186-4.467,47.489-4.467,47.489Z" transform="translate(-362.206 -181.187)" opacity="0.2"/>
    </g>
    <path id="Tracé_6299" data-name="Tracé 6299" d="M623.758,316.81h-2.4a.743.743,0,0,1-.743-.742v-2.406h-1.152v2.406a.742.742,0,0,1-.742.742h-2.406v1.152h2.406a.743.743,0,0,1,.742.743v2.4h1.152v-2.4a.744.744,0,0,1,.743-.743h2.4Z" transform="translate(-247.11 -109.47)" fill="#f1ba0b"/>
    <g id="Groupe_32" data-name="Groupe 32" transform="translate(478.429 304.502)">
      <circle id="Ellipse_12" data-name="Ellipse 12" cx="9.947" cy="9.947" r="9.947" transform="matrix(0.231, -0.973, 0.973, 0.231, 5.142, 24.5)" fill="#bcbcbc"/>
      <g id="Groupe_31" data-name="Groupe 31" transform="translate(0)">
        <path id="Tracé_90" data-name="Tracé 90" d="M515.984,305.923a7.92,7.92,0,1,0,7.919,7.92A7.929,7.929,0,0,0,515.984,305.923Zm0,11.5a3.585,3.585,0,1,1,3.586-3.585A3.585,3.585,0,0,1,515.984,317.428Z" transform="translate(-498.866 -296.724)" fill="#ebebeb"/>
        <path id="Tracé_91" data-name="Tracé 91" d="M530.873,315.512a17.2,17.2,0,0,0,0-7.064h-3.948a13.153,13.153,0,0,0-1.253-3.023l2.79-2.789a17.2,17.2,0,0,0-5-5l-2.789,2.79a13.2,13.2,0,0,0-3.022-1.253v-3.948a17.159,17.159,0,0,0-7.065,0v3.948a13.189,13.189,0,0,0-3.023,1.253l-2.789-2.79a17.211,17.211,0,0,0-5,5l2.79,2.789a13.189,13.189,0,0,0-1.253,3.023H497.37a17.192,17.192,0,0,0,0,7.064h3.948a13.188,13.188,0,0,0,1.253,3.023l-2.79,2.789a17.211,17.211,0,0,0,5,5l2.789-2.79a13.189,13.189,0,0,0,3.023,1.253v3.948a17.157,17.157,0,0,0,7.065,0v-3.948a13.2,13.2,0,0,0,3.022-1.253l2.789,2.79a17.2,17.2,0,0,0,5-5l-2.79-2.789a13.152,13.152,0,0,0,1.253-3.023Zm-16.752,5.4a8.936,8.936,0,1,1,8.935-8.935A8.945,8.945,0,0,1,514.121,320.915Z" transform="translate(-497.003 -294.861)" fill="#ebebeb"/>
      </g>
    </g>
    <g id="Groupe_34" data-name="Groupe 34" transform="translate(460.811 326.726)">
      <path id="Tracé_92" data-name="Tracé 92" d="M491.477,331.783a5.462,5.462,0,1,1-5.462-5.462A5.462,5.462,0,0,1,491.477,331.783Z" transform="translate(-476.615 -322.383)" fill="#bcbcbc"/>
      <g id="Groupe_33" data-name="Groupe 33">
        <path id="Tracé_93" data-name="Tracé 93" d="M486.24,327.66a4.348,4.348,0,1,0,4.348,4.348A4.353,4.353,0,0,0,486.24,327.66Zm0,6.318a1.969,1.969,0,1,1,1.969-1.969A1.969,1.969,0,0,1,486.24,333.978Z" transform="translate(-476.841 -322.609)" fill="#ebebeb"/>
        <path id="Tracé_94" data-name="Tracé 94" d="M494.415,332.925a9.448,9.448,0,0,0,0-3.879h-2.168a7.276,7.276,0,0,0-.688-1.659l1.532-1.532a9.457,9.457,0,0,0-2.743-2.743l-1.532,1.532a7.232,7.232,0,0,0-1.66-.688v-2.168a9.449,9.449,0,0,0-3.879,0v2.168a7.227,7.227,0,0,0-1.659.688l-1.532-1.532a9.456,9.456,0,0,0-2.743,2.743l1.532,1.532a7.244,7.244,0,0,0-.688,1.659h-2.168a9.45,9.45,0,0,0,0,3.879h2.168a7.235,7.235,0,0,0,.688,1.66l-1.532,1.532a9.456,9.456,0,0,0,2.743,2.743l1.532-1.532a7.261,7.261,0,0,0,1.659.688v2.168a9.449,9.449,0,0,0,3.879,0v-2.168a7.266,7.266,0,0,0,1.66-.688l1.532,1.532a9.456,9.456,0,0,0,2.743-2.743l-1.532-1.532a7.267,7.267,0,0,0,.688-1.66Zm-9.2,2.967a4.907,4.907,0,1,1,4.906-4.906A4.912,4.912,0,0,1,485.217,335.892Z" transform="translate(-475.818 -321.586)" fill="#ebebeb"/>
      </g>
    </g>
    <g id="Groupe_47" data-name="Groupe 47" transform="translate(317.294 207.907)">
      <path id="Tracé_3584" data-name="Tracé 3584" d="M454.058,274.952l-.558,2.083-2.039.043a8.027,8.027,0,0,1-.059-7.484h0l1.816.332.8,1.805a4.787,4.787,0,0,0,.045,3.22Z" transform="translate(-450.505 -265.266)" fill="#f9bb16"/>
      <path id="Tracé_3585" data-name="Tracé 3585" d="M476.089,274.373a8.009,8.009,0,0,1-2.857,7.747h0L470.945,282l-.324-2.02a4.781,4.781,0,0,0,2.055-2.439h-4.285v-3.171h7.7Z" transform="translate(-460.199 -267.856)" fill="#6186c4"/>
      <path id="Tracé_3586" data-name="Tracé 3586" d="M464.667,285.871h0a8.017,8.017,0,0,1-12.077-2.452l2.6-2.126a4.768,4.768,0,0,0,6.869,2.441l2.61,2.137Z" transform="translate(-451.636 -271.606)" fill="#2eb34a"/>
      <path id="Tracé_3587" data-name="Tracé 3587" d="M464.7,261.987l-2.6,2.126a4.766,4.766,0,0,0-7.027,2.5l-2.611-2.138h0a8.018,8.018,0,0,1,12.234-2.484Z" transform="translate(-451.566 -260.143)" fill="#ef4437"/>
    </g>
    <path id="Tracé_3588" data-name="Tracé 3588" d="M718.2,139.579H706.495a2.16,2.16,0,0,0-2.16,2.16v11.709a2.16,2.16,0,0,0,2.16,2.16h5.775l.009-5.728h-1.488a.352.352,0,0,1-.351-.35l-.007-1.846a.352.352,0,0,1,.352-.353h1.485v-1.784a2.915,2.915,0,0,1,3.112-3.2H716.9a.351.351,0,0,1,.351.352v1.556a.351.351,0,0,1-.351.351h-.93c-1,0-1.2.477-1.2,1.178v1.544h2.206a.352.352,0,0,1,.349.392l-.22,1.847a.349.349,0,0,1-.348.31h-1.979l-.008,5.729h3.436a2.16,2.16,0,0,0,2.16-2.16V141.739A2.16,2.16,0,0,0,718.2,139.579Z" transform="translate(-217.583 74.053)" fill="#485993"/>
    <g id="Groupe_46" data-name="Groupe 46" transform="translate(564.642 243.812)">
      <path id="Tracé_143" data-name="Tracé 143" d="M933.371,99.03h-15.54a1.021,1.021,0,0,1-1.018-1.019V84.017A1.022,1.022,0,0,1,917.831,83h15.54a1.02,1.02,0,0,1,1.016,1.017V98.012a1.019,1.019,0,0,1-1.016,1.018Z" transform="translate(-916.813 -83)" fill="#fe0" fill-rule="evenodd"/>
      <path id="Tracé_144" data-name="Tracé 144" d="M929.626,102.185a7.249,7.249,0,0,1-5.292-2.731.776.776,0,1,1,1.213-.967c.094.115,2.309,2.83,5.173,1.988,2.388-.7,2.388-4.229,2.388-6.126a.776.776,0,0,1,1.553,0c0,2.139,0,6.585-3.5,7.614a5.418,5.418,0,0,1-1.532.222Z" transform="translate(-920.797 -88.732)" fill="#231f20"/>
      <path id="Tracé_145" data-name="Tracé 145" d="M925.262,95.717a.775.775,0,0,1-.776-.776v-.774a.776.776,0,0,1,1.553,0v.774a.776.776,0,0,1-.776.776Z" transform="translate(-920.972 -88.633)" fill="#231f20"/>
    </g>
    <g id="Groupe_6724" data-name="Groupe 6724" transform="translate(418.441 194.776)">
      <path id="Tracé_6290" data-name="Tracé 6290" d="M404.664,49.844l.433.792.792.433-.792.433-.433.792-.433-.792-.792-.433.792-.433Z" transform="translate(-389.951 -49.844)" fill="#f1ba0b"/>
      <path id="Tracé_6291" data-name="Tracé 6291" d="M428.269,101.014l.433.792.792.433-.792.433-.433.792-.433-.792-.792-.433.792-.433Z" transform="translate(-404.498 -81.379)" fill="#f1ba0b"/>
      <path id="Tracé_6292" data-name="Tracé 6292" d="M371.118,62.562l1,1.829,1.829,1-1.829,1-1,1.829-1-1.829-1.829-1,1.829-1Z" transform="translate(-368.289 -57.682)" fill="#f1ba0b"/>
    </g>
    <path id="Tracé_6293" data-name="Tracé 6293" d="M372.414,62.562l1.458,2.667,2.667,1.458-2.667,1.458-1.458,2.667-1.458-2.667-2.667-1.458,2.667-1.458Z" transform="translate(91.987 133.628)" fill="#e0e0e0"/>
    <path id="Tracé_6294" data-name="Tracé 6294" d="M49.936,237.533l.433.792.792.433-.792.433-.433.792-.433-.792-.792-.433.792-.433Z" transform="translate(236.523 64.526)" fill="#f1ba0b"/>
    <path id="Tracé_6295" data-name="Tracé 6295" d="M68.527,205.1l1,1.825,1.825,1-1.825,1-1,1.825-1-1.825-1.825-1,1.825-1Z" transform="translate(226.05 84.516)" fill="#f1ba0b"/>
    <path id="Tracé_6296" data-name="Tracé 6296" d="M67.874,205.1l.767,1.4,1.4.767-1.4.767-.767,1.4-.767-1.4-1.4-.767,1.4-.767Z" transform="translate(517.221 108.226)" fill="#f1ba0b"/>
    <path id="Tracé_6300" data-name="Tracé 6300" d="M72,205.1l2.225,4.068,4.068,2.225-4.068,2.225L72,217.682l-2.225-4.068L65.7,211.389l4.068-2.225Z" transform="translate(510.115 127.974)" fill="#e0e0e0"/>
    <path id="Tracé_6301" data-name="Tracé 6301" d="M67.705,205.1l.708,1.294,1.294.708-1.294.708-.708,1.294L67,207.806,65.7,207.1,67,206.391Z" transform="translate(508.981 146.1)" fill="#e0e0e0"/>
  </g>
</svg>
