<svg xmlns="http://www.w3.org/2000/svg" width="33.366" height="36.294" viewBox="0 0 33.366 36.294">
  <g id="Groupe_6048" data-name="Groupe 6048" transform="translate(-102.929 -35.699)">
    <path id="Tracé_40" data-name="Tracé 40" d="M120.394,37.91a14.618,14.618,0,1,1,0,29.237c-3.337,0-11.592,1.067-11.592,1.067s-3.044-10.95-3.044-15.686A14.622,14.622,0,0,1,120.394,37.91Z" transform="translate(-0.56 -0.408)" fill="#152543"/>
    <path id="Tracé_29" data-name="Tracé 29" d="M124.377,63.306l.72-6.669,3.486-4.789-1-4.466-4.574.44-3.485,4.789-6.148,2.747,3.324,2.409,1.559-2.145.676.485a.182.182,0,0,1,.073.22l-2.971,6.89,5.662-4.936a.227.227,0,0,1,.236,0l.676.485-1.559,2.144Zm.368-9.608a1.057,1.057,0,0,1-1.471.235l-.618-.455a1.037,1.037,0,0,1-.236-1.454h0l1.088-1.484a1.057,1.057,0,0,1,1.471-.235l.617.455a1.036,1.036,0,0,1,.236,1.454h0Z" transform="translate(-2.388 -2.69)" fill="#fff" fill-rule="evenodd"/>
    <g id="Groupe_19" data-name="Groupe 19" transform="translate(103.429 36.208)">
      <path id="Union_5" data-name="Union 5" d="M3.19,25.759l-.006-.007A16,16,0,0,1,1.438,22.79a26.851,26.851,0,0,1-.869-2.622l0-.016C.4,19.587.274,19.09.233,18.845l-.013-.081A16.267,16.267,0,0,1,0,16.02H0C0,16.012,0,16,0,16q0-.04,0-.079A15.854,15.854,0,0,1,.182,13.7c.007-.047.014-.094.022-.141A15.918,15.918,0,0,1,2,8.375c.058-.1.119-.207.178-.31h0a16.438,16.438,0,0,1,.913-1.4q.315-.432.654-.838h0L3.768,5.8A16.165,16.165,0,0,1,29.3,25.6l-1.658-1.283L29.3,25.605l-.013.02c-.087.118-.174.235-.263.349a16.2,16.2,0,0,1-1.2,1.393q-.15.155-.3.305l0,0h0l0,0a15.968,15.968,0,0,1-2.165,1.772h0l-.124.084q-.413.276-.842.526l-.029.017-.034.02q-.588.34-1.206.63-.18.085-.361.164h0l-.037.016-.028.012-.028.012a16.32,16.32,0,0,1-4.279,1.193l-.108.014a16.324,16.324,0,0,1-2.659.126h0a16.306,16.306,0,0,1-4.7-.862l-.023-.008L2.452,35ZM5.9,25.74l.006.006-.771,5.567,4.8-2.584.017.007a14.027,14.027,0,0,0,2.232.871l0,0a14.1,14.1,0,0,0,4.308.572c.278-.006.554-.022.831-.044l0,0h0c.323-.027.645-.062.966-.111a14.2,14.2,0,0,0,2.54-.626q.46-.158.908-.348a14.124,14.124,0,0,0,1.8-.921l.062-.039.018.014h0l-.018-.014a13.966,13.966,0,0,0,2.244-1.712h0c.1-.09.19-.181.283-.273a14.154,14.154,0,0,0,1.189-1.341c.094-.12.185-.242.275-.367.018-.024.035-.05.053-.074A14.027,14.027,0,0,0,24.475,4.791l-.009-.007a14.136,14.136,0,0,0-19,2.256c-.02.024-.039.049-.059.072-.212.252-.418.512-.615.782a14.336,14.336,0,0,0-.936,1.467h0l0-.006,0,.006h0l-.043.076-.045.081q-.1.178-.187.359l-.021.043,0,.01q-.3.612-.549,1.252H3l-.025.065,0,.008-.022.058q-.089.241-.169.485c-.016.05-.031.1-.046.15h0a13.793,13.793,0,0,0-.59,2.992h0c0,.037-.007.074-.01.111l0,.031,0,.038h0a14.04,14.04,0,0,0,0,2.019q.05.676.165,1.355v0l0,.011c.038.211.172.709.336,1.267.144.489.31,1.025.454,1.453.1.31.2.564.258.7A13.8,13.8,0,0,0,4.1,23.346l-.005,0A13.979,13.979,0,0,0,5.9,25.74ZM20.829,29.4ZM27.51,27.67,27,27.279l.5.391Z" transform="translate(0 0)" fill="#f1ba0b" stroke="rgba(0,0,0,0)" stroke-miterlimit="10" stroke-width="1"/>
    </g>
  </g>
</svg>
