<?xml version="1.0" encoding="utf-8"?>
<!-- Generator: Adobe Illustrator 16.0.0, SVG Export Plug-In . SVG Version: 6.00 Build 0)  -->
<!DOCTYPE svg PUBLIC "-//W3C//DTD SVG 1.1//EN" "http://www.w3.org/Graphics/SVG/1.1/DTD/svg11.dtd">
<svg version="1.1" id="Calque_1" xmlns="http://www.w3.org/2000/svg" xmlns:xlink="http://www.w3.org/1999/xlink" x="0px" y="0px"
	 width="30px" height="30px" viewBox="0 0 30 30" enable-background="new 0 0 30 30" xml:space="preserve">
<path fill="#5C5C5C" d="M25.955,0H4.044C1.812,0,0,1.81,0,4.043v21.914C0,28.189,1.81,30,4.044,30H14.85l0.019-10.719h-2.786
	c-0.362,0-0.655-0.293-0.656-0.656l-0.014-3.456c-0.003-0.363,0.293-0.66,0.658-0.66h2.779V11.17c0-3.876,2.368-5.984,5.825-5.984
	h2.835c0.363,0,0.656,0.295,0.656,0.658v2.913c0,0.363-0.293,0.657-0.656,0.657l-1.74,0.001c-1.879,0-2.242,0.894-2.242,2.204v2.89
	h4.129c0.394,0,0.699,0.344,0.652,0.735l-0.41,3.456c-0.039,0.331-0.318,0.579-0.651,0.579h-3.702L19.527,30h6.43
	C28.189,30,30,28.191,30,25.957V4.043C30.002,1.81,28.191,0,25.955,0z"/>
</svg>
