<?xml version="1.0" encoding="utf-8"?>
<!-- Generator: Adobe Illustrator 16.0.0, SVG Export Plug-In . SVG Version: 6.00 Build 0)  -->
<!DOCTYPE svg PUBLIC "-//W3C//DTD SVG 1.1//EN" "http://www.w3.org/Graphics/SVG/1.1/DTD/svg11.dtd">
<svg version="1.1" id="Calque_1" xmlns="http://www.w3.org/2000/svg" xmlns:xlink="http://www.w3.org/1999/xlink" x="0px" y="0px"
	 width="30px" height="30px" viewBox="0 0 30 30" enable-background="new 0 0 30 30" xml:space="preserve">
<g>
	<path fill="#BBBBBB" d="M6.649,18.133l-1.046,3.896l-3.815,0.08C0.648,19.992,0.002,17.57,0.002,15
		c0-2.484,0.603-4.831,1.677-6.897l3.398,0.624l1.488,3.376C6.254,13.013,6.083,13.985,6.083,15
		C6.084,16.104,6.283,17.158,6.649,18.133z"/>
	<path fill="#838383" d="M29.736,12.198c0.174,0.91,0.262,1.844,0.262,2.802c0,1.076-0.111,2.123-0.326,3.133
		c-0.73,3.438-2.639,6.439-5.281,8.566v-0.002l-4.279-0.221l-0.606-3.779c1.756-1.027,3.125-2.639,3.847-4.564h-8.02v-5.935h8.136
		H29.736z"/>
	<path fill="#818181" d="M24.391,26.697v0.002C21.82,28.766,18.553,30,14.998,30c-5.71,0-10.677-3.191-13.21-7.891l4.862-3.978
		c1.268,3.382,4.527,5.783,8.349,5.783c1.646,0,3.185-0.44,4.506-1.22L24.391,26.697z"/>
	<path fill="#777777" d="M24.574,3.455l-4.859,3.979c-1.367-0.855-2.98-1.35-4.717-1.35c-3.908,0-7.231,2.518-8.433,6.018l-4.887-4
		C4.173,3.29,9.202,0,14.998,0C18.639,0,21.977,1.299,24.574,3.455z"/>
</g>
</svg>
