<?xml version="1.0" encoding="utf-8"?>
<!-- Generator: Adobe Illustrator 16.0.0, SVG Export Plug-In . SVG Version: 6.00 Build 0)  -->
<!DOCTYPE svg PUBLIC "-//W3C//DTD SVG 1.1//EN" "http://www.w3.org/Graphics/SVG/1.1/DTD/svg11.dtd">
<svg version="1.1" id="Calque_1" xmlns="http://www.w3.org/2000/svg" xmlns:xlink="http://www.w3.org/1999/xlink" x="0px" y="0px"
	 width="30px" height="30px" viewBox="0 0 30 30" enable-background="new 0 0 30 30" xml:space="preserve">
<g>
	
		<linearGradient id="SVGID_1_" gradientUnits="userSpaceOnUse" x1="-698.583" y1="-76.2642" x2="-698.583" y2="-106.2651" gradientTransform="matrix(1 0 0 -1 713.583 -76.2646)">
		<stop  offset="0" style="stop-color:#C82127"/>
		<stop  offset="0.5" style="stop-color:#A91F23"/>
		<stop  offset="1" style="stop-color:#8F191C"/>
	</linearGradient>
	<path fill-rule="evenodd" clip-rule="evenodd" fill="url(#SVGID_1_)" d="M4.177,8.612c-0.032,0.138-0.06,0.2-0.06,0.261
		c-0.002,4.23,0.001,8.461-0.012,12.695c-0.002,0.437,0.22,0.472,0.563,0.472c2.605-0.01,5.213-0.003,7.82-0.01
		c0.164,0,0.324-0.032,0.552-0.059c0-0.607-0.022-1.184,0.006-1.753c0.02-0.43-0.153-0.549-0.561-0.544
		c-1.668,0.017-3.335,0.007-5,0.007c-0.226,0-0.452-0.021-0.745-0.033c0-3.712,0-7.359,0-11.036
		C5.853,8.612,5.031,8.612,4.177,8.612z M26.168,13.068c-0.091-0.797-0.145-1.518-0.261-2.224c-0.188-1.157-0.895-1.889-2.034-2.115
		c-2.188-0.442-4.369-0.363-6.539,0.176c-1.232,0.305-1.972,1.12-2.197,2.327c-0.554,2.979-0.388,5.952,0.289,8.895
		c0.18,0.785,0.75,1.304,1.518,1.519c2.499,0.704,5.021,0.727,7.516,0.012c0.447-0.128,0.938-0.504,1.172-0.902
		c0.629-1.075,0.655-2.297,0.598-3.521c-0.908,0-1.747,0-2.621,0c0,0.376,0.015,0.699-0.002,1.016
		c-0.057,1.035-0.299,1.422-1.296,1.509c-1.137,0.102-2.302,0.071-3.438-0.037c-0.846-0.082-1.135-0.419-1.167-1.269
		c-0.085-1.979-0.142-3.97-0.106-5.951c0.021-1.18,0.379-1.564,1.512-1.687c1.035-0.112,2.099-0.092,3.139-0.013
		c0.844,0.064,1.147,0.491,1.22,1.375c0.025,0.291,0.034,0.583,0.052,0.894C24.401,13.068,25.21,13.068,26.168,13.068z M15,29.999
		c-4.023,0-8.044,0.002-12.064,0c-1.819,0-2.922-1.083-2.924-2.899c0-8.066,0.002-16.134,0.012-24.201
		c0-1.801,1.12-2.896,2.941-2.896c8.022-0.003,16.044-0.003,24.066,0c1.85,0,2.942,1.096,2.946,2.959
		c0.006,8.023,0.011,16.047,0.011,24.067c0,1.901-1.081,2.97-2.986,2.97C23,29.999,19.001,29.999,15,29.999z"/>
	<path fill-rule="evenodd" clip-rule="evenodd" fill="#FFFFFF" d="M26.168,13.067c-0.958,0-1.767,0-2.648,0
		c-0.019-0.31-0.027-0.603-0.052-0.894c-0.073-0.884-0.376-1.31-1.22-1.374c-1.041-0.079-2.104-0.101-3.138,0.012
		c-1.134,0.123-1.49,0.506-1.514,1.688c-0.034,1.981,0.022,3.971,0.106,5.951c0.035,0.851,0.322,1.187,1.167,1.269
		c1.138,0.109,2.302,0.138,3.439,0.037c0.996-0.087,1.238-0.476,1.295-1.509c0.017-0.316,0.001-0.639,0.001-1.016
		c0.874,0,1.715,0,2.623,0c0.057,1.224,0.03,2.444-0.6,3.521c-0.232,0.398-0.725,0.775-1.172,0.902
		c-2.493,0.715-5.016,0.693-7.514-0.012c-0.768-0.216-1.338-0.733-1.52-1.521c-0.676-2.939-0.842-5.912-0.289-8.893
		c0.225-1.207,0.965-2.022,2.197-2.327c2.17-0.539,4.351-0.619,6.539-0.177c1.14,0.228,1.846,0.958,2.035,2.115
		C26.023,11.551,26.076,12.271,26.168,13.067z"/>
	<path fill-rule="evenodd" clip-rule="evenodd" fill="#FFFFFF" d="M4.177,8.612c0.854,0,1.676,0,2.566,0c0,3.677,0,7.324,0,11.036
		c0.293,0.012,0.519,0.033,0.744,0.033c1.667,0,3.333,0.01,5-0.007c0.407-0.005,0.58,0.114,0.561,0.544
		c-0.028,0.569-0.006,1.146-0.006,1.753c-0.228,0.025-0.388,0.061-0.552,0.061C9.884,22.037,7.275,22.03,4.67,22.04
		c-0.342,0-0.564-0.035-0.563-0.472c0.013-4.234,0.009-8.465,0.012-12.695C4.118,8.812,4.145,8.75,4.177,8.612z"/>
</g>
</svg>
