<?xml version="1.0" encoding="utf-8"?>
<!-- Generator: Adobe Illustrator 16.0.0, SVG Export Plug-In . SVG Version: 6.00 Build 0)  -->
<!DOCTYPE svg PUBLIC "-//W3C//DTD SVG 1.1//EN" "http://www.w3.org/Graphics/SVG/1.1/DTD/svg11.dtd">
<svg version="1.1" id="Calque_1" xmlns="http://www.w3.org/2000/svg" xmlns:xlink="http://www.w3.org/1999/xlink" x="0px" y="0px"
	 width="30px" height="30px" viewBox="0 0 30 30" enable-background="new 0 0 30 30" xml:space="preserve">
<g>
	<path fill-rule="evenodd" clip-rule="evenodd" fill="#ED1C24" d="M17.822,6.43c-1.223,0-2.312,0-3.401,0c-1.091,0-2.18,0-3.328,0
		c0,0.362,0,0.655,0,1.021c2.578,0,5.17,0,7.841,0c0-2.181,0-4.333,0-6.697c0.623,0.322,1.119,0.539,1.573,0.82
		c4.208,2.602,5.973,7.989,4.143,12.615c-1.842,4.653-6.748,7.345-11.637,6.405c-0.646-0.126-0.951-0.335-0.919-1.082
		c0.062-1.681,0.019-3.365,0.019-5.17c2.283,0,4.51,0,6.789,0c0-0.413,0-0.706,0-1.063c-2.585,0-5.159,0-7.844,0
		c0,2.191,0,4.388,0,6.707c-2.065-0.854-3.628-2.096-4.723-3.844C3.968,12.361,3.867,8.461,6.3,4.715
		c2.415-3.716,5.994-5.164,10.381-4.595c1.148,0.149,1.145,0.177,1.145,1.377C17.822,3.097,17.822,4.694,17.822,6.43z"/>
	<path fill="#224086" d="M7.155,27.077c-1.021-0.025-1.998,0.199-1.998,1.068c0,0.563,0.363,0.821,0.823,0.821
		c0.577,0,0.999-0.375,1.128-0.788c0.037-0.105,0.047-0.22,0.047-0.316V27.077z M7.343,29.873l-0.091-0.635H7.214
		C6.862,29.684,6.263,30,5.521,30c-1.15,0-1.799-0.832-1.799-1.704c0-1.441,1.282-2.171,3.397-2.158v-0.097c0-0.377-0.153-1-1.162-1
		c-0.565,0-1.154,0.176-1.543,0.424l-0.279-0.939c0.422-0.258,1.162-0.502,2.07-0.502c1.83,0,2.36,1.162,2.36,2.407v2.067
		c0,0.516,0.022,1.021,0.081,1.375H7.343z"/>
	<path fill="#224086" d="M15.218,28.158c0,0.68,0.023,1.244,0.048,1.715h-1.271l-0.07-0.871h-0.025
		C13.653,29.414,13.091,30,12.067,30c-1.045,0-1.997-0.623-1.997-2.487V24.15h1.444v3.114c0,0.952,0.307,1.563,1.069,1.563
		c0.576,0,0.952-0.41,1.106-0.776c0.045-0.129,0.08-0.278,0.08-0.445v-3.454h1.445v4.006H15.218z"/>
	<path fill="#224086" d="M18.437,22.516v1.635h1.379v1.08h-1.379v2.526c0,0.693,0.189,1.058,0.745,1.058
		c0.245,0,0.434-0.035,0.563-0.07l0.022,1.105c-0.211,0.082-0.586,0.141-1.045,0.141c-0.53,0-0.979-0.178-1.245-0.471
		c-0.309-0.33-0.447-0.847-0.447-1.599v-2.69h-0.822v-1.08h0.822v-1.292L18.437,22.516z"/>
	<path fill="#224086" d="M21.963,27.019c0,1.102,0.542,1.937,1.423,1.937c0.822,0,1.399-0.81,1.399-1.962
		c0-0.894-0.4-1.917-1.386-1.917C22.376,25.076,21.963,26.066,21.963,27.019z M26.277,26.96c0,2.101-1.48,3.04-2.937,3.04
		c-1.624,0-2.87-1.115-2.87-2.948c0-1.88,1.235-3.028,2.962-3.028C25.138,24.021,26.277,25.217,26.277,26.96z"/>
</g>
</svg>
