<?xml version="1.0" encoding="utf-8"?>
<!-- Generator: Adobe Illustrator 16.0.0, SVG Export Plug-In . SVG Version: 6.00 Build 0)  -->
<!DOCTYPE svg PUBLIC "-//W3C//DTD SVG 1.1//EN" "http://www.w3.org/Graphics/SVG/1.1/DTD/svg11.dtd">
<svg version="1.1" id="Calque_1" xmlns="http://www.w3.org/2000/svg" xmlns:xlink="http://www.w3.org/1999/xlink" x="0px" y="0px"
	 width="30px" height="30px" viewBox="0 0 30 30" enable-background="new 0 0 30 30" xml:space="preserve">
<g>
	<path fill="#DADADA" d="M28.264,28.682H1.738C0.784,28.682,0,27.9,0,26.943V3.055c0-0.953,0.784-1.736,1.738-1.736h26.526
		C29.221,1.319,30,2.102,30,3.055v23.888C30,27.9,29.221,28.682,28.264,28.682z"/>
	<path fill="#202020" d="M15.071,24.283c-4.106,0-7.493-2.74-9.033-4.659c-0.459-0.569-0.367-1.403,0.206-1.864
		c0.571-0.455,1.409-0.363,1.866,0.213c0.16,0.195,3.941,4.832,8.83,3.394c4.076-1.194,4.076-7.219,4.076-10.456
		c0-0.725,0.594-1.323,1.322-1.323c0.734,0,1.327,0.599,1.327,1.323c0,3.651,0,11.24-5.978,12.998
		C16.792,24.169,15.917,24.283,15.071,24.283z"/>
	<path fill="#202020" d="M7.325,13.412C6.59,13.412,6,12.82,6,12.087v-1.322c0-0.732,0.592-1.322,1.326-1.322
		c0.731,0,1.323,0.591,1.323,1.322v1.322C8.648,12.82,8.056,13.412,7.325,13.412z"/>
</g>
</svg>
