<svg id="Réactivité" xmlns="http://www.w3.org/2000/svg" width="50" height="50" viewBox="0 0 50 50">
  <g id="Groupe_6742" data-name="Groupe 6742" transform="translate(18.359 5.469)">
    <g id="Groupe_6741" data-name="Groupe 6741">
      <path id="Tracé_6303" data-name="Tracé 6303" d="M189.667,56.286a.976.976,0,1,0,.286.69A.984.984,0,0,0,189.667,56.286Z" transform="translate(-188 -56)" fill="#f1ba0b"/>
    </g>
  </g>
  <g id="Groupe_6744" data-name="Groupe 6744" transform="translate(10.828 5.469)">
    <g id="Groupe_6743" data-name="Groupe 6743">
      <path id="Tracé_6304" data-name="Tracé 6304" d="M115.775,56h-3.923a.977.977,0,0,0,0,1.953h3.923a.977.977,0,1,0,0-1.953Z" transform="translate(-110.875 -56)" fill="#f1ba0b"/>
    </g>
  </g>
  <g id="Groupe_6746" data-name="Groupe 6746" transform="translate(10.828 10.938)">
    <g id="Groupe_6745" data-name="Groupe 6745">
      <path id="Tracé_6305" data-name="Tracé 6305" d="M116.558,112h-4.706a.977.977,0,0,0,0,1.953h4.706a.977.977,0,0,0,0-1.953Z" transform="translate(-110.875 -112)" fill="#f1ba0b"/>
    </g>
  </g>
  <g id="Groupe_6748" data-name="Groupe 6748">
    <g id="Groupe_6747" data-name="Groupe 6747">
      <path id="Tracé_6306" data-name="Tracé 6306" d="M49.623,20.324h0L43.178,15.3l-.014-.01V14.258a.977.977,0,0,0-1.953,0V27.507c0,.006,0,.012,0,.018L33.131,35.6l-.936-.85a10.677,10.677,0,0,0-5.154-2.584l2.536-2.536a.977.977,0,0,0,0-1.381l-3.28-3.28,14.3-6.095A.977.977,0,0,0,40.9,17.29l-4.668-4.668a4.152,4.152,0,0,0-5.707-5.707L25.857,2.247a.977.977,0,0,0-1.589.308L17.687,18.012l-3.542,3.542A5.27,5.27,0,1,0,21.6,29.007l.372-.372,3.345,3.345c-.1,0-.21-.005-.315-.005a10.68,10.68,0,0,0-7.2,2.78l-.936.85L8.788,27.524c0-.006,0-.012,0-.018V1.953H19.725a.977.977,0,0,0,0-1.953H7.813a.977.977,0,0,0-.977.977V15.138l-.025.018L.365,20.332h0A.974.974,0,0,0,0,21.094V45.02A4.986,4.986,0,0,0,4.98,50H45.02A4.986,4.986,0,0,0,50,45.02V21.094A.974.974,0,0,0,49.623,20.324Zm-6.459-2.556,4.387,3.416-4.387,4.387ZM32.688,8.262a2.195,2.195,0,0,1,2.082,2.9L31.987,8.378A2.2,2.2,0,0,1,32.688,8.262ZM25.5,4.651,29.752,8.9h0l4.488,4.488h0L38.5,17.649l-2.073.884L24.616,6.725ZM23.791,8.663l10.7,10.7-9.678,4.126-5.14-5.14ZM20.217,27.626a3.317,3.317,0,1,1-4.691-4.691l2.985-2.985,4.69,4.691Zm3.135-.372,1.232-1.232,2.923,2.923-1.232,1.232ZM6.836,17.641v7.931l-4.4-4.4ZM3.646,47.617a1,1,0,0,0-.077.079A3.03,3.03,0,0,1,1.953,45.02V23.451L15.421,36.92Zm2.432.43L9.3,45.117H16.47a.977.977,0,0,0,0-1.953H11.452L19.118,36.2a8.715,8.715,0,0,1,11.765,0l13.04,11.846Zm41.97-3.027A3.03,3.03,0,0,1,46.432,47.7a.983.983,0,0,0-.077-.079L34.579,36.92,48.047,23.451Z" fill="#f1ba0b"/>
    </g>
  </g>
  <g id="Groupe_6750" data-name="Groupe 6750" transform="translate(37.305 0.039)">
    <g id="Groupe_6749" data-name="Groupe 6749">
      <path id="Tracé_6307" data-name="Tracé 6307" d="M387.612.682a.977.977,0,0,0-1.381,0l-3.945,3.945a.977.977,0,1,0,1.381,1.381l3.945-3.945A.977.977,0,0,0,387.612.682Z" transform="translate(-382 -0.396)" fill="#f1ba0b"/>
    </g>
  </g>
  <g id="Groupe_6752" data-name="Groupe 6752" transform="translate(33.634)">
    <g id="Groupe_6751" data-name="Groupe 6751">
      <path id="Tracé_6308" data-name="Tracé 6308" d="M345.389,0a.977.977,0,0,0-.977.977V2.938a.977.977,0,1,0,1.953,0V.977A.977.977,0,0,0,345.389,0Z" transform="translate(-344.412)" fill="#f1ba0b"/>
    </g>
  </g>
  <g id="Groupe_6754" data-name="Groupe 6754" transform="translate(39.251 7.57)">
    <g id="Groupe_6753" data-name="Groupe 6753">
      <path id="Tracé_6309" data-name="Tracé 6309" d="M404.933,77.521h-2.027a.977.977,0,0,0,0,1.953h2.027a.977.977,0,0,0,0-1.953Z" transform="translate(-401.929 -77.521)" fill="#f1ba0b"/>
    </g>
  </g>
  <g id="Groupe_6756" data-name="Groupe 6756" transform="translate(19.498 43.164)">
    <g id="Groupe_6755" data-name="Groupe 6755">
      <path id="Tracé_6310" data-name="Tracé 6310" d="M201.327,442.286a.976.976,0,1,0,.286.69A.986.986,0,0,0,201.327,442.286Z" transform="translate(-199.66 -442)" fill="#f1ba0b"/>
    </g>
  </g>
</svg>
