<?xml version="1.0" encoding="utf-8"?>
<!-- Generator: Adobe Illustrator 16.0.0, SVG Export Plug-In . SVG Version: 6.00 Build 0)  -->
<!DOCTYPE svg PUBLIC "-//W3C//DTD SVG 1.1//EN" "http://www.w3.org/Graphics/SVG/1.1/DTD/svg11.dtd">
<svg version="1.1" id="Calque_1" xmlns="http://www.w3.org/2000/svg" xmlns:xlink="http://www.w3.org/1999/xlink" x="0px" y="0px"
	 width="1280px" height="268.487px" viewBox="0 0 1280 268.487" enable-background="new 0 0 1280 268.487" xml:space="preserve">
<g>
</g>
<g>
	<path fill="#E7B22F" d="M1123.05,99.995c-0.043,5.614-4.632,10.129-10.245,10.082c-5.615-0.047-10.131-4.635-10.082-10.248
		c0.045-5.582,4.582-10.083,10.164-10.083c5.355-0.26,9.909,3.87,10.173,9.227C1123.074,99.313,1123.072,99.654,1123.05,99.995z
		 M1112.885,108.999c4.973,0.16,9.129-3.738,9.29-8.708c0.16-4.969-3.739-9.129-8.707-9.29c-4.971-0.159-9.13,3.739-9.29,8.709
		c-0.004,0.094-0.005,0.189-0.005,0.285c-0.396,4.566,2.984,8.589,7.552,8.984C1112.109,109.012,1112.5,109.019,1112.885,108.999
		L1112.885,108.999z M1113.925,94.476h-4.774v10.788h1.327v-4.149h2.324l3.526,4.149h1.452v-0.207l-3.36-3.817
		c1.867-0.138,3.27-1.762,3.135-3.631C1117.417,95.741,1115.791,94.338,1113.925,94.476L1113.925,94.476z M1110.479,95.762h3.447
		c1.145-0.23,2.261,0.512,2.488,1.659c0.23,1.146-0.512,2.262-1.657,2.491c-0.276,0.056-0.559,0.056-0.834,0h-3.36L1110.479,95.762z
		"/>
	<path fill="#E7B22F" d="M915.089,152.692c-5.946,6.202-14.232,9.611-22.821,9.378c-17.179,0-31.454-10.335-31.454-31.328
		c0-20.996,14.274-31.327,31.454-31.327c8.045-0.275,15.828,2.913,21.366,8.755l-9.211,9.875c-3.249-2.961-7.474-4.631-11.869-4.688
		c-9.162-0.267-16.807,6.945-17.073,16.107c-0.014,0.468-0.007,0.935,0.019,1.402c-0.642,8.891,6.038,16.62,14.933,17.269
		c0.554,0.039,1.109,0.052,1.664,0.033c4.922,0.151,9.682-1.742,13.154-5.229L915.089,152.692z"/>
	<path fill="#E7B22F" d="M981.603,130.742c0.012,17.004-13.761,30.798-30.766,30.808c-17.004,0.012-30.799-13.761-30.811-30.765
		c0-0.016,0-0.027,0-0.043c-0.012-17.004,13.763-30.798,30.768-30.809c17.003-0.013,30.797,13.763,30.809,30.765
		C981.603,130.711,981.603,130.726,981.603,130.742z M934.671,130.742c0,9.005,5.395,17.428,16.102,17.428
		c10.703,0,16.1-8.299,16.1-17.428c0.507-9.153-6.5-16.982-15.651-17.491c-0.15-0.009-0.295-0.015-0.445-0.019
		C940.19,113.19,934.671,121.863,934.671,130.742z"/>
	<path fill="#E7B22F" d="M1006.333,98.909v8.381c3.483-5.72,9.931-8.944,16.598-8.299c5.602-0.085,11.033,1.928,15.227,5.643
		l-6.512,12.779c-2.869-2.649-6.68-4.038-10.58-3.858c-7.513-0.659-14.135,4.895-14.793,12.405
		c-0.078,0.871-0.071,1.747,0.021,2.615v33.256h-14.646V98.909h13.607H1006.333z"/>
	<path fill="#E7B22F" d="M1056.25,135.885c0.95,7.304,7.301,12.449,17.634,12.449c5.754,0.126,11.366-1.785,15.852-5.394
		l9.169,9.294c-6.918,6.365-16.037,9.799-25.436,9.586c-20.415,0-32.53-12.448-32.53-31.576c0-18.008,12.448-30.954,31.45-30.954
		c19.005,0,32.158,12.448,29.876,36.598h-46.015V135.885L1056.25,135.885z M1088.406,123.769
		c-0.954-7.677-6.972-11.535-15.353-11.535c-7.575-0.604-14.523,4.225-16.597,11.535H1088.406z"/>
	<path fill="#E7B22F" d="M834.799,64.477v-0.042V64.477z"/>
	<path fill="#E7B22F" d="M820.524,105.016h-0.536c-8.755-0.199-15.688-7.457-15.487-16.208s7.456-15.685,16.208-15.484
		c0.886,0.021,1.767,0.114,2.637,0.281h0.746c0.807,0.187,1.598,0.437,2.366,0.746l0.623,0.29l1.329,0.705l6.348-11.037l0,0l0,0
		c-1.965-1.116-4.053-1.995-6.224-2.614l-0.872-0.207l-2.53-0.499h-0.953c-15.652-1.677-29.702,9.651-31.381,25.305
		c-1.68,15.652,9.65,29.703,25.304,31.381c0.861,0.092,1.726,0.146,2.592,0.16h0.208c8.752,0.2,15.685,7.456,15.484,16.208
		c-0.199,8.751-7.456,15.684-16.208,15.484c-0.886-0.022-1.766-0.114-2.637-0.282h-0.746c-0.806-0.187-1.598-0.436-2.365-0.746
		l-0.622-0.289c-7.573-3.427-11.199-12.126-8.298-19.917l-11.867-4.438c-4.867,13.039,0.396,27.685,12.445,34.645l0,0l0,0
		c1.966,1.115,4.055,1.993,6.225,2.613l0.87,0.208l2.532,0.499h0.953c15.65,1.679,29.703-9.651,31.381-25.303
		c1.679-15.653-9.65-29.704-25.303-31.383c-0.86-0.092-1.727-0.145-2.593-0.159L820.524,105.016z"/>
	<path fill="#E7B22F" d="M834.799,64.435L834.799,64.435L834.799,64.435z"/>
	<path opacity="0.5" fill="#E7B22F" enable-background="new    " d="M836.376,88.998c0.007,1.898-0.333,3.782-0.997,5.562
		l11.869,4.438c4.865-13.039-0.397-27.686-12.447-34.646l-6.349,11.037C833.33,78.187,836.352,83.374,836.376,88.998z"/>
	<path opacity="0.5" fill="#E7B22F" enable-background="new    " d="M282.152,65.264l-8.63,14.979
		c2.938,1.699,5.438,4.057,7.303,6.888l10.414-3.9l-8.672,7.055c2.242,5.131,2.405,10.933,0.457,16.182l16.182,6.058
		c6.637-17.806-0.554-37.801-17.013-47.301L282.152,65.264z"/>
	<path fill="#E7B22F" d="M262.691,120.576h-0.746c-11.93-0.405-21.276-10.406-20.87-22.338
		c0.403-11.933,10.404-21.277,22.337-20.873c3.54,0.122,6.998,1.11,10.068,2.882l8.63-14.98
		c-18.607-10.76-42.414-4.399-53.174,14.209c-10.761,18.607-4.399,42.415,14.208,53.176c5.941,3.437,12.687,5.238,19.549,5.229
		h0.748c11.909,0.424,21.219,10.417,20.8,22.329c-0.421,11.908-10.417,21.218-22.326,20.802
		c-11.912-0.423-21.222-10.42-20.802-22.329c0.082-2.302,0.532-4.572,1.331-6.733l-16.182-6.057
		c-7.516,20.139,2.717,42.556,22.854,50.071c20.14,7.52,42.557-2.716,50.074-22.852c7.516-20.141-2.715-42.556-22.854-50.073
		c-4.35-1.624-8.957-2.456-13.6-2.458h-0.043L262.691,120.576L262.691,120.576z"/>
	<path fill="#E7B22F" d="M261.031,94.517c-2.496,1.42-3.371,4.597-1.95,7.095c1.42,2.499,4.597,3.372,7.095,1.951l16.309-13.237
		c-0.492-1.098-1.074-2.152-1.742-3.152L261.031,94.517z"/>
	<g>
		<path fill="#E7B22F" d="M262.691,235.376c-58.518,0-106.125-47.61-106.125-106.134c0-58.518,47.607-106.124,106.125-106.124
			c58.517,0,106.125,47.606,106.125,106.124C368.816,187.766,321.209,235.376,262.691,235.376z M262.691,27.032
			c-56.36,0-102.211,45.852-102.211,102.211c0,56.364,45.852,102.222,102.211,102.222s102.211-45.856,102.211-102.222
			C364.902,72.883,319.05,27.032,262.691,27.032z"/>
	</g>
	<path fill="#E7B22F" d="M401.472,99.547l0.251,11.101c3.91-8.452,12.738-11.73,20.684-11.73c4.667-0.127,9.207,1.136,13.369,3.658
		l-2.775,5.044c-3.278-2.018-6.936-2.9-10.593-2.9c-11.603,0.126-20.558,9.682-20.558,21.033v36.321h-6.18V99.547H401.472z"/>
	<path fill="#E7B22F" d="M442.063,130.537c0-18.378,13.907-31.663,31.167-31.663s32.656,10.554,30.297,34.518h-55.255
		c1.242,14.404,12.292,22.725,24.958,22.725c8.07,0,17.508-3.229,22.102-9.314l4.346,3.479c-5.96,7.821-16.639,11.794-26.448,11.794
		C455.97,162.074,442.063,150.031,442.063,130.537z M498.063,128.051c-0.124-15.147-10.058-23.592-24.833-23.592
		c-12.666,0-23.592,8.569-24.958,23.592H498.063z"/>
	<path fill="#E7B22F" d="M520.6,186.423V98.909h5.944v15.319c4.83-9.286,14.612-15.353,26.5-15.353
		c16.594,0.619,29.721,11.763,29.721,31.453c0,20.556-13.871,31.7-31.082,31.7c-10.402,0-20.062-5.078-25.262-15.232v39.627H520.6z
		 M576.696,130.329c0-17.214-11.145-25.635-25.014-25.635c-14.241,0-24.766,10.772-24.766,25.757s10.772,25.757,24.766,25.757
		C565.551,156.208,576.696,147.54,576.696,130.329z"/>
	<path fill="#E7B22F" d="M647.408,160.9v-11.225c-4.793,8.577-13.496,12.106-22.198,12.233c-16.646,0-28.124-10.216-28.124-27.493
		V98.909h6.18v35.38c0,14.126,8.702,21.692,22.197,21.566c12.865-0.125,21.821-9.836,21.821-22.701V98.909h6.179V160.9H647.408z"/>
	<path fill="#E7B22F" d="M683.983,80.096v18.792h21.188v5.171h-21.188v37.962c0,8.451,1.765,14.378,11.476,14.378
		c3.028,0,6.433-1.008,9.586-2.521l2.146,5.044c-3.91,1.893-7.818,3.151-11.731,3.151c-13.242,0-17.529-7.818-17.529-20.053v-37.962
		h-13.242v-5.171h13.242v-18.16L683.983,80.096z"/>
	<path fill="#E7B22F" d="M774.033,98.888l-37.963,88.285h-6.558l11.476-26.738l-24.971-61.547h6.686l14.503,36.828l7.314,18.035
		l7.188-18.162l15.64-36.701H774.033z"/>
</g>
</svg>
