<svg xmlns="http://www.w3.org/2000/svg" width="50" height="50" viewBox="0 0 50 50">
  <path id="Simplicité" d="M48.183,1H3.321a2.406,2.406,0,0,0-2.4,2.4V33.845a2.406,2.406,0,0,0,2.4,2.4H4.592L.586,40.254,11.332,51l4.337-4.337-1.2-1.2.453-.453,3.035-.505A5.582,5.582,0,0,0,21,42.936l6.688-6.688h20.5a2.406,2.406,0,0,0,2.4-2.4V3.4a2.406,2.406,0,0,0-2.4-2.4ZM3.321,2.6H48.183a.8.8,0,0,1,.8.8V7.409H2.52V3.4A.8.8,0,0,1,3.321,2.6Zm2.8,34.516-.87-.87H6.525v.469Zm5.207,11.616-8.48-8.48,2.072-2.072,8.48,8.48ZM19.865,41.8a3.983,3.983,0,0,1-2.173,1.118l-3.541.59-.817.817L7.258,38.251l.87-.87V33.433A3.981,3.981,0,0,1,9.3,30.6l1.223-1.223a5.451,5.451,0,0,0,1.609-3.883v-.826a.451.451,0,0,1,.679-.362,3.883,3.883,0,0,1,1.724,3.231v.369l-2.97,2.97-.041.041,1.133,1.133.041-.041,3.439-3.439,8.08-8.08a.9.9,0,0,1,1.533.635.891.891,0,0,1-.263.635l-4.807,4.807-1.906,1.906L19.909,29.6,21.815,27.7a.9.9,0,0,1,1.271,1.271L21.18,30.876l1.133,1.133L24.219,30.1a.9.9,0,0,1,1.271,1.271l-1.906,1.906,1.133,1.133,1.906-1.906a.9.9,0,0,1,1.271,1.271Zm6.218-18.372.538-.538a2.471,2.471,0,0,0,.621-1.066l.121-.042.083-.034a4.016,4.016,0,0,0,1.28-.968l.3-.339-.481-1.537.81-.61.81.61-.481,1.537.3.339a4.039,4.039,0,0,0,1.28.968l.439.21,1.256-.947,1.256.947.439-.21a4.016,4.016,0,0,0,1.28-.968l.3-.339-.481-1.537.81-.61.81.61L36.9,20.444l.3.339a4.039,4.039,0,0,0,1.28.968l.439.21,1.256-.947,1.256.947.439-.21a4.016,4.016,0,0,0,1.28-.968l.3-.339-.481-1.537,1.255-.945-.05-.453a4.725,4.725,0,0,0-.6-1.672l-.229-.421-1.442.01-.481-1.432-.45-.093a3.877,3.877,0,0,0-1.589,0l-.453.094-.472,1.43-1.533-.006-.228.42c-.057.1-.11.22-.16.338-.054-.111-.107-.222-.17-.338l-.229-.421-1.442.01-.481-1.432-.45-.093a3.877,3.877,0,0,0-1.589,0l-.453.094-.472,1.43-1.533-.006-.228.42c-.057.1-.11.22-.16.338-.054-.111-.107-.222-.17-.338l-.229-.421-1.442.01L27,13.995l-.45-.093a3.877,3.877,0,0,0-1.589,0L24.505,14l-.472,1.43L22.5,15.419l-.228.42a4.842,4.842,0,0,0-.518,1.672l-.05.453,1.255.945-.264.843L20.144,22.3V14.619a2.406,2.406,0,0,1,2.4-2.4H43.376a2.406,2.406,0,0,1,2.4,2.4v6.409a2.406,2.406,0,0,1-2.4,2.4H41.442l-4.71,4.71a.344.344,0,0,1-.566-.235V23.431Zm-2.656-6.175c.021-.079.045-.156.07-.232l1.692.007.53-1.611h.067l.543,1.617,1.621-.012c.038.087.073.171.1.25L26.68,18.308l.535,1.71c-.03.025-.066.04-.1.062a2.5,2.5,0,0,0-2.264-1.456c-.045,0-.089.011-.134.014l.1-.33Zm11,2.761c-.019.016-.04.032-.061.047l-1.4-1.057-1.4,1.057c-.021-.015-.042-.031-.061-.047l.535-1.71-1.4-1.051c.021-.079.045-.156.07-.232l1.692.007.53-1.611H33l.543,1.617,1.621-.012c.038.087.073.171.1.25L33.89,18.308Zm7.21,0c-.019.016-.04.032-.061.047l-1.4-1.057-1.4,1.057c-.021-.015-.042-.031-.061-.047l.535-1.71-1.4-1.051c.021-.079.045-.156.07-.232l1.692.007.53-1.611h.067l.543,1.617,1.621-.012c.038.087.073.171.1.25L41.1,18.308Zm6.547,14.63H29.24a2.481,2.481,0,0,0-1.895-4,2.5,2.5,0,0,0-2.4-2.4,2.5,2.5,0,0,0-1.48-2.194l1.019-1.019H34.564v2.873a1.934,1.934,0,0,0,3.3,1.367l4.24-4.24h1.271a4.01,4.01,0,0,0,4.006-4.006V14.619a4.01,4.01,0,0,0-4.006-4.006H22.547a4.01,4.01,0,0,0-4.006,4.006V23.9l-2.526,2.526A5.471,5.471,0,0,0,13.7,22.974a2.038,2.038,0,0,0-3.172,1.694v.826a3.862,3.862,0,0,1-1.139,2.75L8.168,29.467a5.572,5.572,0,0,0-1.643,3.965v1.214h-3.2a.8.8,0,0,1-.8-.8V9.011H48.984V33.845a.8.8,0,0,1-.8.8ZM12.133,5.807h-1.6V4.2h1.6Zm-3.2,0h-1.6V4.2h1.6Zm-3.2,0h-1.6V4.2h1.6ZM45.779,31.442h1.6v1.6h-1.6Zm-6.409,0h1.6v1.6h-1.6Zm3.2,0h1.6v1.6h-1.6Zm-1.6-3.2h6.409v1.6H40.973ZM5.724,12.215h-1.6v-1.6h1.6Zm1.6-1.6H16.94v1.6H7.326Zm-3.2,3.2H16.94v1.6H4.122Zm0,3.2H16.94v1.6H4.122Zm0,3.2h6.409v1.6H4.122Z" transform="translate(-0.586 -1)" fill="#f1ba0b"/>
</svg>
