<svg xmlns="http://www.w3.org/2000/svg" xmlns:xlink="http://www.w3.org/1999/xlink" width="440.001" height="81.977" viewBox="0 0 440.001 81.977">
  <defs>
    <linearGradient id="linear-gradient" x1="-0.004" y1="0.926" x2="0.854" y2="0.135" gradientUnits="objectBoundingBox">
      <stop offset="0.453" stop-color="#f1334e"/>
      <stop offset="0.478" stop-color="#ffc000"/>
      <stop offset="0.559" stop-color="#43b9ad"/>
    </linearGradient>
  </defs>
  <g id="Groupe_987" data-name="Groupe 987" transform="translate(558 -12467)">
    <path id="Union_2" data-name="Union 2" d="M440,48H0V5.027a5,5,0,0,1,5-5H168V0h11a40.509,40.509,0,0,0,8.379,24.819l-1.744,21.857,19.626-8.4A40.781,40.781,0,0,0,220,41,41.046,41.046,0,0,0,261,0h8V.027H435A5,5,0,0,1,440,4.794V48h0l0,0ZM192.358,37.439l.885-6.393a41.45,41.45,0,0,0,4.588,3.443l-5.472,2.949Z" transform="translate(-558 12500.974)" fill="#fff"/>
    <g id="Groupe_986" data-name="Groupe 986" transform="translate(-402 12437.107)">
      <g id="Groupe_984" data-name="Groupe 984" transform="translate(30 29.87)">
        <path id="Tracé_3620" data-name="Tracé 3620" d="M338.653,828.851l1.551-19.44-.012-.016a33.688,33.688,0,0,1-3.67-6.231,56.181,56.181,0,0,1-1.835-5.55c-.34-1.191-.611-2.234-.7-2.75a34.337,34.337,0,0,1-.487-6.16,33.51,33.51,0,0,1,4.2-15.866,34.6,34.6,0,0,1,2.294-3.6q.683-.939,1.418-1.817a33.988,33.988,0,0,1,53.628,41.7q-.272.373-.551.736a34.089,34.089,0,0,1-38.058,11.411l-.048-.017Zm46.267-63.568a29.693,29.693,0,0,0-39.935,4.746q-.737.866-1.417,1.8a30.07,30.07,0,0,0-2.152,3.416,29.19,29.19,0,0,0-3.427,16.036,28.6,28.6,0,0,0,.346,2.85c.135.795,1.012,3.8,1.664,5.751.219.653.412,1.186.543,1.477a29.419,29.419,0,0,0,5.364,8.014l.013.014L344.3,821.1l10.086-5.438.034.017a29.645,29.645,0,0,0,36.482-8.362q.3-.379.58-.771a29.53,29.53,0,0,0-6.562-41.264Z" transform="translate(-333.499 -755.217)" fill="url(#linear-gradient)"/>
        <path id="Tracé_3621" data-name="Tracé 3621" d="M407.029,845.6l1.5-14.046,7.339-10.083-2.1-9.4-9.607.918-7.339,10.085L383.9,828.846l6.983,5.06,3.288-4.517,1.417,1.027a.437.437,0,0,1,.165.468l-6.235,14.5,11.893-10.4a.44.44,0,0,1,.5.012l1.417,1.027-3.288,4.519Zm.789-20.225a2.208,2.208,0,0,1-3.079.487l-1.31-.949a2.2,2.2,0,0,1-.489-3.072l2.277-3.129a2.208,2.208,0,0,1,3.079-.487l1.31.949a2.2,2.2,0,0,1,.489,3.072Z" transform="translate(-368.03 -794.203)" fill="#fff" fill-rule="evenodd"/>
        <path id="Tracé_3622" data-name="Tracé 3622" d="M340.606,878.2c-.131-.29-.324-.824-.543-1.477-.644-1.924-1.507-4.883-1.657-5.718l-4.813-3.729a34.5,34.5,0,0,0,.459,4.433c.088.516.358,1.559.7,2.75.117.407.241.832.371,1.259l7.048,5.461a29.21,29.21,0,0,1-1.565-2.979Z" transform="translate(-333.564 -832.064)" fill="#f36233"/>
        <path id="Tracé_3623" data-name="Tracé 3623" d="M454.7,957.121a34.255,34.255,0,0,0,5.8-1.959l-4.046-3.135a29.9,29.9,0,0,1-5.338,1.316q-1.009.15-2.029.233l4.81,3.726C454.166,957.245,454.433,957.185,454.7,957.121Z" transform="translate(-412.682 -890.18)" fill="#f79516"/>
        <path id="Tracé_3624" data-name="Tracé 3624" d="M334.99,832.141l4.047,3.136a29.043,29.043,0,0,1,1.241-6.3l-3.685-2.855A33.377,33.377,0,0,0,334.99,832.141Z" transform="translate(-334.52 -803.844)" fill="#f1ba0b"/>
        <path id="Tracé_3625" data-name="Tracé 3625" d="M499.182,934.528l-3.519-2.728a29.349,29.349,0,0,1-4.717,3.6l3.685,2.855A33.677,33.677,0,0,0,499.182,934.528Z" transform="translate(-441.357 -876.31)" fill="#a8ba4d"/>
        <path id="Tracé_3626" data-name="Tracé 3626" d="M349.967,796a34.611,34.611,0,0,0-1.919,2.945l3.519,2.727a30.127,30.127,0,0,1,1.968-3.086c.414-.568.846-1.115,1.292-1.646l-3.485-2.7Q350.631,795.094,349.967,796Z" transform="translate(-343.466 -781.979)" fill="#80b870"/>
        <path id="Tracé_3627" data-name="Tracé 3627" d="M340.081,814.53l3.686,2.855c.042-.134.082-.268.126-.4a29.3,29.3,0,0,1,2.032-4.71c.06-.111.124-.219.186-.329l-3.519-2.727c-.126.216-.254.433-.375.652a33.843,33.843,0,0,0-1.948,4.157C340.2,814.193,340.143,814.362,340.081,814.53Z" transform="translate(-338.008 -792.248)" fill="#a8ba4d"/>
        <path id="Tracé_3628" data-name="Tracé 3628" d="M478.293,943.269l-.131.082a29.546,29.546,0,0,1-3.754,1.928q-.953.407-1.93.742l4.046,3.135q.382-.168.76-.345a33.91,33.91,0,0,0,4.434-2.508c.087-.059.173-.12.259-.179Z" transform="translate(-428.706 -884.174)" fill="#f1ba0b"/>
        <path id="Tracé_3629" data-name="Tracé 3629" d="M338.336,855.879q-.242-1.426-.346-2.85a29.483,29.483,0,0,1,0-4.384c.006-.081.015-.162.022-.244l-4.047-3.136c-.031.175-.062.35-.087.526a33.549,33.549,0,0,0-.38,4.664c-.007.574,0,1.15.028,1.727l4.813,3.729A.083.083,0,0,0,338.336,855.879Z" transform="translate(-333.5 -816.968)" fill="#f79516"/>
        <path id="Tracé_3630" data-name="Tracé 3630" d="M425.593,954.533q-.87.07-1.746.093a29.637,29.637,0,0,1-9.055-1.2l7.21,5.586a34.316,34.316,0,0,0,5.589-.264q1.415-.184,2.811-.485Z" transform="translate(-389.188 -891.138)" fill="#f36233"/>
        <path id="Tracé_3631" data-name="Tracé 3631" d="M509.7,918.045c-.037.052-.073.1-.111.157q-.285.391-.58.77a29.61,29.61,0,0,1-2.5,2.821q-.3.293-.6.575l3.52,2.727q.323-.316.639-.642a34.061,34.061,0,0,0,2.532-2.931q.278-.363.551-.736l.029-.041Z" transform="translate(-451.614 -866.877)" fill="#80b870"/>
      </g>
    </g>
  </g>
</svg>
