<?xml version="1.0" encoding="utf-8"?>
<!DOCTYPE svg PUBLIC "-//W3C//DTD SVG 1.1//EN" "http://www.w3.org/Graphics/SVG/1.1/DTD/svg11.dtd">
<svg version="1.1" id="garagescore-wrench" xmlns="http://www.w3.org/2000/svg" xmlns:xlink="http://www.w3.org/1999/xlink" x="0px" y="0px" width="36.741001" height="36.741001" viewBox="0 0 36.741001 36.741001" enable-background="new 0 0 333 43.5" xml:space="preserve">
<circle style="fill:#FFFFFF;fill-opacity:1;stroke-width:0" cx="18.3705005" cy="18.3705005" r="18.3705005" />
<g transform="translate(-4.9995029,-4.0646213)">
  <path d="M 6.295,26.395 C 6.296,26.4 6.3,26.405 6.301,26.41 6.369,26.335 6.326,26.372 6.295,26.395 Z" />
  <path d="M 6.295,26.395 C 6.293,26.39 6.291,26.386 6.289,26.38 6.26,26.417 6.273,26.409 6.295,26.395 Z" style="fill:#111111" />
  <path d="m 8.743,29.425 c 1.812,-1.839 -0.635,0.581 1.941,-2.063 0.367,-0.482 2.804,-3.333 2.923,-3.577 0.465,-0.967 0.901,-3.959 0.984,-6.654 0.078,-2.688 1.499,-6.265 3.141,-7.945 1.65,-1.676 4.911,-3.527 7.24,-4.117 0.949,-0.239 1.881,-0.41 2.681,-0.5 C 25.924,4.153 24.105,3.985 22.24,4.1 12.113,4.725 4.41,13.44 5.035,23.566 c 0.18,2.907 1.028,5.614 2.383,7.983 0.106,-0.297 0.236,-0.586 0.392,-0.865 0.25,-0.451 0.556,-0.875 0.933,-1.259 z" style="fill:#111111" />
  <path d="m 27.061,10.031 c -2.236,2.272 -4.056,4.394 -4.045,4.718 0.019,0.321 0.724,1.591 1.569,2.835 0.846,1.23 2.557,2.912 3.808,3.742 1.246,0.824 2.53,1.505 2.853,1.519 0.328,0.012 2.424,-1.848 4.66,-4.115 1.989,-2.026 3.743,-3.629 4.204,-3.871 -1.854,-4.093 -5.154,-7.357 -9.213,-9.185 -0.012,0.266 -1.684,2.172 -3.836,4.357 z" style="opacity:0.7;fill:#111111" />
  <path d="m 41.307,18.46 c -0.086,0.701 -0.226,1.484 -0.414,2.28 -0.549,2.34 -2.345,5.626 -4.001,7.304 -1.646,1.673 -5.204,3.14 -7.89,3.27 -2.692,0.119 -5.678,0.608 -6.634,1.086 -0.251,0.124 -2.818,2.865 -3.316,3.26 l -0.035,-0.012 c -2.515,2.588 -0.09,0.197 -1.895,2.028 -0.541,0.549 -1.166,0.968 -1.836,1.258 2.769,1.359 5.917,2.04 9.217,1.836 10.126,-0.625 17.828,-9.341 17.202,-19.466 -0.059,-0.972 -0.194,-1.923 -0.398,-2.844 z" style="fill:#111111" />
</g>
</svg>