<?xml version="1.0" encoding="utf-8"?>
<!-- Generator: Adobe Illustrator 16.0.0, SVG Export Plug-In . SVG Version: 6.00 Build 0)  -->
<!DOCTYPE svg PUBLIC "-//W3C//DTD SVG 1.1//EN" "http://www.w3.org/Graphics/SVG/1.1/DTD/svg11.dtd">
<svg version="1.1" id="Calque_1" xmlns="http://www.w3.org/2000/svg" xmlns:xlink="http://www.w3.org/1999/xlink" x="0px" y="0px"
	 width="1024px" height="1024px" viewBox="0 0 1024 1024" enable-background="new 0 0 1024 1024" xml:space="preserve">
<title></title>
<g id="icomoon-ignore">
</g>
<path fill="#219AB5" d="M511.984,1.998C229.676,1.998,0,231.688,0,514.014c0,255.754,190.81,473.806,443.838,507.212l5.88,0.776
	l9.834-74.532l-5.878-0.776c-215.82-28.51-378.57-214.523-378.57-432.68c0-240.93,195.982-436.94,436.878-436.94
	c240.894,0,436.876,196.011,436.876,436.94c0,218.304-162.719,404.315-378.498,432.68l-5.88,0.774l9.798,74.536l5.882-0.776
	c253.027-33.402,443.836-251.456,443.84-507.214C1024,231.688,794.313,1.998,511.984,1.998z M511.986,472.035H474.48v137.446h75.138
	v-65.948c43.098-8.416,82.444-31.41,111.242-65.124c30.231-35.396,46.884-80.487,46.884-126.964
	c0-107.907-87.792-195.697-195.698-195.697c-107.906,0-195.694,87.79-195.694,195.697v5.931h74.982v-5.931
	c0-66.527,54.126-120.651,120.652-120.651c66.512,0,120.622,54.126,120.622,120.651C632.608,417.94,578.498,472.035,511.986,472.035
	z M511.984,863.336c55.607,0,100.848-45.213,100.848-100.784c0-55.568-45.24-100.778-100.848-100.778
	c-55.59,0-100.814,45.208-100.814,100.778C411.17,818.123,456.396,863.336,511.984,863.336z M511.984,736.909
	c14.178,0,25.71,11.504,25.71,25.643c0,14.18-11.534,25.712-25.71,25.712c-14.177,0-25.708-11.534-25.708-25.712
	C486.276,748.413,497.811,736.909,511.984,736.909z"/>
</svg>
